<?xml version="1.0" encoding="UTF-8"?>
<svg version="1.1" xmlns="http://www.w3.org/2000/svg" width="194" height="145">
<path d="M0 0 C6.24166874 -0.25768357 11.49280711 0.60115572 17.5 2.25 C18.70462891 2.55744141 18.70462891 2.55744141 19.93359375 2.87109375 C28.18343239 5.07729047 37.31506232 8.41961514 42.22265625 15.8515625 C45.60855648 22.13792924 46.8540876 28.18608648 44.859375 35.140625 C43.29665043 38.52179272 41.08811585 39.9412561 38 42 C37.113125 42.309375 36.22625 42.61875 35.3125 42.9375 C31.98876686 44.46462063 31.49685263 46.74597255 30 50 C27.63254428 52.73737067 26.45870295 53.84709902 23 55 C20.66700175 55.03954234 18.33291811 55.04401732 16 55 C16.04640625 55.680625 16.0928125 56.36125 16.140625 57.0625 C16.59669877 69.3113385 13.48400501 80.39118719 8.4375 91.4375 C8.14480225 92.08243408 7.85210449 92.72736816 7.55053711 93.3918457 C6.68359375 95.18359375 6.68359375 95.18359375 5 98 C-4.88234795 101.29411598 -16.80608648 97.03660537 -26 93 C-29.35708872 90.97156189 -32.1908652 88.72974621 -35 86 C-35.51046875 85.51660156 -36.0209375 85.03320312 -36.546875 84.53515625 C-41.07191172 79.73063197 -43.05466736 73.43289376 -43.4375 66.9375 C-42.75057827 60.75520442 -40.90986268 56.65521432 -36.1875 52.5625 C-32.71954039 50.8625198 -29.83319853 50.30665588 -26 50 C-25.9071875 48.948125 -25.9071875 48.948125 -25.8125 47.875 C-24.69528762 43.92178696 -22.79812617 42.00286711 -20 39 C-16.93402292 37.46701146 -13.88592154 37.98182874 -10.5078125 38.0625 C-8.15097249 38.00376255 -6.26208444 37.60881531 -4 37 C-4.01571045 36.36610352 -4.0314209 35.73220703 -4.04760742 35.07910156 C-4.60438795 9.2087759 -4.60438795 9.2087759 0 0 Z " fill="#BF784A" transform="translate(45,28)"/>
<path d="M0 0 C3.18610736 2.71158073 5.49884594 5.09428242 7 9 C7.05882283 12.28987694 6.8699639 15.52442309 6.6796875 18.80859375 C7.07285562 22.72589074 8.4490651 24.08950476 11 27 C12.39077689 31.01273331 12.42660362 34.08861954 10.625 37.9375 C9 40 9 40 8 41 C7.92087053 42.5825894 7.86170096 44.16619763 7.8125 45.75 C7.47784057 49.46843816 7.14131309 51.54497201 4.25 54 C-1.76109003 57.69913232 -6.17739291 58.98100896 -13.28515625 57.53515625 C-28.59903115 53.43365885 -41.4418136 43.29062022 -50 30 C-51.25 26.3125 -51.25 26.3125 -51 23 C-44.74869445 10.72785177 -35.38910348 2.3948995 -23.0625 -3.375 C-14.68209752 -5.08528622 -7.34769162 -4.56828312 0 0 Z " fill="#C67F50" transform="translate(179,61)"/>
<path d="M0 0 C4.20451148 4.20451148 4.13665609 11.60175974 4.3125 17.3125 C4.06959339 27.41455717 2.0659855 37.42930125 -5 45 C-11.28444289 49.95137925 -17.03423561 51.76384042 -25 51 C-29.21952038 49.40772816 -32.08528747 47.43519691 -35 44 C-35.2475 43.29875 -35.495 42.5975 -35.75 41.875 C-37.59813453 39.10279821 -39.87921725 39.15476169 -43.0234375 38.46875 C-45.81808402 37.80598798 -47.21579251 37.30460135 -49 35 C-49.32335844 31.97120928 -49.2289178 29.03316085 -49 26 C-49.63292969 25.87625 -50.26585938 25.7525 -50.91796875 25.625 C-53 25 -53 25 -54.3125 23 C-55.43862642 18.08599381 -55.347895 13.58260798 -52.9765625 9.0390625 C-47.78192746 2.16292709 -38.83867051 -1.18174691 -30.5625 -2.71875 C-20.1838171 -3.85787373 -9.94119057 -3.3704192 0 0 Z " fill="#BF774A" transform="translate(143,9)"/>
<path d="M0 0 C0.64881448 2.54093855 1.29412899 5.08268273 1.9375 7.625 C2.21110352 8.69427734 2.21110352 8.69427734 2.49023438 9.78515625 C5.62713847 22.21870339 6.98358958 34.18773578 1 46 C-1.36064687 49.70852411 -3.87387934 52.34505868 -8 54 C-13.24239414 54.57964683 -18.26260015 54.52661325 -23 52 C-23 51.34 -23 50.68 -23 50 C-25.87839025 48.37562627 -28.02522123 47.77681039 -31.3125 47.625 C-35.94051247 47.13784079 -39.65920941 46.41848339 -43 43 C-46.44661291 37.00070837 -47.6828803 31.06350849 -46.6171875 24.234375 C-45.66432616 20.78477572 -44.35631212 18.70282861 -42 16 C-41.01 15.67 -40.02 15.34 -39 15 C-39 14.34 -39 13.68 -39 13 C-32.61817253 8.14480577 -25.33568177 5.14071303 -17.8125 2.5625 C-16.70962646 2.17433105 -16.70962646 2.17433105 -15.58447266 1.77832031 C-10.23199608 0.03831789 -5.62187513 -0.227989 0 0 Z " fill="#D4915D" transform="translate(122,83)"/>
<path d="M0 0 C4.73070337 3.15380225 4.8682399 7.60645575 6 13 C6.83138178 17.66244965 7.53524491 22.3441472 8.23828125 27.02734375 C8.97650175 31.92854889 9.81569058 36.80848086 10.6875 41.6875 C10.88472656 42.79279053 10.88472656 42.79279053 11.0859375 43.92041016 C11.38917036 45.61386788 11.69434552 47.30697768 12 49 C8.94353242 48.4178157 7.18124204 47.57682529 4.875 45.5 C2.2867271 43.03943262 2.2867271 43.03943262 0 42 C0.11306697 43.95894361 0.11306697 43.95894361 1 46 C3.39068734 47.10636395 3.39068734 47.10636395 6 48 C7.8125 49.5 7.8125 49.5 9 51 C9 51.66 9 52.32 9 53 C2.07 52.505 2.07 52.505 -5 52 C-4.34 52.66 -3.68 53.32 -3 54 C-4.44010481 53.74337755 -5.8770687 53.46909179 -7.3125 53.1875 C-8.11300781 53.03667969 -8.91351562 52.88585937 -9.73828125 52.73046875 C-12.23445587 51.92427764 -13.32422106 50.97947998 -15 49 C-12.69 49.33 -10.38 49.66 -8 50 C-9.485 49.505 -9.485 49.505 -11 49 C-11 48.34 -11 47.68 -11 47 C-11.721875 46.938125 -12.44375 46.87625 -13.1875 46.8125 C-16.8999813 45.7400054 -18.42615096 43.83783356 -21 41 C-22.0828125 40.0409375 -22.0828125 40.0409375 -23.1875 39.0625 C-26.8205662 34.92832122 -27.36190061 30.26376773 -27.1796875 24.94921875 C-26.74966358 20.28439408 -25.59225642 17.2507842 -22.125 14.125 C-19 12 -19 12 -15 12 C-14.86722656 12.77085938 -14.73445313 13.54171875 -14.59765625 14.3359375 C-14.42105469 15.33882812 -14.24445312 16.34171875 -14.0625 17.375 C-13.88847656 18.37273437 -13.71445312 19.37046875 -13.53515625 20.3984375 C-13.12287938 22.96909656 -13.12287938 22.96909656 -12 25 C-11.96261719 23.9378125 -11.92523438 22.875625 -11.88671875 21.78125 C-11.26286495 7.3952153 -11.26286495 7.3952153 -8 1 C-5.22899606 -0.38550197 -3.0665294 -0.1877467 0 0 Z " fill="#D4905D" transform="translate(33,70)"/>
<path d="M0 0 C5.62537352 0.46009999 9.98214345 1.6191706 15.046875 4.09765625 C17.33566204 5.16095102 19.53128127 5.69695464 22.03125 6.01953125 C22.03125 6.67953125 22.03125 7.33953125 22.03125 8.01953125 C22.93875 8.28765625 23.84625 8.55578125 24.78125 8.83203125 C31.0007895 11.1045553 31.0007895 11.1045553 32.94140625 14.7109375 C35.00390222 19.61296281 35.56019412 23.73009009 35.03125 29.01953125 C33.65625 31.51953125 33.65625 31.51953125 32.03125 33.01953125 C31.37125 33.01953125 30.71125 33.01953125 30.03125 33.01953125 C30.03125 33.67953125 30.03125 34.33953125 30.03125 35.01953125 C22.77287964 36.00876728 17.51636858 36.66741045 11.03125 33.01953125 C10.33 32.77203125 9.62875 32.52453125 8.90625 32.26953125 C4.94048276 29.62568643 1.66139789 24.46538914 0.03125 20.01953125 C-0.09375 17.26953125 -0.09375 17.26953125 0.03125 15.01953125 C-0.62875 15.01953125 -1.28875 15.01953125 -1.96875 15.01953125 C-2.16265729 12.7075597 -2.34871367 10.39492835 -2.53125 8.08203125 C-2.68787109 6.15037109 -2.68787109 6.15037109 -2.84765625 4.1796875 C-2.88761719 3.13683594 -2.92757812 2.09398437 -2.96875 1.01953125 C-1.96875 0.01953125 -1.96875 0.01953125 0 0 Z " fill="#D5915E" transform="translate(51.96875,31.98046875)"/>
<path d="M0 0 C0.66 0 1.32 0 2 0 C2.17015625 0.71285156 2.3403125 1.42570312 2.515625 2.16015625 C4.01488679 8.08543024 5.79820601 12.8108856 9 18 C9 18.66 9 19.32 9 20 C9.66 20 10.32 20 11 20 C11 20.66 11 21.32 11 22 C11.66 22 12.32 22 13 22 C14.66666667 23.66666667 16.33333333 25.33333333 18 27 C21.16897568 29.04450044 24.28915196 29.49397527 28 30 C27.17880498 33.07948132 26.48027612 35.44583525 24.375 37.875 C20.83707969 39.55085699 17.89178756 39.19458938 14 39 C13.01 35.535 13.01 35.535 12 32 C11.34 32 10.68 32 10 32 C9.67 30.35 9.34 28.7 9 27 C5.7 26.01 2.4 25.02 -1 24 C-1.02712325 21.12493579 -1.04689851 18.25013092 -1.0625 15.375 C-1.07087891 14.56675781 -1.07925781 13.75851563 -1.08789062 12.92578125 C-1.1058955 8.49658082 -0.89622662 4.36116576 0 0 Z M3 27.4609375 C6.0800399 28.2911045 7.82873082 29.70100911 10 32 C12.6819369 36.83317251 12.42285306 41.99133402 12.4375 47.375 C12.44330078 48.83317139 12.44330078 48.83317139 12.44921875 50.32080078 C12.31210975 58.98009085 10.45509698 66.0779562 7 74 C6.34 74 5.68 74 5 74 C4.505 76.475 4.505 76.475 4 79 C3.67 79 3.34 79 3 79 C1.2284677 74.18173757 0.28933768 69.48314389 -0.5 64.4375 C-0.69227173 63.2460437 -0.69227173 63.2460437 -0.88842773 62.03051758 C-1.26473278 59.68788282 -1.63377827 57.34422999 -2 55 C-2.18691406 53.80890625 -2.37382813 52.6178125 -2.56640625 51.390625 C-3.05105316 48.26140872 -3.52644946 45.13091264 -4 42 C-4.37441788 39.56241051 -4.74940791 37.12490883 -5.125 34.6875 C-5.41666667 32.79166667 -5.70833333 30.89583333 -6 29 C-2.58360803 26.72240535 -0.97391758 26.83270788 3 27.4609375 Z " fill="#D5915D" transform="translate(45,41)"/>
<path d="M0 0 C1.10021484 -0.01836914 1.10021484 -0.01836914 2.22265625 -0.03710938 C8.63776771 -0.05432345 13.58280668 1.12754533 18.75 5.125 C19.41515625 5.62902344 20.0803125 6.13304688 20.765625 6.65234375 C22.5 8.1875 22.5 8.1875 24.5 11.1875 C24.57905064 13.51949388 24.58798769 15.85582622 24.5 18.1875 C20.57844114 20.80187258 17.05763232 20.40453011 12.5 20.1875 C11.51 19.8575 10.52 19.5275 9.5 19.1875 C9.5 18.5275 9.5 17.8675 9.5 17.1875 C4.88 16.5275 0.26 15.8675 -4.5 15.1875 C-4.5 14.5275 -4.5 13.8675 -4.5 13.1875 C-5.57378906 12.99414062 -6.64757812 12.80078125 -7.75390625 12.6015625 C-9.19013733 12.33872282 -10.6263334 12.07569176 -12.0625 11.8125 C-12.76697266 11.68617187 -13.47144531 11.55984375 -14.19726562 11.4296875 C-18.72714697 10.59468633 -23.09030133 9.52026044 -27.5 8.1875 C-27.17 7.1975 -26.84 6.2075 -26.5 5.1875 C-23.98828125 4.0546875 -23.98828125 4.0546875 -20.8125 3.0625 C-19.25982422 2.56363281 -19.25982422 2.56363281 -17.67578125 2.0546875 C-11.72742172 0.4304122 -6.12602657 0.00538315 0 0 Z " fill="#F0B47E" transform="translate(162.5,78.8125)"/>
<path d="M0 0 C4.73070337 3.15380225 4.8682399 7.60645575 6 13 C6.83138178 17.66244965 7.53524491 22.3441472 8.23828125 27.02734375 C8.97650175 31.92854889 9.81569058 36.80848086 10.6875 41.6875 C10.88472656 42.79279053 10.88472656 42.79279053 11.0859375 43.92041016 C11.38917036 45.61386788 11.69434552 47.30697768 12 49 C8.56086948 48.43790555 7.19798944 47.47112228 5.0625 44.75 C1.96317848 40.9324478 -1.37285036 37.48469491 -5.0078125 34.16796875 C-10.5538457 28.13257968 -11.61001934 19.71971686 -11.33203125 11.8125 C-10.85251776 7.75073864 -9.80184094 4.67298346 -8 1 C-5.22899606 -0.38550197 -3.0665294 -0.1877467 0 0 Z " fill="#F0B37D" transform="translate(33,70)"/>
<path d="M0 0 C0.59423828 1.74316406 0.59423828 1.74316406 1.0703125 4.015625 C1.24498047 4.84843994 1.41964844 5.68125488 1.59960938 6.53930664 C4.26141374 20.27258445 6.73454625 33.42017656 -1.23828125 45.9453125 C-3.48756739 48.82829845 -5.63256095 50.64935748 -9 52 C-14.24239414 52.57964683 -19.26260015 52.52661325 -24 50 C-24 49.34 -24 48.68 -24 48 C-26.87839025 46.37562627 -29.02522123 45.77681039 -32.3125 45.625 C-36.94051247 45.13784079 -40.65920941 44.41848339 -44 41 C-47.44661291 35.00070837 -48.6828803 29.06350849 -47.6171875 22.234375 C-46.66432616 18.78477572 -45.35631212 16.70282861 -43 14 C-42.01 13.67 -41.02 13.34 -40 13 C-40 12.34 -40 11.68 -40 11 C-34.88126889 6.52285371 -29.66609845 5.16973862 -23 5 C-25.55338097 7.92318098 -28.47286591 9.43439727 -31.875 11.25 C-38.89952715 15.28575075 -38.89952715 15.28575075 -43 22 C-43.73370016 27.13590115 -43.75269586 32.45805182 -41 37 C-39.69481525 38.03647024 -38.36538653 39.04422943 -37 40 C-37 40.66 -37 41.32 -37 42 C-34.69 42 -32.38 42 -30 42 C-30.09539062 41.19175781 -30.19078125 40.38351563 -30.2890625 39.55078125 C-30.39992188 38.48214844 -30.51078125 37.41351563 -30.625 36.3125 C-30.79902344 34.72888672 -30.79902344 34.72888672 -30.9765625 33.11328125 C-31.0010326 29.86283654 -30.40852563 27.89769204 -29 25 C-28.67 25 -28.34 25 -28 25 C-27.87882812 26.21558594 -27.75765625 27.43117188 -27.6328125 28.68359375 C-27.46402922 30.26828117 -27.29473184 31.8529139 -27.125 33.4375 C-27.04636719 34.23994141 -26.96773437 35.04238281 -26.88671875 35.86914062 C-26.66154237 37.92170994 -26.33777413 39.96293009 -26 42 C-25.34 42.33 -24.68 42.66 -24 43 C-24 43.99 -24 44.98 -24 46 C-19.48382613 47.76240932 -15.83796518 48.67901266 -11 48 C-7.57897935 45.90521996 -4.54047084 43.71250312 -3.3046875 39.796875 C-3.15386719 38.90742187 -3.15386719 38.90742187 -3 38 C-2.34 38 -1.68 38 -1 38 C-0.94101631 34.54174064 -0.90607869 31.0836138 -0.875 27.625 C-0.85824219 26.65949219 -0.84148437 25.69398437 -0.82421875 24.69921875 C-0.78577008 18.9703675 -1.24175072 13.74892559 -2.56689453 8.16943359 C-3 6 -3 6 -3 2 C-8.45111321 4.58210626 -13.17518523 7.38138892 -18 11 C-18.66 10.67 -19.32 10.34 -20 10 C-18.02 7.69 -16.04 5.38 -14 3 C-14.763125 3.350625 -15.52625 3.70125 -16.3125 4.0625 C-19 5 -19 5 -22 4 C-6.51068616 -3.25534308 -6.51068616 -3.25534308 0 0 Z " fill="#C37E51" transform="translate(123,85)"/>
<path d="M0 0 C1.93884889 0.28256092 3.87605961 0.5763793 5.8125 0.875 C6.89144531 1.03742188 7.97039062 1.19984375 9.08203125 1.3671875 C12 2 12 2 15 4 C20.06112097 5.88847797 25.24393536 7.10235196 30.5625 8 C35.4768787 8.84465884 40.49991857 9.77468501 45 12 C47 15 47 15 46.875 18.5 C46 22 46 22 44.5 23.9375 C37.41203266 26.94988612 28.88996592 24.74469134 22 22 C20.99089192 21.00919181 19.99088004 20.00903753 19 19 C18.23300781 18.71125 17.46601563 18.4225 16.67578125 18.125 C13.19926818 16.66334195 10.95485755 14.54878446 8.1875 12 C7.21167969 11.113125 6.23585937 10.22625 5.23046875 9.3125 C3 7 3 7 3 5 C2.34 5 1.68 5 1 5 C0.67 3.35 0.34 1.7 0 0 Z " fill="#D5915E" transform="translate(135,90)"/>
<path d="M0 0 C-3.28056512 8.88152997 -9.6791993 20.19773884 -18.01953125 25.21484375 C-20 26 -20 26 -23 26 C-23 26.66 -23 27.32 -23 28 C-28.54460126 29.84820042 -34.68169612 29.8182249 -40.1875 27.875 C-42 26 -42 26 -42.625 23.0625 C-41.79686504 19.00463871 -40.36623608 18.32800837 -37 16 C-34.82267499 14.97316277 -32.61047858 14.01818219 -30.375 13.125 C-23.98567057 10.50438317 -18.01367041 7.38209584 -12 4 C-4.67901235 0 -4.67901235 0 0 0 Z " fill="#EFB27C" transform="translate(139,16)"/>
<path d="M0 0 C0 0.66 0 1.32 0 2 C-1.58199631 2.64910154 -3.16565724 3.29414694 -4.75 3.9375 C-5.63171875 4.29714844 -6.5134375 4.65679688 -7.421875 5.02734375 C-9.61186104 5.85356576 -11.71898271 6.49369943 -14 7 C-14 7.66 -14 8.32 -14 9 C-15.85625 9.680625 -15.85625 9.680625 -17.75 10.375 C-20.02490403 11.22156922 -22.15082415 12.07745024 -24.3125 13.1875 C-26 14 -26 14 -29 14 C-29 14.66 -29 15.32 -29 16 C-38.51372259 21.5321244 -38.51372259 21.5321244 -43.125 20.8125 C-44.07375 20.544375 -45.0225 20.27625 -46 20 C-46 17.03 -46 14.06 -46 11 C-45.34 11 -44.68 11 -44 11 C-43.731875 10.236875 -43.46375 9.47375 -43.1875 8.6875 C-41.65753699 5.22495213 -40.15964875 3.62138885 -36.8203125 1.83203125 C-25.41026652 -2.48394266 -11.89666826 -2.41467029 0 0 Z " fill="#D4915D" transform="translate(138,11)"/>
<path d="M0 0 C0.33 0.66 0.66 1.32 1 2 C1.99 2 2.98 2 4 2 C4 1.34 4 0.68 4 0 C4.66 0 5.32 0 6 0 C6.63412699 10.85061746 6.2190474 20.14179936 1 30 C-1.7699138 33.077682 -4.14265252 35.42848806 -8 37 C-7.01 37.66 -6.02 38.32 -5 39 C-9.64849515 41.3992233 -13.91086074 41.19957409 -19 41 C-19 40.67 -19 40.34 -19 40 C-16.36 39.67 -13.72 39.34 -11 39 C-12.010625 38.7525 -13.02125 38.505 -14.0625 38.25 C-18.18411552 37.05800529 -21.44358961 35.41835907 -25 33 C-25.6953125 30.8671875 -25.6953125 30.8671875 -26 29 C-25.16597656 28.76667969 -24.33195312 28.53335938 -23.47265625 28.29296875 C-11.27488573 24.33882321 -5.54874638 16.67789286 0.22265625 5.58203125 C0.47917969 5.05996094 0.73570312 4.53789062 1 4 C0.01 4.33 -0.98 4.66 -2 5 C-1.34 3.35 -0.68 1.7 0 0 Z " fill="#D58F5C" transform="translate(137,19)"/>
<path d="M0 0 C-1.70213543 3.67302908 -3.9357893 6.56996882 -6.46484375 9.70703125 C-10.58199596 15.85656902 -11.42938816 20.69946209 -11.1875 27.9375 C-11.17396484 28.71673828 -11.16042969 29.49597656 -11.14648438 30.29882812 C-11.11150224 32.19952404 -11.05770959 34.09985834 -11 36 C-13.31 36 -15.62 36 -18 36 C-18 35.34 -18 34.68 -18 34 C-18.928125 33.566875 -18.928125 33.566875 -19.875 33.125 C-22.31684398 31.83225907 -23.72230508 30.84941976 -24.59765625 28.171875 C-25.68057885 22.32619571 -26.16141026 16.94462159 -22.75 11.8125 C-17.32183942 5.4233732 -8.52570412 0 0 0 Z " fill="#EFB27C" transform="translate(104,91)"/>
<path d="M0 0 C0.66 0 1.32 0 2 0 C2.17015625 0.71285156 2.3403125 1.42570312 2.515625 2.16015625 C4.01488679 8.08543024 5.79820601 12.8108856 9 18 C9 18.66 9 19.32 9 20 C9.66 20 10.32 20 11 20 C11 20.66 11 21.32 11 22 C11.66 22 12.32 22 13 22 C14.66666667 23.66666667 16.33333333 25.33333333 18 27 C21.16897568 29.04450044 24.28915196 29.49397527 28 30 C27.17880498 33.07948132 26.48027612 35.44583525 24.375 37.875 C20.83707969 39.55085699 17.89178756 39.19458938 14 39 C12.50178941 35.62902617 12 33.79557881 12 30 C11.01 29.67 10.02 29.34 9 29 C9 28.34 9 27.68 9 27 C5.7 26.01 2.4 25.02 -1 24 C-1.02712325 21.12493579 -1.04689851 18.25013092 -1.0625 15.375 C-1.07087891 14.56675781 -1.07925781 13.75851563 -1.08789062 12.92578125 C-1.1058955 8.49658082 -0.89622662 4.36116576 0 0 Z " fill="#EFAF7A" transform="translate(45,41)"/>
<path d="M0 0 C0.13277344 0.77085938 0.26554687 1.54171875 0.40234375 2.3359375 C0.57894531 3.33882813 0.75554688 4.34171875 0.9375 5.375 C1.11152344 6.37273437 1.28554688 7.37046875 1.46484375 8.3984375 C1.87712062 10.96909656 1.87712062 10.96909656 3 13 C3.66 11.68 4.32 10.36 5 9 C5.36351562 10.12148437 5.36351562 10.12148437 5.734375 11.265625 C6.06953125 12.25046875 6.4046875 13.2353125 6.75 14.25 C7.23726562 15.71179688 7.23726562 15.71179688 7.734375 17.203125 C9.08761892 20.19362699 10.64553194 21.76132545 13 24 C13.75 26.75 13.75 26.75 14 29 C10.83282717 27.41641358 9.26731682 26.54736301 7.6875 23.3125 C7.460625 22.549375 7.23375 21.78625 7 21 C6.34 21 5.68 21 5 21 C4.731875 20.21625 4.46375 19.4325 4.1875 18.625 C3.15185568 15.71885077 3.15185568 15.71885077 0 14 C-0.66 14.66 -1.32 15.32 -2 16 C-2.33 16 -2.66 16 -3 16 C-3.08226668 19.04386724 -2.97608217 21.07175348 -2 24 C-1.34 24 -0.68 24 0 24 C3 27.46153846 3 27.46153846 3 30 C0.525 29.01 0.525 29.01 -2 28 C-2 27.34 -2 26.68 -2 26 C-2.66 26 -3.32 26 -4 26 C-4 25.34 -4 24.68 -4 24 C-5.65 23.67 -7.3 23.34 -9 23 C-9.33 21.68 -9.66 20.36 -10 19 C-10.66 19 -11.32 19 -12 19 C-12.39085848 7.66510401 -12.39085848 7.66510401 -8.671875 3.51953125 C-5.5458287 0.70135314 -4.30416125 0 0 0 Z " fill="#D38E5B" transform="translate(18,82)"/>
<path d="M0 0 C-0.33 1.32 -0.66 2.64 -1 4 C-2.80597656 4.09087891 -2.80597656 4.09087891 -4.6484375 4.18359375 C-6.22397077 4.26799732 -7.79949096 4.35264541 -9.375 4.4375 C-10.1690625 4.47681641 -10.963125 4.51613281 -11.78125 4.55664062 C-16.02601221 4.68893404 -16.02601221 4.68893404 -20 6 C-20.33 6.99 -20.66 7.98 -21 9 C-16.545 8.505 -16.545 8.505 -12 8 C-12.99 8.495 -12.99 8.495 -14 9 C-14 9.99 -14 10.98 -14 12 C-25.33712984 16.59225513 -25.33712984 16.59225513 -32 16 C-32 16.66 -32 17.32 -32 18 C-34.64 18.66 -37.28 19.32 -40 20 C-40 18.68 -40 17.36 -40 16 C-38.42578125 14.5078125 -38.42578125 14.5078125 -36.3125 13.125 C-33.4862616 11.16414079 -31.25163212 9.33278384 -29.125 6.625 C-28.42375 5.75875 -27.7225 4.8925 -27 4 C-26.34 4 -25.68 4 -25 4 C-25 3.34 -25 2.68 -25 2 C-17.36238788 -1.66605382 -8.14757653 -2.71585884 0 0 Z " fill="#D5905D" transform="translate(175,62)"/>
<path d="M0 0 C0.79921875 0.00902344 1.5984375 0.01804687 2.421875 0.02734375 C3.02515625 0.03894531 3.6284375 0.05054687 4.25 0.0625 C3.92 0.7225 3.59 1.3825 3.25 2.0625 C1.02734375 2.37109375 1.02734375 2.37109375 -1.8125 2.5 C-7.01355639 2.86665411 -10.9832771 3.99392214 -15.75 6.0625 C-12.285 5.5675 -12.285 5.5675 -8.75 5.0625 C-9.41 6.3825 -10.07 7.7025 -10.75 9.0625 C-11.41 9.0625 -12.07 9.0625 -12.75 9.0625 C-12.75 10.0525 -12.75 11.0425 -12.75 12.0625 C-12.09 11.7325 -11.43 11.4025 -10.75 11.0625 C-11.08 12.0525 -11.41 13.0425 -11.75 14.0625 C-12.41 14.0625 -13.07 14.0625 -13.75 14.0625 C-13.75 15.0525 -13.75 16.0425 -13.75 17.0625 C-14.41 17.0625 -15.07 17.0625 -15.75 17.0625 C-15.95625 17.949375 -16.1625 18.83625 -16.375 19.75 C-18.06548734 23.82253769 -20.33203916 25.35661434 -23.75 28.0625 C-25.12254588 30.21230497 -25.12254588 30.21230497 -25.75 32.0625 C-25.3877854 22.28270591 -20.11388002 15.17507179 -13.75 8.0625 C-14.8946875 8.3409375 -14.8946875 8.3409375 -16.0625 8.625 C-19.4623647 9.17846635 -21.51523384 8.14075539 -24.75 7.0625 C-22.16767086 6.08061439 -19.58421317 5.10190411 -17 4.125 C-15.90558594 3.70831055 -15.90558594 3.70831055 -14.7890625 3.28320312 C-14.08007812 3.01572266 -13.37109375 2.74824219 -12.640625 2.47265625 C-11.66657715 2.10346069 -11.66657715 2.10346069 -10.67285156 1.72680664 C-7.01749398 0.46395392 -3.87076806 -0.05692306 0 0 Z " fill="#C87E4D" transform="translate(117.75,82.9375)"/>
<path d="M0 0 C3.78597774 0.51626969 6.61339441 1.30669721 10 3 C11.99110401 3.38290462 13.99100513 3.72604615 16 4 C15.17880498 7.07948132 14.48027612 9.44583525 12.375 11.875 C8.83707969 13.55085699 5.89178756 13.19458938 2 13 C1.46605821 11.5882217 0.94834896 10.17029756 0.4375 8.75 C0.14746094 7.96109375 -0.14257812 7.1721875 -0.44140625 6.359375 C-1.04522837 3.80896548 -0.8473932 2.44677771 0 0 Z " fill="#F1B37D" transform="translate(57,67)"/>
<path d="M0 0 C2.21304695 2.21304695 2.07844902 6.75303098 2.5625 9.8125 C2.69889893 10.66948486 2.83529785 11.52646973 2.97583008 12.40942383 C3.96439358 18.97291811 4.35782006 25.36044992 4 32 C3.67 32 3.34 32 3 32 C2.87882812 31.03320312 2.75765625 30.06640625 2.6328125 29.0703125 C1.76581338 22.33439625 0.85647308 15.68383012 -0.6328125 9.05078125 C-1 7 -1 7 -1 3 C-6.45111321 5.58210626 -11.17518523 8.38138892 -16 12 C-16.66 11.67 -17.32 11.34 -18 11 C-16.02 8.69 -14.04 6.38 -12 4 C-13.1446875 4.5259375 -13.1446875 4.5259375 -14.3125 5.0625 C-17 6 -17 6 -20 5 C-13.16512621 1.7984796 -7.67204286 -0.34872922 0 0 Z " fill="#B66E42" transform="translate(121,84)"/>
<path d="M0 0 C0.8971875 0.309375 0.8971875 0.309375 1.8125 0.625 C0.8225 1.285 -0.1675 1.945 -1.1875 2.625 C0.1325 2.955 1.4525 3.285 2.8125 3.625 C1.8225 4.12 1.8225 4.12 0.8125 4.625 C0.35875 5.553125 -0.095 6.48125 -0.5625 7.4375 C-2.73287617 11.69477634 -4.61577757 14.10109252 -9.1875 15.625 C-11.52049825 15.66454234 -13.85458189 15.66901732 -16.1875 15.625 C-16.16429687 16.37523438 -16.14109375 17.12546875 -16.1171875 17.8984375 C-15.99630364 24.75427937 -16.53813873 30.96864917 -18.1875 37.625 C-18.5175 37.625 -18.8475 37.625 -19.1875 37.625 C-19.04933041 33.97883329 -18.90068466 30.33316926 -18.75 26.6875 C-18.71068359 25.64658203 -18.67136719 24.60566406 -18.63085938 23.53320312 C-18.58896484 22.54384766 -18.54707031 21.55449219 -18.50390625 20.53515625 C-18.46724854 19.61871338 -18.43059082 18.70227051 -18.39282227 17.75805664 C-18.1875 15.625 -18.1875 15.625 -17.1875 14.625 C-15.18791636 14.58419217 -13.18704746 14.58245644 -11.1875 14.625 C-10.919375 14.026875 -10.65125 13.42875 -10.375 12.8125 C-9.18851202 10.62686425 -7.9291583 9.3666583 -6.1875 7.625 C-5.01175289 5.52510348 -5.01175289 5.52510348 -4.1875 3.625 C-6.1675 3.625 -8.1475 3.625 -10.1875 3.625 C-10.1875 3.295 -10.1875 2.965 -10.1875 2.625 C-9.424375 2.50125 -8.66125 2.3775 -7.875 2.25 C-4.73430311 1.51960537 -3.19650145 -0.54797168 0 0 Z " fill="#C48052" transform="translate(77.1875,67.375)"/>
<path d="M0 0 C0.33 0 0.66 0 1 0 C2.45147144 14.24675041 2.58690589 26.65750413 -6.5 38.37109375 C-8 40 -8 40 -11 42 C-14.1875 42.125 -14.1875 42.125 -17 42 C-15 39 -15 39 -12 38 C-10.99357052 36.67151309 -9.99307821 35.33849671 -9 34 C-8.34 34 -7.68 34 -7 34 C-6.87625 33.278125 -6.7525 32.55625 -6.625 31.8125 C-6.0095069 29.04278106 -5.11555626 26.6029646 -4 24 C-3.34 24.33 -2.68 24.66 -2 25 C-1.0268319 22.0804957 -0.8070454 19.94555049 -0.68359375 16.89453125 C-0.64169922 15.91162109 -0.59980469 14.92871094 -0.55664062 13.91601562 C-0.51732422 12.89185547 -0.47800781 11.86769531 -0.4375 10.8125 C-0.39431641 9.77673828 -0.35113281 8.74097656 -0.30664062 7.67382812 C-0.20055634 5.1160181 -0.09849854 2.55811155 0 0 Z " fill="#C07B4F" transform="translate(145,15)"/>
<path d="M0 0 C0.33 0 0.66 0 1 0 C1.12117188 1.21558594 1.24234375 2.43117188 1.3671875 3.68359375 C1.53597078 5.26828117 1.70526816 6.8529139 1.875 8.4375 C1.95363281 9.23994141 2.03226562 10.04238281 2.11328125 10.86914062 C2.33845763 12.92170994 2.66222587 14.96293009 3 17 C3.66 17.33 4.32 17.66 5 18 C5 18.99 5 19.98 5 21 C9.50571095 22.75832622 13.16787963 23.60401505 18 23 C19.70868671 21.868753 19.70868671 21.868753 21.25 20.4375 C22.1575 19.633125 23.065 18.82875 24 18 C24.99 18.33 25.98 18.66 27 19 C24.10654858 23.22889053 22.02869554 24.91537939 17 26 C11.39429491 26.71345337 8.63517614 25.55874778 4.28515625 22.2890625 C3 21 3 21 3 19 C2.01 18.67 1.02 18.34 0 18 C-2.43534012 12.27695072 -2.14942597 7.06060967 -1 1 C-0.67 0.67 -0.34 0.34 0 0 Z " fill="#B37048" transform="translate(94,110)"/>
<path d="M0 0 C-0.33 0.33 -0.66 0.66 -1 1 C-0.34 1.66 0.32 2.32 1 3 C0.01 3.66 -0.98 4.32 -2 5 C-1.01 5.66 -0.02 6.32 1 7 C0.01 7 -0.98 7 -2 7 C-2 7.66 -2 8.32 -2 9 C-7.23880078 8.44854729 -11.97350697 7.57077907 -17 6 C-16.67 5.01 -16.34 4.02 -16 3 C-13.41796875 1.796875 -13.41796875 1.796875 -10.1875 0.75 C-9.12917969 0.39421875 -8.07085937 0.0384375 -6.98046875 -0.328125 C-4.09552272 -0.9784667 -2.71843369 -1.02681757 0 0 Z " fill="#ECAC77" transform="translate(152,81)"/>
<path d="M0 0 C-1.51980469 0.8353125 -1.51980469 0.8353125 -3.0703125 1.6875 C-13.84831438 7.45005691 -13.84831438 7.45005691 -21 17 C-21.68353856 19.76738182 -21.89739998 22.12719953 -22 25 C-22.33 25 -22.66 25 -23 25 C-23.47342574 18.34573815 -23.36316231 14.38978873 -19 9 C-18.70480469 8.34128906 -18.40960938 7.68257812 -18.10546875 7.00390625 C-15.7692718 2.76903333 -10.71942983 0.54709131 -6.25 -0.875 C-3.92125183 -1.0043749 -2.23288034 -0.60982026 0 0 Z " fill="#C27D50" transform="translate(100,91)"/>
<path d="M0 0 C0.33 0 0.66 0 1 0 C1.06058594 0.72445312 1.12117187 1.44890625 1.18359375 2.1953125 C1.61483433 7.17116533 2.07047641 12.08680391 3 17 C3.99 17.33 4.98 17.66 6 18 C6.309375 18.804375 6.61875 19.60875 6.9375 20.4375 C7.75159396 23.08022968 7.75159396 23.08022968 9.8125 24.1875 C10.534375 24.455625 11.25625 24.72375 12 25 C12.9075 25.37125 13.815 25.7425 14.75 26.125 C15.86375 26.558125 15.86375 26.558125 17 27 C17 27.66 17 28.32 17 29 C18.32 29.33 19.64 29.66 21 30 C17.51935882 31.16021373 15.63934274 30.75105434 12.265625 29.4140625 C6.27227757 25.67338704 1.06019474 18.75701176 -1 12 C-1.23046875 9.39453125 -1.23046875 9.39453125 -1.1875 6.8125 C-1.18105469 5.95269531 -1.17460938 5.09289062 -1.16796875 4.20703125 C-1 2 -1 2 0 0 Z " fill="#B36E46" transform="translate(5,90)"/>
<path d="M0 0 C0.66 0.33 1.32 0.66 2 1 C1.34 1.66 0.68 2.32 0 3 C0.33 3.66 0.66 4.32 1 5 C0.34 5 -0.32 5 -1 5 C-1.33 5.99 -1.66 6.98 -2 8 C-4.53778873 10.73814047 -6.8889356 12.92595707 -10 15 C-10 14.01 -10 13.02 -10 12 C-9.34 12 -8.68 12 -8 12 C-7.34 10.68 -6.68 9.36 -6 8 C-10.33409466 11.18683431 -13.6189962 14.86378916 -17 19 C-17 14.7797894 -14.61849442 12.98012814 -11.875 10.0625 C-11.1634375 9.27456055 -11.1634375 9.27456055 -10.4375 8.47070312 C-7.2438823 5.02245915 -4.00201666 2.46414973 0 0 Z " fill="#CB8453" transform="translate(149,61)"/>
<path d="M0 0 C-0.66 1.32 -1.32 2.64 -2 4 C-0.35 3.67 1.3 3.34 3 3 C3.33 4.98 3.66 6.96 4 9 C-1.10170244 9.61838818 -3.90850818 7.83257126 -8 5 C-8.9375 2.75 -8.9375 2.75 -9 1 C-6.04335481 -0.4783226 -3.25770263 -0.06032783 0 0 Z " fill="#D6905D" transform="translate(120,47)"/>
<path d="M0 0 C1.32 0 2.64 0 4 0 C2 5 2 5 0.9375 7.375 C-0.19877965 10.55658303 -0.60622212 13.65288801 -1 17 C-1.99 17 -2.98 17 -4 17 C-4.68769992 6.26424011 -4.68769992 6.26424011 -2.25 2.3125 C-1.5075 1.549375 -0.765 0.78625 0 0 Z " fill="#BE7343" transform="translate(104,103)"/>
<path d="M0 0 C0.79921875 0.00902344 1.5984375 0.01804687 2.421875 0.02734375 C3.02515625 0.03894531 3.6284375 0.05054687 4.25 0.0625 C3.92 0.7225 3.59 1.3825 3.25 2.0625 C1.02734375 2.37109375 1.02734375 2.37109375 -1.8125 2.5 C-7.01355639 2.86665411 -10.9832771 3.99392214 -15.75 6.0625 C-12.285 5.5675 -12.285 5.5675 -8.75 5.0625 C-9.5625 7 -9.5625 7 -10.75 9.0625 C-11.74 9.3925 -12.73 9.7225 -13.75 10.0625 C-13.75 9.4025 -13.75 8.7425 -13.75 8.0625 C-14.8946875 8.3409375 -14.8946875 8.3409375 -16.0625 8.625 C-19.4623647 9.17846635 -21.51523384 8.14075539 -24.75 7.0625 C-22.16767086 6.08061439 -19.58421317 5.10190411 -17 4.125 C-15.90558594 3.70831055 -15.90558594 3.70831055 -14.7890625 3.28320312 C-14.08007812 3.01572266 -13.37109375 2.74824219 -12.640625 2.47265625 C-11.66657715 2.10346069 -11.66657715 2.10346069 -10.67285156 1.72680664 C-7.01749398 0.46395392 -3.87076806 -0.05692306 0 0 Z " fill="#CC8757" transform="translate(117.75,82.9375)"/>
<path d="M0 0 C0.99 0 1.98 0 3 0 C2.61006749 5.45905517 0.79523957 8.11850498 -3 12 C-6.4826807 14.54830295 -7.57434454 15 -12 15 C-10.77927626 11.33782877 -9.81122555 11.0743598 -6.5625 9.1875 C-3.20447885 7.06075327 -2.15659724 6.33825003 -0.4375 2.625 C-0.293125 1.75875 -0.14875 0.8925 0 0 Z " fill="#C07545" transform="translate(135,39)"/>
<path d="M0 0 C2.99693138 0.99897713 4.02709413 1.65130253 6 4 C6 4.66 6 5.32 6 6 C-0.93 5.505 -0.93 5.505 -8 5 C-7.34 5.66 -6.68 6.32 -6 7 C-7.44010481 6.74337755 -8.8770687 6.46909179 -10.3125 6.1875 C-11.11300781 6.03667969 -11.91351563 5.88585937 -12.73828125 5.73046875 C-15.23445587 4.92427764 -16.32422106 3.97947998 -18 2 C-15.69 2.33 -13.38 2.66 -11 3 C-11.99 2.34 -12.98 1.68 -14 1 C-9.31261335 1.90723613 -4.65806256 2.9547267 0 4 C-0.33 3.01 -0.66 2.02 -1 1 C-0.67 0.67 -0.34 0.34 0 0 Z " fill="#C78050" transform="translate(36,117)"/>
<path d="M0 0 C0.66 0.33 1.32 0.66 2 1 C2.0825 1.5775 2.165 2.155 2.25 2.75 C3.40569086 6.21707259 6.07091075 8.01690847 9 10 C11.7124618 11.3049484 11.7124618 11.3049484 14 12 C14 12.99 14 13.98 14 15 C10.95303276 15.28183118 9.42780314 15.28134801 6.83203125 13.57421875 C6.16558594 12.95160156 5.49914063 12.32898437 4.8125 11.6875 C4.13832031 11.07261719 3.46414062 10.45773438 2.76953125 9.82421875 C1 8 1 8 -1 5 C-0.625 2.3125 -0.625 2.3125 0 0 Z " fill="#BE7343" transform="translate(58,49)"/>
<path d="M0 0 C0.68126953 -0.00386719 1.36253906 -0.00773437 2.06445312 -0.01171875 C5.16898046 -0.0056374 7.59579065 0.13609688 10.5625 1.125 C10.5625 2.115 10.5625 3.105 10.5625 4.125 C5.2825 3.465 0.0025 2.805 -5.4375 2.125 C-5.4375 2.785 -5.4375 3.445 -5.4375 4.125 C-7.0875 4.455 -8.7375 4.785 -10.4375 5.125 C-10.0625 3.1875 -10.0625 3.1875 -9.4375 1.125 C-6.41872735 -0.38438632 -3.30670415 -0.01866437 0 0 Z " fill="#B96E3E" transform="translate(164.4375,65.875)"/>
<path d="M0 0 C0.33 0 0.66 0 1 0 C5.59225513 17.85649203 5.59225513 17.85649203 5 26 C4.34 25.67 3.68 25.34 3 25 C2.37445265 22.65344918 1.87117794 20.38294015 1.4375 18 C1.24462402 16.98365479 1.24462402 16.98365479 1.04785156 15.94677734 C0.12485188 10.96993459 -0.65176848 6.049357 -1 1 C-0.67 0.67 -0.34 0.34 0 0 Z " fill="#B96E3E" transform="translate(37,70)"/>
<path d="M0 0 C0.33 0 0.66 0 1 0 C1.33 2.64 1.66 5.28 2 8 C6.60803346 9.15200836 8.96815752 9.31153472 13.1875 7 C14.13689453 6.4121875 14.13689453 6.4121875 15.10546875 5.8125 C17.4708572 4.79806537 18.62034121 5.15577515 21 6 C15.1739217 10.1614845 10.05133347 11.99266665 3 13 C0.95204577 11.0373772 0.05023362 9.5722693 -0.19921875 6.73046875 C-0.18858877 4.48045617 -0.12958525 2.24614438 0 0 Z " fill="#B76E42" transform="translate(90,22)"/>
<path d="M0 0 C2.85442753 -0.05437005 5.70780076 -0.09384974 8.5625 -0.125 C9.36236328 -0.14175781 10.16222656 -0.15851563 10.98632812 -0.17578125 C16.04964999 -0.21711449 20.24027338 0.21119341 25 2 C25.33 2.66 25.66 3.32 26 4 C24.33388095 4.042721 22.66617115 4.04063832 21 4 C20.67 3.67 20.34 3.34 20 3 C18.43827255 2.91314397 16.87270656 2.89297781 15.30859375 2.90234375 C14.36435547 2.90556641 13.42011719 2.90878906 12.44726562 2.91210938 C10.95743164 2.92467773 10.95743164 2.92467773 9.4375 2.9375 C8.44041016 2.94201172 7.44332031 2.94652344 6.41601562 2.95117188 C3.94395151 2.96299993 1.47200482 2.97948151 -1 3 C-0.67 2.01 -0.34 1.02 0 0 Z " fill="#B96D3E" transform="translate(152,76)"/>
<path d="M0 0 C0.33 0 0.66 0 1 0 C1.12117188 1.21558594 1.24234375 2.43117188 1.3671875 3.68359375 C1.53597078 5.26828117 1.70526816 6.8529139 1.875 8.4375 C1.95363281 9.23994141 2.03226562 10.04238281 2.11328125 10.86914062 C2.33845763 12.92170994 2.66222587 14.96293009 3 17 C3.66 17.33 4.32 17.66 5 18 C3.68 18.33 2.36 18.66 1 19 C-1.93831111 12.653248 -2.44821782 7.87903466 -1 1 C-0.67 0.67 -0.34 0.34 0 0 Z " fill="#BD7141" transform="translate(94,110)"/>
<path d="M0 0 C0.33 0 0.66 0 1 0 C1.13277344 0.61488281 1.26554688 1.22976562 1.40234375 1.86328125 C1.57894531 2.67152344 1.75554688 3.47976562 1.9375 4.3125 C2.19853516 5.51326172 2.19853516 5.51326172 2.46484375 6.73828125 C2.99886159 9.145401 2.99886159 9.145401 4 12 C4.66 12 5.32 12 6 12 C9 15.46153846 9 15.46153846 9 18 C6.525 17.01 6.525 17.01 4 16 C4 15.34 4 14.68 4 14 C3.34 14 2.68 14 2 14 C2 13.34 2 12.68 2 12 C1.34 12 0.68 12 0 12 C-1.29449495 8.11651516 -1.13203312 5.09302664 -1 1 C-0.67 0.67 -0.34 0.34 0 0 Z " fill="#BC7040" transform="translate(12,94)"/>
<path d="M0 0 C0.53625 0.391875 1.0725 0.78375 1.625 1.1875 C-0.85 2.6725 -0.85 2.6725 -3.375 4.1875 C-2.385 4.8475 -1.395 5.5075 -0.375 6.1875 C-5.02349515 8.5867233 -9.28586074 8.38707409 -14.375 8.1875 C-14.375 7.8575 -14.375 7.5275 -14.375 7.1875 C-11.735 6.8575 -9.095 6.5275 -6.375 6.1875 C-9.345 5.6925 -9.345 5.6925 -12.375 5.1875 C-11.055 4.8575 -9.735 4.5275 -8.375 4.1875 C-8.375 3.5275 -8.375 2.8675 -8.375 2.1875 C-2.95961538 -1.0125 -2.95961538 -1.0125 0 0 Z " fill="#CC8453" transform="translate(132.375,51.8125)"/>
<path d="M0 0 C1.65 0 3.3 0 5 0 C4.90460938 0.60328125 4.80921875 1.2065625 4.7109375 1.828125 C4.60007812 2.62734375 4.48921875 3.4265625 4.375 4.25 C4.20097656 5.43335938 4.20097656 5.43335938 4.0234375 6.640625 C3.99680605 9.32152459 4.63407916 10.72694089 6 13 C1.125 12.125 1.125 12.125 0 11 C-0.07226502 9.14712498 -0.0838122 7.29166122 -0.0625 5.4375 C-0.05347656 4.42558594 -0.04445313 3.41367187 -0.03515625 2.37109375 C-0.02355469 1.58863281 -0.01195313 0.80617187 0 0 Z " fill="#BD774A" transform="translate(94,33)"/>
<path d="M0 0 C1.875 0.6875 1.875 0.6875 4 2 C4.71727778 3.64551962 5.38325228 5.31422289 6 7 C6.515625 7.495 7.03125 7.99 7.5625 8.5 C9.48593335 10.50706089 9.63468585 12.29667526 10 15 C6.83282717 13.41641358 5.26731682 12.54736301 3.6875 9.3125 C3.460625 8.549375 3.23375 7.78625 3 7 C2.34 7 1.68 7 1 7 C0.67 4.69 0.34 2.38 0 0 Z " fill="#BE7343" transform="translate(22,96)"/>
<path d="M0 0 C1.32 0 2.64 0 4 0 C3.67 0.66 3.34 1.32 3 2 C2.0557408 3.77084833 2.0557408 3.77084833 2 6 C3.85250004 9.23761134 3.85250004 9.23761134 6 12 C5.34 12 4.68 12 4 12 C4 12.66 4 13.32 4 14 C4.66 14.33 5.32 14.66 6 15 C5.01 15 4.02 15 3 15 C1.61328125 13.5390625 1.61328125 13.5390625 0.3125 11.625 C-0.34298828 10.68527344 -0.34298828 10.68527344 -1.01171875 9.7265625 C-2 8 -2 8 -2 6 C-1.34 6 -0.68 6 0 6 C0 4.02 0 2.04 0 0 Z " fill="#D18755" transform="translate(56,48)"/>
<path d="M0 0 C4.58161957 0.50906884 7.48851167 1.59618922 11.25 4.25 C12.10078125 4.83265625 12.9515625 5.4153125 13.828125 6.015625 C16.22861089 8.2088747 17.04579805 9.92534926 18 13 C15.0625 12.25 15.0625 12.25 12 11 C11.82984375 10.071875 11.82984375 10.071875 11.65625 9.125 C11.15756602 6.72623823 11.15756602 6.72623823 8.49609375 5.296875 C7.48675781 4.78640625 6.47742188 4.2759375 5.4375 3.75 C4.42558594 3.22921875 3.41367188 2.7084375 2.37109375 2.171875 C1.58863281 1.78515625 0.80617188 1.3984375 0 1 C0 0.67 0 0.34 0 0 Z " fill="#C88253" transform="translate(69,33)"/>
<path d="M0 0 C0.85722656 0.144375 1.71445312 0.28875 2.59765625 0.4375 C13.1797313 2.78915432 13.1797313 2.78915432 23 0 C22.67 1.32 22.34 2.64 22 4 C15.55431906 5.46492749 9.348813 4.81925051 3 3 C1.140625 1.421875 1.140625 1.421875 0 0 Z " fill="#B26F47" transform="translate(27,121)"/>
<path d="M0 0 C1.9375 0.375 1.9375 0.375 4 1 C5.44207941 3.88415883 5.09394887 6.41721528 5.0625 9.625 C5.05347656 10.81351563 5.04445313 12.00203125 5.03515625 13.2265625 C5.02355469 14.14179687 5.01195313 15.05703125 5 16 C4.34 16.33 3.68 16.66 3 17 C2.86722656 16.10796875 2.73445313 15.2159375 2.59765625 14.296875 C2.42105469 13.12640625 2.24445313 11.9559375 2.0625 10.75 C1.88847656 9.58984375 1.71445313 8.4296875 1.53515625 7.234375 C1.1272264 4.76893039 0.66098697 2.40575438 0 0 Z " fill="#B97247" transform="translate(84,45)"/>
<path d="M0 0 C1.5 1.375 1.5 1.375 3 3 C3 3.66 3 4.32 3 5 C2.34 5 1.68 5 1 5 C1 6.258125 1 7.51625 1 8.8125 C1 11.20833333 1 13.60416667 1 16 C1.33 16.66 1.66 17.32 2 18 C-1 17 -1 17 -2.25 15 C-3.27912746 10.88349016 -2.95738856 7.12294752 -2 3 C-1.34 2.01 -0.68 1.02 0 0 Z " fill="#C47F52" transform="translate(91,17)"/>
<path d="M0 0 C3.16115776 1.36983503 3.9927092 1.9890638 6 5 C6.265625 7.19140625 6.265625 7.19140625 6.25 9.5625 C6.25515625 10.34753906 6.2603125 11.13257812 6.265625 11.94140625 C6 14 6 14 4 16 C3.01 15.67 2.02 15.34 1 15 C1.66 15 2.32 15 3 15 C3.50008624 9.01417973 3.50008624 9.01417973 1.5 3.5625 C1.005 3.046875 0.51 2.53125 0 2 C0 1.34 0 0.68 0 0 Z " fill="#B47048" transform="translate(183,84)"/>
<path d="M0 0 C0.66 0 1.32 0 2 0 C2.33 2.64 2.66 5.28 3 8 C2.34 7.67 1.68 7.34 1 7 C0.97300275 9.27076842 0.95360547 11.54162821 0.9375 13.8125 C0.92009766 15.70935547 0.92009766 15.70935547 0.90234375 17.64453125 C0.83840884 20.99605237 0.83840884 20.99605237 2 24 C1.01 24 0.02 24 -1 24 C-1.02712325 21.12493579 -1.04689851 18.25013092 -1.0625 15.375 C-1.07087891 14.56675781 -1.07925781 13.75851563 -1.08789062 12.92578125 C-1.1058955 8.49658082 -0.89622662 4.36116576 0 0 Z " fill="#DD9865" transform="translate(45,41)"/>
<path d="M0 0 C-1.20936543 2.7485578 -2.71260085 4.91356668 -4.5625 7.25 C-7.40940547 11.11006889 -7.75069853 14.26327205 -8 19 C-8.33 19 -8.66 19 -9 19 C-9.55934831 11.13804878 -8.63943785 7.19935136 -3.375 1.125 C-2 0 -2 0 0 0 Z " fill="#B3714A" transform="translate(86,97)"/>
<path d="M0 0 C-0.28109113 1.64767247 -0.57518526 3.29313145 -0.875 4.9375 C-1.03742188 5.85402344 -1.19984375 6.77054687 -1.3671875 7.71484375 C-1.57601562 8.46894531 -1.78484375 9.22304687 -2 10 C-2.99 10.495 -2.99 10.495 -4 11 C-6 3.375 -6 3.375 -6 0 C-3 -1 -3 -1 0 0 Z " fill="#C37B4D" transform="translate(186,99)"/>
<path d="M0 0 C0.99 0.33 1.98 0.66 3 1 C2.67 1.99 2.34 2.98 2 4 C1.93334624 5.39439664 1.91461801 6.79169875 1.9375 8.1875 C1.958125 9.445625 1.97875 10.70375 2 12 C1.34 12 0.68 12 0 12 C-0.33 12.66 -0.66 13.32 -1 14 C-1 12.68 -1 11.36 -1 10 C-1.66 10 -2.32 10 -3 10 C-2.21302675 6.58978257 -1.12880057 3.31114834 0 0 Z " fill="#C47948" transform="translate(48,31)"/>
<path d="M0 0 C5.21417139 1.48976325 10.13814209 3.37647295 13.375 7.9375 C14.11362282 10.37495531 14.14071838 12.46706921 14 15 C13.34 14.01 12.68 13.02 12 12 C11.01 12.495 11.01 12.495 10 13 C10.33 11.02 10.66 9.04 11 7 C10.34 7 9.68 7 9 7 C9 6.34 9 5.68 9 5 C8.2575 4.71125 7.515 4.4225 6.75 4.125 C4.43260203 3.17697356 2.22082885 2.15154089 0 1 C0 0.67 0 0.34 0 0 Z " fill="#C48053" transform="translate(171,58)"/>
<path d="M0 0 C1.15242188 0.01804688 2.30484375 0.03609375 3.4921875 0.0546875 C4.36101562 0.07789063 5.22984375 0.10109375 6.125 0.125 C6.125 0.455 6.125 0.785 6.125 1.125 C4.99964844 1.28935547 4.99964844 1.28935547 3.8515625 1.45703125 C-2.93183972 2.50786056 -9.36013722 3.96298802 -15.875 6.125 C-14.21535063 3.35891772 -13.09481841 2.22401169 -10.1171875 0.8828125 C-6.62442753 0.06643246 -3.58182478 -0.07309846 0 0 Z " fill="#B36D44" transform="translate(163.875,58.875)"/>
<path d="M0 0 C11.36363636 1.36363636 11.36363636 1.36363636 15 5 C9.52566405 5.21467984 5.39107803 5.14372513 1.1875 1.375 C0.5996875 0.694375 0.5996875 0.694375 0 0 Z " fill="#B96E3F" transform="translate(168,97)"/>
<path d="M0 0 C0.66 0.33 1.32 0.66 2 1 C1.52949219 1.39832031 1.05898437 1.79664062 0.57421875 2.20703125 C-1.31760553 4.3617393 -1.66060789 5.89091882 -2.1875 8.6875 C-2.42533203 9.89986328 -2.42533203 9.89986328 -2.66796875 11.13671875 C-2.77753906 11.75160156 -2.88710937 12.36648437 -3 13 C-3.99 12.67 -4.98 12.34 -6 12 C-6.3125 9.3125 -6.3125 9.3125 -6 6 C-3.5625 3.1875 -3.5625 3.1875 -1 1 C-0.67 0.67 -0.34 0.34 0 0 Z " fill="#C27D51" transform="translate(10,80)"/>
<path d="M0 0 C0 0.66 0 1.32 0 2 C-0.69867188 2.02578125 -1.39734375 2.0515625 -2.1171875 2.078125 C-3.02726562 2.13484375 -3.93734375 2.1915625 -4.875 2.25 C-5.77992187 2.29640625 -6.68484375 2.3428125 -7.6171875 2.390625 C-10.17110544 2.75611148 -10.17110544 2.75611148 -11.3203125 5.046875 C-11.54460938 5.69140625 -11.76890625 6.3359375 -12 7 C-12 3 -12 3 -10.6875 1.3125 C-7.04505728 -1.520511 -4.2752714 -0.85505428 0 0 Z " fill="#B4724B" transform="translate(35,68)"/>
<path d="M0 0 C1.48199902 0.44909061 2.96055236 0.90956564 4.4375 1.375 C5.26121094 1.63023438 6.08492187 1.88546875 6.93359375 2.1484375 C9 3 9 3 10 5 C2.61538462 5.36923077 2.61538462 5.36923077 -0.5 3.5 C-0.995 3.005 -1.49 2.51 -2 2 C-1.34 2 -0.68 2 0 2 C0 1.34 0 0.68 0 0 Z " fill="#C27847" transform="translate(63,65)"/>
<path d="M0 0 C0.99 0.495 0.99 0.495 2 1 C3.58470855 6.19432248 4.28533749 11.57858775 4 17 C2.54296875 15.94921875 2.54296875 15.94921875 1 14 C0.48828125 10.64453125 0.48828125 10.64453125 0.3125 6.8125 C0.24675781 5.54019531 0.18101563 4.26789063 0.11328125 2.95703125 C0.07589844 1.98121094 0.03851562 1.00539063 0 0 Z " fill="#B76C3D" transform="translate(18,79)"/>
<path d="M0 0 C1.32 0.33 2.64 0.66 4 1 C3.01 1.495 3.01 1.495 2 2 C2 2.66 2 3.32 2 4 C5.63 4 9.26 4 13 4 C13 4.33 13 4.66 13 5 C8.05 5.33 3.1 5.66 -2 6 C-2 3 -2 3 0 1 C0 0.67 0 0.34 0 0 Z " fill="#D08654" transform="translate(158,61)"/>
<path d="M0 0 C0.66 0.33 1.32 0.66 2 1 C0.71937515 2.7074998 -0.61767557 4.37373596 -2 6 C-2.66 6 -3.32 6 -4 6 C-4.0825 6.61875 -4.165 7.2375 -4.25 7.875 C-5 10 -5 10 -7.0625 11.25 C-7.701875 11.4975 -8.34125 11.745 -9 12 C-7.55575365 8.76138697 -5.74227753 6.38030837 -3.375 3.75 C-2.74335938 3.04359375 -2.11171875 2.3371875 -1.4609375 1.609375 C-0.97882813 1.07828125 -0.49671875 0.5471875 0 0 Z " fill="#B06D45" transform="translate(143,67)"/>
<path d="M0 0 C1.92255661 3.84511322 2.27295249 4.61862432 1.8125 8.5625 C1.73644531 9.32691406 1.66039063 10.09132813 1.58203125 10.87890625 C0.90244442 13.35552133 -0.06112271 14.36423561 -2 16 C-2 15.01 -2 14.02 -2 13 C-2.66 12.67 -3.32 12.34 -4 12 C-3.01 11.67 -2.02 11.34 -1 11 C-0.67 7.37 -0.34 3.74 0 0 Z " fill="#C27F53" transform="translate(89,50)"/>
<path d="M0 0 C1.32 0.33 2.64 0.66 4 1 C4 1.99 4 2.98 4 4 C3.01 3.34 2.02 2.68 1 2 C0.67 4.31 0.34 6.62 0 9 C-0.33 8.34 -0.66 7.68 -1 7 C-1.66 6.67 -2.32 6.34 -3 6 C-3.33 5.34 -3.66 4.68 -4 4 C-3.34 4 -2.68 4 -2 4 C-1.34 2.68 -0.68 1.36 0 0 Z " fill="#C47C4D" transform="translate(140,9)"/>
<path d="M0 0 C0.66 0 1.32 0 2 0 C2.125 6.75 2.125 6.75 1 9 C0.01 9 -0.98 9 -2 9 C-1.34 6.03 -0.68 3.06 0 0 Z " fill="#B67248" transform="translate(123,118)"/>
<path d="M0 0 C3.96 0 7.92 0 12 0 C11.67 0.66 11.34 1.32 11 2 C10.34 2 9.68 2 9 2 C8.67 2.66 8.34 3.32 8 4 C5.36 3.01 2.72 2.02 0 1 C0 0.67 0 0.34 0 0 Z " fill="#B46D42" transform="translate(102,46)"/>
<path d="M0 0 C2.99693138 0.99897713 4.02709413 1.65130253 6 4 C6 4.66 6 5.32 6 6 C3.69 5.67 1.38 5.34 -1 5 C-0.67 3.35 -0.34 1.7 0 0 Z " fill="#D08654" transform="translate(36,117)"/>
<path d="M0 0 C0.66 0 1.32 0 2 0 C2 0.66 2 1.32 2 2 C2.66 2 3.32 2 4 2 C4 2.66 4 3.32 4 4 C4.66 4 5.32 4 6 4 C9 7.46153846 9 7.46153846 9 10 C7.68 9.34 6.36 8.68 5 8 C5 7.34 5 6.68 5 6 C4.34 6 3.68 6 3 6 C2.01 4.02 1.02 2.04 0 0 Z " fill="#B16C44" transform="translate(132,91)"/>
<path d="M0 0 C2.475 0.99 2.475 0.99 5 2 C5.33 1.34 5.66 0.68 6 0 C6 0.99 6 1.98 6 3 C5.01 3 4.02 3 3 3 C3 3.66 3 4.32 3 5 C3.99 5.33 4.98 5.66 6 6 C5.01 6.33 4.02 6.66 3 7 C1.5 5.75 1.5 5.75 0 4 C0 2.68 0 1.36 0 0 Z " fill="#CE8453" transform="translate(16,110)"/>
<path d="M0 0 C0.33 2.64 0.66 5.28 1 8 C0.34 7.01 -0.32 6.02 -1 5 C-1.66 4.34 -2.32 3.68 -3 3 C-5.60280568 3.32041397 -5.60280568 3.32041397 -8 4 C-5.29881977 1.17603885 -4.05589853 0 0 0 Z " fill="#CE8452" transform="translate(120,87)"/>
<path d="M0 0 C0.66 0.66 1.32 1.32 2 2 C-1.47823115 3.15941038 -3.45895578 2.70820884 -7 2 C-7 2.99 -7 3.98 -7 5 C-7.66 5 -8.32 5 -9 5 C-8.625 3.0625 -8.625 3.0625 -8 1 C-5.23749964 -0.38125018 -3.05268901 -0.19079306 0 0 Z " fill="#E6A36F" transform="translate(33,70)"/>
<path d="M0 0 C4.75 0.875 4.75 0.875 7 2 C7 2.66 7 3.32 7 4 C7.66 4 8.32 4 9 4 C9 4.99 9 5.98 9 7 C8.01 7 7.02 7 6 7 C5.67 6.01 5.34 5.02 5 4 C4.01 3.67 3.02 3.34 2 3 C2 2.34 2 1.68 2 1 C1.34 0.67 0.68 0.34 0 0 Z " fill="#B56E43" transform="translate(173,61)"/>
<path d="M0 0 C2.31 0 4.62 0 7 0 C7 0.66 7 1.32 7 2 C8.32 2.33 9.64 2.66 11 3 C7.59068103 4.13643966 6.99664544 3.86747764 3.8125 2.5625 C3.09707031 2.27503906 2.38164062 1.98757812 1.64453125 1.69140625 C1.10183594 1.46324219 0.55914062 1.23507813 0 1 C0 0.67 0 0.34 0 0 Z " fill="#B8754B" transform="translate(15,117)"/>
<path d="M0 0 C1.4540625 0.0309375 1.4540625 0.0309375 2.9375 0.0625 C2.9375 0.7225 2.9375 1.3825 2.9375 2.0625 C-0.5275 3.5475 -0.5275 3.5475 -4.0625 5.0625 C-4.0625 0.08290816 -4.0625 0.08290816 0 0 Z " fill="#B76C3D" transform="translate(135.0625,81.9375)"/>
<path d="M0 0 C0 0.99 0 1.98 0 3 C-3.33303391 5.49977543 -4.73303602 6 -9 6 C-9 5.34 -9 4.68 -9 4 C-8.2575 3.71125 -7.515 3.4225 -6.75 3.125 C-4.43260203 2.17697356 -2.22082885 1.15154089 0 0 Z " fill="#BA6F3F" transform="translate(132,48)"/>
<path d="M0 0 C0.66 0.33 1.32 0.66 2 1 C2 1.66 2 2.32 2 3 C2.99 3.33 3.98 3.66 5 4 C4.67 4.66 4.34 5.32 4 6 C3.34 5.67 2.68 5.34 2 5 C1.67 5.66 1.34 6.32 1 7 C0.01 6.34 -0.98 5.68 -2 5 C-2 4.34 -2 3.68 -2 3 C-1.34 2.67 -0.68 2.34 0 2 C0 1.34 0 0.68 0 0 Z " fill="#CC8351" transform="translate(31,107)"/>
<path d="M0 0 C2.30163882 3.45245824 2.34490322 4.94738713 2 9 C1.34 9.66 0.68 10.32 0 11 C-1.125 3.375 -1.125 3.375 0 0 Z " fill="#BD784D" transform="translate(56,100)"/>
<path d="M0 0 C0.66 0.33 1.32 0.66 2 1 C1.34 1.66 0.68 2.32 0 3 C0.33 3.66 0.66 4.32 1 5 C-0.65 5.66 -2.3 6.32 -4 7 C-4.33 6.34 -4.66 5.68 -5 5 C-3.35 3.35 -1.7 1.7 0 0 Z " fill="#BF7B4F" transform="translate(149,61)"/>
<path d="M0 0 C0.33 0.99 0.66 1.98 1 3 C0.319375 3.61875 0.319375 3.61875 -0.375 4.25 C-2.05950374 6.06408095 -2.99265971 7.75285627 -4 10 C-3.51171875 3.9453125 -3.51171875 3.9453125 -3 2 C-2.01 1.34 -1.02 0.68 0 0 Z " fill="#C57A4A" transform="translate(96,105)"/>
<path d="M0 0 C0.556875 0.226875 1.11375 0.45375 1.6875 0.6875 C-2.74326923 3.76442308 -2.74326923 3.76442308 -5.625 3.375 C-6.4603125 3.0346875 -6.4603125 3.0346875 -7.3125 2.6875 C-2.88173077 -0.38942308 -2.88173077 -0.38942308 0 0 Z " fill="#B26F48" transform="translate(98.3125,90.3125)"/>
<path d="M0 0 C-3.06117568 2.62386487 -3.73173127 3 -8 3 C-8.33 3.66 -8.66 4.32 -9 5 C-8.6875 3.0625 -8.6875 3.0625 -8 1 C-5.07175348 0.02391783 -3.04386724 -0.08226668 0 0 Z " fill="#B46F45" transform="translate(84,67)"/>
<path d="M0 0 C0.66 0 1.32 0 2 0 C2.33 2.64 2.66 5.28 3 8 C2.01 7.67 1.02 7.34 0 7 C0 4.69 0 2.38 0 0 Z " fill="#B96E3E" transform="translate(48,43)"/>
<path d="M0 0 C1 3 1 3 -0.4375 6.1875 C-1.2109375 7.5796875 -1.2109375 7.5796875 -2 9 C-2.33 8.34 -2.66 7.68 -3 7 C-3.66 7 -4.32 7 -5 7 C-4.67 6.01 -4.34 5.02 -4 4 C-3.34 4 -2.68 4 -2 4 C-1.34 2.68 -0.68 1.36 0 0 Z " fill="#C07D51" transform="translate(55,111)"/>
<path d="M0 0 C-0.8125 1.9375 -0.8125 1.9375 -2 4 C-2.99 4.33 -3.98 4.66 -5 5 C-5 4.34 -5 3.68 -5 3 C-5.66 2.67 -6.32 2.34 -7 2 C-2.25 0 -2.25 0 0 0 Z " fill="#DF9865" transform="translate(109,88)"/>
<path d="M0 0 C0.99 0.33 1.98 0.66 3 1 C2.01 1.495 2.01 1.495 1 2 C1.33 2.66 1.66 3.32 2 4 C0.35 4.33 -1.3 4.66 -3 5 C-2.625 3.0625 -2.625 3.0625 -2 1 C-1.34 0.67 -0.68 0.34 0 0 Z " fill="#C47948" transform="translate(157,66)"/>
<path d="M0 0 C0.33 0.66 0.66 1.32 1 2 C1.66 2 2.32 2 3 2 C2.625 4.4375 2.625 4.4375 2 7 C1.01 7.495 1.01 7.495 0 8 C0.33 6.68 0.66 5.36 1 4 C0.01 4.33 -0.98 4.66 -2 5 C-1.34 3.35 -0.68 1.7 0 0 Z " fill="#CC8351" transform="translate(137,19)"/>
<path d="M0 0 C0.66 0.33 1.32 0.66 2 1 C1 3 1 3 -1 6 C-1.99 6 -2.98 6 -4 6 C-4 5.01 -4 4.02 -4 3 C-3.34 3 -2.68 3 -2 3 C-2 2.34 -2 1.68 -2 1 C-1.34 0.67 -0.68 0.34 0 0 Z " fill="#BD7141" transform="translate(142,15)"/>
</svg>
