<?xml version="1.0" encoding="UTF-8"?>
<svg version="1.1" xmlns="http://www.w3.org/2000/svg" width="196" height="157">
<path d="M0 0 C3.76877788 2.53924751 7.39011212 5.24105202 11 8 C11.80824219 8.59039062 12.61648437 9.18078125 13.44921875 9.7890625 C20.87676833 15.31243553 28.10935289 21.52707019 30 31 C30 35.03895455 29.34964658 36.54751619 26.875 39.75 C20.78505533 44.51604365 14.17092616 44.29582014 6.75 44.1875 C5.81486572 44.17887939 4.87973145 44.17025879 3.91625977 44.16137695 C-6.88005775 44.02126274 -16.56527708 42.89549903 -27 40 C-27.103125 40.721875 -27.20625 41.44375 -27.3125 42.1875 C-28.5401815 47.20983339 -30.73523435 50.30801828 -35.125 53 C-48.40588729 60.44650906 -63.08326343 61.96647223 -78 63 C-78.11730469 64.10730469 -78.23460938 65.21460937 -78.35546875 66.35546875 C-79 70 -79 70 -81.3125 72.3125 C-82.199375 72.869375 -83.08625 73.42625 -84 74 C-84.55042969 74.34804687 -85.10085937 74.69609375 -85.66796875 75.0546875 C-102.33101592 81.80922254 -127.45940481 74.95412664 -143.3125 68.69140625 C-149.95328452 65.68840443 -154.49730683 62.49313477 -158 56 C-160.30660771 49.08017688 -159.17134276 42.87160435 -156.26171875 36.296875 C-152.98342131 30.32895273 -148.52921241 26.99550405 -142 25 C-139.07021512 24.57368029 -136.20728359 24.52282605 -133.25 24.5625 C-132.45722656 24.57007324 -131.66445312 24.57764648 -130.84765625 24.58544922 C-118.77766589 24.92264104 -109.82548456 30.44967696 -100 37 C-99.44054687 36.45472656 -98.88109375 35.90945312 -98.3046875 35.34765625 C-88.9714653 26.56962572 -78.35278853 19.9139003 -67 14 C-66.39929688 13.64035156 -65.79859375 13.28070313 -65.1796875 12.91015625 C-62.20345491 11.66739246 -59.46028091 11.56761685 -56.25 11.375 C-55.07953125 11.30023438 -53.9090625 11.22546875 -52.703125 11.1484375 C-51.36507812 11.07496094 -51.36507812 11.07496094 -50 11 C-49.87109375 10.236875 -49.7421875 9.47375 -49.609375 8.6875 C-48.33699878 3.07599463 -44.36092209 -1.41435294 -40 -5 C-26.71858199 -11.58800497 -12.07903522 -7.2027529 0 0 Z " fill="#E2CF83" transform="translate(164,43)"/>
<path d="M0 0 C4.90886497 3.99558776 8.88806101 9.49311551 10.8125 15.5625 C10.874375 16.366875 10.93625 17.17125 11 18 C11.103125 19.0725 11.20625 20.145 11.3125 21.25 C10.73083614 28.22996635 7.63863837 33.82199671 3 39 C-4.45586792 43.28153867 -12.93126179 45.24785631 -21.3125 46.8125 C-22.42608887 47.02189209 -23.53967773 47.23128418 -24.68701172 47.44702148 C-32.33889574 48.77757202 -39.8592729 49.49332747 -47.625 49.5625 C-49.01779175 49.58437378 -49.01779175 49.58437378 -50.4387207 49.60668945 C-57.20463912 49.50433532 -62.43875493 47.95196316 -67.69384766 43.59594727 C-69.58276726 41.28793465 -69.47063846 39.06778064 -69.34375 36.17578125 C-68.20412027 28.96244306 -63.23711801 22.85013885 -58 18 C-57.34 18 -56.68 18 -56 18 C-56 17.34 -56 16.68 -56 16 C-53.98046875 14.51953125 -53.98046875 14.51953125 -51.1875 12.8125 C-50.18332031 12.19375 -49.17914063 11.575 -48.14453125 10.9375 C-47.10683594 10.298125 -46.06914063 9.65875 -45 9 C-43.12438754 7.7717681 -41.24936495 6.54263485 -39.375 5.3125 C-27.3929665 -2.30464987 -13.47610598 -6.85626445 0 0 Z " fill="#F8EDB4" transform="translate(99,7)"/>
<path d="M0 0 C2.84566429 2.94229126 4.57885297 5.09676726 4.625 9.25 C4.2681267 15.97483121 0.59888806 20.44541117 -4.0625 25.02734375 C-17.5656808 36.5461044 -39.03711576 48.72391064 -57.03125 48.30078125 C-61.41243162 47.85689838 -64.613874 46.85822217 -68 44 C-72.89153148 37.97389011 -75.15858377 33.52037944 -75.25 25.75 C-75.27578125 24.44546875 -75.3015625 23.1409375 -75.328125 21.796875 C-74.67423989 14.23049021 -70.24982415 9.13976494 -65 4 C-50.80573085 -6.7181216 -15.76028182 -8.60772826 0 0 Z " fill="#F8EDB4" transform="translate(159,106)"/>
<path d="M0 0 C6.13647308 2.3279636 11.70108695 5.77884574 17.2109375 9.30859375 C18.2834375 9.98921875 19.3559375 10.66984375 20.4609375 11.37109375 C23.55492758 13.5509504 26.40306893 15.76814124 29.2109375 18.30859375 C29.2109375 18.96859375 29.2109375 19.62859375 29.2109375 20.30859375 C29.8709375 20.30859375 30.5309375 20.30859375 31.2109375 20.30859375 C34.2109375 24.69320913 34.2109375 24.69320913 34.2109375 27.30859375 C33.2209375 27.80359375 33.2209375 27.80359375 32.2109375 28.30859375 C31.74442543 30.43436157 31.74442543 30.43436157 31.5859375 32.87109375 C31.51117188 33.69738281 31.43640625 34.52367187 31.359375 35.375 C31.31039062 36.01308594 31.26140625 36.65117188 31.2109375 37.30859375 C26.78289341 39.59047854 23.6926435 39.25957187 18.8359375 38.49609375 C16.93714844 38.20798828 16.93714844 38.20798828 15 37.9140625 C13.74960937 37.71425781 12.49921875 37.51445313 11.2109375 37.30859375 C10.05078125 37.15777344 8.890625 37.00695312 7.6953125 36.8515625 C3.98538719 36.27344634 0.45565682 35.42920951 -3.1640625 34.43359375 C-4.38867188 34.10617188 -5.61328125 33.77875 -6.875 33.44140625 C-7.83664063 33.06757812 -8.79828125 32.69375 -9.7890625 32.30859375 C-10.2840625 30.82359375 -10.2840625 30.82359375 -10.7890625 29.30859375 C-11.8615625 29.20546875 -12.9340625 29.10234375 -14.0390625 28.99609375 C-19.34594873 28.02316461 -19.34594873 28.02316461 -21.7890625 25.30859375 C-22.50833545 22.99093646 -23.1800518 20.65763501 -23.7890625 18.30859375 C-24.4490625 17.97859375 -25.1090625 17.64859375 -25.7890625 17.30859375 C-25.4590625 14.00859375 -25.1290625 10.70859375 -24.7890625 7.30859375 C-24.1290625 7.30859375 -23.4690625 7.30859375 -22.7890625 7.30859375 C-22.5415625 6.54546875 -22.2940625 5.78234375 -22.0390625 4.99609375 C-18.15273064 -3.35951976 -7.71873451 -1.9134678 0 0 Z " fill="#F8EDB4" transform="translate(40.7890625,72.69140625)"/>
<path d="M0 0 C1.58137188 0.87853993 3.16474023 1.75349504 4.75 2.625 C5.82507813 3.23214844 5.82507813 3.23214844 6.921875 3.8515625 C8.92325203 4.95758665 10.94764184 5.99231064 13 7 C13 7.66 13 8.32 13 9 C13.763125 9.268125 14.52625 9.53625 15.3125 9.8125 C17.88988618 10.95134505 19.26954864 11.81416671 21 14 C21 14.66 21 15.32 21 16 C22.32 16 23.64 16 25 16 C25 16.99 25 17.98 25 19 C25.66 19 26.32 19 27 19 C27 20.65 27 22.3 27 24 C26.34 24 25.68 24 25 24 C24.77825067 25.45635371 24.57301302 26.91522956 24.375 28.375 C24.25898438 29.18710938 24.14296875 29.99921875 24.0234375 30.8359375 C24.01570313 31.55007812 24.00796875 32.26421875 24 33 C24.66 33.66 25.32 34.32 26 35 C22.20880748 36.27964684 18.76395701 35.92801328 14.8125 35.625 C13.56082031 35.53476563 12.30914062 35.44453125 11.01953125 35.3515625 C8 35 8 35 7 34 C4.35343976 33.62485082 1.71820275 33.2938029 -0.9375 33 C-8.73407821 32.13296089 -8.73407821 32.13296089 -11 31 C-11 30.34 -11 29.68 -11 29 C-14.465 28.505 -14.465 28.505 -18 28 C-18.226875 26.72125 -18.45375 25.4425 -18.6875 24.125 C-19.17436455 21.92724118 -19.17436455 21.92724118 -20 20 C-22.36723913 18.51953703 -22.36723913 18.51953703 -25 18 C-25.99 17.34 -26.98 16.68 -28 16 C-28 15.34 -28 14.68 -28 14 C-32.455 13.01 -32.455 13.01 -37 12 C-37 10.68 -37 9.36 -37 8 C-36.34 8 -35.68 8 -35 8 C-34.773125 7.278125 -34.54625 6.55625 -34.3125 5.8125 C-32.63912679 2.22670027 -31.15317009 0.43056861 -28 -2 C-18.23431777 -5.36508411 -8.82396282 -5.32864551 0 0 Z " fill="#F8ECB3" transform="translate(155,44)"/>
<path d="M0 0 C2.82708776 0.13260262 5.06144065 0.49904236 7.2734375 2.3359375 C11.45718631 7.13950095 11.82351256 10.86164669 11.70703125 17.03515625 C11.04703125 17.03515625 10.38703125 17.03515625 9.70703125 17.03515625 C9.91328125 18.02515625 10.11953125 19.01515625 10.33203125 20.03515625 C10.33809228 23.01111998 9.79526523 23.93465252 7.796875 26.2109375 C2.30010163 30.85813229 -2.16968094 33.11602234 -9.29296875 34.03515625 C-9.29296875 34.69515625 -9.29296875 35.35515625 -9.29296875 36.03515625 C-23.72010443 38.47521368 -23.72010443 38.47521368 -28.29296875 39.03515625 C-29.07542969 39.15375 -29.85789062 39.27234375 -30.6640625 39.39453125 C-34.61759446 38.85407814 -35.89931248 36.65635591 -38.41796875 33.66015625 C-41.98740105 29.43853595 -41.98740105 29.43853595 -46.29296875 26.03515625 C-45.79796875 24.55015625 -45.79796875 24.55015625 -45.29296875 23.03515625 C-44.63296875 23.03515625 -43.97296875 23.03515625 -43.29296875 23.03515625 C-42.92751953 21.89240234 -42.92751953 21.89240234 -42.5546875 20.7265625 C-41.11105303 17.64710692 -39.96355066 16.73866555 -37.10546875 14.97265625 C-36.30753906 14.47121094 -35.50960937 13.96976563 -34.6875 13.453125 C-32.57125079 12.19994643 -30.44153537 10.98176996 -28.29296875 9.78515625 C-25.22992777 8.36511542 -25.22992777 8.36511542 -24.29296875 6.03515625 C-16.34374525 1.3272213 -9.06131064 0.13892981 0 0 Z " fill="#F8EDB4" transform="translate(115.29296875,58.96484375)"/>
<path d="M0 0 C4.8652332 1.98213204 8.09461913 4.91967502 10.20703125 9.7734375 C11.19883124 12.50001133 12.1321747 15.23168577 13 18 C12.34 18 11.68 18 11 18 C11.185625 18.61875 11.37125 19.2375 11.5625 19.875 C12 22 12 22 11 24 C11.66 24 12.32 24 13 24 C13.33 22.68 13.66 21.36 14 20 C14.99 20.144375 15.98 20.28875 17 20.4375 C20.99409465 21.00925179 24.99532937 21.50819834 29 22 C29 21.34 29 20.68 29 20 C22.01466204 18.43098141 22.01466204 18.43098141 15 17 C15 15.35 15 13.7 15 12 C14.34 12 13.68 12 13 12 C12.731875 10.9275 12.46375 9.855 12.1875 8.75 C11.13772173 5.43491072 10.25387672 3.56122354 8 1 C10.375 1.5 10.375 1.5 13 3 C14.08241903 5.66525288 14.49272107 8.1407915 15 11 C17.31 11.33 19.62 11.66 22 12 C22 12.66 22 13.32 22 14 C23.28777344 14.13277344 24.57554687 14.26554687 25.90234375 14.40234375 C27.58075362 14.58049899 29.25913773 14.75889692 30.9375 14.9375 C31.78763672 15.02451172 32.63777344 15.11152344 33.51367188 15.20117188 C34.32255859 15.28818359 35.13144531 15.37519531 35.96484375 15.46484375 C37.08814087 15.58267212 37.08814087 15.58267212 38.23413086 15.70288086 C40 16 40 16 41 17 C43.69235776 17.23678716 46.36498156 17.42198025 49.0625 17.5625 C49.82111328 17.60568359 50.57972656 17.64886719 51.36132812 17.69335938 C53.24065438 17.79973633 55.12030244 17.90039934 57 18 C56.505 16.515 56.505 16.515 56 15 C56.45548177 12.26187393 57.25314753 9.6798824 58 7 C58.66 7 59.32 7 60 7 C60 5.35 60 3.7 60 2 C63.36155381 5.13745022 65.80495225 7.64382315 66.1953125 12.359375 C66.17210937 13.14828125 66.14890625 13.9371875 66.125 14.75 C66.10695313 15.54921875 66.08890625 16.3484375 66.0703125 17.171875 C66.04710937 17.77515625 66.02390625 18.3784375 66 19 C60.91059256 21.05362055 56.45479185 22.43179252 51 23 C56.73213046 23.23396451 61.61262348 23.08898273 67 21 C69.25956112 17.61065831 69.14375017 16.12992305 68.5625 12.19921875 C67.76386056 9.07676039 66.34800595 6.4437896 64.7421875 3.6640625 C64.49726563 3.11492187 64.25234375 2.56578125 64 2 C64.33 1.34 64.66 0.68 65 0 C69.03919289 4.99584384 71.72522207 9.44117029 72 16 C70.81277838 19.77117454 69.75538836 21.42351941 66.625 23.8125 C60.8653447 26.41805835 55.08273808 26.15719838 48.875 26.125 C47.93084229 26.12089111 46.98668457 26.11678223 46.01391602 26.11254883 C35.16799139 26.02554193 25.48216693 24.90866412 15 22 C14.896875 22.721875 14.79375 23.44375 14.6875 24.1875 C13.4598185 29.20983339 11.26476565 32.30801828 6.875 35 C-2.54858851 40.34141727 -14.13144035 43.98805088 -25 43 C-22 41 -22 41 -19 40 C-25.6 40 -32.2 40 -39 40 C-39 39.01 -39 38.02 -39 37 C-37.87851563 36.80083984 -37.87851563 36.80083984 -36.734375 36.59765625 C-35.74953125 36.42105469 -34.7646875 36.24445313 -33.75 36.0625 C-32.77546875 35.88847656 -31.8009375 35.71445313 -30.796875 35.53515625 C-29.15588074 35.22116712 -27.51979805 34.87099052 -25.90625 34.4375 C-23.79457227 33.95285265 -21.9133097 33.90144484 -19.75 33.9375 C-17.89375 33.9684375 -17.89375 33.9684375 -16 34 C-16 33.34 -16 32.68 -16 32 C-15.27554688 31.78085938 -14.55109375 31.56171875 -13.8046875 31.3359375 C-7.27966944 29.19573157 -3.53900365 27.1209272 1 22 C1.66 22 2.32 22 3 22 C3 19.69 3 17.38 3 15 C3.66 15 4.32 15 5 15 C4.74379316 13.3934324 4.46944129 11.7897517 4.1875 10.1875 C4.03667969 9.29417969 3.88585937 8.40085937 3.73046875 7.48046875 C2.936159 4.78321371 2.03259853 3.85439811 0 2 C0 1.34 0 0.68 0 0 Z " fill="#E8D68A" transform="translate(122,61)"/>
<path d="M0 0 C2.84566429 2.94229126 4.57885297 5.09676726 4.625 9.25 C4.2681267 15.97483121 0.59888806 20.44541117 -4.0625 25.02734375 C-17.5656808 36.5461044 -39.03711576 48.72391064 -57.03125 48.30078125 C-61.41243162 47.85689838 -64.613874 46.85822217 -68 44 C-72.89153148 37.97389011 -75.15858377 33.52037944 -75.25 25.75 C-75.27578125 24.44546875 -75.3015625 23.1409375 -75.328125 21.796875 C-74.67423989 14.23049021 -70.24982415 9.13976494 -65 4 C-50.80573085 -6.7181216 -15.76028182 -8.60772826 0 0 Z M-59 6 C-59 6.66 -59 7.32 -59 8 C-59.66 8 -60.32 8 -61 8 C-63.16666667 9.83333333 -63.16666667 9.83333333 -65 12 C-65 12.66 -65 13.32 -65 14 C-65.639375 14.12375 -66.27875 14.2475 -66.9375 14.375 C-67.618125 14.58125 -68.29875 14.7875 -69 15 C-70.4706777 17.9413554 -70.17048999 20.60227405 -70.1875 23.875 C-70.20167969 25.10992187 -70.21585937 26.34484375 -70.23046875 27.6171875 C-70.01765455 30.74086712 -69.65237226 32.40061596 -68 35 C-67.34 35 -66.68 35 -66 35 C-66 35.99 -66 36.98 -66 38 C-63.72581286 40.49491707 -61.16722561 41.8873229 -58 43 C-45.83871141 43.06746901 -34.61779044 37.05895796 -24.4453125 31.0234375 C-20.46573643 28.68622616 -16.40403276 26.54007772 -12.3046875 24.421875 C-9.7898131 22.87032537 -7.93510674 21.22938564 -6 19 C-6 18.34 -6 17.68 -6 17 C-5.34 17 -4.68 17 -4 17 C-3.29773859 15.75823305 -2.61370891 14.50614401 -1.9375 13.25 C-1.55464844 12.55390625 -1.17179687 11.8578125 -0.77734375 11.140625 C0.14543121 8.59951607 0.10489987 7.45533304 -1 5 C-1.99 4.67 -2.98 4.34 -4 4 C-4.495 3.01 -4.495 3.01 -5 2 C-10.4283789 -0.05468975 -16.89429925 0.77481819 -22.63183594 0.75976562 C-24.83308522 0.75018248 -27.03334954 0.71919794 -29.234375 0.6875 C-44.81701948 0.50314623 -44.81701948 0.50314623 -59 6 Z " fill="#E7D58C" transform="translate(159,106)"/>
<path d="M0 0 C4.90886497 3.99558776 8.88806101 9.49311551 10.8125 15.5625 C10.874375 16.366875 10.93625 17.17125 11 18 C11.103125 19.0725 11.20625 20.145 11.3125 21.25 C10.73083614 28.22996635 7.63863837 33.82199671 3 39 C-4.45586792 43.28153867 -12.93126179 45.24785631 -21.3125 46.8125 C-22.42608887 47.02189209 -23.53967773 47.23128418 -24.68701172 47.44702148 C-32.33889574 48.77757202 -39.8592729 49.49332747 -47.625 49.5625 C-49.01779175 49.58437378 -49.01779175 49.58437378 -50.4387207 49.60668945 C-57.20463912 49.50433532 -62.43875493 47.95196316 -67.69384766 43.59594727 C-69.58276726 41.28793465 -69.47063846 39.06778064 -69.34375 36.17578125 C-68.20412027 28.96244306 -63.23711801 22.85013885 -58 18 C-57.34 18 -56.68 18 -56 18 C-56 17.34 -56 16.68 -56 16 C-53.98046875 14.51953125 -53.98046875 14.51953125 -51.1875 12.8125 C-50.18332031 12.19375 -49.17914063 11.575 -48.14453125 10.9375 C-47.10683594 10.298125 -46.06914063 9.65875 -45 9 C-43.12438754 7.7717681 -41.24936495 6.54263485 -39.375 5.3125 C-27.3929665 -2.30464987 -13.47610598 -6.85626445 0 0 Z M-44 14 C-44.83144531 14.53109375 -45.66289063 15.0621875 -46.51953125 15.609375 C-52.92189592 19.72897283 -58.43189676 24.11865803 -62 31 C-62.60692009 34.66175121 -62.86807536 38.2929177 -63 42 C-51.90292712 48.4887419 -34.44493313 45.05079175 -22.59350586 42.02563477 C-21.63452393 41.76967529 -20.67554199 41.51371582 -19.6875 41.25 C-18.7807251 41.01015381 -17.8739502 40.77030762 -16.93969727 40.52319336 C-8.78965269 38.21764242 0.32159713 35.52612635 5 28 C6.78386889 24.43226221 6.58256802 20.84042412 6 17 C4.31376888 12.32708646 2.24590043 7.85300059 -1.65234375 4.63671875 C-16.787593 -2.3513285 -31.68168658 5.72784792 -44 14 Z " fill="#E7D58B" transform="translate(99,7)"/>
<path d="M0 0 C3.76881375 2.53927168 7.38994168 5.24122181 11 8 C11.85464844 8.62519531 12.70929688 9.25039063 13.58984375 9.89453125 C17.64155715 12.90869081 20.83425443 15.32654903 23 20 C23.33644531 20.59554687 23.67289062 21.19109375 24.01953125 21.8046875 C26.64590573 26.57485175 28.09000935 30.50942941 28 36 C25.84888324 38.97360258 24.34872484 40.62074521 20.77734375 41.625 C17.38716315 42.0827459 14.10762661 42.0944638 10.6875 42.0625 C9.43324219 42.05347656 8.17898437 42.04445312 6.88671875 42.03515625 C5.93410156 42.02355469 4.98148437 42.01195312 4 42 C4 41.67 4 41.34 4 41 C5.69596354 40.66080729 7.39192708 40.32161458 9.08789062 39.98242188 C9.78076172 39.84384766 10.47363281 39.70527344 11.1875 39.5625 C13.79166667 39.04166667 16.39583333 38.52083333 19 38 C20.47919922 37.70416016 20.47919922 37.70416016 21.98828125 37.40234375 C22.98408203 37.20318359 22.98408203 37.20318359 24 37 C23.7110168 30.62792049 22.71789122 26.24878761 19 21 C17.515 20.505 17.515 20.505 16 20 C16 19.01 16 18.02 16 17 C14.68 17 13.36 17 12 17 C9.4375 14.625 9.4375 14.625 7 12 C6.01 11.34 5.02 10.68 4 10 C4 9.34 4 8.68 4 8 C3.14148438 7.82404297 3.14148438 7.82404297 2.265625 7.64453125 C-0.17840389 6.94924717 -2.05532184 5.96246591 -4.25 4.6875 C-5.04019531 4.2440625 -5.83039063 3.800625 -6.64453125 3.34375 C-8.1105705 2.50740257 -9.56814519 1.6558033 -11.01171875 0.78125 C-19.18098629 -3.85849627 -28.01554293 -2.0704885 -37 -1 C-37.33 -0.01 -37.66 0.98 -38 2 C-39.6459651 3.68711423 -41.31237149 5.3545622 -43 7 C-43.33 7.66 -43.66 8.32 -44 9 C-44.66 9 -45.32 9 -46 9 C-46 10.32 -46 11.64 -46 13 C-44.948125 13.0825 -43.89625 13.165 -42.8125 13.25 C-36.56440839 14.47913278 -33.42529373 18.1926991 -29.9375 23.25 C-28.68943175 25.57972739 -28.60751959 27.40962931 -29 30 C-28.34 30 -27.68 30 -27 30 C-27 31.65 -27 33.3 -27 35 C-26.40832031 35.04898438 -25.81664062 35.09796875 -25.20703125 35.1484375 C-16.62606232 35.96033994 -16.62606232 35.96033994 -13 38 C-12.67 38.99 -12.34 39.98 -12 41 C-17.28 40.34 -22.56 39.68 -28 39 C-28.33 39.99 -28.66 40.98 -29 42 C-29.66 42 -30.32 42 -31 42 C-31 39.33333333 -31 36.66666667 -31 34 C-31.21348497 32.49436918 -31.46858243 30.99442435 -31.75 29.5 C-31.88921875 28.7059375 -32.0284375 27.911875 -32.171875 27.09375 C-33.24354684 24.38424008 -34.42474147 24.17610232 -37 23 C-37.33 22.01 -37.66 21.02 -38 20 C-40.3430809 18.87914688 -40.3430809 18.87914688 -43 18 C-43.55558594 17.65324219 -44.11117187 17.30648437 -44.68359375 16.94921875 C-48.00286739 15.58904422 -51.22652644 15.7884118 -54.75 15.875 C-55.79607422 15.88853516 -55.79607422 15.88853516 -56.86328125 15.90234375 C-58.57566958 15.92580112 -60.28788004 15.96166896 -62 16 C-58.92307254 13.3184721 -56.80265337 12.57912193 -52.75 12.3125 C-51.85796875 12.24675781 -50.9659375 12.18101563 -50.046875 12.11328125 C-49.37140625 12.07589844 -48.6959375 12.03851563 -48 12 C-47.97421875 11.33613281 -47.9484375 10.67226563 -47.921875 9.98828125 C-47.6592392 5.89951931 -47.41307896 2.76006529 -45.4375 -0.875 C-31.96320278 -12.62182321 -14.12071127 -8.42020842 0 0 Z " fill="#E3D082" transform="translate(164,43)"/>
<path d="M0 0 C1.38018297 3.83384157 0.565398 7.04221399 0 11 C0.34659295 13.32158065 0.34659295 13.32158065 1 15 C1.66 15 2.32 15 3 15 C3 15.99 3 16.98 3 18 C3.66 18 4.32 18 5 18 C5.33 18.99 5.66 19.98 6 21 C8.25307616 21.99409585 10.33857759 22.74486179 12.6875 23.4375 C13.7403418 23.75400513 13.7403418 23.75400513 14.81445312 24.0769043 C30.72604107 28.65131393 49.89071763 33.59350082 66 28 C67.32 28 68.64 28 70 28 C69.88512252 26.41590006 69.75765492 24.83271037 69.625 23.25 C69.52058594 21.92742187 69.52058594 21.92742187 69.4140625 20.578125 C69.00149945 18.00933618 68.28839043 16.24158985 67 14 C66.34 14 65.68 14 65 14 C64.01 12.515 64.01 12.515 63 11 C62.01 10.67 61.02 10.34 60 10 C57 5.66666667 57 5.66666667 57 3 C61.48831161 4.45234215 64.34494466 6.77631502 67.8125 9.9375 C68.78832031 10.81277344 69.76414062 11.68804687 70.76953125 12.58984375 C73 15 73 15 73 18 C73.96035156 17.83628906 74.92070313 17.67257813 75.91015625 17.50390625 C80.42413725 16.85905182 84.88621642 16.88982338 89.4375 16.9375 C90.26443359 16.94201172 91.09136719 16.94652344 91.94335938 16.95117188 C93.96227146 16.96284189 95.98114574 16.98077282 98 17 C95.09907498 18.93395001 94.10325263 19.30131941 90.8125 19.625 C89.554375 19.74875 88.29625 19.8725 87 20 C87 20.66 87 21.32 87 22 C83.37 22.33 79.74 22.66 76 23 C75.9071875 24.60875 75.9071875 24.60875 75.8125 26.25 C75 30 75 30 72.6875 32.3125 C71.800625 32.869375 70.91375 33.42625 70 34 C69.44957031 34.34804687 68.89914063 34.69609375 68.33203125 35.0546875 C51.57751628 41.84629993 27.251899 34.75240516 11.16796875 28.984375 C4.36336641 26.08706306 0.06057788 21.76858571 -3 15 C-3.96790543 10.08930332 -3.66565321 6.38677752 -1.5 1.875 C-1.005 1.25625 -0.51 0.6375 0 0 Z " fill="#E3D081" transform="translate(10,83)"/>
<path d="M0 0 C0.66 0.33 1.32 0.66 2 1 C1.34 2.32 0.68 3.64 0 5 C-0.66 5 -1.32 5 -2 5 C-1.979375 6.27875 -1.95875 7.5575 -1.9375 8.875 C-1.875 12.75 -1.875 12.75 -3 15 C-2.01 15.33 -1.02 15.66 0 16 C0.12375 17.670625 0.12375 17.670625 0.25 19.375 C0.59057504 22.9532606 0.59057504 22.9532606 2.625 24.3125 C4.59603094 24.88306159 6.5781103 25.41529218 8.5625 25.9375 C12 27 12 27 13.43359375 28.49609375 C15.40139913 30.3853832 16.83938604 30.63722077 19.5 31.125 C22.11658703 31.62215154 24.46180095 32.15393365 27 33 C29.32853124 33.36537352 31.66307962 33.69282139 34 34 C34.70205566 34.09313477 35.40411133 34.18626953 36.12744141 34.28222656 C38.35463733 34.57326656 40.58321616 34.85044813 42.8125 35.125 C43.57498047 35.22425781 44.33746094 35.32351562 45.12304688 35.42578125 C49.17191374 36.07519663 49.17191374 36.07519663 53 35 C53.46651207 32.87423218 53.46651207 32.87423218 53.625 30.4375 C53.69976562 29.61121094 53.77453125 28.78492187 53.8515625 27.93359375 C53.90054688 27.29550781 53.94953125 26.65742187 54 26 C54.99 25.67 55.98 25.34 57 25 C56.484375 24.21625 55.96875 23.4325 55.4375 22.625 C54.963125 21.75875 54.48875 20.8925 54 20 C54.33 19.34 54.66 18.68 55 18 C55.99 19.98 55.99 19.98 57 22 C57.66 22 58.32 22 59 22 C61.11745198 24.19435701 61.94589665 25.52389051 62.29296875 28.578125 C62.25816406 29.45984375 62.22335938 30.3415625 62.1875 31.25 C62.14689453 32.58804688 62.14689453 32.58804688 62.10546875 33.953125 C62.07066406 34.62859375 62.03585938 35.3040625 62 36 C44.0082207 43.26591087 22.58095947 37.76411118 4.6875 32.5 C4.01783203 32.31091064 3.34816406 32.12182129 2.65820312 31.92700195 C0.82421875 31.34375 0.82421875 31.34375 -2 30 C-2.91796875 27.84375 -2.91796875 27.84375 -3 26 C-3.66 26 -4.32 26 -5 26 C-5 25.01 -5 24.02 -5 23 C-5.66 23 -6.32 23 -7 23 C-8.98362069 20.08291076 -8.9876191 18.87619096 -8.625 15.25 C-8.41875 14.1775 -8.2125 13.105 -8 12 C-7.34 12 -6.68 12 -6 12 C-6 10.68 -6 9.36 -6 8 C-5.34 8 -4.68 8 -4 8 C-4 6.68 -4 5.36 -4 4 C-2 1.75 -2 1.75 0 0 Z " fill="#F5E59B" transform="translate(18,75)"/>
<path d="M0 0 C0.66 0 1.32 0 2 0 C9.73931617 12.3230183 9.73931617 12.3230183 8 20 C5.00372325 26.10779492 0.5925598 29.03360759 -5.69921875 31.37890625 C-7.02530068 31.78453909 -8.35492275 32.17874338 -9.6875 32.5625 C-10.39519531 32.77229492 -11.10289063 32.98208984 -11.83203125 33.19824219 C-13.24531454 33.61516076 -14.65984453 34.0278802 -16.07568359 34.43603516 C-17.70088122 34.91233641 -19.3148838 35.42659114 -20.92578125 35.94921875 C-31.71941523 39.30687424 -48.74515863 41.69805813 -59.328125 36.95703125 C-60.15570313 36.48330078 -60.15570313 36.48330078 -61 36 C-60.75759721 29.18848171 -60.45683174 24.31944433 -56 19 C-55 21 -55 21 -54.5 23.0625 C-54.17692051 24.99240783 -54.17692051 24.99240783 -53 26 C-52.76712992 27.68183948 -52.58735834 29.3712416 -52.4375 31.0625 C-52.35371094 31.98160156 -52.26992188 32.90070312 -52.18359375 33.84765625 C-52.12300781 34.55792969 -52.06242187 35.26820312 -52 36 C-51.35417969 35.89042969 -50.70835938 35.78085937 -50.04296875 35.66796875 C-49.10066406 35.50941406 -48.15835938 35.35085937 -47.1875 35.1875 C-46.10082031 35.00316406 -45.01414062 34.81882813 -43.89453125 34.62890625 C-41.03897246 34.1677779 -38.18830047 33.73952365 -35.32421875 33.33984375 C-23.87236109 31.73591607 -23.87236109 31.73591607 -13.0078125 27.89453125 C-11 27 -11 27 -7.125 26.125 C-3.02577653 24.64927955 -1.97963809 22.80699633 0 19 C1.87335719 13.04716105 1.59725569 5.98970885 0 0 Z " fill="#F5E69C" transform="translate(97,13)"/>
<path d="M0 0 C2.3431213 0.25561323 4.67843403 0.59270772 7 1 C7.495 1.99 7.495 1.99 8 3 C8.99 3.33 9.98 3.66 11 4 C12.10489987 6.45533304 12.14543121 7.59951607 11.22265625 10.140625 C10.83980469 10.83671875 10.45695312 11.5328125 10.0625 12.25 C9.68222656 12.95640625 9.30195313 13.6628125 8.91015625 14.390625 C8.60980469 14.92171875 8.30945313 15.4528125 8 16 C7.34 16 6.68 16 6 16 C6 16.66 6 17.32 6 18 C2.49997906 21.24392185 -0.95767502 23.60752503 -5.13354492 25.95166016 C-6.90950353 26.94917046 -8.67009093 27.97390269 -10.4296875 29 C-34.50668451 42.97666947 -34.50668451 42.97666947 -45.68359375 41.69140625 C-48.96417616 40.71221049 -51.32778909 39.11291095 -54 37 C-54 36.01 -54 35.02 -54 34 C-54.66 34 -55.32 34 -56 34 C-58.32011034 30.33569875 -58.26783151 27.14564743 -58.25 22.875 C-58.25515625 21.63492188 -58.2603125 20.39484375 -58.265625 19.1171875 C-58 16 -58 16 -56 14 C-56.103125 15.134375 -56.20625 16.26875 -56.3125 17.4375 C-56.30066321 24.10161519 -52.96728594 29.03271406 -48.375 33.625 C-39.70362661 37.15778175 -28.32189827 33.33936045 -20 30 C-18.62645707 28.70812719 -17.28727602 27.37785195 -16 26 C-14.0703125 25.05859375 -14.0703125 25.05859375 -12.125 24.4375 C-5.08375544 22.11109057 -5.08375544 22.11109057 0 17 C2.625 15.8125 2.625 15.8125 5 15 C4.360625 14.195625 3.72125 13.39125 3.0625 12.5625 C0.40147674 8.64148693 0.20593653 4.63357199 0 0 Z " fill="#F5E69C" transform="translate(147,107)"/>
<path d="M0 0 C3.76881375 2.53927168 7.38994168 5.24122181 11 8 C11.85464844 8.62519531 12.70929688 9.25039063 13.58984375 9.89453125 C17.64155715 12.90869081 20.83425443 15.32654903 23 20 C23.33644531 20.59554687 23.67289062 21.19109375 24.01953125 21.8046875 C26.64590573 26.57485175 28.09000935 30.50942941 28 36 C25.84888324 38.97360258 24.34872484 40.62074521 20.77734375 41.625 C17.38716315 42.0827459 14.10762661 42.0944638 10.6875 42.0625 C9.43324219 42.05347656 8.17898437 42.04445312 6.88671875 42.03515625 C5.93410156 42.02355469 4.98148438 42.01195312 4 42 C4 41.67 4 41.34 4 41 C5.69596354 40.66080729 7.39192708 40.32161458 9.08789062 39.98242188 C9.78076172 39.84384766 10.47363281 39.70527344 11.1875 39.5625 C13.79166667 39.04166667 16.39583333 38.52083333 19 38 C20.47919922 37.70416016 20.47919922 37.70416016 21.98828125 37.40234375 C22.98408203 37.20318359 22.98408203 37.20318359 24 37 C23.7110168 30.62792049 22.71789122 26.24878761 19 21 C17.515 20.505 17.515 20.505 16 20 C16 19.01 16 18.02 16 17 C14.68 17 13.36 17 12 17 C9.4375 14.625 9.4375 14.625 7 12 C6.01 11.34 5.02 10.68 4 10 C4 9.34 4 8.68 4 8 C3.46375 7.9175 2.9275 7.835 2.375 7.75 C-0.92595083 6.70759447 -3.29851455 5.14890888 -6 3 C-6 1.68 -6 0.36 -6 -1 C-16.02915977 -5.50206771 -26.2320207 -6.59425084 -36.98828125 -3.91015625 C-40.78329496 -2.19318888 -43.37403319 0.84208493 -46 4 C-46 1 -46 1 -43.875 -1.5 C-30.87118279 -12.80766714 -13.49423008 -8.04663643 0 0 Z " fill="#DFCE85" transform="translate(164,43)"/>
<path d="M0 0 C3.84795579 1.56768569 6.3362065 3.83224557 9 7 C11.01355739 13.81511732 10.68639734 21.45190647 8 28 C7.34 28 6.68 28 6 28 C5.505 29.485 5.505 29.485 5 31 C2.15625 32.09765625 2.15625 32.09765625 -1.5 33.0625 C-2.76199219 33.40023437 -4.02398437 33.73796875 -5.32421875 34.0859375 C-8.31382474 34.82936768 -11.3019345 35.53577823 -14.3125 36.1875 C-17.78518073 36.60571764 -17.78518073 36.60571764 -19 38 C-25.63039841 39.31647041 -32.23594454 40.31460723 -39 40 C-39 39.01 -39 38.02 -39 37 C-37.87851563 36.80083984 -37.87851563 36.80083984 -36.734375 36.59765625 C-35.74953125 36.42105469 -34.7646875 36.24445313 -33.75 36.0625 C-32.77546875 35.88847656 -31.8009375 35.71445313 -30.796875 35.53515625 C-29.15588074 35.22116712 -27.51979805 34.87099052 -25.90625 34.4375 C-23.79457227 33.95285265 -21.9133097 33.90144484 -19.75 33.9375 C-17.89375 33.9684375 -17.89375 33.9684375 -16 34 C-16 33.34 -16 32.68 -16 32 C-15.27554688 31.78085938 -14.55109375 31.56171875 -13.8046875 31.3359375 C-7.27966944 29.19573157 -3.53900365 27.1209272 1 22 C1.66 22 2.32 22 3 22 C3 19.69 3 17.38 3 15 C3.66 15 4.32 15 5 15 C4.74379316 13.3934324 4.46944129 11.7897517 4.1875 10.1875 C4.03667969 9.29417969 3.88585937 8.40085937 3.73046875 7.48046875 C2.936159 4.78321371 2.03259853 3.85439811 0 2 C0 1.34 0 0.68 0 0 Z " fill="#F5E79D" transform="translate(122,61)"/>
<path d="M0 0 C2.375 0.5 2.375 0.5 5 2 C6.08241903 4.66525288 6.49272107 7.1407915 7 10 C9.31 10.33 11.62 10.66 14 11 C14 11.66 14 12.32 14 13 C15.28777344 13.13277344 16.57554687 13.26554687 17.90234375 13.40234375 C19.58075362 13.58049899 21.25913773 13.75889692 22.9375 13.9375 C23.78763672 14.02451172 24.63777344 14.11152344 25.51367188 14.20117188 C26.72700195 14.33168945 26.72700195 14.33168945 27.96484375 14.46484375 C28.7137085 14.543396 29.46257324 14.62194824 30.23413086 14.70288086 C32 15 32 15 33 16 C35.69235776 16.23678716 38.36498156 16.42198025 41.0625 16.5625 C41.82111328 16.60568359 42.57972656 16.64886719 43.36132812 16.69335938 C45.24065438 16.79973633 47.12030244 16.90039934 49 17 C48.505 15.515 48.505 15.515 48 14 C48.45548177 11.26187393 49.25314753 8.6798824 50 6 C50.66 6 51.32 6 52 6 C52 4.35 52 2.7 52 1 C55.84938867 4.59276276 57.91873633 6.88714467 58.125 12.25 C58.08375 13.1575 58.0425 14.065 58 15 C57.34 15 56.68 15 56 15 C55.67 15.99 55.34 16.98 55 18 C40.39452168 23.41816131 21.83170974 19.16943175 7 16 C7 14.35 7 12.7 7 11 C6.34 11 5.68 11 5 11 C4.731875 9.9275 4.46375 8.855 4.1875 7.75 C3.13772173 4.43491072 2.25387672 2.56122354 0 0 Z " fill="#F4E49A" transform="translate(130,62)"/>
<path d="M0 0 C4.48831161 1.45234215 7.34494466 3.77631502 10.8125 6.9375 C11.78832031 7.81277344 12.76414062 8.68804687 13.76953125 9.58984375 C16 12 16 12 16 15 C17.44052734 14.75443359 17.44052734 14.75443359 18.91015625 14.50390625 C23.42413725 13.85905182 27.88621642 13.88982338 32.4375 13.9375 C33.26443359 13.94201172 34.09136719 13.94652344 34.94335938 13.95117188 C36.96227146 13.96284189 38.98114574 13.98077282 41 14 C34.49455968 18.33696021 26.60536618 18.4687428 19 19 C18.4740625 20.85625 18.4740625 20.85625 17.9375 22.75 C16.7162813 26.02008798 15.650521 27.66437331 12.625 29.4375 C7.24010467 31.75857557 2.72539578 32.13742122 -3.125 32.125 C-4.34445313 32.12757812 -5.56390625 32.13015625 -6.8203125 32.1328125 C-10 32 -10 32 -13 31 C-13 30.34 -13 29.68 -13 29 C-12.16597656 28.96261719 -11.33195312 28.92523438 -10.47265625 28.88671875 C-4.23387517 28.52225388 1.27622686 27.95636965 7.09765625 25.62109375 C9 25 9 25 13 25 C12.88512252 23.41590006 12.75765492 21.83271037 12.625 20.25 C12.55539063 19.36828125 12.48578125 18.4865625 12.4140625 17.578125 C12.00149945 15.00933618 11.28839043 13.24158985 10 11 C9.34 11 8.68 11 8 11 C7.34 10.01 6.68 9.02 6 8 C5.01 7.67 4.02 7.34 3 7 C0 2.66666667 0 2.66666667 0 0 Z " fill="#E2CE7F" transform="translate(67,86)"/>
<path d="M0 0 C0.99435406 3.09354597 0.87840996 4.90279155 0 8 C-0.71027344 8.13277344 -1.42054687 8.26554687 -2.15234375 8.40234375 C-3.07144531 8.57894531 -3.99054688 8.75554688 -4.9375 8.9375 C-5.85402344 9.11152344 -6.77054688 9.28554688 -7.71484375 9.46484375 C-9.95289844 9.77714988 -9.95289844 9.77714988 -11 11 C-10.16855469 10.97679687 -9.33710937 10.95359375 -8.48046875 10.9296875 C-7.39378906 10.91164063 -6.30710938 10.89359375 -5.1875 10.875 C-4.10855469 10.85179687 -3.02960938 10.82859375 -1.91796875 10.8046875 C1 11 1 11 4 13 C2.7934375 13.02578125 1.586875 13.0515625 0.34375 13.078125 C-1.27086738 13.13444886 -2.88544933 13.1917952 -4.5 13.25 C-5.29148438 13.26417969 -6.08296875 13.27835938 -6.8984375 13.29296875 C-12.11109319 13.50660218 -15.77801183 14.5067002 -20.29101562 17.15136719 C-22 18 -22 18 -25 18 C-25.495 19.485 -25.495 19.485 -26 21 C-27.67270217 22.01674053 -29.35222935 23.02565063 -31.078125 23.94921875 C-33.84354732 25.46120778 -36.39840593 27.22330161 -39 29 C-38.34 27.68 -37.68 26.36 -37 25 C-36.34 25 -35.68 25 -35 25 C-35 24.34 -35 23.68 -35 23 C-36.77930585 24.0482498 -38.54816071 25.11425081 -40.3125 26.1875 C-41.29863281 26.77917969 -42.28476563 27.37085937 -43.30078125 27.98046875 C-46.11892089 30.08897554 -47.42481676 31.88726588 -49 35 C-53.73486599 34.53579745 -57.19017158 33.9390105 -61 31 C-62.3125 28.8125 -62.3125 28.8125 -63 27 C-58.89041233 28.45044271 -55.56741255 30.51110752 -52 33 C-51.44054687 32.45472656 -50.88109375 31.90945312 -50.3046875 31.34765625 C-40.9714653 22.56962572 -30.35278853 15.9139003 -19 10 C-18.39929688 9.64035156 -17.79859375 9.28070313 -17.1796875 8.91015625 C-14.20345491 7.66739246 -11.46028091 7.56761685 -8.25 7.375 C-7.07953125 7.30023438 -5.9090625 7.22546875 -4.703125 7.1484375 C-3.81109375 7.09945312 -2.9190625 7.05046875 -2 7 C-1.855625 6.21625 -1.71125 5.4325 -1.5625 4.625 C-1 2 -1 2 0 0 Z " fill="#E4D289" transform="translate(116,47)"/>
<path d="M0 0 C0.33 1.32 0.66 2.64 1 4 C0.01 4.33 -0.98 4.66 -2 5 C-2.13792969 5.62390625 -2.27585937 6.2478125 -2.41796875 6.890625 C-3 9 -3 9 -4.92578125 10.484375 C-5.71339844 10.90203125 -6.50101563 11.3196875 -7.3125 11.75 C-8.09238281 12.17796875 -8.87226562 12.6059375 -9.67578125 13.046875 C-12 14 -12 14 -16 14 C-16 14.66 -16 15.32 -16 16 C-16.99 16 -17.98 16 -19 16 C-19.33 16.99 -19.66 17.98 -20 19 C-24.95 19.495 -24.95 19.495 -30 20 C-29.68048573 16.8048573 -29.33047592 15.33442583 -27.0390625 13.015625 C-25.84410156 12.14164063 -25.84410156 12.14164063 -24.625 11.25 C-23.83351563 10.65703125 -23.04203125 10.0640625 -22.2265625 9.453125 C-20 8 -20 8 -17 7 C-16.67 6.34 -16.34 5.68 -16 5 C-13.671875 3.7109375 -13.671875 3.7109375 -10.75 2.375 C-9.79609375 1.92898437 -8.8421875 1.48296875 -7.859375 1.0234375 C-5.01069579 0.00382827 -2.99411255 -0.20762094 0 0 Z " fill="#FAF5D4" transform="translate(107,60)"/>
<path d="M0 0 C7.20331294 -0.65484663 10.97856766 1.22920139 17 5 C17.91007812 5.49242188 18.82015625 5.98484375 19.7578125 6.4921875 C21.11519531 7.23855469 21.11519531 7.23855469 22.5 8 C23.3353125 8.45375 24.170625 8.9075 25.03125 9.375 C27 11 27 11 27.78125 13.6875 C27.8534375 14.450625 27.925625 15.21375 28 16 C24.98968256 16.93423645 24.13349732 17.04449911 21 16 C21 15.34 21 14.68 21 14 C20.19755859 13.84337891 20.19755859 13.84337891 19.37890625 13.68359375 C16.35850012 12.81566095 13.73977006 11.48273352 10.9375 10.0625 C9.89464844 9.53785156 8.85179687 9.01320313 7.77734375 8.47265625 C5 7 5 7 2 5 C2 4.01 2 3.02 2 2 C1.34 2 0.68 2 0 2 C0 1.34 0 0.68 0 0 Z " fill="#FBF7DC" transform="translate(36,74)"/>
<path d="M0 0 C9.14577365 -0.45594766 16.54382728 4.28078264 23.63671875 9.66796875 C24.08660156 10.10753906 24.53648437 10.54710937 25 11 C25 11.66 25 12.32 25 13 C25.804375 13.2475 26.60875 13.495 27.4375 13.75 C30 15 30 15 30.8125 17.125 C30.874375 17.74375 30.93625 18.3625 31 19 C27.55438195 18.43573502 24.89993604 17.61175035 21.875 15.875 C21.10414063 15.43285156 20.33328125 14.99070312 19.5390625 14.53515625 C15.82965231 12.29238978 12.19678405 9.93676843 8.578125 7.55078125 C6.04237394 5.92506297 6.04237394 5.92506297 3.22265625 4.92578125 C2.48917969 4.62027344 1.75570312 4.31476562 1 4 C0.1875 1.875 0.1875 1.875 0 0 Z " fill="#FBF7DB" transform="translate(142,41)"/>
<path d="M0 0 C-0.33 0.99 -0.66 1.98 -1 3 C-6.86708589 4.91808577 -12.94884207 5.66091219 -19.046875 6.53515625 C-21.90625484 6.9291526 -21.90625484 6.9291526 -24.265625 7.62109375 C-26 8 -26 8 -28 7 C-29.99960012 6.960008 -32.00047242 6.95653201 -34 7 C-33.67 5.35 -33.34 3.7 -33 2 C-21.91286142 0.16849628 -11.22070643 -0.23135477 0 0 Z " fill="#FCF9E4" transform="translate(136,108)"/>
<path d="M0 0 C-1.4006216 3.501554 -2.62264089 4.46483677 -6 6 C-6.4434375 6.45375 -6.886875 6.9075 -7.34375 7.375 C-13.18845152 13.10942414 -21.42569167 16.26035656 -29 19 C-29 18.01 -29 17.02 -29 16 C-28.21625 15.773125 -27.4325 15.54625 -26.625 15.3125 C-23.79215891 14.26769795 -23.79215891 14.26769795 -23.1015625 11.61328125 C-21.20667947 7.11797363 -17.06957633 5.40036028 -13 3 C-11.96875 2.38125 -10.9375 1.7625 -9.875 1.125 C-6.43212145 -0.22221335 -3.66494525 -0.21989672 0 0 Z " fill="#FBF8DF" transform="translate(79,11)"/>
<path d="M0 0 C1.51400391 0.01740234 1.51400391 0.01740234 3.05859375 0.03515625 C4.07050781 0.04417969 5.08242187 0.05320312 6.125 0.0625 C6.90746094 0.07410156 7.68992187 0.08570312 8.49609375 0.09765625 C8.49609375 0.42765625 8.49609375 0.75765625 8.49609375 1.09765625 C4.86609375 1.42765625 1.23609375 1.75765625 -2.50390625 2.09765625 C-2.59671875 3.70640625 -2.59671875 3.70640625 -2.69140625 5.34765625 C-3.50390625 9.09765625 -3.50390625 9.09765625 -5.81640625 11.41015625 C-6.70328125 11.96703125 -7.59015625 12.52390625 -8.50390625 13.09765625 C-9.05433594 13.44570312 -9.60476562 13.79375 -10.171875 14.15234375 C-26.98764093 20.96878488 -53.00544417 14.03786293 -68.87890625 7.34765625 C-69.74515625 6.93515625 -70.61140625 6.52265625 -71.50390625 6.09765625 C-69.94140625 5.41015625 -69.94140625 5.41015625 -67.50390625 5.09765625 C-66.03630859 5.76474609 -66.03630859 5.76474609 -64.5390625 6.4453125 C-59.7121225 8.60703234 -54.69136151 9.35110799 -49.50390625 10.22265625 C-48.54484375 10.39152344 -47.58578125 10.56039062 -46.59765625 10.734375 C-27.21299085 14.55840892 -27.21299085 14.55840892 -8.50390625 10.09765625 C-5.81768468 7.49808699 -4.8153041 4.56349343 -3.50390625 1.09765625 C-2.50390625 0.09765625 -2.50390625 0.09765625 0 0 Z " fill="#EEE09E" transform="translate(88.50390625,103.90234375)"/>
<path d="M0 0 C4.47827363 0.5118027 6.84882323 1.77004381 10 5 C13.56262485 10.65416585 16.22884023 16.24921321 16 23 C13.84888324 25.97360258 12.34872484 27.62074521 8.77734375 28.625 C5.38716315 29.0827459 2.10762661 29.0944638 -1.3125 29.0625 C-2.56675781 29.05347656 -3.82101563 29.04445313 -5.11328125 29.03515625 C-6.06589844 29.02355469 -7.01851562 29.01195313 -8 29 C-8 28.67 -8 28.34 -8 28 C-6.30403646 27.66080729 -4.60807292 27.32161458 -2.91210938 26.98242188 C-2.21923828 26.84384766 -1.52636719 26.70527344 -0.8125 26.5625 C1.79166667 26.04166667 4.39583333 25.52083333 7 25 C8.47919922 24.70416016 8.47919922 24.70416016 9.98828125 24.40234375 C10.98408203 24.20318359 10.98408203 24.20318359 12 24 C11.7110168 17.62792049 10.71789122 13.24878761 7 8 C6.01 7.67 5.02 7.34 4 7 C4 6.01 4 5.02 4 4 C2.68 4 1.36 4 0 4 C0 2.68 0 1.36 0 0 Z " fill="#E1CE81" transform="translate(176,56)"/>
<path d="M0 0 C0.12375 0.639375 0.2475 1.27875 0.375 1.9375 C0.58125 2.618125 0.7875 3.29875 1 4 C1.66 4.33 2.32 4.66 3 5 C-10.23583028 18.59790466 -10.23583028 18.59790466 -16 20 C-18.3125 19.625 -18.3125 19.625 -20 19 C-19.0547226 16.63680651 -18.41996722 15.26997892 -16.25 13.875 C-14 13 -14 13 -10.875 12.125 C-7.88668933 11.27827768 -7.88668933 11.27827768 -6.625 8.875 C-6.41875 8.25625 -6.2125 7.6375 -6 7 C-5.34 7 -4.68 7 -4 7 C-4 6.34 -4 5.68 -4 5 C-3.34 5 -2.68 5 -2 5 C-1.34 3.35 -0.68 1.7 0 0 Z " fill="#E4D182" transform="translate(157,118)"/>
<path d="M0 0 C-0.804375 0.28875 -1.60875 0.5775 -2.4375 0.875 C-5.1326468 1.73262568 -5.1326468 1.73262568 -6 4 C-4.89591797 3.69255859 -4.89591797 3.69255859 -3.76953125 3.37890625 C-2.79371094 3.10949219 -1.81789063 2.84007813 -0.8125 2.5625 C0.15042969 2.29566406 1.11335938 2.02882813 2.10546875 1.75390625 C4.72663697 1.07119982 7.338935 0.50107805 10 0 C6.3647485 3.2535978 2.40302478 4.3685787 -2.1875 5.6875 C-2.94474365 5.90881592 -3.7019873 6.13013184 -4.48217773 6.3581543 C-9.80646594 7.84159775 -14.45612799 8.50398836 -20 8 C-17 6 -17 6 -14 5 C-17.3 5 -20.6 5 -24 5 C-21.446213 2.446213 -19.46513321 2.60486977 -15.97265625 2.34375 C-13.68567639 2.08195924 -13.68567639 2.08195924 -11 0 C-7.0675833 -0.78648334 -3.83092668 -1.37913361 0 0 Z " fill="#EAD788" transform="translate(117,96)"/>
<path d="M0 0 C-4.38033373 4.38033373 -11.47465918 3.37704674 -17.3125 3.625 C-18.33279297 3.6765625 -19.35308594 3.728125 -20.40429688 3.78125 C-25.7656675 4.01691464 -30.72184829 3.99756323 -36 3 C-36 2.34 -36 1.68 -36 1 C-35.20827393 0.94465088 -34.41654785 0.88930176 -33.60083008 0.83227539 C-30.00447841 0.57898892 -26.40849519 0.32079614 -22.8125 0.0625 C-21.56662109 -0.02451172 -20.32074219 -0.11152344 -19.03710938 -0.20117188 C-17.83505859 -0.28818359 -16.63300781 -0.37519531 -15.39453125 -0.46484375 C-14.28956299 -0.543396 -13.18459473 -0.62194824 -12.04614258 -0.70288086 C-9.03126366 -0.93842755 -9.03126366 -0.93842755 -6.24487305 -1.59204102 C-3.48109793 -2.09429966 -2.33353274 -1.46926136 0 0 Z " fill="#E1CD7E" transform="translate(77,51)"/>
<path d="M0 0 C-1.49477086 4.01829579 -3.73596321 5.32529768 -7.375 7.4375 C-11.53018166 9.85108935 -14.15458603 12.12273261 -17 16 C-19.0625 18.3125 -19.0625 18.3125 -21 20 C-21.99 20 -22.98 20 -24 20 C-23.51594564 15.68819268 -22.37995134 13.9410446 -19.0625 11.1875 C-18.35222656 10.58292969 -17.64195313 9.97835938 -16.91015625 9.35546875 C-15 8 -15 8 -13 8 C-13 7.34 -13 6.68 -13 6 C-11.35 5.67 -9.7 5.34 -8 5 C-7.67 4.01 -7.34 3.02 -7 2 C-4 0 -4 0 0 0 Z " fill="#E0CE83" transform="translate(60,16)"/>
<path d="M0 0 C3.39346606 3.98363407 3.82129825 7.14150185 4.3125 12.25 C3.73676314 19.1588423 0.68953539 24.93067829 -4 30 C-10.28108805 33.55330124 -16.81649299 35.5855669 -24 36 C-24 35.34 -24 34.68 -24 34 C-22.74703125 33.62488281 -21.4940625 33.24976563 -20.203125 32.86328125 C-18.55180507 32.34724377 -16.90077841 31.83026716 -15.25 31.3125 C-14.0125 30.94608398 -14.0125 30.94608398 -12.75 30.57226562 C-7.72263086 28.97080529 -4.9237369 27.63173627 -2 23 C-1.4225 22.29875 -0.845 21.5975 -0.25 20.875 C2.5320033 14.47639241 1.19535999 6.72389996 0 0 Z " fill="#EBDD9B" transform="translate(106,16)"/>
<path d="M0 0 C2.625 2.3125 2.625 2.3125 4 4 C0.64740745 3.04211641 -1.92638523 2.0507124 -4.8125 0.0625 C-14.05547307 -5.91824728 -24.18686658 -6.0790222 -34.875 -4.4375 C-39.85933142 -3.19372044 -42.80028606 0.15211249 -46 4 C-46 1 -46 1 -43.875 -1.5 C-30.92728635 -12.75888144 -13.43361447 -8.12496905 0 0 Z " fill="#EDDF9E" transform="translate(164,43)"/>
<path d="M0 0 C0.99 1.485 0.99 1.485 2 3 C0.02 3 -1.96 3 -4 3 C-3.01 4.485 -3.01 4.485 -2 6 C-2.82757813 5.68289063 -3.65515625 5.36578125 -4.5078125 5.0390625 C-8.31847819 3.90524027 -11.93226312 3.55838311 -15.875 3.375 C-16.56335938 3.33632812 -17.25171875 3.29765625 -17.9609375 3.2578125 C-19.64023246 3.16451834 -21.32007767 3.08121762 -23 3 C-23 2.67 -23 2.34 -23 2 C-18.05 2 -13.1 2 -8 2 C-8 1.01 -8 0.02 -8 -1 C-17.405 -0.505 -17.405 -0.505 -27 0 C-20.74250096 -6.25749904 -7.12608622 -3.56304311 0 0 Z " fill="#EFE1A0" transform="translate(99,7)"/>
<path d="M0 0 C3.80281399 1.38658561 6.99431636 3.15672908 10.375 5.375 C18.17195353 10.84992341 18.17195353 10.84992341 27 14 C26.29827938 10.81018585 26.29827938 10.81018585 23.5 9.5 C21 8 21 8 20 5 C20.66 5 21.32 5 22 5 C22 5.66 22 6.32 22 7 C22.78375 7.226875 23.5675 7.45375 24.375 7.6875 C27 9 27 9 28.3125 11.625 C28.6528125 12.800625 28.6528125 12.800625 29 14 C28.67 14.33 28.34 14.66 28 15 C26.35130683 14.96219927 24.70405968 14.84529698 23.0625 14.6875 C22.16660156 14.60886719 21.27070313 14.53023437 20.34765625 14.44921875 C18 14 18 14 16 12 C14.8553125 11.566875 14.8553125 11.566875 13.6875 11.125 C10.62721032 9.84394851 8.57790446 8.07489871 6 6 C4.02288349 4.95548562 2.02749004 3.94301862 0 3 C0 2.01 0 1.02 0 0 Z " fill="#F8F0C4" transform="translate(146,46)"/>
<path d="M0 0 C0 0.66 0 1.32 0 2 C-8.64380923 6.97058108 -16.07499605 9.95526274 -26 11 C-25.67 10.34 -25.34 9.68 -25 9 C-24.34 9 -23.68 9 -23 9 C-23 8.34 -23 7.68 -23 7 C-17.6816655 5.04166001 -12.35883312 3.09513364 -7 1.25 C-6.29875 1.00765625 -5.5975 0.7653125 -4.875 0.515625 C-3 0 -3 0 0 0 Z " fill="#E0CC7C" transform="translate(136,139)"/>
<path d="M0 0 C0.99 0.33 1.98 0.66 3 1 C2.2575 1.53625 1.515 2.0725 0.75 2.625 C-3.78594528 6.54240729 -6.65031782 10.80417043 -7.30859375 16.8203125 C-7.62853132 25.02234827 -6.40851791 29.77054634 -1 36 C-5.14985236 34.18172087 -6.68951593 31.90392135 -9 28 C-11.30811076 21.07566773 -10.14867674 14.9021647 -7.2890625 8.30859375 C-5.35369354 4.84252388 -2.99487809 2.58648562 0 0 Z " fill="#EEE09F" transform="translate(15,71)"/>
<path d="M0 0 C0 2 0 2 -1.375 3.625 C-3 5 -3 5 -5 5 C-6.77401632 9.62974991 -7.39641621 13.96044843 -7.625 18.875 C-7.66367188 19.56335938 -7.70234375 20.25171875 -7.7421875 20.9609375 C-7.83548166 22.64023246 -7.91878238 24.32007767 -8 26 C-8.66 25.67 -9.32 25.34 -10 25 C-11.03271091 6.92755911 -11.03271091 6.92755911 -7.25 2.375 C-4.57737059 -0.17614625 -3.99798275 0 0 0 Z " fill="#E0CD7F" transform="translate(96,114)"/>
<path d="M0 0 C1.60520004 0.06023265 3.20934327 0.14908599 4.8125 0.25 C6.15248047 0.31960938 6.15248047 0.31960938 7.51953125 0.390625 C10 1 10 1 11.84375 2.71875 C13.28188188 5.55614533 13.13957289 7.12658729 12.6875 10.25 C12.56761719 11.14203125 12.44773437 12.0340625 12.32421875 12.953125 C12.21722656 13.62859375 12.11023438 14.3040625 12 15 C9.12878998 12.30572729 7.6117451 9.60723903 6 6 C6 5.34 6 4.68 6 4 C5.38125 3.71125 4.7625 3.4225 4.125 3.125 C2 2 2 2 0 0 Z " fill="#E5D285" transform="translate(93,9)"/>
<path d="M0 0 C0.99435406 3.09354597 0.87840996 4.90279155 0 8 C-0.59425781 8.10957031 -1.18851563 8.21914063 -1.80078125 8.33203125 C-13.96058835 10.08667092 -13.96058835 10.08667092 -24.4375 15.75 C-25.7059375 16.86375 -25.7059375 16.86375 -27 18 C-29.16015625 17.640625 -29.16015625 17.640625 -31 17 C-21.2920623 10.19783957 -13.91183661 7.51946355 -2 7 C-1.855625 6.21625 -1.71125 5.4325 -1.5625 4.625 C-1 2 -1 2 0 0 Z " fill="#EEDF9E" transform="translate(116,47)"/>
<path d="M0 0 C-6.625 3 -6.625 3 -10 3 C-10.33 3.99 -10.66 4.98 -11 6 C-10.01 6 -9.02 6 -8 6 C-8 6.66 -8 7.32 -8 8 C-8.66 8 -9.32 8 -10 8 C-10.33 8.99 -10.66 9.98 -11 11 C-12.62332967 12.38576923 -14.28724465 13.72641268 -16 15 C-16.33 14.34 -16.66 13.68 -17 13 C-16.34 13 -15.68 13 -15 13 C-14.67 12.01 -14.34 11.02 -14 10 C-13.34 10 -12.68 10 -12 10 C-12 9.34 -12 8.68 -12 8 C-16.43458973 9.3937282 -18.87378374 11.60582235 -22 15 C-18.68846213 7.91051047 -14.00629937 3.3734034 -7 0 C-3.84865729 -1.13798487 -3.30271253 -1.10090418 0 0 Z " fill="#ECDD9A" transform="translate(108,106)"/>
<path d="M0 0 C0 0.66 0 1.32 0 2 C-1.175625 2.12375 -1.175625 2.12375 -2.375 2.25 C-3.24125 2.4975 -4.1075 2.745 -5 3 C-5.27457031 3.63035156 -5.54914063 4.26070312 -5.83203125 4.91015625 C-7.46616838 7.834114 -9.17942758 8.14879534 -12.3125 9.1875 C-13.72982422 9.67283203 -13.72982422 9.67283203 -15.17578125 10.16796875 C-17.7742837 10.93350267 -20.33569035 11.51955072 -23 12 C-23.6875 10.25 -23.6875 10.25 -24 8 C-22.39642567 4.79285135 -21.18374042 4.07205507 -17.8125 2.75 C-16.884375 2.5025 -15.95625 2.255 -15 2 C-16.45255699 5.82946843 -18.42895561 7.12050295 -22 9 C-18.30601456 9 -16.40305089 7.8673989 -13.125 6.1875 C-12.09632812 5.66542969 -11.06765625 5.14335937 -10.0078125 4.60546875 C-8.05358911 3.56237029 -6.12812569 2.46279699 -4.2421875 1.30078125 C-2 0 -2 0 0 0 Z " fill="#F9F1C7" transform="translate(72,19)"/>
<path d="M0 0 C0.66 0.33 1.32 0.66 2 1 C1.10796875 1.67546875 0.2159375 2.3509375 -0.703125 3.046875 C-1.88553624 3.94775975 -3.06782124 4.8488102 -4.25 5.75 C-4.83652344 6.1934375 -5.42304687 6.636875 -6.02734375 7.09375 C-11.81130604 11.32922515 -11.81130604 11.32922515 -16 17 C-20.73486599 16.53579745 -24.19017158 15.9390105 -28 13 C-29.3125 10.8125 -29.3125 10.8125 -30 9 C-25.89041233 10.45044271 -22.56741255 12.51110752 -19 15 C-18.07380859 14.12988281 -18.07380859 14.12988281 -17.12890625 13.2421875 C-11.71577502 8.24925367 -6.27185098 3.86309662 0 0 Z " fill="#EEDF9E" transform="translate(83,65)"/>
<path d="M0 0 C0.66 0 1.32 0 2 0 C1.67 2.31 1.34 4.62 1 7 C1.99 7.33 2.98 7.66 4 8 C4.33 8.99 4.66 9.98 5 11 C4.33613281 10.83628906 3.67226562 10.67257813 2.98828125 10.50390625 C-0.62883337 9.89396143 -4.15860708 9.89204487 -7.8125 9.9375 C-8.50537109 9.94201172 -9.19824219 9.94652344 -9.91210938 9.95117188 C-11.60811068 9.96286844 -13.30406703 9.98080076 -15 10 C-11.92307254 7.3184721 -9.80265337 6.57912193 -5.75 6.3125 C-4.41195312 6.21388672 -4.41195312 6.21388672 -3.046875 6.11328125 C-2.37140625 6.07589844 -1.6959375 6.03851563 -1 6 C-0.67 4.02 -0.34 2.04 0 0 Z " fill="#DFCB7A" transform="translate(117,49)"/>
<path d="M0 0 C0 0.99 0 1.98 0 3 C-10.395 3.495 -10.395 3.495 -21 4 C-21 3.34 -21 2.68 -21 2 C-13.94887561 -0.21211746 -7.35342179 -0.20177072 0 0 Z " fill="#E2CE82" transform="translate(91,6)"/>
<path d="M0 0 C5.02518791 0.67307458 9.97164705 1.54398845 14.9375 2.5625 C15.62134766 2.70107422 16.30519531 2.83964844 17.00976562 2.98242188 C18.67353986 3.31983064 20.33682315 3.65965879 22 4 C22 4.33 22 4.66 22 5 C14.52605426 5.37369729 8.17859349 4.04061541 1 2 C0.86722656 2.76699219 0.73445312 3.53398438 0.59765625 4.32421875 C-0.07749852 7.3469705 -1.30875828 9.4263713 -3 12 C-3.66 11.67 -4.32 11.34 -5 11 C-4.319375 9.948125 -4.319375 9.948125 -3.625 8.875 C-1.98313057 5.97015409 -0.96322901 3.1860652 0 0 Z " fill="#EEE09F" transform="translate(136,81)"/>
<path d="M0 0 C4.9430602 0.49430602 8.74976194 1.36890025 13 4 C13.33 4.99 13.66 5.98 14 7 C12.68 7 11.36 7 10 7 C10.33 7.66 10.66 8.32 11 9 C10.34 8.731875 9.68 8.46375 9 8.1875 C5.35060933 6.74294953 1.67754567 5.37128822 -2 4 C-2 3.67 -2 3.34 -2 3 C-0.35 2.67 1.3 2.34 3 2 C2.01 1.34 1.02 0.68 0 0 Z " fill="#E7D691" transform="translate(40,69)"/>
<path d="M0 0 C0 0.33 0 0.66 0 1 C-2.31 1.33 -4.62 1.66 -7 2 C-5.68 2.66 -4.36 3.32 -3 4 C-3 4.99 -3 5.98 -3 7 C-4.051875 6.7525 -4.051875 6.7525 -5.125 6.5 C-8.13888194 5.97584662 -10.94713625 5.92900317 -14 6 C-13.67 4.35 -13.34 2.7 -13 1 C-8.59085217 -0.10228696 -4.51617599 -0.07654536 0 0 Z " fill="#FAF4D2" transform="translate(116,109)"/>
<path d="M0 0 C0.66 0.33 1.32 0.66 2 1 C1.125 8.875 1.125 8.875 0 10 C0.99 10.99 1.98 11.98 3 13 C-1.455 12.01 -1.455 12.01 -6 11 C-6 9.68 -6 8.36 -6 7 C-5.34 7 -4.68 7 -4 7 C-3.71125 6.21625 -3.4225 5.4325 -3.125 4.625 C-2 2 -2 2 0 0 Z " fill="#F5E79E" transform="translate(124,45)"/>
<path d="M0 0 C0.61746094 0.34933594 1.23492187 0.69867188 1.87109375 1.05859375 C7.74820798 4.21631266 12.3344493 5.67747335 19 6 C19 6.66 19 7.32 19 8 C7.90882299 8.3945478 7.90882299 8.3945478 3 6 C0 2.8 0 2.8 0 0 Z " fill="#E0CD81" transform="translate(90,144)"/>
<path d="M0 0 C-10.19215905 4.07064889 -18.9197672 7.46167637 -30 7 C-27.00459566 5.00306377 -26.24932089 4.76205661 -22.875 4.5625 C-16.9252657 4.01985322 -11.6250612 2.16669387 -6.1875 -0.25 C-3.6314119 -1.12637306 -2.53450389 -0.74387955 0 0 Z " fill="#EEDF9E" transform="translate(127,97)"/>
<path d="M0 0 C0.66 0.33 1.32 0.66 2 1 C1.505 1.45375 1.01 1.9075 0.5 2.375 C-1.22609337 3.87635519 -1.22609337 3.87635519 -1 6 C1.00398137 7.85636667 3.12124992 9.53496304 5.25 11.24609375 C7 13 7 13 7 16 C6.54109375 15.51789063 6.0821875 15.03578125 5.609375 14.5390625 C4.99578125 13.90742187 4.3821875 13.27578125 3.75 12.625 C3.14671875 11.99851562 2.5434375 11.37203125 1.921875 10.7265625 C0.0299412 9.02689839 -1.68201309 8.01540134 -4 7 C-3.01 8.65 -2.02 10.3 -1 12 C-4.16115776 10.63016497 -4.9927092 10.0109362 -7 7 C-6.34 7 -5.68 7 -5 7 C-5 6.01 -5 5.02 -5 4 C-2.5 1.8125 -2.5 1.8125 0 0 Z " fill="#EBDA92" transform="translate(71,79)"/>
<path d="M0 0 C0.99 0.33 1.98 0.66 3 1 C3.0825 2.11375 3.165 3.2275 3.25 4.375 C3.59057504 7.9532606 3.59057504 7.9532606 5.625 9.3125 C7.59084307 9.88155983 9.57502048 10.38684714 11.5625 10.875 C15.16212857 12.05306026 16.17552896 12.78034523 18 16 C16.35 16.33 14.7 16.66 13 17 C12.67 16.01 12.34 15.02 12 14 C8.99152582 12.77479736 8.99152582 12.77479736 6 12 C6 11.34 6 10.68 6 10 C5.01 9.67 4.02 9.34 3 9 C2.05078125 6.93359375 2.05078125 6.93359375 1.3125 4.4375 C1.06113281 3.61121094 0.80976563 2.78492187 0.55078125 1.93359375 C0.36902344 1.29550781 0.18726563 0.65742187 0 0 Z " fill="#F6E8A4" transform="translate(15,90)"/>
<path d="M0 0 C4.26912893 1.43859536 7.23391301 3.56814873 10.6875 6.4375 C11.64011719 7.21996094 12.59273437 8.00242187 13.57421875 8.80859375 C16 11 16 11 18 14 C14.66666667 12.33333333 11.33333333 10.66666667 8 9 C7.67 9.66 7.34 10.32 7 11 C6.34 10.01 5.68 9.02 5 8 C5.66 8 6.32 8 7 8 C7 7.34 7 6.68 7 6 C6.01 5.67 5.02 5.34 4 5 C4 4.34 4 3.68 4 3 C2.68 2.34 1.36 1.68 0 1 C0 0.67 0 0.34 0 0 Z " fill="#EBDB97" transform="translate(168,47)"/>
<path d="M0 0 C0.66 0.33 1.32 0.66 2 1 C1.67 1.99 1.34 2.98 1 4 C1.9075 3.690625 2.815 3.38125 3.75 3.0625 C6.16563338 2.2727737 8.52780285 1.57050703 11 1 C11 1.66 11 2.32 11 3 C10.01 3 9.02 3 8 3 C7.67 3.99 7.34 4.98 7 6 C3.7 6.33 0.4 6.66 -3 7 C-2.25 2.25 -2.25 2.25 0 0 Z " fill="#F9F3CC" transform="translate(80,73)"/>
<path d="M0 0 C-0.33 1.65 -0.66 3.3 -1 5 C-4.82320557 6.42258812 -7.91281305 7.24042276 -12 7 C-11.360625 6.690625 -10.72125 6.38125 -10.0625 6.0625 C-8.06389179 5.1654837 -8.06389179 5.1654837 -7 4 C-7.66 3.34 -8.32 2.68 -9 2 C-5.62902617 0.50178941 -3.79557881 0 0 0 Z " fill="#E7D58A" transform="translate(83,47)"/>
<path d="M0 0 C2.92879371 0.62759865 5.36095629 1.58622659 8 3 C6.68 3.33 5.36 3.66 4 4 C4.99 5.485 4.99 5.485 6 7 C5.17242187 6.68289062 4.34484375 6.36578125 3.4921875 6.0390625 C-0.31847819 4.90524027 -3.93226312 4.55838311 -7.875 4.375 C-8.56335938 4.33632812 -9.25171875 4.29765625 -9.9609375 4.2578125 C-11.64023246 4.16451834 -13.32007767 4.08121762 -15 4 C-15 3.67 -15 3.34 -15 3 C-10.05 3 -5.1 3 0 3 C0 2.01 0 1.02 0 0 Z " fill="#EBDA94" transform="translate(91,6)"/>
<path d="M0 0 C0 3 0 3 -2 5.25 C-2.99116286 6.17621486 -3.99251204 7.09156961 -5 8 C-5.65097656 8.6084375 -6.30195313 9.216875 -6.97265625 9.84375 C-12.97489661 15.31869074 -12.97489661 15.31869074 -17 16 C-15.37660195 14.29115995 -13.70680947 12.62553283 -12 11 C-11.34 11 -10.68 11 -10 11 C-9.67 10.01 -9.34 9.02 -9 8 C-7.1875 6.2109375 -7.1875 6.2109375 -5 4.375 C-3.9171875 3.45847656 -3.9171875 3.45847656 -2.8125 2.5234375 C-2.214375 2.02070312 -1.61625 1.51796875 -1 1 C-0.67 0.67 -0.34 0.34 0 0 Z " fill="#EEE09F" transform="translate(160,122)"/>
<path d="M0 0 C4.866909 0.45273572 7.4419325 1.64525064 11 5 C12.17673198 7.35346396 12.16623866 8.8806033 12.1875 11.5 C12.20167969 12.2940625 12.21585938 13.088125 12.23046875 13.90625 C12 16 12 16 10 18 C10.03480469 17.11248047 10.03480469 17.11248047 10.0703125 16.20703125 C10.17411464 11.66198041 10.13708357 8.14059941 8 4 C7.01 4 6.02 4 5 4 C5 3.34 5 2.68 5 2 C3.35 1.67 1.7 1.34 0 1 C0 0.67 0 0.34 0 0 Z " fill="#EDDE9D" transform="translate(151,104)"/>
<path d="M0 0 C2.3431213 0.25561323 4.67843403 0.59270772 7 1 C7.33 1.66 7.66 2.32 8 3 C8.99 3.33 9.98 3.66 11 4 C10.67 4.66 10.34 5.32 10 6 C9.34 6 8.68 6 8 6 C8.66 6.66 9.32 7.32 10 8 C8.68 8.33 7.36 8.66 6 9 C5.7525 7.88625 5.505 6.7725 5.25 5.625 C4.38994661 1.95384802 4.38994661 1.95384802 1.875 0.5625 C1.25625 0.376875 0.6375 0.19125 0 0 Z " fill="#F0DD8F" transform="translate(147,107)"/>
<path d="M0 0 C1.27230469 -0.03867187 1.27230469 -0.03867187 2.5703125 -0.078125 C4.875 0.25 4.875 0.25 7.875 3.25 C2.265 3.25 -3.345 3.25 -9.125 3.25 C-9.455 2.59 -9.785 1.93 -10.125 1.25 C-6.75525113 0.3514003 -3.47058822 0.10147919 0 0 Z " fill="#DECB7B" transform="translate(139.125,36.75)"/>
<path d="M0 0 C2 1.375 2 1.375 4 4 C4.35791096 7.3580469 4.23115823 10.63536357 4 14 C2.68 13.67 1.36 13.34 0 13 C0.99 13 1.98 13 3 13 C2.34 12.34 1.68 11.68 1 11 C0.34 10.34 -0.32 9.68 -1 9 C-0.01 9 0.98 9 2 9 C1.67 8.2575 1.34 7.515 1 6.75 C0 4 0 4 0 0 Z " fill="#F1DE8E" transform="translate(76,97)"/>
<path d="M0 0 C0 0.66 0 1.32 0 2 C-3.56045177 3.18681726 -6.43808337 3.09689832 -10.1875 3.0625 C-11.45980469 3.05347656 -12.73210937 3.04445313 -14.04296875 3.03515625 C-15.50669922 3.01775391 -15.50669922 3.01775391 -17 3 C-17 2.67 -17 2.34 -17 2 C-14.54316882 1.47097431 -12.08497874 0.95149191 -9.625 0.4375 C-8.92632812 0.28603516 -8.22765625 0.13457031 -7.5078125 -0.02148438 C-2.2265625 -1.11328125 -2.2265625 -1.11328125 0 0 Z " fill="#DDCA7A" transform="translate(185,82)"/>
<path d="M0 0 C2.97 0.33 5.94 0.66 9 1 C0.29411765 5.35294118 0.29411765 5.35294118 -4.4375 4.625 C-4.953125 4.41875 -5.46875 4.2125 -6 4 C-4.7934375 3.566875 -4.7934375 3.566875 -3.5625 3.125 C-0.8673532 2.26737432 -0.8673532 2.26737432 0 0 Z " fill="#F3E192" transform="translate(70,46)"/>
<path d="M0 0 C0.33 0 0.66 0 1 0 C1 3.63 1 7.26 1 11 C2.32 11.66 3.64 12.32 5 13 C5 13.66 5 14.32 5 15 C2.53199953 13.84826645 0.95216435 12.95216435 -1 11 C-1.1971417 6.86002433 -1.30765478 3.92296433 0 0 Z " fill="#ECDD9C" transform="translate(31,38)"/>
<path d="M0 0 C-1.85522384 1.85522384 -4.51617006 1.40527874 -7.00390625 1.67578125 C-9.11237954 1.91648865 -9.11237954 1.91648865 -11.25 3.125 C-13 4 -13 4 -15.25 3.625 C-15.8275 3.41875 -16.405 3.2125 -17 3 C-17 2.34 -17 1.68 -17 1 C-14.91835982 0.63601378 -12.83459438 0.28416713 -10.75 -0.0625 C-9.00976562 -0.35833984 -9.00976562 -0.35833984 -7.234375 -0.66015625 C-4.37477376 -0.9606216 -2.66674071 -0.9439206 0 0 Z " fill="#F9F1C5" transform="translate(131,113)"/>
<path d="M0 0 C-1.15173355 2.46800047 -2.04783565 4.04783565 -4 6 C-6.625 5.625 -6.625 5.625 -9 5 C-8 2 -8 2 -6.1875 0.8125 C-4 0 -4 0 0 0 Z " fill="#FBF8DF" transform="translate(106,61)"/>
<path d="M0 0 C0 0.66 0 1.32 0 2 C-1.60149886 2.67305018 -3.20631029 3.33822227 -4.8125 4 C-5.70582031 4.37125 -6.59914063 4.7425 -7.51953125 5.125 C-10 6 -10 6 -13 6 C-13 5.01 -13 4.02 -13 3 C-11.2092015 2.49689942 -9.41733089 1.99761372 -7.625 1.5 C-6.62726563 1.2215625 -5.62953125 0.943125 -4.6015625 0.65625 C-2 0 -2 0 0 0 Z " fill="#DECA7A" transform="translate(96,44)"/>
<path d="M0 0 C-1.74681293 0.98484108 -3.4975851 1.96266187 -5.25 2.9375 C-6.71179688 3.75541016 -6.71179688 3.75541016 -8.203125 4.58984375 C-10.53610409 5.76610835 -12.45350762 6.52101691 -15 7 C-12.64513904 3.46770856 -10.80215195 2.7489899 -7 1 C-5.9171875 0.38125 -5.9171875 0.38125 -4.8125 -0.25 C-3 -1 -3 -1 0 0 Z " fill="#EDDE9D" transform="translate(139,141)"/>
<path d="M0 0 C-0.33 0.99 -0.66 1.98 -1 3 C-1.66 3 -2.32 3 -3 3 C-3 3.99 -3 4.98 -3 6 C-5.66666667 6 -8.33333333 6 -11 6 C-9.54550599 4.9944239 -8.08627557 3.99569565 -6.625 3 C-5.40683594 2.1646875 -5.40683594 2.1646875 -4.1640625 1.3125 C-2 0 -2 0 0 0 Z " fill="#F8F1C6" transform="translate(68,14)"/>
<path d="M0 0 C1.65 0 3.3 0 5 0 C5 1.32 5 2.64 5 4 C2.03 5.65 -0.94 7.3 -4 9 C-2 5 -2 5 1 4 C1.33 3.34 1.66 2.68 2 2 C1.34 1.34 0.68 0.68 0 0 Z " fill="#F9F1C6" transform="translate(76,10)"/>
<path d="M0 0 C4.10958767 1.45044271 7.43258745 3.51110752 11 6 C10.01 6.33 9.02 6.66 8 7 C8 6.34 8 5.68 8 5 C6.68 5.33 5.36 5.66 4 6 C3.34 4.68 2.68 3.36 2 2 C1.34 2 0.68 2 0 2 C0 1.34 0 0.68 0 0 Z " fill="#F7EFC4" transform="translate(53,80)"/>
<path d="M0 0 C0.33 0 0.66 0 1 0 C0.51020408 6.48979592 0.51020408 6.48979592 -1.9375 8.9375 C-4 10 -4 10 -6 10 C-6.33 9.01 -6.66 8.02 -7 7 C-5.02 6.67 -3.04 6.34 -1 6 C-0.67 4.02 -0.34 2.04 0 0 Z " fill="#E3D28D" transform="translate(191,74)"/>
<path d="M0 0 C1.21236328 0.01353516 1.21236328 0.01353516 2.44921875 0.02734375 C3.37154297 0.04474609 3.37154297 0.04474609 4.3125 0.0625 C3.9825 1.0525 3.6525 2.0425 3.3125 3.0625 C1.31295254 3.10504356 -0.68791636 3.10330783 -2.6875 3.0625 C-3.0175 2.7325 -3.3475 2.4025 -3.6875 2.0625 C-5.01344105 1.70087971 -6.34688457 1.36521961 -7.6875 1.0625 C-4.80538698 0.10179566 -2.98899956 -0.04331883 0 0 Z " fill="#DECB7E" transform="translate(120.6875,103.9375)"/>
<path d="M0 0 C0.66 0.33 1.32 0.66 2 1 C2 1.99 2 2.98 2 4 C1.34 4 0.68 4 0 4 C0.33 4.99 0.66 5.98 1 7 C-0.32 7 -1.64 7 -3 7 C-3 5.68 -3 4.36 -3 3 C-2.34 3 -1.68 3 -1 3 C-0.67 2.01 -0.34 1.02 0 0 Z " fill="#F2DF91" transform="translate(121,49)"/>
<path d="M0 0 C-0.33 0.99 -0.66 1.98 -1 3 C-3.31 3.33 -5.62 3.66 -8 4 C-7.67 3.01 -7.34 2.02 -7 1 C-4.52260646 0.09162237 -2.66420516 0 0 0 Z " fill="#E0CD7E" transform="translate(69,11)"/>
<path d="M0 0 C0.66 0.33 1.32 0.66 2 1 C1.01 1.33 0.02 1.66 -1 2 C-1 2.66 -1 3.32 -1 4 C-0.34 4.33 0.32 4.66 1 5 C-0.75 5.6875 -0.75 5.6875 -3 6 C-5.25 4.5625 -5.25 4.5625 -7 3 C-4.69631264 1.93347808 -2.35981813 0.93578995 0 0 Z " fill="#E8D588" transform="translate(124,142)"/>
<path d="M0 0 C0.66 0 1.32 0 2 0 C0.54955729 4.10958767 -1.51110752 7.43258745 -4 11 C-4.66 10.67 -5.32 10.34 -6 10 C-5.05065487 8.32819726 -4.09026687 6.66266064 -3.125 5 C-2.59132812 4.071875 -2.05765625 3.14375 -1.5078125 2.1875 C-1.01023438 1.465625 -0.51265625 0.74375 0 0 Z " fill="#E5D592" transform="translate(133,85)"/>
<path d="M0 0 C4.12751449 0.60698743 7.3321148 2.03810791 11 4 C8.83032311 4.95465783 7.43671207 5.14401212 5.17578125 4.3984375 C3.4315257 3.64129615 1.71372869 2.82390802 0 2 C0 1.34 0 0.68 0 0 Z " fill="#F8F0C5" transform="translate(46,84)"/>
<path d="M0 0 C0.12375 0.639375 0.2475 1.27875 0.375 1.9375 C0.58125 2.618125 0.7875 3.29875 1 4 C1.66 4.33 2.32 4.66 3 5 C2.67 6.98 2.34 8.96 2 11 C0.4375 9.4375 0.4375 9.4375 -1 7 C-0.6875 3.25 -0.6875 3.25 0 0 Z " fill="#F0DC8C" transform="translate(10,87)"/>
<path d="M0 0 C-1.32 0.99 -2.64 1.98 -4 3 C-4 2.34 -4 1.68 -4 1 C-6.31 1.66 -8.62 2.32 -11 3 C-9 0 -9 0 -7.1875 -0.75 C-4.59271 -1.04654743 -2.52136205 -0.63034051 0 0 Z " fill="#E6D693" transform="translate(64,15)"/>
<path d="M0 0 C0.99 0.66 1.98 1.32 3 2 C3 2.99 3 3.98 3 5 C1.125 5.625 1.125 5.625 -1 6 C-1.66 5.34 -2.32 4.68 -3 4 C-2.34 3.67 -1.68 3.34 -1 3 C-0.67 2.01 -0.34 1.02 0 0 Z " fill="#F9F3CC" transform="translate(64,87)"/>
<path d="M0 0 C0.66 0.33 1.32 0.66 2 1 C0.25 3.0625 0.25 3.0625 -2 5 C-4.25 4.75 -4.25 4.75 -6 4 C-4.02 2.68 -2.04 1.36 0 0 Z " fill="#F6ECBA" transform="translate(55,21)"/>
</svg>
