<?xml version="1.0" encoding="UTF-8"?>
<svg version="1.1" xmlns="http://www.w3.org/2000/svg" width="168" height="180">
<path d="M0 0 C2.85232776 2.49578679 3.77940834 4.27519882 4.875 7.875 C5.13005734 14.25143338 2.87633455 19.03344636 -1 24 C-1.66 24 -2.32 24 -3 24 C-3.28875 24.598125 -3.5775 25.19625 -3.875 25.8125 C-5 28 -5 28 -7 31 C-4.525 32.485 -4.525 32.485 -2 34 C-2.3125 37.375 -2.3125 37.375 -3 41 C-3.99 41.66 -4.98 42.32 -6 43 C-4.68 43.66 -3.36 44.32 -2 45 C-2.14937031 52.0204047 -5.2720207 55.98521313 -10 61 C-15.95420154 66.7024614 -29.26339752 78 -38 78 C-38 78.66 -38 79.32 -38 80 C-6.20887631 78.45618273 -6.20887631 78.45618273 23 67 C23.01284403 65.03891707 23.01284403 65.03891707 22 63 C18.99909914 61.62718219 18.99909914 61.62718219 15.4375 60.75 C14.23996094 60.41484375 13.04242188 60.0796875 11.80859375 59.734375 C10.88175781 59.49203125 9.95492187 59.2496875 9 59 C9 57.35 9 55.7 9 54 C16.27694547 53.6030757 22.38922442 54.62217218 28.5625 58.6875 C30.25656797 61.41273978 30.81644883 63.69532902 30.625 66.9140625 C29.2973781 71.34500061 25.76719852 73.61488515 22 76 C9.3178804 82.74308665 -5.47354655 85.12035418 -19.71875 85.1328125 C-20.42092651 85.13376923 -21.12310303 85.13472595 -21.84655762 85.13571167 C-23.3187672 85.1363867 -24.79097988 85.13458017 -26.26318359 85.13037109 C-28.49453527 85.12501312 -30.72568571 85.13033927 -32.95703125 85.13671875 C-34.39843794 85.13605785 -35.8398445 85.13477644 -37.28125 85.1328125 C-38.57095703 85.13168457 -39.86066406 85.13055664 -41.18945312 85.12939453 C-45.19785631 84.9932814 -49.03068643 84.55484436 -53 84 C-52.26716797 85.01513672 -52.26716797 85.01513672 -51.51953125 86.05078125 C-49.66069042 89.65855715 -49.63217773 92.14897402 -49.6875 96.1875 C-49.69136719 97.41855469 -49.69523437 98.64960937 -49.69921875 99.91796875 C-50 103 -50 103 -52 105 C-52.99 105 -53.98 105 -55 105 C-55.02578125 104.03578125 -55.0515625 103.0715625 -55.078125 102.078125 C-55.13484375 100.81484375 -55.1915625 99.5515625 -55.25 98.25 C-55.29640625 96.99703125 -55.3428125 95.7440625 -55.390625 94.453125 C-56.07150347 90.59481364 -56.98126522 89.39083795 -60 87 C-59.94779297 88.19496094 -59.94779297 88.19496094 -59.89453125 89.4140625 C-59.60337304 100.81082675 -59.60337304 100.81082675 -63 105 C-66.1875 105.875 -66.1875 105.875 -69 106 C-68.125 99.25 -68.125 99.25 -67 97 C-66.9310528 95.62657169 -66.91532292 94.24997898 -66.9375 92.875 C-66.958125 91.59625 -66.97875 90.3175 -67 89 C-68.65 89.33 -70.3 89.66 -72 90 C-72.09796875 90.66386719 -72.1959375 91.32773438 -72.296875 92.01171875 C-73.43576647 98.73706926 -74.8028616 102.68207466 -80.5 106.8125 C-83 108 -83 108 -87 108 C-87.33 107.01 -87.66 106.02 -88 105 C-87.27683594 104.36384766 -87.27683594 104.36384766 -86.5390625 103.71484375 C-85.90742187 103.12832031 -85.27578125 102.54179688 -84.625 101.9375 C-83.99851563 101.36902344 -83.37203125 100.80054687 -82.7265625 100.21484375 C-80.48298038 97.33676442 -79.83636206 94.51863433 -79 91 C-81.75310695 91.59209833 -84.50186786 92.19808021 -87.25 92.8125 C-88.02730469 92.97814453 -88.80460937 93.14378906 -89.60546875 93.31445312 C-95.37596149 94.53724157 -95.37596149 94.53724157 -100 98 C-101.01509539 100.80963903 -101.24172987 102.31006267 -100.25 105.140625 C-97.2933044 110.13004882 -94.05448621 114.68039727 -90.35546875 119.15234375 C-89 121 -89 121 -89 123 C-88.1028125 122.71125 -87.205625 122.4225 -86.28125 122.125 C-75.15334237 118.81421756 -63.12238932 116.09071802 -52.125 121.3125 C-49.05528494 123.04506799 -48.01078201 123.98382699 -46 127 C-45.53829511 131.98641282 -45.81461095 135.07135351 -49 139 C-54.18918919 143 -54.18918919 143 -58 143 C-57.505 143.99 -57.01 144.98 -56.5 146 C-54.43704738 150.82007413 -54.31292983 155.17537821 -55.5625 160.3125 C-57.83911118 162.98504356 -60.68959153 164.10618971 -64 165 C-67.9375 165.1875 -67.9375 165.1875 -71 165 C-71.5878125 166.3921875 -71.5878125 166.3921875 -72.1875 167.8125 C-74.19543178 171.34369037 -75.27575115 172.47644365 -79 174 C-83.08853455 174.52035894 -85.35055029 174.31809782 -89.0625 172.5 C-97.85133612 165.02013947 -101.31463332 155.40126895 -102.2421875 144.03125 C-102.24855467 142.0192232 -102.14084918 140.00710086 -102 138 C-102.66 137.773125 -103.32 137.54625 -104 137.3125 C-110.28835064 134.56134659 -115.32082165 131.03911514 -120 126 C-120.54398438 125.53335938 -121.08796875 125.06671875 -121.6484375 124.5859375 C-127.47811344 119.41814616 -130.18868775 113.16749895 -133 106 C-133.26941406 105.32195312 -133.53882813 104.64390625 -133.81640625 103.9453125 C-137.30466359 92.96827891 -135.80905103 79.40106212 -130.62890625 69.3359375 C-126.81192224 62.83699589 -122.03540541 57.73752042 -116.62890625 52.56640625 C-114.39002265 50.3807502 -112.41034629 48.17058446 -110.4375 45.75 C-102.29055988 36.42289566 -92.52633738 33.19050404 -81.05712891 29.66113281 C-77.63496458 28.56129647 -74.34060842 27.18528997 -71.04296875 25.76171875 C-64.51368793 23.32728326 -57.61414578 23.76849323 -50.75 23.75 C-49.49687012 23.74605225 -48.24374023 23.74210449 -46.95263672 23.73803711 C-38.45715063 23.79114074 -30.58677635 24.53180218 -22.3203125 26.44140625 C-17.57246041 27.24016254 -14.49814536 27.05529736 -10.515625 24.25 C-5.56228698 19.33082293 -2.0917862 15.2358122 -2 8 C-2.33 7.34 -2.66 6.68 -3 6 C-7.62 6.33 -12.24 6.66 -17 7 C-18 3 -18 3 -17 1 C-11.2615643 -0.94696926 -5.90692355 -1.79068155 0 0 Z " fill="#B71426" transform="translate(137,3)"/>
<path d="M0 0 C-0.71027344 0.25394531 -1.42054687 0.50789063 -2.15234375 0.76953125 C-3.07144531 1.11371094 -3.99054687 1.45789062 -4.9375 1.8125 C-5.85402344 2.14894531 -6.77054688 2.48539063 -7.71484375 2.83203125 C-10.3340424 3.83409094 -10.3340424 3.83409094 -11 7 C-10.278125 6.71125 -9.55625 6.4225 -8.8125 6.125 C-7.4203125 5.568125 -7.4203125 5.568125 -6 5 C-5.13375 4.608125 -4.2675 4.21625 -3.375 3.8125 C-1 3 -1 3 2 4 C1.67 4.66 1.34 5.32 1 6 C0.26303335 18.25915677 1.42583636 27.24227768 7.9140625 37.859375 C9.11676907 40.23017789 9.58841344 42.38413877 10 45 C10.66 45 11.32 45 12 45 C13.5 46.375 13.5 46.375 15 48 C15.66 48.66 16.32 49.32 17 50 C9.6450086 52.44408524 2.7498635 54.47458553 -5 55 C-5.33 54.01 -5.66 53.02 -6 52 C-6.66 52 -7.32 52 -8 52 C-8.33 51.34 -8.66 50.68 -9 50 C-9.60328125 49.74089844 -10.2065625 49.48179688 -10.828125 49.21484375 C-13.80801765 47.54803329 -14.95860067 45.4448156 -16.75 42.5625 C-17.67039062 41.11037109 -17.67039062 41.11037109 -18.609375 39.62890625 C-20 37 -20 37 -20 34 C-20.66 34 -21.32 34 -22 34 C-23.00109515 30.68929162 -23.10356134 27.69915231 -23.0625 24.25 C-23.05347656 23.26515625 -23.04445313 22.2803125 -23.03515625 21.265625 C-23.02355469 20.51796875 -23.01195313 19.7703125 -23 19 C-22.34 19 -21.68 19 -21 19 C-19.79371992 16.66785852 -18.8345262 14.50357861 -18 12 C-18.66 12 -19.32 12 -20 12 C-20.268125 12.53625 -20.53625 13.0725 -20.8125 13.625 C-22 16 -22 16 -23.625 18.5 C-26.041119 24.6501211 -26.0448261 31.26355069 -23.6875 37.4375 C-23.130625 38.283125 -22.57375 39.12875 -22 40 C-21.2265625 41.3921875 -21.2265625 41.3921875 -20.4375 42.8125 C-19.18553464 45.11634846 -19.18553464 45.11634846 -17 46 C-15.9935725 47.66279327 -14.99414593 49.32983484 -14 51 C-13.4225 51.515625 -12.845 52.03125 -12.25 52.5625 C-11.8375 53.036875 -11.425 53.51125 -11 54 C-11.3125 56.1875 -11.3125 56.1875 -12 58 C-12.99 58 -13.98 58 -15 58 C-15.309375 58.804375 -15.61875 59.60875 -15.9375 60.4375 C-17 63 -17 63 -18 64 C-25.73955898 64.75792291 -30.53434888 63.48622798 -36.875 58.9375 C-37.926875 57.9784375 -37.926875 57.9784375 -39 57 C-39 56.34 -39 55.68 -39 55 C-39.66 55 -40.32 55 -41 55 C-42.31157516 52.37684968 -41.89649988 50.76966564 -41.5625 47.875 C-41.46066406 46.96492188 -41.35882813 46.05484375 -41.25390625 45.1171875 C-41.17011719 44.41851562 -41.08632813 43.71984375 -41 43 C-40.34 43 -39.68 43 -39 43 C-38.87625 42.0925 -38.7525 41.185 -38.625 40.25 C-38.07890323 37.41029677 -37.42736197 35.47409409 -36 33 C-36.66 33 -37.32 33 -38 33 C-38.66 35.31 -39.32 37.62 -40 40 C-40.66 40 -41.32 40 -42 40 C-42.12375 40.53625 -42.2475 41.0725 -42.375 41.625 C-43 44 -43 44 -44.0625 46.5 C-47.16295164 58.07501945 -44.4061426 69.92225799 -38.8125 80.25 C-37.88869912 81.84136502 -36.95624688 83.42791775 -36 85 C-36.165 84.236875 -36.33 83.47375 -36.5 82.6875 C-37 80 -37 80 -37 77 C-37.99730248 74.19642437 -39.10788432 71.45018527 -40.22265625 68.69140625 C-41.02704201 65.90637215 -41.00323891 64.66899407 -40 62 C-39.41734375 62.26554687 -38.8346875 62.53109375 -38.234375 62.8046875 C-32.32256711 65.35159845 -26.86453012 66.67661961 -20.46875 67.41015625 C-18 68 -18 68 -16 71 C-15.90912109 69.93458984 -15.90912109 69.93458984 -15.81640625 68.84765625 C-15.73261719 67.92855469 -15.64882813 67.00945312 -15.5625 66.0625 C-15.48128906 65.14597656 -15.40007813 64.22945313 -15.31640625 63.28515625 C-15 61 -15 61 -14 60 C-12.00041636 59.95919217 -9.99954746 59.95745644 -8 60 C-8.639375 60.556875 -9.27875 61.11375 -9.9375 61.6875 C-12.27716592 64.31076179 -12.67600373 65.54918261 -13 69 C-10.87121266 75.07591385 -6.40977292 80.25087155 -2.35546875 85.15234375 C-1 87 -1 87 -1 89 C-0.1028125 88.71125 0.794375 88.4225 1.71875 88.125 C12.84665763 84.81421756 24.87761068 82.09071802 35.875 87.3125 C38.94471506 89.04506799 39.98921799 89.98382699 42 93 C42.46170489 97.98641282 42.18538905 101.07135351 39 105 C33.81081081 109 33.81081081 109 30 109 C30.495 109.99 30.99 110.98 31.5 112 C33.56295262 116.82007413 33.68707017 121.17537821 32.4375 126.3125 C30.16088882 128.98504356 27.31040847 130.10618971 24 131 C20.0625 131.1875 20.0625 131.1875 17 131 C16.4121875 132.3921875 16.4121875 132.3921875 15.8125 133.8125 C13.80456822 137.34369037 12.72424885 138.47644365 9 140 C4.91146545 140.52035894 2.64944971 140.31809782 -1.0625 138.5 C-9.85133612 131.02013947 -13.31463332 121.40126895 -14.2421875 110.03125 C-14.24855467 108.0192232 -14.14084918 106.00710086 -14 104 C-14.66 103.773125 -15.32 103.54625 -16 103.3125 C-22.28835064 100.56134659 -27.32082165 97.03911514 -32 92 C-32.54398438 91.53335938 -33.08796875 91.06671875 -33.6484375 90.5859375 C-39.47811344 85.41814616 -42.18868775 79.16749895 -45 72 C-45.26941406 71.32195312 -45.53882813 70.64390625 -45.81640625 69.9453125 C-49.30466359 58.96827891 -47.80905103 45.40106212 -42.62890625 35.3359375 C-38.81192224 28.83699589 -34.03540541 23.73752042 -28.62890625 18.56640625 C-26.39002265 16.3807502 -24.41034629 14.17058446 -22.4375 11.75 C-17.55078937 6.02724972 -8.05667311 -2.983953 0 0 Z " fill="#C0272B" transform="translate(49,37)"/>
<path d="M0 0 C1.23331055 0.00128906 2.46662109 0.00257812 3.73730469 0.00390625 C12.94682981 0.10061956 21.52131106 0.98653767 30.4375 3.3125 C30.9325 4.7975 30.9325 4.7975 31.4375 6.3125 C28.1375 6.6425 24.8375 6.9725 21.4375 7.3125 C21.9325 7.8075 21.9325 7.8075 22.4375 8.3125 C22.47830783 10.31208364 22.48004356 12.31295254 22.4375 14.3125 C21.90125 14.003125 21.365 13.69375 20.8125 13.375 C18.0390043 12.13422561 15.43707163 11.7215325 12.4375 11.3125 C12.4375 14.6125 12.4375 17.9125 12.4375 21.3125 C13.695625 21.168125 14.95375 21.02375 16.25 20.875 C17.31154297 20.75318359 17.31154297 20.75318359 18.39453125 20.62890625 C20.63146393 20.34079265 20.63146393 20.34079265 23.4375 19.3125 C23.7675 18.6525 24.0975 17.9925 24.4375 17.3125 C25.0975 17.9725 25.7575 18.6325 26.4375 19.3125 C27.76238113 19.67798445 29.09768514 20.0062566 30.4375 20.3125 C32.1119239 20.9594365 33.78052621 21.62209426 35.4375 22.3125 C29.23139284 27.71781914 22.39277775 31.23241513 14.5625 33.625 C12.14722798 34.36403849 12.14722798 34.36403849 8.8125 35.9375 C5.3097773 37.36453518 2.1759471 37.86388635 -1.5625 38.3125 C-1.8925 38.6425 -2.2225 38.9725 -2.5625 39.3125 C-11.74593732 40.87195162 -21.8594919 41.88851569 -30.55859375 37.96484375 C-34.7134682 34.53889464 -35.02959405 29.41041954 -35.5625 24.3125 C-36.08746921 18.5289409 -35.43028713 13.79912469 -33.5625 8.3125 C-32.9025 8.3125 -32.2425 8.3125 -31.5625 8.3125 C-31.5625 7.6525 -31.5625 6.9925 -31.5625 6.3125 C-30.25553325 5.67601028 -28.94146647 5.05410139 -27.625 4.4375 C-26.89410156 4.08945312 -26.16320312 3.74140625 -25.41015625 3.3828125 C-17.02936917 0.23283217 -8.89405044 -0.03834675 0 0 Z " fill="#EC6B3C" transform="translate(88.5625,31.6875)"/>
<path d="M0 0 C0 0.66 0 1.32 0 2 C0.59167969 2.09796875 1.18335938 2.1959375 1.79296875 2.296875 C6.75215922 3.23531887 10.52028644 4.07129114 14 8 C14.3125 10.75 14.3125 10.75 14 13 C13.34 13 12.68 13 12 13 C12 13.66 12 14.32 12 15 C10.68 15.33 9.36 15.66 8 16 C8 17.32 8 18.64 8 20 C7.01 20.495 7.01 20.495 6 21 C6.65585189 24.60992379 6.65585189 24.60992379 8 28 C8.23828125 30.27734375 8.23828125 30.27734375 8.3125 32.9375 C8.36857422 34.25041016 8.36857422 34.25041016 8.42578125 35.58984375 C8 38 8 38 6.36328125 39.7421875 C3.51540604 41.25791613 1.06443877 41.72906716 -2.125 42.1875 C-3.70667969 42.42533203 -3.70667969 42.42533203 -5.3203125 42.66796875 C-8 43 -8 43 -10 43 C-10.33 44.65 -10.66 46.3 -11 48 C-15.30975168 49.48147714 -18.05937853 48.53766889 -22.1328125 46.984375 C-24.16628906 45.91233297 -25.42413426 44.65599451 -27 43 C-27.66 42.67 -28.32 42.34 -29 42 C-32.49485171 35.70926692 -33.50719248 29.48153998 -33.82421875 22.37109375 C-33.73722307 20.04514571 -33.73722307 20.04514571 -35 19 C-35.04063832 17.33382885 -35.042721 15.66611905 -35 14 C-36.2684375 13.8453125 -36.2684375 13.8453125 -37.5625 13.6875 C-41.49579278 12.90084144 -44.51329584 12.01156009 -48 10 C-49.4375 6.3125 -49.4375 6.3125 -50 3 C-48.22891052 4.12459671 -46.45813764 5.24969203 -44.6875 6.375 C-43.70136719 7.00148437 -42.71523438 7.62796875 -41.69921875 8.2734375 C-39.78712071 9.49651613 -37.8885966 10.7409356 -36 12 C-33.37468476 12.16713569 -33.37468476 12.16713569 -31 12 C-30.525625 10.88625 -30.05125 9.7725 -29.5625 8.625 C-28.74693537 6.73289006 -27.92143645 4.84287291 -27 3 C-21.555 3.495 -21.555 3.495 -16 4 C-16 3.34 -16 2.68 -16 2 C-10.60539047 -0.27141454 -5.73842251 -0.20413361 0 0 Z " fill="#B60A1D" transform="translate(72,124)"/>
<path d="M0 0 C0.94875 0.04125 1.8975 0.0825 2.875 0.125 C-0.11146769 2.11597846 -2.72187262 3.06624926 -6.125 4.125 C-6.125 4.785 -6.125 5.445 -6.125 6.125 C-6.785 6.125 -7.445 6.125 -8.125 6.125 C-10.42728156 19.65090418 -8.71878192 31.02756298 -1.0390625 42.65234375 C1.14063475 45.46815673 3.09652253 47.877881 5.875 50.125 C15.69015296 50.96486622 25.26070511 46.2985128 33.875 42.125 C34.85210937 41.66351563 35.82921875 41.20203125 36.8359375 40.7265625 C41.59098101 38.43359137 41.59098101 38.43359137 45.9765625 35.5234375 C48.24362213 33.85346354 50.1139164 33.50848383 52.875 33.125 C52.875 33.785 52.875 34.445 52.875 35.125 C51.22428604 36.15111949 49.55529994 37.14808143 47.875 38.125 C47.33875 38.681875 46.8025 39.23875 46.25 39.8125 C44.875 41.125 44.875 41.125 41.875 41.125 C41.875 41.785 41.875 42.445 41.875 43.125 C38.50402617 44.62321059 36.67057881 45.125 32.875 45.125 C32.545 46.775 32.215 48.425 31.875 50.125 C35.50020605 49.98403487 39.12510841 49.83631601 42.75 49.6875 C43.76320313 49.64818359 44.77640625 49.60886719 45.8203125 49.56835938 C51.47185159 49.33287858 57.06339781 48.93565052 62.68701172 48.33227539 C65.46506646 48.06910105 68.2108102 48.02674116 71 48.0625 C71.93070313 48.07152344 72.86140625 48.08054688 73.8203125 48.08984375 C74.49835938 48.10144531 75.17640625 48.11304688 75.875 48.125 C72.89667352 51.89961515 69.53584799 51.97446806 64.97436523 52.55395508 C52.44863066 53.9075777 38.82160917 54.287843 26.32421875 52.58984375 C20.99864348 51.87212749 16.04272192 52.61774777 10.875 54.125 C10.875 54.455 10.875 54.785 10.875 55.125 C9.823125 55.269375 8.77125 55.41375 7.6875 55.5625 C4.72039451 56.00026966 1.80705634 56.50304866 -1.125 57.125 C-1.125 59.765 -1.125 62.405 -1.125 65.125 C-2.115 65.62 -2.115 65.62 -3.125 66.125 C-3.125 63.815 -3.125 61.505 -3.125 59.125 C-11.61807438 60.2893731 -19.84842182 61.88808698 -28.125 64.125 C-28.3415625 65.98125 -28.3415625 65.98125 -28.5625 67.875 C-28.91188502 70.69004499 -29.32879366 73.3951497 -30.125 76.125 C-30.29515625 75.49722656 -30.4653125 74.86945313 -30.640625 74.22265625 C-32.05901494 71.74566692 -32.05901494 71.74566692 -35.609375 71.18359375 C-37.02858477 70.95901842 -38.45076953 70.75265263 -39.875 70.5625 C-45.19593977 69.8072384 -49.36428572 68.82722933 -54.125 66.125 C-53.08732949 72.19232052 -51.78538099 77.5623852 -49.125 83.125 C-49.785 83.125 -50.445 83.125 -51.125 83.125 C-50.465 85.105 -49.805 87.085 -49.125 89.125 C-56.87796054 82.47960525 -59.60422622 71.74283299 -60.37890625 61.8984375 C-60.47735053 56.60869822 -60.32939487 52.02365526 -58.125 47.125 C-57.795 46.361875 -57.465 45.59875 -57.125 44.8125 C-56.125 43.125 -56.125 43.125 -54.125 42.125 C-53.83625 41.135 -53.5475 40.145 -53.25 39.125 C-52.87875 38.135 -52.5075 37.145 -52.125 36.125 C-50.0546875 35.4375 -50.0546875 35.4375 -48.125 35.125 C-48.40214844 35.66769531 -48.67929687 36.21039063 -48.96484375 36.76953125 C-49.50818359 37.84267578 -49.50818359 37.84267578 -50.0625 38.9375 C-50.42214844 39.64519531 -50.78179687 40.35289063 -51.15234375 41.08203125 C-52.23230516 43.24310285 -52.23230516 43.24310285 -53.125 46.125 C-53.785 46.125 -54.445 46.125 -55.125 46.125 C-55.125 50.085 -55.125 54.045 -55.125 58.125 C-54.465 58.125 -53.805 58.125 -53.125 58.125 C-53.125 58.785 -53.125 59.445 -53.125 60.125 C-52.5475 60.393125 -51.97 60.66125 -51.375 60.9375 C-49.125 62.125 -49.125 62.125 -47.0625 63.6875 C-43.16724927 66.57752474 -39.10779509 66.50863336 -34.43359375 66.48828125 C-31.85471769 66.34923964 -31.85471769 66.34923964 -30.1875 63.6875 C-29.6615625 62.4190625 -29.6615625 62.4190625 -29.125 61.125 C-27.64 60.63 -27.64 60.63 -26.125 60.125 C-26.54006146 57.21956975 -27.06425054 56.18574946 -29.1875 54.0625 C-29.826875 53.423125 -30.46625 52.78375 -31.125 52.125 C-31.125 51.135 -31.125 50.145 -31.125 49.125 C-32.61 48.63 -32.61 48.63 -34.125 48.125 C-35.4765625 46.12890625 -35.4765625 46.12890625 -36.75 43.6875 C-37.17539062 42.88441406 -37.60078125 42.08132812 -38.0390625 41.25390625 C-40.75738109 35.92482844 -40.56912425 31.07782326 -40.125 25.125 C-38.8125 21.625 -38.8125 21.625 -37.125 19.125 C-36.609375 18.34125 -36.09375 17.5575 -35.5625 16.75 C-35.088125 16.21375 -34.61375 15.6775 -34.125 15.125 C-33.465 15.125 -32.805 15.125 -32.125 15.125 C-32.73777612 18.08675123 -33.37872522 19.50558783 -35.125 22.125 C-35.785 22.125 -36.445 22.125 -37.125 22.125 C-36.795 27.075 -36.465 32.025 -36.125 37.125 C-35.465 37.125 -34.805 37.125 -34.125 37.125 C-33.733125 37.95 -33.34125 38.775 -32.9375 39.625 C-31.57441869 42.25715701 -30.19466139 44.8258505 -28.6875 47.375 C-28.29691406 48.04015625 -27.90632813 48.7053125 -27.50390625 49.390625 C-25.91391329 51.39050283 -24.46234782 52.15234571 -22.125 53.125 C-22.125 53.785 -22.125 54.445 -22.125 55.125 C-21.465 55.125 -20.805 55.125 -20.125 55.125 C-19.795 55.785 -19.465 56.445 -19.125 57.125 C-12.16839229 56.55478625 -5.81072695 55.11197306 0.875 53.125 C0.38 52.67125 -0.115 52.2175 -0.625 51.75 C-2.125 50.125 -2.125 50.125 -2.125 48.125 C-2.785 48.125 -3.445 48.125 -4.125 48.125 C-4.38152344 47.4340625 -4.63804688 46.743125 -4.90234375 46.03125 C-6.77085954 41.58979394 -9.20815028 37.47806313 -11.56640625 33.28125 C-14.24346518 27.86003794 -14.28239103 22.90284804 -14.25 16.9375 C-14.25580078 15.85178711 -14.25580078 15.85178711 -14.26171875 14.74414062 C-14.25173611 9.37847222 -14.25173611 9.37847222 -13.125 7.125 C-13.72828125 7.3415625 -14.3315625 7.558125 -14.953125 7.78125 C-16.15195313 8.19890625 -16.15195313 8.19890625 -17.375 8.625 C-18.16390625 8.9034375 -18.9528125 9.181875 -19.765625 9.46875 C-22.125 10.125 -22.125 10.125 -26.125 10.125 C-25.15018802 7.46642186 -24.56486637 6.3457388 -21.9921875 5.0546875 C-17.48958715 3.59471627 -12.89339644 3.23710513 -8.20703125 2.6875 C-4.41754286 1.99588235 -3.87887703 0.15515508 0 0 Z " fill="#B90C1F" transform="translate(63.125,33.875)"/>
<path d="M0 0 C-0.33 0.66 -0.66 1.32 -1 2 C-1.73696665 14.25915677 -0.57416364 23.24227768 5.9140625 33.859375 C7.11676907 36.23017789 7.58841344 38.38413877 8 41 C8.66 41 9.32 41 10 41 C11.5 42.375 11.5 42.375 13 44 C13.66 44.66 14.32 45.32 15 46 C7.6450086 48.44408524 0.7498635 50.47458553 -7 51 C-7.33 50.01 -7.66 49.02 -8 48 C-8.66 48 -9.32 48 -10 48 C-10.33 47.34 -10.66 46.68 -11 46 C-11.60328125 45.74089844 -12.2065625 45.48179688 -12.828125 45.21484375 C-15.80801765 43.54803329 -16.95860067 41.4448156 -18.75 38.5625 C-19.36359375 37.59441406 -19.9771875 36.62632813 -20.609375 35.62890625 C-22 33 -22 33 -22 30 C-22.66 30 -23.32 30 -24 30 C-25.00109515 26.68929162 -25.10356134 23.69915231 -25.0625 20.25 C-25.05347656 19.26515625 -25.04445313 18.2803125 -25.03515625 17.265625 C-25.02355469 16.51796875 -25.01195313 15.7703125 -25 15 C-24.34 15 -23.68 15 -23 15 C-22.7525 14.401875 -22.505 13.80375 -22.25 13.1875 C-20.81927475 10.68373081 -19.4308418 9.51927612 -17 8 C-16.34 8 -15.68 8 -15 8 C-15 7.34 -15 6.68 -15 6 C-13.13671875 4.52734375 -13.13671875 4.52734375 -10.6875 2.9375 C-9.88699219 2.41027344 -9.08648437 1.88304687 -8.26171875 1.33984375 C-4.97692852 -0.60606825 -3.70493402 -1.23497801 0 0 Z " fill="#ED6C3C" transform="translate(51,41)"/>
<path d="M0 0 C7.27694547 -0.3969243 13.38922442 0.62217218 19.5625 4.6875 C21.25656797 7.41273978 21.81644883 9.69532902 21.625 12.9140625 C20.2973781 17.34500061 16.76719852 19.61488515 13 22 C0.3178804 28.74308665 -14.47354655 31.12035418 -28.71875 31.1328125 C-29.42092651 31.13376923 -30.12310303 31.13472595 -30.84655762 31.13571167 C-32.3187672 31.1363867 -33.79097988 31.13458017 -35.26318359 31.13037109 C-37.49453527 31.12501312 -39.72568571 31.13033927 -41.95703125 31.13671875 C-43.39843794 31.13605785 -44.8398445 31.13477644 -46.28125 31.1328125 C-47.57095703 31.13168457 -48.86066406 31.13055664 -50.18945312 31.12939453 C-54.19785631 30.9932814 -58.03068643 30.55484436 -62 30 C-61.26716797 31.01513672 -61.26716797 31.01513672 -60.51953125 32.05078125 C-58.66069042 35.65855715 -58.63217773 38.14897402 -58.6875 42.1875 C-58.69136719 43.41855469 -58.69523437 44.64960937 -58.69921875 45.91796875 C-59 49 -59 49 -61 51 C-61.99 51 -62.98 51 -64 51 C-64.02578125 50.03578125 -64.0515625 49.0715625 -64.078125 48.078125 C-64.13484375 46.81484375 -64.1915625 45.5515625 -64.25 44.25 C-64.29640625 42.99703125 -64.3428125 41.7440625 -64.390625 40.453125 C-65.07150347 36.59481364 -65.98126522 35.39083795 -69 33 C-68.94779297 34.19496094 -68.94779297 34.19496094 -68.89453125 35.4140625 C-68.60337304 46.81082675 -68.60337304 46.81082675 -72 51 C-75.1875 51.875 -75.1875 51.875 -78 52 C-77.125 45.25 -77.125 45.25 -76 43 C-75.9310528 41.62657169 -75.91532292 40.24997898 -75.9375 38.875 C-75.958125 37.59625 -75.97875 36.3175 -76 35 C-78.475 35.495 -78.475 35.495 -81 36 C-81.09796875 36.66386719 -81.1959375 37.32773438 -81.296875 38.01171875 C-82.43576647 44.73706926 -83.8028616 48.68207466 -89.5 52.8125 C-92 54 -92 54 -96 54 C-96.495 52.515 -96.495 52.515 -97 51 C-96.27683594 50.36384766 -96.27683594 50.36384766 -95.5390625 49.71484375 C-91.17895744 45.66617476 -89.07892072 42.87412392 -88 37 C-89.33804688 37.34224609 -89.33804688 37.34224609 -90.703125 37.69140625 C-91.87359375 37.97886719 -93.0440625 38.26632813 -94.25 38.5625 C-95.41015625 38.85253906 -96.5703125 39.14257812 -97.765625 39.44140625 C-100.72090983 39.95179964 -102.24434101 40.02996165 -105 39 C-98.43345544 36.6969113 -92.96327638 35.66306727 -86 36 C-85.67 37.98 -85.34 39.96 -85 42 C-84.67 39.36 -84.34 36.72 -84 34 C-83.30132812 33.80664062 -82.60265625 33.61328125 -81.8828125 33.4140625 C-80.97273438 33.15367188 -80.06265625 32.89328125 -79.125 32.625 C-78.22007813 32.36976562 -77.31515625 32.11453125 -76.3828125 31.8515625 C-73.85430274 31.1395685 -73.85430274 31.1395685 -72 29 C-70.05236307 28.9669892 -68.1033489 28.94356235 -66.15625 29 C-63.73357276 29.05419303 -63.73357276 29.05419303 -60.3125 28.4375 C-57.03747867 28.00495001 -55.18298281 28.35633274 -52 29 C-47.71088601 29.22187644 -43.41933562 29.19012579 -39.125 29.1875 C-37.31237671 29.18737915 -37.31237671 29.18737915 -35.46313477 29.18725586 C-21.39594545 29.51879018 -21.39594545 29.51879018 -8 26 C-9.45821481 25.97207674 -10.91660243 25.95320582 -12.375 25.9375 C-13.59316406 25.92009766 -13.59316406 25.92009766 -14.8359375 25.90234375 C-17.46621591 25.98352518 -19.98309517 26.20524865 -22.59375 26.5 C-28.44470076 27.11568828 -34.24732951 27.11110669 -40.125 27.0625 C-41.7028125 27.05573242 -41.7028125 27.05573242 -43.3125 27.04882812 C-45.87506221 27.03718011 -48.43749877 27.02082553 -51 27 C-50.67 25.35 -50.34 23.7 -50 22 C-47.03 21.34 -44.06 20.68 -41 20 C-41 19.34 -41 18.68 -41 18 C-37.58168085 15.4606772 -35.24223102 14.6363802 -31 15 C-33.49493496 17.81631641 -36.26562818 19.40955981 -39.5625 21.1875 C-40.53316406 21.71730469 -41.50382812 22.24710938 -42.50390625 22.79296875 C-45 24 -45 24 -47 24 C-47 24.66 -47 25.32 -47 26 C-15.20887631 24.45618273 -15.20887631 24.45618273 14 13 C14.01284403 11.03891707 14.01284403 11.03891707 13 9 C9.99909914 7.62718219 9.99909914 7.62718219 6.4375 6.75 C5.23996094 6.41484375 4.04242188 6.0796875 2.80859375 5.734375 C1.88175781 5.49203125 0.95492187 5.2496875 0 5 C0 3.35 0 1.7 0 0 Z " fill="#BD2A2F" transform="translate(146,57)"/>
<path d="M0 0 C2.97 0.99 5.94 1.98 9 3 C9 3.66 9 4.32 9 5 C8.34 5 7.68 5 7 5 C7 5.66 7 6.32 7 7 C5.20963542 7.94401042 3.41927083 8.88802083 1.62890625 9.83203125 C-0.32267987 10.99019799 -0.32267987 10.99019799 -1 14 C3.95 14.495 3.95 14.495 9 15 C9 15.99 9 16.98 9 18 C8.01 18 7.02 18 6 18 C5.9071875 18.8353125 5.9071875 18.8353125 5.8125 19.6875 C3.7083141 25.6763368 -3.54808479 30.72296083 -9 33.5625 C-9.99 34.036875 -10.98 34.51125 -12 35 C-12.94875 35.66 -13.8975 36.32 -14.875 37 C-17.77536646 38.85623453 -20.51201952 40.03384444 -23.7578125 41.1484375 C-26.29797654 42.11316879 -28.63980328 43.33317911 -31.0625 44.5625 C-37.82334749 47.72391038 -44.63172861 48.33377303 -52 49 C-52.12890625 48.35675781 -52.2578125 47.71351562 -52.390625 47.05078125 C-52.59171875 46.37402344 -52.7928125 45.69726562 -53 45 C-53.5775 44.731875 -54.155 44.46375 -54.75 44.1875 C-58.16724573 42.38395364 -60.17082798 39.36597638 -62 36 C-62 35.01 -62 34.02 -62 33 C-60.9275 33.33 -59.855 33.66 -58.75 34 C-50.71630021 36.00842495 -42.10318966 35.37601334 -34 34 C-33.67 33.67 -33.34 33.34 -33 33 C-31.67450913 32.67454465 -30.33889065 32.38998877 -29 32.125 C-20.50833031 30.31308322 -12.29932748 27.54087308 -4.875 23 C-4.02679688 22.484375 -3.17859375 21.96875 -2.3046875 21.4375 C-0.5169104 20.32241191 1.24684645 19.16876903 3 18 C-0.37097383 16.50178941 -2.20442119 16 -6 16 C-6.495 15.01 -6.495 15.01 -7 14 C-7.495 14.495 -7.99 14.99 -8.5 15.5 C-12.11630158 17.66978095 -14.82231616 17.20888419 -19 17 C-20.125 10.375 -20.125 10.375 -19 7 C-13.375 6.75 -13.375 6.75 -10 9 C-9.67 7.35 -9.34 5.7 -9 4 C-9.66 3.67 -10.32 3.34 -11 3 C-10 2 -10 2 -7.71484375 1.90234375 C-6.79832031 1.91394531 -5.88179687 1.92554688 -4.9375 1.9375 C-4.01839844 1.94652344 -3.09929687 1.95554688 -2.15234375 1.96484375 C-1.44207031 1.97644531 -0.73179688 1.98804688 0 2 C0 1.34 0 0.68 0 0 Z " fill="#E03E0F" transform="translate(120,36)"/>
<path d="M0 0 C0.65484375 0.26554687 1.3096875 0.53109375 1.984375 0.8046875 C7.15530513 2.80586667 11.78402707 4.1826223 17.3125 4.75 C21.77936971 5.39225717 23.82165593 6.18291689 26.5625 9.8125 C27.41294807 11.18554225 28.23067231 12.57991484 29 14 C29.495 14.825 29.99 15.65 30.5 16.5 C30.995 17.325 31.49 18.15 32 19 C32.78310547 19.92619141 32.78310547 19.92619141 33.58203125 20.87109375 C35.24804035 22.86052674 36.73319 24.73401591 38 27 C37.41604606 31.25452159 35.3172254 34.41883347 33 38 C25.58532613 38 20.39993096 33.80201473 15 29 C14.67 28.01 14.34 27.02 14 26 C13.34 25.67 12.68 25.34 12 25 C12 24.34 12 23.68 12 23 C10.02 23.33 8.04 23.66 6 24 C4 18.375 4 18.375 4 15 C3.04070823 12.19492809 1.95648154 9.45143727 0.875 6.69140625 C0 4 0 4 0 0 Z " fill="#B5091D" transform="translate(8,99)"/>
<path d="M0 0 C0.24234375 0.86882813 0.4846875 1.73765625 0.734375 2.6328125 C3.21177029 11.39936887 3.21177029 11.39936887 8 19 C8.66 19.33 9.32 19.66 10 20 C11.0064275 21.66279327 12.00585407 23.32983484 13 25 C13.5775 25.515625 14.155 26.03125 14.75 26.5625 C15.1625 27.036875 15.575 27.51125 16 28 C15.6875 30.1875 15.6875 30.1875 15 32 C14.01 32 13.02 32 12 32 C11.690625 32.804375 11.38125 33.60875 11.0625 34.4375 C10 37 10 37 9 38 C1.26044102 38.75792291 -3.53434888 37.48622798 -9.875 32.9375 C-10.57625 32.298125 -11.2775 31.65875 -12 31 C-12 30.34 -12 29.68 -12 29 C-12.66 29 -13.32 29 -14 29 C-15.31157516 26.37684968 -14.89649988 24.76966564 -14.5625 21.875 C-14.40974609 20.50988281 -14.40974609 20.50988281 -14.25390625 19.1171875 C-14.17011719 18.41851562 -14.08632812 17.71984375 -14 17 C-13.34 17 -12.68 17 -12 17 C-11.85884766 15.67935547 -11.85884766 15.67935547 -11.71484375 14.33203125 C-10.93286988 10.68709294 -9.74649316 8.67970685 -7.5625 5.6875 C-6.94503906 4.82511719 -6.32757813 3.96273437 -5.69140625 3.07421875 C-3.80371386 0.75928882 -2.99425834 0 0 0 Z " fill="#EC693B" transform="translate(22,63)"/>
<path d="M0 0 C0.38133299 1.9914056 0.71325582 3.99279077 1 6 C0 7 0 7 -2.5 7.125 C-5 7 -5 7 -6 6 C-6 6.99 -6 7.98 -6 9 C-5.01 9.33 -4.02 9.66 -3 10 C-2.1875 11.875 -2.1875 11.875 -2 14 C-4 17 -4 17 -6.625 17.6875 C-7.40875 17.790625 -8.1925 17.89375 -9 18 C-9.66 16.68 -10.32 15.36 -11 14 C-11.99 14.495 -11.99 14.495 -13 15 C-13.268125 15.94875 -13.53625 16.8975 -13.8125 17.875 C-15.21958207 21.57784756 -16.49681559 22.34059686 -20 24 C-20.33 23.34 -20.66 22.68 -21 22 C-21.66 24.64 -22.32 27.28 -23 30 C-29.875 29.125 -29.875 29.125 -31 28 C-31.66 28.66 -32.32 29.32 -33 30 C-36.10285883 22.4367816 -35.58411908 15.59084981 -33 8 C-32.34 8 -31.68 8 -31 8 C-31 7.34 -31 6.68 -31 6 C-20.4585479 0.86633775 -11.72303155 -0.32614307 0 0 Z " fill="#EC7245" transform="translate(88,32)"/>
<path d="M0 0 C2 2 2 2 2.125 4.625 C2.08375 5.40875 2.0425 6.1925 2 7 C1.34 7 0.68 7 0 7 C0 7.66 0 8.32 0 9 C-1.32 9.33 -2.64 9.66 -4 10 C-4 10.66 -4 11.32 -4 12 C-16.65400441 14.30072808 -27.1557185 12.65311059 -39 8 C-38.690625 7.401875 -38.38125 6.80375 -38.0625 6.1875 C-36.89790296 3.91043228 -36.89790296 3.91043228 -36 1 C-25.44919272 -3.74389681 -10.26352921 -6.17321095 0 0 Z " fill="#E33E0C" transform="translate(84,130)"/>
<path d="M0 0 C2.85232776 2.49578679 3.77940834 4.27519882 4.875 7.875 C5.13005734 14.25143338 2.87633455 19.03344636 -1 24 C-1.66 24 -2.32 24 -3 24 C-3.28875 24.5775 -3.5775 25.155 -3.875 25.75 C-4.91666667 27.83333333 -5.95833333 29.91666667 -7 32 C-11.44470665 31.58845309 -15.43827162 30.93950036 -19.6875 29.5625 C-30.06762679 26.3830017 -40.01593723 25.80867272 -50.8125 25.75 C-51.88636963 25.74073486 -52.96023926 25.73146973 -54.06665039 25.72192383 C-58.71996633 25.74037358 -63.00843458 25.84115353 -67.51171875 27.078125 C-70.89643944 27.97263125 -71.84814344 27.98627762 -75 27 C-66.69597433 24.22918627 -59.09722546 23.52519106 -50.375 23.625 C-49.14894043 23.63007568 -47.92288086 23.63515137 -46.65966797 23.64038086 C-38.29710769 23.75550239 -30.46039036 24.56099812 -22.3203125 26.44140625 C-17.57246041 27.24016254 -14.49814536 27.05529736 -10.515625 24.25 C-5.56228698 19.33082293 -2.0917862 15.2358122 -2 8 C-2.495 7.01 -2.495 7.01 -3 6 C-7.62 6.33 -12.24 6.66 -17 7 C-18 3 -18 3 -17 1 C-11.2615643 -0.94696926 -5.90692355 -1.79068155 0 0 Z " fill="#BC2B2F" transform="translate(137,3)"/>
<path d="M0 0 C0.93457031 0.31582031 1.86914062 0.63164062 2.83203125 0.95703125 C5.95581985 1.85414748 8.89365925 2.2071784 12.13671875 2.38671875 C13.49700195 2.4650293 13.49700195 2.4650293 14.88476562 2.54492188 C16.76405993 2.64052361 18.64448968 2.7158211 20.52539062 2.77148438 C27.21120615 3.20575219 27.21120615 3.20575219 29.51831055 5.52880859 C31.77634653 9.33049637 32.69418125 12.63657498 32 17 C31 18.875 31 18.875 29 20 C21.01121487 20.64425687 16.29507654 18.63577054 10.00390625 13.7890625 C6.81394547 10.94110531 4.18600815 7.67646825 2 4 C2 3.34 2 2.68 2 2 C1.34 2 0.68 2 0 2 C0 1.34 0 0.68 0 0 Z " fill="#EB6B3D" transform="translate(45,143)"/>
<path d="M0 0 C3.44890315 1.72445157 4.532779 5.56140276 6 9 C6.75 12 6.75 12 7 14 C7.66 14 8.32 14 9 14 C10.5 15.375 10.5 15.375 12 17 C12.66 17.66 13.32 18.32 14 19 C6.6450086 21.44408524 -0.2501365 23.47458553 -8 24 C-8.33 23.01 -8.66 22.02 -9 21 C-9.66 21 -10.32 21 -11 21 C-11.33 20.34 -11.66 19.68 -12 19 C-12.928125 18.566875 -12.928125 18.566875 -13.875 18.125 C-16.39827313 16.78914952 -17.49753375 15.403946 -19 13 C-19 12.34 -19 11.68 -19 11 C-17.98679688 11.02320312 -16.97359375 11.04640625 -15.9296875 11.0703125 C-14.57813242 11.0890841 -13.22656931 11.1072828 -11.875 11.125 C-11.20984375 11.14175781 -10.5446875 11.15851563 -9.859375 11.17578125 C-5.50483944 11.21847278 -2.04399886 10.59996217 2 9 C1.34 6.03 0.68 3.06 0 0 Z " fill="#E23E0C" transform="translate(52,68)"/>
<path d="M0 0 C2.97 0.99 5.94 1.98 9 3 C9 3.66 9 4.32 9 5 C8.34 5 7.68 5 7 5 C7 5.66 7 6.32 7 7 C5.20963542 7.94401042 3.41927083 8.88802083 1.62890625 9.83203125 C-0.32267987 10.99019799 -0.32267987 10.99019799 -1 14 C2.3 14.33 5.6 14.66 9 15 C9 15.99 9 16.98 9 18 C-2.82976715 16.92039018 -2.82976715 16.92039018 -6 16 C-6.33 15.34 -6.66 14.68 -7 14 C-7.495 14.495 -7.99 14.99 -8.5 15.5 C-12.11630158 17.66978095 -14.82231616 17.20888419 -19 17 C-20.125 10.375 -20.125 10.375 -19 7 C-13.375 6.75 -13.375 6.75 -10 9 C-9.67 7.35 -9.34 5.7 -9 4 C-9.66 3.67 -10.32 3.34 -11 3 C-10 2 -10 2 -7.71484375 1.90234375 C-6.34005859 1.91974609 -6.34005859 1.91974609 -4.9375 1.9375 C-4.01839844 1.94652344 -3.09929687 1.95554688 -2.15234375 1.96484375 C-1.44207031 1.97644531 -0.73179688 1.98804688 0 2 C0 1.34 0 0.68 0 0 Z " fill="#EA653B" transform="translate(120,36)"/>
<path d="M0 0 C4.42066456 1.85667911 8.72934283 3.81259023 13 6 C13 6.99 13 7.98 13 9 C13.61875 9.061875 14.2375 9.12375 14.875 9.1875 C17 10 17 10 18.25 12.125 C19.13162656 15.50456848 19.13640927 18.52156374 19 22 C10.04197698 21.65809072 10.04197698 21.65809072 6.625 19.5 C2.57147739 13.26381136 0.53850603 7.40445787 0 0 Z " fill="#ED673C" transform="translate(8,99)"/>
<path d="M0 0 C3.31010611 3.13118145 5.72485076 6.07019678 8 10 C8.5775 10.515625 9.155 11.03125 9.75 11.5625 C10.1625 12.036875 10.575 12.51125 11 13 C10.6875 15.1875 10.6875 15.1875 10 17 C9.01 17 8.02 17 7 17 C6.690625 17.804375 6.38125 18.60875 6.0625 19.4375 C5 22 5 22 4 23 C-1.95833136 23.58349008 -6.92101242 23.46857688 -12 20 C-12.99 18.68 -13.98 17.36 -15 16 C-11.37 16 -7.74 16 -4 16 C-3.34 14.68 -2.68 13.36 -2 12 C-1.62875 11.4225 -1.2575 10.845 -0.875 10.25 C0.46160487 6.81301605 0.12238184 3.67145533 0 0 Z " fill="#DF3A10" transform="translate(27,78)"/>
<path d="M0 0 C1.65 0 3.3 0 5 0 C5 0.66 5 1.32 5 2 C7.31 2 9.62 2 12 2 C12 2.33 12 2.66 12 3 C10.35 3 8.7 3 7 3 C7.43424115 6.38708101 8.12796701 9.11917712 10 12 C12.82268629 13.33710557 12.82268629 13.33710557 16.0625 14.125 C19.3046875 15.00390625 19.3046875 15.00390625 22 16 C23.85908893 19.37390213 23.91398206 21.8768042 24.203125 25.65234375 C24.28046875 26.59207031 24.3578125 27.53179687 24.4375 28.5 C24.50710937 29.4384375 24.57671875 30.376875 24.6484375 31.34375 C25.13050112 34.9860085 26.41932177 37.70119326 28 41 C28 41.99 28 42.98 28 44 C29.65 44.66 31.3 45.32 33 46 C33 46.66 33 47.32 33 48 C39.44798846 49.94002992 39.44798846 49.94002992 46 49 C46.33 47.68 46.66 46.36 47 45 C47.66 45 48.32 45 49 45 C47.375 50.75 47.375 50.75 44 53 C39.27657003 53.8547159 35.88920475 53.53010283 31.75 51.0625 C23.99031212 43.34580208 20.85054672 31.916674 20.8125 21.1875 C20.874375 20.135625 20.93625 19.08375 21 18 C20.3709375 17.85304687 19.741875 17.70609375 19.09375 17.5546875 C10.84580077 15.39332731 3.55325387 11.52276727 -1 4 C-0.75 1.6875 -0.75 1.6875 0 0 Z " fill="#AB1029" transform="translate(15,122)"/>
<path d="M0 0 C0.66 0 1.32 0 2 0 C3.33203125 1.79296875 3.33203125 1.79296875 4.8125 4.1875 C9.17193481 11.02888097 9.17193481 11.02888097 16 15 C16 15.66 16 16.32 16 17 C16.99 17.33 17.98 17.66 19 18 C18.125 22.875 18.125 22.875 17 24 C9.84690554 24.58631922 9.84690554 24.58631922 6.5625 22.3125 C4.87415352 19.81374721 4.33083605 17.97752446 4 15 C3.34 15 2.68 15 2 15 C0.53329887 9.77487721 -0.22577402 5.4185766 0 0 Z " fill="#E33D0F" transform="translate(41,147)"/>
<path d="M0 0 C0.66 0.33 1.32 0.66 2 1 C0.48632812 3.58789062 0.48632812 3.58789062 -1.02734375 6.17578125 C-2.13901247 8.13819555 -2.13901247 8.13819555 -3 11 C-3.66 11 -4.32 11 -5 11 C-5 14.96 -5 18.92 -5 23 C-4.34 23 -3.68 23 -3 23 C-3 23.66 -3 24.32 -3 25 C-3.66 25 -4.32 25 -5 25 C-4.01 26.98 -3.02 28.96 -2 31 C-2.66 31 -3.32 31 -4 31 C-2.96232949 37.06732052 -1.66038099 42.4373852 1 48 C0.34 48 -0.32 48 -1 48 C-0.34 49.98 0.32 51.96 1 54 C-6.75296054 47.35460525 -9.47922622 36.61783299 -10.25390625 26.7734375 C-10.35235053 21.48369822 -10.20439487 16.89865526 -8 12 C-7.67 11.236875 -7.34 10.47375 -7 9.6875 C-6 8 -6 8 -4 7 C-3.67 6.01 -3.34 5.02 -3 4 C-2.67 3.01 -2.34 2.02 -2 1 C-1.34 0.67 -0.68 0.34 0 0 Z " fill="#A9122A" transform="translate(13,69)"/>
<path d="M0 0 C1.98 0 3.96 0 6 0 C5.360625 0.556875 4.72125 1.11375 4.0625 1.6875 C1.72283408 4.31076179 1.32399627 5.54918261 1 9 C3.12878734 15.07591385 7.59022708 20.25087155 11.64453125 25.15234375 C13 27 13 27 13 29 C13.8971875 28.71125 14.794375 28.4225 15.71875 28.125 C26.19109063 25.00926229 38.65463386 22.04532273 49 27 C49 27.33 49 27.66 49 28 C48.36497559 27.99476318 47.72995117 27.98952637 47.07568359 27.98413086 C44.17546595 27.96323744 41.2752642 27.95030066 38.375 27.9375 C37.37597656 27.92912109 36.37695312 27.92074219 35.34765625 27.91210938 C30.44979725 27.8958913 25.81343801 27.95681463 21 29 C21 29.66 21 30.32 21 31 C13.02729529 31.78163772 13.02729529 31.78163772 9.125 28.8125 C7.2020093 26.26736525 5.58058613 23.76602573 4 21 C3.12588122 19.89513558 2.2508118 18.79102287 1.375 17.6875 C-1.4552417 13.75423358 -1.9231524 10.84139909 -2 6 C-1.0625 2.5 -1.0625 2.5 0 0 Z " fill="#B1202F" transform="translate(35,97)"/>
<path d="M0 0 C0.93070313 0.00902344 1.86140625 0.01804687 2.8203125 0.02734375 C3.49835938 0.03894531 4.17640625 0.05054687 4.875 0.0625 C1.89565859 3.83840143 -1.46896342 3.9137455 -6.03222656 4.49145508 C-20.87526352 6.09160184 -36.30533582 5.68281809 -51.125 4.0625 C-48.24100583 1.17850583 -46.09733991 1.76086193 -42.0625 1.68359375 C-41.00361572 1.65810204 -41.00361572 1.65810204 -39.92333984 1.63209534 C-37.65731868 1.57891136 -35.39131032 1.5387424 -33.125 1.5 C-30.1665377 1.44141976 -27.20824869 1.37709302 -24.25 1.30859375 C-23.17889481 1.28464287 -23.17889481 1.28464287 -22.08615112 1.26020813 C-17.40358218 1.1399074 -12.7928407 0.80899341 -8.14160156 0.27416992 C-5.42190633 -0.0112993 -2.73260203 -0.03503336 0 0 Z " fill="#A90C2A" transform="translate(134.125,81.9375)"/>
<path d="M0 0 C0 0.99 0 1.98 0 3 C0.99 3.33 1.98 3.66 3 4 C4.75 6.375 4.75 6.375 6 9 C5.67 9.99 5.34 10.98 5 12 C-0.24039523 12.47357646 -2.66019956 11.34006737 -6.8125 8.1875 C-7.76769531 7.47980469 -8.72289062 6.77210938 -9.70703125 6.04296875 C-12 4 -12 4 -13 1 C-8.59085217 -0.10228696 -4.51617599 -0.07654536 0 0 Z " fill="#EE673E" transform="translate(35,124)"/>
<path d="M0 0 C0 3.75832067 -0.93607224 4.3698162 -3.4375 7.0625 C-6.02679823 9.8184536 -6.02679823 9.8184536 -8 13 C-6.6078125 12.071875 -6.6078125 12.071875 -5.1875 11.125 C-3.125 9.75 -1.0625 8.375 1 7 C-0.33333333 9.66666667 -1.66666667 12.33333333 -3 15 C-7.44470665 14.58845309 -11.43827162 13.93950036 -15.6875 12.5625 C-26.06762679 9.3830017 -36.01593723 8.80867272 -46.8125 8.75 C-47.88636963 8.74073486 -48.96023926 8.73146973 -50.06665039 8.72192383 C-54.71996633 8.74037358 -59.00843458 8.84115353 -63.51171875 10.078125 C-66.89643944 10.97263125 -67.84814344 10.98627762 -71 10 C-62.69597433 7.22918627 -55.09722546 6.52519106 -46.375 6.625 C-45.14894043 6.63007568 -43.92288086 6.63515137 -42.65966797 6.64038086 C-34.29710769 6.75550239 -26.46039036 7.56099812 -18.3203125 9.44140625 C-14.73983914 10.04376824 -12.46974243 10.0617791 -9 9 C-6.37655241 6.97748654 -6.37655241 6.97748654 -4.125 4.4375 C-3.34382813 3.61121094 -2.56265625 2.78492188 -1.7578125 1.93359375 C-1.17773438 1.29550781 -0.59765625 0.65742188 0 0 Z " fill="#C12F30" transform="translate(133,20)"/>
<path d="M0 0 C14.45626072 -0.11766724 14.45626072 -0.11766724 17.953125 2.4140625 C20.0851567 6.02578785 20.65004498 9.91400298 20 14 C19 15.875 19 15.875 17 17 C10.49470709 17.5246204 6.48003858 16.65335905 1 13 C1 12.34 1 11.68 1 11 C2.65 11.33 4.3 11.66 6 12 C6 12.66 6 13.32 6 14 C8.93443402 13.73343428 8.93443402 13.73343428 12 13 C14.5547002 9.76887492 14.5547002 9.76887492 14 4 C9.38 3.01 4.76 2.02 0 1 C0 0.67 0 0.34 0 0 Z " fill="#EF6642" transform="translate(57,146)"/>
<path d="M0 0 C1.22589844 0.01353516 1.22589844 0.01353516 2.4765625 0.02734375 C3.41628906 0.04474609 3.41628906 0.04474609 4.375 0.0625 C4.375 1.0525 4.375 2.0425 4.375 3.0625 C5.365 3.3925 6.355 3.7225 7.375 4.0625 C8.86020725 7.03291449 8.5455822 9.76014447 8.5625 13.0625 C8.57667969 14.320625 8.59085938 15.57875 8.60546875 16.875 C8.375 20.0625 8.375 20.0625 6.375 22.0625 C5.385 22.0625 4.395 22.0625 3.375 22.0625 C3.33761719 21.10988281 3.30023438 20.15726563 3.26171875 19.17578125 C3.19597656 17.92152344 3.13023438 16.66726562 3.0625 15.375 C3.00449219 14.13363281 2.94648437 12.89226562 2.88671875 11.61328125 C2.35940835 7.95431063 1.6367631 5.95820144 -0.625 3.0625 C-1.615 2.7325 -2.605 2.4025 -3.625 2.0625 C-3.955 2.7225 -4.285 3.3825 -4.625 4.0625 C-4.625 3.4025 -4.625 2.7425 -4.625 2.0625 C-5.285 1.7325 -5.945 1.4025 -6.625 1.0625 C-4.21954362 -0.14022819 -2.67503047 -0.03821472 0 0 Z " fill="#A9112D" transform="translate(78.625,85.9375)"/>
<path d="M0 0 C0 0.33 0 0.66 0 1 C-0.83249268 0.99476318 -1.66498535 0.98952637 -2.52270508 0.98413086 C-5.61449935 0.96707775 -8.70626964 0.95454435 -11.7980957 0.94506836 C-13.79314768 0.93757271 -15.78817786 0.92486655 -17.78320312 0.91210938 C-19.03681641 0.90888672 -20.29042969 0.90566406 -21.58203125 0.90234375 C-22.73936768 0.89710693 -23.8967041 0.89187012 -25.08911133 0.88647461 C-28.06604411 0.86700539 -28.06604411 0.86700539 -31 2 C-30.67 2.66 -30.34 3.32 -30 4 C-31.03640625 4.12117188 -32.0728125 4.24234375 -33.140625 4.3671875 C-34.51046438 4.53607181 -35.88025349 4.70536411 -37.25 4.875 C-37.93191406 4.95363281 -38.61382812 5.03226563 -39.31640625 5.11328125 C-42.9752729 5.57507995 -45.75960678 6.29742051 -49 8 C-51.578125 8.4140625 -51.578125 8.4140625 -54.25 8.625 C-55.14203125 8.69976562 -56.0340625 8.77453125 -56.953125 8.8515625 C-57.62859375 8.90054688 -58.3040625 8.94953125 -59 9 C-58.01 8.67 -57.02 8.34 -56 8 C-56 7.34 -56 6.68 -56 6 C-38.53186817 -1.02290198 -18.67166345 -4.01959422 0 0 Z " fill="#AB172D" transform="translate(105,29)"/>
<path d="M0 0 C2.52230627 1.26115314 2.88890155 2.37533425 4.125 4.875 C4.65480469 5.92300781 4.65480469 5.92300781 5.1953125 6.9921875 C6 9 6 9 6 12 C3.03 11.505 3.03 11.505 0 11 C-0.28875 11.639375 -0.5775 12.27875 -0.875 12.9375 C-2 15 -2 15 -4 16 C-4.33 15.34 -4.66 14.68 -5 14 C-7.35599235 13.53248212 -7.35599235 13.53248212 -10.0625 13.375 C-10.98160156 13.30023438 -11.90070312 13.22546875 -12.84765625 13.1484375 C-13.55792969 13.09945312 -14.26820312 13.05046875 -15 13 C-15 13.99 -15 14.98 -15 16 C-13.68 16 -12.36 16 -11 16 C-8.75 17.875 -8.75 17.875 -7 20 C-7 20.66 -7 21.32 -7 22 C-0.565 21.505 -0.565 21.505 6 21 C6 21.33 6 21.66 6 22 C4.44033408 22.36644578 2.87707349 22.71760862 1.3125 23.0625 C0.00732422 23.35833984 0.00732422 23.35833984 -1.32421875 23.66015625 C-4.16001276 24.02032279 -6.24789982 23.70909969 -9 23 C-9 22.34 -9 21.68 -9 21 C-9.66 21 -10.32 21 -11 21 C-11.33 20.34 -11.66 19.68 -12 19 C-12.928125 18.566875 -12.928125 18.566875 -13.875 18.125 C-16.39827313 16.78914952 -17.49753375 15.403946 -19 13 C-19 12.34 -19 11.68 -19 11 C-17.98679688 11.02320312 -16.97359375 11.04640625 -15.9296875 11.0703125 C-14.57813242 11.0890841 -13.22656931 11.1072828 -11.875 11.125 C-11.20984375 11.14175781 -10.5446875 11.15851563 -9.859375 11.17578125 C-5.50483944 11.21847278 -2.04399886 10.59996217 2 9 C1.34 6.03 0.68 3.06 0 0 Z " fill="#DE421E" transform="translate(52,68)"/>
<path d="M0 0 C0 0.99 0 1.98 0 3 C-1.5778125 3.2165625 -1.5778125 3.2165625 -3.1875 3.4375 C-6.15460549 3.87526966 -9.06794366 4.37804866 -12 5 C-12 7.64 -12 10.28 -12 13 C-12.99 13.495 -12.99 13.495 -14 14 C-14 11.69 -14 9.38 -14 7 C-21.10377673 8.01791923 -28.07511433 9.09905099 -35 11 C-33.6875 9.5 -33.6875 9.5 -32 8 C-31.01 8 -30.02 8 -29 8 C-29 7.34 -29 6.68 -29 6 C-28.43490723 5.85377197 -27.86981445 5.70754395 -27.28759766 5.55688477 C-24.73279251 4.89440135 -22.17889227 4.22849346 -19.625 3.5625 C-18.73554687 3.33240234 -17.84609375 3.10230469 -16.9296875 2.86523438 C-16.07890625 2.64287109 -15.228125 2.42050781 -14.3515625 2.19140625 C-13.56604004 1.98717041 -12.78051758 1.78293457 -11.97119141 1.57250977 C-7.51602438 0.27855799 -4.80524906 -0.07750402 0 0 Z " fill="#B10823" transform="translate(74,86)"/>
<path d="M0 0 C11.69032572 0.67574137 11.69032572 0.67574137 14.75390625 3.7734375 C16.59537751 7.42919964 17 9.84720675 17 14 C13.535 15.485 13.535 15.485 10 17 C8.03398058 10.18446602 8.03398058 10.18446602 7.5625 7.625 C7.376875 7.08875 7.19125 6.5525 7 6 C6.01 5.67 5.02 5.34 4 5 C4 4.01 4 3.02 4 2 C2.68 1.67 1.36 1.34 0 1 C0 0.67 0 0.34 0 0 Z " fill="#DD381D" transform="translate(17,103)"/>
<path d="M0 0 C2.31 0.66 4.62 1.32 7 2 C7.33 3.32 7.66 4.64 8 6 C10.31 6 12.62 6 15 6 C15.625 7.8125 15.625 7.8125 16 10 C14 13 14 13 11.375 13.6875 C10.59125 13.790625 9.8075 13.89375 9 14 C8.34 11.69 7.68 9.38 7 7 C5.5459375 7.0309375 5.5459375 7.0309375 4.0625 7.0625 C1 7 1 7 0 6 C-0.04080783 4.00041636 -0.04254356 1.99954746 0 0 Z " fill="#E8784B" transform="translate(70,36)"/>
<path d="M0 0 C0.38133299 1.9914056 0.71325582 3.99279077 1 6 C0 7 0 7 -2.5 7.125 C-5 7 -5 7 -6 6 C-6.33 7.32 -6.66 8.64 -7 10 C-7.99 10 -8.98 10 -10 10 C-10.165 9.360625 -10.33 8.72125 -10.5 8.0625 C-11.77378478 5.8328496 -11.77378478 5.8328496 -13.87890625 5.58203125 C-14.59949219 5.51371094 -15.32007812 5.44539063 -16.0625 5.375 C-17.361875 5.25125 -18.66125 5.1275 -20 5 C-20.33 4.34 -20.66 3.68 -21 3 C-19.20991533 2.77848451 -17.41781838 2.57317787 -15.625 2.375 C-14.62726563 2.25898437 -13.62953125 2.14296875 -12.6015625 2.0234375 C-11.74304688 2.01570313 -10.88453125 2.00796875 -10 2 C-9.34 2.66 -8.68 3.32 -8 4 C-7.34 3.01 -6.68 2.02 -6 1 C-3 0 -3 0 0 0 Z " fill="#ED6E40" transform="translate(88,32)"/>
<path d="M0 0 C5.625 -0.25 5.625 -0.25 9 2 C9.47730962 5.72301503 9.1387261 6.79191085 7 10 C3.375 10.1875 3.375 10.1875 0 10 C-1.125 3.375 -1.125 3.375 0 0 Z " fill="#B80D24" transform="translate(101,43)"/>
<path d="M0 0 C-0.99 0.33 -1.98 0.66 -3 1 C-4.20882096 3.00016466 -4.20882096 3.00016466 -5 5 C-5.66 4.67 -6.32 4.34 -7 4 C-10.69418201 2.768606 -13.2056261 3.35567236 -17 4 C-16.34 4.33 -15.68 4.66 -15 5 C-15 6.32 -15 7.64 -15 9 C-15.99 8.67 -16.98 8.34 -18 8 C-17.34 8 -16.68 8 -16 8 C-16 7.34 -16 6.68 -16 6 C-16.99 6 -17.98 6 -19 6 C-19.33 6.66 -19.66 7.32 -20 8 C-22.31 7.67 -24.62 7.34 -27 7 C-27 7.66 -27 8.32 -27 9 C-27.99 9.33 -28.98 9.66 -30 10 C-30 9.34 -30 8.68 -30 8 C-29.34 8 -28.68 8 -28 8 C-28 7.34 -28 6.68 -28 6 C-18.58471716 1.41477952 -10.47644789 -0.39368698 0 0 Z " fill="#EC6540" transform="translate(85,32)"/>
<path d="M0 0 C1.97499151 2.16729331 3.38614486 4.53438799 5 7 C3.68 9.64 2.36 12.28 1 15 C-0.65 15 -2.3 15 -4 15 C-2.68 14.34 -1.36 13.68 0 13 C-1.27624119 9.36526922 -1.27624119 9.36526922 -3.625 6.375 C-4.07875 5.92125 -4.5325 5.4675 -5 5 C-5 4.01 -5 3.02 -5 2 C-6.65 2 -8.3 2 -10 2 C-10 1.67 -10 1.34 -10 1 C-3.65637955 -1.45094427 -3.65637955 -1.45094427 0 0 Z " fill="#E04117" transform="translate(40,122)"/>
<path d="M0 0 C-0.71027344 0.25394531 -1.42054687 0.50789063 -2.15234375 0.76953125 C-3.53099609 1.28580078 -3.53099609 1.28580078 -4.9375 1.8125 C-6.31228516 2.31716797 -6.31228516 2.31716797 -7.71484375 2.83203125 C-10.3340424 3.83409094 -10.3340424 3.83409094 -11 7 C-11 7.99 -11 8.98 -11 10 C-11.66 10 -12.32 10 -13 10 C-13 10.66 -13 11.32 -13 12 C-15.5 13.625 -15.5 13.625 -18 15 C-18 14.01 -18 13.02 -18 12 C-19.175625 12.7115625 -19.175625 12.7115625 -20.375 13.4375 C-21.88948678 14.33898023 -23.4235897 15.21179485 -25 16 C-21.62686077 8.11177335 -13.63201934 3.42966514 -6.26171875 -0.28515625 C-3.71363708 -1.09050849 -2.47805749 -0.90162733 0 0 Z " fill="#BC2A2E" transform="translate(49,37)"/>
<path d="M0 0 C0.33 0.66 0.66 1.32 1 2 C0.01 2.495 0.01 2.495 -1 3 C-1 3.66 -1 4.32 -1 5 C2.3 5 5.6 5 9 5 C6.05474665 14.74199185 6.05474665 14.74199185 0.9375 17.875 C-0.5165625 18.431875 -0.5165625 18.431875 -2 19 C-2.66 18.67 -3.32 18.34 -4 18 C-3.38125 17.79375 -2.7625 17.5875 -2.125 17.375 C0.84653645 15.45224112 1.13024659 13.33405473 2 10 C2.99 10 3.98 10 5 10 C5 9.01 5 8.02 5 7 C3.72125 7.020625 2.4425 7.04125 1.125 7.0625 C-2.75 7.125 -2.75 7.125 -5 6 C-4.75 4.125 -4.75 4.125 -4 2 C-1.9375 0.75 -1.9375 0.75 0 0 Z " fill="#BA0F1C" transform="translate(124,44)"/>
<path d="M0 0 C1.65 0 3.3 0 5 0 C5 0.66 5 1.32 5 2 C7.31 2 9.62 2 12 2 C12 2.33 12 2.66 12 3 C10.35 3 8.7 3 7 3 C8.50856309 9.34299215 8.50856309 9.34299215 12.6875 14.0625 C13.450625 14.371875 14.21375 14.68125 15 15 C14.01 15.495 14.01 15.495 13 16 C8.79064984 13.35691967 5.44470165 10.63090174 2 7 C1.38125 6.484375 0.7625 5.96875 0.125 5.4375 C-0.24625 4.963125 -0.6175 4.48875 -1 4 C-0.6875 1.8125 -0.6875 1.8125 0 0 Z " fill="#BA1D2B" transform="translate(15,122)"/>
<path d="M0 0 C5.7043775 -0.31690986 10.10216182 0.42849248 15.5234375 2.19921875 C18.97686738 3.31586406 22.47240078 4.15076315 26 5 C26 5.66 26 6.32 26 7 C20.69027217 7.18309406 17.03279267 6.81180536 12 5 C9.39798924 4.44012462 6.78971996 3.94478199 4.171875 3.46484375 C2 3 2 3 0 2 C0 1.34 0 0.68 0 0 Z " fill="#AF0B22" transform="translate(104,30)"/>
<path d="M0 0 C-0.33 0.66 -0.66 1.32 -1 2 C-1.12541286 4.57533857 -1.18517756 7.11191813 -1.1875 9.6875 C-1.19974609 10.38294922 -1.21199219 11.07839844 -1.22460938 11.79492188 C-1.23792169 16.54741695 -0.31598277 20.407942 1 25 C0.625 27.4375 0.625 27.4375 0 29 C-2.74341572 20.973914 -4.65954675 13.49430869 -5 5 C-4.34 5 -3.68 5 -3 5 C-3 4.34 -3 3.68 -3 3 C-4.65 3.33 -6.3 3.66 -8 4 C-8 3.01 -8 2.02 -8 1 C-3.375 -1.125 -3.375 -1.125 0 0 Z " fill="#EA5C43" transform="translate(51,41)"/>
<path d="M0 0 C0.66 0.33 1.32 0.66 2 1 C0.73347137 2.46207343 -0.53838918 3.91952926 -1.8125 5.375 C-2.52019531 6.18710938 -3.22789063 6.99921875 -3.95703125 7.8359375 C-6.68281907 10.7232921 -8.15678486 11.96693274 -12.1875 12.125 C-13.115625 12.08375 -14.04375 12.0425 -15 12 C-14.67 11.01 -14.34 10.02 -14 9 C-12.68 9 -11.36 9 -10 9 C-9.95875 8.4225 -9.9175 7.845 -9.875 7.25 C-8.54500609 3.83001567 -6.09911668 2.79748768 -3 1 C-2.01 0.67 -1.02 0.34 0 0 Z " fill="#B71B28" transform="translate(126,60)"/>
<path d="M0 0 C2.64 0.66 5.28 1.32 8 2 C9.39551673 6.18655018 10.11806114 9.90067174 10.375 14.3125 C10.74020102 19.39722194 12.12145551 23.3996886 14.2578125 28.00390625 C14.50273438 28.66261719 14.74765625 29.32132813 15 30 C14.67 30.66 14.34 31.32 14 32 C8.41870268 23.72428328 6.41750488 13.90241698 7 4 C6.030625 3.71125 5.06125 3.4225 4.0625 3.125 C1 2 1 2 0 0 Z " fill="#A51530" transform="translate(29,136)"/>
<path d="M0 0 C2.95278539 3.85145921 4.17613713 6.04996759 4.3125 10.9375 C4.34988281 11.81277344 4.38726562 12.68804687 4.42578125 13.58984375 C4 16 4 16 2.16796875 17.75390625 C-1.95524159 20.12382354 -5.32721615 20.08816573 -10 20 C-10 19.67 -10 19.34 -10 19 C-7.03 18.34 -4.06 17.68 -1 17 C-1 16.01 -1 15.02 -1 14 C-0.34 13.67 0.32 13.34 1 13 C1.04241723 10.66705225 1.04092937 8.33297433 1 6 C0.67 5.67 0.34 5.34 0 5 C-0.04063832 3.33382885 -0.042721 1.66611905 0 0 Z " fill="#AA0D29" transform="translate(76,146)"/>
<path d="M0 0 C8.415 1.98 8.415 1.98 17 4 C16.67 4.66 16.34 5.32 16 6 C14.02 6 12.04 6 10 6 C9.34 7.32 8.68 8.64 8 10 C3.2 6.55384615 3.2 6.55384615 2.1875 3.75 C2.125625 3.1725 2.06375 2.595 2 2 C1.34 2 0.68 2 0 2 C0 1.34 0 0.68 0 0 Z " fill="#F06545" transform="translate(45,143)"/>
<path d="M0 0 C1.48046875 1.05859375 1.48046875 1.05859375 3 3 C3.36328125 6.28515625 3.36328125 6.28515625 3.3125 10.0625 C3.30863281 11.31160156 3.30476563 12.56070313 3.30078125 13.84765625 C3 17 3 17 1 19 C0.01 19 -0.98 19 -2 19 C-2 14.38 -2 9.76 -2 5 C-1.67 5 -1.34 5 -1 5 C-0.67 7.31 -0.34 9.62 0 12 C1.31372255 10.9110339 1.31372255 10.9110339 1.125 8.25 C1.01407566 5.3659672 0.65915423 2.80140547 0 0 Z " fill="#B0232E" transform="translate(84,89)"/>
<path d="M0 0 C0.66 0.33 1.32 0.66 2 1 C2.37078652 6.56179775 2.37078652 6.56179775 0.625 8.625 C0.08875 9.07875 -0.4475 9.5325 -1 10 C-1.309375 10.70125 -1.61875 11.4025 -1.9375 12.125 C-3 14 -3 14 -5.125 14.75 C-6.053125 14.87375 -6.053125 14.87375 -7 15 C-6.67 14.01 -6.34 13.02 -6 12 C-7.32 11.67 -8.64 11.34 -10 11 C-9.38125 10.731875 -8.7625 10.46375 -8.125 10.1875 C-5.7004767 9.04443152 -5.7004767 9.04443152 -4 6 C-3.34 6 -2.68 6 -2 6 C-1.67 4.68 -1.34 3.36 -1 2 C-1 3.32 -1 4.64 -1 6 C-0.34 6 0.32 6 1 6 C0.67 4.02 0.34 2.04 0 0 Z " fill="#A7182F" transform="translate(164,64)"/>
<path d="M0 0 C0.66 0 1.32 0 2 0 C3.17929261 6.26588 3.35768165 10.44245796 0 16 C-2.1875 16.9375 -2.1875 16.9375 -4 17 C-3.58578731 14.51472384 -3.22429589 12.4065363 -2 10.1875 C-0.48730941 6.87848933 -0.36116775 3.61167752 0 0 Z " fill="#A21530" transform="translate(73,91)"/>
<path d="M0 0 C0.50692692 1.5811292 1.00526443 3.16501383 1.5 4.75 C1.7784375 5.63171875 2.056875 6.5134375 2.34375 7.421875 C3 10 3 10 3 14 C1.68 13.34 0.36 12.68 -1 12 C-1 9.69 -1 7.38 -1 5 C-4.11785113 5.64644661 -4.11785113 5.64644661 -5 8 C-5.66 8 -6.32 8 -7 8 C-7 8.99 -7 9.98 -7 11 C-7.99 10.67 -8.98 10.34 -10 10 C-9.04737966 8.51714758 -8.08771595 7.03881799 -7.125 5.5625 C-6.32449219 4.32693359 -6.32449219 4.32693359 -5.5078125 3.06640625 C-3.76184001 0.67360975 -2.96932398 0 0 0 Z " fill="#E95A41" transform="translate(22,63)"/>
<path d="M0 0 C0.99 0.33 1.98 0.66 3 1 C1.78968842 7.53568252 -1.86315859 11.17469257 -7 15 C-7.66 15 -8.32 15 -9 15 C-7.72608979 10.6687053 -5.63158651 8.43276951 -2.33984375 5.52734375 C-0.764754 3.73183328 -0.40543737 2.32751084 0 0 Z " fill="#A7132F" transform="translate(134,18)"/>
<path d="M0 0 C2.5625 2 2.5625 2 4 4 C3.34 4 2.68 4 2 4 C1.67 4.66 1.34 5.32 1 6 C0.67 5.34 0.34 4.68 0 4 C-7.05651252 3.85024761 -7.05651252 3.85024761 -14 5 C-13.67 3.68 -13.34 2.36 -13 1 C-8.67214109 -0.20983329 -4.46657222 -0.63105699 0 0 Z " fill="#A40F2C" transform="translate(135,4)"/>
<path d="M0 0 C2.4375 1.375 2.4375 1.375 3.22265625 3.6796875 C3.59489887 8.34964036 1.00557091 11.62792028 -1.5625 15.375 C-3.14280251 17.2193962 -4.73880145 18.75972414 -6.5625 20.375 C-7.2225 20.045 -7.8825 19.715 -8.5625 19.375 C-7.964375 18.83875 -7.36625 18.3025 -6.75 17.75 C-2.73777975 13.39387516 -0.83143115 7.77721702 1.4375 2.375 C-0.5425 2.375 -2.5225 2.375 -4.5625 2.375 C-4.5625 1.715 -4.5625 1.055 -4.5625 0.375 C-2.5625 -0.625 -2.5625 -0.625 0 0 Z " fill="#BE2E30" transform="translate(131.5625,45.625)"/>
<path d="M0 0 C3.65316671 1.24976756 4.78065836 1.67098753 7 5 C7.125 7.6875 7.125 7.6875 7 10 C5.35 10.66 3.7 11.32 2 12 C0.70756464 7.8803623 -0.26252625 4.33168317 0 0 Z " fill="#DF410F" transform="translate(25,108)"/>
<path d="M0 0 C0.99 0 1.98 0 3 0 C3.33 1.65 3.66 3.3 4 5 C5.32 5 6.64 5 8 5 C10.25 6.875 10.25 6.875 12 9 C12 9.66 12 10.32 12 11 C18.435 10.505 18.435 10.505 25 10 C25 10.33 25 10.66 25 11 C23.44033408 11.36644578 21.87707349 11.71760862 20.3125 12.0625 C19.44238281 12.25972656 18.57226562 12.45695312 17.67578125 12.66015625 C14.83998724 13.02032279 12.75210018 12.70909969 10 12 C10 11.34 10 10.68 10 10 C9.34 10 8.68 10 8 10 C7.67 9.34 7.34 8.68 7 8 C6.38125 7.71125 5.7625 7.4225 5.125 7.125 C2.60172687 5.78914952 1.50246625 4.403946 0 2 C0 1.34 0 0.68 0 0 Z " fill="#D4281A" transform="translate(33,79)"/>
<path d="M0 0 C1.27617188 0.02320312 2.55234375 0.04640625 3.8671875 0.0703125 C5.78917969 0.09738281 5.78917969 0.09738281 7.75 0.125 C9.23113281 0.15980469 9.23113281 0.15980469 10.7421875 0.1953125 C10.7421875 0.5253125 10.7421875 0.8553125 10.7421875 1.1953125 C18.0021875 1.5253125 25.2621875 1.8553125 32.7421875 2.1953125 C32.7421875 2.5253125 32.7421875 2.8553125 32.7421875 3.1953125 C28.47136902 3.22472897 24.20057716 3.24224965 19.9296875 3.2578125 C18.73408203 3.26619141 17.53847656 3.27457031 16.30664062 3.28320312 C9.05711191 3.30295661 1.94680099 3.01324315 -5.2578125 2.1953125 C-3.2578125 0.1953125 -3.2578125 0.1953125 0 0 Z " fill="#A41631" transform="translate(88.2578125,83.8046875)"/>
<path d="M0 0 C3.65316671 1.24976756 4.78065836 1.67098753 7 5 C7.46531409 10.02539212 6.97760844 12.90578839 4 17 C2.82218942 13.31934195 3 9.8355919 3 6 C2.67 5.01 2.34 4.02 2 3 C1.01 2.67 0.02 2.34 -1 2 C-0.67 1.34 -0.34 0.68 0 0 Z " fill="#B6252F" transform="translate(84,125)"/>
<path d="M0 0 C0.66 0.33 1.32 0.66 2 1 C0.48632812 3.58789062 0.48632812 3.58789062 -1.02734375 6.17578125 C-2.13901247 8.13819555 -2.13901247 8.13819555 -3 11 C-3.66 11 -4.32 11 -5 11 C-5.12375 11.804375 -5.2475 12.60875 -5.375 13.4375 C-6.11554163 17.65858729 -7.04401126 21.82335017 -8 26 C-8.97451359 22.83466264 -9.02313245 20.28619234 -8.6875 17 C-8.60886719 16.154375 -8.53023437 15.30875 -8.44921875 14.4375 C-7.98785858 11.93411957 -7.33568431 10.16024033 -6 8 C-5.34 7.67 -4.68 7.34 -4 7 C-3.67 6.01 -3.34 5.02 -3 4 C-2.67 3.01 -2.34 2.02 -2 1 C-1.34 0.67 -0.68 0.34 0 0 Z " fill="#AF0720" transform="translate(13,69)"/>
<path d="M0 0 C0.66 0 1.32 0 2 0 C1.38722388 2.96175123 0.74627478 4.38058783 -1 7 C-1.66 7 -2.32 7 -3 7 C-3 11.29 -3 15.58 -3 20 C-3.66 20.33 -4.32 20.66 -5 21 C-6.72650346 17.54699308 -6.36360591 13.78277726 -6 10 C-4.52142271 6.26835256 -2.6662184 3.01398601 0 0 Z " fill="#B3091D" transform="translate(29,49)"/>
<path d="M0 0 C0.66 0 1.32 0 2 0 C2.33 0.99 2.66 1.98 3 3 C6.3 3.66 9.6 4.32 13 5 C13 5.99 13 6.98 13 8 C2.44191344 7.03644647 2.44191344 7.03644647 -2 6 C-1.33333333 4 -0.66666667 2 0 0 Z " fill="#E7593F" transform="translate(116,46)"/>
<path d="M0 0 C-0.5859375 6.15234375 -0.5859375 6.15234375 -1 8 C-1.99 8.495 -1.99 8.495 -3 9 C-6 7 -6 7 -6.6875 3.875 C-6.790625 2.92625 -6.89375 1.9775 -7 1 C-4.53721199 -0.231394 -2.7204945 -0.07159196 0 0 Z " fill="#E87B4E" transform="translate(63,40)"/>
<path d="M0 0 C0 0.33 0 0.66 0 1 C-1.04800781 1.03738281 -2.09601563 1.07476562 -3.17578125 1.11328125 C-4.55472305 1.17894515 -5.93362771 1.24539235 -7.3125 1.3125 C-8.34793945 1.34633789 -8.34793945 1.34633789 -9.40429688 1.38085938 C-13.42998401 1.5585374 -13.42998401 1.5585374 -16.85546875 3.48046875 C-17.23316406 3.98191406 -17.61085938 4.48335937 -18 5 C-18.99 5.495 -18.99 5.495 -20 6 C-20 5.34 -20 4.68 -20 4 C-23.3 4.66 -26.6 5.32 -30 6 C-30 5.34 -30 4.68 -30 4 C-19.63804547 0.37331591 -10.85582374 -0.50754501 0 0 Z " fill="#DF341B" transform="translate(78,127)"/>
<path d="M0 0 C14.45626072 -0.11766724 14.45626072 -0.11766724 17.953125 2.4140625 C20.10896179 6.06611437 20.40396202 9.85938934 20 14 C18.79371992 11.66785852 17.8345262 9.50357861 17 7 C14.4382953 3.3596828 11.00380946 3.11999999 6.8125 2.3125 C4.90404297 1.93544922 4.90404297 1.93544922 2.95703125 1.55078125 C1.98121094 1.36902344 1.00539062 1.18726563 0 1 C0 0.67 0 0.34 0 0 Z " fill="#DE473B" transform="translate(57,146)"/>
<path d="M0 0 C1 3 1 3 0.3125 5.125 C-1 7 -1 7 -3.125 7.75 C-4.053125 7.87375 -4.053125 7.87375 -5 8 C-5.66 10.31 -6.32 12.62 -7 15 C-7.66 15 -8.32 15 -9 15 C-9.33 16.32 -9.66 17.64 -10 19 C-10.33 18.34 -10.66 17.68 -11 17 C-8.56525309 10.37409671 -4.77825652 5.11162326 0 0 Z " fill="#A6112C" transform="translate(16,62)"/>
<path d="M0 0 C0.66 0 1.32 0 2 0 C3.6875 2.375 3.6875 2.375 5 5 C4.67 5.66 4.34 6.32 4 7 C3.67 7 3.34 7 3 7 C3.350625 8.0725 3.70125 9.145 4.0625 10.25 C5.23076923 14.92307692 5.23076923 14.92307692 4 18 C4 17.01 4 16.02 4 15 C3.34 15 2.68 15 2 15 C0.53329887 9.77487721 -0.22577402 5.4185766 0 0 Z " fill="#DC311D" transform="translate(41,147)"/>
<path d="M0 0 C0.66 0 1.32 0 2 0 C2 1.65 2 3.3 2 5 C0.35 5.33 -1.3 5.66 -3 6 C-2.48041715 10.37934119 -1.94324258 14.68803391 -1 19 C-1.66 19 -2.32 19 -3 19 C-4.00109515 15.68929162 -4.10356134 12.69915231 -4.0625 9.25 C-4.05347656 8.26515625 -4.04445313 7.2803125 -4.03515625 6.265625 C-4.02355469 5.51796875 -4.01195313 4.7703125 -4 4 C-3.34 4 -2.68 4 -2 4 C-1.34 2.68 -0.68 1.36 0 0 Z " fill="#E5553E" transform="translate(30,52)"/>
<path d="M0 0 C2.84375 0.7109375 2.84375 0.7109375 5.6875 1.421875 C6.450625 1.61265625 7.21375 1.8034375 8 2 C9.5 2.375 11 2.75 12.5 3.125 C13.655 3.41375 14.81 3.7025 16 4 C15.67 4.66 15.34 5.32 15 6 C13.35 6 11.7 6 10 6 C10.33 6.66 10.66 7.32 11 8 C4.84765625 7.4140625 4.84765625 7.4140625 3 7 C2.67 6.34 2.34 5.68 2 5 C4.97 5.495 4.97 5.495 8 6 C7.67 5.34 7.34 4.68 7 4 C4.6859378 3.26924352 2.35171131 2.59861742 0 2 C0 1.34 0 0.68 0 0 Z " fill="#C3191F" transform="translate(45,138)"/>
<path d="M0 0 C2.97 0.495 2.97 0.495 6 1 C6 2.65 6 4.3 6 6 C4.34385343 6.38218767 2.67542976 6.71395102 1 7 C0 6 0 6 -0.0625 2.9375 C-0.041875 1.968125 -0.02125 0.99875 0 0 Z " fill="#F1976C" transform="translate(70,36)"/>
<path d="M0 0 C1.98 0.495 1.98 0.495 4 1 C4 1.99 4 2.98 4 4 C5.32 4.33 6.64 4.66 8 5 C7.34 5 6.68 5 6 5 C6 5.66 6 6.32 6 7 C6.66 7 7.32 7 8 7 C7.67 7.66 7.34 8.32 7 9 C5.0625 8.1875 5.0625 8.1875 3 7 C2.67 6.01 2.34 5.02 2 4 C1.01 4 0.02 4 -1 4 C-0.67 2.68 -0.34 1.36 0 0 Z " fill="#BC1027" transform="translate(39,138)"/>
<path d="M0 0 C2 3.75 2 3.75 2 6 C2.66 6 3.32 6 4 6 C4 6.66 4 7.32 4 8 C3.34 8 2.68 8 2 8 C2.99 9.98 3.98 11.96 5 14 C3.68 14.33 2.36 14.66 1 15 C-0.66251802 9.42567486 -1.18609365 5.6932495 0 0 Z " fill="#C11926" transform="translate(6,86)"/>
<path d="M0 0 C2.97 0.495 2.97 0.495 6 1 C3.09472388 3.90527612 -0.21099025 3.71264319 -4.125 4.125 C-4.87910156 4.21136719 -5.63320313 4.29773438 -6.41015625 4.38671875 C-8.27257127 4.59889261 -10.13618931 4.80045763 -12 5 C-12 4.34 -12 3.68 -12 3 C-8.04 2.34 -4.08 1.68 0 1 C0 0.67 0 0.34 0 0 Z " fill="#E33A1B" transform="translate(60,85)"/>
<path d="M0 0 C-0.66 0 -1.32 0 -2 0 C-2 0.66 -2 1.32 -2 2 C4.27 2 10.54 2 17 2 C17 2.33 17 2.66 17 3 C9.41 3 1.82 3 -6 3 C-6 2.01 -6 1.02 -6 0 C-3 -1 -3 -1 0 0 Z " fill="#BC2C30" transform="translate(101,81)"/>
<path d="M0 0 C1.4800841 0.11362262 2.95910074 0.24122908 4.4375 0.375 C5.26121094 0.44460937 6.08492188 0.51421875 6.93359375 0.5859375 C7.95646484 0.79089844 7.95646484 0.79089844 9 1 C9.33 1.66 9.66 2.32 10 3 C7.36 2.67 4.72 2.34 2 2 C2 5.3 2 8.6 2 12 C1.01 11.34 0.02 10.68 -1 10 C-1.328125 8.125 -1.328125 8.125 -1.25 6 C-1.22679688 4.948125 -1.22679688 4.948125 -1.203125 3.875 C-1 2 -1 2 0 0 Z " fill="#E4513E" transform="translate(99,41)"/>
<path d="M0 0 C0.66 0.99 1.32 1.98 2 3 C3.95385067 3.78988145 3.95385067 3.78988145 6.125 4.1875 C8.043125 4.5896875 8.043125 4.5896875 10 5 C10 5.66 10 6.32 10 7 C10.99 7.33 11.98 7.66 13 8 C7.54520815 7.43179252 3.08940744 6.05362055 -2 4 C-1.34 2.68 -0.68 1.36 0 0 Z " fill="#DE331C" transform="translate(47,134)"/>
<path d="M0 0 C1.7015625 0.4640625 1.7015625 0.4640625 3.4375 0.9375 C7.92461414 2.06931233 12.39707347 2.59511294 17 3 C17 3.33 17 3.66 17 4 C16.08476563 4.06058594 15.16953125 4.12117188 14.2265625 4.18359375 C13.03804687 4.26738281 11.84953125 4.35117188 10.625 4.4375 C8.84996094 4.55931641 8.84996094 4.55931641 7.0390625 4.68359375 C4.08481099 4.81084936 4.08481099 4.81084936 2 6 C0 3 0 3 0 0 Z " fill="#DE421A" transform="translate(58,69)"/>
<path d="M0 0 C1.61725534 3.00950123 2.67582623 5.97103608 3.625 9.25 C3.88539062 10.14203125 4.14578125 11.0340625 4.4140625 11.953125 C4.60742188 12.62859375 4.80078125 13.3040625 5 14 C4.34 14 3.68 14 3 14 C2.67 15.32 2.34 16.64 2 18 C1.01 15.69 0.02 13.38 -1 11 C-0.67 10.67 -0.34 10.34 0 10 C0.07205511 8.31391034 0.08386068 6.62499341 0.0625 4.9375 C0.05347656 4.01839844 0.04445312 3.09929688 0.03515625 2.15234375 C0.02355469 1.44207031 0.01195312 0.73179688 0 0 Z " fill="#BD1723" transform="translate(53,56)"/>
<path d="M0 0 C0.66 0.33 1.32 0.66 2 1 C1.67 1.33 1.34 1.66 1 2 C2.32 2.66 3.64 3.32 5 4 C1.5647952 6.29013653 0.014669 6.17842973 -4 6 C-4 5.67 -4 5.34 -4 5 C-5.65 4.67 -7.3 4.34 -9 4 C-9 3.67 -9 3.34 -9 3 C-6.69 3 -4.38 3 -2 3 C-2 2.34 -2 1.68 -2 1 C-1.34 0.67 -0.68 0.34 0 0 Z " fill="#B91A27" transform="translate(82,139)"/>
<path d="M0 0 C2.56278699 -0.05420701 5.12441483 -0.09377007 7.6875 -0.125 C8.40873047 -0.14175781 9.12996094 -0.15851563 9.87304688 -0.17578125 C14.04876781 -0.21391569 17.2494138 0.1210081 21 2 C21 2.33 21 2.66 21 3 C13.25 3.125 13.25 3.125 11 2 C9.12943209 1.7724985 7.25314042 1.59037189 5.375 1.4375 C4.37210937 1.35371094 3.36921875 1.26992187 2.3359375 1.18359375 C1.56507812 1.12300781 0.79421875 1.06242187 0 1 C0 0.67 0 0.34 0 0 Z " fill="#B9282F" transform="translate(63,122)"/>
<path d="M0 0 C2 2 2 2 2.265625 4.27734375 C2.26046875 5.15519531 2.2553125 6.03304687 2.25 6.9375 C2.25515625 7.81277344 2.2603125 8.68804687 2.265625 9.58984375 C2 12 2 12 0 15 C-2.125 15.6875 -2.125 15.6875 -4 16 C-2 12 -2 12 -0.875 10.25 C0.46160487 6.81301605 0.12238184 3.67145533 0 0 Z " fill="#E24A20" transform="translate(27,78)"/>
<path d="M0 0 C1.43836751 0.11458693 2.87570966 0.24209116 4.3125 0.375 C5.51326172 0.47941406 5.51326172 0.47941406 6.73828125 0.5859375 C9 1 9 1 12 3 C10.5 4.125 10.5 4.125 8 5 C5.2226918 4.57598348 2.70360217 3.81108065 0 3 C0 2.01 0 1.02 0 0 Z " fill="#A01430" transform="translate(147,58)"/>
<path d="M0 0 C-0.625 1.9375 -0.625 1.9375 -2 4 C-5.125 4.75 -5.125 4.75 -8 5 C-8.33 4.01 -8.66 3.02 -9 2 C-5.86501708 0.14223235 -3.62528568 -0.20140476 0 0 Z " fill="#AC1C2D" transform="translate(58,106)"/>
<path d="M0 0 C4.62 0 9.24 0 14 0 C14 0.33 14 0.66 14 1 C12.89140625 1.20496094 11.7828125 1.40992187 10.640625 1.62109375 C9.17707133 1.89316462 7.71353033 2.16530362 6.25 2.4375 C5.52039062 2.57220703 4.79078125 2.70691406 4.0390625 2.84570312 C0.66453325 3.47459267 -2.67634694 4.14322173 -6 5 C-4.6875 3.5 -4.6875 3.5 -3 2 C-2.01 2 -1.02 2 0 2 C0 1.34 0 0.68 0 0 Z " fill="#A70D2A" transform="translate(45,92)"/>
<path d="M0 0 C1.98 0 3.96 0 6 0 C5.67 1.65 5.34 3.3 5 5 C3.35 5 1.7 5 0 5 C0 3.35 0 1.7 0 0 Z " fill="#F4A075" transform="translate(83,34)"/>
<path d="M0 0 C2.475 0.495 2.475 0.495 5 1 C5 1.99 5 2.98 5 4 C5.928125 3.690625 6.85625 3.38125 7.8125 3.0625 C9.875 2.375 11.9375 1.6875 14 1 C13.34 2.32 12.68 3.64 12 5 C4.63366337 5.49108911 4.63366337 5.49108911 1.5 3.0625 C0 1 0 1 0 0 Z " fill="#D92D1E" transform="translate(46,166)"/>
<path d="M0 0 C0.33 0.99 0.66 1.98 1 3 C2.49985609 4.66710346 2.49985609 4.66710346 4 6 C2.35 6.66 0.7 7.32 -1 8 C-1.33 7.34 -1.66 6.68 -2 6 C-4.01669827 4.86649466 -4.01669827 4.86649466 -6 4 C-4.02 3.34 -2.04 2.68 0 2 C0 1.34 0 0.68 0 0 Z " fill="#C3171E" transform="translate(34,115)"/>
<path d="M0 0 C2.6635969 0.35994553 4.58183452 0.71161002 6.8125 2.25 C8.39364795 4.58011277 8.22337696 6.24501755 8 9 C7.34 9 6.68 9 6 9 C5.67 9.66 5.34 10.32 5 11 C5 8.69 5 6.38 5 4 C2.525 3.01 2.525 3.01 0 2 C0 1.34 0 0.68 0 0 Z " fill="#DE341F" transform="translate(78,128)"/>
<path d="M0 0 C4.875 4.625 4.875 4.625 6 8 C5.01 8.99 4.02 9.98 3 11 C2.49632243 9.54293274 1.99717444 8.08429904 1.5 6.625 C1.2215625 5.81289062 0.943125 5.00078125 0.65625 4.1640625 C0 2 0 2 0 0 Z " fill="#DC331B" transform="translate(39,122)"/>
<path d="M0 0 C0.66 0.33 1.32 0.66 2 1 C0.44191344 11.55808656 0.44191344 11.55808656 -4 16 C-4.66 15.67 -5.32 15.34 -6 15 C-5.38125 14.195625 -4.7625 13.39125 -4.125 12.5625 C-1.50185488 8.68359392 -0.76958672 4.55676349 0 0 Z " fill="#CA372F" transform="translate(63,92)"/>
<path d="M0 0 C0.66 0 1.32 0 2 0 C2.33 2.97 2.66 5.94 3 9 C2.01 9.66 1.02 10.32 0 11 C0 7.37 0 3.74 0 0 Z " fill="#A80D2B" transform="translate(73,91)"/>
<path d="M0 0 C0.99 0 1.98 0 3 0 C2.67 2.31 2.34 4.62 2 7 C3.32 7.66 4.64 8.32 6 9 C4.02 9 2.04 9 0 9 C-1.125 2.25 -1.125 2.25 0 0 Z " fill="#B1081D" transform="translate(101,44)"/>
<path d="M0 0 C0.66 0 1.32 0 2 0 C4.29013653 3.4352048 4.17842973 4.985331 4 9 C2 7.875 2 7.875 0 6 C-0.25 2.8125 -0.25 2.8125 0 0 Z " fill="#B50716" transform="translate(56,70)"/>
<path d="M0 0 C-4.33664919 3.11696661 -7.80408388 3.55966813 -13 4 C-9.80252047 -0.13791468 -4.89181987 -1.63060662 0 0 Z " fill="#E33A18" transform="translate(98,76)"/>
<path d="M0 0 C-1.1196986 1.00593243 -2.2459412 2.0045849 -3.375 3 C-4.00148438 3.556875 -4.62796875 4.11375 -5.2734375 4.6875 C-7 6 -7 6 -9 6 C-9 5.34 -9 4.68 -9 4 C-8.01 4 -7.02 4 -6 4 C-6 2.68 -6 1.36 -6 0 C-3.50907189 -1.24546405 -2.58919267 -0.7767578 0 0 Z " fill="#DC311C" transform="translate(121,62)"/>
<path d="M0 0 C2.475 0.495 2.475 0.495 5 1 C5 2.32 5 3.64 5 5 C3.35 5 1.7 5 0 5 C0 3.35 0 1.7 0 0 Z " fill="#F6A57A" transform="translate(68,48)"/>
<path d="M0 0 C-2.25 2.5 -2.25 2.5 -5 5 C-6.32 5 -7.64 5 -9 5 C-7.93411431 2.09303901 -7.29651501 1.15567038 -4.5 -0.3125 C-2 -1 -2 -1 0 0 Z " fill="#A81029" transform="translate(46,39)"/>
<path d="M0 0 C1.48828125 1.05078125 1.48828125 1.05078125 3 3 C3.29296875 6.35546875 3.29296875 6.35546875 3.1875 10.1875 C3.16042969 11.45980469 3.13335937 12.73210937 3.10546875 14.04296875 C3.07066406 15.01878906 3.03585938 15.99460937 3 17 C2.67 17 2.34 17 2 17 C1.93941406 16.19175781 1.87882812 15.38351563 1.81640625 14.55078125 C1.73261719 13.48214844 1.64882812 12.41351563 1.5625 11.3125 C1.48128906 10.25675781 1.40007812 9.20101562 1.31640625 8.11328125 C1.03548319 5.34913703 0.59843148 2.71054259 0 0 Z " fill="#B82B31" transform="translate(84,89)"/>
<path d="M0 0 C0 0.66 0 1.32 0 2 C-2.90567134 4.01782732 -5.51669784 5.35494404 -9 6 C-7.93344655 3.09121786 -7.32878952 2.16439476 -4.5 0.75 C-2 0 -2 0 0 0 Z " fill="#BE0F18" transform="translate(116,67)"/>
<path d="M0 0 C7.75 0.875 7.75 0.875 10 2 C10 2.66 10 3.32 10 4 C8.72125 3.896875 7.4425 3.79375 6.125 3.6875 C5.04605469 3.60048828 5.04605469 3.60048828 3.9453125 3.51171875 C2 3 2 3 0 0 Z " fill="#DF341A" transform="translate(14,96)"/>
<path d="M0 0 C2.64 0 5.28 0 8 0 C7.34 1.98 6.68 3.96 6 6 C4 4 2 2 0 0 Z " fill="#AD0822" transform="translate(125,49)"/>
<path d="M0 0 C0.99 0.33 1.98 0.66 3 1 C2.67 1.66 2.34 2.32 2 3 C1.34 3 0.68 3 0 3 C0 3.66 0 4.32 0 5 C-2.5 6.625 -2.5 6.625 -5 8 C-5 5 -5 5 -2.5 2.3125 C-1.675 1.549375 -0.85 0.78625 0 0 Z " fill="#C11921" transform="translate(36,44)"/>
<path d="M0 0 C1.98 0.495 1.98 0.495 4 1 C3.67 2.32 3.34 3.64 3 5 C1.68 4.67 0.36 4.34 -1 4 C-0.67 2.68 -0.34 1.36 0 0 Z " fill="#F9AB81" transform="translate(80,43)"/>
<path d="M0 0 C0 1.32 0 2.64 0 4 C-1.32 4.33 -2.64 4.66 -4 5 C-3.67 4.01 -3.34 3.02 -3 2 C-4.32 1.67 -5.64 1.34 -7 1 C-4.53721199 -0.231394 -2.7204945 -0.07159196 0 0 Z " fill="#B82331" transform="translate(161,74)"/>
<path d="M0 0 C1.32 0.66 2.64 1.32 4 2 C1.75 4.0625 1.75 4.0625 -1 6 C-3.3125 5.75 -3.3125 5.75 -5 5 C-4.67 4.34 -4.34 3.68 -4 3 C-2.68 3 -1.36 3 0 3 C0 2.01 0 1.02 0 0 Z " fill="#A60E29" transform="translate(116,66)"/>
<path d="M0 0 C2.475 0.495 2.475 0.495 5 1 C5 1.66 5 2.32 5 3 C5.99 3.33 6.98 3.66 8 4 C6.25 4.6875 6.25 4.6875 4 5 C1.75 3.6875 1.75 3.6875 0 2 C0 1.34 0 0.68 0 0 Z " fill="#E95842" transform="translate(58,157)"/>
<path d="M0 0 C1.65 1.65 3.3 3.3 5 5 C4.01 5.33 3.02 5.66 2 6 C1.34 6.66 0.68 7.32 0 8 C-1.09658936 4.71023192 -0.79953138 3.28696233 0 0 Z " fill="#C01821" transform="translate(47,147)"/>
<path d="M0 0 C1.33597652 0.80814651 2.668725 1.62163181 4 2.4375 C5.11375 3.11619141 5.11375 3.11619141 6.25 3.80859375 C6.8275 4.20175781 7.405 4.59492188 8 5 C8 5.33 8 5.66 8 6 C5.69 5.67 3.38 5.34 1 5 C0.67 3.35 0.34 1.7 0 0 Z " fill="#B7101D" transform="translate(22,127)"/>
<path d="M0 0 C0.99 0.33 1.98 0.66 3 1 C3.38063221 3.3260857 3.71269945 5.66055264 4 8 C3 9 3 9 0.4375 9.0625 C-0.366875 9.041875 -1.17125 9.02125 -2 9 C-0.68 8.34 0.64 7.68 2 7 C1.34 4.69 0.68 2.38 0 0 Z " fill="#DA4325" transform="translate(38,128)"/>
<path d="M0 0 C1.32 0.99 2.64 1.98 4 3 C3.67 4.32 3.34 5.64 3 7 C2.01 7 1.02 7 0 7 C0 4.69 0 2.38 0 0 Z " fill="#DF361A" transform="translate(34,88)"/>
<path d="M0 0 C0.66 0.33 1.32 0.66 2 1 C0.07119658 4.40755272 -1.8276509 7.74147635 -4 11 C-3.38461538 3.49230769 -3.38461538 3.49230769 -1.4375 1 C-0.963125 0.67 -0.48875 0.34 0 0 Z " fill="#B91420" transform="translate(13,69)"/>
<path d="M0 0 C1.32 0 2.64 0 4 0 C3 3 2 6 1 9 C0.67 9 0.34 9 0 9 C0 6.03 0 3.06 0 0 Z " fill="#AF0A1A" transform="translate(49,43)"/>
<path d="M0 0 C0 0.66 0 1.32 0 2 C-0.99 2 -1.98 2 -3 2 C-3 2.99 -3 3.98 -3 5 C-4.32 4.34 -5.64 3.68 -7 3 C-7 2.34 -7 1.68 -7 1 C-2.25 0 -2.25 0 0 0 Z " fill="#E95A42" transform="translate(29,124)"/>
<path d="M0 0 C2.64465038 3.1254959 3.84414715 6.08788267 5 10 C3.68 9.67 2.36 9.34 1 9 C1.33 7.68 1.66 6.36 2 5 C1.34 5 0.68 5 0 5 C0 3.35 0 1.7 0 0 Z " fill="#C21C27" transform="translate(9,107)"/>
<path d="M0 0 C2.475 0.495 2.475 0.495 5 1 C4.67 1.99 4.34 2.98 4 4 C2.68 4 1.36 4 0 4 C0 2.68 0 1.36 0 0 Z " fill="#FAAF85" transform="translate(58,42)"/>
<path d="M0 0 C-0.33 0.99 -0.66 1.98 -1 3 C-2.32 3 -3.64 3 -5 3 C-5 3.66 -5 4.32 -5 5 C-5.99 5.33 -6.98 5.66 -8 6 C-8 5.34 -8 4.68 -8 4 C-7.34 4 -6.68 4 -6 4 C-6 3.34 -6 2.68 -6 2 C-3 0 -3 0 0 0 Z " fill="#E6543F" transform="translate(63,36)"/>
</svg>
