<?xml version="1.0" encoding="UTF-8"?>
<svg version="1.1" xmlns="http://www.w3.org/2000/svg" width="168" height="195">
<path d="M0 0 C0.75539062 -0.03996094 1.51078125 -0.07992188 2.2890625 -0.12109375 C4.375 0.4375 4.375 0.4375 6.06640625 2.6328125 C7.34882427 5.38139798 8.07157112 7.7876754 8.6875 10.75 C9.82834718 15.56496016 11.25478073 20.18620971 13 24.8125 C13.2460498 25.46653809 13.49209961 26.12057617 13.74560547 26.79443359 C15.33008727 30.92107234 17.03367863 34.9833982 18.80078125 39.03515625 C19.42315674 40.48559326 19.42315674 40.48559326 20.05810547 41.96533203 C20.87641734 43.86347155 21.71195713 45.75430326 22.56689453 47.63623047 C25.02148349 53.35037993 26.56824516 58.36865398 24.375 64.4375 C20.5607277 68.17471629 14.4005177 68.91077227 9.3125 70.125 C7.96575195 70.46241211 7.96575195 70.46241211 6.59179688 70.80664062 C2.67564803 71.76456848 -0.55872435 72.4375 -4.625 72.4375 C-4.78355469 73.04480957 -4.94210938 73.65211914 -5.10546875 74.27783203 C-6.90651559 80.75438652 -9.41494716 86.4211089 -12.625 92.3125 C-13.28242188 93.55386719 -13.28242188 93.55386719 -13.953125 94.8203125 C-18.09477015 102.55471007 -18.09477015 102.55471007 -20.625 105.4375 C-24.39549776 106.26015406 -27.7648728 106.4375 -31.625 106.4375 C-33.58125978 107.39298981 -33.58125978 107.39298981 -34.625 109.4375 C-34.31054487 111.77345238 -33.9746418 114.10655466 -33.625 116.4375 C-34.57983066 121.47206166 -36.11175706 124.70467938 -39.625 128.4375 C-40.285 128.7675 -40.945 129.0975 -41.625 129.4375 C-41.22812845 136.36222427 -40.77969364 142.28280636 -35.625 147.4375 C-34.635 147.4375 -33.645 147.4375 -32.625 147.4375 C-32.50125 146.32375 -32.3775 145.21 -32.25 144.0625 C-31.625 140.4375 -31.625 140.4375 -29.625 138.4375 C-26.6875 138.0625 -26.6875 138.0625 -23.625 138.4375 C-20.82952438 141.311537 -20.2133886 143.41486679 -20.25 147.375 C-20.40963007 152.5439737 -21.78542372 155.29132767 -25.125 159.1875 C-29.4877043 162.82308692 -36.30687368 161.85790524 -41.625 161.4375 C-43.99953128 160.68534645 -45.53812161 159.82875226 -47.625 158.4375 C-47.625 157.7775 -47.625 157.1175 -47.625 156.4375 C-48.264375 156.128125 -48.90375 155.81875 -49.5625 155.5 C-51.625 154.4375 -51.625 154.4375 -52.625 153.4375 C-53.54464001 155.51043449 -54.43504938 157.59635784 -55.3125 159.6875 C-55.81136719 160.84765625 -56.31023437 162.0078125 -56.82421875 163.203125 C-57.95717515 166.35351942 -57.95717515 166.35351942 -56.5546875 168.8203125 C-54.24185868 170.75859414 -53.04617067 170.95436037 -50.0625 171.0625 C-45.81882504 171.24367496 -45.81882504 171.24367496 -43.625 173.4375 C-43.71233914 176.75638746 -44.42493502 178.19871277 -46.5625 180.75 C-50.95255109 183.16900774 -54.71772948 183.0765497 -59.625 182.4375 C-64.90049023 180.64582407 -67.50426612 177.89569126 -70.625 173.4375 C-72.31803773 168.74908781 -71.71125047 163.37294345 -71.625 158.4375 C-78.36906583 165.7601987 -84.3051643 172.85194332 -86.984375 182.58984375 C-87.625 184.4375 -87.625 184.4375 -89.625 186.4375 C-92.25 186.0625 -92.25 186.0625 -94.625 185.4375 C-97.40912168 177.22434105 -96.25000543 171.26680955 -92.625 163.4375 C-90.31451809 159.65217876 -87.67461604 156.13411781 -84.96484375 152.62890625 C-81.36529046 147.71933189 -79.34567094 143.49113586 -78.625 137.4375 C-79.98625 138.241875 -79.98625 138.241875 -81.375 139.0625 C-81.88546875 139.36414063 -82.3959375 139.66578125 -82.921875 139.9765625 C-87.0233829 143.49482845 -89.16605177 148.42770841 -91.36450195 153.24975586 C-94.84635285 160.82589756 -98.43751088 166.77342915 -105.625 171.4375 C-109.09825181 172.5952506 -111.98567448 172.50616652 -115.625 172.4375 C-116.8125 170.75 -116.8125 170.75 -117.625 168.4375 C-116.22032476 165.0136041 -114.6031156 163.42027185 -111.6875 161.125 C-105.68404083 156.35492477 -103.78668671 148.51211106 -101.625 141.4375 C-103.2646875 142.4275 -103.2646875 142.4275 -104.9375 143.4375 C-110.10157533 146.00577903 -114.9582847 146.29661916 -120.625 145.4375 C-125.07646251 143.25223658 -127.81385145 140.4980479 -130.625 136.4375 C-131.87765681 132.67952958 -132.07446341 129.36826185 -131.625 125.4375 C-130.4375 123.375 -130.4375 123.375 -128.625 122.4375 C-126.25 122.25 -126.25 122.25 -123.625 123.4375 C-122.176348 125.42726612 -120.9918906 127.45273914 -119.8359375 129.625 C-118.67686812 131.76085266 -118.67686812 131.76085266 -115.625 132.4375 C-110.78422107 129.50755486 -108.35634421 125.22606942 -105.625 120.4375 C-106.74648437 120.09138672 -106.74648437 120.09138672 -107.890625 119.73828125 C-117.79214816 116.45937371 -117.79214816 116.45937371 -120.625 111.4375 C-121.72197531 108.14657406 -121.8621983 105.52637841 -121.9375 102.0625 C-121.97488281 100.94101563 -122.01226562 99.81953125 -122.05078125 98.6640625 C-121.53535378 94.75816258 -120.35466743 93.22126895 -117.625 90.4375 C-114.40669935 88.29196623 -113.35713493 88.14166132 -109.625 88.125 C-108.75875 88.10824219 -107.8925 88.09148437 -107 88.07421875 C-104.17514664 88.50630981 -103.30943859 89.16811167 -101.625 91.4375 C-101.1875 93.9375 -101.1875 93.9375 -101.625 96.4375 C-103.90214416 98.63612195 -105.60423697 99.43057899 -108.625 100.4375 C-108.295 101.4275 -107.965 102.4175 -107.625 103.4375 C-100.90425865 104.8065399 -96.00134153 103.94826216 -89.625 101.4375 C-88.26662574 100.29567652 -88.26662574 100.29567652 -88.375 97.25 C-87.52196316 92.91372938 -86.19438818 90.04173893 -82.625 87.4375 C-79.65996866 86.3994907 -76.73716891 85.83075882 -73.625 85.4375 C-72.75649826 83.18874253 -72.75649826 83.18874253 -72.625 80.4375 C-73.95310215 78.76666181 -75.28672696 77.10020287 -76.625 75.4375 C-77.609223 69.48822348 -74.88438651 65.90274955 -71.6875 61.1875 C-71.19475586 60.43678223 -70.70201172 59.68606445 -70.19433594 58.91259766 C-66.63300454 53.60266399 -62.80508128 49.06660988 -58.109375 44.7109375 C-56.30792121 42.43295016 -56.30792121 42.43295016 -56.76171875 39.16796875 C-57.83700631 34.52136412 -58.99415671 29.91086111 -60.25195312 25.31054688 C-61.61156818 20.12608069 -62.6447391 15.68092601 -60.375 10.6875 C-52.2882074 4.07103332 -35.03810767 5.23415269 -24.72387695 4.1875 C-22.33734536 3.94382582 -19.95188689 3.69122801 -17.56640625 3.4375 C-16.84240128 3.36660156 -16.1183963 3.29570313 -15.37245178 3.22265625 C-9.99791982 2.6433126 -5.34552382 0.15614073 0 0 Z " fill="#736376" transform="translate(138.625,4.5625)"/>
<path d="M0 0 C3.14731314 0.93625954 4.67969546 1.53891964 6.58203125 4.27734375 C6.98808594 5.15519531 7.39414063 6.03304687 7.8125 6.9375 C8.23144531 7.81277344 8.65039062 8.68804687 9.08203125 9.58984375 C10 12 10 12 10 15 C12.80747455 15.7795458 15.42029808 16.1710149 18.328125 16.31640625 C19.12734375 16.35830078 19.9265625 16.40019531 20.75 16.44335938 C21.575 16.48267578 22.4 16.52199219 23.25 16.5625 C24.09046875 16.60568359 24.9309375 16.64886719 25.796875 16.69335938 C27.86440671 16.79908543 29.93218281 16.90001295 32 17 C31.67128906 17.87398437 31.34257813 18.74796875 31.00390625 19.6484375 C30.02867876 22.90425533 29.81892689 25.25752358 29.9375 28.625 C30.14692392 35.12624681 30.14692392 35.12624681 29 38 C25.9375 39.25 25.9375 39.25 23 40 C23 40.66 23 41.32 23 42 C22.34 42 21.68 42 21 42 C21.25531535 49.54456868 21.78852127 56.52303616 26 63 C27.485 63.99 27.485 63.99 29 65 C29 65.66 29 66.32 29 67 C30.62463842 67.05395478 32.24978541 67.09277195 33.875 67.125 C34.77992187 67.14820313 35.68484375 67.17140625 36.6171875 67.1953125 C39.18806994 67.24324836 39.18806994 67.24324836 41 65 C41.39764263 63.01178687 41.73775349 61.01055661 42 59 C42.66 59.66 43.32 60.32 44 61 C43.85341532 64.95778641 43.5949552 67.27070008 41.0625 70.375 C37.30630263 73.33442823 34.77451663 73.39135382 30 73 C25.18662568 70.75929126 21.27614948 68.26892205 18 64 C17.6875 60.1875 17.6875 60.1875 18 57 C16.35 57 14.7 57 13 57 C13.04125 58.03125 13.0825 59.0625 13.125 60.125 C12.9807894 64.5955286 11.98943912 68.02112176 10 72 C9.34 72 8.68 72 8 72 C5.74070702 76.51858597 5.76032052 80.04662417 6 85 C6.33 85.99 6.66 86.98 7 88 C7.66 88 8.32 88 9 88 C9 88.66 9 89.32 9 90 C12.3 90.33 15.6 90.66 19 91 C19 91.66 19 92.32 19 93 C13.43336539 93.28792938 9.7827493 93.22557511 5 90 C1.72292431 85.8126255 1.77851107 82.88175592 2.3125 77.6875 C2.43238281 76.43324219 2.55226563 75.17898437 2.67578125 73.88671875 C2.83626953 72.45779297 2.83626953 72.45779297 3 71 C-0.27773504 71.75150023 -0.27773504 71.75150023 -2 75 C-2.33 74.67 -2.66 74.34 -3 74 C-9.74406583 81.3226987 -15.6801643 88.41444332 -18.359375 98.15234375 C-19 100 -19 100 -21 102 C-23.625 101.625 -23.625 101.625 -26 101 C-28.78412168 92.78684105 -27.62500543 86.82930955 -24 79 C-21.68951809 75.21467876 -19.04961604 71.69661781 -16.33984375 68.19140625 C-12.74029046 63.28183189 -10.72067094 59.05363586 -10 53 C-10.9075 53.53625 -11.815 54.0725 -12.75 54.625 C-13.26046875 54.92664063 -13.7709375 55.22828125 -14.296875 55.5390625 C-18.3983829 59.05732845 -20.54105177 63.99020841 -22.73950195 68.81225586 C-26.22135285 76.38839756 -29.81251088 82.33592915 -37 87 C-40.47325181 88.1577506 -43.36067448 88.06866652 -47 88 C-48.1875 86.3125 -48.1875 86.3125 -49 84 C-47.59532476 80.5761041 -45.9781156 78.98277185 -43.0625 76.6875 C-37.05904083 71.91742477 -35.16168671 64.07461106 -33 57 C-34.093125 57.66 -35.18625 58.32 -36.3125 59 C-41.47657533 61.56827903 -46.3332847 61.85911916 -52 61 C-56.45146251 58.81473658 -59.18885145 56.0605479 -62 52 C-63.25265681 48.24202958 -63.44946341 44.93076185 -63 41 C-61.8125 38.9375 -61.8125 38.9375 -60 38 C-57.625 37.8125 -57.625 37.8125 -55 39 C-53.551348 40.98976612 -52.3668906 43.01523914 -51.2109375 45.1875 C-50.05186812 47.32335266 -50.05186812 47.32335266 -47 48 C-41.66141045 44.88582276 -38.04998381 39.26495765 -35 34 C-35 33.01 -35 32.02 -35 31 C-36.051875 30.731875 -37.10375 30.46375 -38.1875 30.1875 C-41.6477807 29.10970765 -44.17316427 28.24484014 -47 26 C-47.8125 23.3125 -47.8125 23.3125 -48 21 C-48.66 21 -49.32 21 -50 21 C-49.67 18.36 -49.34 15.72 -49 13 C-48.34 13 -47.68 13 -47 13 C-46.67 12.01 -46.34 11.02 -46 10 C-43.66883683 8.39230126 -42.57183574 7.90469404 -39.75 8.375 C-39.1725 8.58125 -38.595 8.7875 -38 9 C-40.1385485 11.1385485 -41.13275314 11.42655063 -44 12 C-44.62457273 15.43515002 -45 18.49064814 -45 22 C-38.94719562 25.81722085 -29.54963113 24.74797343 -22.79296875 23.32421875 C-20.48725315 22.6282159 -18.23921184 21.88514727 -16 21 C-15.89042969 20.31292969 -15.78085937 19.62585938 -15.66796875 18.91796875 C-15.50941406 18.01691406 -15.35085937 17.11585937 -15.1875 16.1875 C-15.03667969 15.29417969 -14.88585938 14.40085937 -14.73046875 13.48046875 C-13.91302504 10.70465723 -13.31838359 9.69738798 -11 8 C-8.51953125 7.05078125 -8.51953125 7.05078125 -5.8125 6.3125 C-4.91144531 6.06113281 -4.01039062 5.80976562 -3.08203125 5.55078125 C-2.39496094 5.36902344 -1.70789063 5.18726562 -1 5 C-0.67 3.35 -0.34 1.7 0 0 Z " fill="#938398" transform="translate(70,89)"/>
<path d="M0 0 C0.495 0.99 0.495 0.99 1 2 C1.66 2 2.32 2 3 2 C3.57317297 13.39977347 2.97039392 24.04163078 0.6875 35.25 C0.47456299 36.29599365 0.26162598 37.3419873 0.04223633 38.41967773 C-1.04934382 43.47103094 -2.32730807 48.27149455 -4.24780273 53.06933594 C-5.06600327 55.16941054 -5.754881 57.28720626 -6.4296875 59.4375 C-6.78740234 60.56285156 -6.78740234 60.56285156 -7.15234375 61.7109375 C-7.63341174 63.23475286 -8.10740107 64.76082138 -8.57421875 66.2890625 C-10.09224008 71.01359947 -12.02611226 74.89352806 -14.75585938 79.03125 C-16.76145431 82.20493869 -18.27347113 85.58220078 -19.8125 89 C-20.12380859 89.67933594 -20.43511719 90.35867187 -20.75585938 91.05859375 C-21.50880699 92.70349469 -22.2551352 94.35142315 -23 96 C-28.625 96.25 -28.625 96.25 -32 94 C-34.03899164 93.57812622 -34.03899164 93.57812622 -36.2734375 93.4375 C-37.0984375 93.36273438 -37.9234375 93.28796875 -38.7734375 93.2109375 C-39.63195312 93.14132813 -40.49046875 93.07171875 -41.375 93 C-51.62288886 92.16153637 -51.62288886 92.16153637 -56 90 C-56 89.34 -56 88.68 -56 88 C-56.66 88 -57.32 88 -58 88 C-58.34611328 87.00419922 -58.34611328 87.00419922 -58.69921875 85.98828125 C-60.75103432 80.43297033 -62.58826162 76.92154523 -67 73 C-67 72.34 -67 71.68 -67 71 C-68.32 70.67 -69.64 70.34 -71 70 C-71.625 67.6875 -71.625 67.6875 -72 65 C-71.34 64.01 -70.68 63.02 -70 62 C-69.34 62 -68.68 62 -68 62 C-67.505 59.03 -67.505 59.03 -67 56 C-66.34 56 -65.68 56 -65 56 C-64.75378906 55.28199219 -64.50757812 54.56398437 -64.25390625 53.82421875 C-62.85883684 50.68205308 -61.13528193 48.44904058 -58.9375 45.8125 C-56.19079836 42.58717013 -56.19079836 42.58717013 -54 39 C-53.34 39 -52.68 39 -52 39 C-52 38.34 -52 37.68 -52 37 C-51.34 37 -50.68 37 -50 37 C-49.71125 36.401875 -49.4225 35.80375 -49.125 35.1875 C-48 33 -48 33 -46 30 C-45.01 30 -44.02 30 -43 30 C-42.67 28.68 -42.34 27.36 -42 26 C-41.34 26 -40.68 26 -40 26 C-40 25.34 -40 24.68 -40 24 C-38.3594214 22.80977631 -36.71444737 21.62319969 -35.01953125 20.51171875 C-32.85068715 18.96860062 -32.85068715 18.96860062 -30.67578125 16.625 C-27.76822222 13.77262092 -24.74550918 11.57104896 -21.375 9.3125 C-20.80265625 8.92255859 -20.2303125 8.53261719 -19.640625 8.13085938 C-14.96991663 4.95369147 -11.33648456 2.68174904 -5.8125 1.375 C-4.72582031 1.11460938 -3.63914062 0.85421875 -2.51953125 0.5859375 C-1.68808594 0.39257812 -0.85664063 0.19921875 0 0 Z " fill="#C7A9B6" transform="translate(139,10)"/>
<path d="M0 0 C0.75539062 -0.03996094 1.51078125 -0.07992188 2.2890625 -0.12109375 C4.375 0.4375 4.375 0.4375 6.06640625 2.6328125 C7.34882427 5.38139798 8.07157112 7.7876754 8.6875 10.75 C9.82834718 15.56496016 11.25478073 20.18620971 13 24.8125 C13.2460498 25.46653809 13.49209961 26.12057617 13.74560547 26.79443359 C15.33008727 30.92107234 17.03367863 34.9833982 18.80078125 39.03515625 C19.42315674 40.48559326 19.42315674 40.48559326 20.05810547 41.96533203 C20.87641734 43.86347155 21.71195713 45.75430326 22.56689453 47.63623047 C25.04973898 53.41615716 26.29198921 58.26632431 24.375 64.4375 C20.73011154 68.08238846 15.37213433 68.39620137 10.375 68.4375 C10.045 68.1075 9.715 67.7775 9.375 67.4375 C7.35535801 67.36505947 5.33332876 67.35372812 3.3125 67.375 C0.3734375 67.4059375 0.3734375 67.4059375 -2.625 67.4375 C-2.295 63.4775 -1.965 59.5175 -1.625 55.4375 C-2.615 58.4075 -3.605 61.3775 -4.625 64.4375 C-5.71140847 60.09186613 -5.49578607 59.44495469 -3.9375 55.5 C1.50173429 39.95663256 3.02339962 23.80449778 3.375 7.4375 C-1.90492421 5.67752526 -6.56746272 7.44182313 -11.625 9.4375 C-16.62713293 12.33496861 -21.27849031 15.77539843 -25.89257812 19.24829102 C-27.625 20.4375 -27.625 20.4375 -29.78320312 21.46459961 C-31.81522017 22.29782116 -31.81522017 22.29782116 -32.5625 24.5 C-32.913125 25.139375 -33.26375 25.77875 -33.625 26.4375 C-34.75035156 26.65599609 -34.75035156 26.65599609 -35.8984375 26.87890625 C-38.9510279 27.50429368 -40.75053777 28.56392816 -43.3125 30.3125 C-44.07949219 30.82554688 -44.84648438 31.33859375 -45.63671875 31.8671875 C-47.86235302 33.45860248 -47.86235302 33.45860248 -49.625 36.4375 C-50.615 36.4375 -51.605 36.4375 -52.625 36.4375 C-52.93244141 35.04724609 -52.93244141 35.04724609 -53.24609375 33.62890625 C-53.51550781 32.43136719 -53.78492187 31.23382813 -54.0625 30 C-54.32933594 28.80503906 -54.59617187 27.61007813 -54.87109375 26.37890625 C-55.32566748 23.5670314 -55.32566748 23.5670314 -56.625 22.4375 C-56.86380597 14.91511194 -56.86380597 14.91511194 -55.625 12.4375 C-53.01030026 11.56593342 -50.99196268 11.19457013 -48.28125 10.9375 C-47.44722656 10.855 -46.61320312 10.7725 -45.75390625 10.6875 C-44.00130208 10.52083333 -42.24869792 10.35416667 -40.49609375 10.1875 C-39.66207031 10.105 -38.82804687 10.0225 -37.96875 9.9375 C-37.20755859 9.8653125 -36.44636719 9.793125 -35.66210938 9.71875 C-33.42805676 9.47380154 -33.42805676 9.47380154 -30.625 8.4375 C-39.6593984 8.29409685 -48.61478127 8.85214936 -57.625 9.4375 C-54.64299476 7.44949651 -53.63469108 7.12593186 -50.23291016 6.78320312 C-48.90605698 6.64295715 -48.90605698 6.64295715 -47.55239868 6.49987793 C-46.12267227 6.3607196 -46.12267227 6.3607196 -44.6640625 6.21875 C-43.68134369 6.11534302 -42.69862488 6.01193604 -41.68612671 5.90539551 C-38.54150867 5.57489855 -35.39594776 5.25507353 -32.25 4.9375 C-29.11123789 4.6195837 -25.97286086 4.29914437 -22.83529663 3.96960449 C-20.88274137 3.76454535 -18.92947537 3.56611846 -16.97549438 3.37512207 C-11.11014553 2.75955251 -5.7734087 0.16863909 0 0 Z " fill="#716175" transform="translate(138.625,4.5625)"/>
<path d="M0 0 C0.495 1.485 0.495 1.485 1 3 C0.2575 3.721875 -0.485 4.44375 -1.25 5.1875 C-4.5650275 8.57786904 -7.37189065 12.05783597 -10 16 C-10.66 16 -11.32 16 -12 16 C-12.12375 16.928125 -12.12375 16.928125 -12.25 17.875 C-13 20 -13 20 -14.5625 21.25 C-18.10914618 22.34127575 -21.29528399 22.12349053 -25 22 C-25 21.34 -25 20.68 -25 20 C-25.66 20 -26.32 20 -27 20 C-27.66 18.35 -28.32 16.7 -29 15 C-29.66 15 -30.32 15 -31 15 C-30.43224464 16.29858939 -29.84508337 17.58870441 -29.25 18.875 C-28.92515625 19.59429687 -28.6003125 20.31359375 -28.265625 21.0546875 C-26.74162387 23.39713368 -25.59824488 24.03535311 -23 25 C-18.92441556 25.61719249 -18.92441556 25.61719249 -15 25 C-12.8433611 23.32400737 -10.97490213 21.47525072 -9.03125 19.55859375 C-5.67811651 16.98570863 -3.07692101 17.49038487 1 18 C1.33 16.02 1.66 14.04 2 12 C2.99 11.67 3.98 11.34 5 11 C5 10.34 5 9.68 5 9 C6.98 8.34 8.96 7.68 11 7 C11 6.34 11 5.68 11 5 C12.32 5 13.64 5 15 5 C15 6.65 15 8.3 15 10 C13.68 10.33 12.36 10.66 11 11 C11 11.66 11 12.32 11 13 C9.68 13 8.36 13 7 13 C6.731875 13.721875 6.46375 14.44375 6.1875 15.1875 C5.00098638 17.99766383 3.72514361 20.48416557 2 23 C1.34 23 0.68 23 0 23 C-0.0825 23.763125 -0.165 24.52625 -0.25 25.3125 C-1.94956623 33.66870065 -5.12165034 41.02236053 -10 48 C-8.02 47.505 -8.02 47.505 -6 47 C-5.87625 46.4225 -5.7525 45.845 -5.625 45.25 C-4.99351176 42.97664233 -4.11141809 41.0746471 -3 39 C-2.34 39 -1.68 39 -1 39 C-0.814375 37.948125 -0.814375 37.948125 -0.625 36.875 C1.01585352 29.3270738 3.71292009 22.84158017 10.375 18.5 C14.53046178 16.78049858 16.70388356 16.7970874 21 18 C22.91691172 21.83382344 22.69512793 25.84062793 22 30 C20.0746277 33.97316712 17.58195667 37.42975931 15 41 C13.89157529 42.72644029 12.78703886 44.45538693 11.6875 46.1875 C10.26171875 48.41796875 10.26171875 48.41796875 9 50 C8.34 50 7.68 50 7 50 C6.34 52.97 5.68 55.94 5 59 C6.91104638 57.08895362 7.82338341 54.40439042 9 52 C9.66 52 10.32 52 11 52 C11.061875 51.46375 11.12375 50.9275 11.1875 50.375 C12.40035264 46.82973843 14.44610926 44.7407608 17 42 C17.66 42 18.32 42 19 42 C19 41.34 19 40.68 19 40 C19.66 40 20.32 40 21 40 C21.309375 39.21625 21.61875 38.4325 21.9375 37.625 C23 35 23 35 24 33 C24.66 33 25.32 33 26 33 C27.32 27.72 28.64 22.44 30 17 C30.99 17 31.98 17 33 17 C33.76258253 24.96475086 32.07063514 30.16714816 28 37 C27.34 37 26.68 37 26 37 C25.7215625 38.2375 25.7215625 38.2375 25.4375 39.5 C23.81195348 43.4578524 21.72534414 45.74368538 18.875 48.8671875 C13.99622668 54.41679216 10.60394151 60.01644336 8.640625 67.15234375 C8 69 8 69 6 71 C3.375 70.625 3.375 70.625 1 70 C-1.78412168 61.78684105 -0.62500543 55.82930955 3 48 C5.31048191 44.21467876 7.95038396 40.69661781 10.66015625 37.19140625 C14.25970954 32.28183189 16.27932906 28.05363586 17 22 C15.63875 22.804375 15.63875 22.804375 14.25 23.625 C13.73953125 23.92664063 13.2290625 24.22828125 12.703125 24.5390625 C8.6016171 28.05732845 6.45894823 32.99020841 4.26049805 37.81225586 C0.77864715 45.38839756 -2.81251088 51.33592915 -10 56 C-13.47325181 57.1577506 -16.36067448 57.06866652 -20 57 C-21.1875 55.3125 -21.1875 55.3125 -22 53 C-20.59532476 49.5761041 -18.9781156 47.98277185 -16.0625 45.6875 C-10.05904083 40.91742477 -8.16168671 33.07461106 -6 26 C-7.6396875 26.99 -7.6396875 26.99 -9.3125 28 C-14.47657533 30.56827903 -19.3332847 30.85911916 -25 30 C-29.45146251 27.81473658 -32.18885145 25.0605479 -35 21 C-36.25265681 17.24202958 -36.44946341 13.93076185 -36 10 C-34.8125 7.9375 -34.8125 7.9375 -33 7 C-30.625 6.8125 -30.625 6.8125 -28 8 C-26.551348 9.98976612 -25.3668906 12.01523914 -24.2109375 14.1875 C-23.05186812 16.32335266 -23.05186812 16.32335266 -20 17 C-15.99055752 14.46772054 -13.67907482 11.33301884 -11.2109375 7.390625 C-10.61152344 6.70226562 -10.61152344 6.70226562 -10 6 C-9.01 6 -8.02 6 -7 6 C-7 5.34 -7 4.68 -7 4 C-4.93057424 1.4132178 -3.24271506 0.5590888 0 0 Z " fill="#736276" transform="translate(43,120)"/>
<path d="M0 0 C0.33 0 0.66 0 1 0 C1.57317297 11.39977347 0.97039392 22.04163078 -1.3125 33.25 C-1.52543701 34.29599365 -1.73837402 35.3419873 -1.95776367 36.41967773 C-3.04934382 41.47103094 -4.32730807 46.27149455 -6.24780273 51.06933594 C-7.06600327 53.16941054 -7.754881 55.28720626 -8.4296875 57.4375 C-8.78740234 58.56285156 -8.78740234 58.56285156 -9.15234375 59.7109375 C-9.63341174 61.23475286 -10.10740107 62.76082138 -10.57421875 64.2890625 C-12.09224008 69.01359947 -14.02611226 72.89352806 -16.75585938 77.03125 C-18.76145431 80.20493869 -20.27347113 83.58220078 -21.8125 87 C-22.12380859 87.67933594 -22.43511719 88.35867187 -22.75585938 89.05859375 C-23.50880699 90.70349469 -24.2551352 92.35142315 -25 94 C-30.625 94.25 -30.625 94.25 -34 92 C-36.03899164 91.57812622 -36.03899164 91.57812622 -38.2734375 91.4375 C-39.0984375 91.36273438 -39.9234375 91.28796875 -40.7734375 91.2109375 C-41.63195312 91.14132813 -42.49046875 91.07171875 -43.375 91 C-53.62288886 90.16153637 -53.62288886 90.16153637 -58 88 C-58 87.34 -58 86.68 -58 86 C-58.66 86 -59.32 86 -60 86 C-60.34611328 85.00419922 -60.34611328 85.00419922 -60.69921875 83.98828125 C-62.75103432 78.43297033 -64.58826162 74.92154523 -69 71 C-69 70.34 -69 69.68 -69 69 C-70.32 68.67 -71.64 68.34 -73 68 C-73 66.68 -73 65.36 -73 64 C-72.01 63.505 -72.01 63.505 -71 63 C-71 63.66 -71 64.32 -71 65 C-69.9171875 64.5978125 -69.9171875 64.5978125 -68.8125 64.1875 C-66 64 -66 64 -63.25 66.25 C-61 69 -61 69 -60 72 C-59.34 72 -58.68 72 -58 72 C-57.87625 72.9075 -57.7525 73.815 -57.625 74.75 C-57.0724341 77.62334269 -56.35517759 79.46592809 -55 82 C-39.57030714 82.52385298 -39.57030714 82.52385298 -26 76 C-21.43314963 70.87693067 -19.21677448 65.69225963 -18 59 C-17.34 59 -16.68 59 -16 59 C-15.87109375 58.26523438 -15.7421875 57.53046875 -15.609375 56.7734375 C-15.04336597 54.19737075 -14.28475417 52.04225358 -13.25 49.625 C-10.47390034 42.87150666 -8.26632704 35.93587337 -6 29 C-5.43893882 27.31202107 -4.87670944 25.62442923 -4.3125 23.9375 C-3.99732422 22.99197266 -3.99732422 22.99197266 -3.67578125 22.02734375 C-3.1371177 20.4113531 -2.5544006 18.81006601 -1.95703125 17.21484375 C-0.88851834 13.62551264 -0.58641887 10.36006662 -0.375 6.625 C-0.30023438 5.37976563 -0.22546875 4.13453125 -0.1484375 2.8515625 C-0.07496094 1.44003906 -0.07496094 1.44003906 0 0 Z " fill="#B896A7" transform="translate(141,12)"/>
<path d="M0 0 C0.66 0 1.32 0 2 0 C4.88541078 4.81526344 7.18946921 9.54770309 9.125 14.8125 C9.38289307 15.50811035 9.64078613 16.2037207 9.90649414 16.92041016 C11.78803509 22.12646927 13.60640745 27.44199615 14 33 C13.67 33.66 13.34 34.32 13 35 C10.71484375 35.4140625 10.71484375 35.4140625 7.9375 35.625 C7.01839844 35.69976562 6.09929687 35.77453125 5.15234375 35.8515625 C4.44207031 35.90054688 3.73179687 35.94953125 3 36 C3 36.66 3 37.32 3 38 C-1.26616316 39.13764351 -4.56486311 40 -9 40 C-8.58460168 38.4579911 -8.16756168 36.91642449 -7.75 35.375 C-7.47800781 34.36695313 -7.20601562 33.35890625 -6.92578125 32.3203125 C-6.30628679 30.09849691 -5.65752049 27.88464529 -4.98046875 25.6796875 C-2.37730072 17.11945704 -0.9444747 8.87309129 0 0 Z " fill="#938298" transform="translate(145,32)"/>
<path d="M0 0 C0 0.66 0 1.32 0 2 C-0.66 2 -1.32 2 -2 2 C-2.33 2.99 -2.66 3.98 -3 5 C-7.33333333 8 -7.33333333 8 -10 8 C-10.66 9.32 -11.32 10.64 -12 12 C-12.66 12 -13.32 12 -14 12 C-14 12.66 -14 13.32 -14 14 C-14.58523437 14.24878906 -15.17046875 14.49757813 -15.7734375 14.75390625 C-18.31165699 16.17441856 -19.75197126 17.7220453 -21.625 19.9375 C-22.21539062 20.62714844 -22.80578125 21.31679688 -23.4140625 22.02734375 C-25.14252273 24.11733437 -25.14252273 24.11733437 -27 27 C-27.99 27 -28.98 27 -30 27 C-30.20496094 26.07316406 -30.40992187 25.14632812 -30.62109375 24.19140625 C-30.89050781 22.99386719 -31.15992187 21.79632813 -31.4375 20.5625 C-31.70433594 19.36753906 -31.97117187 18.17257813 -32.24609375 16.94140625 C-32.70066748 14.1295314 -32.70066748 14.1295314 -34 13 C-34.23880597 5.47761194 -34.23880597 5.47761194 -33 3 C-29.03880212 1.67960071 -25.14093795 1.36717861 -21 0.9375 C-20.14946045 0.84807129 -19.2989209 0.75864258 -18.42260742 0.66650391 C-12.2670307 0.05182435 -6.18781419 -0.25029361 0 0 Z " fill="#948398" transform="translate(116,14)"/>
<path d="M0 0 C1.32 0.33 2.64 0.66 4 1 C4 1.99 4 2.98 4 4 C3.01 4.495 3.01 4.495 2 5 C1.27840576 6.64363134 0.60648579 8.31050386 0 10 C0.66 10.66 1.32 11.32 2 12 C1.01 12.66 0.02 13.32 -1 14 C-1.99 13.34 -2.98 12.68 -4 12 C-3.938125 12.928125 -3.87625 13.85625 -3.8125 14.8125 C-4.0335654 18.57061182 -4.43666641 18.55425052 -7 21 C-11.21448985 27.0528288 -14.85576035 33.33421195 -18 40 C-18.66 40 -19.32 40 -20 40 C-20.309375 40.94875 -20.61875 41.8975 -20.9375 42.875 C-22 46 -22 46 -23 48 C-24.32 47.67 -25.64 47.34 -27 47 C-26.43062712 43.31848673 -25.46783761 40.71650639 -23.5 37.5625 C-22.97019531 36.70527344 -22.44039063 35.84804688 -21.89453125 34.96484375 C-20.48652945 32.76139351 -19.06784278 30.56724484 -17.63671875 28.37890625 C-17.23195313 27.75749756 -16.8271875 27.13608887 -16.41015625 26.49584961 C-15.60742622 25.26755084 -14.79899657 24.04295438 -13.984375 22.82250977 C-12.09553907 19.94309704 -10.51711363 17.44177267 -10 14 C-10.66 13.67 -11.32 13.34 -12 13 C-10.35 12.34 -8.7 11.68 -7 11 C-7.99 10.01 -8.98 9.02 -10 8 C-7.69 8.66 -5.38 9.32 -3 10 C-3.061875 9.0925 -3.12375 8.185 -3.1875 7.25 C-2.98327924 3.71017358 -2.35448165 2.55068845 0 0 Z " fill="#746378" transform="translate(128,25)"/>
<path d="M0 0 C0.33 0 0.66 0 1 0 C0.85915204 1.79206547 0.71216299 3.58364917 0.5625 5.375 C0.48128906 6.37273437 0.40007812 7.37046875 0.31640625 8.3984375 C0 11 0 11 -1 13 C0.19625 12.835 1.3925 12.67 2.625 12.5 C6.10548715 12.06029433 9.48771488 11.91219287 13 12 C12.67 12.99 12.34 13.98 12 15 C9.63671875 15.94921875 9.63671875 15.94921875 6.6875 16.6875 C5.72199219 16.93886719 4.75648438 17.19023438 3.76171875 17.44921875 C1 18 1 18 -3 18 C-3 18.66 -3 19.32 -3 20 C-3.66 20 -4.32 20 -5 20 C-5.2475 20.825 -5.495 21.65 -5.75 22.5 C-7.18704811 26.52373471 -9.02354515 30.21979024 -11 34 C-11.66 33.67 -12.32 33.34 -13 33 C-10.47191206 25.28267891 -7.74972528 17.64054098 -5 10 C-4.34 10 -3.68 10 -3 10 C-2.86722656 9.36191406 -2.73445312 8.72382812 -2.59765625 8.06640625 C-2.42105469 7.24011719 -2.24445313 6.41382812 -2.0625 5.5625 C-1.88847656 4.73878906 -1.71445313 3.91507813 -1.53515625 3.06640625 C-1 1 -1 1 0 0 Z " fill="#6F5F73" transform="translate(137,59)"/>
<path d="M0 0 C0.02909769 4.06248489 0.04683174 8.12494286 0.0625 12.1875 C0.07087891 13.33798828 0.07925781 14.48847656 0.08789062 15.67382812 C0.09111328 16.78564453 0.09433594 17.89746094 0.09765625 19.04296875 C0.10289307 20.06414795 0.10812988 21.08532715 0.11352539 22.13745117 C0.00519467 24.86901616 -0.38293132 27.34169374 -1 30 C-0.34 30 0.32 30 1 30 C1.19495962 35.08844621 0.60140349 39.19683449 -0.875 44.0625 C-1.22304687 45.22910156 -1.57109375 46.39570312 -1.9296875 47.59765625 C-2.91946305 50.74398657 -3.94415947 53.87528276 -5 57 C-6.231394 54.53721199 -6.07159196 52.7204945 -6 50 C-6.99 52.97 -7.98 55.94 -9 59 C-10.08640847 54.65436613 -9.87078607 54.00745469 -8.3125 50.0625 C-2.87326571 34.51913256 -1.35160038 18.36699778 -1 2 C-3.99170664 0.66660708 -3.99170664 0.66660708 -6.9375 2 C-10.10817903 3.03532376 -10.96592934 2.94364185 -14 2 C-8.51972135 -0.36218907 -5.94179647 -1.11364209 0 0 Z " fill="#7E6B80" transform="translate(143,10)"/>
<path d="M0 0 C2.59217798 4.47739833 3.63622509 8.58685053 4.5234375 13.609375 C4.97331173 16.18396226 4.97331173 16.18396226 6.1875 19.25 C7.15403898 22.52136269 6.78216337 24.71491385 6 28 C5.67 27.34 5.34 26.68 5 26 C4.34 26 3.68 26 3 26 C3 28.64 3 31.28 3 34 C1.02 34.495 1.02 34.495 -1 35 C-0.84152588 34.13487793 -0.68305176 33.26975586 -0.51977539 32.37841797 C-0.0310932 29.20209848 0.20061658 26.15434061 0.31640625 22.9453125 C0.35830078 21.83671875 0.40019531 20.728125 0.44335938 19.5859375 C0.48267578 18.44382812 0.52199219 17.30171875 0.5625 16.125 C0.60568359 14.9596875 0.64886719 13.794375 0.69335938 12.59375 C0.79901629 9.72927375 0.90111799 6.86471679 1 4 C-1.64 4 -4.28 4 -7 4 C-7 3.34 -7 2.68 -7 2 C-7.99 1.67 -8.98 1.34 -10 1 C-6.52674819 -0.1577506 -3.63932552 -0.06866652 0 0 Z " fill="#6B5B6F" transform="translate(142,6)"/>
<path d="M0 0 C0.99 0 1.98 0 3 0 C3.12117188 0.56847656 3.24234375 1.13695312 3.3671875 1.72265625 C3.89453336 4.1525037 4.445968 6.57610998 5 9 C5.144375 9.68835938 5.28875 10.37671875 5.4375 11.0859375 C6.29684428 14.7637875 6.29684428 14.7637875 8.875 17.375 C10.90146645 17.97101954 12.95076931 18.48769233 15 19 C15.66 15.7 16.32 12.4 17 9 C18.65 8.67 20.3 8.34 22 8 C22 8.66 22 9.32 22 10 C21.01 10 20.02 10 19 10 C19.02320312 10.62648437 19.04640625 11.25296875 19.0703125 11.8984375 C19.09738281 13.12433594 19.09738281 13.12433594 19.125 14.375 C19.14820312 15.18710938 19.17140625 15.99921875 19.1953125 16.8359375 C19 19 19 19 17 21 C13.306493 21.20146402 10.52059568 21.17353189 7 20 C7 19.34 7 18.68 7 18 C6.1028125 17.690625 6.1028125 17.690625 5.1875 17.375 C1.98431281 15.36156805 1.27203249 13.56169096 0 10 C-0.23503664 6.64947765 -0.17887054 3.35216647 0 0 Z " fill="#6B5B6F" transform="translate(92,136)"/>
<path d="M0 0 C0.99 0 1.98 0 3 0 C2.88658363 2.31309705 2.75896193 4.62550185 2.625 6.9375 C2.55539063 8.22527344 2.48578125 9.51304687 2.4140625 10.83984375 C2.27742188 11.88269531 2.14078125 12.92554688 2 14 C1.01 14.495 1.01 14.495 0 15 C1.19102197 18.38983177 2.15449348 20.76203082 5 23 C7.78212594 23.83520042 7.78212594 23.83520042 10.875 24.25 C11.90367188 24.42015625 12.93234375 24.5903125 13.9921875 24.765625 C16.92524295 24.99417478 19.16667799 24.73185439 22 24 C20.30485209 26.08718537 19.42149525 26.92600255 16.73046875 27.3984375 C10.71032161 27.34295227 6.15032082 26.97910774 1.5625 22.640625 C-2.36427991 18.3122426 -2.84233321 15.16791841 -3.25 9.5625 C-2.97707838 5.67336695 -1.95354089 3.33729902 0 0 Z " fill="#77667A" transform="translate(70,160)"/>
<path d="M0 0 C0.66 0 1.32 0 2 0 C2.66 1.65 3.32 3.3 4 5 C4.66 5 5.32 5 6 5 C6 5.66 6 6.32 6 7 C7.79458945 6.77192509 9.58575449 6.51677697 11.375 6.25 C12.37273438 6.11078125 13.37046875 5.9715625 14.3984375 5.828125 C17.14561047 5.25613111 17.14561047 5.25613111 18.3515625 2.921875 C18.56554687 2.28765625 18.77953125 1.6534375 19 1 C19.66 1 20.32 1 21 1 C20.67 1.763125 20.34 2.52625 20 3.3125 C18.82563314 5.99069135 18.82563314 5.99069135 19 9 C15.29137017 11.47241989 12.30094385 11.66668695 8 11 C4.11825205 8.9872418 1.37485064 7.262037 0 3 C0 2.01 0 1.02 0 0 Z " fill="#89778D" transform="translate(12,135)"/>
<path d="M0 0 C1.23795226 3.71385679 0.63133684 4.41017976 -1.01953125 7.8515625 C-1.46490234 8.78484375 -1.91027344 9.718125 -2.36914062 10.6796875 C-2.84544922 11.65164062 -3.32175781 12.62359375 -3.8125 13.625 C-4.27720703 14.6046875 -4.74191406 15.584375 -5.22070312 16.59375 C-8.73058107 23.86529054 -8.73058107 23.86529054 -11 25 C-10.42415568 22.61435923 -9.77772405 20.33317216 -9 18 C-9.66 18 -10.32 18 -11 18 C-11.28875 18.804375 -11.5775 19.60875 -11.875 20.4375 C-13 23 -13 23 -15 24 C-13.65150163 19.64029169 -11.95092154 15.68658562 -9.875 11.625 C-9.33617188 10.56539062 -8.79734375 9.50578125 -8.2421875 8.4140625 C-7.83226563 7.61742188 -7.42234375 6.82078125 -7 6 C-6.31292445 8.49064888 -6 10.37886292 -6 13 C-4.02 8.71 -2.04 4.42 0 0 Z " fill="#7D6C80" transform="translate(132,79)"/>
<path d="M0 0 C1.32 0.33 2.64 0.66 4 1 C4 1.99 4 2.98 4 4 C3.01 4.495 3.01 4.495 2 5 C1.27840576 6.64363134 0.60648579 8.31050386 0 10 C0.66 10.66 1.32 11.32 2 12 C1.01 12.66 0.02 13.32 -1 14 C-1.99 13.34 -2.98 12.68 -4 12 C-4 13.98 -4 15.96 -4 18 C-4.66 17.67 -5.32 17.34 -6 17 C-5.67 15.68 -5.34 14.36 -5 13 C-8.0745356 13.7763932 -8.0745356 13.7763932 -10 16 C-10 15.34 -10 14.68 -10 14 C-10.66 13.67 -11.32 13.34 -12 13 C-10.35 12.34 -8.7 11.68 -7 11 C-7.99 10.01 -8.98 9.02 -10 8 C-7.69 8.66 -5.38 9.32 -3 10 C-3.061875 9.0925 -3.12375 8.185 -3.1875 7.25 C-2.98327924 3.71017358 -2.35448165 2.55068845 0 0 Z " fill="#BEA1B1" transform="translate(128,25)"/>
<path d="M0 0 C0.33 0.66 0.66 1.32 1 2 C-8.00407504 3.7270386 -16.85965063 4.52550099 -26 5 C-26.33 4.01 -26.66 3.02 -27 2 C-18.41625216 -0.46730916 -8.86662168 -0.18013453 0 0 Z " fill="#695A6D" transform="translate(108,12)"/>
<path d="M0 0 C0.33 0.99 0.66 1.98 1 3 C0.278125 3.70125 -0.44375 4.4025 -1.1875 5.125 C-3.14939608 7.07022274 -4.90664273 9.08769025 -6.625 11.25 C-9 14 -9 14 -12 15 C-13 12 -13 12 -11.5625 8.8125 C-11.046875 7.884375 -10.53125 6.95625 -10 6 C-9.01 6 -8.02 6 -7 6 C-7 5.34 -7 4.68 -7 4 C-4.93057424 1.4132178 -3.24271506 0.5590888 0 0 Z " fill="#716175" transform="translate(43,120)"/>
<path d="M0 0 C1.32 0 2.64 0 4 0 C4.43167684 4.60455292 3.84031817 9.26052786 1 13 C-3.21900128 14.74016046 -7.47666456 15 -12 15 C-12 14.34 -12 13.68 -12 13 C-11.36191406 12.81824219 -10.72382812 12.63648437 -10.06640625 12.44921875 C-8.82697266 12.07216797 -8.82697266 12.07216797 -7.5625 11.6875 C-6.73878906 11.44386719 -5.91507813 11.20023438 -5.06640625 10.94921875 C-4.38449219 10.63597656 -3.70257813 10.32273437 -3 10 C-2.67 9.01 -2.34 8.02 -2 7 C-1.34 7 -0.68 7 0 7 C0 4.69 0 2.38 0 0 Z " fill="#6B5B6F" transform="translate(68,81)"/>
<path d="M0 0 C0.66 0.33 1.32 0.66 2 1 C0.81603772 6.48927968 -0.53155347 9.29445897 -5 13 C-5.99 13.33 -6.98 13.66 -8 14 C-8.33 14.99 -8.66 15.98 -9 17 C-9.99 16.67 -10.98 16.34 -12 16 C-11.34 15.67 -10.68 15.34 -10 15 C-10 14.01 -10 13.02 -10 12 C-9.34 12 -8.68 12 -8 12 C-7.87625 11.4225 -7.7525 10.845 -7.625 10.25 C-6.97946097 7.92605949 -6.27275111 6.05054346 -5 4 C-4.01 3.67 -3.02 3.34 -2 3 C-1.34 2.01 -0.68 1.02 0 0 Z " fill="#6D5D71" transform="translate(45,155)"/>
<path d="M0 0 C2.3431213 0.25561323 4.67843403 0.59270772 7 1 C8.8382537 4.67650739 8.37884188 8.97796199 8 13 C6.5 16.125 6.5 16.125 5 18 C4.34 17.67 3.68 17.34 3 17 C1.02 18.32 -0.96 19.64 -3 21 C-1.84355097 18.68710194 -0.67275225 16.39786415 0.5625 14.125 C1.99295257 11.01532051 2.59734768 8.38227947 3 5 C3.66 5 4.32 5 5 5 C5.125 10.75 5.125 10.75 4 13 C4.66 12.67 5.32 12.34 6 12 C6 8.7 6 5.4 6 2 C3.03 1.505 3.03 1.505 0 1 C0 0.67 0 0.34 0 0 Z " fill="#7A6A7D" transform="translate(57,137)"/>
<path d="M0 0 C0 3 0 3 -1 5 C-0.34 5 0.32 5 1 5 C1 4.34 1 3.68 1 3 C2.32 2.34 3.64 1.68 5 1 C3.63016497 4.16115776 3.0109362 4.9927092 0 7 C0.33 11.29 0.66 15.58 1 20 C-1.39763185 17.60236815 -1.34280586 16.66726502 -1.625 13.375 C-1.69976562 12.55773437 -1.77453125 11.74046875 -1.8515625 10.8984375 C-1.92503906 9.95871094 -1.92503906 9.95871094 -2 9 C-2.99 9 -3.98 9 -5 9 C-5 11.31 -5 13.62 -5 16 C-5.33 16 -5.66 16 -6 16 C-6 12.04 -6 8.08 -6 4 C-5.34 4 -4.68 4 -4 4 C-4 3.34 -4 2.68 -4 2 C-2.68 1.34 -1.36 0.68 0 0 Z " fill="#7D6C80" transform="translate(97,127)"/>
<path d="M0 0 C0.99 0 1.98 0 3 0 C4.02611949 1.65071396 5.02308143 3.31970006 6 5 C8.84038231 7.65102349 11.17208423 8.46834503 15 9 C14.67 9.99 14.34 10.98 14 12 C7.55555438 11.29827148 4.02453415 9.80782886 -0.1015625 4.75390625 C-0.39804688 4.17511719 -0.69453125 3.59632813 -1 3 C-0.67 2.01 -0.34 1.02 0 0 Z " fill="#6A5B6E" transform="translate(70,174)"/>
<path d="M0 0 C2 2 2 2 3 4 C2.34 5.32 1.68 6.64 1 8 C-0.32 7.34 -1.64 6.68 -3 6 C-2.67 5.34 -2.34 4.68 -2 4 C-7.7974423 3.75571657 -7.7974423 3.75571657 -13 6 C-10.38251086 -0.04035956 -6.14869558 -1.10164129 0 0 Z " fill="#6A5A6E" transform="translate(33,94)"/>
<path d="M0 0 C2 1.375 2 1.375 4 3 C4 3.66 4 4.32 4 5 C3.34 5 2.68 5 2 5 C1.690625 5.94875 1.38125 6.8975 1.0625 7.875 C0 11 0 11 -1 13 C-2.32 12.67 -3.64 12.34 -5 12 C-4.42365861 7.24518354 -2.44931479 4.02951788 0 0 Z " fill="#7B6A7E" transform="translate(106,60)"/>
<path d="M0 0 C-0.33 0.99 -0.66 1.98 -1 3 C-4.42232972 4.14077657 -7.08673217 4.09815117 -10.6875 4.0625 C-12.45673828 4.04896484 -12.45673828 4.04896484 -14.26171875 4.03515625 C-15.16535156 4.02355469 -16.06898437 4.01195313 -17 4 C-17 3.01 -17 2.02 -17 1 C-5.47835991 -0.14806378 -5.47835991 -0.14806378 0 0 Z " fill="#69596D" transform="translate(48,110)"/>
<path d="M0 0 C0 4.34340807 -2.22417833 6.01596991 -5.0703125 9.125 C-8.79945233 12.74845571 -11.7095489 13.93755882 -16.875 14.1875 C-17.90625 14.125625 -18.9375 14.06375 -20 14 C-19.4225 13.7525 -18.845 13.505 -18.25 13.25 C-15.6997003 11.83316683 -13.98214299 10.12372463 -12 8 C-11.34 8.33 -10.68 8.66 -10 9 C-6.54718834 7.84906278 -5.61917837 6.6794007 -3.3125 3.9375 C-2.68988281 3.20402344 -2.06726563 2.47054687 -1.42578125 1.71484375 C-0.95527344 1.14894531 -0.48476563 0.58304688 0 0 Z " fill="#7A6A7D" transform="translate(43,163)"/>
<path d="M0 0 C0.78246094 -0.03996094 1.56492188 -0.07992188 2.37109375 -0.12109375 C4.5625 0.4375 4.5625 0.4375 6.24609375 2.59375 C7.59969912 5.51785893 8.4531558 8.23991515 9.1875 11.375 C9.42726562 12.37402344 9.66703125 13.37304688 9.9140625 14.40234375 C10.55529373 17.40376945 11.08365033 20.40629121 11.5625 23.4375 C8.90346114 22.10798057 8.3854711 20.34872258 7.2890625 17.6796875 C6.14517589 14.14962883 5.57471956 10.54933514 4.9921875 6.890625 C4.60282681 4.31213569 4.60282681 4.31213569 3.5625 1.4375 C0.2625 1.7675 -3.0375 2.0975 -6.4375 2.4375 C-4.0454161 0.0454161 -3.28611114 0.09173052 0 0 Z " fill="#857487" transform="translate(138.4375,4.5625)"/>
<path d="M0 0 C0.66 0.66 1.32 1.32 2 2 C1.74997427 6.50046315 -0.41754304 9.41788227 -3 13 C-3.99 12.67 -4.98 12.34 -6 12 C-4.68139111 7.38486888 -2.78644563 3.90102388 0 0 Z " fill="#6B5B6E" transform="translate(36,154)"/>
<path d="M0 0 C4.5989252 4.5989252 7.80329838 13.49596651 8.16796875 19.9921875 C7.875 22.4375 7.875 22.4375 7 26 C6.01 26.33 5.02 26.66 4 27 C4.33 26.01 4.66 25.02 5 24 C5.73204374 17.28959908 3.92706049 12.81025195 1.09375 6.734375 C0 4 0 4 0 0 Z " fill="#837285" transform="translate(156,43)"/>
<path d="M0 0 C0.33 0.66 0.66 1.32 1 2 C0.67 2.99 0.34 3.98 0 5 C0.99 4.67 1.98 4.34 3 4 C2.01 6.97 1.02 9.94 0 13 C-0.66 12.01 -1.32 11.02 -2 10 C-2.99 10.99 -3.98 11.98 -5 13 C-3.28571429 3.28571429 -3.28571429 3.28571429 0 0 Z " fill="#77667A" transform="translate(47,146)"/>
<path d="M0 0 C0 2.14674333 -0.07057871 4.29394306 -0.1875 6.4375 C-0.23286081 11.31832346 1.14732898 15.71822193 2.5390625 20.36328125 C3 23 3 23 1 26 C0.32438628 23.4604163 -0.34065828 20.91881165 -1 18.375 C-1.19078125 17.66214844 -1.3815625 16.94929688 -1.578125 16.21484375 C-2.64472012 12.06274132 -3.36035388 8.3242465 -3 4 C-1.5 1.625 -1.5 1.625 0 0 Z " fill="#7E6E80" transform="translate(80,14)"/>
<path d="M0 0 C-0.33 1.98 -0.66 3.96 -1 6 C-2.98 6.33 -4.96 6.66 -7 7 C-7.33 5.02 -7.66 3.04 -8 1 C-4.93251126 -0.86240388 -3.40254489 -1.2151946 0 0 Z " fill="#86748A" transform="translate(65,97)"/>
<path d="M0 0 C0.99 0.33 1.98 0.66 3 1 C2.34 1 1.68 1 1 1 C1.66 2.65 2.32 4.3 3 6 C2.34 6 1.68 6 1 6 C1 6.66 1 7.32 1 8 C0.34 8 -0.32 8 -1 8 C-1.33 8.66 -1.66 9.32 -2 10 C-2.99 10 -3.98 10 -5 10 C-7.17032476 11.43990623 -7.17032476 11.43990623 -9 13 C-7.68544658 10.06753467 -6.25126383 8.25126383 -4 6 C-2.97695052 4.34738161 -1.97383946 2.68208635 -1 1 C-0.67 0.67 -0.34 0.34 0 0 Z " fill="#766579" transform="translate(86,41)"/>
<path d="M0 0 C0.6875 1.75 0.6875 1.75 1 4 C-0.25 6.25 -0.25 6.25 -2 8 C-2.99 8 -3.98 8 -5 8 C-5 8.66 -5 9.32 -5 10 C-5.66 10 -6.32 10 -7 10 C-6.84518205 7.29068581 -6.51827919 5.53415961 -4.59765625 3.5546875 C-3.10228292 2.32320358 -1.5537076 1.1570163 0 0 Z M-9 10 C-8.34 10 -7.68 10 -7 10 C-7.33 10.99 -7.66 11.98 -8 13 C-8.66 12.34 -9.32 11.68 -10 11 C-9.67 10.67 -9.34 10.34 -9 10 Z " fill="#68596C" transform="translate(60,153)"/>
<path d="M0 0 C0.66 0.66 1.32 1.32 2 2 C2.66 1.34 3.32 0.68 4 0 C3.48594831 4.96916636 2.76615118 9.29026351 1 14 C-0.231394 11.53721199 -0.07159196 9.7204945 0 7 C-0.99 9.97 -1.98 12.94 -3 16 C-4.13200698 11.4719721 -3.60058415 10.03799216 -2.0625 5.75 C-1.68222656 4.67234375 -1.30195313 3.5946875 -0.91015625 2.484375 C-0.45962891 1.25460938 -0.45962891 1.25460938 0 0 Z " fill="#78677C" transform="translate(137,53)"/>
<path d="M0 0 C0.33 0.66 0.66 1.32 1 2 C0.67 2.99 0.34 3.98 0 5 C0.66 5 1.32 5 2 5 C2 4.34 2 3.68 2 3 C2.66 3.33 3.32 3.66 4 4 C2.35 6.64 0.7 9.28 -1 12 C-1.99 11.67 -2.98 11.34 -4 11 C-3.67 10.34 -3.34 9.68 -3 9 C-3.99 9.33 -4.98 9.66 -6 10 C-4.6302836 6.00499382 -2.74277578 3.19990508 0 0 Z M-2 5 C-2 5.99 -2 6.98 -2 8 C-1.34 7.67 -0.68 7.34 0 7 C0 6.34 0 5.68 0 5 C-0.66 5 -1.32 5 -2 5 Z " fill="#78677B" transform="translate(53,158)"/>
<path d="M0 0 C0.66 0.66 1.32 1.32 2 2 C1.84971611 6.05766511 1.59155055 8.3008948 -1.0625 11.4375 C-1.701875 11.953125 -2.34125 12.46875 -3 13 C-3.33 12.34 -3.66 11.68 -4 11 C-6.11846285 10.31270746 -6.11846285 10.31270746 -8.5625 9.875 C-9.80193359 9.62363281 -9.80193359 9.62363281 -11.06640625 9.3671875 C-11.70449219 9.24601563 -12.34257813 9.12484375 -13 9 C-10 8 -10 8 -6.4375 8.0625 C-2.93385359 8.39661064 -2.93385359 8.39661064 -1 6 C-0.60235737 4.01178687 -0.26224651 2.01055661 0 0 Z " fill="#88778C" transform="translate(112,148)"/>
<path d="M0 0 C2.125 0.375 2.125 0.375 4 1 C4 1.99 4 2.98 4 4 C3.01 4.495 3.01 4.495 2 5 C0.86649466 7.01669827 0.86649466 7.01669827 0 9 C-0.99 9 -1.98 9 -3 9 C-2.25 2.25 -2.25 2.25 0 0 Z " fill="#746378" transform="translate(128,25)"/>
<path d="M0 0 C1.32 0 2.64 0 4 0 C4.36923077 6.4 4.36923077 6.4 2.5 9.4375 C2.005 9.953125 1.51 10.46875 1 11 C0 10 0 10 -0.09765625 7.71484375 C-0.08605469 6.79832031 -0.07445313 5.88179687 -0.0625 4.9375 C-0.05347656 4.01839844 -0.04445313 3.09929687 -0.03515625 2.15234375 C-0.02355469 1.44207031 -0.01195313 0.73179687 0 0 Z " fill="#6C5B70" transform="translate(83,146)"/>
<path d="M0 0 C2.9375 0.375 2.9375 0.375 6 1 C7.60725635 4.21451269 7.05748185 7.43612536 7 11 C6.01 11.33 5.02 11.66 4 12 C4.33 9.36 4.66 6.72 5 4 C3.35 3.67 1.7 3.34 0 3 C0 2.01 0 1.02 0 0 Z " fill="#68586C" transform="translate(57,138)"/>
<path d="M0 0 C0.66 0.33 1.32 0.66 2 1 C1.67 1.66 1.34 2.32 1 3 C2.32 2.67 3.64 2.34 5 2 C5 2.66 5 3.32 5 4 C3.36739286 5.37482707 1.69774938 6.70647667 0 8 C-0.66 8.66 -1.32 9.32 -2 10 C-2.66 9.67 -3.32 9.34 -4 9 C-3.38461538 3.46153846 -3.38461538 3.46153846 -1.4375 1.125 C-0.963125 0.75375 -0.48875 0.3825 0 0 Z " fill="#77667A" transform="translate(21,95)"/>
<path d="M0 0 C0.66 0 1.32 0 2 0 C1.979375 0.94875 1.95875 1.8975 1.9375 2.875 C1.77448174 5.90666283 1.77448174 5.90666283 3 8 C2.71758117 10.3400417 2.38749213 12.67504723 2 15 C1.34 15 0.68 15 0 15 C-0.1546875 14.13375 -0.1546875 14.13375 -0.3125 13.25 C-0.86784373 10.91220289 -0.86784373 10.91220289 -2.5625 9.125 C-4.45876848 6.3218205 -4.22577486 4.31136456 -4 1 C-3.67 1 -3.34 1 -3 1 C-2.71125 2.134375 -2.4225 3.26875 -2.125 4.4375 C-1.75375 5.613125 -1.3825 6.78875 -1 8 C-0.34 8.33 0.32 8.66 1 9 C0.67 8.34 0.34 7.68 0 7 C-0.04022391 4.6670134 -0.04320247 2.33293334 0 0 Z " fill="#7E6C80" transform="translate(66,73)"/>
<path d="M0 0 C3.74970958 1.24990319 4.76543361 2.79712151 7 6 C7.75 8.3125 7.75 8.3125 8 10 C7.34 10 6.68 10 6 10 C5.34 8.68 4.68 7.36 4 6 C3.01 6.66 2.02 7.32 1 8 C0.01 7.34 -0.98 6.68 -2 6 C-1.34 4.02 -0.68 2.04 0 0 Z " fill="#7C6A80" transform="translate(72,83)"/>
<path d="M0 0 C0.33 0.99 0.66 1.98 1 3 C-1.37377457 5.74858108 -3.63231666 6.73711875 -7 8 C-7.99 8.66 -8.98 9.32 -10 10 C-9.67 8.68 -9.34 7.36 -9 6 C-8.34 6 -7.68 6 -7 6 C-7 5.34 -7 4.68 -7 4 C-4.93057424 1.4132178 -3.24271506 0.5590888 0 0 Z " fill="#6B5A6E" transform="translate(43,120)"/>
<path d="M0 0 C0.66 0.33 1.32 0.66 2 1 C2 1.66 2 2.32 2 3 C1.34 3 0.68 3 0 3 C0.33 3.66 0.66 4.32 1 5 C1.04022391 7.3329866 1.04320247 9.66706666 1 12 C-0.32 12.33 -1.64 12.66 -3 13 C-3 12.34 -3 11.68 -3 11 C-3.66 10.67 -4.32 10.34 -5 10 C-4.01 10 -3.02 10 -2 10 C-1.34 6.7 -0.68 3.4 0 0 Z " fill="#69596D" transform="translate(53,98)"/>
<path d="M0 0 C0.66 0 1.32 0 2 0 C2 0.99 2 1.98 2 3 C2.99 2.67 3.98 2.34 5 2 C4.34 3.32 3.68 4.64 3 6 C2.01 6 1.02 6 0 6 C-1.68798827 7.43750191 -1.68798827 7.43750191 -3 9 C-2.44271087 5.65626525 -1.64826111 2.96687001 0 0 Z " fill="#746378" transform="translate(102,107)"/>
<path d="M0 0 C1.670625 0.061875 1.670625 0.061875 3.375 0.125 C2.055 2.765 0.735 5.405 -0.625 8.125 C-1.615 7.465 -2.605 6.805 -3.625 6.125 C-3.625 5.135 -3.625 4.145 -3.625 3.125 C-4.285 2.795 -4.945 2.465 -5.625 2.125 C-3.625 0.125 -3.625 0.125 0 0 Z " fill="#7F6D81" transform="translate(39.625,137.875)"/>
<path d="M0 0 C0.33 0 0.66 0 1 0 C1.33 3.96 1.66 7.92 2 12 C1.01 11.67 0.02 11.34 -1 11 C-2.50662097 7.98675805 -2.17770373 5.31713623 -2 2 C-1.34 1.34 -0.68 0.68 0 0 Z " fill="#6C5D70" transform="translate(65,70)"/>
<path d="M0 0 C-0.33 0.66 -0.66 1.32 -1 2 C-5.54093172 3.41904116 -10.2943099 3.09226843 -15 3 C-15 2.34 -15 1.68 -15 1 C-10.03926578 -0.32286246 -5.08888488 -0.08893197 0 0 Z " fill="#645568" transform="translate(150,71)"/>
<path d="M0 0 C0.66 0.33 1.32 0.66 2 1 C1.33035714 8.09821429 1.33035714 8.09821429 -2 11 C-2.05399736 9.54207116 -2.09279177 8.08357288 -2.125 6.625 C-2.15980469 5.40683594 -2.15980469 5.40683594 -2.1953125 4.1640625 C-2 2 -2 2 0 0 Z " fill="#67586B" transform="translate(51,176)"/>
<path d="M0 0 C0.33 0 0.66 0 1 0 C1.66 2.97 2.32 5.94 3 9 C1.35 8.67 -0.3 8.34 -2 8 C-1.125 1.125 -1.125 1.125 0 0 Z " fill="#6C5C70" transform="translate(78,167)"/>
<path d="M0 0 C0.33 0 0.66 0 1 0 C1 2.31 1 4.62 1 7 C1.66 7.33 2.32 7.66 3 8 C2.34 8 1.68 8 1 8 C1.34786708 9.97536745 1.34786708 9.97536745 2 12 C2.66 12.33 3.32 12.66 4 13 C4 13.66 4 14.32 4 15 C2 14 0 13 -2 12 C-1.34 8.04 -0.68 4.08 0 0 Z " fill="#847287" transform="translate(87,146)"/>
<path d="M0 0 C0.33 0 0.66 0 1 0 C0.88541307 1.43836751 0.75790884 2.87570966 0.625 4.3125 C0.55539063 5.11300781 0.48578125 5.91351563 0.4140625 6.73828125 C0 9 0 9 -2 12 C-2.66 12 -3.32 12 -4 12 C-3.52494322 10.18641846 -3.04483958 8.37415821 -2.5625 6.5625 C-2.29566406 5.55316406 -2.02882812 4.54382812 -1.75390625 3.50390625 C-1 1 -1 1 0 0 Z " fill="#665669" transform="translate(137,59)"/>
<path d="M0 0 C3.3 0 6.6 0 10 0 C10 0.66 10 1.32 10 2 C7.04335481 3.4783226 4.25770263 3.06032783 1 3 C0.67 2.01 0.34 1.02 0 0 Z " fill="#96849A" transform="translate(19,142)"/>
<path d="M0 0 C1.10647808 2.21295616 1.19588368 3.54672699 1.25 6 C1.27578125 6.70125 1.3015625 7.4025 1.328125 8.125 C1.21984375 8.74375 1.1115625 9.3625 1 10 C0.01 10.66 -0.98 11.32 -2 12 C-3.35384615 4.61538462 -3.35384615 4.61538462 -1.5625 1.5 C-1.046875 1.005 -0.53125 0.51 0 0 Z " fill="#67576B" transform="translate(102,112)"/>
<path d="M0 0 C0 3.96371154 -1.49924573 4.99909488 -4 8 C-4.53625 8.9075 -5.0725 9.815 -5.625 10.75 C-7 13 -7 13 -9 14 C-7.34966761 8.71893635 -3.90667286 3.90667286 0 0 Z " fill="#837285" transform="translate(76,54)"/>
<path d="M0 0 C0.33 0.66 0.66 1.32 1 2 C3.35599235 2.46751788 3.35599235 2.46751788 6.0625 2.625 C7.44115234 2.73714844 7.44115234 2.73714844 8.84765625 2.8515625 C9.55792969 2.90054688 10.26820312 2.94953125 11 3 C11 3.66 11 4.32 11 5 C6.07872966 5.16682272 2.49656104 5.24828052 -2 3 C-1.34 2.67 -0.68 2.34 0 2 C0 1.34 0 0.68 0 0 Z " fill="#8A788E" transform="translate(78,177)"/>
<path d="M0 0 C0.66 1.32 1.32 2.64 2 4 C1.54625 4.391875 1.0925 4.78375 0.625 5.1875 C-1.27642919 7.30832487 -2.06204028 9.33042235 -3 12 C-3.66 11.67 -4.32 11.34 -5 11 C-4.01 8.03 -3.02 5.06 -2 2 C-1.34 2 -0.68 2 0 2 C0 1.34 0 0.68 0 0 Z " fill="#8B798F" transform="translate(52,168)"/>
<path d="M0 0 C0.99 0 1.98 0 3 0 C3 2.97 3 5.94 3 9 C2.01 8.67 1.02 8.34 0 8 C0 5.36 0 2.72 0 0 Z " fill="#69596D" transform="translate(92,136)"/>
<path d="M0 0 C0.66 0.66 1.32 1.32 2 2 C1.34 2 0.68 2 0 2 C0.33 3.65 0.66 5.3 1 7 C-0.65 7 -2.3 7 -4 7 C-3.6875 4.625 -3.6875 4.625 -3 2 C-2.01 1.34 -1.02 0.68 0 0 Z " fill="#66576A" transform="translate(27,169)"/>
<path d="M0 0 C2.97 0 5.94 0 9 0 C9.33 0.66 9.66 1.32 10 2 C7.26094655 3.36952673 5.02912668 3.12621361 2 3 C1.34 2.67 0.68 2.34 0 2 C0 1.34 0 0.68 0 0 Z " fill="#67576B" transform="translate(98,162)"/>
<path d="M0 0 C0.99 0.33 1.98 0.66 3 1 C2.4140625 7.15234375 2.4140625 7.15234375 2 9 C1.01 9.495 1.01 9.495 0 10 C-1.36952673 7.26094655 -1.12621361 5.02912668 -1 2 C-0.67 1.34 -0.34 0.68 0 0 Z " fill="#665669" transform="translate(18,102)"/>
<path d="M0 0 C0.33 0 0.66 0 1 0 C1 2.97 1 5.94 1 9 C0.34 8.01 -0.32 7.02 -1 6 C-1.66 7.32 -2.32 8.64 -3 10 C-3 7.36 -3 4.72 -3 2 C-2.01 2 -1.02 2 0 2 C0 1.34 0 0.68 0 0 Z " fill="#736277" transform="translate(114,144)"/>
<path d="M0 0 C0.33 0.99 0.66 1.98 1 3 C-0.8125 5.6875 -0.8125 5.6875 -3 8 C-3.66 8 -4.32 8 -5 8 C-4.64950425 4.75791433 -4.43778819 3.38472296 -1.9375 1.1875 C-1.298125 0.795625 -0.65875 0.40375 0 0 Z " fill="#6A5A6E" transform="translate(48,133)"/>
<path d="M0 0 C0 0.99 0 1.98 0 3 C-1.32 3.33 -2.64 3.66 -4 4 C-4 4.66 -4 5.32 -4 6 C-4.99 6 -5.98 6 -7 6 C-4.84615385 0 -4.84615385 0 0 0 Z " fill="#68586C" transform="translate(57,126)"/>
<path d="M0 0 C2.20080053 3.3012008 2.21218749 3.89101158 1.75 7.625 C1.66234375 8.42164063 1.5746875 9.21828125 1.484375 10.0390625 C1.32453125 10.68617188 1.1646875 11.33328125 1 12 C0.01 12.495 0.01 12.495 -1 13 C-0.67 8.71 -0.34 4.42 0 0 Z " fill="#645568" transform="translate(115,146)"/>
<path d="M0 0 C0.99 0.33 1.98 0.66 3 1 C-0.32307692 4.93846154 -0.32307692 4.93846154 -3.75 5.25 C-4.4925 5.1675 -5.235 5.085 -6 5 C-5.67 4.34 -5.34 3.68 -5 3 C-4.01 3 -3.02 3 -2 3 C-2 2.34 -2 1.68 -2 1 C-1.34 0.67 -0.68 0.34 0 0 Z " fill="#67586B" transform="translate(27,136)"/>
<path d="M0 0 C0 0.99 0 1.98 0 3 C0.99 3.33 1.98 3.66 3 4 C1.35 4.66 -0.3 5.32 -2 6 C-2 5.34 -2 4.68 -2 4 C-2.66 4 -3.32 4 -4 4 C-4 3.01 -4 2.02 -4 1 C-2 0 -2 0 0 0 Z " fill="#766579" transform="translate(57,138)"/>
<path d="M0 0 C0.66 0 1.32 0 2 0 C2.33 1.65 2.66 3.3 3 5 C2.01 4.34 1.02 3.68 0 3 C0 2.01 0 1.02 0 0 Z M-3 3 C-2.01 3 -1.02 3 0 3 C0 3.99 0 4.98 0 6 C-0.66 6 -1.32 6 -2 6 C-2.33 6.99 -2.66 7.98 -3 9 C-3 7.02 -3 5.04 -3 3 Z " fill="#7A687D" transform="translate(14,129)"/>
<path d="M0 0 C0.33 0.99 0.66 1.98 1 3 C0.01 3.33 -0.98 3.66 -2 4 C-2 4.66 -2 5.32 -2 6 C-3.65 6.33 -5.3 6.66 -7 7 C-7 6.34 -7 5.68 -7 5 C-5.46875 3.7109375 -5.46875 3.7109375 -3.5 2.375 C-2.8503125 1.92898437 -2.200625 1.48296875 -1.53125 1.0234375 C-1.0259375 0.68570312 -0.520625 0.34796875 0 0 Z " fill="#69596D" transform="translate(101,30)"/>
<path d="M0 0 C0.66 0.66 1.32 1.32 2 2 C1.67 2.99 1.34 3.98 1 5 C1.66 5.33 2.32 5.66 3 6 C2.38125 6.12375 1.7625 6.2475 1.125 6.375 C-1.19120832 6.87197356 -1.19120832 6.87197356 -3 9 C-2.67 7.02 -2.34 5.04 -2 3 C-1.34 3 -0.68 3 0 3 C0 2.01 0 1.02 0 0 Z " fill="#8D7C92" transform="translate(45,140)"/>
<path d="M0 0 C0.99 0.33 1.98 0.66 3 1 C3 1.99 3 2.98 3 4 C1.35 4.66 -0.3 5.32 -2 6 C-1.125 1.125 -1.125 1.125 0 0 Z " fill="#68596C" transform="translate(11,128)"/>
<path d="M0 0 C1.32 0.33 2.64 0.66 4 1 C4 1.99 4 2.98 4 4 C3.01 4.33 2.02 4.66 1 5 C1 4.34 1 3.68 1 3 C0.01 3.33 -0.98 3.66 -2 4 C-1.34 2.68 -0.68 1.36 0 0 Z " fill="#806F84" transform="translate(128,25)"/>
<path d="M0 0 C1.69141656 0.08963062 3.37959602 0.24577676 5.0625 0.4375 C6.44115234 0.59025391 6.44115234 0.59025391 7.84765625 0.74609375 C8.55792969 0.82988281 9.26820312 0.91367188 10 1 C9.67 1.66 9.34 2.32 9 3 C2.375 3.25 2.375 3.25 -1 1 C-0.67 0.67 -0.34 0.34 0 0 Z " fill="#635467" transform="translate(81,176)"/>
<path d="M0 0 C0.66 0 1.32 0 2 0 C1.67 1.32 1.34 2.64 1 4 C0.34 4 -0.32 4 -1 4 C-1.33 4.99 -1.66 5.98 -2 7 C-2.66 7 -3.32 7 -4 7 C-3.67 5.35 -3.34 3.7 -3 2 C-2.34 2 -1.68 2 -1 2 C-0.67 1.34 -0.34 0.68 0 0 Z " fill="#67576B" transform="translate(70,153)"/>
<path d="M0 0 C0.66 0 1.32 0 2 0 C1.35455571 3.48539917 -0.10134397 6.02819057 -2 9 C-2.33 8.34 -2.66 7.68 -3 7 C-2.06421005 4.64018187 -1.06652192 2.30368736 0 0 Z " fill="#68596B" transform="translate(121,97)"/>
<path d="M0 0 C0.66 0 1.32 0 2 0 C1.34 1.98 0.68 3.96 0 6 C-0.99 6 -1.98 6 -3 6 C-3 5.01 -3 4.02 -3 3 C-2.01 3 -1.02 3 0 3 C0 2.01 0 1.02 0 0 Z " fill="#A2899D" transform="translate(127,78)"/>
<path d="M0 0 C1 2 1 2 0.44140625 3.9453125 C0.15136719 4.66460937 -0.13867188 5.38390625 -0.4375 6.125 C-0.72496094 6.84945312 -1.01242188 7.57390625 -1.30859375 8.3203125 C-1.53675781 8.87460938 -1.76492187 9.42890625 -2 10 C-2.99424641 7.01726077 -3.31845551 5.10494126 -3 2 C-2.01 1.34 -1.02 0.68 0 0 Z " fill="#A1899E" transform="translate(132,67)"/>
<path d="M0 0 C0.66 0 1.32 0 2 0 C2.66 2.64 3.32 5.28 4 8 C2.35 6.35 0.7 4.7 -1 3 C-0.67 2.01 -0.34 1.02 0 0 Z " fill="#655568" transform="translate(70,174)"/>
<path d="M0 0 C0.33 0.99 0.66 1.98 1 3 C-1.15343189 6.23014784 -2.27059611 7.75686537 -6 9 C-6 8.34 -6 7.68 -6 7 C-5.34 7 -4.68 7 -4 7 C-3.71125 6.21625 -3.4225 5.4325 -3.125 4.625 C-2 2 -2 2 0 0 Z " fill="#B096A8" transform="translate(78,59)"/>
<path d="M0 0 C0 1.65 0 3.3 0 5 C-0.66 5 -1.32 5 -2 5 C-2.33 5.99 -2.66 6.98 -3 8 C-3.33 8 -3.66 8 -4 8 C-4.36780384 3.46375267 -4.36780384 3.46375267 -2.5625 1.1875 C-1 0 -1 0 0 0 Z " fill="#69596D" transform="translate(142,48)"/>
</svg>
