<?xml version="1.0" encoding="UTF-8"?>
<svg version="1.1" xmlns="http://www.w3.org/2000/svg" width="192" height="125">
<path d="M0 0 C5.55113721 -0.16224463 8.70829518 1.49565282 12.82543945 5.0949707 C14.4450796 7.10145403 15.77872069 9.16121422 17.1184082 11.36450195 C19.63184563 15.38485151 22.47466003 19.16073581 25.3112793 22.95800781 C33.02217029 33.535148 34.21208934 45.30613992 32.82543945 58.0949707 C29.23075203 76.07936721 18.79371884 94.27134716 3.82543945 105.0949707 C-2.56307048 109.02226054 -8.0785051 112.04866936 -15.6315918 112.41137695 C-16.91924438 112.474823 -16.91924438 112.474823 -18.23291016 112.53955078 C-21.9862959 112.70025332 -25.73957769 112.8578975 -29.49389648 112.99536133 C-31.17189152 113.05771306 -32.84969434 113.12579873 -34.52709961 113.20239258 C-36.5545737 113.29242088 -38.58337426 113.35100627 -40.61206055 113.4074707 C-42.31168945 113.46354492 -42.31168945 113.46354492 -44.0456543 113.52075195 C-47.98641177 112.98449407 -50.08312275 111.55045558 -53.17456055 109.0949707 C-55.44205781 106.09206892 -56.98622504 103.65997723 -58.17456055 100.0949707 C-63.21766892 102.02321802 -65.61377876 106.29082384 -68.76049805 110.46606445 C-73.19515838 115.29539521 -78.27133331 116.83065768 -84.6550293 117.26293945 C-102.739154 117.39341654 -118.13898138 115.84967096 -131.7956543 102.76293945 C-145.3228311 87.59206629 -153.27045694 67.31130459 -152.5222168 46.96606445 C-151.67411789 37.5226261 -148.41783215 30.13760159 -142.17456055 23.0949707 C-141.45655273 22.28157227 -140.73854492 21.46817383 -139.9987793 20.63012695 C-138.45904188 18.90924395 -136.90833532 17.198108 -135.34643555 15.49731445 C-133.00349431 12.90575176 -130.80519248 10.22565862 -128.65893555 7.4699707 C-125.05343123 4.13013512 -120.85377868 3.83957559 -116.1315918 3.8293457 C-114.39619141 3.82547852 -114.39619141 3.82547852 -112.62573242 3.8215332 C-111.4249707 3.82926758 -110.22420898 3.83700195 -108.98706055 3.8449707 C-107.21492188 3.83336914 -107.21492188 3.83336914 -105.40698242 3.8215332 C-88.41930909 3.85917902 -78.26797886 8.08582708 -66.17456055 20.0949707 C-64.40167677 22.04275782 -62.78165 24.00575442 -61.17456055 26.0949707 C-58.08309271 23.10011124 -55.26164222 20.01232421 -52.48706055 16.7199707 C-44.8630614 8.08902827 -35.17218797 1.78957366 -23.51489258 0.88964844 C-22.58016113 0.85299072 -21.64542969 0.81633301 -20.68237305 0.77856445 C-19.64725586 0.73666992 -18.61213867 0.69477539 -17.5456543 0.65161133 C-16.47444336 0.61229492 -15.40323242 0.57297852 -14.29956055 0.5324707 C-13.23608398 0.48928711 -12.17260742 0.44610352 -11.0769043 0.40161133 C-7.38490739 0.25714188 -3.69124438 0.16120962 0 0 Z " fill="#D88F2C" transform="translate(156.174560546875,3.905029296875)"/>
<path d="M0 0 C1.12535156 0.02771484 2.25070313 0.05542969 3.41015625 0.08398438 C12.85495198 0.47160316 21.92728788 2.23107324 29.375 8.4375 C30.07625 9.0046875 30.7775 9.571875 31.5 10.15625 C33.40453183 11.96555523 34.93485082 13.74127249 36.375 15.9375 C36.375 16.5975 36.375 17.2575 36.375 17.9375 C37.035 17.9375 37.695 17.9375 38.375 17.9375 C42.74428995 26.13740032 46.27819967 33.82448317 48.375 42.9375 C48.705 43.9275 49.035 44.9175 49.375 45.9375 C50.19630451 62.03888835 47.0708634 71.39482323 36.671875 83.72265625 C35.375 84.9375 35.375 84.9375 33.375 84.9375 C33.2821875 85.80375 33.2821875 85.80375 33.1875 86.6875 C32.02926021 89.89493327 30.16359442 91.05682004 27.375 92.9375 C22.46048187 94.56832664 17.34838528 93.90047052 12.25 93.6875 C10.75726563 93.64689453 10.75726563 93.64689453 9.234375 93.60546875 C0.73476605 93.2614898 -7.72937891 92.23169602 -14.4375 86.5625 C-15.1696875 85.94632812 -15.901875 85.33015625 -16.65625 84.6953125 C-17.3059375 84.11523438 -17.955625 83.53515625 -18.625 82.9375 C-20.0171875 81.7 -20.0171875 81.7 -21.4375 80.4375 C-33.12326641 67.08233838 -37.53156863 49.20446993 -36.625 31.9375 C-36.3314118 30.2633749 -36.01308059 28.59227562 -35.625 26.9375 C-34.965 26.9375 -34.305 26.9375 -33.625 26.9375 C-33.521875 26.215625 -33.41875 25.49375 -33.3125 24.75 C-31.7774945 18.47043204 -27.48834835 13.3438319 -22.5 9.375 C-19.60391203 7.24331418 -19.60391203 7.24331418 -18.5625 4.8125 C-15.10724425 -2.09801149 -6.36597713 -0.30365211 0 0 Z " fill="#A45E12" transform="translate(49.625,17.0625)"/>
<path d="M0 0 C4.91487863 0.40957322 8.7744176 0.84405078 12.4765625 4.453125 C14.70053933 7.24916523 16.42921739 10.29240442 18.18359375 13.3984375 C19.95666861 16.36760087 21.93695723 19.07715368 24.015625 21.83984375 C31.9467833 32.57112474 33.2465588 44.07037553 31.828125 57.15234375 C28.23343758 75.13674026 17.79640438 93.32872021 2.828125 104.15234375 C-3.56038494 108.07963359 -9.07581955 111.10604241 -16.62890625 111.46875 C-17.91655884 111.53219604 -17.91655884 111.53219604 -19.23022461 111.59692383 C-22.98361036 111.75762636 -26.73689214 111.91527054 -30.49121094 112.05273438 C-32.16920597 112.1150861 -33.84700879 112.18317178 -35.52441406 112.25976562 C-37.55188816 112.34979393 -39.58068871 112.40837932 -41.609375 112.46484375 C-43.30900391 112.52091797 -43.30900391 112.52091797 -45.04296875 112.578125 C-48.98372622 112.04186712 -51.0804372 110.60782863 -54.171875 108.15234375 C-56.43937226 105.14944197 -57.98353949 102.71735027 -59.171875 99.15234375 C-64.21498337 101.08059107 -66.61109321 105.34819689 -69.7578125 109.5234375 C-74.19247284 114.35276826 -79.26864777 115.88803072 -85.65234375 116.3203125 C-103.73646845 116.45078959 -119.13629583 114.90704401 -132.79296875 101.8203125 C-146.32014555 86.64943934 -154.26777139 66.36867763 -153.51953125 46.0234375 C-152.67143235 36.57999915 -149.41514661 29.19497464 -143.171875 22.15234375 C-142.45386719 21.33894531 -141.73585937 20.52554687 -140.99609375 19.6875 C-139.45635633 17.966617 -137.90564978 16.25548105 -136.34375 14.5546875 C-134.00080877 11.96312481 -131.80250694 9.28303167 -129.65625 6.52734375 C-126.05074568 3.18750817 -121.85109313 2.89694863 -117.12890625 2.88671875 C-115.39350586 2.88285156 -115.39350586 2.88285156 -113.62304688 2.87890625 C-112.42228516 2.88664063 -111.22152344 2.894375 -109.984375 2.90234375 C-108.21223633 2.89074219 -108.21223633 2.89074219 -106.40429688 2.87890625 C-89.41662355 2.91655206 -79.26529331 7.14320013 -67.171875 19.15234375 C-65.39899122 21.10013086 -63.77896445 23.06312747 -62.171875 25.15234375 C-58.2966322 21.39820229 -54.75152431 17.42745998 -51.234375 13.3359375 C-47.13568993 8.99660993 -43.26937981 6.53775149 -37.671875 4.46484375 C-36.5684375 4.04847656 -35.465 3.63210937 -34.328125 3.203125 C-28.97014421 1.41934179 -24.20302371 0.96928042 -18.546875 0.90234375 C-17.23460937 0.8765625 -15.92234375 0.85078125 -14.5703125 0.82421875 C-11.171875 1.15234375 -11.171875 1.15234375 -9.2109375 2.66796875 C-8.69660156 3.40273437 -8.69660156 3.40273437 -8.171875 4.15234375 C-9.35523438 4.11753906 -10.53859375 4.08273437 -11.7578125 4.046875 C-22.19071075 3.8327876 -30.73968393 4.28820934 -40.171875 9.15234375 C-40.171875 9.81234375 -40.171875 10.47234375 -40.171875 11.15234375 C-44.55649038 14.15234375 -44.55649038 14.15234375 -47.171875 14.15234375 C-47.5740625 15.11140625 -47.5740625 15.11140625 -47.984375 16.08984375 C-49.171875 18.15234375 -49.171875 18.15234375 -52.171875 19.15234375 C-52.87582112 20.46637651 -53.53533158 21.80436945 -54.171875 23.15234375 C-54.8525 23.93609375 -55.533125 24.71984375 -56.234375 25.52734375 C-58.41581777 28.48284686 -58.83557191 30.53708551 -59.171875 34.15234375 C-58.511875 34.15234375 -57.851875 34.15234375 -57.171875 34.15234375 C-57.171875 35.14234375 -57.171875 36.13234375 -57.171875 37.15234375 C-56.181875 37.15234375 -55.191875 37.15234375 -54.171875 37.15234375 C-54.00751953 38.32990234 -54.00751953 38.32990234 -53.83984375 39.53125 C-53.60201172 41.10712891 -53.60201172 41.10712891 -53.359375 42.71484375 C-53.20855469 43.74738281 -53.05773437 44.77992187 -52.90234375 45.84375 C-52.28057789 49.22991286 -52.28057789 49.22991286 -50.640625 52.43359375 C-48.80676992 57.07675873 -48.61597487 61.14544856 -48.484375 66.08984375 C-48.45021484 66.96447266 -48.41605469 67.83910156 -48.38085938 68.74023438 C-48.29911843 70.87717629 -48.2338037 73.01473593 -48.171875 75.15234375 C-47.511875 74.49234375 -46.851875 73.83234375 -46.171875 73.15234375 C-45.181875 73.15234375 -44.191875 73.15234375 -43.171875 73.15234375 C-42.99428667 77.05928696 -42.93673759 79.85845704 -45.171875 83.15234375 C-46.161875 83.81234375 -47.151875 84.47234375 -48.171875 85.15234375 C-48.89569967 87.21159514 -48.89569967 87.21159514 -49.171875 89.15234375 C-50.821875 89.15234375 -52.471875 89.15234375 -54.171875 89.15234375 C-55.20225933 93.09374395 -55.04880782 95.98849527 -54.234375 99.96484375 C-54.03972656 100.94066406 -53.84507813 101.91648437 -53.64453125 102.921875 C-53.48855469 103.65792969 -53.33257812 104.39398438 -53.171875 105.15234375 C-51.521875 105.15234375 -49.871875 105.15234375 -48.171875 105.15234375 C-47.90375 103.93546875 -47.635625 102.71859375 -47.359375 101.46484375 C-46.4761292 97.93812469 -45.38045778 95.09712079 -43.171875 92.15234375 C-42.511875 92.15234375 -41.851875 92.15234375 -41.171875 92.15234375 C-41.06875 91.61609375 -40.965625 91.07984375 -40.859375 90.52734375 C-39.99094803 87.52732331 -38.61567204 84.91439025 -37.171875 82.15234375 C-36.511875 82.15234375 -35.851875 82.15234375 -35.171875 82.15234375 C-35.0790625 81.16234375 -35.0790625 81.16234375 -34.984375 80.15234375 C-34.04227161 76.67380817 -32.46262393 74.31583499 -30.4921875 71.33203125 C-28.77292978 68.49373005 -27.60615562 65.5324592 -26.45703125 62.42578125 C-25.171875 60.15234375 -25.171875 60.15234375 -22.2265625 57.48828125 C-18.32461099 53.73619974 -17.47467899 49.53800742 -16.234375 44.40234375 C-14.18667721 36.77958782 -11.97812417 29.83887644 -6.171875 24.15234375 C-5.511875 24.15234375 -4.851875 24.15234375 -4.171875 24.15234375 C-4.02492187 23.31703125 -4.02492187 23.31703125 -3.875 22.46484375 C-2.81087558 17.0341398 -1.44167707 11.71377581 1.828125 7.15234375 C2.818125 6.82234375 3.808125 6.49234375 4.828125 6.15234375 C2.84423797 15.12116635 -1.50006788 22.36002055 -6.171875 30.15234375 C-9.06148256 35.07705699 -11.73082632 39.63008001 -12.453125 45.3984375 C-13.37686932 52.12707507 -15.83116356 55.60585751 -20.26171875 60.6796875 C-22.98662356 64.20701827 -24.17449674 67.85114998 -25.171875 72.15234375 C-25.831875 72.15234375 -26.491875 72.15234375 -27.171875 72.15234375 C-27.171875 73.14234375 -27.171875 74.13234375 -27.171875 75.15234375 C-27.831875 75.15234375 -28.491875 75.15234375 -29.171875 75.15234375 C-30.58564841 77.79138746 -31.54427635 80.22355004 -32.171875 83.15234375 C-32.831875 83.15234375 -33.491875 83.15234375 -34.171875 83.15234375 C-34.275 83.70921875 -34.378125 84.26609375 -34.484375 84.83984375 C-35.31365908 87.62925385 -36.51486556 89.76625015 -38.171875 92.15234375 C-38.831875 92.15234375 -39.491875 92.15234375 -40.171875 92.15234375 C-40.171875 93.14234375 -40.171875 94.13234375 -40.171875 95.15234375 C-40.831875 95.15234375 -41.491875 95.15234375 -42.171875 95.15234375 C-42.37683594 95.83941406 -42.58179687 96.52648437 -42.79296875 97.234375 C-43.06238281 98.13542969 -43.33179687 99.03648438 -43.609375 99.96484375 C-43.87621094 100.85816406 -44.14304687 101.75148438 -44.41796875 102.671875 C-44.97575373 104.5070743 -45.56532075 106.33268101 -46.171875 108.15234375 C-44.60947468 108.17964783 -43.0469323 108.19887601 -41.484375 108.21484375 C-40.61425781 108.22644531 -39.74414062 108.23804687 -38.84765625 108.25 C-36.21551626 108.23666453 -36.21551626 108.23666453 -33.87890625 107.6328125 C-30.7976831 107.08592874 -28.00445304 107.19604317 -24.88891602 107.3190918 C-16.34660499 107.62274322 -9.50228419 107.07161646 -2.171875 102.15234375 C-1.66527344 101.64316406 -1.15867188 101.13398437 -0.63671875 100.609375 C0.828125 99.15234375 0.828125 99.15234375 2.796875 98.203125 C5.24766489 96.93531254 6.55646382 95.44570466 8.328125 93.33984375 C8.93140625 92.62570313 9.5346875 91.9115625 10.15625 91.17578125 C10.70796875 90.50804688 11.2596875 89.8403125 11.828125 89.15234375 C12.941875 87.82203125 12.941875 87.82203125 14.078125 86.46484375 C17.61823999 81.78683466 19.77203513 77.00536513 21.86328125 71.5546875 C22.828125 69.15234375 22.828125 69.15234375 23.87890625 67.23046875 C27.75401234 58.7466974 28.0875954 46.19022535 25.828125 37.15234375 C25.168125 36.82234375 24.508125 36.49234375 23.828125 36.15234375 C23.30078125 34.04296875 23.30078125 34.04296875 22.890625 31.40234375 C22.16637431 27.41611357 21.3563156 24.41792327 18.828125 21.15234375 C18.168125 20.82234375 17.508125 20.49234375 16.828125 20.15234375 C16.828125 19.49234375 16.828125 18.83234375 16.828125 18.15234375 C15.838125 17.82234375 14.848125 17.49234375 13.828125 17.15234375 C13.34060505 15.13726129 12.85701738 13.12078827 12.421875 11.09375 C11.93382307 8.95489584 11.93382307 8.95489584 9.890625 7.21484375 C7.72643253 6.03325886 7.72643253 6.03325886 4.828125 5.15234375 C4.828125 4.49234375 4.828125 3.83234375 4.828125 3.15234375 C1.858125 2.82234375 -1.111875 2.49234375 -4.171875 2.15234375 C-2.171875 0.15234375 -2.171875 0.15234375 0 0 Z M-126.171875 16.15234375 C-127.20200777 17.80055619 -128.20302128 19.46738077 -129.171875 21.15234375 C-130.82572733 22.50153907 -132.493577 23.83368103 -134.171875 25.15234375 C-138.16853058 29.52078124 -141.171875 33.08202247 -141.171875 39.15234375 C-141.831875 39.15234375 -142.491875 39.15234375 -143.171875 39.15234375 C-147.20452705 56.55128607 -141.50089125 73.11357791 -132.421875 87.90234375 C-126.98918344 95.61050821 -120.32160019 101.62828163 -111.171875 104.15234375 C-110.54385986 104.32926758 -109.91584473 104.50619141 -109.26879883 104.68847656 C-104.87668682 105.66006963 -100.33981202 105.67286478 -95.859375 105.90234375 C-94.83908203 105.97066406 -93.81878906 106.03898437 -92.76757812 106.109375 C-85.78995277 106.46118804 -80.91378997 106.04931018 -75.234375 101.65234375 C-73.88286633 100.05069487 -73.88286633 100.05069487 -74.171875 97.15234375 C-73.511875 97.15234375 -72.851875 97.15234375 -72.171875 97.15234375 C-63.96173227 89.57700587 -58.51274611 80.64358094 -58.00390625 69.4609375 C-57.99746094 68.18347656 -57.99101563 66.90601563 -57.984375 65.58984375 C-57.97019531 64.30980469 -57.95601563 63.02976563 -57.94140625 61.7109375 C-58.16295449 58.29008246 -58.79365316 56.23693548 -60.171875 53.15234375 C-60.61120238 51.28252355 -61.02669344 49.40698937 -61.421875 47.52734375 C-62.96364518 41.08865585 -65.74828677 35.78076711 -69.171875 30.15234375 C-69.831875 30.15234375 -70.491875 30.15234375 -71.171875 30.15234375 C-71.39875 29.59546875 -71.625625 29.03859375 -71.859375 28.46484375 C-76.03165529 21.11368324 -83.60513985 16.31099115 -91.47412109 13.79882812 C-96.70839632 12.54449683 -101.99841826 12.40619801 -107.359375 12.21484375 C-109.08317383 12.11333008 -109.08317383 12.11333008 -110.84179688 12.00976562 C-117.27290764 11.7528191 -121.37167836 11.6378731 -126.171875 16.15234375 Z " fill="#AC6D20" transform="translate(157.171875,4.84765625)"/>
<path d="M0 0 C0.33 0.66 0.66 1.32 1 2 C1.61488281 1.96519531 2.22976562 1.93039063 2.86328125 1.89453125 C3.67152344 1.86746094 4.47976562 1.84039063 5.3125 1.8125 C6.51326172 1.76029297 6.51326172 1.76029297 7.73828125 1.70703125 C10 2 10 2 11.78125 3.34375 C13.44546615 5.60537707 13.22189312 7.26331821 13 10 C13.639375 10.28875 14.27875 10.5775 14.9375 10.875 C17 12 17 12 18 14 C19.99571323 14.67939174 21.99594773 15.34561559 24 16 C26 18 26 18 26 21 C26.928125 21.103125 27.85625 21.20625 28.8125 21.3125 C32 22 32 22 33.875 23.0625 C35.97611114 26.68108029 35.4328422 31.16042063 34.5 35.125 C34.335 35.74375 34.17 36.3625 34 37 C33.96154557 38.99963028 33.95455719 41.00051633 34 43 C33.01 43.33 32.02 43.66 31 44 C31.11409593 45.45922693 31.24165544 46.91740598 31.375 48.375 C31.47941406 49.59316406 31.47941406 49.59316406 31.5859375 50.8359375 C31.82892588 53.20334191 31.82892588 53.20334191 34 55 C34.375 57.875 34.375 57.875 34 61 C32.125 63.375 32.125 63.375 30 65 C29.34 65 28.68 65 28 65 C28.020625 65.94875 28.04125 66.8975 28.0625 67.875 C28 71 28 71 27 73 C20.50577281 73.36759777 20.50577281 73.36759777 18.484375 71.8984375 C13.30644432 65.27613669 9.9729568 56.33692201 6.96875 48.515625 C5.81939619 45.53101268 4.60205237 42.57848653 3.375 39.625 C2.97023438 38.64789063 2.56546875 37.67078125 2.1484375 36.6640625 C1.07385118 34.05775003 1.07385118 34.05775003 -0.1484375 31.8984375 C-1 30 -1 30 -1 26 C-1.66 26 -2.32 26 -3 26 C-3.26554687 25.18015625 -3.53109375 24.3603125 -3.8046875 23.515625 C-4.15789063 22.43796875 -4.51109375 21.3603125 -4.875 20.25 C-5.22304688 19.18265625 -5.57109375 18.1153125 -5.9296875 17.015625 C-6.89223646 14.09163638 -6.89223646 14.09163638 -8.11328125 11.83203125 C-9.55650556 8.85021539 -9.29473746 6.24211201 -9 3 C-6.82246161 -0.75020501 -4.02857537 -0.26857169 0 0 Z " fill="#EFBD4E" transform="translate(55,24)"/>
<path d="M0 0 C3.44302614 0.72063338 5.00447422 2.33942388 7.15234375 5.05859375 C9.77009458 9.3282586 11.42489069 13.97501636 13.1796875 18.64453125 C14.55925737 22.30389878 16.14560781 25.83599523 17.8125 29.375 C24.6875 44.04769737 24.6875 44.04769737 24.6875 48.5625 C25.3475 48.5625 26.0075 48.5625 26.6875 48.5625 C27.53436259 50.91254369 28.36500196 53.2664313 29.1875 55.625 C29.42597656 56.28177734 29.66445313 56.93855469 29.91015625 57.61523438 C31.43659722 62.04191319 32.1139253 65.81851851 31.6875 70.5625 C29.6875 72.5625 29.6875 72.5625 26.0625 72.6875 C24.94875 72.64625 23.835 72.605 22.6875 72.5625 C22.6875 71.9025 22.6875 71.2425 22.6875 70.5625 C21.6975 71.0575 21.6975 71.0575 20.6875 71.5625 C17.0658042 71.95616259 15.32400683 72.01475485 12.3125 69.875 C10.41491996 67.17459763 10.32867787 65.79189919 10.6875 62.5625 C9.6975 62.5625 8.7075 62.5625 7.6875 62.5625 C7.0275 61.5725 6.3675 60.5825 5.6875 59.5625 C3.955 59.129375 3.955 59.129375 2.1875 58.6875 C1.0325 58.31625 -0.1225 57.945 -1.3125 57.5625 C-1.99382451 55.90177151 -2.65992127 54.234733 -3.3125 52.5625 C-6.81544871 50.84682339 -6.81544871 50.84682339 -10.3125 49.5625 C-11.90472311 46.37805378 -11.22124024 43.02960728 -11 39.5625 C-10.96455078 38.82515625 -10.92910156 38.0878125 -10.89257812 37.328125 C-10.55493805 31.80493805 -10.55493805 31.80493805 -8.3125 29.5625 C-8.06962511 27.12237051 -8.06962511 27.12237051 -8.1875 24.4375 C-8.20554687 23.52742188 -8.22359375 22.61734375 -8.2421875 21.6796875 C-8.26539063 20.98101562 -8.28859375 20.28234375 -8.3125 19.5625 C-9.3025 19.5625 -10.2925 19.5625 -11.3125 19.5625 C-11.68033439 13.06409236 -11.68033439 13.06409236 -9.9375 10.6875 C-8.3125 9.5625 -8.3125 9.5625 -6.3125 8.5625 C-6.168125 7.593125 -6.02375 6.62375 -5.875 5.625 C-5.689375 4.614375 -5.50375 3.60375 -5.3125 2.5625 C-2.3125 0.5625 -2.3125 0.5625 0 0 Z " fill="#EEBC4D" transform="translate(34.3125,30.4375)"/>
<path d="M0 0 C1.89492187 0.04833984 1.89492187 0.04833984 3.828125 0.09765625 C15.84327881 0.58475708 24.84081898 3.67647223 33.625 12 C36.50421002 15.19090432 39.09061362 18.53132711 41.625 22 C42.1715625 22.70898438 42.718125 23.41796875 43.28125 24.1484375 C47.921584 30.51705916 50.21622469 37.55548791 52.625 45 C52.99625 45.969375 53.3675 46.93875 53.75 47.9375 C54.79668977 51.6009142 54.92753974 55.03637478 54.875 58.8125 C54.86376099 59.87416382 54.86376099 59.87416382 54.85229492 60.95727539 C54.60425253 73.0392956 50.87354787 82.11694845 42.625 91 C39.125 94 39.125 94 36.625 94 C36.2228125 95.3921875 36.2228125 95.3921875 35.8125 96.8125 C34.21374015 101.10390801 32.8385672 102.29392654 28.92895508 104.56860352 C23.21784329 107.04287001 17.4308459 106.19688125 11.3125 105.9375 C10.03181641 105.90978516 8.75113281 105.88207031 7.43164062 105.85351562 C-0.01916696 105.58125246 -5.86678631 104.71167795 -12.375 101 C-13.035 100.67 -13.695 100.34 -14.375 100 C-14.375 99.34 -14.375 98.68 -14.375 98 C-14.95894531 97.90074219 -15.54289062 97.80148438 -16.14453125 97.69921875 C-25.17722426 94.86760395 -30.72411753 82.59386826 -35.375 75 C-36.035 74.01 -36.695 73.02 -37.375 72 C-38.0763284 69.67684969 -38.73985174 67.34210921 -39.375 65 C-39.725625 64.01 -40.07625 63.02 -40.4375 62 C-43.81527834 51.19110931 -44.37365854 36.40213801 -39.375 26 C-36.57517623 21.19929207 -33.60889498 16.74637529 -29.1875 13.3125 C-26.57299884 11.16279905 -25.88620062 10.30675369 -24.5 7.4375 C-22.66834126 4.04700353 -20.50658792 2.42432322 -16.97900391 0.77368164 C-11.4427199 -0.87121654 -5.7058179 -0.28355485 0 0 Z M-19.375 10 C-20.40513277 11.64821244 -21.40614628 13.31503702 -22.375 15 C-24.02885233 16.34919532 -25.696702 17.68133728 -27.375 19 C-31.37165558 23.36843749 -34.375 26.92967872 -34.375 33 C-35.035 33 -35.695 33 -36.375 33 C-40.40765205 50.39894232 -34.70401625 66.96123416 -25.625 81.75 C-20.19230844 89.45816446 -13.52472519 95.47593788 -4.375 98 C-3.74698486 98.17692383 -3.11896973 98.35384766 -2.47192383 98.53613281 C1.92018818 99.50772588 6.45706298 99.52052103 10.9375 99.75 C11.95779297 99.81832031 12.97808594 99.88664062 14.02929688 99.95703125 C21.00692223 100.30884429 25.88308503 99.89696643 31.5625 95.5 C32.91400867 93.89835112 32.91400867 93.89835112 32.625 91 C33.285 91 33.945 91 34.625 91 C42.83514273 83.42466212 48.28412889 74.49123719 48.79296875 63.30859375 C48.79941406 62.03113281 48.80585937 60.75367188 48.8125 59.4375 C48.82667969 58.15746094 48.84085937 56.87742188 48.85546875 55.55859375 C48.63392051 52.13773871 48.00322184 50.08459173 46.625 47 C46.18567262 45.1301798 45.77018156 43.25464562 45.375 41.375 C43.83322982 34.9363121 41.04858823 29.62842336 37.625 24 C36.965 24 36.305 24 35.625 24 C35.398125 23.443125 35.17125 22.88625 34.9375 22.3125 C30.76521971 14.96133949 23.19173515 10.1586474 15.32275391 7.64648438 C10.08847868 6.39215308 4.79845674 6.25385426 -0.5625 6.0625 C-2.28629883 5.96098633 -2.28629883 5.96098633 -4.04492188 5.85742188 C-10.47603264 5.60047535 -14.57480336 5.48552935 -19.375 10 Z " fill="#E7A635" transform="translate(50.375,11)"/>
<path d="M0 0 C1.86576744 5.17870065 -0.81240684 9.27818799 -3 14 C-4.5 16.75 -4.5 16.75 -6 19 C-6.598125 19.928125 -7.19625 20.85625 -7.8125 21.8125 C-13.00211002 29.37450317 -17.87111971 36.38631119 -26 41 C-26.66 41.66 -27.32 42.32 -28 43 C-36.60631 48.26368067 -46.29600553 47.59611648 -56 47 C-56.99 46.67 -57.98 46.34 -59 46 C-59.77434454 39.00221974 -59.03583341 34.93365854 -54.60546875 29.3984375 C-53 28 -53 28 -50 28 C-49.79375 26.948125 -49.5875 25.89625 -49.375 24.8125 C-48.11849608 20.33279036 -45.77498446 18.59530182 -42 16 C-41.34 16 -40.68 16 -40 16 C-39.7834375 14.576875 -39.7834375 14.576875 -39.5625 13.125 C-39 10 -39 10 -38 8 C-37.01 8 -36.02 8 -35 8 C-35 9.98 -35 11.96 -35 14 C-34.34 14 -33.68 14 -33 14 C-32.87625 13.195625 -32.7525 12.39125 -32.625 11.5625 C-32.315625 10.2940625 -32.315625 10.2940625 -32 9 C-31.34 8.67 -30.68 8.34 -30 8 C-29.01 8.33 -28.02 8.66 -27 9 C-27 7.35 -27 5.7 -27 4 C-25.35 3.34 -23.7 2.68 -22 2 C-21.855625 2.9075 -21.71125 3.815 -21.5625 4.75 C-21.13590527 7.21476956 -20.64925779 9.58847107 -20 12 C-20.66 12 -21.32 12 -22 12 C-21.7525 12.86625 -21.505 13.7325 -21.25 14.625 C-20.92476422 19.01568308 -22.23226791 20.67872149 -25 24 C-25.66 24 -26.32 24 -27 24 C-27 24.99 -27 25.98 -27 27 C-25.35 26.34 -23.7 25.68 -22 25 C-22 24.34 -22 23.68 -22 23 C-21.34 23 -20.68 23 -20 23 C-19.04807896 20.65680974 -18.10589396 18.33334668 -17.33984375 15.921875 C-17.10394531 15.20515625 -16.86804688 14.4884375 -16.625 13.75 C-16.41101563 13.06421875 -16.19703125 12.3784375 -15.9765625 11.671875 C-15 10 -15 10 -12.8984375 9.265625 C-12.27195313 9.17796875 -11.64546875 9.0903125 -11 9 C-11.56825653 14.54050113 -13.62886517 19.03715966 -16 24 C-15.38125 23.34 -14.7625 22.68 -14.125 22 C-12 20 -12 20 -10 20 C-10 18.68 -10 17.36 -10 16 C-9.34 15.67 -8.68 15.34 -8 15 C-7.34786708 12.97536745 -7.34786708 12.97536745 -7 11 C-6.34 11 -5.68 11 -5 11 C-4.67 9.02 -4.34 7.04 -4 5 C-3.34 5 -2.68 5 -2 5 C-1.67 4.01 -1.34 3.02 -1 2 C-0.67 1.34 -0.34 0.68 0 0 Z " fill="#D58B28" transform="translate(182,66)"/>
<path d="M0 0 C6.765625 2.7421875 6.765625 2.7421875 8.875 5.0625 C10.49506207 9.29266206 10.74672702 13.50222121 11 18 C11.99 18.33 12.98 18.66 14 19 C15.85975252 28.06629351 15.61411435 37.35579366 12 46 C9.9375 47.15234375 9.9375 47.15234375 8 48 C7.18415432 51.05908413 7.18415432 51.05908413 7 54 C6.34 54 5.68 54 5 54 C4.855625 54.721875 4.71125 55.44375 4.5625 56.1875 C4.04166667 58.79166667 3.52083333 61.39583333 3 64 C2.01 64 1.02 64 0 64 C-0.66 64.99 -1.32 65.98 -2 67 C-2.66 67 -3.32 67 -4 67 C-3.24029922 63.64132288 -2.12906745 60.47876342 -0.9375 57.25 C-0.57527344 56.26515625 -0.21304688 55.2803125 0.16015625 54.265625 C0.43730469 53.51796875 0.71445313 52.7703125 1 52 C-0.98 52.495 -0.98 52.495 -3 53 C-3.0825 54.03125 -3.165 55.0625 -3.25 56.125 C-4.06463946 60.33397057 -5.32915914 62.68168257 -8 66 C-8.66 66 -9.32 66 -10 66 C-10 66.66 -10 67.32 -10 68 C-12.475 68.99 -12.475 68.99 -15 70 C-15 69.01 -15 68.02 -15 67 C-13.515 66.01 -13.515 66.01 -12 65 C-9.52449745 61.0844885 -9.52449745 61.0844885 -9.3125 56.625 C-9.539375 56.08875 -9.76625 55.5525 -10 55 C-8.02 54.505 -8.02 54.505 -6 54 C-6 52.02 -6 50.04 -6 48 C-6.66 48 -7.32 48 -8 48 C-6.65365543 43.5937814 -4.80625626 41.56922298 -1 39 C-0.34 39 0.32 39 1 39 C2.04005702 35.61981469 2.08004482 32.5219721 2 29 C2.99 28.67 3.98 28.34 5 28 C4.67 25.69 4.34 23.38 4 21 C3.34 21 2.68 21 2 21 C2 21.66 2 22.32 2 23 C1.34 23.33 0.68 23.66 0 24 C-0.46898963 26.8159849 -0.46898963 26.8159849 -0.625 30.0625 C-0.69976562 31.16722656 -0.77453125 32.27195313 -0.8515625 33.41015625 C-0.90054688 34.26480469 -0.94953125 35.11945312 -1 36 C-2.98 36.66 -4.96 37.32 -7 38 C-7.45732667 32.28341664 -6.52273754 29.51350747 -3 25 C-3.33 24.67 -3.66 24.34 -4 24 C-3.43940206 15.87132982 -1.6673273 7.95912846 0 0 Z " fill="#DE9735" transform="translate(170,23)"/>
<path d="M0 0 C1.88574219 -0.05517578 1.88574219 -0.05517578 4.75292969 0.09716797 C5.74292969 1.08716797 5.74292969 1.08716797 6.75292969 2.09716797 C4.11292969 2.09716797 1.47292969 2.09716797 -1.24707031 2.09716797 C-0.25707031 2.75716797 0.73292969 3.41716797 1.75292969 4.09716797 C-0.88707031 4.09716797 -3.52707031 4.09716797 -6.24707031 4.09716797 C-6.24707031 4.75716797 -6.24707031 5.41716797 -6.24707031 6.09716797 C-7.19582031 6.32404297 -8.14457031 6.55091797 -9.12207031 6.78466797 C-12.41022915 7.7712973 -12.41022915 7.7712973 -13.49707031 10.53466797 C-13.74457031 11.38029297 -13.99207031 12.22591797 -14.24707031 13.09716797 C-16.65143057 16.70370836 -18.19386638 16.95169729 -22.24707031 18.09716797 C-21.58707031 15.45716797 -20.92707031 12.81716797 -20.24707031 10.09716797 C-22.22707031 11.08716797 -22.22707031 11.08716797 -24.24707031 12.09716797 C-24.24707031 11.43716797 -24.24707031 10.77716797 -24.24707031 10.09716797 C-24.90707031 10.09716797 -25.56707031 10.09716797 -26.24707031 10.09716797 C-26.33988281 10.99435547 -26.33988281 10.99435547 -26.43457031 11.90966797 C-27.56684353 14.95809587 -29.49239055 15.51322711 -32.24707031 17.09716797 C-32.57707031 18.08716797 -32.90707031 19.07716797 -33.24707031 20.09716797 C-33.87355469 20.37560547 -34.50003906 20.65404297 -35.14550781 20.94091797 C-38.11172013 22.57288608 -38.61079385 24.50500633 -39.87207031 27.59716797 C-42.07218242 32.92228008 -42.07218242 32.92228008 -44.24707031 35.09716797 C-47.40903155 38.5120861 -47.80769012 41.52761394 -48.24707031 46.09716797 C-47.58707031 46.09716797 -46.92707031 46.09716797 -46.24707031 46.09716797 C-47.47846432 48.55995598 -49.02771954 49.52214484 -51.24707031 51.09716797 C-52.69891509 46.56015303 -53.48216228 42.91655321 -53.24707031 38.09716797 C-54.23707031 38.09716797 -55.22707031 38.09716797 -56.24707031 38.09716797 C-56.24707031 37.10716797 -56.24707031 36.11716797 -56.24707031 35.09716797 C-56.90707031 35.09716797 -57.56707031 35.09716797 -58.24707031 35.09716797 C-58.823312 31.88667858 -58.64231738 29.76437402 -56.96972656 26.94091797 C-46.76809499 13.43127434 -46.76809499 13.43127434 -39.24707031 12.09716797 C-39.24707031 11.43716797 -39.24707031 10.77716797 -39.24707031 10.09716797 C-30.26552002 2.91192773 -20.13301695 3.85936816 -9.24707031 4.09716797 C-11.49872642 1.84551186 -16.2025303 2.84973296 -19.2409668 2.84179688 C-25.0423199 2.92289623 -29.8698357 4.04440615 -35.24707031 6.09716797 C-37.04144531 6.68498047 -37.04144531 6.68498047 -38.87207031 7.28466797 C-39.65582031 7.55279297 -40.43957031 7.82091797 -41.24707031 8.09716797 C-37.56068207 3.54339426 -31.82154373 2.02139257 -26.24707031 1.09716797 C-24.41874557 0.95602412 -22.58723896 0.85262192 -20.75488281 0.78076172 C-19.71976563 0.73886719 -18.68464844 0.69697266 -17.61816406 0.65380859 C-16.54695313 0.61449219 -15.47574219 0.57517578 -14.37207031 0.53466797 C-13.30859375 0.49148437 -12.24511719 0.44830078 -11.14941406 0.40380859 C-7.43324402 0.25839324 -3.71548656 0.16066533 0 0 Z " fill="#CA8121" transform="translate(156.2470703125,3.90283203125)"/>
<path d="M0 0 C3.875 1.875 3.875 1.875 5 3 C5.14057899 7.28765925 5.10289933 10.8641275 4 15 C3.96154557 16.99963028 3.95455719 19.00051633 4 21 C3.01 21.33 2.02 21.66 1 22 C1.11409593 23.45922693 1.24165544 24.91740598 1.375 26.375 C1.44460937 27.18710938 1.51421875 27.99921875 1.5859375 28.8359375 C1.82892588 31.20334191 1.82892588 31.20334191 4 33 C4.375 35.875 4.375 35.875 4 39 C2.125 41.375 2.125 41.375 0 43 C-0.66 43 -1.32 43 -2 43 C-1.979375 43.94875 -1.95875 44.8975 -1.9375 45.875 C-2 49 -2 49 -3 51 C-9.49422719 51.36759777 -9.49422719 51.36759777 -11.515625 49.8984375 C-16.88070985 43.03677635 -21.63950505 32.40058498 -24 24 C-23.67 23.34 -23.34 22.68 -23 22 C-22.34 22 -21.68 22 -21 22 C-19.33034549 21.68197057 -17.66321482 21.35015049 -16 21 C-15.9690625 19.1128125 -15.9690625 19.1128125 -15.9375 17.1875 C-15.92589844 16.47980469 -15.91429688 15.77210937 -15.90234375 15.04296875 C-15.91736783 12.79694539 -15.91736783 12.79694539 -17 10 C-15.125 10.25 -15.125 10.25 -13 11 C-10.76480913 14.31024807 -10.81513339 17.08426833 -10.9375 21 C-11.03967454 24.55389688 -11.057351 27.59024795 -10 31 C-9.01 31 -8.02 31 -7 31 C-7 30.01 -7 29.02 -7 28 C-5.68 28 -4.36 28 -3 28 C-3 25.69 -3 23.38 -3 21 C-2.34 21 -1.68 21 -1 21 C-1.0825 20.29875 -1.165 19.5975 -1.25 18.875 C-1 16 -1 16 1 13.0625 C3.22696814 9.65245503 3.37905384 7.98006535 3 4 C2.34 5.32 1.68 6.64 1 8 C0.26919734 6.02253397 -0.39421747 4.01927511 -1 2 C-0.67 1.34 -0.34 0.68 0 0 Z " fill="#ECBA4C" transform="translate(85,46)"/>
<path d="M0 0 C6.02680326 0 9.59896448 0.11944772 15 3 C15 2.34 15 1.68 15 1 C17.875 0.875 17.875 0.875 21 1 C23 3 23 3 23 6 C24.32 6 25.64 6 27 6 C26.979375 6.804375 26.95875 7.60875 26.9375 8.4375 C26.70366379 10.93354885 26.70366379 10.93354885 28 12 C28.66 11.34 29.32 10.68 30 10 C31 11 31 11 31.3125 13.6875 C30.92662499 17.77777507 29.33468294 19.67484551 27 23 C26.21784412 25.7282504 26.21784412 25.7282504 26 28 C25.34 28 24.68 28 24 28 C24 30.31 24 32.62 24 35 C22.68 35 21.36 35 20 35 C20 35.99 20 36.98 20 38 C19.01 38 18.02 38 17 38 C14.92617127 34.60054742 14.81214709 32.06609558 14.9375 28.125 C15.01419569 23.94252852 14.91266335 20.10698509 14 16 C12.39125 15.938125 12.39125 15.938125 10.75 15.875 C7 15 7 15 4.5625 12.125 C3 9 3 9 3 6 C2.34 5.67 1.68 5.34 1 5 C0.375 2.4375 0.375 2.4375 0 0 Z " fill="#F6CB5D" transform="translate(58,39)"/>
<path d="M0 0 C3.96 0 7.92 0 12 0 C12 0.66 12 1.32 12 2 C13.1446875 2.1546875 13.1446875 2.1546875 14.3125 2.3125 C18.3772242 3.35231317 18.3772242 3.35231317 20 6 C20.24713438 8.71847813 20.13479526 11.2591631 20 14 C19.01 14 18.02 14 17 14 C17.061875 14.969375 17.12375 15.93875 17.1875 16.9375 C17.21625881 21.61559946 15.64771207 25.67475582 14 30 C13.34 29.67 12.68 29.34 12 29 C12 28.34 12 27.68 12 27 C11.34 27 10.68 27 10 27 C9.83564453 28.03060547 9.83564453 28.03060547 9.66796875 29.08203125 C9.43013672 30.43361328 9.43013672 30.43361328 9.1875 31.8125 C9.03667969 32.70582031 8.88585937 33.59914062 8.73046875 34.51953125 C7.93204592 37.23075315 7.10142986 38.1848832 5 40 C4.505 40.721875 4.01 41.44375 3.5 42.1875 C3.005 42.785625 2.51 43.38375 2 44 C1.01 44 0.02 44 -1 44 C-0.938125 44.763125 -0.87625 45.52625 -0.8125 46.3125 C-1 49 -1 49 -2.375 50.8125 C-4 52 -4 52 -6 52 C-6 52.99 -6 53.98 -6 55 C-7.98 55.99 -9.96 56.98 -12 58 C-11.55948153 55.53309658 -11.09577845 54.11966022 -9.51171875 52.140625 C-7.84485595 49.78031282 -7.51223361 48.33341669 -7.125 45.5 C-5.5205296 36.57020161 -1.85091738 28.9798684 3.375 21.64453125 C6.95847811 15.81276519 9.38326533 9.30958211 12 3 C9.41622356 5.54106939 7.10855719 8.04801993 5 11 C5 8 5 8 6 5 C5.34 4.67 4.68 4.34 4 4 C4 4.66 4 5.32 4 6 C2.68 5.67 1.36 5.34 0 5 C0.99 5 1.98 5 3 5 C3 4.34 3 3.68 3 3 C2.01 3 1.02 3 0 3 C0 2.01 0 1.02 0 0 Z " fill="#DD9634" transform="translate(150,8)"/>
<path d="M0 0 C1.88574219 -0.05517578 1.88574219 -0.05517578 4.75292969 0.09716797 C5.41292969 0.75716797 6.07292969 1.41716797 6.75292969 2.09716797 C4.11292969 2.09716797 1.47292969 2.09716797 -1.24707031 2.09716797 C-0.25707031 2.75716797 0.73292969 3.41716797 1.75292969 4.09716797 C-0.88707031 4.09716797 -3.52707031 4.09716797 -6.24707031 4.09716797 C-6.24707031 4.75716797 -6.24707031 5.41716797 -6.24707031 6.09716797 C-7.19582031 6.32404297 -8.14457031 6.55091797 -9.12207031 6.78466797 C-12.41022915 7.7712973 -12.41022915 7.7712973 -13.49707031 10.53466797 C-13.74457031 11.38029297 -13.99207031 12.22591797 -14.24707031 13.09716797 C-16.65143057 16.70370836 -18.19386638 16.95169729 -22.24707031 18.09716797 C-21.58707031 15.45716797 -20.92707031 12.81716797 -20.24707031 10.09716797 C-22.22707031 11.08716797 -22.22707031 11.08716797 -24.24707031 12.09716797 C-24.24707031 11.43716797 -24.24707031 10.77716797 -24.24707031 10.09716797 C-24.90707031 10.09716797 -25.56707031 10.09716797 -26.24707031 10.09716797 C-26.28832031 10.67466797 -26.32957031 11.25216797 -26.37207031 11.84716797 C-27.72045982 15.31445526 -30.07120651 16.29950922 -33.24707031 18.09716797 C-36.62207031 19.34716797 -36.62207031 19.34716797 -39.24707031 20.09716797 C-39.24707031 21.08716797 -39.24707031 22.07716797 -39.24707031 23.09716797 C-40.03082031 23.32404297 -40.81457031 23.55091797 -41.62207031 23.78466797 C-44.42415365 24.85758464 -44.42415365 24.85758464 -45.43457031 27.47216797 C-45.83675781 28.77154297 -45.83675781 28.77154297 -46.24707031 30.09716797 C-46.8992057 31.43766849 -47.56087 32.77378165 -48.24707031 34.09716797 C-49.23707031 34.09716797 -50.22707031 34.09716797 -51.24707031 34.09716797 C-50.02734451 29.55091724 -48.19475834 26.38010364 -45.39550781 22.69091797 C-44.14781057 21.08916665 -44.14781057 21.08916665 -43.37207031 18.97216797 C-40.28618528 13.82902625 -33.34838366 10.90809573 -28.24707031 8.09716797 C-30.55707031 8.09716797 -32.86707031 8.09716797 -35.24707031 8.09716797 C-30.91235085 3.76244851 -24.75437813 3.99055387 -18.96630859 3.9609375 C-15.72550187 3.97733762 -12.48716998 4.02638909 -9.24707031 4.09716797 C-11.49872642 1.84551186 -16.2025303 2.84973296 -19.2409668 2.84179688 C-25.0423199 2.92289623 -29.8698357 4.04440615 -35.24707031 6.09716797 C-37.04144531 6.68498047 -37.04144531 6.68498047 -38.87207031 7.28466797 C-39.65582031 7.55279297 -40.43957031 7.82091797 -41.24707031 8.09716797 C-37.56068207 3.54339426 -31.82154373 2.02139257 -26.24707031 1.09716797 C-24.41874557 0.95602412 -22.58723896 0.85262192 -20.75488281 0.78076172 C-19.71976563 0.73886719 -18.68464844 0.69697266 -17.61816406 0.65380859 C-16.54695313 0.61449219 -15.47574219 0.57517578 -14.37207031 0.53466797 C-13.30859375 0.49148437 -12.24511719 0.44830078 -11.14941406 0.40380859 C-7.43324402 0.25839324 -3.71548656 0.16066533 0 0 Z " fill="#D48A28" transform="translate(156.2470703125,3.90283203125)"/>
<path d="M0 0 C4.75 0.875 4.75 0.875 7 2 C6.67 2.99 6.34 3.98 6 5 C5.34 5 4.68 5 4 5 C4 8.63 4 12.26 4 16 C8.53219967 18.26609984 10.17772925 17.92735976 15 17 C15.12375 17.804375 15.2475 18.60875 15.375 19.4375 C15.58125 20.283125 15.7875 21.12875 16 22 C16.66 22.33 17.32 22.66 18 23 C19.57210668 27.45430227 20.22991927 31.28665497 20 36 C17.525 36.495 17.525 36.495 15 37 C15 36.34 15 35.68 15 35 C13.02 35.495 13.02 35.495 11 36 C10.67 35.01 10.34 34.02 10 33 C10.639375 32.7525 11.27875 32.505 11.9375 32.25 C14.18741541 31.18437567 14.18741541 31.18437567 14.75 28.875 C14.87375 27.946875 14.87375 27.946875 15 27 C14.34 27 13.68 27 13 27 C13 27.66 13 28.32 13 29 C9.87498361 28.62705566 6.93581453 28.15929788 4 27 C2.4375 23.875 2.4375 23.875 2 21 C1.34 21 0.68 21 0 21 C0 23.31 0 25.62 0 28 C-0.99 27.67 -1.98 27.34 -3 27 C-3.33 25.02 -3.66 23.04 -4 21 C-5.98 21.99 -5.98 21.99 -8 23 C-8 22.01 -8 21.02 -8 20 C-6.68 20 -5.36 20 -4 20 C-3.26919734 18.02253397 -2.60578253 16.01927511 -2 14 C-2.33 13.34 -2.66 12.68 -3 12 C-2.34 12 -1.68 12 -1 12 C-1.20625 10.948125 -1.4125 9.89625 -1.625 8.8125 C-1.99963104 5.00375113 -1.71630067 3.33164248 0 0 Z " fill="#F6CC5D" transform="translate(32,51)"/>
<path d="M0 0 C0.66 0 1.32 0 2 0 C0.01611297 8.9688226 -4.32819288 16.2076768 -9 24 C-11.88960756 28.92471324 -14.55895132 33.47773626 -15.28125 39.24609375 C-16.20499432 45.97473132 -18.65928856 49.45351376 -23.08984375 54.52734375 C-25.81474856 58.05467452 -27.00262174 61.69880623 -28 66 C-28.66 66 -29.32 66 -30 66 C-30 66.99 -30 67.98 -30 69 C-30.66 69 -31.32 69 -32 69 C-33.41377341 71.63904371 -34.37240135 74.07120629 -35 77 C-35.66 77 -36.32 77 -37 77 C-37.103125 77.556875 -37.20625 78.11375 -37.3125 78.6875 C-38.14178408 81.4769101 -39.34299056 83.6139064 -41 86 C-41.66 86 -42.32 86 -43 86 C-43 86.99 -43 87.98 -43 89 C-43.66 89 -44.32 89 -45 89 C-45.66 90.32 -46.32 91.64 -47 93 C-47.625 91.1875 -47.625 91.1875 -48 89 C-47.34 88.01 -46.68 87.02 -46 86 C-45.34 86 -44.68 86 -44 86 C-43.896875 85.46375 -43.79375 84.9275 -43.6875 84.375 C-42.81907303 81.37497956 -41.44379704 78.7620465 -40 76 C-39.34 76 -38.68 76 -38 76 C-37.938125 75.34 -37.87625 74.68 -37.8125 74 C-36.87039661 70.52146442 -35.29074893 68.16349124 -33.3203125 65.1796875 C-31.60105478 62.3413863 -30.43428062 59.38011545 -29.28515625 56.2734375 C-28 54 -28 54 -25.0546875 51.3359375 C-21.15273599 47.58385599 -20.30280399 43.38566367 -19.0625 38.25 C-17.01480221 30.62724407 -14.80624917 23.68653269 -9 18 C-8.34 18 -7.68 18 -7 18 C-6.90203125 17.443125 -6.8040625 16.88625 -6.703125 16.3125 C-5.61428449 10.75565875 -4.15811012 4.15811012 0 0 Z " fill="#A96517" transform="translate(160,11)"/>
<path d="M0 0 C1.31226563 -0.02578125 2.62453125 -0.0515625 3.9765625 -0.078125 C7.375 0.25 7.375 0.25 9.3359375 1.765625 C9.67882812 2.25546875 10.02171875 2.7453125 10.375 3.25 C9.19164062 3.21519531 8.00828125 3.18039062 6.7890625 3.14453125 C-3.64383575 2.93044385 -12.19280893 3.38586559 -21.625 8.25 C-21.625 8.91 -21.625 9.57 -21.625 10.25 C-26.00961538 13.25 -26.00961538 13.25 -28.625 13.25 C-28.893125 13.889375 -29.16125 14.52875 -29.4375 15.1875 C-30.625 17.25 -30.625 17.25 -33.625 18.25 C-34.32894612 19.56403276 -34.98845658 20.9020257 -35.625 22.25 C-36.305625 23.03375 -36.98625 23.8175 -37.6875 24.625 C-39.86894277 27.58050311 -40.28869691 29.63474176 -40.625 33.25 C-39.965 33.25 -39.305 33.25 -38.625 33.25 C-38.625 34.24 -38.625 35.23 -38.625 36.25 C-37.635 36.25 -36.645 36.25 -35.625 36.25 C-35.49222656 37.10464844 -35.35945313 37.95929687 -35.22265625 38.83984375 C-35.04605469 39.94457031 -34.86945313 41.04929688 -34.6875 42.1875 C-34.51347656 43.28964844 -34.33945313 44.39179687 -34.16015625 45.52734375 C-33.90654864 48.15426929 -33.90654864 48.15426929 -32.625 49.25 C-31.54949358 54.91333103 -31.50565236 60.43714219 -31.5625 66.1875 C-31.56701172 67.06212891 -31.57152344 67.93675781 -31.57617188 68.83789062 C-31.58785166 70.97529047 -31.60578311 73.11265463 -31.625 75.25 C-32.285 75.25 -32.945 75.25 -33.625 75.25 C-33.61597656 74.11046875 -33.60695313 72.9709375 -33.59765625 71.796875 C-33.75323365 58.41864585 -36.01582926 44.10274677 -43.85546875 32.86328125 C-45.625 30.25 -45.625 30.25 -45.625 27.25 C-44.305 27.25 -42.985 27.25 -41.625 27.25 C-41.398125 26.59 -41.17125 25.93 -40.9375 25.25 C-36.34757455 14.75874184 -29.65634664 7.55674053 -18.875 3.3125 C-12.43070448 1.01652515 -6.85357219 0.08110736 0 0 Z " fill="#A2631A" transform="translate(138.625,5.75)"/>
<path d="M0 0 C0.33 0.66 0.66 1.32 1 2 C1.66 2 2.32 2 3 2 C3.33 1.34 3.66 0.68 4 0 C3.39363243 10.2037026 1.69214163 16.51909297 -5.34765625 24.03515625 C-7.69758223 26.82951267 -8.78744639 29.57631923 -10 33 C-14 33 -14 33 -17 31 C-17.83935943 26.97107475 -17.62481612 25.06968519 -15.53515625 21.4921875 C-14.32845434 19.78290572 -13.09233095 18.0939186 -11.82421875 16.4296875 C-9.92817421 14.00874738 -9.92817421 14.00874738 -8.39453125 11.1953125 C-7.93433594 10.47085938 -7.47414062 9.74640625 -7 9 C-6.34 9 -5.68 9 -5 9 C-4.855625 8.401875 -4.71125 7.80375 -4.5625 7.1875 C-3.27586207 2.18390805 -3.27586207 2.18390805 0 0 Z " fill="#DE9734" transform="translate(138,42)"/>
<path d="M0 0 C1.15566792 3.46700375 0.64297998 4.74593887 -0.86328125 7.9765625 C-6.88400614 18.6938666 -16.51702196 27.52765446 -28 32 C-32.74701662 32.64951654 -37.34725214 32.53225572 -42.125 32.3125 C-44.54417717 32.24276481 -46.96344778 32.17617403 -49.3828125 32.11328125 C-50.96666748 32.04814331 -50.96666748 32.04814331 -52.58251953 31.98168945 C-54.95078452 31.71687423 -54.95078452 31.71687423 -56 33 C-57.68608966 33.07205511 -59.37500659 33.08386068 -61.0625 33.0625 C-61.98160156 33.05347656 -62.90070313 33.04445312 -63.84765625 33.03515625 C-64.55792969 33.02355469 -65.26820312 33.01195312 -66 33 C-61.92969734 28.92969734 -54.34193376 29.0081728 -48.80371094 28.99462891 C-46.49387836 29.05150915 -44.18451688 29.11908241 -41.875 29.1875 C-34.33231334 29.36718201 -28.41833429 28.30719976 -22 24 C-21.49339844 23.49082031 -20.98679688 22.98164062 -20.46484375 22.45703125 C-19 21 -19 21 -17.03125 20.05078125 C-14.58046011 18.78296879 -13.27166118 17.29336091 -11.5 15.1875 C-10.89671875 14.47335938 -10.2934375 13.75921875 -9.671875 13.0234375 C-9.12015625 12.35570313 -8.5684375 11.68796875 -8 11 C-7.2575 10.113125 -6.515 9.22625 -5.75 8.3125 C-3.97287123 5.96415127 -2.48271538 3.54179779 -1 1 C-0.67 0.67 -0.34 0.34 0 0 Z " fill="#A6681E" transform="translate(177,83)"/>
<path d="M0 0 C0.66 0 1.32 0 2 0 C1.6875 2.875 1.6875 2.875 1 6 C0.01 6.66 -0.98 7.32 -2 8 C-2.33 9.175625 -2.66 10.35125 -3 11.5625 C-3.33 12.696875 -3.66 13.83125 -4 15 C-4.99 15.33 -5.98 15.66 -7 16 C-7.68473395 18.32809543 -8.34853151 20.66237777 -9 23 C-10.31431695 25.01254782 -11.64721885 27.01310269 -13 29 C-13.33 30.0725 -13.66 31.145 -14 32.25 C-15 35 -15 35 -17.125 36.375 C-17.74375 36.58125 -18.3625 36.7875 -19 37 C-18.36843005 31.94744036 -16.86540627 27.70406799 -15 23 C-15.66 23 -16.32 23 -17 23 C-17 23.66 -17 24.32 -17 25 C-17.99 25 -18.98 25 -20 25 C-19.42036243 21.08744639 -17.81685096 18.7427233 -15 16 C-11.25 15.1875 -11.25 15.1875 -8 15 C-8 14.01 -8 13.02 -8 12 C-7.34 12 -6.68 12 -6 12 C-6.020625 11.05125 -6.04125 10.1025 -6.0625 9.125 C-6 6 -6 6 -5 4 C-4.34 4 -3.68 4 -3 4 C-3 3.34 -3 2.68 -3 2 C-2.01 2 -1.02 2 0 2 C0 1.34 0 0.68 0 0 Z " fill="#C47B1B" transform="translate(140,27)"/>
<path d="M0 0 C0.33 0 0.66 0 1 0 C1.12375 0.969375 1.2475 1.93875 1.375 2.9375 C1.58125 3.948125 1.7875 4.95875 2 6 C2.66 6.33 3.32 6.66 4 7 C4 7.66 4 8.32 4 9 C3.01 8.67 2.02 8.34 1 8 C0.73445312 9.19238281 0.46890625 10.38476562 0.1953125 11.61328125 C-0.16113217 13.17976175 -0.51792097 14.74616398 -0.875 16.3125 C-1.04902344 17.09818359 -1.22304687 17.88386719 -1.40234375 18.69335938 C-1.57636719 19.45068359 -1.75039062 20.20800781 -1.9296875 20.98828125 C-2.08679199 21.68477783 -2.24389648 22.38127441 -2.40576172 23.09887695 C-3 25 -3 25 -5 28 C-8.625 28.6875 -8.625 28.6875 -12 29 C-11.125 21.25 -11.125 21.25 -10 19 C-9.34 19 -8.68 19 -8 19 C-7.67 19.66 -7.34 20.32 -7 21 C-6.51787786 19.43840941 -6.03944127 17.87568072 -5.5625 16.3125 C-5.29566406 15.44238281 -5.02882812 14.57226562 -4.75390625 13.67578125 C-4.03655471 11.12974079 -3.482459 8.5996577 -3 6 C-2.01 6 -1.02 6 0 6 C0 4.02 0 2.04 0 0 Z M-14 29 C-12 30 -12 30 -10 33 C-11.89980007 36.51463012 -13.56635317 38.89550678 -17 41 C-17.66 41 -18.32 41 -19 41 C-18.54738642 39.56068883 -18.08767021 38.12361001 -17.625 36.6875 C-17.24214844 35.48673828 -17.24214844 35.48673828 -16.8515625 34.26171875 C-16 32 -16 32 -14 29 Z " fill="#D48A26" transform="translate(170,16)"/>
<path d="M0 0 C4.90626699 0.40885558 8.75936865 0.84293618 12.46484375 4.43359375 C14.77274126 7.34326396 16.57148966 10.52304608 18.390625 13.75390625 C19.84025171 16.35177201 19.84025171 16.35177201 22.390625 18.96484375 C26.70874033 23.84375327 29.66070985 31.59835931 29.96484375 38.0546875 C29.91972656 38.74691406 29.87460938 39.43914063 29.828125 40.15234375 C27.44774279 37.13956149 25.58132734 34.03298646 23.765625 30.65234375 C23.25902344 29.71390625 22.75242188 28.77546875 22.23046875 27.80859375 C21.37192242 26.18237785 20.54359164 24.53917962 19.76953125 22.87109375 C18.941227 20.97155013 18.941227 20.97155013 16.828125 20.15234375 C16.828125 19.49234375 16.828125 18.83234375 16.828125 18.15234375 C15.838125 17.82234375 14.848125 17.49234375 13.828125 17.15234375 C13.34060505 15.13726129 12.85701738 13.12078827 12.421875 11.09375 C11.93382307 8.95489584 11.93382307 8.95489584 9.890625 7.21484375 C7.72643253 6.03325886 7.72643253 6.03325886 4.828125 5.15234375 C4.828125 4.49234375 4.828125 3.83234375 4.828125 3.15234375 C1.858125 2.82234375 -1.111875 2.49234375 -4.171875 2.15234375 C-2.171875 0.15234375 -2.171875 0.15234375 0 0 Z " fill="#9C621F" transform="translate(157.171875,4.84765625)"/>
<path d="M0 0 C5.42857143 -0.36190476 5.42857143 -0.36190476 7.875 1.1875 C9.34781139 3.56036279 9.22223194 5.25913944 9 8 C9.9590625 8.433125 9.9590625 8.433125 10.9375 8.875 C13 10 13 10 14 12 C16.52733235 12.65555119 16.52733235 12.65555119 19 13 C19 13.33 19 13.66 19 14 C17.35 14 15.7 14 14 14 C14 14.66 14 15.32 14 16 C13.401875 15.835 12.80375 15.67 12.1875 15.5 C9.88655664 14.8885876 9.88655664 14.8885876 7 15 C6.01 14.34 5.02 13.68 4 13 C1.9507906 12.54860541 1.9507906 12.54860541 -0.1875 12.375 C-1.445625 12.25125 -2.70375 12.1275 -4 12 C-4 12.66 -4 13.32 -4 14 C-4.66 14 -5.32 14 -6 14 C-5.38722388 11.03824877 -4.74627478 9.61941217 -3 7 C-0.375 5.8125 -0.375 5.8125 2 5 C2 4.01 2 3.02 2 2 C2.99 1.67 3.98 1.34 5 1 C3.35 1 1.7 1 0 1 C0 0.67 0 0.34 0 0 Z " fill="#E7B246" transform="translate(59,26)"/>
<path d="M0 0 C-3.80120681 3.22526638 -7.66271956 5.59039975 -12 8 C-15.24849977 9.72226496 -15.24849977 9.72226496 -16 13 C-21.37142857 17 -21.37142857 17 -24 17 C-24 18.32 -24 19.64 -24 21 C-24.66 21 -25.32 21 -26 21 C-26.33 21.66 -26.66 22.32 -27 23 C-27.66 23 -28.32 23 -29 23 C-29.33 23.66 -29.66 24.32 -30 25 C-29.3798571 16.52471365 -24.03685682 11.74542207 -17.96484375 6.3828125 C-15.9423757 4.95944533 -14.41761812 4.41998711 -12 4 C-12 3.34 -12 2.68 -12 2 C-7.89783794 -0.73477471 -4.73617773 -1.57872591 0 0 Z " fill="#D1892A" transform="translate(129,12)"/>
<path d="M0 0 C0.66 0 1.32 0 2 0 C2.62645012 8.14385151 2.62645012 8.14385151 0.125 11.5625 C-2 13 -2 13 -4 13 C-4.2475 13.721875 -4.495 14.44375 -4.75 15.1875 C-6.11516939 18.25913113 -7.8752617 20.4104752 -10 23 C-10.309375 23.680625 -10.61875 24.36125 -10.9375 25.0625 C-12.43657008 27.79609839 -14.47136569 29.22995598 -17 31 C-17.66 31 -18.32 31 -19 31 C-18.1875 28.5625 -18.1875 28.5625 -17 26 C-16.01 25.67 -15.02 25.34 -14 25 C-13.24592899 22.69342986 -12.588562 20.354248 -12 18 C-10.56815658 12.98854804 -8.11795379 11.00267464 -4 8 C-3.34 8 -2.68 8 -2 8 C-1.7834375 6.576875 -1.7834375 6.576875 -1.5625 5.125 C-1 2 -1 2 0 0 Z " fill="#C57B1C" transform="translate(144,74)"/>
<path d="M0 0 C-0.49182261 6.06581221 -2.92925436 11.79038239 -6 17 C-6.99 17.33 -7.98 17.66 -9 18 C-9.45375 18.61875 -9.9075 19.2375 -10.375 19.875 C-12.30974305 22.4050486 -14.16432217 23.58216109 -17 25 C-17.99 25 -18.98 25 -20 25 C-20 24.01 -20 23.02 -20 22 C-19.34 22 -18.68 22 -18 22 C-17.773125 21.38125 -17.54625 20.7625 -17.3125 20.125 C-15.62070165 17.38589791 -14.00755839 16.94975528 -11 16 C-11 15.34 -11 14.68 -11 14 C-10.34 14 -9.68 14 -9 14 C-8.04700811 11.65417382 -7.1092868 9.31091219 -6.26953125 6.921875 C-6.01558594 6.20515625 -5.76164063 5.4884375 -5.5 4.75 C-5.2628125 4.06421875 -5.025625 3.3784375 -4.78125 2.671875 C-3.65980177 0.27197578 -2.58742849 0 0 0 Z " fill="#BA7216" transform="translate(171,75)"/>
<path d="M0 0 C0.66 0.66 1.32 1.32 2 2 C2.99 1.67 3.98 1.34 5 1 C5.28875 1.969375 5.5775 2.93875 5.875 3.9375 C6.64214682 7.10664203 6.64214682 7.10664203 9 8 C9 5.69 9 3.38 9 1 C9.66 1 10.32 1 11 1 C11.66 2.98 12.32 4.96 13 7 C12.34 7 11.68 7 11 7 C12.30155006 11.07964281 12.30155006 11.07964281 14 15 C14.99 14.67 15.98 14.34 17 14 C17 14.99 17 15.98 17 17 C14.36 16.67 11.72 16.34 9 16 C8.979375 15.401875 8.95875 14.80375 8.9375 14.1875 C8.10642443 11.57589733 8.10642443 11.57589733 4.5 10.375 C3.345 9.92125 2.19 9.4675 1 9 C-0.4783226 6.04335481 -0.06032783 3.25770263 0 0 Z " fill="#EEBA4D" transform="translate(23,71)"/>
<path d="M0 0 C-1.450954 3.82524236 -3.38181932 5.19090966 -7 7 C-7.66 7 -8.32 7 -9 7 C-9 7.99 -9 8.98 -9 10 C-9.78375 10.226875 -10.5675 10.45375 -11.375 10.6875 C-14.17708333 11.76041667 -14.17708333 11.76041667 -15.1875 14.375 C-15.5896875 15.674375 -15.5896875 15.674375 -16 17 C-16.65213539 18.34050052 -17.31379969 19.67661368 -18 21 C-18.99 21 -19.98 21 -21 21 C-19.79497893 16.50855785 -18.01302132 13.34008257 -15.21875 9.7109375 C-13.92256906 8.01306508 -13.92256906 8.01306508 -13.0859375 5.9296875 C-11.74529173 3.5473889 -10.57245187 2.9136941 -8.125 1.75 C-7.44695312 1.41484375 -6.76890625 1.0796875 -6.0703125 0.734375 C-4 0 -4 0 0 0 Z " fill="#BE7416" transform="translate(126,17)"/>
<path d="M0 0 C0 0.33 0 0.66 0 1 C-0.94101562 0.96519531 -1.88203125 0.93039062 -2.8515625 0.89453125 C-4.09679687 0.86746094 -5.34203125 0.84039062 -6.625 0.8125 C-7.85476562 0.77769531 -9.08453125 0.74289062 -10.3515625 0.70703125 C-14.27982511 1.0224699 -16.59394692 2.09720495 -20 4 C-20.66 4 -21.32 4 -22 4 C-22.20625 4.680625 -22.4125 5.36125 -22.625 6.0625 C-24.41961094 9.89644155 -26.81424062 13.18712848 -30 16 C-30.99 16 -31.98 16 -33 16 C-31.96188521 13.49122259 -31.26886957 12.18484783 -29 10.625 C-26.73632093 9.0950388 -26.73632093 9.0950388 -26.125 6.125 C-24.98324498 2.95345828 -23.80222469 0.98099846 -21.10546875 -1.08984375 C-14.49070169 -3.94928851 -6.49673069 -2.43627401 0 0 Z " fill="#A4671E" transform="translate(50,11)"/>
<path d="M0 0 C2.3968665 2.3968665 2.28281133 3.07028314 2.4140625 6.3515625 C2.45273438 7.20234375 2.49140625 8.053125 2.53125 8.9296875 C2.57765625 10.26386719 2.57765625 10.26386719 2.625 11.625 C2.66367188 12.5221875 2.70234375 13.419375 2.7421875 14.34375 C2.83659357 16.5622927 2.92216748 18.78082403 3 21 C3.66 20.34 4.32 19.68 5 19 C5.99 19 6.98 19 8 19 C8.17758833 22.90694321 8.23513741 25.70611329 6 29 C5.01 29.66 4.02 30.32 3 31 C2.27617533 33.05925139 2.27617533 33.05925139 2 35 C1.01 35 0.02 35 -1 35 C-0.75443359 33.19208984 -0.75443359 33.19208984 -0.50390625 31.34765625 C0.19598736 25.04861376 0.10803918 18.76744583 0.0625 12.4375 C0.05798828 11.23802734 0.05347656 10.03855469 0.04882812 8.80273438 C0.03713769 5.86843641 0.02075138 2.93424551 0 0 Z " fill="#C37D24" transform="translate(106,59)"/>
<path d="M0 0 C1.65 0 3.3 0 5 0 C10.83133944 13.05109302 12.65991369 23.71120742 10 38 C9.67 38 9.34 38 9 38 C9.01571045 37.40050537 9.0314209 36.80101074 9.04760742 36.18334961 C9.1104413 33.43483123 9.14914235 30.68646458 9.1875 27.9375 C9.21263672 26.99455078 9.23777344 26.05160156 9.26367188 25.08007812 C9.32478517 19.23357264 8.74104641 15.18712456 6 10 C5.67 12.31 5.34 14.62 5 17 C3.025333 14.03799949 2.28044646 11.90228368 1.375 8.5 C1.11460938 7.5409375 0.85421875 6.581875 0.5859375 5.59375 C0 3 0 3 0 0 Z " fill="#DA9731" transform="translate(94,46)"/>
<path d="M0 0 C0.66 0.99 1.32 1.98 2 3 C2.99 3 3.98 3 5 3 C5.66 2.34 6.32 1.68 7 1 C6.36843005 6.05255964 4.86540627 10.29593201 3 15 C1.35 15 -0.3 15 -2 15 C-4.32590854 11.36576791 -4.16265833 8.22911669 -4 4 C-3.67 4.66 -3.34 5.32 -3 6 C-2.34 6 -1.68 6 -1 6 C-0.67 4.02 -0.34 2.04 0 0 Z " fill="#DC9635" transform="translate(106,95)"/>
<path d="M0 0 C1.88574219 -0.05517578 1.88574219 -0.05517578 4.75292969 0.09716797 C5.41292969 0.75716797 6.07292969 1.41716797 6.75292969 2.09716797 C4.11292969 2.09716797 1.47292969 2.09716797 -1.24707031 2.09716797 C-0.25707031 2.75716797 0.73292969 3.41716797 1.75292969 4.09716797 C-0.88707031 4.09716797 -3.52707031 4.09716797 -6.24707031 4.09716797 C-6.24707031 4.75716797 -6.24707031 5.41716797 -6.24707031 6.09716797 C-12.51707031 5.76716797 -18.78707031 5.43716797 -25.24707031 5.09716797 C-25.24707031 4.76716797 -25.24707031 4.43716797 -25.24707031 4.09716797 C-19.96707031 4.09716797 -14.68707031 4.09716797 -9.24707031 4.09716797 C-11.49872642 1.84551186 -16.2025303 2.84973296 -19.2409668 2.84179688 C-25.0423199 2.92289623 -29.8698357 4.04440615 -35.24707031 6.09716797 C-37.04144531 6.68498047 -37.04144531 6.68498047 -38.87207031 7.28466797 C-39.65582031 7.55279297 -40.43957031 7.82091797 -41.24707031 8.09716797 C-37.56068207 3.54339426 -31.82154373 2.02139257 -26.24707031 1.09716797 C-24.41874557 0.95602412 -22.58723896 0.85262192 -20.75488281 0.78076172 C-19.71976563 0.73886719 -18.68464844 0.69697266 -17.61816406 0.65380859 C-16.54695313 0.61449219 -15.47574219 0.57517578 -14.37207031 0.53466797 C-13.30859375 0.49148437 -12.24511719 0.44830078 -11.14941406 0.40380859 C-7.43324402 0.25839324 -3.71548656 0.16066533 0 0 Z " fill="#B97A28" transform="translate(156.2470703125,3.90283203125)"/>
<path d="M0 0 C5.00398123 9.65053523 5.02290919 19.37972675 3 30 C-1.32257042 21.35485917 -1.653141 11.64343479 -1 2 C-0.67 1.34 -0.34 0.68 0 0 Z " fill="#EDAD38" transform="translate(100,54)"/>
<path d="M0 0 C0.66 0.33 1.32 0.66 2 1 C2 1.99 2 2.98 2 4 C3.32 4.33 4.64 4.66 6 5 C5.01 5.33 4.02 5.66 3 6 C2.67 8.64 2.34 11.28 2 14 C1.01 13.67 0.02 13.34 -1 13 C-1.33 12.01 -1.66 11.02 -2 10 C-5.35276343 7.67885609 -9.02418958 7.45874736 -13 7 C-13 6.34 -13 5.68 -13 5 C-10.2756595 3.29728719 -7.95476399 2.81027741 -4.8125 2.5 C-3.554375 2.335 -2.29625 2.17 -1 2 C-0.67 1.34 -0.34 0.68 0 0 Z " fill="#E1A83D" transform="translate(79,41)"/>
<path d="M0 0 C3.3 0.66 6.6 1.32 10 2 C9.67 3.32 9.34 4.64 9 6 C7.35 6.33 5.7 6.66 4 7 C4 7.66 4 8.32 4 9 C6.31 9.33 8.62 9.66 11 10 C10.67 11.32 10.34 12.64 10 14 C9.34 14 8.68 14 8 14 C8 13.34 8 12.68 8 12 C7.01 12.495 7.01 12.495 6 13 C3 13.1875 3 13.1875 0 13 C-0.66 12.34 -1.32 11.68 -2 11 C-1.34 11 -0.68 11 0 11 C0 10.01 0 9.02 0 8 C0.66 7.67 1.32 7.34 2 7 C1.67 6.401875 1.34 5.80375 1 5.1875 C0 3 0 3 0 0 Z " fill="#E9B549" transform="translate(49,89)"/>
<path d="M0 0 C0.33 0 0.66 0 1 0 C1.12375 0.969375 1.2475 1.93875 1.375 2.9375 C1.58125 3.948125 1.7875 4.95875 2 6 C2.66 6.33 3.32 6.66 4 7 C4 7.66 4 8.32 4 9 C3.01 8.67 2.02 8.34 1 8 C0.73445312 9.19238281 0.46890625 10.38476562 0.1953125 11.61328125 C-0.16113217 13.17976175 -0.51792097 14.74616398 -0.875 16.3125 C-1.04902344 17.09818359 -1.22304687 17.88386719 -1.40234375 18.69335938 C-1.57636719 19.45068359 -1.75039062 20.20800781 -1.9296875 20.98828125 C-2.08679199 21.68477783 -2.24389648 22.38127441 -2.40576172 23.09887695 C-3 25 -3 25 -5 28 C-5.66 28 -6.32 28 -7 28 C-6.86722656 27.39414062 -6.73445312 26.78828125 -6.59765625 26.1640625 C-5.46444482 20.7875119 -4.67088994 15.51025395 -4.24609375 10.03125 C-4 8 -4 8 -3 6 C-2.01 6 -1.02 6 0 6 C0 4.02 0 2.04 0 0 Z " fill="#C77F21" transform="translate(170,16)"/>
<path d="M0 0 C0.33 0 0.66 0 1 0 C1 3.96 1 7.92 1 12 C0.01 12.495 0.01 12.495 -1 13 C-1 15.31 -1 17.62 -1 20 C-1.99 20 -2.98 20 -4 20 C-4 20.66 -4 21.32 -4 22 C-4.99 22.33 -5.98 22.66 -7 23 C-7 22.01 -7 21.02 -7 20 C-6.34 20 -5.68 20 -5 20 C-5 16.04 -5 12.08 -5 8 C-4.01 7.67 -3.02 7.34 -2 7 C-2 6.34 -2 5.68 -2 5 C-1.34 5 -0.68 5 0 5 C0 3.35 0 1.7 0 0 Z " fill="#C57B1C" transform="translate(174,39)"/>
<path d="M0 0 C1.31226563 -0.02578125 2.62453125 -0.0515625 3.9765625 -0.078125 C7.375 0.25 7.375 0.25 9.3359375 1.765625 C9.67882812 2.25546875 10.02171875 2.7453125 10.375 3.25 C9.19164062 3.21519531 8.00828125 3.18039062 6.7890625 3.14453125 C-4.08282436 2.92026192 -13.24031972 3.09130357 -22.625 9.25 C-23.285 9.25 -23.945 9.25 -24.625 9.25 C-23.625 6.25 -23.625 6.25 -21.296875 4.8984375 C-19.85054688 4.26808594 -19.85054688 4.26808594 -18.375 3.625 C-17.42109375 3.19960937 -16.4671875 2.77421875 -15.484375 2.3359375 C-10.28572144 0.36158547 -5.55262194 0.0657115 0 0 Z " fill="#975C1B" transform="translate(138.625,5.75)"/>
<path d="M0 0 C5.52363961 0.77074041 5.52363961 0.77074041 8.0859375 2.00390625 C12.32837291 3.45406849 16.48158141 3.42943907 20.9375 3.5625 C26.37322079 3.74939018 31.64789009 3.93310494 37 5 C37 5.33 37 5.66 37 6 C33.06264583 6.08840346 29.12555276 6.1408564 25.1875 6.1875 C24.08728516 6.21263672 22.98707031 6.23777344 21.85351562 6.26367188 C14.72218201 6.32678102 7.58184218 6.04086307 1 3 C0.67 2.01 0.34 1.02 0 0 Z " fill="#975E1E" transform="translate(38,113)"/>
<path d="M0 0 C2.62994337 1.31497169 2.92315481 2.27199218 4 5 C5.04136154 10.68348726 5.11935674 16.18622243 5.0625 21.9375 C5.05798828 22.81212891 5.05347656 23.68675781 5.04882812 24.58789062 C5.03714834 26.72529047 5.01921689 28.86265463 5 31 C4.34 31 3.68 31 3 31 C2.95101562 29.69804688 2.90203125 28.39609375 2.8515625 27.0546875 C2.77649371 25.32810529 2.70094767 23.60154378 2.625 21.875 C2.57859375 20.59109375 2.57859375 20.59109375 2.53125 19.28125 C2.30965067 14.47993116 1.69674601 10.54290061 0 6 C-0.125 2.625 -0.125 2.625 0 0 Z " fill="#A05B11" transform="translate(102,50)"/>
<path d="M0 0 C2.43816585 -0.0809723 4.87364384 -0.14046972 7.3125 -0.1875 C8.34793945 -0.22520508 8.34793945 -0.22520508 9.40429688 -0.26367188 C14.53799683 -0.33807332 14.53799683 -0.33807332 16.98046875 1.44921875 C18 3 18 3 18 4 C15.89722877 4.22197585 13.79267698 4.42713637 11.6875 4.625 C10.51574219 4.74101563 9.34398437 4.85703125 8.13671875 4.9765625 C5 5 5 5 2 3 C2.33 2.67 2.66 2.34 3 2 C2.01 1.34 1.02 0.68 0 0 Z " fill="#EFAF38" transform="translate(51,111)"/>
<path d="M0 0 C0 0.66 0 1.32 0 2 C0.66 2 1.32 2 2 2 C2 5.82365974 1.77278925 6.87154838 0 10 C-0.33 10.66 -0.66 11.32 -1 12 C-2.32 12 -3.64 12 -5 12 C-5.08131463 10.56344146 -5.13933559 9.1255517 -5.1875 7.6875 C-5.22230469 6.88699219 -5.25710937 6.08648437 -5.29296875 5.26171875 C-5 3 -5 3 -3.61328125 1.20703125 C-2 0 -2 0 0 0 Z " fill="#EFBC4F" transform="translate(29,59)"/>
<path d="M0 0 C3.50647501 2.8689341 6.85281112 5.7317654 10 9 C11.65 7.35 13.3 5.7 15 4 C13.66666667 6.66666667 12.33333333 9.33333333 11 12 C9.68 12 8.36 12 7 12 C6.67 12.66 6.34 13.32 6 14 C0 5.4 0 5.4 0 0 Z " fill="#AD7126" transform="translate(86,21)"/>
<path d="M0 0 C0.66 0 1.32 0 2 0 C2.62645012 8.14385151 2.62645012 8.14385151 0.125 11.5625 C-2 13 -2 13 -4 13 C-4.33 13.99 -4.66 14.98 -5 16 C-5.99 16.33 -6.98 16.66 -8 17 C-7.5873879 14.21486833 -6.95776097 12.94931316 -5.125 10.75 C-2.46206775 7.30385239 -1.39468426 4.11431858 0 0 Z " fill="#BD7316" transform="translate(144,74)"/>
<path d="M0 0 C0.33 0 0.66 0 1 0 C1.1994013 6.66748085 0.56676783 11.07234594 -3.9375 16.1875 C-6.08984375 18.41796875 -6.08984375 18.41796875 -8 20 C-8.66 20 -9.32 20 -10 20 C-8.95374134 17.82700125 -7.86249393 15.78477311 -6.5625 13.75 C-4.5883641 10.27552081 -3.33978325 6.76415295 -2 3 C-1.34 3 -0.68 3 0 3 C0 2.01 0 1.02 0 0 Z " fill="#A66214" transform="translate(142,49)"/>
<path d="M0 0 C2 3.75 2 3.75 2 6 C2.99 6.33 3.98 6.66 5 7 C4.34 7.66 3.68 8.32 3 9 C3.33 9.99 3.66 10.98 4 12 C3.34 12 2.68 12 2 12 C1.67 13.32 1.34 14.64 1 16 C0.29773859 14.75823305 -0.38629109 13.50614401 -1.0625 12.25 C-1.44535156 11.55390625 -1.82820313 10.8578125 -2.22265625 10.140625 C-3.1464608 7.59668082 -2.91876768 6.50573003 -2 4 C-1.36345658 2.6520257 -0.70394612 1.31403276 0 0 Z " fill="#A55F11" transform="translate(22,74)"/>
<path d="M0 0 C-0.35233161 5.4611399 -0.35233161 5.4611399 -1 8 C-3.0625 9.5 -3.0625 9.5 -5 10 C-5 9.34 -5 8.68 -5 8 C-6.98 8.33 -8.96 8.66 -11 9 C-9.3584951 5.7169902 -6.17097149 4.72962081 -3 3 C-5.31 3 -7.62 3 -10 3 C-6.88378718 -0.11621282 -4.21175599 -0.11383124 0 0 Z " fill="#C57C1F" transform="translate(131,9)"/>
<path d="M0 0 C-0.50512524 6.22987798 -3.32604123 11.45474233 -6 17 C-6.66 16.67 -7.32 16.34 -8 16 C-7.34 14.68 -6.68 13.36 -6 12 C-6.66 12 -7.32 12 -8 12 C-7.71125 11.484375 -7.4225 10.96875 -7.125 10.4375 C-5.85025926 7.853663 -5.85025926 7.853663 -5 4.3125 C-4.67 3.219375 -4.34 2.12625 -4 1 C-2 0 -2 0 0 0 Z " fill="#CB8121" transform="translate(171,75)"/>
<path d="M0 0 C0.66 0.33 1.32 0.66 2 1 C1.67 1.66 1.34 2.32 1 3 C1.99 2.67 2.98 2.34 4 2 C4 2.66 4 3.32 4 4 C-0.38461538 7 -0.38461538 7 -3 7 C-3.66 8.32 -4.32 9.64 -5 11 C-5.99 11 -6.98 11 -8 11 C-7.34 10.01 -6.68 9.02 -6 8 C-7.65 9.32 -9.3 10.64 -11 12 C-9.49650623 8.33213607 -7.36271208 6.31089607 -4.375 3.75 C-3.14910156 2.69039062 -3.14910156 2.69039062 -1.8984375 1.609375 C-1.27195312 1.07828125 -0.64546875 0.5471875 0 0 Z " fill="#AC6D20" transform="translate(113,12)"/>
<path d="M0 0 C6.6722814 0.89819173 6.6722814 0.89819173 8.72265625 1.53515625 C12.19263999 2.24343766 15.6637119 2.06264512 19.1875 2 C21.79798858 1.95432216 24.38813791 1.95277989 27 2 C27.33 2.33 27.66 2.66 28 3 C30.32817964 3.36760731 32.6618385 3.70241581 35 4 C35 4.33 35 4.66 35 5 C27.79040337 5.25445635 20.72624371 4.89311657 13.5625 4.125 C12.79373535 4.04652832 12.0249707 3.96805664 11.23291016 3.88720703 C7.18043233 3.4247008 3.73101964 2.76537311 0 1 C0 0.67 0 0.34 0 0 Z " fill="#B97A26" transform="translate(39,116)"/>
<path d="M0 0 C0.66 0.33 1.32 0.66 2 1 C2 2.98 2 4.96 2 7 C4.97 7.33 7.94 7.66 11 8 C11 8.66 11 9.32 11 10 C10.071875 10.268125 9.14375 10.53625 8.1875 10.8125 C5.23759634 11.91148371 3.94384814 12.62418561 2 15 C1.67 13.35 1.34 11.7 1 10 C0.34 10 -0.32 10 -1 10 C-1 9.34 -1 8.68 -1 8 C-1.66 7.67 -2.32 7.34 -3 7 C-2.34 6.67 -1.68 6.34 -1 6 C-0.34227572 2.97065509 -0.34227572 2.97065509 0 0 Z " fill="#E5AD44" transform="translate(29,33)"/>
<path d="M0 0 C0 0.33 0 0.66 0 1 C-0.90093384 0.99214478 -0.90093384 0.99214478 -1.82006836 0.98413086 C-4.52586838 0.96341986 -7.23165177 0.95035875 -9.9375 0.9375 C-10.88302734 0.92912109 -11.82855469 0.92074219 -12.80273438 0.91210938 C-13.70185547 0.90888672 -14.60097656 0.90566406 -15.52734375 0.90234375 C-16.35999756 0.89710693 -17.19265137 0.89187012 -18.05053711 0.88647461 C-20.00516798 0.78356708 -20.00516798 0.78356708 -21 2 C-22.68608966 2.07205511 -24.37500659 2.08386068 -26.0625 2.0625 C-26.98160156 2.05347656 -27.90070313 2.04445313 -28.84765625 2.03515625 C-29.55792969 2.02355469 -30.26820312 2.01195313 -31 2 C-23.68714625 -5.31285375 -9.12932205 -1.21849268 0 0 Z " fill="#985E1D" transform="translate(142,114)"/>
<path d="M0 0 C0.66 0.33 1.32 0.66 2 1 C2.25 3.8125 2.25 3.8125 2 7 C0.3125 8.9375 0.3125 8.9375 -2 10 C-4.75 9.6875 -4.75 9.6875 -7 9 C-7 8.34 -7 7.68 -7 7 C-5.35 6.34 -3.7 5.68 -2 5 C-2 3.68 -2 2.36 -2 1 C-1.34 0.67 -0.68 0.34 0 0 Z " fill="#E4AB3E" transform="translate(80,75)"/>
<path d="M0 0 C-0.75 6.625 -0.75 6.625 -3 10 C-3.99 10 -4.98 10 -6 10 C-5.67 8.35 -5.34 6.7 -5 5 C-6.32 5.33 -7.64 5.66 -9 6 C-9 5.01 -9 4.02 -9 3 C-8.01 3 -7.02 3 -6 3 C-6 2.34 -6 1.68 -6 1 C-3 0 -3 0 0 0 Z " fill="#BF7517" transform="translate(132,43)"/>
<path d="M0 0 C1.44096586 0.42594588 2.87768712 0.86626633 4.3125 1.3125 C5.11300781 1.55613281 5.91351563 1.79976562 6.73828125 2.05078125 C9.15462601 3.06489486 10.39006496 3.94733282 12 6 C12.6875 9.1875 12.6875 9.1875 13 12 C8.31831119 8.6194257 3.9045295 5.27057914 0 1 C0 0.67 0 0.34 0 0 Z " fill="#A1651D" transform="translate(74,14)"/>
<path d="M0 0 C0.2295711 3.36704285 0.33943529 5.41370268 -1.375 8.375 C-1.91125 8.91125 -2.4475 9.4475 -3 10 C-3.66 10 -4.32 10 -5 10 C-5 10.66 -5 11.32 -5 12 C-5.66 12 -6.32 12 -7 12 C-6.74476126 10.37247769 -6.47025506 8.74796804 -6.1875 7.125 C-6.03667969 6.22007813 -5.88585937 5.31515625 -5.73046875 4.3828125 C-4.77306442 1.25972885 -3.35435707 0 0 0 Z " fill="#BE7517" transform="translate(160,68)"/>
<path d="M0 0 C4.65709013 4.21355774 5.80469721 9.35453498 6.2578125 15.4921875 C6.34641684 21.47930936 6.14932515 26.3569511 4 32 C2.86325109 28.58975326 3.30413207 26.47933964 4 23 C4.25250255 17.94994904 4.23207703 12.92830811 3 8 C2.34 7.67 1.68 7.34 1 7 C0.59270772 4.67843403 0.25561323 2.3431213 0 0 Z " fill="#B9751F" transform="translate(180,34)"/>
<path d="M0 0 C2.530472 0.33739627 3.6818563 0.6061078 5.3125 2.625 C6.27383682 5.94598174 5.64496692 8.64617202 5 12 C3.68 12.33 2.36 12.66 1 13 C1.01160156 12.31292969 1.02320312 11.62585938 1.03515625 10.91796875 C1.04417969 10.01691406 1.05320312 9.11585937 1.0625 8.1875 C1.07410156 7.29417969 1.08570312 6.40085937 1.09765625 5.48046875 C1.11009967 2.86586209 1.11009967 2.86586209 0 0 Z " fill="#DFA438" transform="translate(68,56)"/>
<path d="M0 0 C0.66 0.33 1.32 0.66 2 1 C2.51084038 6.36382397 1.08523105 8.6993749 -2 13 C-2.76939681 15.22602615 -2.76939681 15.22602615 -3 17 C-3.33 17 -3.66 17 -4 17 C-4.33 14.03 -4.66 11.06 -5 8 C-4.34 8 -3.68 8 -3 8 C-1.0549 5.08235 -0.54723683 3.37462715 0 0 Z " fill="#F2C354" transform="translate(87,49)"/>
<path d="M0 0 C-1.34634457 4.4062186 -3.19374374 6.43077702 -7 9 C-7.66 9 -8.32 9 -9 9 C-8.55090939 7.51800098 -8.09043436 6.03944764 -7.625 4.5625 C-7.36976563 3.73878906 -7.11453125 2.91507813 -6.8515625 2.06640625 C-5.31285785 -1.66742292 -3.39725716 -1.01917715 0 0 Z " fill="#CC8221" transform="translate(160,48)"/>
<path d="M0 0 C7.3557797 -1.00306087 12.6942879 2.52098642 19 6 C14.87337313 8.06331344 11.17669362 6.26088864 7 5 C7.66 4.67 8.32 4.34 9 4 C6.03 3.01 3.06 2.02 0 1 C0 0.67 0 0.34 0 0 Z " fill="#AC6E20" transform="translate(61,9)"/>
<path d="M0 0 C0.99 0 1.98 0 3 0 C3.84511824 1.72343755 4.67563354 3.45404053 5.5 5.1875 C5.9640625 6.15042969 6.428125 7.11335938 6.90625 8.10546875 C7.99592921 10.98922693 8.22277524 12.95354861 8 16 C5.70351643 13.10414095 3.95652443 10.1827969 2.3125 6.875 C1.65701172 5.57175781 1.65701172 5.57175781 0.98828125 4.2421875 C0 2 0 2 0 0 Z " fill="#975D1D" transform="translate(179,29)"/>
<path d="M0 0 C0.99 0.33 1.98 0.66 3 1 C2.67 1.639375 2.34 2.27875 2 2.9375 C0.66943072 7.01236841 0.83340801 10.75190425 1 15 C-2 13 -2 13 -2.875 9.75 C-3.01488512 5.55344637 -2.15863095 3.54015475 0 0 Z " fill="#DFA53A" transform="translate(40,53)"/>
<path d="M0 0 C0.33 0.66 0.66 1.32 1 2 C-0.4375 4.625 -0.4375 4.625 -2 7 C-1.071875 6.34 -0.14375 5.68 0.8125 5 C4 3 4 3 7 3 C7.33 3.99 7.66 4.98 8 6 C4.69252492 7.41748932 1.57416264 8.50358852 -2 9 C-3 8 -3 8 -3.25 5.625 C-3 3 -3 3 -1.5 1.1875 C-1.005 0.795625 -0.51 0.40375 0 0 Z " fill="#D58B26" transform="translate(153,50)"/>
<path d="M0 0 C1.65 0 3.3 0 5 0 C5.33 0.66 5.66 1.32 6 2 C8.52733235 2.65555119 8.52733235 2.65555119 11 3 C11 3.33 11 3.66 11 4 C9.35 4 7.7 4 6 4 C6 4.66 6 5.32 6 6 C5.401875 5.835 4.80375 5.67 4.1875 5.5 C1.88655664 4.8885876 1.88655664 4.8885876 -1 5 C-1.66 4.34 -2.32 3.68 -3 3 C-2.34 3 -1.68 3 -1 3 C-0.67 2.01 -0.34 1.02 0 0 Z " fill="#F3C253" transform="translate(67,36)"/>
<path d="M0 0 C1 3 1 3 -0.0625 6.5625 C-2 10 -2 10 -5.1875 11.4375 C-6.115625 11.623125 -7.04375 11.80875 -8 12 C-2.28571429 2.28571429 -2.28571429 2.28571429 0 0 Z " fill="#A26219" transform="translate(177,83)"/>
<path d="M0 0 C4.95 0.99 4.95 0.99 10 2 C9.34 3.32 8.68 4.64 8 6 C5.125 6.1875 5.125 6.1875 2 6 C0 3 0 3 0 0 Z " fill="#DFA539" transform="translate(49,89)"/>
<path d="M0 0 C1.32 0 2.64 0 4 0 C4.33 2.31 4.66 4.62 5 7 C4.01 6.01 3.02 5.02 2 4 C2.20625 5.11375 2.4125 6.2275 2.625 7.375 C2.74875 8.57125 2.8725 9.7675 3 11 C2.34 11.66 1.68 12.32 1 13 C-0.97387813 8.23947038 -1.0070238 5.03511899 0 0 Z " fill="#E09E33" transform="translate(10,63)"/>
<path d="M0 0 C2.97 0.33 5.94 0.66 9 1 C8.46930939 4.82097239 7.50298434 7.06171403 5 10 C5 7 5 7 6 4 C5.34 3.67 4.68 3.34 4 3 C4 3.66 4 4.32 4 5 C2.68 4.67 1.36 4.34 0 4 C0.99 4 1.98 4 3 4 C3 3.34 3 2.68 3 2 C2.01 2 1.02 2 0 2 C0 1.34 0 0.68 0 0 Z " fill="#DC9C3A" transform="translate(150,9)"/>
<path d="M0 0 C0.66 0 1.32 0 2 0 C2 0.99 2 1.98 2 3 C2.66 3 3.32 3 4 3 C6.36503039 5.99106784 7.91553181 8.02861582 8.25 11.875 C8.1675 12.57625 8.085 13.2775 8 14 C7.01 13.67 6.02 13.34 5 13 C4.67 11.02 4.34 9.04 4 7 C3.34 7 2.68 7 2 7 C1.34 4.69 0.68 2.38 0 0 Z " fill="#EAB349" transform="translate(50,43)"/>
<path d="M0 0 C0.66 0.33 1.32 0.66 2 1 C2 1.99 2 2.98 2 4 C3.32 4.33 4.64 4.66 6 5 C5.01 5.33 4.02 5.66 3 6 C2.67 8.64 2.34 11.28 2 14 C1.34 13.67 0.68 13.34 0 13 C0 10.69 0 8.38 0 6 C-1.98 5.34 -3.96 4.68 -6 4 C-6 3.67 -6 3.34 -6 3 C-5.195625 2.87625 -4.39125 2.7525 -3.5625 2.625 C-2.716875 2.41875 -1.87125 2.2125 -1 2 C-0.67 1.34 -0.34 0.68 0 0 Z " fill="#E9B248" transform="translate(79,41)"/>
<path d="M0 0 C3.625 1 3.625 1 6 2 C6 2.33 6 2.66 6 3 C-0.6 3 -7.2 3 -14 3 C-8.99058737 -0.75705947 -6.0337438 -0.57870813 0 0 Z " fill="#9B5E18" transform="translate(44,9)"/>
<path d="M0 0 C0.66 0 1.32 0 2 0 C1.51171875 6.0546875 1.51171875 6.0546875 1 8 C0.01 8.66 -0.98 9.32 -2 10 C-3.19232613 12.05003955 -3.19232613 12.05003955 -4 14 C-3.38029501 4.19156581 -3.38029501 4.19156581 0 0 Z " fill="#BA7114" transform="translate(111,80)"/>
<path d="M0 0 C0.556875 0.70125 1.11375 1.4025 1.6875 2.125 C2.89907369 3.6312808 4.11587354 5.13425574 5.37890625 6.59765625 C9 10.79647436 9 10.79647436 9 13 C7.68 13.33 6.36 13.66 5 14 C3 9.25 3 9.25 3 7 C2.2575 6.319375 2.2575 6.319375 1.5 5.625 C0 4 0 4 0 0 Z " fill="#B07427" transform="translate(173,16)"/>
<path d="M0 0 C0.66 0 1.32 0 2 0 C2.82622671 5.60563042 3.06795656 10.42289352 2 16 C-0.64 15.67 -3.28 15.34 -6 15 C-6 14.67 -6 14.34 -6 14 C-5.195625 13.87625 -4.39125 13.7525 -3.5625 13.625 C-2.716875 13.41875 -1.87125 13.2125 -1 13 C0.32229189 10.35541621 0.09677194 8.32238699 0.0625 5.375 C0.04896484 3.87066406 0.04896484 3.87066406 0.03515625 2.3359375 C0.02355469 1.56507812 0.01195313 0.79421875 0 0 Z " fill="#9D580A" transform="translate(66,91)"/>
<path d="M0 0 C1.02480469 0.05478516 2.04960937 0.10957031 3.10546875 0.16601562 C4.16894531 0.23884766 5.23242188 0.31167969 6.328125 0.38671875 C7.94654297 0.47856445 7.94654297 0.47856445 9.59765625 0.57226562 C12.25899606 0.72535154 14.91856497 0.89317335 17.578125 1.07421875 C17.578125 1.40421875 17.578125 1.73421875 17.578125 2.07421875 C4.213125 2.56921875 4.213125 2.56921875 -9.421875 3.07421875 C-5.2293106 -0.07020455 -4.82151378 -0.29464806 0 0 Z " fill="#BB7E2D" transform="translate(127.421875,113.92578125)"/>
<path d="M0 0 C3.875 1.875 3.875 1.875 5 3 C5.37004405 8.73568282 5.37004405 8.73568282 5 11 C4.01 11.99 3.02 12.98 2 14 C2.33 10.7 2.66 7.4 3 4 C2.34 5.32 1.68 6.64 1 8 C0.26919734 6.02253397 -0.39421747 4.01927511 -1 2 C-0.67 1.34 -0.34 0.68 0 0 Z " fill="#E1A942" transform="translate(85,46)"/>
<path d="M0 0 C0.66 0 1.32 0 2 0 C1.88541307 1.43836751 1.75790884 2.87570966 1.625 4.3125 C1.55539063 5.11300781 1.48578125 5.91351563 1.4140625 6.73828125 C1 9 1 9 -1 12 C-1.66 12 -2.32 12 -3 12 C-2.69106068 10.3743193 -2.3777305 8.74947252 -2.0625 7.125 C-1.88847656 6.22007813 -1.71445313 5.31515625 -1.53515625 4.3828125 C-1 2 -1 2 0 0 Z " fill="#BF7517" transform="translate(166,32)"/>
<path d="M0 0 C0.66 0 1.32 0 2 0 C2 0.66 2 1.32 2 2 C2.66 2 3.32 2 4 2 C4.33 1.34 4.66 0.68 5 0 C5.66 0.99 6.32 1.98 7 3 C6.34 3 5.68 3 5 3 C5 3.66 5 4.32 5 5 C5.99 5.33 6.98 5.66 8 6 C9.1875 8.0625 9.1875 8.0625 10 10 C6.82028869 8.62442924 4.95149011 7.10041354 2.75 4.4375 C1.96882813 3.50744141 1.96882813 3.50744141 1.171875 2.55859375 C0 1 0 1 0 0 Z " fill="#B27526" transform="translate(21,101)"/>
<path d="M0 0 C1.485 0.99 1.485 0.99 3 2 C3 2.66 3 3.32 3 4 C5.64 4.33 8.28 4.66 11 5 C11 5.66 11 6.32 11 7 C5.66912345 7.43695709 5.66912345 7.43695709 3 7 C0.97170628 4.59140121 0 3.16955691 0 0 Z " fill="#DB9F36" transform="translate(33,76)"/>
<path d="M0 0 C0.33 0 0.66 0 1 0 C1.22162329 1.62324086 1.42689803 3.248721 1.625 4.875 C1.74101562 5.77992187 1.85703125 6.68484375 1.9765625 7.6171875 C1.98429687 8.40351562 1.99203125 9.18984375 2 10 C1.34 10.66 0.68 11.32 0 12 C-0.64767793 14.57061311 -0.64767793 14.57061311 -1 17 C-1.33 17 -1.66 17 -2 17 C-2 10.90805035 -1.80549161 5.86784772 0 0 Z " fill="#BC7B23" transform="translate(25,50)"/>
<path d="M0 0 C0.66 0.33 1.32 0.66 2 1 C2 2.65 2 4.3 2 6 C1.01 6.33 0.02 6.66 -1 7 C-1 7.66 -1 8.32 -1 9 C-1.66 9 -2.32 9 -3 9 C-3 8.34 -3 7.68 -3 7 C-3.66 6.67 -4.32 6.34 -5 6 C-4.360625 5.566875 -3.72125 5.13375 -3.0625 4.6875 C-0.73253997 3.08760823 -0.73253997 3.08760823 0 0 Z " fill="#F0B13C" transform="translate(84,103)"/>
<path d="M0 0 C0.99 0 1.98 0 3 0 C3 0.66 3 1.32 3 2 C3.99 2 4.98 2 6 2 C6.33 3.32 6.66 4.64 7 6 C5.35 5.67 3.7 5.34 2 5 C2 5.99 2 6.98 2 8 C1.34 8 0.68 8 0 8 C0 6.68 0 5.36 0 4 C0.66 4 1.32 4 2 4 C1.34 2.68 0.68 1.36 0 0 Z " fill="#9B560B" transform="translate(24,82)"/>
<path d="M0 0 C3.65316671 1.24976756 4.78065836 1.67098753 7 5 C7 5.99 7 6.98 7 8 C6.34 8 5.68 8 5 8 C5 7.34 5 6.68 5 6 C3.68 5.67 2.36 5.34 1 5 C0.67 3.35 0.34 1.7 0 0 Z " fill="#A1651E" transform="translate(18,95)"/>
<path d="M0 0 C0.66 0.33 1.32 0.66 2 1 C2.33 1.99 2.66 2.98 3 4 C3.66 4 4.32 4 5 4 C5 3.34 5 2.68 5 2 C5.66 2.33 6.32 2.66 7 3 C4.94766315 5.2477975 3.99332739 6.0022242 1 7 C1 5.68 1 4.36 1 3 C-0.98 3 -2.96 3 -5 3 C-4.360625 2.690625 -3.72125 2.38125 -3.0625 2.0625 C-1.06389179 1.1654837 -1.06389179 1.1654837 0 0 Z " fill="#E2A134" transform="translate(78,108)"/>
<path d="M0 0 C0.66 0 1.32 0 2 0 C1.52269162 1.4589426 1.04308958 2.91713496 0.5625 4.375 C0.29566406 5.18710938 0.02882812 5.99921875 -0.24609375 6.8359375 C-1 9 -1 9 -2 11 C-2.66 11 -3.32 11 -4 11 C-3.74438677 8.6568787 -3.40729228 6.32156597 -3 4 C-2.34 3.67 -1.68 3.34 -1 3 C-0.67 2.01 -0.34 1.02 0 0 Z " fill="#9B5D18" transform="translate(182,72)"/>
<path d="M0 0 C2.64194427 2.64194427 2.85205998 4.3014996 3 8 C1.0625 10.375 1.0625 10.375 -1 12 C-1.99352844 8.90902264 -1.96367132 7.08374821 -1 4 C-0.814375 3.2575 -0.62875 2.515 -0.4375 1.75 C-0.293125 1.1725 -0.14875 0.595 0 0 Z " fill="#B06E1C" transform="translate(58,62)"/>
<path d="M0 0 C0.66 0 1.32 0 2 0 C2.66 1.65 3.32 3.3 4 5 C3.01 5.33 2.02 5.66 1 6 C1 6.99 1 7.98 1 9 C0.34 9 -0.32 9 -1 9 C-1.125 2.25 -1.125 2.25 0 0 Z " fill="#E1A842" transform="translate(24,41)"/>
<path d="M0 0 C2 3.75 2 3.75 2 6 C2.99 6.33 3.98 6.66 5 7 C3.02 7.99 3.02 7.99 1 9 C0.34 8.34 -0.32 7.68 -1 7 C-1.99 7.495 -1.99 7.495 -3 8 C-2.37240135 5.07120629 -1.41377341 2.63904371 0 0 Z " fill="#B4711F" transform="translate(22,74)"/>
<path d="M0 0 C3.69418201 1.231394 5.35109746 3.20791354 8 6 C7.67 6.66 7.34 7.32 7 8 C3.535 6.02 3.535 6.02 0 4 C0 2.68 0 1.36 0 0 Z " fill="#9C611B" transform="translate(101,107)"/>
<path d="M0 0 C0.99 0.33 1.98 0.66 3 1 C0.45287926 3.00130916 -1.9527375 4.85727656 -5 6 C-7.25 5.625 -7.25 5.625 -9 5 C-6.35239499 2.8251816 -4.34733143 1.69255133 -1 1 C-0.67 0.67 -0.34 0.34 0 0 Z " fill="#C87F1F" transform="translate(156,97)"/>
<path d="M0 0 C0.33 0.99 0.66 1.98 1 3 C1.66 3 2.32 3 3 3 C3.33 6.3 3.66 9.6 4 13 C0.87506296 9.87506296 0.04088867 7.08354985 -0.125 2.6875 C-0.08375 1.800625 -0.0425 0.91375 0 0 Z " fill="#AB6610" transform="translate(15,67)"/>
<path d="M0 0 C0.33 0 0.66 0 1 0 C1.33 2.64 1.66 5.28 2 8 C2.66 8 3.32 8 4 8 C3.67 8.99 3.34 9.98 3 11 C3 10.34 3 9.68 3 9 C0.69 8.34 -1.62 7.68 -4 7 C-3.67 6.34 -3.34 5.68 -3 5 C-2.01 5 -1.02 5 0 5 C0 3.35 0 1.7 0 0 Z " fill="#F2C453" transform="translate(36,44)"/>
<path d="M0 0 C0 0.66 0 1.32 0 2 C-2.64 2.33 -5.28 2.66 -8 3 C-8 3.66 -8 4.32 -8 5 C-8.66 5 -9.32 5 -10 5 C-9.625 3.0625 -9.625 3.0625 -9 1 C-6.04335481 -0.4783226 -3.25770263 -0.06032783 0 0 Z " fill="#DEA337" transform="translate(63,35)"/>
<path d="M0 0 C1.32 0.33 2.64 0.66 4 1 C2.6875 3 2.6875 3 1 5 C0.01 5 -0.98 5 -2 5 C-2 5.99 -2 6.98 -2 8 C-2.66 8 -3.32 8 -4 8 C-3.67 6.35 -3.34 4.7 -3 3 C-2.34 3 -1.68 3 -1 3 C-0.67 2.01 -0.34 1.02 0 0 Z " fill="#BD7416" transform="translate(138,14)"/>
<path d="M0 0 C0.66 0 1.32 0 2 0 C2.33 1.32 2.66 2.64 3 4 C3.99 3.67 4.98 3.34 6 3 C6 3.99 6 4.98 6 6 C3.69 5.67 1.38 5.34 -1 5 C-0.67 3.35 -0.34 1.7 0 0 Z " fill="#F4C254" transform="translate(34,82)"/>
<path d="M0 0 C2.97069541 2.54631035 4.4775751 5.42230149 6 9 C5.67 9.66 5.34 10.32 5 11 C2.65808437 8.8709858 1.16445046 6.95591271 0 4 C0 2.68 0 1.36 0 0 Z " fill="#985C18" transform="translate(10,77)"/>
<path d="M0 0 C0.33 0.99 0.66 1.98 1 3 C1.99 3 2.98 3 4 3 C4 3.99 4 4.98 4 6 C1.69 6.33 -0.62 6.66 -3 7 C-2.34 6.67 -1.68 6.34 -1 6 C-0.34227572 2.97065509 -0.34227572 2.97065509 0 0 Z " fill="#F3BF52" transform="translate(74,74)"/>
<path d="M0 0 C1.74627478 2.61941217 2.38722388 4.03824877 3 7 C2.01 7 1.02 7 0 7 C-0.38133299 5.0085944 -0.71325582 3.00720923 -1 1 C-0.67 0.67 -0.34 0.34 0 0 Z M-3 6 C-2.01 6.33 -1.02 6.66 0 7 C-0.33 8.32 -0.66 9.64 -1 11 C-1.66 9.35 -2.32 7.7 -3 6 Z " fill="#E09E32" transform="translate(16,75)"/>
<path d="M0 0 C0.66 0.33 1.32 0.66 2 1 C4.09821215 0.60061233 4.09821215 0.60061233 6 0 C5.67 1.32 5.34 2.64 5 4 C3.68 3.67 2.36 3.34 1 3 C1 3.66 1 4.32 1 5 C0.01 5 -0.98 5 -2 5 C-1.125 1.125 -1.125 1.125 0 0 Z " fill="#CB8221" transform="translate(122,47)"/>
<path d="M0 0 C1.485 0.99 1.485 0.99 3 2 C3 2.66 3 3.32 3 4 C3.66 4 4.32 4 5 4 C5.66 5.98 6.32 7.96 7 10 C2.95868733 8.65289578 2.09711566 6.61571666 0 3 C0 2.01 0 1.02 0 0 Z " fill="#AB6610" transform="translate(83,31)"/>
<path d="M0 0 C0.71484375 1.703125 0.71484375 1.703125 1 4 C-0.43359375 6.359375 -0.43359375 6.359375 -2.4375 8.75 C-3.42556641 9.94882812 -3.42556641 9.94882812 -4.43359375 11.171875 C-5.20896484 12.07679687 -5.20896484 12.07679687 -6 13 C-6 9.32965255 -4.9247108 7.9000569 -3 4.8125 C-2.443125 3.91144531 -1.88625 3.01039062 -1.3125 2.08203125 C-0.6628125 1.05142578 -0.6628125 1.05142578 0 0 Z " fill="#CE8B31" transform="translate(156,25)"/>
<path d="M0 0 C0.66 0 1.32 0 2 0 C1.01 3.3 0.02 6.6 -1 10 C-1.99 9.34 -2.98 8.68 -4 8 C-2.87548273 5.0280615 -1.77706209 2.66559313 0 0 Z " fill="#B06C18" transform="translate(160,11)"/>
<path d="M0 0 C0.556875 0.226875 1.11375 0.45375 1.6875 0.6875 C0.0375 2.0075 -1.6125 3.3275 -3.3125 4.6875 C-4.6325 4.0275 -5.9525 3.3675 -7.3125 2.6875 C-2.88173077 -0.38942308 -2.88173077 -0.38942308 0 0 Z " fill="#D78D2A" transform="translate(127.3125,11.3125)"/>
<path d="M0 0 C1.0209375 0.2165625 1.0209375 0.2165625 2.0625 0.4375 C5.36273082 1.06945909 8.67144426 1.54313941 12 2 C12 2.33 12 2.66 12 3 C8.04 3 4.08 3 0 3 C0 2.01 0 1.02 0 0 Z " fill="#C48B3C" transform="translate(62,118)"/>
<path d="M0 0 C3.23490776 0.55774272 4.97855006 1.37211508 7 4 C7 4.99 7 5.98 7 7 C4.13302508 5.71480435 2.02392288 4.42870746 0 2 C0 1.34 0 0.68 0 0 Z " fill="#9E611B" transform="translate(26,104)"/>
<path d="M0 0 C0.66 0.33 1.32 0.66 2 1 C2 1.66 2 2.32 2 3 C4.64 3.33 7.28 3.66 10 4 C7.24075815 5.80411967 6.11027897 6.0127245 2.75 5.625 C1.8425 5.41875 0.935 5.2125 0 5 C-0.33 4.01 -0.66 3.02 -1 2 C-0.67 1.34 -0.34 0.68 0 0 Z " fill="#AB6815" transform="translate(45,98)"/>
<path d="M0 0 C2.35900131 2.14454665 3.91146131 3.98558516 5 7 C5.0777346 9.33203812 5.08967728 11.66839059 5 14 C4.67 14 4.34 14 4 14 C3.87625 13.030625 3.7525 12.06125 3.625 11.0625 C3.41875 10.051875 3.2125 9.04125 3 8 C2.34 7.67 1.68 7.34 1 7 C0.59270772 4.67843403 0.25561323 2.3431213 0 0 Z " fill="#C98328" transform="translate(180,34)"/>
<path d="M0 0 C0.66 0.33 1.32 0.66 2 1 C2.625 3.5625 2.625 3.5625 3 6 C1.68 5.67 0.36 5.34 -1 5 C-1.33 6.32 -1.66 7.64 -2 9 C-2.6875 6.75 -2.6875 6.75 -3 4 C-1.5625 1.6875 -1.5625 1.6875 0 0 Z " fill="#AD6A1A" transform="translate(47,37)"/>
<path d="M0 0 C0.66 0 1.32 0 2 0 C1.51421457 3.12290635 1.0013988 5.99580359 0 9 C-0.66 9 -1.32 9 -2 9 C-1.125 1.125 -1.125 1.125 0 0 Z " fill="#BC751C" transform="translate(169,75)"/>
<path d="M0 0 C1.06546953 3.1964086 1.07427838 5.65747276 1 9 C0.01 8.67 -0.98 8.34 -2 8 C-2.33 6.35 -2.66 4.7 -3 3 C-2.01 2.67 -1.02 2.34 0 2 C0 1.34 0 0.68 0 0 Z " fill="#E9A839" transform="translate(15,73)"/>
<path d="M0 0 C0.66 0.33 1.32 0.66 2 1 C2.36923077 8.50769231 2.36923077 8.50769231 0.5 11 C0.005 11.33 -0.49 11.66 -1 12 C-0.814375 11.0925 -0.62875 10.185 -0.4375 9.25 C-0.03393523 6.25209026 -0.19760855 4.80837006 -1 2 C-0.67 1.34 -0.34 0.68 0 0 Z " fill="#CB8222" transform="translate(135,31)"/>
<path d="M0 0 C8.57142857 1 8.57142857 1 12 2 C12 2.66 12 3.32 12 4 C10.56138706 3.91253716 9.12402492 3.80434652 7.6875 3.6875 C6.88699219 3.62949219 6.08648437 3.57148438 5.26171875 3.51171875 C2.63727666 2.91793306 1.69179328 2.04219706 0 0 Z " fill="#995D18" transform="translate(58,9)"/>
<path d="M0 0 C2.64 0 5.28 0 8 0 C5.8445332 2.47878682 4.28880515 3.57563804 1 4 C0.34 3.67 -0.32 3.34 -1 3 C-0.67 2.01 -0.34 1.02 0 0 Z " fill="#AA6D21" transform="translate(150,109)"/>
<path d="M0 0 C0.625 1.875 0.625 1.875 1 4 C-1 6 -1 6 -3.625 6.125 C-4.40875 6.08375 -5.1925 6.0425 -6 6 C-6 5.34 -6 4.68 -6 4 C-4.35 3.67 -2.7 3.34 -1 3 C-0.67 2.01 -0.34 1.02 0 0 Z " fill="#F4BF55" transform="translate(65,97)"/>
<path d="M0 0 C0.33 0 0.66 0 1 0 C1 1.98 1 3.96 1 6 C0.38125 5.814375 -0.2375 5.62875 -0.875 5.4375 C-3.04160178 4.76313824 -3.04160178 4.76313824 -5 6 C-4.34 4.35 -3.68 2.7 -3 1 C-2.01 1.33 -1.02 1.66 0 2 C0 1.34 0 0.68 0 0 Z " fill="#B36E1D" transform="translate(104,88)"/>
<path d="M0 0 C0.66 0.33 1.32 0.66 2 1 C2 3.97 2 6.94 2 10 C1.01 9.34 0.02 8.68 -1 8 C-0.67 5.36 -0.34 2.72 0 0 Z " fill="#A15D0E" transform="translate(56,61)"/>
<path d="M0 0 C0 0.66 0 1.32 0 2 C-0.928125 2.268125 -1.85625 2.53625 -2.8125 2.8125 C-5.76240366 3.91148371 -7.05615186 4.62418561 -9 7 C-8.8125 4.625 -8.8125 4.625 -8 2 C-5.11090151 0.40339294 -3.30941204 0 0 0 Z " fill="#DDA236" transform="translate(40,41)"/>
<path d="M0 0 C2 2 2 2 2.125 4.625 C2.08375 5.40875 2.0425 6.1925 2 7 C1.34 6.01 0.68 5.02 0 4 C-0.99 5.32 -1.98 6.64 -3 8 C-3.66 7.67 -4.32 7.34 -5 7 C-3.625 4.5 -3.625 4.5 -2 2 C-1.34 2 -0.68 2 0 2 C0 1.34 0 0.68 0 0 Z " fill="#E2A034" transform="translate(85,100)"/>
<path d="M0 0 C0.66 0 1.32 0 2 0 C0.60667426 3.36720387 -0.9789286 4.9859524 -4 7 C-4.66 6.01 -5.32 5.02 -6 4 C-3 2 -3 2 0 2 C0 1.34 0 0.68 0 0 Z " fill="#CD8525" transform="translate(166,95)"/>
<path d="M0 0 C0.66 0.33 1.32 0.66 2 1 C1.67 1.66 1.34 2.32 1 3 C1.33 3.33 1.66 3.66 2 4 C2 5.32 2 6.64 2 8 C1.34 8 0.68 8 0 8 C0 7.34 0 6.68 0 6 C-0.66 6 -1.32 6 -2 6 C-1.34 4.02 -0.68 2.04 0 0 Z " fill="#CC8526" transform="translate(103,93)"/>
<path d="M0 0 C0.66 0 1.32 0 2 0 C1.45276317 3.37462715 0.9451 5.08235 -1 8 C-1.66 8 -2.32 8 -3 8 C-1.125 2.25 -1.125 2.25 0 0 Z " fill="#995D1A" transform="translate(11,32)"/>
<path d="M0 0 C0.66 0.33 1.32 0.66 2 1 C-0.25 3.0625 -0.25 3.0625 -3 5 C-5.3125 4.75 -5.3125 4.75 -7 4 C-1.7265625 0.77734375 -1.7265625 0.77734375 0 0 Z " fill="#995B16" transform="translate(159,105)"/>
<path d="M0 0 C4.95 0.99 4.95 0.99 10 2 C9.67 2.66 9.34 3.32 9 4 C6.69 3.67 4.38 3.34 2 3 C1.67 3.66 1.34 4.32 1 5 C0.67 3.35 0.34 1.7 0 0 Z " fill="#E5AB3F" transform="translate(49,89)"/>
<path d="M0 0 C-0.33 1.65 -0.66 3.3 -1 5 C-1.99 5.33 -2.98 5.66 -4 6 C-4 4.35 -4 2.7 -4 1 C-2 0 -2 0 0 0 Z " fill="#B26B12" transform="translate(160,70)"/>
<path d="M0 0 C0.66 0.66 1.32 1.32 2 2 C4.57061311 2.64767793 4.57061311 2.64767793 7 3 C7 3.33 7 3.66 7 4 C5.35 4 3.7 4 2 4 C2 4.66 2 5.32 2 6 C1.01 6 0.02 6 -1 6 C-0.67 4.02 -0.34 2.04 0 0 Z " fill="#E6B047" transform="translate(71,36)"/>
<path d="M0 0 C0.33 0.99 0.66 1.98 1 3 C-1.64 4.98 -4.28 6.96 -7 9 C-5.04783565 5.09567131 -3.12613393 2.96160056 0 0 Z " fill="#BD8030" transform="translate(23,17)"/>
<path d="M0 0 C3.875 1.75 3.875 1.75 5 4 C1.37673261 5.2077558 0.35853631 4.54311128 -3 3 C-2.01 2.67 -1.02 2.34 0 2 C0 1.34 0 0.68 0 0 Z " fill="#A96C20" transform="translate(165,7)"/>
<path d="M0 0 C0.33 0 0.66 0 1 0 C0.25 7.75 0.25 7.75 -2 10 C-2 7.69 -2 5.38 -2 3 C-1.34 3 -0.68 3 0 3 C0 2.01 0 1.02 0 0 Z " fill="#9D580E" transform="translate(142,49)"/>
<path d="M0 0 C0.99 0 1.98 0 3 0 C2.67 1.32 2.34 2.64 2 4 C0.35 4 -1.3 4 -3 4 C-1.6875 2 -1.6875 2 0 0 Z " fill="#F3BE52" transform="translate(76,40)"/>
<path d="M0 0 C0.99 0 1.98 0 3 0 C3.79953138 3.28696233 4.09658936 4.71023192 3 8 C0 2.25 0 2.25 0 0 Z " fill="#A6671D" transform="translate(179,29)"/>
<path d="M0 0 C0.33 0.66 0.66 1.32 1 2 C1.825 2.165 2.65 2.33 3.5 2.5 C4.325 2.665 5.15 2.83 6 3 C6.33 3.66 6.66 4.32 7 5 C5.02 5 3.04 5 1 5 C0.67 3.35 0.34 1.7 0 0 Z " fill="#D18B2C" transform="translate(161,8)"/>
<path d="M0 0 C4.54805635 -0.17835515 7.8794254 0.00214565 12 2 C7.47907032 3.45606519 4.48351204 2.27032841 0 1 C0 0.67 0 0.34 0 0 Z " fill="#B47626" transform="translate(61,9)"/>
</svg>
