<?xml version="1.0" encoding="UTF-8"?>
<svg version="1.1" xmlns="http://www.w3.org/2000/svg" width="216" height="169">
<path d="M0 0 C6.08577697 0.10867459 10.13884285 3.09506918 14.35546875 7.27734375 C24.27811003 18.30014995 28.29562555 30.00000294 27.81640625 44.88671875 C27.21342629 50.43786415 26.17975012 56.10913186 21.68359375 59.82421875 C21.06613281 60.25347656 20.44867188 60.68273438 19.8125 61.125 C17.06105863 63.17109305 16.4966429 64.1149641 15.71875 67.53515625 C15.44701604 69.97814906 15.19714175 72.42366848 14.96875 74.87109375 C14.22803135 79.75656895 12.22272048 83.35662847 9.4375 87.375 C8.7775 87.375 8.1175 87.375 7.4375 87.375 C7.23125 87.9525 7.025 88.53 6.8125 89.125 C5.4375 91.375 5.4375 91.375 2.3125 93.25 C1.36375 93.95125 0.415 94.6525 -0.5625 95.375 C-0.80231689 98.46385941 -0.80231689 98.46385941 -0.5625 101.375 C1.81596433 101.14502126 4.18811266 100.89178509 6.5625 100.625 C7.22765625 100.563125 7.8928125 100.50125 8.578125 100.4375 C17.4857076 99.38954911 22.33289907 93.71361306 28.02539062 87.4453125 C31.8275242 83.45135071 31.8275242 83.45135071 35.30859375 83.015625 C36.36240234 83.19351563 36.36240234 83.19351563 37.4375 83.375 C37.96085055 87.04516347 37.55352579 88.21637434 35.3203125 91.26953125 C34.41376015 92.25405239 33.49397034 93.22652027 32.5625 94.1875 C32.10230469 94.68958984 31.64210937 95.19167969 31.16796875 95.70898438 C29.97469973 96.98007529 28.71031077 98.18356565 27.4375 99.375 C26.7775 99.375 26.1175 99.375 25.4375 99.375 C25.1075 100.365 24.7775 101.355 24.4375 102.375 C20.24120493 104.90778614 16.15093976 106.08028823 11.375 107.0625 C10.18777344 107.31386719 9.00054687 107.56523438 7.77734375 107.82421875 C4.90765079 108.29746636 2.334043 108.48998564 -0.5625 108.375 C-0.8925 110.355 -1.2225 112.335 -1.5625 114.375 C-0.72847656 114.36339844 0.10554687 114.35179688 0.96484375 114.33984375 C4.45707879 114.31184187 7.94545163 114.33154691 11.4375 114.375 C12.68273437 114.38080078 12.68273437 114.38080078 13.953125 114.38671875 C24.99824886 114.96281334 33.4419231 123.53467756 41.4375 130.375 C41.1075 131.695 40.7775 133.015 40.4375 134.375 C34.04256901 134.04365643 30.62642127 131.80436221 25.6875 127.875 C24.38273748 126.86131953 23.07553984 125.85076364 21.765625 124.84375 C21.1974707 124.39451172 20.62931641 123.94527344 20.04394531 123.48242188 C17.15835435 121.49320598 14.59672855 121.25330334 11.20703125 121.27734375 C10.00336914 121.28217773 10.00336914 121.28217773 8.77539062 121.28710938 C7.52532227 121.29967773 7.52532227 121.29967773 6.25 121.3125 C5.40501953 121.31701172 4.56003906 121.32152344 3.68945312 121.32617188 C1.60543845 121.33794597 -0.47853977 121.3558811 -2.5625 121.375 C-2.8925 123.685 -3.2225 125.995 -3.5625 128.375 C-2.52609375 128.76171875 -1.4896875 129.1484375 -0.421875 129.546875 C0.94813149 130.07235694 2.31791139 130.59842989 3.6875 131.125 C4.71037109 131.50398438 4.71037109 131.50398438 5.75390625 131.890625 C10.44855937 133.71379126 13.93865041 135.41146026 16.31591797 140.11181641 C17.20468218 142.15632737 17.98804397 144.21759832 18.75 146.3125 C19.02650391 147.01568359 19.30300781 147.71886719 19.58789062 148.44335938 C21.08012252 152.45396753 21.81524665 155.25787404 20.4375 159.375 C18.08984375 159.3515625 18.08984375 159.3515625 15.4375 158.375 C14.43041273 155.7956541 13.69570367 153.41007816 13 150.75 C11.24723802 145.0981859 9.52678454 141.61957353 4.21459961 138.74853516 C-0.22311121 136.710526 -3.64610578 135.375 -8.5625 135.375 C-9.2225 135.375 -9.8825 135.375 -10.5625 135.375 C-10.91828125 136.22771484 -10.91828125 136.22771484 -11.28125 137.09765625 C-16.79299327 146.89444383 -27.9751806 152.18080336 -38.30688477 155.13916016 C-55.24318995 159.62965023 -69.99328476 157.0622893 -85.46875 149.2890625 C-88.70123253 147.28916801 -90.94480032 145.11695758 -93.5625 142.375 C-95.52825218 140.66227122 -97.53997401 139.02124208 -99.5625 137.375 C-102.0155376 138.53664757 -104.4464264 139.72655834 -106.875 140.9375 C-107.56529297 141.26041016 -108.25558594 141.58332031 -108.96679688 141.91601562 C-112.78915913 143.85489503 -114.32288221 144.93611586 -116.44140625 148.81640625 C-116.81136719 149.99074219 -117.18132812 151.16507813 -117.5625 152.375 C-118.01496094 153.77878906 -118.01496094 153.77878906 -118.4765625 155.2109375 C-118.71117188 156.04882812 -118.94578125 156.88671875 -119.1875 157.75 C-120.45745798 162.26995798 -120.45745798 162.26995798 -121.5625 163.375 C-123.22867115 163.41563832 -124.89638095 163.417721 -126.5625 163.375 C-128.00615786 158.76286939 -126.81562705 155.45538643 -125.5 150.9375 C-125.21092773 149.81118164 -125.21092773 149.81118164 -124.91601562 148.66210938 C-123.35803314 143.24490424 -121.37847706 140.59724217 -116.5625 137.375 C-114.31027731 136.19245483 -112.01692893 135.08459637 -109.6875 134.0625 C-108.53507812 133.55074219 -107.38265625 133.03898438 -106.1953125 132.51171875 C-104.89207031 131.94904297 -104.89207031 131.94904297 -103.5625 131.375 C-104.5525 129.065 -105.5425 126.755 -106.5625 124.375 C-120.96717278 124.57463832 -129.2244969 127.2623894 -139.5625 137.375 C-140.40748047 138.28378906 -140.40748047 138.28378906 -141.26953125 139.2109375 C-142.5625 140.375 -142.5625 140.375 -145.25 140.5625 C-146.013125 140.500625 -146.77625 140.43875 -147.5625 140.375 C-147.875 137.65625 -147.875 137.65625 -147.5625 134.375 C-145.4375 132.03125 -145.4375 132.03125 -142.5625 129.875 C-141.634375 129.1634375 -140.70625 128.451875 -139.75 127.71875 C-138.698125 126.9453125 -137.64625 126.171875 -136.5625 125.375 C-135.97146484 124.86308105 -135.38042969 124.35116211 -134.77148438 123.82373047 C-129.451493 119.37288662 -124.88251922 118.21372294 -118.0625 117.5 C-117.1446875 117.38398437 -116.226875 117.26796875 -115.28125 117.1484375 C-113.04334659 116.86869957 -110.80531677 116.61145697 -108.5625 116.375 C-108.5625 115.055 -108.5625 113.735 -108.5625 112.375 C-109.57957031 112.30152344 -109.57957031 112.30152344 -110.6171875 112.2265625 C-115.3979433 111.84251286 -120.14641498 111.37578783 -124.875 110.5625 C-125.63425781 110.43230469 -126.39351562 110.30210938 -127.17578125 110.16796875 C-132.68967463 108.33602054 -137.07036087 104.2805449 -141.375 100.5 C-142.80779297 99.26636719 -142.80779297 99.26636719 -144.26953125 98.0078125 C-146.8574812 95.03629927 -147.30815066 93.25241444 -147.5625 89.375 C-145.4296875 88.515625 -145.4296875 88.515625 -142.5625 88.375 C-140.35584535 90.23893172 -138.57612406 91.97772717 -136.6875 94.125 C-130.55985805 101.00854528 -124.75596873 103.51203457 -115.625 104.5625 C-114.94115234 104.64435547 -114.25730469 104.72621094 -113.55273438 104.81054688 C-111.890421 105.00816455 -110.22659095 105.19295659 -108.5625 105.375 C-108.22338351 102.49302663 -108.22338351 102.49302663 -108.5625 99.375 C-110.26466269 97.67637388 -110.26466269 97.67637388 -112.625 96.5625 C-119.71235996 92.28776163 -124.44499564 86.19624816 -127.1015625 78.3515625 C-127.5874747 76.26790508 -127.70859532 74.32154219 -127.8125 72.1875 C-128.14610549 68.48468633 -128.14610549 68.48468633 -130.03515625 67.04296875 C-131.27428095 66.25634819 -132.52197972 65.48309237 -133.77734375 64.72265625 C-137.81237074 61.6765199 -139.64932495 56.22250866 -140.5625 51.375 C-141.60950142 36.28788124 -139.03703822 23.62156468 -129.5625 11.375 C-125.90087939 7.36022816 -121.67329078 5.04762244 -116.5625 3.375 C-112.18154762 3.75595238 -112.18154762 3.75595238 -110.5625 5.375 C-110.00060859 9.64537473 -110.97313758 12.61364384 -112.5625 16.5 C-114.91966747 22.53401674 -114.9647649 27.97228365 -114.5625 34.375 C-110.21942245 29.710213 -108.03423424 24.15926332 -105.5625 18.375 C-101.11083571 18.01405425 -101.11083571 18.01405425 -98.859375 19.49609375 C-94.65440148 25.58823913 -93.90012137 34.74202004 -94.9921875 41.91015625 C-97.09971292 51.01870789 -100.59156601 60.80889518 -108.4375 66.4375 C-109.13875 66.746875 -109.84 67.05625 -110.5625 67.375 C-109.9518656 72.66716482 -106.01260507 76.21491594 -102.0625 79.375 C-99.64194435 80.63910597 -99.64194435 80.63910597 -97.375 79.75 C-95.9828125 79.069375 -95.9828125 79.069375 -94.5625 78.375 C-88.85338411 76.37831448 -83.42076274 75.03986191 -77.375 74.68359375 C-75.31446202 74.51255697 -75.31446202 74.51255697 -73.5625 72.375 C-73.10438325 70.40264667 -73.10438325 70.40264667 -72.9375 68.25 C-72.751875 66.331875 -72.751875 66.331875 -72.5625 64.375 C-68.8125 63.25 -68.8125 63.25 -66.5625 64.375 C-66.5625 65.035 -66.5625 65.695 -66.5625 66.375 C-65.61375 66.045 -64.665 65.715 -63.6875 65.375 C-58.990448 64.01658578 -54.40754763 64.22891816 -49.5625 64.375 C-48.2425 64.375 -46.9225 64.375 -45.5625 64.375 C-45.2325 64.045 -44.9025 63.715 -44.5625 63.375 C-42.89632885 63.33436168 -41.22861905 63.332279 -39.5625 63.375 C-39.500625 64.468125 -39.43875 65.56125 -39.375 66.6875 C-38.95673095 70.40927003 -38.95673095 70.40927003 -36.5078125 72.0390625 C-32.91858366 73.66706815 -29.50271346 74.09545471 -25.625 74.4375 C-21.67960461 74.8095681 -18.04646714 75.2000095 -14.2890625 76.55859375 C-11.671937 77.63003721 -11.671937 77.63003721 -9.55078125 76.6875 C-5.6846337 73.65946836 -3.34674549 71.09800276 -1.5625 66.375 C-1.5625 65.715 -1.5625 65.055 -1.5625 64.375 C-2.73215793 63.33002642 -3.95018092 62.338904 -5.1875 61.375 C-12.99621848 54.71340299 -17.9957293 45.21560751 -18.84375 34.98046875 C-19.01713395 28.19682185 -18.96027395 22.35039557 -15.5625 16.375 C-13.0625 15.1875 -13.0625 15.1875 -10.5625 15.375 C-7.07053358 18.16675441 -5.68442762 22.03546359 -3.84375 26 C-2.63101916 28.24798888 -1.46276152 29.69569912 0.4375 31.375 C1.5602539 26.59609879 1.2133951 23.51902856 -0.3125 18.875 C-0.65796875 17.7921875 -1.0034375 16.709375 -1.359375 15.59375 C-2.5130574 12.31788047 -2.5130574 12.31788047 -4.21875 9.14453125 C-5.76262412 5.96253488 -5.69174089 4.66861927 -4.5625 1.375 C-3.5625 0.375 -3.5625 0.375 0 0 Z " fill="#AE0E25" transform="translate(165.5625,1.625)"/>
<path d="M0 0 C5.47607007 1.79452296 10.4029636 4.5522227 15 8 C15.495 8.99 15.495 8.99 16 10 C18.58605332 10.4683265 18.58605332 10.4683265 21.5625 10.625 C22.57441406 10.69976562 23.58632812 10.77453125 24.62890625 10.8515625 C25.41136719 10.90054688 26.19382812 10.94953125 27 11 C27 11.66 27 12.32 27 13 C27.66 13 28.32 13 29 13 C29 13.66 29 14.32 29 15 C29.61488281 15.09152344 30.22976562 15.18304688 30.86328125 15.27734375 C33 16 33 16 34.23046875 17.56640625 C36.57493928 22.45630192 37.61315341 26.58414771 38 32 C36.68 32 35.36 32 34 32 C34.05220703 33.051875 34.05220703 33.051875 34.10546875 34.125 C34.44223336 45.92779791 30.68068262 53.01505052 23 62 C21.06347854 63.57913767 19.16332682 64.73366235 17 66 C16.505 67.485 16.505 67.485 16 69 C19.465 68.505 19.465 68.505 23 68 C23 67.34 23 66.68 23 66 C24.95927063 64.2856382 26.95880212 62.61594832 29 61 C30 64 30 64 30 66 C28.36209288 67.04644066 26.68991979 68.0398183 25 69 C24.38125 69.556875 23.7625 70.11375 23.125 70.6875 C20.05635124 72.58284188 17.52536155 72.26606502 14 72 C13.67 71.67 13.34 71.34 13 71 C11.30858344 71.08963062 9.62040398 71.24577676 7.9375 71.4375 C7.01839844 71.53933594 6.09929687 71.64117187 5.15234375 71.74609375 C4.44207031 71.82988281 3.73179688 71.91367188 3 72 C3 72.99 3 73.98 3 75 C3.99 75.66 4.98 76.32 6 77 C6 78.32 6 79.64 6 81 C-0.98003608 83.2127434 -12.00729424 83.57500278 -18.5625 80.1875 C-19.71224468 79.46451644 -20.85841877 78.73580591 -22 78 C-23.134375 77.566875 -24.26875 77.13375 -25.4375 76.6875 C-33.4642098 72.8853743 -39.155769 67.36010582 -44 60 C-44.86625 58.7315625 -44.86625 58.7315625 -45.75 57.4375 C-49.05537722 50.99201442 -49.39173144 44.74455379 -49.4375 37.625 C-49.47037109 36.73039062 -49.50324219 35.83578125 -49.53710938 34.9140625 C-49.59063375 28.21864922 -48.0451185 23.38369281 -44 18 C-40.9375 15.5625 -40.9375 15.5625 -38 14 C-37.4121875 13.64808594 -36.824375 13.29617187 -36.21875 12.93359375 C-33.3002575 11.7055661 -30.71864358 11.64594884 -27.5625 11.5 C-23.24810853 11.30002821 -19.93273085 10.8230229 -16 9 C-16 8.34 -16 7.68 -16 7 C-14.68 6.67 -13.36 6.34 -12 6 C-11.896875 5.38125 -11.79375 4.7625 -11.6875 4.125 C-9.9819727 -1.14662985 -4.59811138 -0.65459225 0 0 Z " fill="#E84C28" transform="translate(112,71)"/>
<path d="M0 0 C6.08577697 0.10867459 10.13884285 3.09506918 14.35546875 7.27734375 C24.27811003 18.30014995 28.29562555 30.00000294 27.81640625 44.88671875 C27.21342629 50.43786415 26.17975012 56.10913186 21.68359375 59.82421875 C21.06613281 60.25347656 20.44867188 60.68273438 19.8125 61.125 C17.06105863 63.17109305 16.4966429 64.1149641 15.71875 67.53515625 C15.44701604 69.97814906 15.19714175 72.42366848 14.96875 74.87109375 C14.22803135 79.75656895 12.22272048 83.35662847 9.4375 87.375 C8.7775 87.375 8.1175 87.375 7.4375 87.375 C7.23125 87.9525 7.025 88.53 6.8125 89.125 C5.4375 91.375 5.4375 91.375 2.3125 93.25 C1.36375 93.95125 0.415 94.6525 -0.5625 95.375 C-0.80231689 98.46385941 -0.80231689 98.46385941 -0.5625 101.375 C1.81596433 101.14502126 4.18811266 100.89178509 6.5625 100.625 C7.56023437 100.5321875 7.56023437 100.5321875 8.578125 100.4375 C17.4857076 99.38954911 22.33289907 93.71361306 28.02539062 87.4453125 C31.8275242 83.45135071 31.8275242 83.45135071 35.30859375 83.015625 C36.01113281 83.13421875 36.71367187 83.2528125 37.4375 83.375 C37.96085055 87.04516347 37.55352579 88.21637434 35.3203125 91.26953125 C34.41376015 92.25405239 33.49397034 93.22652027 32.5625 94.1875 C32.10230469 94.68958984 31.64210938 95.19167969 31.16796875 95.70898438 C29.97469973 96.98007529 28.71031077 98.18356565 27.4375 99.375 C26.7775 99.375 26.1175 99.375 25.4375 99.375 C24.9425 100.86 24.9425 100.86 24.4375 102.375 C20.24120493 104.90778614 16.15093976 106.08028823 11.375 107.0625 C10.18777344 107.31386719 9.00054687 107.56523438 7.77734375 107.82421875 C4.90765079 108.29746636 2.334043 108.48998564 -0.5625 108.375 C-0.8925 110.355 -1.2225 112.335 -1.5625 114.375 C-0.72847656 114.36339844 0.10554688 114.35179688 0.96484375 114.33984375 C4.45707879 114.31184187 7.94545163 114.33154691 11.4375 114.375 C12.26765625 114.37886719 13.0978125 114.38273437 13.953125 114.38671875 C24.99824886 114.96281334 33.4419231 123.53467756 41.4375 130.375 C41.1075 131.695 40.7775 133.015 40.4375 134.375 C34.04256901 134.04365643 30.62642127 131.80436221 25.6875 127.875 C24.38273748 126.86131953 23.07553984 125.85076364 21.765625 124.84375 C21.1974707 124.39451172 20.62931641 123.94527344 20.04394531 123.48242188 C17.15835435 121.49320598 14.59672855 121.25330334 11.20703125 121.27734375 C10.40458984 121.28056641 9.60214844 121.28378906 8.77539062 121.28710938 C7.52532227 121.29967773 7.52532227 121.29967773 6.25 121.3125 C5.40501953 121.31701172 4.56003906 121.32152344 3.68945312 121.32617188 C1.60543845 121.33794597 -0.47853977 121.3558811 -2.5625 121.375 C-2.8925 123.685 -3.2225 125.995 -3.5625 128.375 C-2.52609375 128.76171875 -1.4896875 129.1484375 -0.421875 129.546875 C0.94813149 130.07235694 2.31791139 130.59842989 3.6875 131.125 C4.71037109 131.50398438 4.71037109 131.50398438 5.75390625 131.890625 C10.44855937 133.71379126 13.93865041 135.41146026 16.31591797 140.11181641 C17.20468218 142.15632737 17.98804397 144.21759832 18.75 146.3125 C19.02650391 147.01568359 19.30300781 147.71886719 19.58789062 148.44335938 C21.08012252 152.45396753 21.81524665 155.25787404 20.4375 159.375 C18.08984375 159.3515625 18.08984375 159.3515625 15.4375 158.375 C14.43041273 155.7956541 13.69570367 153.41007816 13 150.75 C11.24723802 145.0981859 9.52678454 141.61957353 4.21459961 138.74853516 C-0.22311121 136.710526 -3.64610578 135.375 -8.5625 135.375 C-9.2225 135.375 -9.8825 135.375 -10.5625 135.375 C-10.79066406 135.93960938 -11.01882812 136.50421875 -11.25390625 137.0859375 C-12.9180277 139.99690815 -14.98398265 141.79063381 -17.5 144 C-18.37527344 144.77601563 -19.25054687 145.55203125 -20.15234375 146.3515625 C-22.5625 148.375 -22.5625 148.375 -25.5625 150.375 C-26.5525 150.045 -27.5425 149.715 -28.5625 149.375 C-27.593125 148.7975 -26.62375 148.22 -25.625 147.625 C-22.46780708 145.72707138 -22.46780708 145.72707138 -21.6875 143.125 C-21.64625 142.5475 -21.605 141.97 -21.5625 141.375 C-20.5725 141.375 -19.5825 141.375 -18.5625 141.375 C-18.5625 140.715 -18.5625 140.055 -18.5625 139.375 C-17.9025 139.375 -17.2425 139.375 -16.5625 139.375 C-16.5625 138.715 -16.5625 138.055 -16.5625 137.375 C-15.5871803 136.35091432 -14.58051357 135.35665594 -13.5625 134.375 C-7.45644061 127.69649754 -6.09613046 120.20100031 -5.3125 111.5 C-5.17714844 110.21996094 -5.17714844 110.21996094 -5.0390625 108.9140625 C-4.41527055 104.50680402 -4.41527055 104.50680402 -5.5625 100.375 C-5.63766846 101.0455542 -5.71283691 101.7161084 -5.7902832 102.40698242 C-6.13958127 105.46037029 -6.50709887 108.51130008 -6.875 111.5625 C-6.99294922 112.61759766 -7.11089844 113.67269531 -7.23242188 114.75976562 C-7.35810547 115.78134766 -7.48378906 116.80292969 -7.61328125 117.85546875 C-7.72325439 118.79285889 -7.83322754 119.73024902 -7.9465332 120.69604492 C-9.00158301 125.28465433 -11.76829519 128.78894674 -14.5625 132.5 C-15.0575 133.16257813 -15.5525 133.82515625 -16.0625 134.5078125 C-17.4802519 136.27261825 -18.8583635 137.88388057 -20.5625 139.375 C-21.2225 139.375 -21.8825 139.375 -22.5625 139.375 C-22.5625 140.035 -22.5625 140.695 -22.5625 141.375 C-27.61491666 145.6906059 -30.95771488 147.02737973 -37.5625 147.375 C-37.5625 148.035 -37.5625 148.695 -37.5625 149.375 C-40.8625 149.705 -44.1625 150.035 -47.5625 150.375 C-47.2325 149.385 -46.9025 148.395 -46.5625 147.375 C-47.5215625 147.00375 -47.5215625 147.00375 -48.5 146.625 C-50.5625 145.375 -50.5625 145.375 -51.3125 143.25 C-51.43625 142.321875 -51.43625 142.321875 -51.5625 141.375 C-47.73992309 139.57614028 -44.7834225 139.00796326 -40.5625 139.375 C-39.5725 140.035 -38.5825 140.695 -37.5625 141.375 C-37.0675 140.385 -37.0675 140.385 -36.5625 139.375 C-36.5625 140.035 -36.5625 140.695 -36.5625 141.375 C-32.4426759 139.74261686 -29.62745535 138.59320311 -26.5625 135.375 C-25.5725 135.375 -24.5825 135.375 -23.5625 135.375 C-24.0575 133.395 -24.0575 133.395 -24.5625 131.375 C-25.2225 131.375 -25.8825 131.375 -26.5625 131.375 C-27.5525 133.355 -27.5525 133.355 -28.5625 135.375 C-29.2225 135.375 -29.8825 135.375 -30.5625 135.375 C-30.5625 136.035 -30.5625 136.695 -30.5625 137.375 C-32.9375 138.4375 -32.9375 138.4375 -35.5625 139.375 C-36.2225 139.045 -36.8825 138.715 -37.5625 138.375 C-37.4375 136.625 -37.4375 136.625 -36.5625 134.375 C-35.14882548 133.49986815 -33.73450479 132.62575715 -32.31640625 131.7578125 C-26.68642198 127.31902758 -21.9035948 119.45300032 -20.5625 112.375 C-20.34440695 108.36010523 -20.38180152 104.39052176 -20.5625 100.375 C-18.9125 100.705 -17.2625 101.035 -15.5625 101.375 C-16.01695964 99.95708592 -16.47624944 98.54071954 -16.9375 97.125 C-17.19273437 96.33609375 -17.44796875 95.5471875 -17.7109375 94.734375 C-18.50362701 92.37251144 -18.50362701 92.37251144 -19.6640625 90.265625 C-20.5625 88.375 -20.5625 88.375 -20.5625 85.375 C-21.8825 85.045 -23.2025 84.715 -24.5625 84.375 C-24.5625 83.715 -24.5625 83.055 -24.5625 82.375 C-25.2225 82.375 -25.8825 82.375 -26.5625 82.375 C-26.5625 81.715 -26.5625 81.055 -26.5625 80.375 C-30.1925 80.375 -33.8225 80.375 -37.5625 80.375 C-37.5625 80.045 -37.5625 79.715 -37.5625 79.375 C-21.81762528 78.82146925 -21.81762528 78.82146925 -14.5625 82.375 C-14.5625 83.365 -14.5625 84.355 -14.5625 85.375 C-13.5725 85.705 -12.5825 86.035 -11.5625 86.375 C-10.375 89.4375 -10.375 89.4375 -9.5625 92.375 C-8.9025 92.375 -8.2425 92.375 -7.5625 92.375 C-7.8925 91.385 -8.2225 90.395 -8.5625 89.375 C-7.9025 89.375 -7.2425 89.375 -6.5625 89.375 C-7.0575 85.415 -7.0575 85.415 -7.5625 81.375 C-5.5825 80.88 -5.5825 80.88 -3.5625 80.375 C-3.5625 79.715 -3.5625 79.055 -3.5625 78.375 C-2.9025 78.375 -2.2425 78.375 -1.5625 78.375 C-1.294375 77.776875 -1.02625 77.17875 -0.75 76.5625 C0.4375 74.375 0.4375 74.375 1.9375 72.9375 C3.64271538 71.38479027 3.64271538 71.38479027 4.3125 68.75 C4.68375 67.96625 5.055 67.1825 5.4375 66.375 C8.0625 65.5625 8.0625 65.5625 10.4375 65.375 C9.98048965 75.24642364 7.01583102 81.36010022 -0.171875 88.125 C-0.63078125 88.5375 -1.0896875 88.95 -1.5625 89.375 C-0.5725 89.87 -0.5725 89.87 0.4375 90.375 C0.99179688 89.8696875 1.54609375 89.364375 2.1171875 88.84375 C2.84164062 88.1940625 3.56609375 87.544375 4.3125 86.875 C5.03179687 86.2253125 5.75109375 85.575625 6.4921875 84.90625 C8.4375 83.375 8.4375 83.375 10.4375 83.375 C10.51790527 82.78485107 10.59831055 82.19470215 10.68115234 81.58666992 C11.0502956 78.91077627 11.4312576 76.2366955 11.8125 73.5625 C12.00199219 72.1693457 12.00199219 72.1693457 12.1953125 70.74804688 C12.32421875 69.85537109 12.453125 68.96269531 12.5859375 68.04296875 C12.70114746 67.22078857 12.81635742 66.3986084 12.93505859 65.55151367 C13.4375 63.375 13.4375 63.375 15.4375 60.375 C16.0975 60.375 16.7575 60.375 17.4375 60.375 C17.540625 59.611875 17.64375 58.84875 17.75 58.0625 C18.50549155 55.10921485 19.30742523 54.41632166 21.4375 52.375 C22.69095276 48.83046802 22.53725635 45.35063535 22.5 41.625 C22.49097656 40.45453125 22.48195313 39.2840625 22.47265625 38.078125 C22.46105469 37.18609375 22.44945312 36.2940625 22.4375 35.375 C22.36402344 36.82132813 22.36402344 36.82132813 22.2890625 38.296875 C22.21429688 39.56015625 22.13953125 40.8234375 22.0625 42.125 C21.99289063 43.37796875 21.92328125 44.6309375 21.8515625 45.921875 C21.48426696 48.98498121 21.04038714 50.79474266 19.4375 53.375 C18.7775 53.375 18.1175 53.375 17.4375 53.375 C17.334375 53.99375 17.23125 54.6125 17.125 55.25 C16.4375 57.375 16.4375 57.375 13.4375 59.375 C7.18786018 60.21629767 1.8612313 59.58496342 -3.5625 56.375 C-5.84909673 53.42455261 -6.5625 52.11768873 -6.5625 48.375 C-7.2225 48.375 -7.8825 48.375 -8.5625 48.375 C-9.0575 46.395 -9.0575 46.395 -9.5625 44.375 C-10.2225 44.375 -10.8825 44.375 -11.5625 44.375 C-12.40273188 40.02167264 -12.67020995 35.93057481 -12.625 31.5 C-12.61597656 30.34757812 -12.60695312 29.19515625 -12.59765625 28.0078125 C-12.58605469 27.13898437 -12.57445312 26.27015625 -12.5625 25.375 C-11.9025 25.375 -11.2425 25.375 -10.5625 25.375 C-10.0675 27.85 -10.0675 27.85 -9.5625 30.375 C-8.9025 30.375 -8.2425 30.375 -7.5625 30.375 C-5.4375 32.25 -5.4375 32.25 -3.5625 34.375 C-3.5625 35.035 -3.5625 35.695 -3.5625 36.375 C-2.2425 36.705 -0.9225 37.035 0.4375 37.375 C-0.036875 37.7875 -0.51125 38.2 -1 38.625 C-2.72516518 40.557185 -3.12834875 41.85692275 -3.5625 44.375 C-0.8061029 44.375 0.87685557 43.91443086 2.8828125 41.984375 C7.35818896 35.89786302 7.26871816 29.67222045 6.4375 22.375 C5.83285567 19.70297895 5.10612299 17.17440014 4.19140625 14.59375 C3.38108228 12.20896236 2.8864681 9.85086291 2.4375 7.375 C5.375 8.1875 5.375 8.1875 8.4375 9.375 C8.9325 10.86 8.9325 10.86 9.4375 12.375 C10.35982422 12.81199219 10.35982422 12.81199219 11.30078125 13.2578125 C14.14274907 14.74374083 15.03353792 16.4925567 16.625 19.25 C17.13417969 20.11367188 17.64335937 20.97734375 18.16796875 21.8671875 C19.28723707 24.07817292 19.97052297 25.95572142 20.4375 28.375 C20.73857307 23.25675775 20.26706174 20.61934262 17.4375 16.375 C17.4375 15.385 17.4375 14.395 17.4375 13.375 C16.90125 13.1275 16.365 12.88 15.8125 12.625 C8.00892857 8.51785714 8.00892857 8.51785714 6.4375 5.375 C4.11593403 4.96770772 1.7806213 4.63061323 -0.5625 4.375 C-0.81319913 6.74929296 -0.81319913 6.74929296 -0.5625 9.375 C0.41600195 10.39604551 1.41730427 11.3956121 2.4375 12.375 C3.0625 14.9375 3.0625 14.9375 3.4375 17.375 C3.9325 18.365 3.9325 18.365 4.4375 19.375 C4.58617166 21.49643022 4.6588289 23.62355992 4.6875 25.75 C4.71328125 26.89210938 4.7390625 28.03421875 4.765625 29.2109375 C4.41371427 32.60436235 3.73332784 33.92208921 1.4375 36.375 C-0.5 35.5625 -0.5 35.5625 -2.5625 34.375 C-2.8925 33.385 -3.2225 32.395 -3.5625 31.375 C-4.5525 31.045 -5.5425 30.715 -6.5625 30.375 C-8.25 27.3125 -8.25 27.3125 -9.5625 24.375 C-11.2125 24.375 -12.8625 24.375 -14.5625 24.375 C-14.5625 25.365 -14.5625 26.355 -14.5625 27.375 C-15.2225 27.375 -15.8825 27.375 -16.5625 27.375 C-16.12011615 34.90716715 -15.42344772 42.0552723 -13.5625 49.375 C-18.35519757 44.58230243 -18.79798734 37.80681416 -18.9375 31.3125 C-18.79652144 25.6488397 -18.37720674 21.32500151 -15.5625 16.375 C-13.0625 15.1875 -13.0625 15.1875 -10.5625 15.375 C-7.07053358 18.16675441 -5.68442762 22.03546359 -3.84375 26 C-2.63101916 28.24798888 -1.46276152 29.69569912 0.4375 31.375 C1.5602539 26.59609879 1.2133951 23.51902856 -0.3125 18.875 C-0.65796875 17.7921875 -1.0034375 16.709375 -1.359375 15.59375 C-2.5130574 12.31788047 -2.5130574 12.31788047 -4.21875 9.14453125 C-5.76262412 5.96253488 -5.69174089 4.66861927 -4.5625 1.375 C-3.5625 0.375 -3.5625 0.375 0 0 Z " fill="#AB152A" transform="translate(165.5625,1.625)"/>
<path d="M0 0 C4.03531138 1.58966812 8.0159293 3.28717809 12 5 C11.97643433 5.93682617 11.97643433 5.93682617 11.95239258 6.89257812 C11.88947956 9.76162417 11.85083269 12.63052442 11.8125 15.5 C11.78736328 16.48226562 11.76222656 17.46453125 11.73632812 18.4765625 C11.62682754 29.42662102 15.32835623 37.33720673 22 46 C26.63204161 50.58132582 31.73291204 53.67114379 37.76171875 56.078125 C40 57 40 57 42.80078125 58.59375 C46.61960344 60.27235316 49.34120529 60.33317589 53.5 60.25 C54.18835938 60.23904297 54.87671875 60.22808594 55.5859375 60.21679688 C62.40640222 60.0731424 69.20497003 59.59456512 76 59 C76 58.34 76 57.68 76 57 C76.60328125 56.81824219 77.2065625 56.63648438 77.828125 56.44921875 C82.10210307 55.10498371 85.52439351 53.91950945 89 51 C89.66 51 90.32 51 91 51 C91 50.34 91 49.68 91 49 C91.66 49 92.32 49 93 49 C93.33 48.01 93.66 47.02 94 46 C94.7425 45.278125 95.485 44.55625 96.25 43.8125 C103.19763392 36.70696531 104.89296314 30.29277467 105.8125 20.5 C105.93302734 19.39140625 106.05355469 18.2828125 106.17773438 17.140625 C106.4699951 14.42844551 106.74356121 11.71576027 107 9 C109.93995756 11.4254411 109.93995756 11.4254411 110.20458984 13.95776367 C110.12418457 14.68713135 110.0437793 15.41649902 109.9609375 16.16796875 C109.87457031 16.97943359 109.78820312 17.79089844 109.69921875 18.62695312 C109.59222656 19.47193359 109.48523438 20.31691406 109.375 21.1875 C109.29121094 22.01314453 109.20742187 22.83878906 109.12109375 23.68945312 C108.22099876 31.51288151 106.33022083 37.98200874 101 44 C100.34 44.99 99.68 45.98 99 47 C98.34 47 97.68 47 97 47 C97 47.66 97 48.32 97 49 C96.34 49 95.68 49 95 49 C95 49.66 95 50.32 95 51 C94.01 51 93.02 51 92 51 C91.9071875 52.1446875 91.9071875 52.1446875 91.8125 53.3125 C91 56 91 56 88.625 57.625 C87.75875 58.07875 86.8925 58.5325 86 59 C85.57074219 59.47953125 85.14148438 59.9590625 84.69921875 60.453125 C82.40079831 62.54548016 80.13788839 63.18236019 77.1875 64.125 C75.66189453 64.62386719 75.66189453 64.62386719 74.10546875 65.1328125 C57.85506697 69.67066054 42.79172967 66.2967633 28.09375 58.9140625 C24.86126747 56.91416801 22.61769968 54.74195758 20 52 C18.03424782 50.28727122 16.02252599 48.64624208 14 47 C11.5469624 48.16164757 9.1160736 49.35155834 6.6875 50.5625 C5.99720703 50.88541016 5.30691406 51.20832031 4.59570312 51.54101562 C0.77334087 53.47989503 -0.76038221 54.56111586 -2.87890625 58.44140625 C-3.24886719 59.61574219 -3.61882813 60.79007813 -4 62 C-4.30164063 62.93585938 -4.60328125 63.87171875 -4.9140625 64.8359375 C-5.14867188 65.67382812 -5.38328125 66.51171875 -5.625 67.375 C-6.89495798 71.89495798 -6.89495798 71.89495798 -8 73 C-9.66617115 73.04063832 -11.33388095 73.042721 -13 73 C-14.44365786 68.38786939 -13.25312705 65.08038643 -11.9375 60.5625 C-11.74478516 59.81162109 -11.55207031 59.06074219 -11.35351562 58.28710938 C-9.79553314 52.86990424 -7.81597706 50.22224217 -3 47 C-0.74777731 45.81745483 1.54557107 44.70959637 3.875 43.6875 C5.02742188 43.17574219 6.17984375 42.66398437 7.3671875 42.13671875 C8.23601563 41.76160156 9.10484375 41.38648438 10 41 C9.01 38.69 8.02 36.38 7 34 C-7.40467278 34.19963832 -15.6619969 36.8873894 -26 47 C-26.56332031 47.60585937 -27.12664063 48.21171875 -27.70703125 48.8359375 C-29 50 -29 50 -31.6875 50.1875 C-32.8321875 50.0946875 -32.8321875 50.0946875 -34 50 C-34.3359375 47.296875 -34.3359375 47.296875 -34 44 C-31.6640625 41.515625 -31.6640625 41.515625 -28.625 39.25 C-27.62726562 38.49203125 -26.62953125 37.7340625 -25.6015625 36.953125 C-24.74304687 36.30859375 -23.88453125 35.6640625 -23 35 C-22.34 34.34 -21.68 33.68 -21 33 C-15.61587758 30.26312855 -10.79194826 29.34981233 -4.8125 28.8125 C-4.01908203 28.73064453 -3.22566406 28.64878906 -2.40820312 28.56445312 C1.09785859 28.21414133 4.46779577 28 8 28 C7.54086322 24.51400668 7.54086322 24.51400668 6 21 C2.48599332 19.45913678 2.48599332 19.45913678 -1 19 C-1 18.34 -1 17.68 -1 17 C1.31 17.33 3.62 17.66 6 18 C6.4269252 14.57104524 6.60451035 11.41370549 6 8 C4.00707759 5.44266598 1.73516149 3.71645338 -1 2 C-0.67 1.34 -0.34 0.68 0 0 Z " fill="#AE1829" transform="translate(52,92)"/>
<path d="M0 0 C15.74487472 -0.55353075 15.74487472 -0.55353075 23 3 C23 3.99 23 4.98 23 6 C23.99 6.33 24.98 6.66 26 7 C26.70381157 8.98723268 27.3711811 10.98777953 28 13 C28.66 13.33 29.32 13.66 30 14 C32.62421495 23.4939751 32.23865317 37.87848936 27.61328125 46.62109375 C26.11746988 48.8267817 24.60299768 50.9960187 23 53.125 C22.505 53.78757813 22.01 54.45015625 21.5 55.1328125 C20.0822481 56.89761825 18.7041365 58.50888057 17 60 C16.34 60 15.68 60 15 60 C15 60.66 15 61.32 15 62 C9.94758334 66.3156059 6.60478512 67.65237973 0 68 C0 68.66 0 69.32 0 70 C-4.95 70.495 -4.95 70.495 -10 71 C-9.67 70.01 -9.34 69.02 -9 68 C-9.9590625 67.62875 -9.9590625 67.62875 -10.9375 67.25 C-13 66 -13 66 -13.75 63.875 C-13.8325 63.25625 -13.915 62.6375 -14 62 C-10.17742309 60.20114028 -7.2209225 59.63296326 -3 60 C-2.01 60.66 -1.02 61.32 0 62 C0.33 61.34 0.66 60.68 1 60 C1 60.66 1 61.32 1 62 C5.1198241 60.36761686 7.93504465 59.21820311 11 56 C11.99 56 12.98 56 14 56 C13.67 54.68 13.34 53.36 13 52 C12.34 52 11.68 52 11 52 C10.34 53.32 9.68 54.64 9 56 C8.34 56 7.68 56 7 56 C7 56.66 7 57.32 7 58 C4.625 59.0625 4.625 59.0625 2 60 C1.34 59.67 0.68 59.34 0 59 C0.125 57.25 0.125 57.25 1 55 C2.41367452 54.12486815 3.82799521 53.25075715 5.24609375 52.3828125 C10.87607802 47.94402758 15.6589052 40.07800032 17 33 C17.21809305 28.98510523 17.18069848 25.01552176 17 21 C18.65 21.33 20.3 21.66 22 22 C21.54554036 20.58208592 21.08625056 19.16571954 20.625 17.75 C20.36976563 16.96109375 20.11453125 16.1721875 19.8515625 15.359375 C19.05887299 12.99751144 19.05887299 12.99751144 17.8984375 10.890625 C17 9 17 9 17 6 C15.68 5.67 14.36 5.34 13 5 C13 4.34 13 3.68 13 3 C12.34 3 11.68 3 11 3 C11 2.34 11 1.68 11 1 C7.37 1 3.74 1 0 1 C0 0.67 0 0.34 0 0 Z " fill="#DB390D" transform="translate(128,81)"/>
<path d="M0 0 C0.99 0 1.98 0 3 0 C2.67 2.64 2.34 5.28 2 8 C1.34 8 0.68 8 0 8 C-0.72673511 21.54585935 -0.72673511 21.54585935 4 34 C4.67503322 35.32911714 5.34399251 36.66139013 6 38 C7.98 37.505 7.98 37.505 10 37 C10.33 35.68 10.66 34.36 11 33 C10.34 33 9.68 33 9 33 C8.67 32.01 8.34 31.02 8 30 C8.66 30 9.32 30 10 30 C10.33 29.01 10.66 28.02 11 27 C12.66666667 25.33333333 14.33333333 23.66666667 16 22 C16.33 21.01 16.66 20.02 17 19 C17.66 19 18.32 19 19 19 C21.3841143 26.15234291 19.50074769 33.08279424 17 40 C16.34 40.66 15.68 41.32 15 42 C14.566875 43.11375 14.13375 44.2275 13.6875 45.375 C11.85394429 49.3137493 10.73406126 50.84254239 7 53 C1.40275136 54.26389485 -2.59518873 54.28665092 -8 52 C-12.81948349 47.44102913 -14.04543158 41.81386856 -14.30078125 35.40625 C-14.3152186 33.7708924 -14.31895896 32.13540858 -14.3125 30.5 C-14.32861328 29.68402344 -14.34472656 28.86804688 -14.36132812 28.02734375 C-14.3657254 22.5483415 -13.48398675 18.88477777 -11 14 C-10.58878906 13.13632812 -10.17757812 12.27265625 -9.75390625 11.3828125 C-9.36074219 10.63773438 -8.96757813 9.89265625 -8.5625 9.125 C-8.17191406 8.36445313 -7.78132813 7.60390625 -7.37890625 6.8203125 C-5.69473644 4.59701751 -4.66452843 4.51554012 -2 4 C-0.71563266 2.0162233 -0.71563266 2.0162233 0 0 Z " fill="#E13D0C" transform="translate(45,12)"/>
<path d="M0 0 C2.9375 0.8125 2.9375 0.8125 6 2 C6.33 2.99 6.66 3.98 7 5 C7.61617187 5.29519531 8.23234375 5.59039063 8.8671875 5.89453125 C11.66356056 7.3439334 12.54447557 8.98571347 14.125 11.6875 C14.62257812 12.51636719 15.12015625 13.34523438 15.6328125 14.19921875 C18.71898727 20.52146821 19.31824019 26.28955391 19.25 33.1875 C19.26160156 34.37762695 19.26160156 34.37762695 19.2734375 35.59179688 C19.24960447 42.68808231 19.24960447 42.68808231 17 46 C16.34 46 15.68 46 15 46 C14.896875 46.61875 14.79375 47.2375 14.6875 47.875 C14 50 14 50 11 52 C4.75036018 52.84129767 -0.5762687 52.20996342 -6 49 C-8.28659673 46.04955261 -9 44.74268873 -9 41 C-9.66 41 -10.32 41 -11 41 C-11.33 39.68 -11.66 38.36 -12 37 C-12.66 37 -13.32 37 -14 37 C-14.84023188 32.64667264 -15.10770995 28.55557481 -15.0625 24.125 C-15.05347656 22.97257812 -15.04445312 21.82015625 -15.03515625 20.6328125 C-15.02355469 19.76398437 -15.01195312 18.89515625 -15 18 C-14.34 18 -13.68 18 -13 18 C-12.67 19.65 -12.34 21.3 -12 23 C-11.34 23 -10.68 23 -10 23 C-7.875 24.875 -7.875 24.875 -6 27 C-6 27.66 -6 28.32 -6 29 C-4.68 29.33 -3.36 29.66 -2 30 C-2.474375 30.4125 -2.94875 30.825 -3.4375 31.25 C-5.16266518 33.182185 -5.56584875 34.48192275 -6 37 C-3.2436029 37 -1.56064443 36.53943086 0.4453125 34.609375 C4.92068896 28.52286302 4.83121816 22.29722045 4 15 C3.39535567 12.32797895 2.66862299 9.79940014 1.75390625 7.21875 C0.94358228 4.83396236 0.4489681 2.47586291 0 0 Z " fill="#E13D0D" transform="translate(168,9)"/>
<path d="M0 0 C4.22234314 0.16239781 6.38083828 0.4412443 9.5625 3.3125 C10.366875 4.199375 11.17125 5.08625 12 6 C13.010625 6.598125 14.02125 7.19625 15.0625 7.8125 C18.89192115 10.6641966 20.65316259 13.43313751 22 18 C22.29729071 21.36609804 22.24842002 24.63252866 22 28 C20 25 20 25 18.6875 21.8125 C15.94539524 15.27576541 12.17542162 7.75218586 5.375 4.8984375 C4.59125 4.60195312 3.8075 4.30546875 3 4 C3.27714844 4.66386719 3.55429688 5.32773438 3.83984375 6.01171875 C4.38318359 7.33623047 4.38318359 7.33623047 4.9375 8.6875 C5.47697266 9.99267578 5.47697266 9.99267578 6.02734375 11.32421875 C8.64713769 18.5312824 9.90811254 27.65240181 6.765625 34.8125 C2.96866485 40.67711172 2.96866485 40.67711172 -1 42 C-1.66 41.67 -2.32 41.34 -3 41 C-2.25 36.25 -2.25 36.25 0 34 C-1.485 33.505 -1.485 33.505 -3 33 C-3 32.34 -3 31.68 -3 31 C-4.32 30.34 -5.64 29.68 -7 29 C-7 28.34 -7 27.68 -7 27 C-7.66 27 -8.32 27 -9 27 C-9.495 24.525 -9.495 24.525 -10 22 C-10.66 22 -11.32 22 -12 22 C-11.67 28.27 -11.34 34.54 -11 41 C-10.34 41 -9.68 41 -9 41 C-8.67 42.32 -8.34 43.64 -8 45 C-7.34 45 -6.68 45 -6 45 C-3 50.75 -3 50.75 -3 53 C2.63371008 54.95955133 8.03405612 55.70923808 14 55 C17.24849977 53.27773504 17.24849977 53.27773504 18 50 C18.66 50 19.32 50 20 50 C20.75277515 47.26750659 21.16641703 44.71899317 21.31640625 41.890625 C21.35830078 41.13652344 21.40019531 40.38242187 21.44335938 39.60546875 C21.48267578 38.82816406 21.52199219 38.05085938 21.5625 37.25 C21.62727539 36.06083984 21.62727539 36.06083984 21.69335938 34.84765625 C21.79902991 32.89862185 21.89997966 30.94933252 22 29 C24.36724448 32.55086672 24.24079681 34.11174259 24.1875 38.3125 C24.18105469 39.42238281 24.17460937 40.53226563 24.16796875 41.67578125 C24.0071722 44.85805714 23.59153978 47.87193763 23 51 C21.02 51.495 21.02 51.495 19 52 C18.896875 52.763125 18.79375 53.52625 18.6875 54.3125 C18 57 18 57 16.5234375 58.3125 C14.41265034 60.6506027 14.3459884 62.59012676 13.9375 65.6875 C13.77121094 66.75871094 13.60492188 67.82992187 13.43359375 68.93359375 C13.18201225 70.71279623 12.95335397 72.49614417 12.78515625 74.28515625 C12.05346042 79.3268412 9.82709307 81.31606023 5.875 84.5 C4.2643096 85.6863442 2.64364872 86.85975661 1 88 C-0.485 87.01 -0.485 87.01 -2 86 C-1.54109375 85.5875 -1.0821875 85.175 -0.609375 84.75 C6.48736357 78.07071664 9.32530411 71.51932398 11 62 C8.52372901 62.63921965 8.52372901 62.63921965 6 64 C5.27095914 65.64034193 4.61344757 67.31301918 4 69 C2.47019247 71.19651419 0.834702 73.02769535 -1 75 C-1.66 75 -2.32 75 -3 75 C-3 75.66 -3 76.32 -3 77 C-4.98 77.495 -4.98 77.495 -7 78 C-6.649375 78.7425 -6.29875 79.485 -5.9375 80.25 C-4.93688408 83.18514002 -5.01982508 84.15749274 -6 87 C-6 87.66 -6 88.32 -6 89 C-6 91 -6 93 -6 95 C-6.33 95 -6.66 95 -7 95 C-7 93.35 -7 91.7 -7 90 C-8.485 89.505 -8.485 89.505 -10 89 C-10.70381157 87.01276732 -11.3711811 85.01222047 -12 83 C-12.66 82.67 -13.32 82.34 -14 82 C-14 81.01 -14 80.02 -14 79 C-14.71542969 78.85691406 -15.43085938 78.71382813 -16.16796875 78.56640625 C-22.58398438 77.28320312 -22.58398438 77.28320312 -29 76 C-29 75.67 -29 75.34 -29 75 C-26.89646505 74.9189794 -24.79204048 74.86080093 -22.6875 74.8125 C-21.51574219 74.77769531 -20.34398437 74.74289063 -19.13671875 74.70703125 C-16 75 -16 75 -14.08203125 76.38671875 C-13 78 -13 78 -13 80 C-12.34 80 -11.68 80 -11 80 C-10.05709176 78.55196234 -9.11855471 77.10080909 -8.20703125 75.6328125 C-7 74 -7 74 -3.9375 71.6875 C-0.14574337 68.21844606 0.78670931 64.88509146 2 60 C1.26394531 59.76152344 0.52789062 59.52304688 -0.23046875 59.27734375 C-3.40990181 57.81094796 -5.02102837 56.19057198 -7.3125 53.5625 C-8.00988281 52.78003906 -8.70726562 51.99757812 -9.42578125 51.19140625 C-11 49 -11 49 -11 46 C-11.66 46 -12.32 46 -13 46 C-16.0517291 38.49783264 -16.33608711 32.05364285 -16 24 C-15.34 24 -14.68 24 -14 24 C-14 23.01 -14 22.02 -14 21 C-12.35 20.67 -10.7 20.34 -9 20 C-6 23.625 -6 23.625 -6 27 C-4.68 27.33 -3.36 27.66 -2 28 C-2 28.99 -2 29.98 -2 31 C-0.68 31.33 0.64 31.66 2 32 C4.37310654 28.44034019 4.26915041 26.78037776 4.25 22.5625 C4.25515625 21.42941406 4.2603125 20.29632812 4.265625 19.12890625 C4.01057014 16.12451006 3.50341658 14.55002582 2 12 C1.7525 10.948125 1.7525 10.948125 1.5 9.875 C1.10722935 7.77320517 1.10722935 7.77320517 -1 6 C-1.1875 3.4375 -1.1875 3.4375 -1 1 C-0.67 0.67 -0.34 0.34 0 0 Z " fill="#B20A1E" transform="translate(165,5)"/>
<path d="M0 0 C0.66 0 1.32 0 2 0 C2.33 3.63 2.66 7.26 3 11 C3.66 11 4.32 11 5 11 C5.66 12.32 6.32 13.64 7 15 C6.855625 14.24074219 6.71125 13.48148438 6.5625 12.69921875 C6.376875 11.70535156 6.19125 10.71148437 6 9.6875 C5.814375 8.70136719 5.62875 7.71523437 5.4375 6.69921875 C5 4 5 4 5 1 C7.64 1 10.28 1 13 1 C13.2475 1.969375 13.495 2.93875 13.75 3.9375 C14.1625 4.948125 14.575 5.95875 15 7 C17.03243548 7.96877057 17.03243548 7.96877057 19 8 C19.495 9.98 19.495 9.98 20 12 C20.598125 12.12375 21.19625 12.2475 21.8125 12.375 C24 13 24 13 27 15 C29.32387947 15.39387788 31.65793749 15.73486085 34 16 C34 16.99 34 17.98 34 19 C33.01 19.66 32.02 20.32 31 21 C30.54625 22.010625 30.0925 23.02125 29.625 24.0625 C28 27 28 27 25.75 28.125 C21.69609755 27.94073171 19.38981585 26.19341026 16 24 C15.505 24.495 15.505 24.495 15 25 C15.66 25.45375 16.32 25.9075 17 26.375 C17.66 26.91125 18.32 27.4475 19 28 C19 28.66 19 29.32 19 30 C19.99 30.33 20.98 30.66 22 31 C21.505 35.95 21.505 35.95 21 41 C18.69 40.67 16.38 40.34 14 40 C14.33 40.66 14.66 41.32 15 42 C17.3140622 42.73075648 19.64828869 43.40138258 22 44 C22.495 47.465 22.495 47.465 23 51 C21.9378125 51.12117188 20.875625 51.24234375 19.78125 51.3671875 C12.70714832 52.1982544 5.88190244 53.11085031 -1 55 C-1.99 55 -2.98 55 -4 55 C-1.09227892 52.53894692 1.00022241 51.55766237 4.765625 51.05078125 C5.65507813 50.92509766 6.54453125 50.79941406 7.4609375 50.66992188 C8.84152344 50.49299805 8.84152344 50.49299805 10.25 50.3125 C11.18585937 50.18294922 12.12171875 50.05339844 13.0859375 49.91992188 C15.38939489 49.60260887 17.69377156 49.29637894 20 49 C20 47.68 20 46.36 20 45 C19.32195313 44.95101562 18.64390625 44.90203125 17.9453125 44.8515625 C13.1645567 44.46751286 8.41608502 44.00078783 3.6875 43.1875 C2.92824219 43.05730469 2.16898438 42.92710938 1.38671875 42.79296875 C-4.12717463 40.96102054 -8.50786087 36.9055449 -12.8125 33.125 C-13.76769531 32.30257812 -14.72289062 31.48015625 -15.70703125 30.6328125 C-18.2949812 27.66129927 -18.74565066 25.87741444 -19 22 C-16.8671875 21.140625 -16.8671875 21.140625 -14 21 C-11.79334535 22.86393172 -10.01362406 24.60272717 -8.125 26.75 C-1.99735805 33.63354528 3.80653127 36.13703457 12.9375 37.1875 C13.96327148 37.3102832 13.96327148 37.3102832 15.00976562 37.43554688 C16.672079 37.63316455 18.33590905 37.81795659 20 38 C20.33911649 35.11802663 20.33911649 35.11802663 20 32 C18.29783731 30.30137388 18.29783731 30.30137388 15.9375 29.1875 C8.93291513 24.9626874 4.05306093 18.86698295 1.48828125 11.0625 C0.62426097 7.41287836 0.25084742 3.73676161 0 0 Z " fill="#AA1629" transform="translate(37,69)"/>
<path d="M0 0 C2.93995756 2.4254411 2.93995756 2.4254411 3.20458984 4.95776367 C3.12418457 5.68713135 3.0437793 6.41649902 2.9609375 7.16796875 C2.83138672 8.38516602 2.83138672 8.38516602 2.69921875 9.62695312 C2.59222656 10.47193359 2.48523438 11.31691406 2.375 12.1875 C2.24931641 13.4259668 2.24931641 13.4259668 2.12109375 14.68945312 C1.22099876 22.51288151 -0.66977917 28.98200874 -6 35 C-6.66 35.99 -7.32 36.98 -8 38 C-8.66 38 -9.32 38 -10 38 C-10 38.66 -10 39.32 -10 40 C-10.66 40 -11.32 40 -12 40 C-12 40.66 -12 41.32 -12 42 C-12.99 42 -13.98 42 -15 42 C-15.0928125 43.1446875 -15.0928125 43.1446875 -15.1875 44.3125 C-16 47 -16 47 -18.375 48.625 C-19.24125 49.07875 -20.1075 49.5325 -21 50 C-21.495 50.515625 -21.99 51.03125 -22.5 51.5625 C-29.57637617 58.34402716 -44.97801232 56.38648273 -54.26953125 56.2109375 C-63.60773882 55.6829132 -70.2522999 51.95387168 -78 47 C-80.32045538 45.64259587 -82.65958549 44.32284298 -85 43 C-85 42.01 -85 41.02 -85 40 C-85.99 39.67 -86.98 39.34 -88 39 C-87.67 38.01 -87.34 37.02 -87 36 C-86.49210937 36.38671875 -85.98421875 36.7734375 -85.4609375 37.171875 C-76.77782159 43.76443257 -76.77782159 43.76443257 -66.9296875 48.2890625 C-65 49 -65 49 -63.21875 50.07421875 C-59.98490468 51.4235521 -57.1157729 51.22521955 -53.625 51.1875 C-52.92761719 51.18105469 -52.23023438 51.17460937 -51.51171875 51.16796875 C-44.65349668 51.06875396 -37.83233203 50.59782905 -31 50 C-31 49.34 -31 48.68 -31 48 C-30.39671875 47.81824219 -29.7934375 47.63648438 -29.171875 47.44921875 C-24.89789693 46.10498371 -21.47560649 44.91950945 -18 42 C-17.34 42 -16.68 42 -16 42 C-16 41.34 -16 40.68 -16 40 C-15.34 40 -14.68 40 -14 40 C-13.67 39.01 -13.34 38.02 -13 37 C-12.2575 36.278125 -11.515 35.55625 -10.75 34.8125 C-3.80236608 27.70696531 -2.10703686 21.29277467 -1.1875 11.5 C-1.06697266 10.39140625 -0.94644531 9.2828125 -0.82226562 8.140625 C-0.5300049 5.42844551 -0.25643879 2.71576027 0 0 Z " fill="#B50C19" transform="translate(159,101)"/>
<path d="M0 0 C2.64 0 5.28 0 8 0 C8.2475 0.969375 8.495 1.93875 8.75 2.9375 C9.36875 4.4534375 9.36875 4.4534375 10 6 C12.03243548 6.96877057 12.03243548 6.96877057 14 7 C14.33 8.32 14.66 9.64 15 11 C15.598125 11.12375 16.19625 11.2475 16.8125 11.375 C19 12 19 12 22 14 C24.32387947 14.39387788 26.65793749 14.73486085 29 15 C29 15.99 29 16.98 29 18 C28.01 18.66 27.02 19.32 26 20 C25.54625 21.010625 25.0925 22.02125 24.625 23.0625 C23 26 23 26 20.75 27.125 C16.72370138 26.94198643 14.4309758 25.09670743 11 23 C10.01 23 9.02 23 8 23 C3.5770482 18.68492507 2.03226538 15.01354601 1 9 C0.79375 7.906875 0.5875 6.81375 0.375 5.6875 C0 3 0 3 0 0 Z " fill="#B60D20" transform="translate(42,70)"/>
<path d="M0 0 C-3 2 -3 2 -5 3 C-5 4.65 -5 6.3 -5 8 C-3.02 7.34 -1.04 6.68 1 6 C1 6.99 1 7.98 1 9 C0.34 9 -0.32 9 -1 9 C-1 11.31 -1 13.62 -1 16 C-2.98 16 -4.96 16 -7 16 C-6.67 16.33 -6.34 16.66 -6 17 C-6 20.92896395 -7.00299863 24.19893228 -8 28 C-8.66 28 -9.32 28 -10 28 C-9.7525 28.5775 -9.505 29.155 -9.25 29.75 C-9.1675 30.4925 -9.085 31.235 -9 32 C-9.9590625 32.928125 -9.9590625 32.928125 -10.9375 33.875 C-13.34051794 35.89773502 -13.34051794 35.89773502 -13.25 39.25 C-13.1675 40.1575 -13.085 41.065 -13 42 C-15 41 -15 41 -16.09765625 38.0859375 C-17.33870673 33.29990015 -17.40586718 28.5456615 -17.4375 23.625 C-17.47037109 22.73039062 -17.50324219 21.83578125 -17.53710938 20.9140625 C-17.59081924 14.19544604 -16.01137736 9.42238939 -12 4 C-7.96637413 0.48130509 -5.32951161 -0.50757253 0 0 Z " fill="#E6482B" transform="translate(80,85)"/>
<path d="M0 0 C4.49819737 -0.36471871 4.49819737 -0.36471871 6.55859375 1.1328125 C10.55162762 6.30536044 11.37738179 14.75182897 10.9375 21.125 C9.58809989 29.98223262 6.18298731 39.35328864 0 46 C-2.1875 46.7421875 -2.1875 46.7421875 -4 47 C-1.525 44.03 -1.525 44.03 1 41 C-0.485 40.505 -0.485 40.505 -2 40 C-2 40.99 -2 41.98 -2 43 C-3.72368947 45.50772878 -4.80648302 45.95995274 -7.8125 46.58203125 C-8.864375 46.65808594 -9.91625 46.73414063 -11 46.8125 C-12.051875 46.90144531 -13.10375 46.99039063 -14.1875 47.08203125 C-17 47 -17 47 -20 45 C-19.19175781 44.98582031 -18.38351563 44.97164062 -17.55078125 44.95703125 C-10.8180088 44.74857363 -10.8180088 44.74857363 -4.9375 41.8125 C-1.69619802 37.10738423 0.30140572 32.4355017 2 27 C2.556875 25.63875 2.556875 25.63875 3.125 24.25 C4.32161368 19.80543491 4.16272155 15.57428354 4 11 C3.34 11 2.68 11 2 11 C1.67 12.32 1.34 13.64 1 15 C0.67 15 0.34 15 0 15 C0.33 12.69 0.66 10.38 1 8 C4 8 4 8 6 9 C7.58207099 16.33505643 6.67699564 23.58429388 6 31 C8.91152365 23.17528019 9.46193482 14.07663444 6.5 6.1875 C6.005 5.135625 5.51 4.08375 5 3 C3.68 3 2.36 3 1 3 C0.52949219 3.99902344 0.05898438 4.99804688 -0.42578125 6.02734375 C-1.05415545 7.33098575 -1.68309095 8.63435731 -2.3125 9.9375 C-2.62123047 10.59685547 -2.92996094 11.25621094 -3.24804688 11.93554688 C-4.08950978 13.66276021 -5.03947665 15.3360527 -6 17 C-6.99 17.33 -7.98 17.66 -9 18 C-6 12 -3 6 0 0 Z " fill="#B31220" transform="translate(60,20)"/>
<path d="M0 0 C0.50789063 0.38671875 1.01578125 0.7734375 1.5390625 1.171875 C8.13111213 6.15911854 14.13245701 10.36323288 22 13 C22.7940625 13.26941406 23.588125 13.53882813 24.40625 13.81640625 C26.60111906 14.55396777 28.79947954 15.27951401 31 16 C31.99 16.33 32.98 16.66 34 17 C36.80362634 17.12276572 39.57150155 17.18513218 42.375 17.1875 C43.13039062 17.19974609 43.88578125 17.21199219 44.6640625 17.22460938 C48.90956488 17.23574269 52.12985079 16.94956954 56 15 C58 14 58 14 61.0625 13.5625 C62.031875 13.376875 63.00125 13.19125 64 13 C64.33 12.34 64.66 11.68 65 11 C65.99 11 66.98 11 68 11 C68 10.34 68 9.68 68 9 C68.66 9 69.32 9 70 9 C70 8.34 70 7.68 70 7 C70.66 7 71.32 7 72 7 C71.8125 8.8125 71.8125 8.8125 71 11 C68.625 12.5625 68.625 12.5625 66 14 C65.505 14.515625 65.01 15.03125 64.5 15.5625 C57.42362383 22.34402716 42.02198768 20.38648273 32.73046875 20.2109375 C23.39226118 19.6829132 16.7477001 15.95387168 9 11 C6.67954462 9.64259587 4.34041451 8.32284298 2 7 C2 6.01 2 5.02 2 4 C1.01 3.67 0.02 3.34 -1 3 C-0.67 2.01 -0.34 1.02 0 0 Z " fill="#A60C27" transform="translate(72,137)"/>
<path d="M0 0 C1.32 0 2.64 0 4 0 C4.605907 10.95120796 1.61581171 19.16168904 -5 28 C-5.99 28.33 -6.98 28.66 -8 29 C-9.20882096 31.00016466 -9.20882096 31.00016466 -10 33 C-10.66 33 -11.32 33 -12 33 C-12 33.66 -12 34.32 -12 35 C-14.375 36.0625 -14.375 36.0625 -17 37 C-17.66 36.67 -18.32 36.34 -19 36 C-18.875 34.25 -18.875 34.25 -18 32 C-16.58632548 31.12486815 -15.17200479 30.25075715 -13.75390625 29.3828125 C-4.66881183 22.2199541 -1.8783473 10.78392335 0 0 Z " fill="#B30A1D" transform="translate(147,104)"/>
<path d="M0 0 C0.99 0.33 1.98 0.66 3 1 C2.67 1.66 2.34 2.32 2 3 C1.34 3 0.68 3 0 3 C0 3.66 0 4.32 0 5 C-5.05241666 9.3156059 -8.39521488 10.65237973 -15 11 C-15 11.66 -15 12.32 -15 13 C-18.3 13.33 -21.6 13.66 -25 14 C-24.67 13.01 -24.34 12.02 -24 11 C-24.639375 10.7525 -25.27875 10.505 -25.9375 10.25 C-28 9 -28 9 -28.75 6.875 C-28.8325 6.25625 -28.915 5.6375 -29 5 C-25.17742309 3.20114028 -22.2209225 2.63296326 -18 3 C-17.01 3.66 -16.02 4.32 -15 5 C-14.67 4.34 -14.34 3.68 -14 3 C-14 3.66 -14 4.32 -14 5 C-12.35 4.67 -10.7 4.34 -9 4 C-9 4.66 -9 5.32 -9 6 C-7.02 5.67 -5.04 5.34 -3 5 C-3 4.01 -3 3.02 -3 2 C-2.01 1.34 -1.02 0.68 0 0 Z " fill="#DB3715" transform="translate(143,138)"/>
<path d="M0 0 C1.32 0 2.64 0 4 0 C3.5223252 10.31777561 0.1655144 16.28202018 -7.09765625 23.53125 C-9 25 -9 25 -12 25 C-12.66 22.03 -13.32 19.06 -14 16 C-12.68 15.67 -11.36 15.34 -10 15 C-10 14.34 -10 13.68 -10 13 C-9.34 13 -8.68 13 -8 13 C-7.731875 12.401875 -7.46375 11.80375 -7.1875 11.1875 C-6 9 -6 9 -4.5 7.5625 C-2.60136681 5.58475709 -1.93988527 3.55111716 -1 1 C-0.67 0.67 -0.34 0.34 0 0 Z " fill="#E84F31" transform="translate(172,67)"/>
<path d="M0 0 C0.66 0 1.32 0 2 0 C2.515625 1.03125 3.03125 2.0625 3.5625 3.125 C6.22872351 7.82672748 10.14957962 11.57478981 15 14 C14.25 20.625 14.25 20.625 12 24 C11.34 24 10.68 24 10 24 C9.7525 24.5775 9.505 25.155 9.25 25.75 C7.82800599 28.30958921 6.09561473 29.96987323 4 32 C3.34 32.99 2.68 33.98 2 35 C1.2575 34.21625 0.515 33.4325 -0.25 32.625 C-5.51377628 27.60048627 -10.16040415 27.66006954 -17.15625 27.609375 C-20.60891007 27.49342746 -22.65701465 27.24914974 -25.484375 25.1953125 C-27.61822866 22.10452446 -27.28161679 19.66101831 -27 16 C-27.66 16 -28.32 16 -29 16 C-29.33 16.66 -29.66 17.32 -30 18 C-32.97 18 -35.94 18 -39 18 C-36.34601922 16.23067948 -34.9651626 15.69187127 -32 15 C-31.67 14.67 -31.34 14.34 -31 14 C-29.33382885 13.95936168 -27.66611905 13.957279 -26 14 C-25.938125 15.093125 -25.87625 16.18625 -25.8125 17.3125 C-25.39423095 21.03427003 -25.39423095 21.03427003 -22.9453125 22.6640625 C-19.35608366 24.29206815 -15.94021346 24.72045471 -12.0625 25.0625 C-8.11710461 25.4345681 -4.48396714 25.8250095 -0.7265625 27.18359375 C1.890563 28.25503721 1.890563 28.25503721 4.01171875 27.3125 C7.8778663 24.28446836 10.21575451 21.72300276 12 17 C12 16.34 12 15.68 12 15 C10.34262726 13.40151938 10.34262726 13.40151938 8.25 11.75 C4.71439962 8.7472472 2.25792467 6.04544837 0 2 C0 1.34 0 0.68 0 0 Z " fill="#B01E2A" transform="translate(152,51)"/>
<path d="M0 0 C2.1875 0 2.1875 0 5 1 C6.39861148 2.89432187 7.51147748 4.87998567 8.67578125 6.92578125 C11.2161166 10.90489061 14.49786166 13.49928722 19 15 C17.25 21.75 17.25 21.75 15 24 C12.28775382 22.38731308 9.62647188 20.75098126 7 19 C7 18.01 7 17.02 7 16 C6.01 15.67 5.02 15.34 4 15 C2.83203125 12.890625 2.83203125 12.890625 1.8125 10.25 C1.46832031 9.38890625 1.12414063 8.5278125 0.76953125 7.640625 C-0.01419245 4.95129902 -0.14520761 2.78398044 0 0 Z " fill="#E7512E" transform="translate(44,71)"/>
<path d="M0 0 C0 0.66 0 1.32 0 2 C1.98 1.67 3.96 1.34 6 1 C5.34 1.33 4.68 1.66 4 2 C3.19637952 4.2960585 2.59442431 6.61640867 1.9765625 8.96875 C1 11 1 11 -1.1015625 11.78125 C-1.72804688 11.8534375 -2.35453125 11.925625 -3 12 C-3 12.66 -3 13.32 -3 14 C-6.79869223 16.88445474 -9.79920042 17.39226076 -14.5 17.5625 C-18.80925481 17.72862781 -22.07319664 18.17579471 -26 20 C-26.33 19.01 -26.66 18.02 -27 17 C-21.89727236 13.64677898 -17.04420659 13.50566046 -11.0234375 13.2109375 C-8.52373988 13.03653999 -6.38942829 12.71100061 -4 12 C-3.95101562 11.37351562 -3.90203125 10.74703125 -3.8515625 10.1015625 C-3.77679688 9.28429687 -3.70203125 8.46703125 -3.625 7.625 C-3.55539063 6.81289062 -3.48578125 6.00078125 -3.4140625 5.1640625 C-3 3 -3 3 -1 1 C-2.32 1 -3.64 1 -5 1 C-4.896875 2.2375 -4.79375 3.475 -4.6875 4.75 C-4.72659602 7.90560719 -4.84514259 8.78430575 -6.75 11.4375 C-10.91572673 13.44025323 -14.57747401 13.57631062 -19.16015625 13.7265625 C-21.99439233 13.99946006 -23.50795363 14.74593796 -26 16 C-26.99 15.67 -27.98 15.34 -29 15 C-24.53554288 12.48703104 -20.82770623 11.49388696 -15.75 10.9375 C-10.83158023 10.63739879 -10.83158023 10.63739879 -7 8 C-6.61596877 6.05848638 -6.61596877 6.05848638 -6.5 3.9375 C-6.335 2.638125 -6.17 1.33875 -6 0 C-3.50907189 -1.24546405 -2.58919267 -0.7767578 0 0 Z " fill="#B51625" transform="translate(99,66)"/>
<path d="M0 0 C1 1 1 1 1.0625 4.0625 C1.041875 5.031875 1.02125 6.00125 1 7 C0.67 7 0.34 7 0 7 C-0.33 5.35 -0.66 3.7 -1 2 C-6.11768849 1.77411308 -6.11768849 1.77411308 -11 3 C-12.10836423 4.88316159 -12.10836423 4.88316159 -13 7 C-13.515625 7.495 -14.03125 7.99 -14.5625 8.5 C-16.26316011 10.27460185 -16.58794182 11.61006256 -17 14 C-17.99 14 -18.98 14 -20 14 C-20 15.98 -20 17.96 -20 20 C-20.66 20 -21.32 20 -22 20 C-22.10957031 20.59167969 -22.21914063 21.18335937 -22.33203125 21.79296875 C-23.68261377 28.52392065 -23.68261377 28.52392065 -25.625 31.4375 C-29.34804416 38.37590048 -26.55484818 47.6977666 -25 55 C-27 54 -27 54 -28.1015625 50.9140625 C-31.25254404 38.7620453 -29.14631756 25.90109423 -23.38671875 14.92578125 C-18.68241267 7.11308668 -10.47038472 -3.6954299 0 0 Z " fill="#B31F29" transform="translate(54,6)"/>
<path d="M0 0 C6.83361279 -0.610144 10.71311765 0.60309383 16 5 C26.19218641 15.10915434 31.09059066 26.31832068 31.5 40.75 C31.26538067 48.5328894 29.81828264 55.41394088 24.25 61.125 C23.13625 62.053125 23.13625 62.053125 22 63 C21.34 62.67 20.68 62.34 20 62 C20.40992188 61.54109375 20.81984375 61.0821875 21.2421875 60.609375 C21.78101563 59.99578125 22.31984375 59.3821875 22.875 58.75 C23.40867188 58.14671875 23.94234375 57.5434375 24.4921875 56.921875 C29.29849305 50.79570316 29.48992181 43.50416828 29 36 C28.53648411 32.61681188 28.04649946 29.2557761 27 26 C26.34 25.67 25.68 25.34 25 25 C23.38614354 21.64317857 22.1344058 18.86403728 21.5625 15.1875 C21.23578914 12.87869055 21.23578914 12.87869055 19.3125 11.9375 C18.549375 11.628125 17.78625 11.31875 17 11 C14.98817543 9.68457624 12.98600337 8.3540932 11 7 C11.33 6.34 11.66 5.68 12 5 C12.66 5.33 13.32 5.66 14 6 C9.35796103 3.46690767 5.34844008 1.53484401 0 1 C0 0.67 0 0.34 0 0 Z " fill="#B92228" transform="translate(162,2)"/>
<path d="M0 0 C0.66 0 1.32 0 2 0 C2.33 3.63 2.66 7.26 3 11 C3.66 11 4.32 11 5 11 C9 17.75 9 17.75 9 20 C9.556875 20.226875 10.11375 20.45375 10.6875 20.6875 C14.68438886 22.95600449 17.53966649 25.61899946 19 30 C19.99 30.33 20.98 30.66 22 31 C21.67 33.64 21.34 36.28 21 39 C11.46843993 39.36503847 2.71188881 39.08833327 -5 33 C-4.67 32.34 -4.34 31.68 -4 31 C-3.21625 31.61875 -2.4325 32.2375 -1.625 32.875 C4.5700322 37.00989177 12.77021322 37.19669036 20 38 C20.7555432 35.2587435 20.7555432 35.2587435 20 32 C17.93470635 30.33399645 15.72852567 29.06145721 13.45703125 27.69140625 C7.12378833 23.33163807 2.76296764 16.44677532 1 9 C0.52733582 6.00490027 0.20305726 3.02485291 0 0 Z " fill="#B82228" transform="translate(37,69)"/>
<path d="M0 0 C6.42679261 1.13347312 11.98885808 4.63863529 17.21484375 8.390625 C14.21484375 10.390625 14.21484375 10.390625 10.77734375 10.203125 C7.21484375 9.390625 7.21484375 9.390625 5.15234375 7.703125 C4.51296875 7.27 3.87359375 6.836875 3.21484375 6.390625 C0.0980315 7.20727105 0.0980315 7.20727105 -2.78515625 8.390625 C-3.44515625 8.060625 -4.10515625 7.730625 -4.78515625 7.390625 C-4.45515625 6.070625 -4.12515625 4.750625 -3.78515625 3.390625 C-5.76515625 3.720625 -7.74515625 4.050625 -9.78515625 4.390625 C-6.97046079 0.63769772 -4.70003957 -0.24506724 0 0 Z " fill="#E03D10" transform="translate(109.78515625,70.609375)"/>
<path d="M0 0 C0.66 0 1.32 0 2 0 C2 0.66 2 1.32 2 2 C1.01 2.66 0.02 3.32 -1 4 C1.60582371 4.93065133 2.64198224 5.14917407 5.25 4.0625 C6.11625 3.5365625 6.11625 3.5365625 7 3 C4.25724874 6.65700168 1.42374516 9.45488558 -2.1875 12.25 C-5.19505958 14.50816591 -5.19505958 14.50816591 -8 17 C-9.66617115 17.04063832 -11.33388095 17.042721 -13 17 C-13.3359375 14.296875 -13.3359375 14.296875 -13 11 C-10.6640625 8.515625 -10.6640625 8.515625 -7.625 6.25 C-6.12839844 5.11304688 -6.12839844 5.11304688 -4.6015625 3.953125 C-3.74304687 3.30859375 -2.88453125 2.6640625 -2 2 C-1.34 1.34 -0.68 0.68 0 0 Z " fill="#A8162A" transform="translate(31,125)"/>
<path d="M0 0 C-0.66 0 -1.32 0 -2 0 C-2 0.66 -2 1.32 -2 2 C-1.01 2.33 -0.02 2.66 1 3 C0.39526855 3.06993164 -0.20946289 3.13986328 -0.83251953 3.21191406 C-3.5989434 3.54136374 -6.36168583 3.89544778 -9.125 4.25 C-10.07632813 4.35957031 -11.02765625 4.46914062 -12.0078125 4.58203125 C-17.73543499 5.33775922 -21.49563756 6.32977875 -26 10 C-27.32 9.34 -28.64 8.68 -30 8 C-28.68 7.34 -27.36 6.68 -26 6 C-26 5.34 -26 4.68 -26 4 C-21.68195563 0.53857172 -17.18728843 0.24456297 -11.875 -0.25 C-10.65876953 -0.38535156 -10.65876953 -0.38535156 -9.41796875 -0.5234375 C-3.41565265 -1.13855088 -3.41565265 -1.13855088 0 0 Z " fill="#A10D2B" transform="translate(59,121)"/>
<path d="M0 0 C-0.99 2.97 -1.98 5.94 -3 9 C-3.66 9 -4.32 9 -5 9 C-4.7525 9.5775 -4.505 10.155 -4.25 10.75 C-4.1675 11.4925 -4.085 12.235 -4 13 C-4.639375 13.61875 -5.27875 14.2375 -5.9375 14.875 C-8.34051794 16.89773502 -8.34051794 16.89773502 -8.25 20.25 C-8.1675 21.1575 -8.085 22.065 -8 23 C-10 22 -10 22 -11.125 18.8125 C-11.92789685 15.31416374 -12.41373376 12.55811034 -12 9 C-11.01 8.34 -10.02 7.68 -9 7 C-8.71125 6.01 -8.4225 5.02 -8.125 4 C-7 1 -7 1 -4.5 -0.4375 C-2 -1 -2 -1 0 0 Z " fill="#E2432C" transform="translate(75,104)"/>
<path d="M0 0 C0 2 0 2 -1.16870117 3.42651367 C-6.17529119 8.03889542 -10.67841768 9.29446991 -17.3125 10.3125 C-19.10058446 10.61921057 -20.88836234 10.92771555 -22.67578125 11.23828125 C-23.8500769 11.4245105 -23.8500769 11.4245105 -25.0480957 11.61450195 C-27.06902245 11.92391191 -27.06902245 11.92391191 -29 13 C-28.67 12.01 -28.34 11.02 -28 10 C-27.34 9.67 -26.68 9.34 -26 9 C-26.33 8.34 -26.66 7.68 -27 7 C-26.44538086 6.89453857 -25.89076172 6.78907715 -25.31933594 6.68041992 C-22.79396121 6.19377567 -20.27210134 5.69082211 -17.75 5.1875 C-16.87730469 5.02185547 -16.00460938 4.85621094 -15.10546875 4.68554688 C-9.61433833 3.57474568 -5.27029703 0 0 0 Z " fill="#A00D2B" transform="translate(191,98)"/>
<path d="M0 0 C2.8876578 1.30069069 4.79812196 2.68401544 7 4.9375 C14.17798508 11.22590574 24.86319535 11.47841076 34 12 C36 17.75 36 17.75 36 20 C34.9378125 20.12117188 33.875625 20.24234375 32.78125 20.3671875 C25.70714832 21.1982544 18.88190244 22.11085031 12 24 C11.01 24 10.02 24 9 24 C11.90772108 21.53894692 14.00022241 20.55766237 17.765625 20.05078125 C18.65507813 19.92509766 19.54453125 19.79941406 20.4609375 19.66992188 C21.38132812 19.55197266 22.30171875 19.43402344 23.25 19.3125 C24.18585937 19.18294922 25.12171875 19.05339844 26.0859375 18.91992188 C28.38939489 18.60260887 30.69377156 18.29637894 33 18 C33 16.68 33 15.36 33 14 C32.32195313 13.95101562 31.64390625 13.90203125 30.9453125 13.8515625 C10.40076327 12.20116935 10.40076327 12.20116935 2.625 3.25 C1.7424363 2.17281969 0.86468305 1.0915857 0 0 Z " fill="#BF2728" transform="translate(24,100)"/>
<path d="M0 0 C-2.94924939 1.62106548 -5.63806994 2.48443268 -8.9375 3.125 C-10.18853516 3.37636719 -10.18853516 3.37636719 -11.46484375 3.6328125 C-14.01458019 4.00211177 -16.42759067 4.06442528 -19 4 C-19.33 5.98 -19.66 7.96 -20 10 C-19.16597656 9.98839844 -18.33195313 9.97679688 -17.47265625 9.96484375 C-13.98042121 9.93684187 -10.49204837 9.95654691 -7 10 C-5.75476563 10.00580078 -5.75476563 10.00580078 -4.484375 10.01171875 C1.94846422 10.34724454 6.91660123 13.13700131 12 17 C12.66 17.99 13.32 18.98 14 20 C11.93158034 19.00738967 9.973777 17.98306377 8.04492188 16.73730469 C1.87133902 12.82582016 -3.29033115 12.25958733 -10.5 12.25 C-12.4688113 12.21701734 -14.43757127 12.18074753 -16.40625 12.140625 C-17.69499023 12.13337402 -17.69499023 12.13337402 -19.00976562 12.12597656 C-21 12 -21 12 -22 11 C-22.375 8.125 -22.375 8.125 -22 5 C-18.48757888 2.34971861 -15.30903017 1.4555568 -11 0.8125 C-9.4840625 0.57466797 -9.4840625 0.57466797 -7.9375 0.33203125 C-5.25786891 0.02914742 -2.6931101 -0.06435741 0 0 Z " fill="#B1202B" transform="translate(184,106)"/>
<path d="M0 0 C0.721875 0.103125 1.44375 0.20625 2.1875 0.3125 C2.31125 0.951875 2.435 1.59125 2.5625 2.25 C2.76875 2.930625 2.975 3.61125 3.1875 4.3125 C3.8475 4.6425 4.5075 4.9725 5.1875 5.3125 C4.73375 6.364375 4.28 7.41625 3.8125 8.5 C3.53921875 9.14710937 3.2659375 9.79421875 2.984375 10.4609375 C2.38003593 11.8651371 1.73126508 13.25031622 1.0625 14.625 C-0.28371964 18.75981747 -0.49369771 22.99189004 -0.8125 27.3125 C-1.1425 27.3125 -1.4725 27.3125 -1.8125 27.3125 C-1.83959444 25.22923869 -1.85893873 23.14587559 -1.875 21.0625 C-1.88660156 19.90234375 -1.89820313 18.7421875 -1.91015625 17.546875 C-1.83032092 14.90272872 -1.59893778 12.81423909 -0.8125 10.3125 C-0.1525 10.3125 0.5075 10.3125 1.1875 10.3125 C1.5175 7.6725 1.8475 5.0325 2.1875 2.3125 C-0.05321094 3.31695663 -1.69004985 4.19004985 -3.4375 5.9375 C-3.89125 6.39125 -4.345 6.845 -4.8125 7.3125 C-5.4725 7.3125 -6.1325 7.3125 -6.8125 7.3125 C-6.915625 7.869375 -7.01875 8.42625 -7.125 9 C-7.94839682 11.76960747 -9.21418278 13.91502417 -10.8125 16.3125 C-11.1425 16.3125 -11.4725 16.3125 -11.8125 16.3125 C-11.8125 14.3325 -11.8125 12.3525 -11.8125 10.3125 C-10.8225 10.3125 -9.8325 10.3125 -8.8125 10.3125 C-8.750625 9.590625 -8.68875 8.86875 -8.625 8.125 C-7.31676045 3.59647849 -4.81020791 0.53446755 0 0 Z " fill="#B30A1B" transform="translate(45.8125,9.6875)"/>
<path d="M0 0 C0.99 0.66 1.98 1.32 3 2 C3.33 1.34 3.66 0.68 4 0 C4 0.66 4 1.32 4 2 C4.99 2.33 5.98 2.66 7 3 C4 5 4 5 1 5 C1 5.66 1 6.32 1 7 C-1.6875 8.1875 -1.6875 8.1875 -5 9 C-7.8125 7.875 -7.8125 7.875 -10 6 C-10.8125 3.8125 -10.8125 3.8125 -11 2 C-7.17742309 0.20114028 -4.2209225 -0.36703674 0 0 Z " fill="#E24328" transform="translate(125,141)"/>
<path d="M0 0 C1 3 1 3 1 5 C-0.63790712 6.04644066 -2.31008021 7.0398183 -4 8 C-4.61875 8.556875 -5.2375 9.11375 -5.875 9.6875 C-8.94364876 11.58284188 -11.47463845 11.26606502 -15 11 C-15.33 10.67 -15.66 10.34 -16 10 C-17.64869317 10.03780073 -19.29594032 10.15470302 -20.9375 10.3125 C-21.83339844 10.39113281 -22.72929688 10.46976563 -23.65234375 10.55078125 C-26.18131103 10.8069014 -26.18131103 10.8069014 -28 13 C-27.125 8.125 -27.125 8.125 -26 7 C-24.48071962 6.92820036 -22.95832518 6.91607993 -21.4375 6.9375 C-20.61121094 6.94652344 -19.78492187 6.95554688 -18.93359375 6.96484375 C-18.29550781 6.97644531 -17.65742187 6.98804688 -17 7 C-16.67 5.68 -16.34 4.36 -16 3 C-14.68 2.67 -13.36 2.34 -12 2 C-12.33 3.98 -12.66 5.96 -13 8 C-9.535 7.505 -9.535 7.505 -6 7 C-6 6.34 -6 5.68 -6 5 C-4.04072937 3.2856382 -2.04119788 1.61594832 0 0 Z " fill="#EB4D30" transform="translate(141,132)"/>
<path d="M0 0 C4.49819737 -0.36471871 4.49819737 -0.36471871 6.55859375 1.1328125 C10.55162762 6.30536044 11.37738179 14.75182897 10.9375 21.125 C10.1260068 26.61610399 8.40501232 31.99938948 6 37 C5.01 37.495 5.01 37.495 4 38 C4.20496094 37.32453125 4.40992187 36.6490625 4.62109375 35.953125 C4.89050781 35.06109375 5.15992187 34.1690625 5.4375 33.25 C5.70433594 32.36828125 5.97117187 31.4865625 6.24609375 30.578125 C6.49488281 29.72734375 6.74367188 28.8765625 7 28 C7.19207031 27.360625 7.38414063 26.72125 7.58203125 26.0625 C9.20178459 18.06969849 8.44614144 10.32305055 5 3 C3.68 3 2.36 3 1 3 C0.52949219 3.99902344 0.05898438 4.99804688 -0.42578125 6.02734375 C-1.05415545 7.33098575 -1.68309095 8.63435731 -2.3125 9.9375 C-2.62123047 10.59685547 -2.92996094 11.25621094 -3.24804688 11.93554688 C-4.08950978 13.66276021 -5.03947665 15.3360527 -6 17 C-6.99 17.33 -7.98 17.66 -9 18 C-6 12 -3 6 0 0 Z " fill="#C12827" transform="translate(60,20)"/>
<path d="M0 0 C2.9375 0.8125 2.9375 0.8125 6 2 C6.33 2.99 6.66 3.98 7 5 C7.639375 5.268125 8.27875 5.53625 8.9375 5.8125 C11 7 11 7 12.25 10.125 C12.4975 11.07375 12.745 12.0225 13 13 C11.02 12.34 9.04 11.68 7 11 C7 10.34 7 9.68 7 9 C6.34 9 5.68 9 5 9 C5.165 9.639375 5.33 10.27875 5.5 10.9375 C6.15932515 14.97586652 6.08003779 18.91807258 6 23 C5.67 23 5.34 23 5 23 C4.89042969 22.14277344 4.78085938 21.28554688 4.66796875 20.40234375 C3.79050533 14.07461974 2.75122613 8.75256373 0 3 C0 2.01 0 1.02 0 0 Z " fill="#DE3916" transform="translate(168,9)"/>
<path d="M0 0 C0.50789063 0.38671875 1.01578125 0.7734375 1.5390625 1.171875 C8.15247178 6.17527828 14.12365599 10.28401931 22 13 C22 13.99 22 14.98 22 16 C16.15639426 15.75133593 12.82738716 13.88054454 8.11328125 10.47265625 C6.1354539 9.09439209 4.18031257 8.01879165 2 7 C2 6.01 2 5.02 2 4 C1.01 3.67 0.02 3.34 -1 3 C-0.67 2.01 -0.34 1.02 0 0 Z " fill="#B00A20" transform="translate(72,137)"/>
<path d="M0 0 C0.99 0.495 0.99 0.495 2 1 C2.6328125 3.06640625 2.6328125 3.06640625 3.125 5.5625 C3.29257812 6.38878906 3.46015625 7.21507812 3.6328125 8.06640625 C3.75398438 8.70449219 3.87515625 9.34257813 4 10 C4.66 10 5.32 10 6 10 C6.268125 10.94875 6.53625 11.8975 6.8125 12.875 C7.74986588 16.25267273 7.74986588 16.25267273 11 18 C13.0492094 18.45139459 13.0492094 18.45139459 15.1875 18.625 C16.445625 18.74875 17.70375 18.8725 19 19 C19.33 18.01 19.66 17.02 20 16 C21.65 16 23.3 16 25 16 C22.54602253 19.1697209 21.16350221 19.9624749 17.1875 20.875 C13.08419133 21.18064683 9.82461821 20.6181077 6 19 C1.277782 14.53303703 0.07697864 9.42482711 -0.125 3.0625 C-0.08375 2.051875 -0.0425 1.04125 0 0 Z " fill="#DD381A" transform="translate(31,45)"/>
<path d="M0 0 C5.04382495 -0.21929674 9.42941776 0.42134855 14.35546875 1.48828125 C18.53960359 2.29791443 22.75573039 2.65684629 27 3 C27 3.66 27 4.32 27 5 C24.69 4.67 22.38 4.34 20 4 C20.33 4.99 20.66 5.98 21 7 C14.13545386 6.63405912 8.2541579 5.95651101 2 3 C1.34 2.01 0.68 1.02 0 0 Z " fill="#A1112D" transform="translate(31,105)"/>
<path d="M0 0 C0.66 0.33 1.32 0.66 2 1 C1.67644531 1.79792969 1.35289063 2.59585937 1.01953125 3.41796875 C-0.23269327 7.81754686 -0.33047518 11.76477917 -0.3125 16.3125 C-0.32861328 17.11623047 -0.34472656 17.91996094 -0.36132812 18.74804688 C-0.36607908 24.6534867 0.8287003 29.52122675 3 35 C0 34 0 34 -1.1328125 32.35546875 C-4.58659923 24.80880877 -6.29986932 17.47307972 -3.9375 9.34375 C-2.72405487 6.17224568 -1.43435734 3.07716799 0 0 Z " fill="#B20B1A" transform="translate(32,26)"/>
<path d="M0 0 C4.64763458 1.63295269 4.64763458 1.63295269 6.5 3.5625 C8.50706089 5.48593335 10.29667526 5.63468585 13 6 C12.67 4.68 12.34 3.36 12 2 C18.75 5.75 18.75 5.75 21 8 C20.625 10.125 20.625 10.125 20 12 C13.91372558 11.62784564 10.70995948 9.84175755 6.0625 6 C5.47404297 5.5359375 4.88558594 5.071875 4.27929688 4.59375 C2.82410019 3.43094475 1.4079839 2.21954695 0 1 C0 0.67 0 0.34 0 0 Z " fill="#A6152A" transform="translate(186,124)"/>
<path d="M0 0 C0 3 0 3 -2.5 5.5625 C-3.325 6.366875 -4.15 7.17125 -5 8 C-5 8.66 -5 9.32 -5 10 C-4.34 10 -3.68 10 -3 10 C-3.33 11.65 -3.66 13.3 -4 15 C-8 15 -8 15 -9.484375 13.57421875 C-9.90203125 12.95160156 -10.3196875 12.32898437 -10.75 11.6875 C-11.17796875 11.07261719 -11.6059375 10.45773438 -12.046875 9.82421875 C-13 8 -13 8 -13 5 C-10.36 5 -7.72 5 -5 5 C-5 4.34 -5 3.68 -5 3 C-2.5 1.375 -2.5 1.375 0 0 Z " fill="#B50C19" transform="translate(59,35)"/>
<path d="M0 0 C1.32 0 2.64 0 4 0 C3.67 0.99 3.34 1.98 3 3 C2.86980469 3.65097656 2.73960938 4.30195312 2.60546875 4.97265625 C2.46753906 5.66230469 2.32960937 6.35195312 2.1875 7.0625 C2.05730469 7.75472656 1.92710938 8.44695312 1.79296875 9.16015625 C1 11 1 11 -0.671875 12.21875 C-4.62638139 13.54576557 -8.669201 13.40990177 -12.80859375 13.55859375 C-16.26635745 14.03684014 -18.23463797 14.8962573 -21 17 C-21 17.66 -21 18.32 -21 19 C-22.43861294 18.91253716 -23.87597508 18.80434652 -25.3125 18.6875 C-26.11300781 18.62949219 -26.91351563 18.57148437 -27.73828125 18.51171875 C-30.36272334 17.91793306 -31.30820672 17.04219706 -33 15 C-31.2675 15.37125 -31.2675 15.37125 -29.5 15.75 C-26.04454892 16.19703388 -24.24798336 15.87592305 -21.25 14.125 C-16.84420111 11.56369231 -12.75748857 11.48170635 -7.734375 11.37109375 C-4.57058905 10.9417228 -3.21821761 10.27983477 -1 8 C-0.31149171 5.9683434 -0.31149171 5.9683434 -0.25 3.8125 C-0.1675 2.554375 -0.085 1.29625 0 0 Z " fill="#9D0C29" transform="translate(94,67)"/>
<path d="M0 0 C2.3125 0 2.3125 0 5 1 C9.03133612 8.22860271 9.23266854 16.85679677 7.3203125 24.8359375 C6.63000006 26.92002364 5.82723678 28.96637624 5 31 C4.67 31 4.34 31 4 31 C3.92734106 26.42248708 3.93838475 22.03683781 4.5625 17.5 C5.19761876 12.41010456 5.33765989 6.67531978 3 2 C2.01 1.34 1.02 0.68 0 0 Z " fill="#9F0E2B" transform="translate(61,22)"/>
<path d="M0 0 C0.90105469 0.01804687 1.80210938 0.03609375 2.73046875 0.0546875 C3.41753906 0.07789062 4.10460937 0.10109375 4.8125 0.125 C4.8125 0.785 4.8125 1.445 4.8125 2.125 C7.7825 2.62 7.7825 2.62 10.8125 3.125 C11.1425 2.135 11.4725 1.145 11.8125 0.125 C12.4725 0.455 13.1325 0.785 13.8125 1.125 C13.8125 3.435 13.8125 5.745 13.8125 8.125 C13.1525 7.795 12.4925 7.465 11.8125 7.125 C11.8125 6.465 11.8125 5.805 11.8125 5.125 C5.2125 4.795 -1.3875 4.465 -8.1875 4.125 C-8.1875 3.465 -8.1875 2.805 -8.1875 2.125 C-4.87379 -0.08414 -3.8428979 -0.09981553 0 0 Z " fill="#A50826" transform="translate(111.1875,65.875)"/>
<path d="M0 0 C0.66 0 1.32 0 2 0 C2 2.31 2 4.62 2 7 C1.34 7 0.68 7 0 7 C0 7.99 0 8.98 0 10 C-1.98 10.66 -3.96 11.32 -6 12 C-6 12.99 -6 13.98 -6 15 C-7.98 15.33 -9.96 15.66 -12 16 C-10.71700242 13.13792848 -9.469364 10.9754912 -7 9 C-6.01 9 -5.02 9 -4 9 C-3.34 7.02 -2.68 5.04 -2 3 C-1.34 3 -0.68 3 0 3 C0 2.01 0 1.02 0 0 Z " fill="#DD3C0B" transform="translate(146,128)"/>
<path d="M0 0 C0.66 0 1.32 0 2 0 C4.45309952 7.35929855 2.17932361 13.82639312 0 21 C-0.33 21 -0.66 21 -1 21 C-1.10251672 15.87416389 -1.03590199 11.05002222 0 6 C-0.33 6.33 -0.66 6.66 -1 7 C-1.66 7.61875 -2.32 8.2375 -3 8.875 C-5.20741867 10.92239437 -5.20741867 10.92239437 -6 14 C-6.66 14 -7.32 14 -8 14 C-8.33 13.01 -8.66 12.02 -9 11 C-8.34 11 -7.68 11 -7 11 C-6.67 10.01 -6.34 9.02 -6 8 C-4.33333333 6.33333333 -2.66666667 4.66666667 -1 3 C-0.67 2.01 -0.34 1.02 0 0 Z " fill="#DE381B" transform="translate(62,31)"/>
<path d="M0 0 C2.75 -0.375 2.75 -0.375 5 0 C5.33 0.66 5.66 1.32 6 2 C4.576875 2.12375 4.576875 2.12375 3.125 2.25 C1.578125 2.62125 1.578125 2.62125 0 3 C-0.67139477 4.33095879 -1.33705771 5.66481097 -2 7 C-3.59050335 8.59868776 -5.24298275 10.13700982 -6.9375 11.625 C-7.81277344 12.40101563 -8.68804687 13.17703125 -9.58984375 13.9765625 C-12 16 -12 16 -15 18 C-15.99 17.67 -16.98 17.34 -18 17 C-17.030625 16.4225 -16.06125 15.845 -15.0625 15.25 C-11.90530708 13.35207138 -11.90530708 13.35207138 -11.125 10.75 C-11.08375 10.1725 -11.0425 9.595 -11 9 C-10.01 9 -9.02 9 -8 9 C-8 8.34 -8 7.68 -8 7 C-7.4225 6.95875 -6.845 6.9175 -6.25 6.875 C-3.65219889 6.12111181 -3.65219889 6.12111181 -2.0625 2.9375 C-1.381875 1.968125 -0.70125 0.99875 0 0 Z " fill="#B5212B" transform="translate(155,134)"/>
<path d="M0 0 C0.66 0 1.32 0 2 0 C1.855625 0.70125 1.71125 1.4025 1.5625 2.125 C0.98521625 5.07556141 0.48304859 8.03270151 0 11 C2.475 11.99 2.475 11.99 5 13 C4.67 13.66 4.34 14.32 4 15 C-0.455 14.01 -0.455 14.01 -5 13 C-5.2475 13.763125 -5.495 14.52625 -5.75 15.3125 C-7.10995558 18.2364045 -8.31585826 19.30004356 -11 21 C-11 18 -11 18 -9.75 16.625 C-9.1725 16.08875 -8.595 15.5525 -8 15 C-3.85471527 10.58727754 -2.04336849 5.59752539 0 0 Z " fill="#A50928" transform="translate(160,121)"/>
<path d="M0 0 C0.33 0 0.66 0 1 0 C1.03738281 0.99 1.07476562 1.98 1.11328125 3 C1.61044873 13.75380067 4.04802722 21.4375698 9 31 C8.01 31.33 7.02 31.66 6 32 C6 31.01 6 30.02 6 29 C5.34 29 4.68 29 4 29 C0.3833849 22.33046433 -0.53722007 16.96597985 -0.25 9.4375 C-0.23195312 8.52419922 -0.21390625 7.61089844 -0.1953125 6.66992188 C-0.14872701 4.44546486 -0.08335485 2.22333033 0 0 Z " fill="#B40B1B" transform="translate(62,104)"/>
<path d="M0 0 C0.33 0.66 0.66 1.32 1 2 C0.67 2.66 0.34 3.32 0 4 C-0.66 4 -1.32 4 -2 4 C-2.103125 4.61875 -2.20625 5.2375 -2.3125 5.875 C-3 8 -3 8 -6 10 C-12.35943968 10.85607842 -17.36216766 9.94147774 -23 7 C-23 6.34 -23 5.68 -23 5 C-21.35 4.67 -19.7 4.34 -18 4 C-17.64808594 4.96679688 -17.64808594 4.96679688 -17.2890625 5.953125 C-16.18838927 8.2077908 -16.18838927 8.2077908 -13.8359375 8.609375 C-12.61777344 8.67898437 -12.61777344 8.67898437 -11.375 8.75 C-10.14910156 8.83507812 -10.14910156 8.83507812 -8.8984375 8.921875 C-8.27195313 8.94765625 -7.64546875 8.9734375 -7 9 C-7.33 7.02 -7.66 5.04 -8 3 C-7.67 3.99 -7.34 4.98 -7 6 C-4.69 4.02 -2.38 2.04 0 0 Z " fill="#DF3A1B" transform="translate(185,51)"/>
<path d="M0 0 C1.19292257 2.38584514 2.36394368 4.77338031 3.5 7.1875 C4.70021344 10.0912513 4.70021344 10.0912513 7 11 C7.33 11.99 7.66 12.98 8 14 C11.21284338 15.88579937 13.24633583 17 17 17 C16.67 18.32 16.34 19.64 16 21 C14.27473958 19.95833333 12.54947917 18.91666667 10.82421875 17.875 C8.88638074 16.78376001 8.88638074 16.78376001 6 17 C1.53100904 12.64000882 0.00689735 9.14207382 -1 3 C-0.67 2.01 -0.34 1.02 0 0 Z " fill="#BB1421" transform="translate(44,76)"/>
<path d="M0 0 C0.33 0 0.66 0 1 0 C1.125 7.625 1.125 7.625 0 11 C-0.66 11 -1.32 11 -2 11 C-1.855625 11.70125 -1.71125 12.4025 -1.5625 13.125 C-2.24402844 17.60361547 -5.49734998 19.39981848 -9 22 C-9.99 21.34 -10.98 20.68 -12 20 C-11.54109375 19.5875 -11.0821875 19.175 -10.609375 18.75 C-4.9526021 13.42597845 -0.98574353 7.88594824 0 0 Z " fill="#B20B1C" transform="translate(175,71)"/>
<path d="M0 0 C0.33 0.99 0.66 1.98 1 3 C0.34 3 -0.32 3 -1 3 C-1 5.31 -1 7.62 -1 10 C-6.75 10.125 -6.75 10.125 -9 9 C-9 7.35 -9 5.7 -9 4 C-6.03 2.68 -3.06 1.36 0 0 Z " fill="#E5462F" transform="translate(80,91)"/>
<path d="M0 0 C1 3 1 3 1 6 C2.03640625 6.38671875 3.0728125 6.7734375 4.140625 7.171875 C5.51063149 7.69735694 6.88041139 8.22342989 8.25 8.75 C8.93191406 9.00265625 9.61382812 9.2553125 10.31640625 9.515625 C14.36817078 11.08912579 17.12858006 12.59573925 20 16 C19.67 16.66 19.34 17.32 19 18 C18.33484375 17.3915625 17.6696875 16.783125 16.984375 16.15625 C13.01448129 13.28794984 8.82555227 12.20330523 4.17578125 10.93359375 C2.203125 10.34375 2.203125 10.34375 -1 9 C-2.01171875 7.015625 -2.01171875 7.015625 -2 5 C-1.0625 2.25 -1.0625 2.25 0 0 Z " fill="#B3222B" transform="translate(161,124)"/>
<path d="M0 0 C1.0169313 2.65498232 1.13022151 3.69155375 0.00390625 6.359375 C-0.47175781 7.14828125 -0.94742188 7.9371875 -1.4375 8.75 C-1.91058594 9.54921875 -2.38367188 10.3484375 -2.87109375 11.171875 C-3.24363281 11.77515625 -3.61617187 12.3784375 -4 13 C-4.66 13 -5.32 13 -6 13 C-6.2475 13.598125 -6.495 14.19625 -6.75 14.8125 C-8.18072525 17.31626919 -9.5691582 18.48072388 -12 20 C-12.66 20 -13.32 20 -14 20 C-13.45418801 16.20450741 -11.94590705 14.69020705 -9.0625 12.25 C-8.35222656 11.63640625 -7.64195312 11.0228125 -6.91015625 10.390625 C-5 9 -5 9 -3 9 C-2.87625 7.700625 -2.7525 6.40125 -2.625 5.0625 C-2.4140625 2.84765625 -2.4140625 2.84765625 -2 1 C-1.34 0.67 -0.68 0.34 0 0 Z " fill="#B2212A" transform="translate(179,76)"/>
<path d="M0 0 C3.78537283 3.15447736 5.12906981 6.25696127 6 11 C6.21907376 14.15268301 6.19116708 17.27929456 6.125 20.4375 C6.11597656 21.26443359 6.10695312 22.09136719 6.09765625 22.94335938 C6.07431512 24.96236708 6.03845288 26.98122356 6 29 C5.67 29 5.34 29 5 29 C4.89042969 28.03320312 4.78085938 27.06640625 4.66796875 26.0703125 C3.82542255 19.15184373 2.89328212 12.66440767 0.5859375 6.05078125 C0 4 0 4 0 0 Z " fill="#DA3319" transform="translate(181,22)"/>
<path d="M0 0 C0.66 0.33 1.32 0.66 2 1 C1.67128906 1.87978516 1.67128906 1.87978516 1.3359375 2.77734375 C0.76184944 5.01964914 0.76184944 5.01964914 2.0390625 6.81640625 C6.13584289 11.32690091 9.80120708 14.85207539 16 16 C11.85710736 17.42411935 8.87472328 16.83444488 4.94140625 15.21484375 C1.40958761 13.00479225 -0.52460138 9.84202787 -2 6 C-1.82222222 1.82222222 -1.82222222 1.82222222 0 0 Z " fill="#AD1E2C" transform="translate(54,67)"/>
<path d="M0 0 C1 1 1 1 1.0625 4.5625 C1.041875 5.696875 1.02125 6.83125 1 8 C0.34 8 -0.32 8 -1 8 C-1.33 8.99 -1.66 9.98 -2 11 C-3.20628008 8.66785852 -4.1654738 6.50357861 -5 4 C-6.65 3.67 -8.3 3.34 -10 3 C-6.69441788 -0.05130657 -4.44349211 -0.39497708 0 0 Z " fill="#A10D28" transform="translate(53,7)"/>
<path d="M0 0 C3 0 3 0 5 1 C6.11206703 6.74462056 5.92010298 11.74713531 5.0625 17.5 C4.91264648 18.59054688 4.91264648 18.59054688 4.75976562 19.703125 C4.51565275 21.47003721 4.25914703 23.23523014 4 25 C3.34 24.67 2.68 24.34 2 24 C2.0721875 23.32195313 2.144375 22.64390625 2.21875 21.9453125 C2.85113709 15.60387527 3.12438222 9.37113353 3 3 C2.34 3 1.68 3 1 3 C0.67 4.32 0.34 5.64 0 7 C-0.33 7 -0.66 7 -1 7 C-0.67 4.69 -0.34 2.38 0 0 Z " fill="#AE0719" transform="translate(61,28)"/>
<path d="M0 0 C0 0.66 0 1.32 0 2 C-0.99 2.66 -1.98 3.32 -3 4 C-0.39417629 4.93065133 0.64198224 5.14917407 3.25 4.0625 C4.11625 3.5365625 4.11625 3.5365625 5 3 C2.32459253 6.56720996 -0.35659412 9.41126424 -4 12 C-4.66 12 -5.32 12 -6 12 C-6 10 -6 10 -4 7.875 C-3.34 7.25625 -2.68 6.6375 -2 6 C-7.56717533 8.35456323 -7.56717533 8.35456323 -13 11 C-4.91176471 0 -4.91176471 0 0 0 Z " fill="#B82229" transform="translate(33,125)"/>
<path d="M0 0 C-0.33 2.31 -0.66 4.62 -1 7 C-2.8125 7.625 -2.8125 7.625 -5 8 C-8 6 -8 6 -8.6875 2.875 C-8.790625 1.92625 -8.89375 0.9775 -9 0 C-5.67465243 -1.10844919 -3.37817425 -0.84454356 0 0 Z " fill="#E44530" transform="translate(85,102)"/>
<path d="M0 0 C6.15234375 0.5859375 6.15234375 0.5859375 8 1 C8.33 1.66 8.66 2.32 9 3 C8.67 3.66 8.34 4.32 8 5 C7.34 5 6.68 5 6 5 C5.67 7.64 5.34 10.28 5 13 C2.03472242 10.5546615 1.44417786 8.55397653 0.8125 4.8125 C0.65394531 3.91144531 0.49539062 3.01039062 0.33203125 2.08203125 C0.22246094 1.39496094 0.11289063 0.70789063 0 0 Z " fill="#AB0623" transform="translate(157,91)"/>
<path d="M0 0 C15.74487472 -0.55353075 15.74487472 -0.55353075 23 3 C23 3.99 23 4.98 23 6 C23.99 6.33 24.98 6.66 26 7 C26.33 8.98 26.66 10.96 27 13 C25 12 25 12 23.6875 9.625 C21.78856181 6.67109615 20.00557094 5.70586459 17 4 C17 3.34 17 2.68 17 2 C11.39 1.67 5.78 1.34 0 1 C0 0.67 0 0.34 0 0 Z " fill="#D32E1D" transform="translate(128,81)"/>
<path d="M0 0 C0.99 0.66 1.98 1.32 3 2 C1.35 2.33 -0.3 2.66 -2 3 C-2 4.32 -2 5.64 -2 7 C-3.32 7 -4.64 7 -6 7 C-6.33 6.01 -6.66 5.02 -7 4 C-7.33 4 -7.66 4 -8 4 C-9.33568021 3.67619874 -10.66923011 3.34342449 -12 3 C-8.22438081 -0.77561919 -5.06310909 -0.40183405 0 0 Z " fill="#E54825" transform="translate(112,71)"/>
<path d="M0 0 C1.86844861 2.80267291 2.99879477 5.24231114 4.1875 8.375 C4.55230469 9.31085938 4.91710937 10.24671875 5.29296875 11.2109375 C6.06072472 14.23954394 5.84884925 16.02632427 5 19 C3.35 18.67 1.7 18.34 0 18 C-0.33 16.35 -0.66 14.7 -1 13 C-0.34 14.32 0.32 15.64 1 17 C1.99 17 2.98 17 4 17 C4 16.34 4 15.68 4 15 C3.34 15 2.68 15 2 15 C1.66048381 13.43883181 1.32867456 11.87598662 1 10.3125 C0.814375 9.44238281 0.62875 8.57226562 0.4375 7.67578125 C0.01027953 5.06287036 -0.07616201 2.64186962 0 0 Z " fill="#B4212A" transform="translate(181,142)"/>
<path d="M0 0 C3.64706268 2.43137512 3.82666647 3.89333265 5 8 C5.33 8.99 5.66 9.98 6 11 C5.96373781 13.18967851 5.85098509 15.37863197 5.6875 17.5625 C5.60886719 18.71878906 5.53023437 19.87507813 5.44921875 21.06640625 C5 24 5 24 3 26 C3.33 21.38 3.66 16.76 4 12 C2.68 12 1.36 12 0 12 C0 13.65 0 15.3 0 17 C-0.33 17 -0.66 17 -1 17 C-1.33 14.69 -1.66 12.38 -2 10 C0.475 10.495 0.475 10.495 3 11 C2.01 7.37 1.02 3.74 0 0 Z " fill="#D8341A" transform="translate(147,92)"/>
<path d="M0 0 C5.87711622 -0.48975968 10.09611773 0.62928552 15 4 C15.99 5.485 15.99 5.485 17 7 C16.43796875 6.69320313 15.8759375 6.38640625 15.296875 6.0703125 C12.93653066 4.97042415 10.79534438 4.39904149 8.25 3.875 C7.45078125 3.70742187 6.6515625 3.53984375 5.828125 3.3671875 C5.22484375 3.24601563 4.6215625 3.12484375 4 3 C3.67 3.99 3.34 4.98 3 6 C1.68 5.67 0.36 5.34 -1 5 C-0.67 3.35 -0.34 1.7 0 0 Z " fill="#A2192D" transform="translate(161,3)"/>
<path d="M0 0 C1 3 1 3 1 5 C-0.63790712 6.04644066 -2.31008021 7.0398183 -4 8 C-4.680625 8.556875 -5.36125 9.11375 -6.0625 9.6875 C-8 11 -8 11 -12 11 C-12 10.34 -12 9.68 -12 9 C-12.66 9 -13.32 9 -14 9 C-13.67 7.68 -13.34 6.36 -13 5 C-13 5.99 -13 6.98 -13 8 C-9.535 7.505 -9.535 7.505 -6 7 C-6 6.34 -6 5.68 -6 5 C-4.04072937 3.2856382 -2.04119788 1.61594832 0 0 Z " fill="#DC3A2A" transform="translate(141,132)"/>
<path d="M0 0 C0.65484375 0.15597656 1.3096875 0.31195313 1.984375 0.47265625 C6.44890827 1.25337126 10.94699444 1.35438096 15.46875 1.51757812 C17.31727479 1.60829277 19.16049366 1.79631037 21 2 C21.33 2.66 21.66 3.32 22 4 C13.44856307 5.10496095 7.36141688 5.85853514 0 1 C0 0.67 0 0.34 0 0 Z " fill="#AC0622" transform="translate(124,76)"/>
<path d="M0 0 C0.33 0 0.66 0 1 0 C1.02578125 0.61746094 1.0515625 1.23492188 1.078125 1.87109375 C1.59583993 9.601519 3.70802859 15.56204288 8 22 C6.35 21.67 4.7 21.34 3 21 C-0.0017506 13.92444501 -0.34855655 7.62951555 0 0 Z " fill="#DE3819" transform="translate(43,27)"/>
<path d="M0 0 C3.99069878 5.98604818 4.21754277 13.95788496 5 21 C4.34 21 3.68 21 3 21 C0.71387222 13.84224277 -0.44032071 7.51806849 0 0 Z " fill="#9E0D2A" transform="translate(26,40)"/>
<path d="M0 0 C4 0 4 0 5.921875 1.6796875 C6.52515625 2.40414062 7.1284375 3.12859375 7.75 3.875 C8.36359375 4.59429687 8.9771875 5.31359375 9.609375 6.0546875 C11 8 11 8 11 10 C11.66 10 12.32 10 13 10 C12.67 10.66 12.34 11.32 12 12 C2.22095672 4.88610478 2.22095672 4.88610478 0 0 Z " fill="#DF3F30" transform="translate(71,134)"/>
<path d="M0 0 C0.33 0 0.66 0 1 0 C1 2.31 1 4.62 1 7 C0.34 7 -0.32 7 -1 7 C-1 7.99 -1 8.98 -1 10 C-1.66 10 -2.32 10 -3 10 C-3 10.99 -3 11.98 -3 13 C-3.99 13.495 -3.99 13.495 -5 14 C-5.33 14.99 -5.66 15.98 -6 17 C-6.66 16.67 -7.32 16.34 -8 16 C-5.36 10.72 -2.72 5.44 0 0 Z " fill="#D8321E" transform="translate(149,118)"/>
<path d="M0 0 C1.53626578 2.30439867 2.82154351 4.47917934 4.0625 6.9375 C4.40410156 7.60652344 4.74570313 8.27554688 5.09765625 8.96484375 C6 11 6 11 6.49609375 13.19140625 C6.66238281 13.78824219 6.82867187 14.38507812 7 15 C7.66 15.33 8.32 15.66 9 16 C9 16.99 9 17.98 9 19 C9.66 19 10.32 19 11 19 C10.67 19.99 10.34 20.98 10 22 C5 16.375 5 16.375 5 13 C4.34 13 3.68 13 3 13 C2.49242138 11.58603098 1.99425075 10.16868271 1.5 8.75 C1.08234375 7.56664062 1.08234375 7.56664062 0.65625 6.359375 C0 4 0 4 0 0 Z " fill="#9E102C" transform="translate(149,38)"/>
<path d="M0 0 C0 1.32 0 2.64 0 4 C-3.3 4.33 -6.6 4.66 -10 5 C-9.67 3.68 -9.34 2.36 -9 1 C-5.92677456 0.08941469 -3.19902639 -0.08886184 0 0 Z " fill="#B0091A" transform="translate(124,141)"/>
<path d="M0 0 C0.99 0.33 1.98 0.66 3 1 C3 1.66 3 2.32 3 3 C4.98 3 6.96 3 9 3 C9.33 4.32 9.66 5.64 10 7 C9.46375 6.62875 8.9275 6.2575 8.375 5.875 C5.05387103 4.65142617 3.18909583 5.69536989 0 7 C0 6.34 0 5.68 0 5 C-0.66 4.67 -1.32 4.34 -2 4 C-2 3.01 -2 2.02 -2 1 C-1.34 0.67 -0.68 0.34 0 0 Z " fill="#AF1A2B" transform="translate(60,134)"/>
<path d="M0 0 C0.33 0 0.66 0 1 0 C1.90789485 3.90980526 2.19467208 7.61372605 2.25 11.625 C2.27578125 12.75164063 2.3015625 13.87828125 2.328125 15.0390625 C2 18 2 18 -1 21 C-0.67 14.07 -0.34 7.14 0 0 Z " fill="#B80F15" transform="translate(171,19)"/>
<path d="M0 0 C0.33 1.32 0.66 2.64 1 4 C0.34 4 -0.32 4 -1 4 C-1.33 5.65 -1.66 7.3 -2 9 C-5.26913624 10.03115279 -7.86041348 9.9638984 -11.25 9.5625 C-12.58804688 9.40974609 -12.58804688 9.40974609 -13.953125 9.25390625 C-14.62859375 9.17011719 -15.3040625 9.08632813 -16 9 C-16 8.67 -16 8.34 -16 8 C-15.31292969 7.95101562 -14.62585938 7.90203125 -13.91796875 7.8515625 C-13.01691406 7.77679688 -12.11585938 7.70203125 -11.1875 7.625 C-10.29417969 7.55539063 -9.40085938 7.48578125 -8.48046875 7.4140625 C-5.75601501 7.13354964 -5.75601501 7.13354964 -3 5 C-2.67 4.01 -2.34 3.02 -2 2 C-1.34 2 -0.68 2 0 2 C0 1.34 0 0.68 0 0 Z " fill="#BD141B" transform="translate(185,53)"/>
<path d="M0 0 C2 3.75 2 3.75 2 6 C2.99 6 3.98 6 5 6 C5 7.98 5 9.96 5 12 C5.66 12 6.32 12 7 12 C7 12.66 7 13.32 7 14 C6.01 14 5.02 14 4 14 C1.28608722 9.22642128 -0.56561146 5.65611463 0 0 Z " fill="#9B1029" transform="translate(178,145)"/>
<path d="M0 0 C0.66 0.33 1.32 0.66 2 1 C2 2.98 2 4.96 2 7 C8.435 6.505 8.435 6.505 15 6 C11.2311658 7.8844171 9.31987525 8.33429462 5.25 8.625 C3.77273437 8.73714844 3.77273437 8.73714844 2.265625 8.8515625 C1.51796875 8.90054688 0.7703125 8.94953125 0 9 C-0.76286236 5.59254812 -1.11667279 3.35001838 0 0 Z " fill="#BC2528" transform="translate(163,96)"/>
<path d="M0 0 C1.32 1.32 2.64 2.64 4 4 C3.01 4.33 2.02 4.66 1 5 C1.01160156 5.69867188 1.02320313 6.39734375 1.03515625 7.1171875 C1.04869141 8.48230469 1.04869141 8.48230469 1.0625 9.875 C1.07410156 10.77992187 1.08570313 11.68484375 1.09765625 12.6171875 C1 15 1 15 0 17 C-0.66 17 -1.32 17 -2 17 C-1.85899143 14.72886197 -1.71203245 12.45809275 -1.5625 10.1875 C-1.48128906 8.92292969 -1.40007812 7.65835938 -1.31640625 6.35546875 C-1 3 -1 3 0 0 Z " fill="#AD0625" transform="translate(162,104)"/>
<path d="M0 0 C-0.33 1.65 -0.66 3.3 -1 5 C-2.65 4.67 -4.3 4.34 -6 4 C-6 2.68 -6 1.36 -6 0 C-3.50907189 -1.24546405 -2.58919267 -0.7767578 0 0 Z " fill="#F7A57E" transform="translate(100,96)"/>
<path d="M0 0 C0 3 0 3 -2.1875 5.4375 C-4.71774645 7.74283566 -7.29055804 9.90985906 -10 12 C-10 10.68 -10 9.36 -10 8 C-9.360625 7.896875 -8.72125 7.79375 -8.0625 7.6875 C-7.381875 7.460625 -6.70125 7.23375 -6 7 C-5.67 6.01 -5.34 5.02 -5 4 C-4.34 4 -3.68 4 -3 4 C-3 3.01 -3 2.02 -3 1 C-2.01 0.67 -1.02 0.34 0 0 Z " fill="#9E0D28" transform="translate(61,59)"/>
<path d="M0 0 C0.66 0.33 1.32 0.66 2 1 C1.34 2.98 0.68 4.96 0 7 C-1.65 7 -3.3 7 -5 7 C-5 5.35 -5 3.7 -5 2 C-2.625 0.9375 -2.625 0.9375 0 0 Z " fill="#C6211D" transform="translate(73,103)"/>
<path d="M0 0 C2.475 0.495 2.475 0.495 5 1 C4.67 2.65 4.34 4.3 4 6 C2.68 6 1.36 6 0 6 C0 4.02 0 2.04 0 0 Z " fill="#C11C1E" transform="translate(73,115)"/>
<path d="M0 0 C0 0.99 0 1.98 0 3 C-0.639375 3.268125 -1.27875 3.53625 -1.9375 3.8125 C-4.33131686 4.88667752 -4.33131686 4.88667752 -5 8 C-5.99 8.66 -6.98 9.32 -8 10 C-8.99 9.67 -9.98 9.34 -11 9 C-7.88225012 5.70409299 -4.96519388 3.20288549 -1 1 C-0.67 0.67 -0.34 0.34 0 0 Z " fill="#B42229" transform="translate(195,96)"/>
<path d="M0 0 C3.79918838 0.51340384 5.43134786 1.2079868 8 4 C10.09989652 5.17574711 10.09989652 5.17574711 12 6 C12 6.33 12 6.66 12 7 C9.69 7 7.38 7 5 7 C5 6.01 5 5.02 5 4 C4.360625 3.896875 3.72125 3.79375 3.0625 3.6875 C2.381875 3.460625 1.70125 3.23375 1 3 C0.67 2.01 0.34 1.02 0 0 Z " fill="#D6301A" transform="translate(115,73)"/>
<path d="M0 0 C0.89332031 0.03480469 1.78664063 0.06960937 2.70703125 0.10546875 C3.60808594 0.13253906 4.50914063 0.15960938 5.4375 0.1875 C6.46810547 0.23970703 6.46810547 0.23970703 7.51953125 0.29296875 C7.51953125 0.95296875 7.51953125 1.61296875 7.51953125 2.29296875 C1.08453125 2.78796875 1.08453125 2.78796875 -5.48046875 3.29296875 C-2.48046875 0.29296875 -2.48046875 0.29296875 0 0 Z " fill="#A4162A" transform="translate(108.48046875,65.70703125)"/>
<path d="M0 0 C0.66 0 1.32 0 2 0 C2.33 1.32 2.66 2.64 3 4 C2.360625 4.28875 1.72125 4.5775 1.0625 4.875 C-1.15206079 5.82823451 -1.15206079 5.82823451 -2 8 C-2 7.01 -2 6.02 -2 5 C-2.66 4.67 -3.32 4.34 -4 4 C-3.34 4 -2.68 4 -2 4 C-1.34 2.68 -0.68 1.36 0 0 Z " fill="#AE051A" transform="translate(136,131)"/>
<path d="M0 0 C0.33 0 0.66 0 1 0 C1.06058594 1.02480469 1.12117188 2.04960938 1.18359375 3.10546875 C1.26805026 4.46615695 1.35269567 5.82683343 1.4375 7.1875 C1.47681641 7.86103516 1.51613281 8.53457031 1.55664062 9.22851562 C1.78927565 12.89699102 2.17207011 16.41694206 3 20 C2.34 20 1.68 20 1 20 C-0.1482685 17.703463 -0.11561175 16.41686833 -0.09765625 13.8671875 C-0.09443359 13.06152344 -0.09121094 12.25585938 -0.08789062 11.42578125 C-0.07951172 10.58402344 -0.07113281 9.74226563 -0.0625 8.875 C-0.05798828 8.02550781 -0.05347656 7.17601563 -0.04882812 6.30078125 C-0.03702874 4.20049091 -0.01909306 2.1002367 0 0 Z " fill="#C0191F" transform="translate(62,104)"/>
<path d="M0 0 C0.99 0.495 0.99 0.495 2 1 C2.29382062 2.99145086 2.57988001 4.98536906 2.78125 6.98828125 C3.00633563 9.05826513 3.41708298 11.00142737 4 13 C0.06190389 9.23312546 0.06190389 9.23312546 -0.09765625 6.0546875 C-0.06510417 4.03645833 -0.03255208 2.01822917 0 0 Z " fill="#AC0621" transform="translate(41,72)"/>
<path d="M0 0 C0.33 0 0.66 0 1 0 C2.70084819 5.32932432 3.52013969 10.43109483 4 16 C2 15 2 15 0.875 12.5 C-0.1889199 8.2443204 -0.17434209 4.35855223 0 0 Z " fill="#AB0625" transform="translate(149,29)"/>
<path d="M0 0 C0.99 0 1.98 0 3 0 C2.67 2.64 2.34 5.28 2 8 C1.34 8 0.68 8 0 8 C-0.33 9.32 -0.66 10.64 -1 12 C-0.125 5.25 -0.125 5.25 1 3 C0.01 3.33 -0.98 3.66 -2 4 C-1.34 2.68 -0.68 1.36 0 0 Z " fill="#CF291F" transform="translate(45,12)"/>
<path d="M0 0 C0 4.05345102 -1.58160112 5.8215329 -4 9 C-4.99 9.33 -5.98 9.66 -7 10 C-6.67 8.68 -6.34 7.36 -6 6 C-5.34 6 -4.68 6 -4 6 C-3.896875 5.38125 -3.79375 4.7625 -3.6875 4.125 C-3 2 -3 2 0 0 Z " fill="#E44531" transform="translate(139,124)"/>
<path d="M0 0 C3.93673644 1.31224548 6.22719294 2.91910327 9 6 C6.8125 6.3125 6.8125 6.3125 4 6 C1.1875 3.5 1.1875 3.5 -1 1 C-0.67 0.67 -0.34 0.34 0 0 Z " fill="#AB051D" transform="translate(52,92)"/>
<path d="M0 0 C0.33 0 0.66 0 1 0 C1.125 7.625 1.125 7.625 0 11 C-0.66 11 -1.32 11 -2 11 C-2.33 11.99 -2.66 12.98 -3 14 C-3.66 13.67 -4.32 13.34 -5 13 C-4.72285156 12.48050781 -4.44570312 11.96101563 -4.16015625 11.42578125 C-2.19266733 7.63783995 -0.53662611 4.29300887 0 0 Z " fill="#BE161F" transform="translate(175,71)"/>
<path d="M0 0 C2.02045442 0.60183749 4.02111039 1.27306096 6 2 C6.33 2.66 6.66 3.32 7 4 C5.68 4 4.36 4 3 4 C3 5.65 3 7.3 3 9 C1.35173889 6.03312999 0.55728913 3.34373475 0 0 Z " fill="#D32E20" transform="translate(168,9)"/>
<path d="M0 0 C1.52519276 0.08937803 3.04681929 0.24537146 4.5625 0.4375 C5.80193359 0.59025391 5.80193359 0.59025391 7.06640625 0.74609375 C7.70449219 0.82988281 8.34257813 0.91367188 9 1 C9 1.33 9 1.66 9 2 C8.06027344 2.18175781 8.06027344 2.18175781 7.1015625 2.3671875 C6.28429687 2.53476563 5.46703125 2.70234375 4.625 2.875 C3.81289062 3.03742188 3.00078125 3.19984375 2.1640625 3.3671875 C-0.18673923 3.86658932 -0.18673923 3.86658932 -2 6 C-1.125 1.125 -1.125 1.125 0 0 Z " fill="#DF3F2F" transform="translate(115,139)"/>
<path d="M0 0 C0.99 0.33 1.98 0.66 3 1 C2.67 1.66 2.34 2.32 2 3 C1.34 3 0.68 3 0 3 C0 3.66 0 4.32 0 5 C-2 6.625 -2 6.625 -4 8 C-4.66 7.67 -5.32 7.34 -6 7 C-5.67 6.34 -5.34 5.68 -5 5 C-4.34 5 -3.68 5 -3 5 C-3 4.01 -3 3.02 -3 2 C-2.01 1.34 -1.02 0.68 0 0 Z " fill="#D83419" transform="translate(143,138)"/>
<path d="M0 0 C1.32 0 2.64 0 4 0 C2.85408232 3.43775304 1.44249373 6.6759927 0 10 C-0.66 9.67 -1.32 9.34 -2 9 C-1.67 8.67 -1.34 8.34 -1 8 C-0.76924918 6.65252916 -0.58846937 5.29622435 -0.4375 3.9375 C-0.293125 2.638125 -0.14875 1.33875 0 0 Z " fill="#991430" transform="translate(94,67)"/>
<path d="M0 0 C1.32 0 2.64 0 4 0 C4 1.65 4 3.3 4 5 C2.35 5 0.7 5 -1 5 C-0.67 3.35 -0.34 1.7 0 0 Z " fill="#BD1619" transform="translate(78,103)"/>
<path d="M0 0 C1.65 0 3.3 0 5 0 C4.67 1.65 4.34 3.3 4 5 C2.68 4.67 1.36 4.34 0 4 C0 2.68 0 1.36 0 0 Z " fill="#F8AD85" transform="translate(120,96)"/>
<path d="M0 0 C0.66 0 1.32 0 2 0 C2 0.99 2 1.98 2 3 C2.66 3 3.32 3 4 3 C6.09350689 6.4019487 6.17942163 9.05272412 6 13 C5.67 13 5.34 13 5 13 C5 11.35 5 9.7 5 8 C4.01 7.67 3.02 7.34 2 7 C0.8125 3.4375 0.8125 3.4375 0 0 Z " fill="#BA1217" transform="translate(153,87)"/>
<path d="M0 0 C1.98 0.495 1.98 0.495 4 1 C4 2.32 4 3.64 4 5 C2.35 5 0.7 5 -1 5 C-0.67 3.35 -0.34 1.7 0 0 Z " fill="#F9AF87" transform="translate(111,89)"/>
<path d="M0 0 C1.32 0.66 2.64 1.32 4 2 C3.01 2.33 2.02 2.66 1 3 C0.26676204 5.01508358 0.26676204 5.01508358 0 7 C1.32 7.33 2.64 7.66 4 8 C3 9 3 9 0.4375 9.0625 C-0.366875 9.041875 -1.17125 9.02125 -2 9 C-1.125 1.125 -1.125 1.125 0 0 Z " fill="#E56340" transform="translate(110,87)"/>
<path d="M0 0 C0 3 0 3 -2.3125 5.6875 C-5 8 -5 8 -8 8 C-8 7.01 -8 6.02 -8 5 C-7.01 5 -6.02 5 -5 5 C-5 4.34 -5 3.68 -5 3 C-2.5 1.375 -2.5 1.375 0 0 Z " fill="#C0181A" transform="translate(59,35)"/>
<path d="M0 0 C0.66 0 1.32 0 2 0 C1.875 1.75 1.875 1.75 1 4 C-1.875 6.3125 -1.875 6.3125 -5 8 C-5.99 7.67 -6.98 7.34 -8 7 C-6.6875 5.5 -6.6875 5.5 -5 4 C-4.01 4 -3.02 4 -2 4 C-2 3.34 -2 2.68 -2 2 C-1.34 2 -0.68 2 0 2 C0 1.34 0 0.68 0 0 Z " fill="#A00A28" transform="translate(142,144)"/>
<path d="M0 0 C-0.66 1.32 -1.32 2.64 -2 4 C-2.66 4 -3.32 4 -4 4 C-4 4.66 -4 5.32 -4 6 C-6 5 -6 5 -8 3 C-5.48696401 0.48696401 -3.51117809 0 0 0 Z " fill="#9F0E2C" transform="translate(31,131)"/>
<path d="M0 0 C3.44756956 1.21130822 5.49405626 2.38510218 8 5 C10.09989652 6.17574711 10.09989652 6.17574711 12 7 C12 7.66 12 8.32 12 9 C7.09198451 7.51272258 3.59508707 4.55364515 0 1 C0 0.67 0 0.34 0 0 Z " fill="#C12828" transform="translate(186,124)"/>
<path d="M0 0 C1.32 0 2.64 0 4 0 C3.67 1.65 3.34 3.3 3 5 C1.68 4.67 0.36 4.34 -1 4 C-0.67 2.68 -0.34 1.36 0 0 Z " fill="#F9AE86" transform="translate(98,113)"/>
<path d="M0 0 C1.65 0 3.3 0 5 0 C4.67 1.65 4.34 3.3 4 5 C2.68 4.67 1.36 4.34 0 4 C0 2.68 0 1.36 0 0 Z " fill="#F8AB83" transform="translate(107,103)"/>
<path d="M0 0 C0.33 0.66 0.66 1.32 1 2 C-0.32 1.67 -1.64 1.34 -3 1 C-3 1.66 -3 2.32 -3 3 C-7.875 1.25 -7.875 1.25 -9 -1 C-5.39416086 -2.33549598 -3.37916196 -1.73524533 0 0 Z " fill="#9C122B" transform="translate(194,123)"/>
<path d="M0 0 C0.66 0 1.32 0 2 0 C2 0.66 2 1.32 2 2 C1.34 2 0.68 2 0 2 C-0.33 4.64 -0.66 7.28 -1 10 C-3 8 -3 8 -3.125 5.375 C-3.08375 4.59125 -3.0425 3.8075 -3 3 C-2.34 3 -1.68 3 -1 3 C-0.67 2.01 -0.34 1.02 0 0 Z " fill="#A40E2C" transform="translate(163,94)"/>
<path d="M0 0 C1.98 0.495 1.98 0.495 4 1 C3.67 2.32 3.34 3.64 3 5 C1.68 4.67 0.36 4.34 -1 4 C-0.67 2.68 -0.34 1.36 0 0 Z " fill="#B7101A" transform="translate(73,96)"/>
<path d="M0 0 C3 0 3 0 5 1 C4.67 2.65 4.34 4.3 4 6 C3.67 5.01 3.34 4.02 3 3 C2.34 3 1.68 3 1 3 C0.67 4.32 0.34 5.64 0 7 C-0.33 7 -0.66 7 -1 7 C-0.67 4.69 -0.34 2.38 0 0 Z " fill="#B80E19" transform="translate(61,28)"/>
<path d="M0 0 C0.33 0 0.66 0 1 0 C1 1.65 1 3.3 1 5 C0.34 5 -0.32 5 -1 5 C-1.66 7.97 -2.32 10.94 -3 14 C-4.00516105 9.97935581 -4.08769462 9.40425399 -2.625 5.875 C-2.34914063 5.19179688 -2.07328125 4.50859375 -1.7890625 3.8046875 C-1.22762922 2.52061734 -0.62674453 1.25348905 0 0 Z " fill="#A70625" transform="translate(33,21)"/>
<path d="M0 0 C1.9375 0.75 1.9375 0.75 4 2 C4.8125 4.0625 4.8125 4.0625 5 6 C4 7 4 7 1.4375 7.0625 C0.2309375 7.0315625 0.2309375 7.0315625 -1 7 C-0.01 6.34 0.98 5.68 2 5 C1.34 3.35 0.68 1.7 0 0 Z " fill="#B52329" transform="translate(202,129)"/>
<path d="M0 0 C-0.33 1.65 -0.66 3.3 -1 5 C-1.99 5 -2.98 5 -4 5 C-4 4.34 -4 3.68 -4 3 C-4.66 2.67 -5.32 2.34 -6 2 C-2.25 0 -2.25 0 0 0 Z " fill="#B20A23" transform="translate(142,128)"/>
<path d="M0 0 C0.66 0 1.32 0 2 0 C1.39009109 3.55780196 0.4216319 6.6828589 -1 10 C-1.66 9.67 -2.32 9.34 -3 9 C-2.01 6.03 -1.02 3.06 0 0 Z " fill="#9A102B" transform="translate(160,121)"/>
<path d="M0 0 C1.48400777 2.35695352 2.01570001 3.68599981 1.875 6.5 C0.8281942 9.49087373 -0.63321149 10.93860355 -3 13 C-3 9.59317833 -2.11231329 7.20607947 -1 4 C-0.65023242 2.67088318 -0.30903983 1.33917261 0 0 Z " fill="#C01718" transform="translate(63,43)"/>
<path d="M0 0 C1.32 0.33 2.64 0.66 4 1 C2.71937515 2.7074998 1.38232443 4.37373596 0 6 C-0.66 6 -1.32 6 -2 6 C-2 5.01 -2 4.02 -2 3 C-1.34 3 -0.68 3 0 3 C0 2.01 0 1.02 0 0 Z " fill="#D9341A" transform="translate(148,132)"/>
<path d="M0 0 C0.33 0 0.66 0 1 0 C1.06058594 0.66386719 1.12117188 1.32773437 1.18359375 2.01171875 C1.79863507 8.54908081 1.79863507 8.54908081 3 15 C1.51171875 13.88671875 1.51171875 13.88671875 0 12 C-0.29296875 9.08203125 -0.29296875 9.08203125 -0.1875 5.8125 C-0.16042969 4.72582031 -0.13335937 3.63914062 -0.10546875 2.51953125 C-0.07066406 1.68808594 -0.03585938 0.85664063 0 0 Z " fill="#D0281A" transform="translate(43,27)"/>
<path d="M0 0 C1.65 0 3.3 0 5 0 C5 0.66 5 1.32 5 2 C5.99 2 6.98 2 8 2 C7.67 2.66 7.34 3.32 7 4 C4.69 3.34 2.38 2.68 0 2 C0 1.34 0 0.68 0 0 Z " fill="#A10828" transform="translate(51,109)"/>
<path d="M0 0 C1.32 0.33 2.64 0.66 4 1 C3.67 2.32 3.34 3.64 3 5 C2.01 5 1.02 5 0 5 C0 3.35 0 1.7 0 0 Z " fill="#AE061A" transform="translate(61,92)"/>
<path d="M0 0 C0.99 0.33 1.98 0.66 3 1 C3 2.32 3 3.64 3 5 C1.68 5.33 0.36 5.66 -1 6 C-1 2 -1 2 0 0 Z " fill="#E65523" transform="translate(162,82)"/>
<path d="M0 0 C0 0.33 0 0.66 0 1 C-2.31 1 -4.62 1 -7 1 C-7.33 1.99 -7.66 2.98 -8 4 C-9.32 3.67 -10.64 3.34 -12 3 C-8.2391768 -0.7608232 -5.0273023 -0.25136512 0 0 Z " fill="#CF2C29" transform="translate(112,71)"/>
<path d="M0 0 C2.64 0.33 5.28 0.66 8 1 C8.33 1.99 8.66 2.98 9 4 C5.17902761 3.46930939 2.93828597 2.50298434 0 0 Z " fill="#AF202C" transform="translate(161,136)"/>
<path d="M0 0 C1.65 0 3.3 0 5 0 C3.515 2.475 3.515 2.475 2 5 C1.01 4.67 0.02 4.34 -1 4 C-0.67 2.68 -0.34 1.36 0 0 Z " fill="#9E0C2A" transform="translate(162,4)"/>
</svg>
