<?xml version="1.0" encoding="UTF-8"?>
<svg version="1.1" xmlns="http://www.w3.org/2000/svg" width="238" height="172">
<path d="M0 0 C6.40844601 1.93367012 12.6079349 6.20568715 17.47265625 10.74609375 C17.47265625 11.40609375 17.47265625 12.06609375 17.47265625 12.74609375 C18.13265625 12.74609375 18.79265625 12.74609375 19.47265625 12.74609375 C19.99085938 13.59429687 20.5090625 14.4425 21.04296875 15.31640625 C21.84476563 16.11820313 22.6465625 16.92 23.47265625 17.74609375 C26.68568824 17.63920227 29.24600197 17.29210171 32.34765625 16.62109375 C51.21317582 13.19964367 77.52797738 9.87235145 95.47265625 18.74609375 C97.44239589 20.33352483 98.39314687 21.12615558 98.72045898 23.67822266 C97.98513753 30.01582349 95.82278686 34.69755733 92.53515625 40.12109375 C92.04225098 40.95253906 91.5493457 41.78398438 91.04150391 42.640625 C87.48651056 48.47422687 83.64993732 53.40411818 78.85546875 58.28125 C76.43006522 60.79015103 74.34838299 63.41858018 72.22265625 66.18359375 C66.8206116 72.90462956 59.28172825 80.84155775 51.47265625 84.74609375 C51.23826539 87.07220053 51.11165321 89.40945941 51.03515625 91.74609375 C50.65114522 99.4683727 49.81902853 105.5753204 45.16015625 111.87109375 C42.47265625 113.74609375 42.47265625 113.74609375 39.578125 113.7421875 C35.36518529 112.39086722 34.37430337 110.41258472 32.09765625 106.68359375 C31.06511719 105.02650391 31.06511719 105.02650391 30.01171875 103.3359375 C29.50382813 102.48128906 28.9959375 101.62664062 28.47265625 100.74609375 C24.66858103 101.96758579 20.97248225 103.34747934 17.27246094 104.85253906 C10.36282577 107.61148522 3.5265427 109.57275817 -3.77734375 110.99609375 C-4.6271582 111.16270508 -5.47697266 111.32931641 -6.35253906 111.50097656 C-9.995985 112.18545124 -13.5581787 112.74887342 -17.25390625 113.08203125 C-23.03950118 113.47700303 -23.03950118 113.47700303 -27.37109375 116.94921875 C-28.38048572 118.71050474 -29.33706126 120.50327708 -30.234375 122.32421875 C-32.13385312 125.88215359 -33.90262914 127.04941882 -37.52734375 128.74609375 C-40.27734375 129.12109375 -40.27734375 129.12109375 -42.52734375 128.74609375 C-43.18734375 128.08609375 -43.84734375 127.42609375 -44.52734375 126.74609375 C-44.50390625 123.92578125 -44.50390625 123.92578125 -44.15234375 120.62109375 C-44.04148437 119.52539062 -43.930625 118.4296875 -43.81640625 117.30078125 C-43.72101563 116.45773438 -43.625625 115.6146875 -43.52734375 114.74609375 C-44.78546875 114.76671875 -46.04359375 114.78734375 -47.33984375 114.80859375 C-61.40234375 114.80859375 -61.40234375 114.80859375 -65.52734375 112.74609375 C-65.4809375 113.46152344 -65.43453125 114.17695312 -65.38671875 114.9140625 C-64.85305567 129.6469755 -70.2409388 142.69908072 -80.109375 153.59765625 C-82.52734375 155.74609375 -82.52734375 155.74609375 -85.27734375 156.12109375 C-87.52734375 155.74609375 -87.52734375 155.74609375 -88.52734375 154.74609375 C-88.15593314 150.58629496 -87.5339292 146.69863836 -86.4765625 142.6640625 C-85.04642891 136.34650101 -85.49588532 130.08364951 -85.78125 123.65429688 C-85.92300172 117.6215103 -85.5089243 114.3710856 -81.52734375 109.74609375 C-81.19734375 109.41609375 -80.86734375 109.08609375 -80.52734375 108.74609375 C-81.17960937 108.648125 -81.831875 108.55015625 -82.50390625 108.44921875 C-89.19828477 107.30386785 -94.07286553 105.8339857 -98.46484375 100.30859375 C-104.34042427 93.00863008 -113.09767968 90.14835761 -121.52734375 86.74609375 C-121.52734375 85.09609375 -121.52734375 83.44609375 -121.52734375 81.74609375 C-112.30980262 77.8650238 -101.41157534 79.3948291 -92.1484375 82.55859375 C-87.14406795 84.64737408 -82.78395571 87.43274061 -78.375 90.57421875 C-76.61051233 91.92462846 -76.61051233 91.92462846 -74.52734375 91.74609375 C-73.31357588 89.96445695 -73.31357588 89.96445695 -72.08984375 87.62109375 C-68.94857903 82.12388049 -65.15409939 77.3650925 -61.04711914 72.56982422 C-59.43618193 70.6748045 -59.43618193 70.6748045 -57.52734375 67.74609375 C-58.00135288 64.19144474 -59.44649852 62.37006112 -61.83984375 59.74609375 C-62.46632812 59.04742187 -63.0928125 58.34875 -63.73828125 57.62890625 C-65.57230185 55.63984958 -65.57230185 55.63984958 -67.96484375 53.62109375 C-69.52734375 51.74609375 -69.52734375 51.74609375 -69.96484375 48.62109375 C-69.82046875 47.67234375 -69.67609375 46.72359375 -69.52734375 45.74609375 C-65.9427781 43.35638332 -63.6569579 43.26624422 -59.52734375 43.74609375 C-52.62570674 45.13021326 -46.04842963 47.1125783 -39.52734375 49.74609375 C-33.63344746 44.26553564 -28.89494304 38.49869669 -24.52734375 31.74609375 C-24.13853027 31.17407227 -23.7497168 30.60205078 -23.34912109 30.01269531 C-19.3678904 23.97776372 -16.99674341 17.59368792 -14.56640625 10.81640625 C-11.69804811 3.22099391 -8.65725885 -1.40192672 0 0 Z " fill="#1C6888" transform="translate(129.52734375,11.25390625)"/>
<path d="M0 0 C0.67350494 -0.00208466 1.34700989 -0.00416931 2.04092407 -0.00631714 C23.4106453 0.0011997 23.4106453 0.0011997 31.25 4.375 C31.96929554 9.61268722 29.51624125 12.83251938 26.8125 17.0625 C25.98018246 18.39956141 25.14813855 19.73679321 24.31640625 21.07421875 C23.63449219 22.16347656 22.95257813 23.25273438 22.25 24.375 C21.92 25.035 21.59 25.695 21.25 26.375 C20.59 26.375 19.93 26.375 19.25 26.375 C19.03730469 27.05949219 18.82460937 27.74398437 18.60546875 28.44921875 C16.82501178 32.29233768 14.3902037 35.06763503 11.5625 38.1875 C11.05783203 38.78498047 10.55316406 39.38246094 10.03320312 39.99804688 C7.15082291 43.18652056 5.963431 44.28610364 1.55078125 44.8359375 C-4.7610686 43.95451941 -8.60272749 41.11474001 -12.75 36.375 C-13.71306898 33.48579306 -13.9455936 31.45252119 -14 28.4375 C-14.02578125 27.58285156 -14.0515625 26.72820313 -14.078125 25.84765625 C-13.68490912 22.88449376 -12.6148128 21.65844424 -10.75 19.375 C-9.86304037 15.75324817 -9.561883 13.93935101 -10.75 10.375 C-10.09 10.375 -9.43 10.375 -8.75 10.375 C-9.245 9.385 -9.245 9.385 -9.75 8.375 C-10.41 8.705 -11.07 9.035 -11.75 9.375 C-11.75 8.055 -11.75 6.735 -11.75 5.375 C-20.41800901 5.67685839 -28.16138858 8.14383587 -36.3125 10.9375 C-36.97374878 11.16087036 -37.63499756 11.38424072 -38.31628418 11.61437988 C-52.62842889 16.46010149 -65.96429626 22.25326366 -78.75 30.375 C-79.88926708 31.06993938 -81.02999744 31.76248336 -82.171875 32.453125 C-88.30130311 35.96385899 -88.30130311 35.96385899 -93.75 40.375 C-94.74 40.375 -95.73 40.375 -96.75 40.375 C-96.75 41.035 -96.75 41.695 -96.75 42.375 C-98.72946592 43.73863208 -100.7319245 45.06918644 -102.75 46.375 C-103.3275 46.9525 -103.905 47.53 -104.5 48.125 C-105.11875 48.74375 -105.11875 48.74375 -105.75 49.375 C-106.41 49.375 -107.07 49.375 -107.75 49.375 C-107.75 50.035 -107.75 50.695 -107.75 51.375 C-109.359375 52.92578125 -109.359375 52.92578125 -111.5 54.6875 C-117.81351841 59.94728257 -117.81351841 59.94728257 -120.75 67.375 C-117.79199472 66.66731642 -117.79199472 66.66731642 -114.75 65.375 C-114.07858418 64.04405183 -113.41295525 62.7101826 -112.75 61.375 C-111.1363494 59.57599764 -109.46381615 57.8288521 -107.75 56.125 C-106.863125 55.23296875 -105.97625 54.3409375 -105.0625 53.421875 C-102.75 51.375 -102.75 51.375 -100.75 51.375 C-100.75 50.715 -100.75 50.055 -100.75 49.375 C-99.0703125 48.0859375 -99.0703125 48.0859375 -96.875 46.75 C-96.15570313 46.30398437 -95.43640625 45.85796875 -94.6953125 45.3984375 C-92.75 44.375 -92.75 44.375 -90.75 44.375 C-90.75 43.715 -90.75 43.055 -90.75 42.375 C-89.43 42.375 -88.11 42.375 -86.75 42.375 C-86.75 43.035 -86.75 43.695 -86.75 44.375 C-86.09 44.375 -85.43 44.375 -84.75 44.375 C-84.564375 43.446875 -84.564375 43.446875 -84.375 42.5 C-83.75 40.375 -83.75 40.375 -81.75 38.375 C-79.91015625 37.84765625 -79.91015625 37.84765625 -77.8125 37.4375 C-74.6456098 36.71905848 -72.73385336 36.10279838 -70.75 33.375 C-68.4606677 34.51966615 -67.59607449 35.52892551 -65.75 37.375 C-63.64179203 37.0564823 -63.64179203 37.0564823 -61.75 36.375 C-62.95381448 38.86861571 -64.20428722 41.05643083 -65.75 43.375 C-63.77 43.045 -61.79 42.715 -59.75 42.375 C-60.08 44.685 -60.41 46.995 -60.75 49.375 C-59.76 49.375 -58.77 49.375 -57.75 49.375 C-57.75 50.035 -57.75 50.695 -57.75 51.375 C-56.77417969 51.36339844 -55.79835938 51.35179687 -54.79296875 51.33984375 C-53.52066406 51.33082031 -52.24835938 51.32179687 -50.9375 51.3125 C-49.67292969 51.30089844 -48.40835938 51.28929687 -47.10546875 51.27734375 C-43.75 51.375 -43.75 51.375 -40.75 52.375 C-39.10720783 52.49292999 -37.45947306 52.55011674 -35.8125 52.5625 C-34.53052734 52.58376953 -34.53052734 52.58376953 -33.22265625 52.60546875 C-30.61090697 52.36203556 -28.99499348 51.6928268 -26.75 50.375 C-26.75 49.715 -26.75 49.055 -26.75 48.375 C-28.10931641 48.40980469 -28.10931641 48.40980469 -29.49609375 48.4453125 C-36.61197138 48.55073291 -42.88416799 48.26902262 -49.75 46.375 C-49.75 45.385 -49.75 44.395 -49.75 43.375 C-46.79283593 42.53747839 -43.834087 41.70569969 -40.875 40.875 C-40.03324219 40.63652344 -39.19148438 40.39804688 -38.32421875 40.15234375 C-37.51855469 39.92675781 -36.71289062 39.70117188 -35.8828125 39.46875 C-35.13918457 39.25927734 -34.39555664 39.04980469 -33.62939453 38.83398438 C-31.75 38.375 -31.75 38.375 -29.75 38.375 C-29.75 37.281875 -29.75 36.18875 -29.75 35.0625 C-29.75 32.83333333 -29.75 30.60416667 -29.75 28.375 C-28.2937455 27.70380451 -26.83492133 27.03818193 -25.375 26.375 C-24.56289062 26.00375 -23.75078125 25.6325 -22.9140625 25.25 C-20.75 24.375 -20.75 24.375 -18.75 24.375 C-18.74613281 25.30119141 -18.74613281 25.30119141 -18.7421875 26.24609375 C-18.4214979 33.26919602 -16.64358984 38.22937978 -11.75 43.375 C-8.28621892 45.74082784 -4.70684626 47.05605125 -0.75 48.375 C-6.62838711 61.79052701 -25.85215877 70.49585918 -38.3125 76.625 C-41.71550897 78.13427889 -41.71550897 78.13427889 -43.75 80.375 C-46.5174242 81.26610471 -49.25569932 82.0680603 -52.0625 82.8125 C-52.87412598 83.03131836 -53.68575195 83.25013672 -54.52197266 83.47558594 C-56.92881033 84.11873932 -59.3385951 84.74921352 -61.75 85.375 C-62.95785156 85.69082031 -64.16570312 86.00664063 -65.41015625 86.33203125 C-71.71107883 87.88620778 -77.807264 88.79913551 -84.2890625 89.1640625 C-86.88458565 89.28983197 -86.88458565 89.28983197 -89.75 90.375 C-93.22420126 90.61143483 -96.70609239 90.56504241 -100.1875 90.5625 C-101.20489258 90.56241943 -102.22228516 90.56233887 -103.27050781 90.56225586 C-126.7063217 90.38955943 -126.7063217 90.38955943 -135.75 87.375 C-134.82824331 79.63224376 -130.91414218 73.84919174 -126.6875 67.5 C-126.24083984 66.81164062 -125.79417969 66.12328125 -125.33398438 65.4140625 C-124.19417455 63.69668087 -122.97794355 62.03051223 -121.75 60.375 C-121.09 60.375 -120.43 60.375 -119.75 60.375 C-119.55921875 59.7046875 -119.3684375 59.034375 -119.171875 58.34375 C-117.16428433 54.15207718 -114.19559102 51.20924269 -111 47.875 C-110.08734375 46.89853516 -110.08734375 46.89853516 -109.15625 45.90234375 C-105.55080992 42.08889751 -101.82687657 38.67561083 -97.75 35.375 C-97.0075 34.611875 -96.265 33.84875 -95.5 33.0625 C-93.75 31.375 -93.75 31.375 -91.75 31.375 C-91.75 30.715 -91.75 30.055 -91.75 29.375 C-90.0703125 28.0859375 -90.0703125 28.0859375 -87.875 26.75 C-87.15570313 26.30398437 -86.43640625 25.85796875 -85.6953125 25.3984375 C-83.75 24.375 -83.75 24.375 -81.75 24.375 C-81.255 22.89 -81.255 22.89 -80.75 21.375 C-58.4498704 4.58918816 -27.00731542 0.03399899 0 0 Z " fill="#C8DCE7" transform="translate(190.75,30.625)"/>
<path d="M0 0 C0.67350494 -0.00208466 1.34700989 -0.00416931 2.04092407 -0.00631714 C23.4106453 0.0011997 23.4106453 0.0011997 31.25 4.375 C31.96929554 9.61268722 29.51624125 12.83251938 26.8125 17.0625 C25.98018246 18.39956141 25.14813855 19.73679321 24.31640625 21.07421875 C23.63449219 22.16347656 22.95257813 23.25273438 22.25 24.375 C21.92 25.035 21.59 25.695 21.25 26.375 C20.59 26.375 19.93 26.375 19.25 26.375 C19.03730469 27.05949219 18.82460937 27.74398437 18.60546875 28.44921875 C16.82501178 32.29233768 14.3902037 35.06763503 11.5625 38.1875 C11.05783203 38.78498047 10.55316406 39.38246094 10.03320312 39.99804688 C7.15082291 43.18652056 5.963431 44.28610364 1.55078125 44.8359375 C-4.7610686 43.95451941 -8.60272749 41.11474001 -12.75 36.375 C-13.71306898 33.48579306 -13.9455936 31.45252119 -14 28.4375 C-14.02578125 27.58285156 -14.0515625 26.72820313 -14.078125 25.84765625 C-13.68490912 22.88449376 -12.6148128 21.65844424 -10.75 19.375 C-9.86304037 15.75324817 -9.561883 13.93935101 -10.75 10.375 C-10.09 10.375 -9.43 10.375 -8.75 10.375 C-9.245 9.385 -9.245 9.385 -9.75 8.375 C-10.41 8.705 -11.07 9.035 -11.75 9.375 C-11.75 8.055 -11.75 6.735 -11.75 5.375 C-20.41800901 5.67685839 -28.16138858 8.14383587 -36.3125 10.9375 C-36.97374878 11.16087036 -37.63499756 11.38424072 -38.31628418 11.61437988 C-52.62842889 16.46010149 -65.96429626 22.25326366 -78.75 30.375 C-79.88926708 31.06993938 -81.02999744 31.76248336 -82.171875 32.453125 C-88.30130311 35.96385899 -88.30130311 35.96385899 -93.75 40.375 C-94.74 40.375 -95.73 40.375 -96.75 40.375 C-96.75 41.035 -96.75 41.695 -96.75 42.375 C-98.72946592 43.73863208 -100.7319245 45.06918644 -102.75 46.375 C-103.3275 46.9525 -103.905 47.53 -104.5 48.125 C-105.11875 48.74375 -105.11875 48.74375 -105.75 49.375 C-106.41 49.375 -107.07 49.375 -107.75 49.375 C-107.75 50.035 -107.75 50.695 -107.75 51.375 C-109.359375 52.92578125 -109.359375 52.92578125 -111.5 54.6875 C-117.81351841 59.94728257 -117.81351841 59.94728257 -120.75 67.375 C-117.79199472 66.66731642 -117.79199472 66.66731642 -114.75 65.375 C-114.07858418 64.04405183 -113.41295525 62.7101826 -112.75 61.375 C-111.1363494 59.57599764 -109.46381615 57.8288521 -107.75 56.125 C-106.863125 55.23296875 -105.97625 54.3409375 -105.0625 53.421875 C-102.75 51.375 -102.75 51.375 -100.75 51.375 C-100.75 50.715 -100.75 50.055 -100.75 49.375 C-99.0703125 48.0859375 -99.0703125 48.0859375 -96.875 46.75 C-96.15570313 46.30398437 -95.43640625 45.85796875 -94.6953125 45.3984375 C-92.75 44.375 -92.75 44.375 -90.75 44.375 C-90.75 43.715 -90.75 43.055 -90.75 42.375 C-89.43 42.375 -88.11 42.375 -86.75 42.375 C-86.75 43.035 -86.75 43.695 -86.75 44.375 C-86.09 44.375 -85.43 44.375 -84.75 44.375 C-84.564375 43.446875 -84.564375 43.446875 -84.375 42.5 C-83.75 40.375 -83.75 40.375 -81.75 38.375 C-79.91015625 37.84765625 -79.91015625 37.84765625 -77.8125 37.4375 C-74.6456098 36.71905848 -72.73385336 36.10279838 -70.75 33.375 C-68.4606677 34.51966615 -67.59607449 35.52892551 -65.75 37.375 C-63.64179203 37.0564823 -63.64179203 37.0564823 -61.75 36.375 C-62.95381448 38.86861571 -64.20428722 41.05643083 -65.75 43.375 C-65.42 44.035 -65.09 44.695 -64.75 45.375 C-66.64326541 46.50431621 -68.5397264 47.62827616 -70.4375 48.75 C-71.49324219 49.37648437 -72.54898438 50.00296875 -73.63671875 50.6484375 C-77.44063273 52.75801087 -80.3680641 54.375 -84.75 54.375 C-85.08 55.365 -85.41 56.355 -85.75 57.375 C-87.4921875 58.2890625 -87.4921875 58.2890625 -89.625 59 C-90.32367188 59.23976562 -91.02234375 59.47953125 -91.7421875 59.7265625 C-92.40476563 59.94054687 -93.06734375 60.15453125 -93.75 60.375 C-94.74 60.705 -95.73 61.035 -96.75 61.375 C-96.75 62.365 -96.75 63.355 -96.75 64.375 C-97.86375 64.890625 -98.9775 65.40625 -100.125 65.9375 C-104.63992668 68.17077623 -108.60076161 71.00187698 -112.6484375 73.984375 C-114.75 75.375 -114.75 75.375 -116.75 75.375 C-116.75 76.035 -116.75 76.695 -116.75 77.375 C-118.20537568 78.21348804 -119.66440373 79.04563934 -121.125 79.875 C-122.34316406 80.57109375 -122.34316406 80.57109375 -123.5859375 81.28125 C-125.75 82.375 -125.75 82.375 -127.75 82.375 C-128.76111093 85.42413228 -128.76111093 85.42413228 -127.75 88.375 C-131.71 87.88 -131.71 87.88 -135.75 87.375 C-134.82824331 79.63224376 -130.91414218 73.84919174 -126.6875 67.5 C-126.24083984 66.81164062 -125.79417969 66.12328125 -125.33398438 65.4140625 C-124.19417455 63.69668087 -122.97794355 62.03051223 -121.75 60.375 C-121.09 60.375 -120.43 60.375 -119.75 60.375 C-119.55921875 59.7046875 -119.3684375 59.034375 -119.171875 58.34375 C-117.16428433 54.15207718 -114.19559102 51.20924269 -111 47.875 C-110.08734375 46.89853516 -110.08734375 46.89853516 -109.15625 45.90234375 C-105.55080992 42.08889751 -101.82687657 38.67561083 -97.75 35.375 C-97.0075 34.611875 -96.265 33.84875 -95.5 33.0625 C-93.75 31.375 -93.75 31.375 -91.75 31.375 C-91.75 30.715 -91.75 30.055 -91.75 29.375 C-90.0703125 28.0859375 -90.0703125 28.0859375 -87.875 26.75 C-87.15570313 26.30398437 -86.43640625 25.85796875 -85.6953125 25.3984375 C-83.75 24.375 -83.75 24.375 -81.75 24.375 C-81.255 22.89 -81.255 22.89 -80.75 21.375 C-58.4498704 4.58918816 -27.00731542 0.03399899 0 0 Z " fill="#7AA8C3" transform="translate(190.75,30.625)"/>
<path d="M0 0 C0.86496094 0.01804688 1.72992188 0.03609375 2.62109375 0.0546875 C3.26175781 0.07789063 3.90242188 0.10109375 4.5625 0.125 C5.0575 1.61 5.0575 1.61 5.5625 3.125 C6.2225 2.795 6.8825 2.465 7.5625 2.125 C7.2840625 2.9603125 7.2840625 2.9603125 7 3.8125 C6.38658677 6.14783746 6.38658677 6.14783746 7.1875 8.5 C7.70378604 12.11400227 6.35717844 14.03815308 4.5625 17.125 C2.96218656 13.92437313 4.53076309 11.40228194 5.5625 8.125 C2.32557129 8.83960274 2.32557129 8.83960274 0.9375 11.875 C-1.24936306 17.33643289 -1.1841941 23.31643368 -1.4375 29.125 C-1.7675 29.125 -2.0975 29.125 -2.4375 29.125 C-2.4375 25.825 -2.4375 22.525 -2.4375 19.125 C-3.88125 19.764375 -5.325 20.40375 -6.8125 21.0625 C-7.62460938 21.42214844 -8.43671875 21.78179687 -9.2734375 22.15234375 C-10.67433785 22.7819903 -12.06375284 23.43812642 -13.4375 24.125 C-12.9425 25.115 -12.9425 25.115 -12.4375 26.125 C-12.7675 28.435 -13.0975 30.745 -13.4375 33.125 C-23.3375 36.095 -23.3375 36.095 -33.4375 39.125 C-33.4375 39.455 -33.4375 39.785 -33.4375 40.125 C-25.69884446 42.25980153 -18.43726044 42.32983028 -10.4375 42.125 C-10.4375 43.445 -10.4375 44.765 -10.4375 46.125 C-13.58340528 47.9716683 -15.86900052 48.37274283 -19.5 48.3125 C-20.35722656 48.30605469 -21.21445313 48.29960938 -22.09765625 48.29296875 C-24.4375 48.125 -24.4375 48.125 -27.4375 47.125 C-29.83004576 46.89939324 -32.22678123 46.71651405 -34.625 46.5625 C-35.89730469 46.47871094 -37.16960937 46.39492187 -38.48046875 46.30859375 C-39.45628906 46.24800781 -40.43210937 46.18742187 -41.4375 46.125 C-41.4375 45.465 -41.4375 44.805 -41.4375 44.125 C-42.4275 44.125 -43.4175 44.125 -44.4375 44.125 C-44.4375 42.145 -44.4375 40.165 -44.4375 38.125 C-44.7675 38.455 -45.0975 38.785 -45.4375 39.125 C-47.10367115 39.16563832 -48.77138095 39.167721 -50.4375 39.125 C-49.1175 36.815 -47.7975 34.505 -46.4375 32.125 C-47.7575 32.785 -49.0775 33.445 -50.4375 34.125 C-50.7675 33.135 -51.0975 32.145 -51.4375 31.125 C-52.4275 30.795 -53.4175 30.465 -54.4375 30.125 C-55.4275 30.785 -56.4175 31.445 -57.4375 32.125 C-59.73543013 32.87049605 -62.04828713 33.51316201 -64.37890625 34.1484375 C-66.940547 35.36363709 -67.44833735 36.52644299 -68.4375 39.125 C-69.0975 39.125 -69.7575 39.125 -70.4375 39.125 C-70.4375 38.465 -70.4375 37.805 -70.4375 37.125 C-71.7575 37.125 -73.0775 37.125 -74.4375 37.125 C-74.4375 37.785 -74.4375 38.445 -74.4375 39.125 C-76.1171875 40.4140625 -76.1171875 40.4140625 -78.3125 41.75 C-79.39144531 42.41902344 -79.39144531 42.41902344 -80.4921875 43.1015625 C-82.4375 44.125 -82.4375 44.125 -84.4375 44.125 C-84.4375 44.785 -84.4375 45.445 -84.4375 46.125 C-85.9765625 47.60546875 -85.9765625 47.60546875 -88.0625 49.3125 C-91.46144 52.1880634 -94.33831751 55.16986318 -97.11328125 58.64453125 C-98.4375 60.125 -98.4375 60.125 -101.4375 62.125 C-102.4275 62.125 -103.4175 62.125 -104.4375 62.125 C-104.04880815 56.71504401 -102.37873634 54.45622439 -98.5 50.75 C-97.60410156 49.87601563 -96.70820312 49.00203125 -95.78515625 48.1015625 C-93.4375 46.125 -93.4375 46.125 -91.4375 46.125 C-91.4375 45.465 -91.4375 44.805 -91.4375 44.125 C-89.5390625 42.3984375 -89.5390625 42.3984375 -87.0625 40.5 C-86.25039062 39.86835937 -85.43828125 39.23671875 -84.6015625 38.5859375 C-82.4375 37.125 -82.4375 37.125 -80.4375 37.125 C-80.4375 36.465 -80.4375 35.805 -80.4375 35.125 C-78.81028429 34.06201043 -77.13094137 33.07895708 -75.4375 32.125 C-74.27966495 31.3985617 -73.12629137 30.66498227 -71.9765625 29.92578125 C-53.1009988 17.89469686 -33.84390559 8.75552238 -12.4375 2.125 C-10.66052734 1.56619141 -10.66052734 1.56619141 -8.84765625 0.99609375 C-5.71335224 0.19546397 -3.21259022 -0.08801617 0 0 Z " fill="#7FA9C2" transform="translate(174.4375,35.875)"/>
<path d="M0 0 C5.62395364 1.53380554 5.62395364 1.53380554 7.7109375 4.12109375 C9.98047264 6.3906751 9.98047264 6.3906751 13.6796875 5.98828125 C15.08156854 5.78555176 16.48023167 5.55946357 17.875 5.3125 C18.56980469 5.20744141 19.26460937 5.10238281 19.98046875 4.99414062 C22.95100351 4.53821109 25.90664701 4.01727373 28.86181641 3.47045898 C43.31746016 1.30334948 59.18915099 2.3867401 73.625 4.3125 C74.99108398 4.48894043 74.99108398 4.48894043 76.38476562 4.66894531 C82.43779236 5.58274201 82.43779236 5.58274201 84.75561523 7.30297852 C86.78592197 10.07179589 86.12386325 12.25331023 85.63232422 15.51660156 C84.51874169 19.89010019 82.388155 23.53841491 80.0625 27.375 C79.56959473 28.20644531 79.07668945 29.03789063 78.56884766 29.89453125 C75.01385431 35.72813312 71.17728107 40.65802443 66.3828125 45.53515625 C63.95740897 48.04405728 61.87572674 50.67248643 59.75 53.4375 C54.34795535 60.15853581 46.809072 68.095464 39 72 C38.76560914 74.32610678 38.63899696 76.66336566 38.5625 79 C38.17848897 86.72227895 37.34637228 92.82922665 32.6875 99.125 C30 101 30 101 26.9375 101.1875 C21.89611594 99.14949368 20.32305122 94.86891257 18.25 90.125 C17.8375 89.09375 17.425 88.0625 17 87 C11.35145355 87.68202264 6.53554906 89.72515051 1.390625 92.00390625 C-3.48565266 94.0669468 -3.48565266 94.0669468 -6.4609375 93.6796875 C-6.96882812 93.45539063 -7.47671875 93.23109375 -8 93 C-5.77103262 89.44530693 -4.18302679 88.43741652 -0.125 87.5 C4.15768621 86.35960309 6.62321997 84.9204584 10 82 C11.62352417 81.30420393 13.24842765 80.6112936 14.8828125 79.94140625 C23.28595669 76.20495284 30.4563693 71.06718758 37.5625 65.3125 C38.25335693 64.75385254 38.94421387 64.19520508 39.65600586 63.61962891 C42.85098332 60.97777277 45.72988891 58.52081381 48 55 C47.319375 54.9175 46.63875 54.835 45.9375 54.75 C40.50276918 53.36240915 36.44047122 51.0938741 33.0625 46.625 C29.79774232 40.85221655 30.15995795 34.40810835 31 28 C32.04042961 24.93676088 33.24263215 22.74588726 35 20 C35.99 20 36.98 20 38 20 C37.54177532 23.46941546 37.10868317 26.67395049 36 30 C35.93062938 32.22818441 35.91542916 34.45834524 35.9375 36.6875 C35.94652344 37.86699219 35.95554688 39.04648437 35.96484375 40.26171875 C35.97644531 41.16535156 35.98804688 42.06898437 36 43 C36.99 43.33 37.98 43.66 39 44 C39.680625 44.9590625 39.680625 44.9590625 40.375 45.9375 C43.13191386 49.4366599 46.09983198 49.849972 50.375 50.5625 C55.64433649 49.74484434 57.75983853 47.0698717 61 43 C62.89820154 40.34713821 64.73932551 37.67485717 66.51953125 34.94140625 C67.00808594 34.30074219 67.49664062 33.66007812 68 33 C68.66 33 69.32 33 70 33 C70.25652344 32.12472656 70.51304687 31.24945313 70.77734375 30.34765625 C72.3762711 25.96976253 74.82779726 22.51435121 77.44140625 18.68359375 C78.98012193 16.03422616 79.60208089 14.01437356 80 11 C49.62421888 2.60669206 10.99850814 7.00074593 -17 21 C-17.99 20.01 -18.98 19.02 -20 18 C-19.34 16.68 -18.68 15.36 -18 14 C-18.99 13.67 -19.98 13.34 -21 13 C-21 11.68 -21 10.36 -21 9 C-16.31261335 9.90723613 -11.65806256 10.9547267 -7 12 C-7.7425 11.071875 -7.7425 11.071875 -8.5 10.125 C-10 8 -10 8 -10 6 C-11.32 5.67 -12.64 5.34 -14 5 C-14 3.68 -14 2.36 -14 1 C-10.65626525 1.55728913 -7.96687001 2.35173889 -5 4 C-5 4.99 -5 5.98 -5 7 C-4.01 7.33 -3.02 7.66 -2 8 C-2 8.66 -2 9.32 -2 10 C0.31 9.34 2.62 8.68 5 8 C3.35 5.36 1.7 2.72 0 0 Z " fill="#1A6686" transform="translate(142,24)"/>
<path d="M0 0 C0.71929554 5.23768722 -1.73375875 8.45751938 -4.4375 12.6875 C-5.26981754 14.02456141 -6.10186145 15.36179321 -6.93359375 16.69921875 C-7.61550781 17.78847656 -8.29742187 18.87773438 -9 20 C-9.33 20.66 -9.66 21.32 -10 22 C-10.66 22 -11.32 22 -12 22 C-12.21269531 22.68449219 -12.42539063 23.36898437 -12.64453125 24.07421875 C-14.42498822 27.91733768 -16.8597963 30.69263503 -19.6875 33.8125 C-20.19216797 34.40998047 -20.69683594 35.00746094 -21.21679688 35.62304688 C-24.09917709 38.81152056 -25.286569 39.91110364 -29.69921875 40.4609375 C-36.0110686 39.57951941 -39.85272749 36.73974001 -44 32 C-44.9807664 29.05770079 -45.16488128 27.0091216 -45.1875 23.9375 C-45.20167969 23.05964844 -45.21585938 22.18179688 -45.23046875 21.27734375 C-45 19 -45 19 -43 17 C-41.01178687 16.60235737 -39.01055661 16.26224651 -37 16 C-37 15.34 -37 14.68 -37 14 C-36.01 14 -35.02 14 -34 14 C-34 13.34 -34 12.68 -34 12 C-33.42894531 11.87625 -32.85789063 11.7525 -32.26953125 11.625 C-25.34268351 9.86300375 -19.94805391 6.68920866 -14.078125 2.7421875 C-9.4691532 0.13355625 -5.2141509 -0.15335738 0 0 Z " fill="#C7DBE7" transform="translate(222,35)"/>
<path d="M0 0 C2.2893323 1.14466615 3.15392551 2.15392551 5 4 C7.10820797 3.6814823 7.10820797 3.6814823 9 3 C7.79618552 5.49361571 6.54571278 7.68143083 5 10 C5.495 10.99 5.495 10.99 6 12 C4.10673459 13.12931621 2.2102736 14.25327616 0.3125 15.375 C-1.27111328 16.31472656 -1.27111328 16.31472656 -2.88671875 17.2734375 C-6.69063273 19.38301087 -9.6180641 21 -14 21 C-14.495 22.485 -14.495 22.485 -15 24 C-16.7421875 24.9140625 -16.7421875 24.9140625 -18.875 25.625 C-19.57367188 25.86476563 -20.27234375 26.10453125 -20.9921875 26.3515625 C-21.65476563 26.56554687 -22.31734375 26.77953125 -23 27 C-23.99 27.33 -24.98 27.66 -26 28 C-26 28.99 -26 29.98 -26 31 C-27.11375 31.515625 -28.2275 32.03125 -29.375 32.5625 C-33.88992668 34.79577623 -37.85076161 37.62687698 -41.8984375 40.609375 C-44 42 -44 42 -46 42 C-46 42.66 -46 43.32 -46 44 C-47.45537568 44.83848804 -48.91440373 45.67063934 -50.375 46.5 C-51.18710938 46.9640625 -51.99921875 47.428125 -52.8359375 47.90625 C-55 49 -55 49 -57 49 C-58.01111093 52.04913228 -58.01111093 52.04913228 -57 55 C-60.96 54.505 -60.96 54.505 -65 54 C-64.30053366 48.12448273 -62.26020614 43.89030921 -59 39 C-58.01 39 -57.02 39 -56 39 C-56 38.34 -56 37.68 -56 37 C-53.24048643 33.44191337 -50.3026416 33.3289488 -46.05859375 32.72265625 C-43.86382498 32.20818076 -43.86382498 32.20818076 -43.03515625 30.26171875 C-42.52275391 29.14216797 -42.52275391 29.14216797 -42 28 C-40.3863494 26.20099764 -38.71381615 24.4538521 -37 22.75 C-35.6696875 21.41195312 -35.6696875 21.41195312 -34.3125 20.046875 C-32 18 -32 18 -30 18 C-30 17.34 -30 16.68 -30 16 C-28.3203125 14.7109375 -28.3203125 14.7109375 -26.125 13.375 C-25.40570313 12.92898437 -24.68640625 12.48296875 -23.9453125 12.0234375 C-22 11 -22 11 -20 11 C-20 10.34 -20 9.68 -20 9 C-18.68 9 -17.36 9 -16 9 C-16 9.66 -16 10.32 -16 11 C-15.34 11 -14.68 11 -14 11 C-13.814375 10.071875 -13.814375 10.071875 -13.625 9.125 C-13 7 -13 7 -11 5 C-9.16015625 4.47265625 -9.16015625 4.47265625 -7.0625 4.0625 C-3.8956098 3.34405848 -1.98385336 2.72779838 0 0 Z " fill="#84ACC4" transform="translate(120,64)"/>
<path d="M0 0 C5.3752894 2.61176766 10.62290392 5.91471033 15 10 C15 10.66 15 11.32 15 12 C15.66 12 16.32 12 17 12 C17.51820313 12.84820312 18.03640625 13.69640625 18.5703125 14.5703125 C19.37210938 15.37210938 20.17390625 16.17390625 21 17 C24.21303199 16.89310852 26.77334572 16.54600796 29.875 15.875 C49.42560487 12.32930287 70.78870053 10.93731295 90 17 C86.39751047 18.2353861 83.77218316 17.73738885 80.0625 17.0625 C62.82557891 14.40639159 44.44332152 14.78014446 27.40625 18.44140625 C24.12860092 18.97891063 22.12783252 19.0388469 19 18 C17.64691687 16.68671343 16.31129922 15.35500919 15 14 C14.01 14 13.02 14 12 14 C12.495 14.61875 12.99 15.2375 13.5 15.875 C15 18 15 18 15 20 C12 22 12 22 8 22 C6.25 20.6875 6.25 20.6875 5 19 C5 18.01 5 17.02 5 16 C4.443125 15.87625 3.88625 15.7525 3.3125 15.625 C0.77885636 14.94023145 -1.57921032 14.00866237 -4 13 C-4 14.32 -4 15.64 -4 17 C-3.401875 17.0825 -2.80375 17.165 -2.1875 17.25 C0.62932273 18.21576779 1.47799132 19.48868567 3 22 C3 22.66 3 23.32 3 24 C-1.97093824 23.58846263 -6.44508386 23.20399168 -11 21 C-10.65213292 22.97536745 -10.65213292 22.97536745 -10 25 C-9.34 25.33 -8.68 25.66 -8 26 C-8.309375 27.175625 -8.309375 27.175625 -8.625 28.375 C-8.74875 29.24125 -8.8725 30.1075 -9 31 C-8.34 31.66 -7.68 32.32 -7 33 C-8.485 33.495 -8.485 33.495 -10 34 C-10 33.34 -10 32.68 -10 32 C-10.60328125 32.20496094 -11.2065625 32.40992188 -11.828125 32.62109375 C-12.62734375 32.89050781 -13.4265625 33.15992188 -14.25 33.4375 C-15.03890625 33.70433594 -15.8278125 33.97117188 -16.640625 34.24609375 C-18.75719638 34.9224154 -20.81757877 35.5799322 -23 36 C-23.33 35.67 -23.66 35.34 -24 35 C-24.66 35.66 -25.32 36.32 -26 37 C-26.66 36.67 -27.32 36.34 -28 36 C-30.475 38.475 -30.475 38.475 -33 41 C-31.55361919 37.8642464 -29.77022208 35.27711506 -27.6953125 32.5234375 C-23.05723081 25.97824195 -20.47452372 18.85121763 -17.65234375 11.39453125 C-13.99357997 2.10150503 -10.44542323 -3.15177857 0 0 Z " fill="#3D7E9A" transform="translate(132,12)"/>
<path d="M0 0 C1.3125 2.5625 1.3125 2.5625 2 5 C0.68 3.68 -0.64 2.36 -2 1 C-5.80407522 2.22149204 -9.500174 3.60138559 -13.20019531 5.10644531 C-20.10983048 7.86539147 -26.94611355 9.82666442 -34.25 11.25 C-35.52472168 11.49991699 -35.52472168 11.49991699 -36.82519531 11.75488281 C-40.46864125 12.43935749 -44.03083495 13.00277967 -47.7265625 13.3359375 C-53.51215743 13.73090928 -53.51215743 13.73090928 -57.84375 17.203125 C-58.85314197 18.96441099 -59.80971751 20.75718333 -60.70703125 22.578125 C-62.60650937 26.13605984 -64.37528539 27.30332507 -68 29 C-70.75 29.375 -70.75 29.375 -73 29 C-73.66 28.34 -74.32 27.68 -75 27 C-74.9765625 24.1796875 -74.9765625 24.1796875 -74.625 20.875 C-74.51414063 19.77929688 -74.40328125 18.68359375 -74.2890625 17.5546875 C-74.14597656 16.29011719 -74.14597656 16.29011719 -74 15 C-75.258125 15.020625 -76.51625 15.04125 -77.8125 15.0625 C-91.875 15.0625 -91.875 15.0625 -96 13 C-95.98839844 13.80824219 -95.97679688 14.61648437 -95.96484375 15.44921875 C-95.95130859 17.05216797 -95.95130859 17.05216797 -95.9375 18.6875 C-95.92589844 19.74324219 -95.91429688 20.79898438 -95.90234375 21.88671875 C-95.99134575 24.72410262 -96.35060162 27.2438919 -97 30 C-97.33 30 -97.66 30 -98 30 C-98 24.72 -98 19.44 -98 14 C-99.31804014 18.60599457 -99.31804014 18.60599457 -100.62255859 23.21582031 C-101.19182033 25.23175742 -101.7827111 27.24071613 -102.375 29.25 C-102.5709375 29.95640625 -102.766875 30.6628125 -102.96875 31.390625 C-104.19186106 35.4779835 -105.19425672 37.89469521 -109 40 C-109.56488138 33.65517166 -110.07786341 27.30655388 -110.25 20.9375 C-110.27578125 20.08027344 -110.3015625 19.22304687 -110.328125 18.33984375 C-109.91811903 15.41611072 -109.08400762 14.07451328 -107 12 C-103.3125 11.75 -103.3125 11.75 -100 12 C-100.33 10.68 -100.66 9.36 -101 8 C-99.89527344 8.0721875 -98.79054688 8.144375 -97.65234375 8.21875 C-88.26578919 8.793145 -78.90494714 9.10713261 -69.5 9.125 C-68.50347412 9.12951172 -67.50694824 9.13402344 -66.48022461 9.13867188 C-65.54831299 9.13673828 -64.61640137 9.13480469 -63.65625 9.1328125 C-62.82931641 9.13168457 -62.00238281 9.13055664 -61.15039062 9.12939453 C-58.81452688 9.08188406 -58.81452688 9.08188406 -56 8 C-53.52133694 7.6840638 -51.04605936 7.39531742 -48.5625 7.125 C-42.34586415 6.41599875 -36.46992522 5.26138858 -30.453125 3.48828125 C-27.8420404 2.968559 -26.46035155 3.03190515 -24 4 C-23.01 4.99 -23.01 4.99 -22 6 C-20.83082031 5.48308594 -19.66164063 4.96617188 -18.45703125 4.43359375 C-16.90915199 3.76753661 -15.36095817 3.10221017 -13.8125 2.4375 C-13.04357422 2.09525391 -12.27464844 1.75300781 -11.48242188 1.40039062 C-4.06516465 -1.75114785 -4.06516465 -1.75114785 0 0 Z " fill="#387994" transform="translate(160,111)"/>
<path d="M0 0 C5.62395364 1.53380554 5.62395364 1.53380554 7.7109375 4.12109375 C9.98047264 6.3906751 9.98047264 6.3906751 13.6796875 5.98828125 C15.08156854 5.78555176 16.48023167 5.55946357 17.875 5.3125 C18.56980469 5.20744141 19.26460937 5.10238281 19.98046875 4.99414062 C22.95100351 4.53821109 25.90664701 4.01727373 28.86181641 3.47045898 C46.42153069 0.83800454 65.64355499 2.63675313 83 6 C84.58894072 7.58894072 84.16998411 9.24801424 84.1875 11.4375 C84.20167969 12.24058594 84.21585937 13.04367188 84.23046875 13.87109375 C84 16 84 16 82 18 C81.34 17.67 80.68 17.34 80 17 C80 15.02 80 13.04 80 11 C49.62421888 2.60669206 10.99850814 7.00074593 -17 21 C-17.99 20.01 -18.98 19.02 -20 18 C-19.34 16.68 -18.68 15.36 -18 14 C-18.99 13.67 -19.98 13.34 -21 13 C-21 11.68 -21 10.36 -21 9 C-16.31261335 9.90723613 -11.65806256 10.9547267 -7 12 C-7.7425 11.071875 -7.7425 11.071875 -8.5 10.125 C-10 8 -10 8 -10 6 C-11.32 5.67 -12.64 5.34 -14 5 C-14 3.68 -14 2.36 -14 1 C-10.65626525 1.55728913 -7.96687001 2.35173889 -5 4 C-5 4.99 -5 5.98 -5 7 C-4.01 7.33 -3.02 7.66 -2 8 C-2 8.66 -2 9.32 -2 10 C0.31 9.34 2.62 8.68 5 8 C3.35 5.36 1.7 2.72 0 0 Z " fill="#136283" transform="translate(142,24)"/>
<path d="M0 0 C1.15822266 0.02707031 1.15822266 0.02707031 2.33984375 0.0546875 C2.90832031 0.07789063 3.47679687 0.10109375 4.0625 0.125 C4.0625 1.445 4.0625 2.765 4.0625 4.125 C2.88816406 4.41632812 1.71382813 4.70765625 0.50390625 5.0078125 C-14.21666504 8.72760125 -28.50971998 12.91984974 -41.9375 20.125 C-44.01816925 21.17197789 -46.10161983 22.21344266 -48.1875 23.25 C-49.14140625 23.72695313 -50.0953125 24.20390625 -51.078125 24.6953125 C-53.01206024 25.66228012 -54.95517294 26.61107273 -56.90625 27.54296875 C-61.29546721 29.83373289 -65.25865382 32.67131887 -69.328125 35.48046875 C-71.9375 37.125 -71.9375 37.125 -73.9375 37.125 C-73.9375 37.785 -73.9375 38.445 -73.9375 39.125 C-75.6171875 40.4140625 -75.6171875 40.4140625 -77.8125 41.75 C-78.89144531 42.41902344 -78.89144531 42.41902344 -79.9921875 43.1015625 C-81.9375 44.125 -81.9375 44.125 -83.9375 44.125 C-83.9375 44.785 -83.9375 45.445 -83.9375 46.125 C-85.4765625 47.60546875 -85.4765625 47.60546875 -87.5625 49.3125 C-90.96144 52.1880634 -93.83831751 55.16986318 -96.61328125 58.64453125 C-97.9375 60.125 -97.9375 60.125 -100.9375 62.125 C-101.9275 62.125 -102.9175 62.125 -103.9375 62.125 C-103.54880815 56.71504401 -101.87873634 54.45622439 -98 50.75 C-97.10410156 49.87601563 -96.20820312 49.00203125 -95.28515625 48.1015625 C-92.9375 46.125 -92.9375 46.125 -90.9375 46.125 C-90.9375 45.465 -90.9375 44.805 -90.9375 44.125 C-89.0390625 42.3984375 -89.0390625 42.3984375 -86.5625 40.5 C-85.75039062 39.86835937 -84.93828125 39.23671875 -84.1015625 38.5859375 C-81.9375 37.125 -81.9375 37.125 -79.9375 37.125 C-79.9375 36.465 -79.9375 35.805 -79.9375 35.125 C-78.31028429 34.06201043 -76.63094137 33.07895708 -74.9375 32.125 C-73.77966495 31.3985617 -72.62629137 30.66498227 -71.4765625 29.92578125 C-52.6009988 17.89469686 -33.34390559 8.75552238 -11.9375 2.125 C-10.74253906 1.75246094 -9.54757813 1.37992188 -8.31640625 0.99609375 C-5.34845605 0.23094589 -3.03595504 -0.093414 0 0 Z " fill="#1B6686" transform="translate(173.9375,35.875)"/>
<path d="M0 0 C0.66 0.33 1.32 0.66 2 1 C2.33 0.34 2.66 -0.32 3 -1 C3 -0.01 3 0.98 3 2 C3.78375 1.95875 4.5675 1.9175 5.375 1.875 C8 2 8 2 10 4 C10 4.99 10 5.98 10 7 C7.69 7 5.38 7 3 7 C-1.45536134 14.60757352 1.1796891 25.60646165 2 34 C4.49599105 30.20609361 5.87329152 26.60633974 7.125 22.25 C8.90536278 16.09463722 8.90536278 16.09463722 10 15 C10.36760731 12.67182036 10.70241581 10.3381615 11 8 C11.66 8.33 12.32 8.66 13 9 C12.76793171 29.54859204 12.76793171 29.54859204 7 38 C6.49726562 38.80953125 5.99453125 39.6190625 5.4765625 40.453125 C0.35696003 48.50935223 0.35696003 48.50935223 -3 51 C-5.6875 51.3125 -5.6875 51.3125 -8 51 C-8.33 50.67 -8.66 50.34 -9 50 C-8.62902896 45.84512439 -8.00856574 41.95690192 -6.95703125 37.92578125 C-5.72829044 32.49021258 -5.85045506 27.23187863 -6 21.6875 C-6.05111347 19.75413291 -6.09314638 17.82049905 -6.125 15.88671875 C-6.14820313 15.04326904 -6.17140625 14.19981934 -6.1953125 13.33081055 C-5.97708322 10.7265169 -5.42397322 9.18316503 -4 7 C-1.375 5.75 -1.375 5.75 1 5 C1 4.01 1 3.02 1 2 C-1.64 2 -4.28 2 -7 2 C-7 1.34 -7 0.68 -7 0 C-3.83299069 -1.05566977 -3.03571759 -0.97926374 0 0 Z " fill="#186381" transform="translate(50,116)"/>
<path d="M0 0 C2.20552061 -0.00217961 4.41053502 -0.02033465 6.6159668 -0.03930664 C8.03328281 -0.04224245 9.45060118 -0.04422599 10.86791992 -0.04516602 C12.14642822 -0.0492749 13.42493652 -0.05338379 14.7421875 -0.05761719 C18.6460075 0.20087093 21.70904309 0.98059894 25.41088867 2.18530273 C22.41088867 4.18530273 22.41088867 4.18530273 19.47338867 4.87280273 C14.60288593 6.15014141 10.53562407 8.91923116 6.27807617 11.52905273 C1.86411429 14.07880728 -1.45979791 15.47840636 -6.58911133 15.18530273 C-6.58911133 15.84530273 -6.58911133 16.50530273 -6.58911133 17.18530273 C-7.57911133 17.18530273 -8.56911133 17.18530273 -9.58911133 17.18530273 C-9.58911133 17.84530273 -9.58911133 18.50530273 -9.58911133 19.18530273 C-11.23911133 19.51530273 -12.88911133 19.84530273 -14.58911133 20.18530273 C-14.29614258 18.19962565 -14.00317383 16.21394857 -13.71020508 14.22827148 C-13.45006334 11.98276854 -13.45006334 11.98276854 -14.58911133 9.18530273 C-13.92911133 9.18530273 -13.26911133 9.18530273 -12.58911133 9.18530273 C-12.91911133 8.52530273 -13.24911133 7.86530273 -13.58911133 7.18530273 C-14.57911133 7.68030273 -14.57911133 7.68030273 -15.58911133 8.18530273 C-16.24911133 5.87530273 -16.90911133 3.56530273 -17.58911133 1.18530273 C-11.95393522 -0.59035782 -5.84990061 -0.0006479 0 0 Z " fill="#84ADC5" transform="translate(194.589111328125,31.814697265625)"/>
<path d="M0 0 C2.05078125 0.03255208 4.1015625 0.06510417 6.15234375 0.09765625 C6.15234375 0.75765625 6.15234375 1.41765625 6.15234375 2.09765625 C9.12234375 2.59265625 9.12234375 2.59265625 12.15234375 3.09765625 C12.21421875 3.71640625 12.27609375 4.33515625 12.33984375 4.97265625 C12.60796875 5.67390625 12.87609375 6.37515625 13.15234375 7.09765625 C14.80672988 7.79423988 16.47488693 8.45862508 18.15234375 9.09765625 C21.15234375 12.40800108 21.15234375 12.40800108 21.15234375 15.09765625 C18.15234375 17.09765625 18.15234375 17.09765625 14.15234375 17.09765625 C12.40234375 15.78515625 12.40234375 15.78515625 11.15234375 14.09765625 C11.15234375 13.10765625 11.15234375 12.11765625 11.15234375 11.09765625 C10.59546875 10.97390625 10.03859375 10.85015625 9.46484375 10.72265625 C6.93120011 10.0378877 4.57313343 9.10631862 2.15234375 8.09765625 C2.15234375 9.41765625 2.15234375 10.73765625 2.15234375 12.09765625 C2.75046875 12.18015625 3.34859375 12.26265625 3.96484375 12.34765625 C6.78166648 13.31342404 7.63033507 14.58634192 9.15234375 17.09765625 C9.15234375 17.75765625 9.15234375 18.41765625 9.15234375 19.09765625 C4.18140551 18.68611888 -0.29274011 18.30164793 -4.84765625 16.09765625 C-4.49978917 18.0730237 -4.49978917 18.0730237 -3.84765625 20.09765625 C-3.18765625 20.42765625 -2.52765625 20.75765625 -1.84765625 21.09765625 C-1.84765625 22.08765625 -1.84765625 23.07765625 -1.84765625 24.09765625 C-3.49765625 24.09765625 -5.14765625 24.09765625 -6.84765625 24.09765625 C-6.84765625 24.75765625 -6.84765625 25.41765625 -6.84765625 26.09765625 C-9.49504541 27.55828475 -10.74213959 28.09765625 -13.84765625 28.09765625 C-13.84765625 26.44765625 -13.84765625 24.79765625 -13.84765625 23.09765625 C-12.85765625 23.09765625 -11.86765625 23.09765625 -10.84765625 23.09765625 C-10.75484375 22.453125 -10.66203125 21.80859375 -10.56640625 21.14453125 C-9.59290643 17.01773854 -7.98623556 13.24997565 -6.34765625 9.34765625 C-6.02667969 8.56777344 -5.70570312 7.78789062 -5.375 6.984375 C-2.52745483 0.13358641 -2.52745483 0.13358641 0 0 Z " fill="#3583A9" transform="translate(125.84765625,16.90234375)"/>
<path d="M0 0 C2.64 0 5.28 0 8 0 C7.67 0.99 7.34 1.98 7 3 C12.1062806 4.20620801 17.25132094 4.35745716 22.46875 4.60546875 C27.89698508 4.89698508 27.89698508 4.89698508 29 6 C29.23481693 8.18292774 29.41363323 10.37203174 29.5625 12.5625 C29.64628906 13.76003906 29.73007813 14.95757812 29.81640625 16.19140625 C29.87699219 17.11824219 29.93757813 18.04507813 30 19 C30.66 18.67 31.32 18.34 32 18 C31.505 17.01 31.505 17.01 31 16 C30.76666667 9.46666667 30.76666667 9.46666667 32 7 C34.5625 6.375 34.5625 6.375 37 6 C36.25749403 10.08378283 35.17076699 14.01939223 34 18 C34.66 18.33 35.32 18.66 36 19 C32.77626323 21.14915785 31.73296326 21.38286803 28 21 C27.34 20.34 26.68 19.68 26 19 C26.0234375 16.1796875 26.0234375 16.1796875 26.375 12.875 C26.48585937 11.77929688 26.59671875 10.68359375 26.7109375 9.5546875 C26.85402344 8.29011719 26.85402344 8.29011719 27 7 C25.741875 7.020625 24.48375 7.04125 23.1875 7.0625 C9.125 7.0625 9.125 7.0625 5 5 C5.01160156 5.80824219 5.02320312 6.61648437 5.03515625 7.44921875 C5.04869141 9.05216797 5.04869141 9.05216797 5.0625 10.6875 C5.07410156 11.74324219 5.08570312 12.79898438 5.09765625 13.88671875 C5.00865425 16.72410262 4.64939838 19.2438919 4 22 C3.67 22 3.34 22 3 22 C3 16.72 3 11.44 3 6 C1.68195986 10.60599457 1.68195986 10.60599457 0.37744141 15.21582031 C-0.19182033 17.23175742 -0.7827111 19.24071613 -1.375 21.25 C-1.5709375 21.95640625 -1.766875 22.6628125 -1.96875 23.390625 C-3.19186106 27.4779835 -4.19425672 29.89469521 -8 32 C-8.56488138 25.65517166 -9.07786341 19.30655388 -9.25 12.9375 C-9.27578125 12.08027344 -9.3015625 11.22304687 -9.328125 10.33984375 C-8.91811903 7.41611072 -8.08400762 6.07451328 -6 4 C-2.3125 3.75 -2.3125 3.75 1 4 C0.67 2.68 0.34 1.36 0 0 Z " fill="#367A98" transform="translate(59,119)"/>
<path d="M0 0 C0.66 0.33 1.32 0.66 2 1 C1.64133496 8.33433408 -0.1534582 13.13254428 -3.9375 19.375 C-4.43040527 20.20644531 -4.92331055 21.03789063 -5.43115234 21.89453125 C-8.98614569 27.72813312 -12.82271893 32.65802443 -17.6171875 37.53515625 C-20.04259103 40.04405728 -22.12427326 42.67248643 -24.25 45.4375 C-29.68135904 52.2095729 -36.29996298 57.53894564 -43 63 C-43.66 62.67 -44.32 62.34 -45 62 C-42.86135987 57.72271973 -41.34150529 56.71375209 -37 55 C-36.855625 54.34 -36.71125 53.68 -36.5625 53 C-36.376875 52.34 -36.19125 51.68 -36 51 C-35.030625 50.71125 -34.06125 50.4225 -33.0625 50.125 C-32.051875 49.75375 -31.04125 49.3825 -30 49 C-28.54839062 45.98220128 -28.54839062 45.98220128 -28 43 C-28.66 42.67 -29.32 42.34 -30 42 C-29.57589844 41.61070313 -29.15179688 41.22140625 -28.71484375 40.8203125 C-24.26715668 36.57790329 -20.83360536 32.09004394 -17.48046875 26.94140625 C-16.99191406 26.30074219 -16.50335938 25.66007812 -16 25 C-15.34 25 -14.68 25 -14 25 C-13.73960937 24.13117187 -13.47921875 23.26234375 -13.2109375 22.3671875 C-11.99098435 18.97493068 -10.52322528 16.18371235 -8.625 13.125 C-8.03976563 12.15820312 -7.45453125 11.19140625 -6.8515625 10.1953125 C-6.24054688 9.47085938 -5.62953125 8.74640625 -5 8 C-3.68 8 -2.36 8 -1 8 C-0.67 5.36 -0.34 2.72 0 0 Z " fill="#1B6380" transform="translate(226,32)"/>
<path d="M0 0 C0.99 0 1.98 0 3 0 C2.54177532 3.46941546 2.10868317 6.67395049 1 10 C0.93062938 12.22818441 0.91542916 14.45834524 0.9375 16.6875 C0.94652344 17.86699219 0.95554688 19.04648437 0.96484375 20.26171875 C0.97644531 21.16535156 0.98804688 22.06898437 1 23 C1.99 23.33 2.98 23.66 4 24 C4.45375 24.639375 4.9075 25.27875 5.375 25.9375 C7.48244913 28.61233928 8.68634249 29.15395979 12 30 C15.34080258 30.15371791 18.65851232 30.11678986 22 30 C20.25 36.75 20.25 36.75 18 39 C15.375 39.125 15.375 39.125 13 39 C12.9175 39.763125 12.835 40.52625 12.75 41.3125 C11.84730645 44.54715191 10.86406539 45.35099265 8 47 C7.34 47 6.68 47 6 47 C5.731875 47.639375 5.46375 48.27875 5.1875 48.9375 C4 51 4 51 1 52 C1 51.01 1 50.02 1 49 C1.99 48.34 2.98 47.68 4 47 C4.1546875 46.36320312 4.309375 45.72640625 4.46875 45.0703125 C5.16170577 42.3698231 6.32991603 41.57371327 8.5 39.875 C11.1880384 37.80112319 11.1880384 37.80112319 13 35 C12.319375 34.9175 11.63875 34.835 10.9375 34.75 C5.50276918 33.36240915 1.44047122 31.0938741 -1.9375 26.625 C-5.20225768 20.85221655 -4.84004205 14.40810835 -4 8 C-2.95957039 4.93676088 -1.75736785 2.74588726 0 0 Z " fill="#1F6787" transform="translate(177,44)"/>
<path d="M0 0 C0 1.32 0 2.64 0 4 C-9.9 6.97 -9.9 6.97 -20 10 C-20 10.33 -20 10.66 -20 11 C-12.26134446 13.13480153 -4.99976044 13.20483028 3 13 C3 14.32 3 15.64 3 17 C-5.36123059 21.70790011 -14.97844228 18.29248706 -23.65625 15.97265625 C-27 15 -27 15 -29 14 C-29 12.35 -29 10.7 -29 9 C-20.05080406 4.07087176 -10.39849275 -0.42029836 0 0 Z " fill="#206887" transform="translate(161,65)"/>
<path d="M0 0 C0.83265381 0.00523682 1.66530762 0.01047363 2.52319336 0.01586914 C3.42231445 0.0190918 4.32143555 0.02231445 5.24780273 0.02563477 C6.66609375 0.03820312 6.66609375 0.03820312 8.11303711 0.05102539 C9.06243164 0.05553711 10.01182617 0.06004883 10.98999023 0.06469727 C13.34356776 0.07652429 15.69702188 0.09300514 18.05053711 0.11352539 C17.06053711 0.44352539 16.07053711 0.77352539 15.05053711 1.11352539 C15.05053711 1.77352539 15.05053711 2.43352539 15.05053711 3.11352539 C15.71053711 3.77352539 16.37053711 4.43352539 17.05053711 5.11352539 C16.06053711 5.44352539 15.07053711 5.77352539 14.05053711 6.11352539 C14.55584961 6.45125977 15.06116211 6.78899414 15.58178711 7.13696289 C16.23147461 7.58297852 16.88116211 8.02899414 17.55053711 8.48852539 C18.20022461 8.92938477 18.84991211 9.37024414 19.51928711 9.82446289 C20.02459961 10.24985352 20.52991211 10.67524414 21.05053711 11.11352539 C21.05053711 11.77352539 21.05053711 12.43352539 21.05053711 13.11352539 C21.71053711 13.11352539 22.37053711 13.11352539 23.05053711 13.11352539 C24.42127497 14.74956735 25.75108967 16.420306 27.05053711 18.11352539 C27.62803711 18.67040039 28.20553711 19.22727539 28.80053711 19.80102539 C30.05053711 21.11352539 30.05053711 21.11352539 30.05053711 23.11352539 C28.40053711 22.78352539 26.75053711 22.45352539 25.05053711 22.11352539 C25.05053711 21.45352539 25.05053711 20.79352539 25.05053711 20.11352539 C24.31963867 20.02586914 23.58874023 19.93821289 22.83569336 19.84790039 C19.52036211 18.9737317 18.02395456 17.64628018 15.48803711 15.36352539 C10.78603402 11.39089929 6.23894127 9.33364855 0.42163086 7.41430664 C-1.94946289 6.11352539 -1.94946289 6.11352539 -2.85180664 3.53149414 C-2.8840332 2.73356445 -2.91625977 1.93563477 -2.94946289 1.11352539 C-1.94946289 0.11352539 -1.94946289 0.11352539 0 0 Z " fill="#156586" transform="translate(11.949462890625,92.886474609375)"/>
<path d="M0 0 C8.47602825 -0.1155822 16.90842186 0.01956382 25.375 0.4375 C26.60331543 0.49635376 26.60331543 0.49635376 27.85644531 0.55639648 C33.26810666 0.841192 38.61890618 1.35836657 44 2 C41 4 41 4 39 4 C38.773125 5.03125 38.54625 6.0625 38.3125 7.125 C37.11138965 11.36777109 35.06435454 13.8590366 32 17 C31.34 17 30.68 17 30 17 C31 9.57142857 31 9.57142857 32 6 C30.68 6 29.36 6 28 6 C27.97287934 7.43739513 27.95354933 8.87493863 27.9375 10.3125 C27.92589844 11.11300781 27.91429688 11.91351563 27.90234375 12.73828125 C27.90342145 15.16861334 27.90342145 15.16861334 29 18 C28.01 18 27.02 18 26 18 C24.03927451 14.07854902 24.39693727 9.36631 24 5 C16.41 4.34 8.82 3.68 1 3 C0.67 2.01 0.34 1.02 0 0 Z " fill="#115F80" transform="translate(63,120)"/>
<path d="M0 0 C-1.31010477 3.9303143 -2.74375951 4.17008353 -6.375 6 C-9.77569822 7.72278116 -12.41470345 9.20365883 -15 12 C-20.6 16 -20.6 16 -23 16 C-23 16.66 -23 17.32 -23 18 C-23.804375 18.268125 -24.60875 18.53625 -25.4375 18.8125 C-26.283125 19.204375 -27.12875 19.59625 -28 20 C-28.33 20.99 -28.66 21.98 -29 23 C-29.33 22.34 -29.66 21.68 -30 21 C-30.825 20.835 -31.65 20.67 -32.5 20.5 C-33.325 20.335 -34.15 20.17 -35 20 C-35.33 19.34 -35.66 18.68 -36 18 C-38.01669827 16.86649466 -38.01669827 16.86649466 -40 16 C-38 15 -38 15 -34.875 15.9375 C-33.92625 16.288125 -32.9775 16.63875 -32 17 C-31.48050781 16.48050781 -30.96101563 15.96101563 -30.42578125 15.42578125 C-28.98502472 13.98502472 -27.54222934 12.54630484 -26.09765625 11.109375 C-24.88085147 9.88577243 -23.67428922 8.65144717 -22.49609375 7.390625 C-20.08612963 4.8220112 -18.47337273 3.59885737 -15 3 C-14.34 2.34 -13.68 1.68 -13 1 C-13 1.99 -13 2.98 -13 4 C-12.48050781 3.71125 -11.96101563 3.4225 -11.42578125 3.125 C-4.49912127 -0.56239016 -4.49912127 -0.56239016 0 0 Z " fill="#105E7D" transform="translate(122,44)"/>
<path d="M0 0 C4.03637285 0.87286563 8.01948779 1.90192767 12 3 C12 3.33 12 3.66 12 4 C6.25 4.125 6.25 4.125 4 3 C2.12943209 2.7724985 0.25314042 2.59037189 -1.625 2.4375 C-2.62789063 2.35371094 -3.63078125 2.26992188 -4.6640625 2.18359375 C-5.82035156 2.09271484 -5.82035156 2.09271484 -7 2 C-6.34 3.65 -5.68 5.3 -5 7 C-3.01086217 7.11247512 -3.01086217 7.11247512 -1.2890625 6.38671875 C2.02713858 5.82647318 4.44310822 6.79616211 7.625 7.8125 C8.77226563 8.16957031 9.91953125 8.52664062 11.1015625 8.89453125 C14 10 14 10 16 12 C14.47005208 13.23697917 12.94010417 14.47395833 11.41015625 15.7109375 C9.86733563 16.9666391 9.86733563 16.9666391 9 19 C6.07784059 17.89159471 5.1365 17.25438636 3.625 14.4375 C2.16901564 11.66443891 2.16901564 11.66443891 -1.1875 11.1875 C-2.115625 11.125625 -3.04375 11.06375 -4 11 C-2.5459375 12.0828125 -2.5459375 12.0828125 -1.0625 13.1875 C1.29913506 15.13237593 1.93412331 15.7882535 2.875 18.8125 C2.936875 19.8953125 2.936875 19.8953125 3 21 C1.87759737 19.87759737 0.75727241 18.75307539 -0.35546875 17.62109375 C-1.57832159 16.41566874 -2.83709118 15.24646321 -4.11328125 14.09765625 C-9.83681245 8.80110251 -9.83681245 8.80110251 -10.6875 4.625 C-9.26257538 -0.81562129 -4.72962868 -0.5665701 0 0 Z " fill="#3482A8" transform="translate(70,55)"/>
<path d="M0 0 C10.74660938 -0.69332964 17.97867415 2.787932 26.3828125 9.31640625 C28 11 28 11 28 14 C24.27031627 15.24322791 20.86704594 15.66999666 17 15 C14.48683954 13.58204842 13.02872591 12.13016221 11 10 C11 9.34 11 8.68 11 8 C10.34 8 9.68 8 9 8 C9 7.34 9 6.68 9 6 C8.443125 5.7525 7.88625 5.505 7.3125 5.25 C4.60028873 3.78393985 2.36412635 1.97010529 0 0 Z " fill="#3684A9" transform="translate(24,98)"/>
<path d="M0 0 C0.66 0.33 1.32 0.66 2 1 C2.33 0.34 2.66 -0.32 3 -1 C3 -0.01 3 0.98 3 2 C3.78375 1.95875 4.5675 1.9175 5.375 1.875 C8 2 8 2 10 4 C10 4.99 10 5.98 10 7 C7.69 7 5.38 7 3 7 C2.690625 7.639375 2.38125 8.27875 2.0625 8.9375 C1 11 1 11 0 12 C-0.07492132 13.59994477 -0.08320616 15.20312335 -0.0625 16.8046875 C-0.05476563 17.78050781 -0.04703125 18.75632813 -0.0390625 19.76171875 C-0.01311884 21.82942832 0.01292208 23.89713666 0.0390625 25.96484375 C0.04679687 26.94324219 0.05453125 27.92164063 0.0625 28.9296875 C0.07410156 29.82929199 0.08570313 30.72889648 0.09765625 31.65576172 C0 34 0 34 -1 37 C-1.66 37 -2.32 37 -3 37 C-5.01660879 12.65665106 -5.01660879 12.65665106 -3 7 C-0.9375 5.75 -0.9375 5.75 1 5 C1 4.01 1 3.02 1 2 C-1.64 2 -4.28 2 -7 2 C-7 1.34 -7 0.68 -7 0 C-3.83299069 -1.05566977 -3.03571759 -0.97926374 0 0 Z " fill="#0F6082" transform="translate(50,116)"/>
<path d="M0 0 C0.33 0 0.66 0 1 0 C1.33 3.3 1.66 6.6 2 10 C2.99 10.33 3.98 10.66 5 11 C5 12.32 5 13.64 5 15 C4.34 14.67 3.68 14.34 3 14 C3 13.34 3 12.68 3 12 C1.64068359 12.03480469 1.64068359 12.03480469 0.25390625 12.0703125 C-6.86197138 12.17573291 -13.13416799 11.89402262 -20 10 C-20 9.01 -20 8.02 -20 7 C-17.04283593 6.16247839 -14.084087 5.33069969 -11.125 4.5 C-9.86236328 4.14228516 -9.86236328 4.14228516 -8.57421875 3.77734375 C-7.76855469 3.55175781 -6.96289062 3.32617188 -6.1328125 3.09375 C-5.01737061 2.77954102 -5.01737061 2.77954102 -3.87939453 2.45898438 C-2 2 -2 2 0 2 C0 1.34 0 0.68 0 0 Z " fill="#86B2C8" transform="translate(161,67)"/>
<path d="M0 0 C0 3.96 0 7.92 0 12 C-0.33 11.01 -0.66 10.02 -1 9 C-1.66 9 -2.32 9 -3 9 C-2.33004806 12.4910226 -2.33004806 12.4910226 -1.38671875 15.9140625 C-0.91879478 18.43801604 -1.32798702 19.74765281 -2.25 22.125 C-2.50265625 22.80820313 -2.7553125 23.49140625 -3.015625 24.1953125 C-4 26 -4 26 -7 28 C-7.56488138 21.65517166 -8.07786341 15.30655388 -8.25 8.9375 C-8.27578125 8.08027344 -8.3015625 7.22304687 -8.328125 6.33984375 C-7.53120542 0.65704821 -5.59796131 0 0 0 Z " fill="#3785AB" transform="translate(58,123)"/>
<path d="M0 0 C2.475 0.495 2.475 0.495 5 1 C4 4 4 4 1 6 C0.29875 6.144375 -0.4025 6.28875 -1.125 6.4375 C-1.74375 6.623125 -2.3625 6.80875 -3 7 C-3.33 7.99 -3.66 8.98 -4 10 C-5.890625 11.3515625 -5.890625 11.3515625 -8.25 12.625 C-9.01828125 13.05039062 -9.7865625 13.47578125 -10.578125 13.9140625 C-13.06982277 15.03130763 -15.31375767 15.5575075 -18 16 C-19.33542939 16.32483418 -20.66961551 16.6550855 -22 17 C-22 15.68 -22 14.36 -22 13 C-21.34 12.67 -20.68 12.34 -20 12 C-19.773125 11.360625 -19.54625 10.72125 -19.3125 10.0625 C-18 8 -18 8 -14.8125 6.8125 C-11 6 -11 6 -7.3125 5.6875 C-3.81147186 5.28875725 -3.81147186 5.28875725 -1.5625 2.4375 C-1.046875 1.633125 -0.53125 0.82875 0 0 Z " fill="#7DAAC3" transform="translate(128,44)"/>
<path d="M0 0 C0 0.33 0 0.66 0 1 C-9.57 1.33 -19.14 1.66 -29 2 C-28.67 2.99 -28.34 3.98 -28 5 C-29.2375 5.0825 -30.475 5.165 -31.75 5.25 C-36.94279015 5.80312709 -41.5985244 7.40253557 -46.49609375 9.16015625 C-49 10 -49 10 -51 10 C-51 9.34 -51 8.68 -51 8 C-50.01 8 -49.02 8 -48 8 C-48.33 7.34 -48.66 6.68 -49 6 C-52.3 6 -55.6 6 -59 6 C-44.00574937 -3.99616709 -17.42546235 -0.43264135 0 0 Z " fill="#659BB7" transform="translate(206,31)"/>
<path d="M0 0 C0.66 0.33 1.32 0.66 2 1 C1.65683526 8.45264296 -0.26790463 13.23829974 -4.125 19.5625 C-4.58648437 20.36107422 -5.04796875 21.15964844 -5.5234375 21.98242188 C-8.81091521 27.52326687 -12.60608713 32.29593811 -17 37 C-17 33.078979 -15.46959543 31.88741582 -12.99609375 29.01171875 C-11.71286841 26.93926824 -11.71286841 26.93926824 -12.578125 24.19921875 C-13.14000927 19.93826305 -11.55891419 17.5666467 -9.3125 14.125 C-8.95994141 13.53203125 -8.60738281 12.9390625 -8.24414062 12.328125 C-7.17578125 10.6328125 -7.17578125 10.6328125 -5 8 C-3.68 8 -2.36 8 -1 8 C-0.67 5.36 -0.34 2.72 0 0 Z " fill="#3E7D97" transform="translate(226,32)"/>
<path d="M0 0 C0.054348 2.0622048 0.09294961 4.12482816 0.125 6.1875 C0.14820313 7.33605469 0.17140625 8.48460938 0.1953125 9.66796875 C0.00484152 12.91740372 -0.60639873 15.08660521 -2 18 C-2.99 18 -3.98 18 -5 18 C-5.66 16.35 -6.32 14.7 -7 13 C-7.66 13 -8.32 13 -9 13 C-11 10 -11 10 -10.8125 7.875 C-10.544375 7.25625 -10.27625 6.6375 -10 6 C-9.01 5.67 -8.02 5.34 -7 5 C-7 4.34 -7 3.68 -7 3 C-2.61538462 0 -2.61538462 0 0 0 Z " fill="#3886AC" transform="translate(174,100)"/>
<path d="M0 0 C0.144375 0.61875 0.28875 1.2375 0.4375 1.875 C0.93152225 4.03258322 0.93152225 4.03258322 2 6 C2.66 5.67 3.32 5.34 4 5 C3.67 6.65 3.34 8.3 3 10 C2.01 10 1.02 10 0 10 C0 11.65 0 13.3 0 15 C0.598125 14.67 1.19625 14.34 1.8125 14 C4 13 4 13 7 13 C7 12.34 7 11.68 7 11 C8.875 11.3125 8.875 11.3125 11 12 C11.99 13.485 11.99 13.485 13 15 C12.01 15.33 11.02 15.66 10 16 C10 15.34 10 14.68 10 14 C9.09507813 14.30744141 9.09507813 14.30744141 8.171875 14.62109375 C7.37265625 14.89050781 6.5734375 15.15992188 5.75 15.4375 C4.96109375 15.70433594 4.1721875 15.97117187 3.359375 16.24609375 C1.24280362 16.9224154 -0.81757877 17.5799322 -3 18 C-3.33 17.67 -3.66 17.34 -4 17 C-4.66 17.66 -5.32 18.32 -6 19 C-6.66 18.67 -7.32 18.34 -8 18 C-9.65 19.65 -11.3 21.3 -13 23 C-11.52742074 19.8142716 -9.7055768 17.13354409 -7.625 14.3125 C-4.38609042 9.76179824 -2.02056411 5.19573628 0 0 Z " fill="#276F8C" transform="translate(112,30)"/>
<path d="M0 0 C0.66 0.33 1.32 0.66 2 1 C1.8125 2.8125 1.8125 2.8125 1 5 C-0.65071396 6.02611949 -2.31970006 7.02308143 -4 8 C-4.928125 9.2684375 -4.928125 9.2684375 -5.875 10.5625 C-8.65290252 13.74891759 -10.87827121 14.32553529 -15 15 C-15.99 14.34 -16.98 13.68 -18 13 C-18 12.34 -18 11.68 -18 11 C-15.76953125 9.37890625 -15.76953125 9.37890625 -12.8125 7.5625 C-11.84957031 6.96566406 -10.88664062 6.36882812 -9.89453125 5.75390625 C-8.46173828 4.88572266 -8.46173828 4.88572266 -7 4 C-6.09636719 3.45214844 -5.19273438 2.90429688 -4.26171875 2.33984375 C-2.86741248 1.51385575 -1.4495092 0.7247546 0 0 Z " fill="#BBD4E1" transform="translate(92,95)"/>
<path d="M0 0 C0.66 0.33 1.32 0.66 2 1 C1.88581333 3.58422459 1.75907638 6.16679513 1.625 8.75 C1.57859375 9.84441406 1.57859375 9.84441406 1.53125 10.9609375 C1.3251506 14.73942656 1.08487157 17.77946668 -1 21 C-1.66 21 -2.32 21 -3 21 C-3.33 22.98 -3.66 24.96 -4 27 C-4.99 27 -5.98 27 -7 27 C-7.66 29.64 -8.32 32.28 -9 35 C-9.66 34.67 -10.32 34.34 -11 34 C-8.85490737 27.4278013 -6.6415139 20.89782702 -3.95703125 14.5234375 C-1.90365443 9.61608928 -0.46162773 5.30871888 0 0 Z " fill="#106080" transform="translate(61,124)"/>
<path d="M0 0 C8.43988008 0.87309104 16.0216819 5.41274156 22.08984375 11.28515625 C22.41984375 12.60515625 22.74984375 13.92515625 23.08984375 15.28515625 C20.11984375 14.62515625 17.14984375 13.96515625 14.08984375 13.28515625 C13.75984375 11.96515625 13.42984375 10.64515625 13.08984375 9.28515625 C10.11984375 8.79015625 10.11984375 8.79015625 7.08984375 8.28515625 C7.41984375 6.96515625 7.74984375 5.64515625 8.08984375 4.28515625 C5.07493818 3.28018773 3.04802683 3.18180322 -0.09765625 3.22265625 C-0.99871094 3.23167969 -1.89976563 3.24070312 -2.828125 3.25 C-3.85873047 3.26740234 -3.85873047 3.26740234 -4.91015625 3.28515625 C-2.48264405 0.37061966 -2.48264405 0.37061966 0 0 Z " fill="#266D8B" transform="translate(124.91015625,10.71484375)"/>
<path d="M0 0 C0.12375 0.61875 0.2475 1.2375 0.375 1.875 C0.87197356 4.19120832 0.87197356 4.19120832 3 6 C1.04414675 7.00484204 -0.91476237 8.00373805 -2.875 9 C-3.96554688 9.556875 -5.05609375 10.11375 -6.1796875 10.6875 C-9 12 -9 12 -11 12 C-11 11.34 -11 10.68 -11 10 C-8.38058783 8.25372522 -6.96175123 7.61277612 -4 7 C-4.33 6.01 -4.66 5.02 -5 4 C-5.99 3.67 -6.98 3.34 -8 3 C-8.268125 3.61875 -8.53625 4.2375 -8.8125 4.875 C-10 7 -10 7 -13 9 C-16.1875 9.125 -16.1875 9.125 -19 9 C-19.33 9.66 -19.66 10.32 -20 11 C-20.66 10.34 -21.32 9.68 -22 9 C-19.56401192 7.68462636 -17.1263175 6.37260857 -14.6875 5.0625 C-13.99720703 4.68931641 -13.30691406 4.31613281 -12.59570312 3.93164062 C-11.92861328 3.57392578 -11.26152344 3.21621094 -10.57421875 2.84765625 C-9.65515747 2.3527771 -9.65515747 2.3527771 -8.7175293 1.84790039 C-5.57218979 0.29512653 -3.56843338 0 0 0 Z " fill="#75A5C1" transform="translate(136,41)"/>
<path d="M0 0 C1.32 0.33 2.64 0.66 4 1 C4.57597305 16.38061377 4.57597305 16.38061377 1 22 C-0.8125 23.5 -0.8125 23.5 -3 24 C-6.25 23.625 -6.25 23.625 -9 23 C-9 22.34 -9 21.68 -9 21 C-8.05125 20.938125 -7.1025 20.87625 -6.125 20.8125 C-5.09375 20.544375 -4.0625 20.27625 -3 20 C-1.54708727 17.53744315 -1.54708727 17.53744315 -1 15 C-0.34 15 0.32 15 1 15 C0.67 10.05 0.34 5.1 0 0 Z " fill="#105F7D" transform="translate(174,98)"/>
<path d="M0 0 C4.03637285 0.87286563 8.01948779 1.90192767 12 3 C12 3.33 12 3.66 12 4 C6.25 4.125 6.25 4.125 4 3 C2.12943209 2.7724985 0.25314042 2.59037189 -1.625 2.4375 C-2.62789063 2.35371094 -3.63078125 2.26992188 -4.6640625 2.18359375 C-5.82035156 2.09271484 -5.82035156 2.09271484 -7 2 C-5.58460541 6.24720956 -5.58460541 6.24720956 -1.875 8.8125 C-0.92625 9.204375 0.0225 9.59625 1 10 C0.67 10.66 0.34 11.32 0 12 C-0.99 12 -1.98 12 -3 12 C-2.195625 12.556875 -1.39125 13.11375 -0.5625 13.6875 C2.24228216 16.21864487 2.69381595 17.32579134 3 21 C1.87759737 19.87759737 0.75727241 18.75307539 -0.35546875 17.62109375 C-1.57832159 16.41566874 -2.83709118 15.24646321 -4.11328125 14.09765625 C-9.83681245 8.80110251 -9.83681245 8.80110251 -10.6875 4.625 C-9.26257538 -0.81562129 -4.72962868 -0.5665701 0 0 Z " fill="#2C718D" transform="translate(70,55)"/>
<path d="M0 0 C0.94642552 3.14789358 1.06491563 5.8293323 0.9140625 9.10546875 C0.87023438 10.08966797 0.82640625 11.07386719 0.78125 12.08789062 C0.7296875 13.11076172 0.678125 14.13363281 0.625 15.1875 C0.58117188 16.19103516 0.53734375 17.19457031 0.4921875 18.22851562 C0.1172843 26.23165753 -0.58377211 34.10958747 -2 42 C-1.01 42 -0.02 42 1 42 C1 41.34 1 40.68 1 40 C1.99 40.33 2.98 40.66 4 41 C2.8125 42.5 2.8125 42.5 1 44 C-1.625 44.25 -1.625 44.25 -4 44 C-4.33 43.67 -4.66 43.34 -5 43 C-4.62902896 38.84512439 -4.00856574 34.95690192 -2.95703125 30.92578125 C-1.72829044 25.49021258 -1.85045506 20.23187863 -2 14.6875 C-2.05111347 12.75413291 -2.09314638 10.82049905 -2.125 8.88671875 C-2.14820313 8.04326904 -2.17140625 7.19981934 -2.1953125 6.33081055 C-1.98170964 3.7817274 -1.28316896 2.19155407 0 0 Z " fill="#42819C" transform="translate(46,123)"/>
<path d="M0 0 C0 0.66 0 1.32 0 2 C-5.05177142 4.62262176 -10.13613622 7.14536452 -15.375 9.375 C-16.16648438 9.71273437 -16.95796875 10.05046875 -17.7734375 10.3984375 C-20.26951669 11.07281679 -21.58958325 10.84749813 -24 10 C-21.74614274 6.38490221 -20.04288236 5.37867227 -15.9375 4.375 C-12.05265302 3.46397199 -12.05265302 3.46397199 -9 1 C-5.97380078 -0.04351697 -3.18208557 -0.08839127 0 0 Z " fill="#18617F" transform="translate(158,107)"/>
<path d="M0 0 C1 2 1 2 0.0625 5.125 C-0.4634375 6.548125 -0.4634375 6.548125 -1 8 C-1.92232422 7.7834375 -1.92232422 7.7834375 -2.86328125 7.5625 C-3.67152344 7.376875 -4.47976562 7.19125 -5.3125 7 C-6.11300781 6.814375 -6.91351563 6.62875 -7.73828125 6.4375 C-10.10695938 5.90504177 -10.10695938 5.90504177 -13 6 C-13 6.66 -13 7.32 -13 8 C-10.36 8 -7.72 8 -5 8 C-4.67 9.32 -4.34 10.64 -4 12 C-5.65 12.33 -7.3 12.66 -9 13 C-8.34 12.01 -7.68 11.02 -7 10 C-7.65226562 9.90203125 -8.30453125 9.8040625 -8.9765625 9.703125 C-14.63431108 8.73513262 -18.48422039 7.56508917 -23 4 C-21.68 3.67 -20.36 3.34 -19 3 C-18.67 3.66 -18.34 4.32 -18 5 C-15.97536745 5.65213292 -15.97536745 5.65213292 -14 6 C-14.33 5.01 -14.66 4.02 -15 3 C-13.2300132 2.80467039 -11.45895721 2.61901118 -9.6875 2.4375 C-8.70136719 2.33308594 -7.71523438 2.22867188 -6.69921875 2.12109375 C-4 2 -4 2 -1 3 C-0.67 2.01 -0.34 1.02 0 0 Z " fill="#19698C" transform="translate(56,110)"/>
<path d="M0 0 C2 1 2 1 3 3 C2.67 3.99 2.34 4.98 2 6 C0.17070481 6.54201339 -1.66857163 7.0621119 -3.53515625 7.45703125 C-7.27188074 8.28017658 -10.91586323 9.42065887 -14.58203125 10.51171875 C-17 11 -17 11 -20 10 C-18.35 9.34 -16.7 8.68 -15 8 C-15 7.34 -15 6.68 -15 6 C-15.66 5.67 -16.32 5.34 -17 5 C-16.05125 5.103125 -15.1025 5.20625 -14.125 5.3125 C-9.48996968 5.36937154 -6.08556788 3.2275261 -2.13671875 0.99609375 C-1.07904297 0.50302734 -1.07904297 0.50302734 0 0 Z " fill="#95BCD0" transform="translate(159,59)"/>
<path d="M0 0 C1.65 0.33 3.3 0.66 5 1 C4.54625 1.37125 4.0925 1.7425 3.625 2.125 C1.52970606 4.54264685 0.87986715 6.95430602 0 10 C-2.31 10 -4.62 10 -7 10 C-7.66 7.69 -8.32 5.38 -9 3 C-8 2 -8 2 -6.15234375 1.90234375 C-4.1015625 1.93489583 -2.05078125 1.96744792 0 2 C0 1.34 0 0.68 0 0 Z " fill="#83ABC4" transform="translate(201,33)"/>
<path d="M0 0 C0.33 0 0.66 0 1 0 C1.33 4.29 1.66 8.58 2 13 C2.66 12.67 3.32 12.34 4 12 C3.67 11.34 3.34 10.68 3 10 C2.76666667 3.46666667 2.76666667 3.46666667 4 1 C6.5625 0.375 6.5625 0.375 9 0 C8.25749403 4.08378283 7.17076699 8.01939223 6 12 C6.66 12.33 7.32 12.66 8 13 C4.77786243 15.14809171 3.72224599 15.29386153 0 15 C-0.33 14.67 -0.66 14.34 -1 14 C-0.90968426 11.64305046 -0.75311872 9.28846418 -0.5625 6.9375 C-0.46066406 5.64714844 -0.35882813 4.35679687 -0.25390625 3.02734375 C-0.17011719 2.02832031 -0.08632812 1.02929688 0 0 Z " fill="#286881" transform="translate(87,125)"/>
<path d="M0 0 C0 0.99 0 1.98 0 3 C-1 4 -2 5 -3 6 C-3.18949219 6.93392578 -3.18949219 6.93392578 -3.3828125 7.88671875 C-4.16408709 10.56184251 -5.36655166 11.54085449 -7.4375 13.375 C-10.56791748 16.34504773 -12.05520054 18.69591356 -13 23 C-13.99 23 -14.98 23 -16 23 C-16.33 23.99 -16.66 24.98 -17 26 C-17.66 26 -18.32 26 -19 26 C-19 26.66 -19 27.32 -19 28 C-19.66 27.67 -20.32 27.34 -21 27 C-19.88368586 25.16136495 -18.75670373 23.32920277 -17.625 21.5 C-16.99851562 20.4790625 -16.37203125 19.458125 -15.7265625 18.40625 C-15.15679687 17.6121875 -14.58703125 16.818125 -14 16 C-13.34 16 -12.68 16 -12 16 C-11.77570313 15.29488281 -11.55140625 14.58976562 -11.3203125 13.86328125 C-9.72312689 10.39956216 -7.47480765 7.9147492 -4.875 5.1875 C-4.40707031 4.68541016 -3.93914062 4.18332031 -3.45703125 3.66601562 C-2.31098175 2.43810545 -1.15634689 1.21821785 0 0 Z " fill="#69A0BC" transform="translate(83,75)"/>
<path d="M0 0 C-2.18739511 5.48661537 -7.07617335 8.10752784 -12 11 C-14.14453125 11.75390625 -14.14453125 11.75390625 -16 12.1875 C-19.12247462 12.68271721 -19.12247462 12.68271721 -20.4375 15.125 C-20.623125 15.74375 -20.80875 16.3625 -21 17 C-21.66 17 -22.32 17 -23 17 C-23 16.34 -23 15.68 -23 15 C-23.66 14.67 -24.32 14.34 -25 14 C-23.12800641 12.72474223 -21.25225974 11.45499289 -19.375 10.1875 C-18.33085938 9.47980469 -17.28671875 8.77210937 -16.2109375 8.04296875 C-13.2118379 6.13478251 -10.19554385 4.5482635 -7 3 C-6.0925 2.443125 -5.185 1.88625 -4.25 1.3125 C-2 0 -2 0 0 0 Z " fill="#75A6C1" transform="translate(127,58)"/>
<path d="M0 0 C0 1.66666667 0 3.33333333 0 5 C0.99 5.66 1.98 6.32 3 7 C2.34 7 1.68 7 1 7 C1 7.66 1 8.32 1 9 C0.195625 9.268125 -0.60875 9.53625 -1.4375 9.8125 C-2.283125 10.204375 -3.12875 10.59625 -4 11 C-4.33 11.99 -4.66 12.98 -5 14 C-5.33 13.34 -5.66 12.68 -6 12 C-6.825 11.835 -7.65 11.67 -8.5 11.5 C-9.325 11.335 -10.15 11.17 -11 11 C-11.33 10.34 -11.66 9.68 -12 9 C-14.01669827 7.86649466 -14.01669827 7.86649466 -16 7 C-14 6 -14 6 -10.875 6.9375 C-9.92625 7.288125 -8.9775 7.63875 -8 8 C-5.36 5.36 -2.72 2.72 0 0 Z " fill="#307490" transform="translate(98,53)"/>
<path d="M0 0 C0.33 0.66 0.66 1.32 1 2 C2.65 1.67 4.3 1.34 6 1 C1.57677657 10.58717806 -8.43190643 19.74253448 -18 24 C-15.63396226 18.27169811 -15.63396226 18.27169811 -12.375 16.875 C-11.59125 16.58625 -10.8075 16.2975 -10 16 C-9.855625 15.34 -9.71125 14.68 -9.5625 14 C-9.376875 13.34 -9.19125 12.68 -9 12 C-8.030625 11.71125 -7.06125 11.4225 -6.0625 11.125 C-5.051875 10.75375 -4.04125 10.3825 -3 10 C-1.54839062 6.98220128 -1.54839062 6.98220128 -1 4 C-1.66 3.67 -2.32 3.34 -3 3 C-2.01 2.01 -1.02 1.02 0 0 Z " fill="#4F88A0" transform="translate(199,71)"/>
<path d="M0 0 C1.32685496 3.98056488 0.30132545 5.62294134 -1.1875 9.5 C-1.61417969 10.6446875 -2.04085937 11.789375 -2.48046875 12.96875 C-4.00809301 16.01614441 -5.11875202 17.27248515 -8 19 C-9.29522558 15.41322148 -8.70762204 13.46449298 -7.25 10 C-6.73179688 8.7315625 -6.73179688 8.7315625 -6.203125 7.4375 C-4.6305731 4.25155069 -3.23506648 1.61753324 0 0 Z " fill="#105E7C" transform="translate(121,19)"/>
<path d="M0 0 C0 4.37492326 -0.77171755 8.47692977 -3.5625 11.9375 C-5 13 -5 13 -6 13 C-6.28875 12.030625 -6.5775 11.06125 -6.875 10.0625 C-7.64214682 6.89335797 -7.64214682 6.89335797 -10 6 C-10 5.34 -10 4.68 -10 4 C-11.45833358 2.37485532 -11.45833358 2.37485532 -13 1 C-12.31292969 1.09539062 -11.62585937 1.19078125 -10.91796875 1.2890625 C-9.56638672 1.45535156 -9.56638672 1.45535156 -8.1875 1.625 C-6.84751953 1.79902344 -6.84751953 1.79902344 -5.48046875 1.9765625 C-2.74309609 2.23500743 -2.74309609 2.23500743 0 0 Z " fill="#146181" transform="translate(58,101)"/>
<path d="M0 0 C5.61 0 11.22 0 17 0 C13.61475492 1.69262254 12.37513499 2.24088959 8.8828125 2.5 C-0.04671907 3.05769998 -0.04671907 3.05769998 -7.41015625 7.41796875 C-8.97871477 10.12699737 -8.97871477 10.12699737 -10.02734375 12.91796875 C-10.34832031 13.60503906 -10.66929688 14.29210937 -11 15 C-11.99 15 -12.98 15 -14 15 C-13.401875 14.319375 -12.80375 13.63875 -12.1875 12.9375 C-9.81506069 10.05186339 -9.81506069 10.05186339 -8.6875 6.3125 C-7 3 -7 3 -3.3125 1.5625 C-2.219375 1.376875 -1.12625 1.19125 0 1 C0 0.67 0 0.34 0 0 Z " fill="#46829B" transform="translate(109,121)"/>
<path d="M0 0 C0.33 0 0.66 0 1 0 C1.33 3.3 1.66 6.6 2 10 C2.99 10.33 3.98 10.66 5 11 C5 12.32 5 13.64 5 15 C4.34 14.67 3.68 14.34 3 14 C3 13.34 3 12.68 3 12 C-0.63 12 -4.26 12 -8 12 C-7.67 10.68 -7.34 9.36 -7 8 C-6.01 8 -5.02 8 -4 8 C-4 7.34 -4 6.68 -4 6 C-3 5 -2 4 -1 3 C-0.67 2.01 -0.34 1.02 0 0 Z " fill="#9BBED2" transform="translate(161,67)"/>
<path d="M0 0 C0 7.5298969 -7.15089071 14.68907077 -12 20 C-12 16.56018231 -11.55441991 16.19665576 -9.4375 13.6875 C-7.11674107 10.65945972 -7.11674107 10.65945972 -7.375 6.75 C-7.58125 5.8425 -7.7875 4.935 -8 4 C-6.75 2.125 -6.75 2.125 -5 1 C-4.01 1 -3.02 1 -2 1 C-1.34 0.67 -0.68 0.34 0 0 Z " fill="#407E99" transform="translate(221,49)"/>
<path d="M0 0 C0.66 0.33 1.32 0.66 2 1 C1.2508542 20.60695378 1.2508542 20.60695378 -4.3125 28.125 C-7 30 -7 30 -10.3125 29.8125 C-11.199375 29.544375 -12.08625 29.27625 -13 29 C-13.33 28.01 -13.66 27.02 -14 26 C-11.03 25.67 -8.06 25.34 -5 25 C-2.30219511 19.49352153 -1.34660917 14.64350441 -0.8125 8.5625 C-0.73064453 7.73556641 -0.64878906 6.90863281 -0.56445312 6.05664062 C-0.36616145 4.03873118 -0.18164598 2.01947588 0 0 Z " fill="#6096AF" transform="translate(179,95)"/>
<path d="M0 0 C-1.28965176 1.37562854 -2.62689293 2.70766393 -4 4 C-4.66 4 -5.32 4 -6 4 C-6 5.65 -6 7.3 -6 9 C-2.7 9.66 0.6 10.32 4 11 C4 11.33 4 11.66 4 12 C1.03 12 -1.94 12 -5 12 C-5 11.34 -5 10.68 -5 10 C-5.99 10 -6.98 10 -8 10 C-8 8.02 -8 6.04 -8 4 C-9.32 4.33 -10.64 4.66 -12 5 C-9.30839269 -1.21140148 -6.29369588 -1.18748979 0 0 Z " fill="#93B9CF" transform="translate(138,70)"/>
<path d="M0 0 C3.3 0.99 6.6 1.98 10 3 C9.67 4.32 9.34 5.64 9 7 C5.4375 8.75 5.4375 8.75 2 10 C0.4375 8.8125 0.4375 8.8125 -1 7 C-0.6875 4.4375 -0.6875 4.4375 0 2 C0 1.34 0 0.68 0 0 Z " fill="#0E6083" transform="translate(123,35)"/>
<path d="M0 0 C1.98 0 3.96 0 6 0 C6 0.66 6 1.32 6 2 C6.66 2 7.32 2 8 2 C8.8125 4.125 8.8125 4.125 9 7 C7.58633421 9.41454116 6.01224447 10.98775553 4 13 C3.34 13 2.68 13 2 13 C3 5.57142857 3 5.57142857 4 2 C2.68 2 1.36 2 0 2 C0 1.34 0 0.68 0 0 Z " fill="#166586" transform="translate(91,124)"/>
<path d="M0 0 C0.99 0 1.98 0 3 0 C2.31195504 6.19240462 0.71951285 12.01955594 -1 18 C-3.69414604 13.95878094 -3.5569631 10.74629425 -3 6 C-1.5 2.4375 -1.5 2.4375 0 0 Z " fill="#156081" transform="translate(177,44)"/>
<path d="M0 0 C5.2712989 1.3403132 10.8746051 1.2930574 16.2890625 1.58203125 C16.2890625 1.91203125 16.2890625 2.24203125 16.2890625 2.58203125 C12.68491365 2.61156228 9.08079674 2.62900532 5.4765625 2.64453125 C4.47173828 2.65291016 3.46691406 2.66128906 2.43164062 2.66992188 C-4.33962574 2.69169444 -10.98004676 2.31901435 -17.7109375 1.58203125 C-17.7109375 1.25203125 -17.7109375 0.92203125 -17.7109375 0.58203125 C-5.95720616 -1.96461054 -5.95720616 -1.96461054 0 0 Z " fill="#98BDD1" transform="translate(84.7109375,118.41796875)"/>
<path d="M0 0 C1 3 1 3 0.21484375 5.1640625 C-2.83794932 11.04559043 -6.18878431 16.57785809 -10 22 C-11 20 -11 20 -10.22265625 17.6171875 C-9.83980469 16.71226562 -9.45695312 15.80734375 -9.0625 14.875 C-8.68222656 13.96492187 -8.30195312 13.05484375 -7.91015625 12.1171875 C-7.60980469 11.41851562 -7.30945312 10.71984375 -7 10 C-6.01 10 -5.02 10 -4 10 C-3.67 8.02 -3.34 6.04 -3 4 C-2.34 4 -1.68 4 -1 4 C-0.67 2.68 -0.34 1.36 0 0 Z " fill="#35758F" transform="translate(61,141)"/>
<path d="M0 0 C4.67422834 1.16855709 5.23821311 2.25822421 8 6 C8.5775 6.556875 9.155 7.11375 9.75 7.6875 C11 9 11 9 11 11 C9.35 10.67 7.7 10.34 6 10 C6 9.34 6 8.68 6 8 C4.68 8 3.36 8 2 8 C1.34 5.36 0.68 2.72 0 0 Z " fill="#10607F" transform="translate(31,105)"/>
<path d="M0 0 C4.03637285 0.87286563 8.01948779 1.90192767 12 3 C12 3.33 12 3.66 12 4 C6.25 4.125 6.25 4.125 4 3 C2.12620395 2.92966231 0.24998898 2.9156978 -1.625 2.9375 C-3.12933594 2.95103516 -3.12933594 2.95103516 -4.6640625 2.96484375 C-5.82035156 2.98224609 -5.82035156 2.98224609 -7 3 C-8.04449911 6.13349732 -7.93423645 6.98968256 -7 10 C-7.99 9.34 -8.98 8.68 -10 8 C-10.375 5 -10.375 5 -10 2 C-6.42067985 -0.38621343 -4.12494877 -0.49413449 0 0 Z " fill="#4D8AA4" transform="translate(70,55)"/>
<path d="M0 0 C-0.33 0.99 -0.66 1.98 -1 3 C-1.66 3 -2.32 3 -3 3 C-3.33 4.32 -3.66 5.64 -4 7 C-6.64 6.67 -9.28 6.34 -12 6 C-12 5.01 -12 4.02 -12 3 C-10.37604003 2.49663233 -8.75079459 1.99741024 -7.125 1.5 C-6.22007812 1.2215625 -5.31515625 0.943125 -4.3828125 0.65625 C-2 0 -2 0 0 0 Z " fill="#6A9DB5" transform="translate(153,71)"/>
<path d="M0 0 C0.515625 0.2475 1.03125 0.495 1.5625 0.75 C0.10994301 4.57946843 -1.86645561 5.87050295 -5.4375 7.75 C-5.7675 6.76 -6.0975 5.77 -6.4375 4.75 C-7.4275 4.42 -8.4175 4.09 -9.4375 3.75 C-3.0375 -0.31153846 -3.0375 -0.31153846 0 0 Z " fill="#B5D0DF" transform="translate(103.4375,88.25)"/>
<path d="M0 0 C3.41158256 1.13719419 4.11854601 2.04342944 6 5 C6 5.66 6 6.32 6 7 C3 9 3 9 -1 9 C-2.75 7.625 -2.75 7.625 -4 6 C-4 5.34 -4 4.68 -4 4 C-2.68 4 -1.36 4 0 4 C0 2.68 0 1.36 0 0 Z " fill="#2C7CA2" transform="translate(141,25)"/>
<path d="M0 0 C0.721875 0.78375 1.44375 1.5675 2.1875 2.375 C4.83299041 4.84412438 6.60373611 5.93260278 10 7 C9.01 7.495 9.01 7.495 8 8 C7.01 7.67 6.02 7.34 5 7 C5 7.99 5 8.98 5 10 C1.34683329 8.75023244 0.21934164 8.32901247 -2 5 C-1.125 2.3125 -1.125 2.3125 0 0 Z " fill="#286C8B" transform="translate(179,67)"/>
<path d="M0 0 C0.66 0.33 1.32 0.66 2 1 C1.01 2.485 1.01 2.485 0 4 C-0.66 4 -1.32 4 -2 4 C-2.33 4.66 -2.66 5.32 -3 6 C-3.66 5.67 -4.32 5.34 -5 5 C-5.103125 5.598125 -5.20625 6.19625 -5.3125 6.8125 C-6.08876455 9.28243264 -7.07088921 10.32251235 -9 12 C-9.99 11.67 -10.98 11.34 -12 11 C-10.71937515 9.2925002 -9.38232443 7.62626404 -8 6 C-7.34 6 -6.68 6 -6 6 C-6 5.34 -6 4.68 -6 4 C-4.03852126 2.61061923 -2.03833424 1.2739589 0 0 Z " fill="#72A4BF" transform="translate(96,76)"/>
<path d="M0 0 C1.32 0.66 2.64 1.32 4 2 C3.34 3.65 2.68 5.3 2 7 C2.33 7.33 2.66 7.66 3 8 C3.23287008 9.68183948 3.41264166 11.3712416 3.5625 13.0625 C3.64628906 13.98160156 3.73007813 14.90070313 3.81640625 15.84765625 C3.87699219 16.55792969 3.93757812 17.26820312 4 18 C3.34 18 2.68 18 2 18 C1.66048381 16.43883181 1.32867456 14.87598662 1 13.3125 C0.814375 12.44238281 0.62875 11.57226562 0.4375 10.67578125 C0.00858022 8.05247725 -0.07037568 5.6522833 0 3 C0 2.01 0 1.02 0 0 Z " fill="#B2D0DF" transform="translate(161,59)"/>
<path d="M0 0 C0.7425 0.2475 1.485 0.495 2.25 0.75 C2.25 1.74 2.25 2.73 2.25 3.75 C-1.71 5.73 -1.71 5.73 -5.75 7.75 C-6.08 6.43 -6.41 5.11 -6.75 3.75 C-4.62771652 0.72982736 -3.76812267 -0.34255661 0 0 Z " fill="#166587" transform="translate(106.75,51.25)"/>
<path d="M0 0 C1.05477539 -0.00580078 1.05477539 -0.00580078 2.13085938 -0.01171875 C5.90062512 -0.00465265 9.39843938 0.221533 13.0625 1.125 C13.0625 1.455 13.0625 1.785 13.0625 2.125 C10.97923869 2.15209444 8.89587559 2.17143873 6.8125 2.1875 C5.07226562 2.20490234 5.07226562 2.20490234 3.296875 2.22265625 C0.65272872 2.14282092 -1.43576091 1.91143778 -3.9375 1.125 C-3.9375 1.785 -3.9375 2.445 -3.9375 3.125 C-6.5775 3.125 -9.2175 3.125 -11.9375 3.125 C-11.9375 2.465 -11.9375 1.805 -11.9375 1.125 C-8.01918083 -0.157359 -4.07377762 -0.02228137 0 0 Z " fill="#78A8C2" transform="translate(204.9375,31.875)"/>
<path d="M0 0 C0.99 0.33 1.98 0.66 3 1 C2.67 2.98 2.34 4.96 2 7 C2.99 7 3.98 7 5 7 C5 6.34 5 5.68 5 5 C5.99 5.33 6.98 5.66 8 6 C6.8125 7.5 6.8125 7.5 5 9 C2.375 9.25 2.375 9.25 0 9 C-0.33 8.67 -0.66 8.34 -1 8 C-0.82364548 5.30917128 -0.38164079 2.67148554 0 0 Z " fill="#3A7994" transform="translate(42,158)"/>
<path d="M0 0 C0.66 0.33 1.32 0.66 2 1 C-0.90673575 5.22797927 -0.90673575 5.22797927 -3 7 C-6.8125 7.375 -6.8125 7.375 -10 7 C-10.33 7.66 -10.66 8.32 -11 9 C-11.66 8.34 -12.32 7.68 -13 7 C-10.88002166 5.80266012 -8.75486324 4.61701287 -6.625 3.4375 C-6.02171875 3.09525391 -5.4184375 2.75300781 -4.796875 2.40039062 C-3.23021759 1.53872905 -1.61709138 0.76281817 0 0 Z " fill="#679EBB" transform="translate(127,43)"/>
<path d="M0 0 C0.33 0 0.66 0 1 0 C1.33554306 3.60396454 1.66805474 7.20820245 2 10.8125 C2.14308594 12.34874023 2.14308594 12.34874023 2.2890625 13.91601562 C2.37929688 14.89892578 2.46953125 15.88183594 2.5625 16.89453125 C2.64628906 17.80050049 2.73007812 18.70646973 2.81640625 19.63989258 C3.20195148 24.59609704 3.20195148 24.59609704 2 27 C1.34 27 0.68 27 0 27 C0 18.09 0 9.18 0 0 Z " fill="#217399" transform="translate(49,128)"/>
<path d="M0 0 C1.65 0 3.3 0 5 0 C5.61528766 5.07612318 3.61658349 7.82982006 1 12 C-1.45 2.9 -1.45 2.9 0 0 Z " fill="#B9D5E6" transform="translate(217,35)"/>
<path d="M0 0 C1.32 0 2.64 0 4 0 C4.33 0.66 4.66 1.32 5 2 C9.20816079 4.16784041 13.35542174 4.52767001 18 5 C18.33 6.32 18.66 7.64 19 9 C17.35 9.33 15.7 9.66 14 10 C14.66 9.01 15.32 8.02 16 7 C15.34773438 6.90203125 14.69546875 6.8040625 14.0234375 6.703125 C8.38793499 5.73893873 4.45343338 4.63306407 0 1 C0 0.67 0 0.34 0 0 Z " fill="#44819B" transform="translate(33,113)"/>
<path d="M0 0 C0 1.32 0 2.64 0 4 C-2.31 4.33 -4.62 4.66 -7 5 C-7.66 4.01 -8.32 3.02 -9 2 C-5.5647952 -0.29013653 -4.014669 -0.17842973 0 0 Z " fill="#266A87" transform="translate(161,65)"/>
<path d="M0 0 C1.875 0.3125 1.875 0.3125 4 1 C4.66 1.99 5.32 2.98 6 4 C5.01 4.33 4.02 4.66 3 5 C3 4.34 3 3.68 3 3 C2.39671875 3.20496094 1.7934375 3.40992188 1.171875 3.62109375 C-0.02695313 4.02521484 -0.02695313 4.02521484 -1.25 4.4375 C-2.03890625 4.70433594 -2.8278125 4.97117187 -3.640625 5.24609375 C-5.74821988 5.91954708 -7.84753973 6.49150595 -10 7 C-9.34 5.35 -8.68 3.7 -8 2 C-7.67 2.66 -7.34 3.32 -7 4 C-6.1028125 3.505 -6.1028125 3.505 -5.1875 3 C-3 2 -3 2 0 2 C0 1.34 0 0.68 0 0 Z " fill="#1E6E93" transform="translate(119,41)"/>
<path d="M0 0 C3.63 0 7.26 0 11 0 C10.67 0.66 10.34 1.32 10 2 C14.95 2.33 19.9 2.66 25 3 C25 3.33 25 3.66 25 4 C18.73 4 12.46 4 6 4 C6 3.34 6 2.68 6 2 C3.03 1.505 3.03 1.505 0 1 C0 0.67 0 0.34 0 0 Z " fill="#246988" transform="translate(174,27)"/>
<path d="M0 0 C2 3 2 3 1.625 5.1875 C1.41875 5.785625 1.2125 6.38375 1 7 C0.01 7 -0.98 7 -2 7 C-2.33 7.99 -2.66 8.98 -3 10 C-3.66 10 -4.32 10 -5 10 C-5 10.66 -5 11.32 -5 12 C-5.66 11.67 -6.32 11.34 -7 11 C-4.69 7.37 -2.38 3.74 0 0 Z " fill="#6199B5" transform="translate(69,91)"/>
<path d="M0 0 C1.21236328 0.01353516 1.21236328 0.01353516 2.44921875 0.02734375 C3.37154297 0.04474609 3.37154297 0.04474609 4.3125 0.0625 C2.9925 0.3925 1.6725 0.7225 0.3125 1.0625 C0.3125 1.7225 0.3125 2.3825 0.3125 3.0625 C1.3025 3.3925 2.2925 3.7225 3.3125 4.0625 C-3.6175 3.5675 -3.6175 3.5675 -10.6875 3.0625 C-6.91890928 0.55010618 -4.42510751 -0.06413199 0 0 Z " fill="#2B6F8C" transform="translate(108.6875,118.9375)"/>
<path d="M0 0 C0.054348 2.0622048 0.09294961 4.12482816 0.125 6.1875 C0.14820313 7.33605469 0.17140625 8.48460938 0.1953125 9.66796875 C0.00484152 12.91740372 -0.60639873 15.08660521 -2 18 C-3.19126781 14.42619658 -2.7349445 12.49116698 -2.0625 8.8125 C-1.86785156 7.72582031 -1.67320312 6.63914062 -1.47265625 5.51953125 C-1.23869141 4.27236328 -1.23869141 4.27236328 -1 3 C-2.98 3.66 -4.96 4.32 -7 5 C-7 4.34 -7 3.68 -7 3 C-2.61538462 0 -2.61538462 0 0 0 Z " fill="#2A7BA1" transform="translate(174,100)"/>
<path d="M0 0 C2.31 0.33 4.62 0.66 7 1 C7 2.65 7 4.3 7 6 C5.02 6 3.04 6 1 6 C0.67 4.02 0.34 2.04 0 0 Z " fill="#4C86A1" transform="translate(193,37)"/>
<path d="M0 0 C4.68738665 0.90723613 9.34193744 1.9547267 14 3 C14.33 2.34 14.66 1.68 15 1 C15 1.99 15 2.98 15 4 C9.55106131 5.19876651 6.77830905 4.91360308 2 2 C2.33 2.99 2.66 3.98 3 5 C2.01 4.67 1.02 4.34 0 4 C0 2.68 0 1.36 0 0 Z " fill="#1C6F94" transform="translate(121,33)"/>
<path d="M0 0 C2.0625 0.4375 2.0625 0.4375 4 1 C3.34 1 2.68 1 2 1 C2 1.99 2 2.98 2 4 C2.99 4 3.98 4 5 4 C5 4.99 5 5.98 5 7 C6.32 7.33 7.64 7.66 9 8 C7 9 7 9 3.4375 7.875 C0 6 0 6 -1 3.375 C-1 1 -1 1 0 0 Z " fill="#2E708A" transform="translate(10,93)"/>
<path d="M0 0 C0.33 0 0.66 0 1 0 C1.37121212 6.55808081 1.37121212 6.55808081 -0.3125 8.5625 C-0.869375 9.036875 -1.42625 9.51125 -2 10 C-3.04622875 11.97620986 -4.05439935 13.9737129 -5 16 C-6.39211215 11.82366356 -4.9535579 10.21039485 -3.0625 6.3125 C-2.49660156 5.13300781 -1.93070312 3.95351563 -1.34765625 2.73828125 C-0.90292969 1.83464844 -0.45820312 0.93101563 0 0 Z " fill="#3F7E99" transform="translate(119,14)"/>
<path d="M0 0 C1.5 1.375 1.5 1.375 3 3 C3 3.66 3 4.32 3 5 C3.66 5.33 4.32 5.66 5 6 C3.02 6 1.04 6 -1 6 C-1.33 6.66 -1.66 7.32 -2 8 C-4 5 -4 5 -3.625 2.8125 C-3.41875 2.214375 -3.2125 1.61625 -3 1 C-2.34 1.33 -1.68 1.66 -1 2 C-0.67 1.34 -0.34 0.68 0 0 Z " fill="#266F8E" transform="translate(166,113)"/>
<path d="M0 0 C0.33 0.66 0.66 1.32 1 2 C2.65 1.67 4.3 1.34 6 1 C4.71480435 3.86697492 3.42870746 5.97607712 1 8 C0.34 8 -0.32 8 -1 8 C-1 6.68 -1 5.36 -1 4 C-1.66 3.67 -2.32 3.34 -3 3 C-2.01 2.01 -1.02 1.02 0 0 Z " fill="#397994" transform="translate(199,71)"/>
<path d="M0 0 C-1 3 -1 3 -4 5 C-6.6875 4.625 -6.6875 4.625 -9 4 C-9 3.34 -9 2.68 -9 2 C-5.5647952 -0.29013653 -4.014669 -0.17842973 0 0 Z " fill="#136081" transform="translate(118,60)"/>
<path d="M0 0 C0.33 0.66 0.66 1.32 1 2 C-2.3340947 4.19097652 -5.04179141 5.43454163 -9 6 C-8.01 4.68 -7.02 3.36 -6 2 C-6.33 1.34 -6.66 0.68 -7 0 C-3.88407501 -1.03864166 -2.9737344 -1.09036928 0 0 Z " fill="#2F718C" transform="translate(136,115)"/>
<path d="M0 0 C-5.93661416 2.41862058 -11.68878497 3.9007105 -18 5 C-15.36650377 1.63969657 -12.50736397 1.14127747 -8.4375 0.25 C-7.28121094 -0.01296875 -6.12492188 -0.2759375 -4.93359375 -0.546875 C-2 -1 -2 -1 0 0 Z " fill="#99C0D4" transform="translate(148,110)"/>
<path d="M0 0 C0.66 0.33 1.32 0.66 2 1 C1.67 2.65 1.34 4.3 1 6 C-0.65 6.33 -2.3 6.66 -4 7 C-4.33 6.01 -4.66 5.02 -5 4 C-3.73293765 1.46587529 -2.59334288 1.02161992 0 0 Z " fill="#BBD3E1" transform="translate(110,83)"/>
<path d="M0 0 C0.99 0.33 1.98 0.66 3 1 C2.34 5.29 1.68 9.58 1 14 C-1.18841354 10.71737969 -1.24854665 9.68209102 -1.1875 5.875 C-1.18105469 4.98554687 -1.17460937 4.09609375 -1.16796875 3.1796875 C-1 1 -1 1 0 0 Z " fill="#9CC2D6" transform="translate(178,53)"/>
<path d="M0 0 C0.66 0.33 1.32 0.66 2 1 C1.01 3.31 0.02 5.62 -1 8 C-1.99 7.67 -2.98 7.34 -4 7 C-3.34 7 -2.68 7 -2 7 C-2 6.34 -2 5.68 -2 5 C-4.31 5.33 -6.62 5.66 -9 6 C-7.38371879 2.76743757 -4.23006285 2.32663296 -1 1 C-0.67 0.67 -0.34 0.34 0 0 Z " fill="#347694" transform="translate(160,102)"/>
<path d="M0 0 C6.16529701 0.31616908 10.17268433 3.49215061 15 7 C11.98968256 7.93423645 11.13349732 8.04449911 8 7 C8 6.01 8 5.02 8 4 C7.05125 3.71125 6.1025 3.4225 5.125 3.125 C2 2 2 2 0 0 Z " fill="#367792" transform="translate(37,95)"/>
<path d="M0 0 C-0.33 0.99 -0.66 1.98 -1 3 C-3.0625 3.6875 -3.0625 3.6875 -5 4 C-5 3.01 -5 2.02 -5 1 C-7.97 1 -10.94 1 -14 1 C-14 0.67 -14 0.34 -14 0 C-4.58997722 -1.33257403 -4.58997722 -1.33257403 0 0 Z " fill="#2C6E8A" transform="translate(165,79)"/>
<path d="M0 0 C-3.03525486 2.02350324 -4.19426202 2.32124018 -7.6875 2.625 C-8.49574219 2.69976562 -9.30398437 2.77453125 -10.13671875 2.8515625 C-10.75160156 2.90054688 -11.36648437 2.94953125 -12 3 C-12.33 2.01 -12.66 1.02 -13 0 C-8.34462607 -0.83796731 -4.62921525 -1.0161692 0 0 Z " fill="#80AFCA" transform="translate(176,34)"/>
<path d="M0 0 C-0.66 0.66 -1.32 1.32 -2 2 C-1.67 2.66 -1.34 3.32 -1 4 C-2.32 4.33 -3.64 4.66 -5 5 C-5 4.01 -5 3.02 -5 2 C-7.31 2.33 -9.62 2.66 -12 3 C-4.82142857 -1.78571429 -4.82142857 -1.78571429 0 0 Z " fill="#29708F" transform="translate(151,44)"/>
<path d="M0 0 C1.32 0.33 2.64 0.66 4 1 C3.60196439 3.88575819 3.20990931 4.82189513 0.9375 6.75 C0.298125 7.1625 -0.34125 7.575 -1 8 C-1.625 5.6875 -1.625 5.6875 -2 3 C-1.34 2.01 -0.68 1.02 0 0 Z " fill="#1B6584" transform="translate(218,45)"/>
<path d="M0 0 C0.99 0 1.98 0 3 0 C3.1953125 6.0546875 3.1953125 6.0546875 3 8 C2.34 8.66 1.68 9.32 1 10 C0.34 9.67 -0.32 9.34 -1 9 C-0.67 6.03 -0.34 3.06 0 0 Z " fill="#165C77" transform="translate(223,32)"/>
<path d="M0 0 C0.99 0.33 1.98 0.66 3 1 C3 3.33333333 3 5.66666667 3 8 C0.36 6.02 -2.28 4.04 -5 2 C-4.01 2 -3.02 2 -2 2 C-1.34 1.34 -0.68 0.68 0 0 Z " fill="#2D7290" transform="translate(30,104)"/>
<path d="M0 0 C4.455 0.99 4.455 0.99 9 2 C8.67 2.99 8.34 3.98 8 5 C5.69 4.67 3.38 4.34 1 4 C0.67 2.68 0.34 1.36 0 0 Z " fill="#115E7D" transform="translate(184,74)"/>
<path d="M0 0 C0 0.99 0 1.98 0 3 C-2.90600261 4.25664978 -4.79604584 5 -8 5 C-8 3.68 -8 2.36 -8 1 C-2.25 0 -2.25 0 0 0 Z " fill="#125F7E" transform="translate(143,71)"/>
<path d="M0 0 C1 3 1 3 0.25 5.125 C-1 7 -1 7 -4 8 C-4 5.69 -4 3.38 -4 1 C-2.68 0.67 -1.36 0.34 0 0 Z " fill="#3684AA" transform="translate(95,125)"/>
<path d="M0 0 C1.32 0.66 2.64 1.32 4 2 C2.35 3.65 0.7 5.3 -1 7 C-1.99 6.67 -2.98 6.34 -4 6 C-3.67 5.01 -3.34 4.02 -3 3 C-2.34 2.67 -1.68 2.34 -1 2 C-0.67 1.34 -0.34 0.68 0 0 Z " fill="#88B0C9" transform="translate(109,54)"/>
<path d="M0 0 C2.97 0 5.94 0 9 0 C9 0.99 9 1.98 9 3 C6.1875 3.6875 6.1875 3.6875 3 4 C1.125 2.625 1.125 2.625 0 1 C0 0.67 0 0.34 0 0 Z " fill="#417D95" transform="translate(165,121)"/>
<path d="M0 0 C0.12375 0.61875 0.2475 1.2375 0.375 1.875 C0.87197356 4.19120832 0.87197356 4.19120832 3 6 C2.01 7.32 1.02 8.64 0 10 C0 8.68 0 7.36 0 6 C-1.32 6.33 -2.64 6.66 -4 7 C-1.125 1.125 -1.125 1.125 0 0 Z " fill="#327692" transform="translate(62,92)"/>
<path d="M0 0 C2 1 2 1 3 3 C2.67 3.99 2.34 4.98 2 6 C1.34 5.67 0.68 5.34 0 5 C-0.99 5 -1.98 5 -3 5 C-4.66666667 5 -6.33333333 5 -8 5 C-5.45378681 2.99940392 -3.01962385 1.20784954 0 0 Z " fill="#9FC0D3" transform="translate(159,59)"/>
<path d="M0 0 C-1.98 0.99 -1.98 0.99 -4 2 C-3.34 2.66 -2.68 3.32 -2 4 C-5.57644848 5.2380014 -8.33694766 4.74926071 -12 4 C-8.71298741 1.21868166 -4.24676932 -2.12338466 0 0 Z " fill="#649AB7" transform="translate(152,48)"/>
<path d="M0 0 C0.66 0 1.32 0 2 0 C0.77946141 3.66161578 -0.36782304 4.16270474 -3.5625 6.1875 C-4.38878906 6.71730469 -5.21507812 7.24710937 -6.06640625 7.79296875 C-6.70449219 8.19128906 -7.34257812 8.58960937 -8 9 C-8.33 8.01 -8.66 7.02 -9 6 C-2.25 2 -2.25 2 0 2 C0 1.34 0 0.68 0 0 Z " fill="#B5D6E8" transform="translate(183,84)"/>
<path d="M0 0 C0 2.83967231 -0.40267181 5.23735711 -1 8 C-2.65 8.33 -4.3 8.66 -6 9 C-4.47291037 5.56404834 -2.40072955 2.88087546 0 0 Z " fill="#115B78" transform="translate(75,78)"/>
<path d="M0 0 C0.99 0.33 1.98 0.66 3 1 C2.67 2.32 2.34 3.64 2 5 C1.01 5 0.02 5 -1 5 C-1 5.66 -1 6.32 -1 7 C-1.99 7 -2.98 7 -4 7 C-3.67 6.01 -3.34 5.02 -3 4 C-2.34 4 -1.68 4 -1 4 C-0.67 2.68 -0.34 1.36 0 0 Z " fill="#155F7B" transform="translate(48,158)"/>
<path d="M0 0 C4.67692308 1.47692308 4.67692308 1.47692308 6.3125 4.125 C6.539375 4.74375 6.76625 5.3625 7 6 C2.25 5.25 2.25 5.25 0 3 C0 2.01 0 1.02 0 0 Z " fill="#B7D4E5" transform="translate(181,67)"/>
<path d="M0 0 C2.64 0 5.28 0 8 0 C7.21625 0.598125 6.4325 1.19625 5.625 1.8125 C2.85425677 3.91085249 2.85425677 3.91085249 1 7 C0.67 4.69 0.34 2.38 0 0 Z " fill="#105B79" transform="translate(63,57)"/>
<path d="M0 0 C0.99 0 1.98 0 3 0 C2.67 1.32 2.34 2.64 2 4 C-4.15234375 3.4140625 -4.15234375 3.4140625 -6 3 C-6.33 2.34 -6.66 1.68 -7 1 C-4.69 1.33 -2.38 1.66 0 2 C0 1.34 0 0.68 0 0 Z " fill="#74A5BC" transform="translate(147,74)"/>
<path d="M0 0 C0.66 0.33 1.32 0.66 2 1 C1.01 2.485 1.01 2.485 0 4 C0.66 4.33 1.32 4.66 2 5 C0.02 5.99 0.02 5.99 -2 7 C-1.67 6.01 -1.34 5.02 -1 4 C-2.32 3.67 -3.64 3.34 -5 3 C-2.625 1.4375 -2.625 1.4375 0 0 Z " fill="#2C7191" transform="translate(119,56)"/>
<path d="M0 0 C2.09749995 2.35968744 2.96905704 3.54616994 3.1875 6.75 C3.0946875 7.86375 3.0946875 7.86375 3 9 C3.66 9.33 4.32 9.66 5 10 C4.01 10.33 3.02 10.66 2 11 C-0.32590854 7.36576791 -0.16265833 4.22911669 0 0 Z " fill="#227092" transform="translate(90,128)"/>
<path d="M0 0 C0.33 0.99 0.66 1.98 1 3 C1.99 3 2.98 3 4 3 C4 3.66 4 4.32 4 5 C1 7 1 7 -2 7 C-1.125 1.125 -1.125 1.125 0 0 Z " fill="#266C8A" transform="translate(72,91)"/>
<path d="M0 0 C0.66 0.33 1.32 0.66 2 1 C1.3125 2.9375 1.3125 2.9375 0 5 C-2.625 5.75 -2.625 5.75 -5 6 C-5 5.34 -5 4.68 -5 4 C-3.37373596 2.61767557 -1.7074998 1.28062485 0 0 Z " fill="#81AFC9" transform="translate(89,71)"/>
<path d="M0 0 C1.32 1.32 2.64 2.64 4 4 C3.34 5.32 2.68 6.64 2 8 C0.68 7.34 -0.64 6.68 -2 6 C-1.34 4.02 -0.68 2.04 0 0 Z " fill="#31728F" transform="translate(179,67)"/>
<path d="M0 0 C-0.99 0.33 -1.98 0.66 -3 1 C-3.33 1.66 -3.66 2.32 -4 3 C-6.31 2.67 -8.62 2.34 -11 2 C-7.00042393 -0.06874624 -4.43559483 -1.37656391 0 0 Z " fill="#3E7B96" transform="translate(127,117)"/>
<path d="M0 0 C1.42944945 2.35438733 2.08661261 3.48032433 1.625 6.25 C1.41875 6.8275 1.2125 7.405 1 8 C0.67 7.34 0.34 6.68 0 6 C-0.99 5.67 -1.98 5.34 -3 5 C-2.01 3.35 -1.02 1.7 0 0 Z " fill="#266D8B" transform="translate(206,63)"/>
<path d="M0 0 C0 0.99 0 1.98 0 3 C-1.98 3.66 -3.96 4.32 -6 5 C-5.625 3.0625 -5.625 3.0625 -5 1 C-3 0 -3 0 0 0 Z " fill="#0F5D7F" transform="translate(146,46)"/>
<path d="M0 0 C0.33 0.99 0.66 1.98 1 3 C2.98 2.34 4.96 1.68 7 1 C7 1.66 7 2.32 7 3 C7.66 3.33 8.32 3.66 9 4 C5.52176885 5.15941038 3.54104422 4.70820884 0 4 C0 2.68 0 1.36 0 0 Z " fill="#136387" transform="translate(108,45)"/>
<path d="M0 0 C-0.33 1.32 -0.66 2.64 -1 4 C-5.875 2.25 -5.875 2.25 -7 0 C-3.86650268 -1.04449911 -3.01031744 -0.93423645 0 0 Z " fill="#115D7A" transform="translate(31,103)"/>
<path d="M0 0 C2.125 0.9375 2.125 0.9375 4 2 C4 2.66 4 3.32 4 4 C2.35 4.66 0.7 5.32 -1 6 C-1.33 4.35 -1.66 2.7 -2 1 C-1.34 0.67 -0.68 0.34 0 0 Z " fill="#91B3CB" transform="translate(90,91)"/>
<path d="M0 0 C0.66 0.33 1.32 0.66 2 1 C1.01 2.485 1.01 2.485 0 4 C-0.66 4 -1.32 4 -2 4 C-2.33 4.66 -2.66 5.32 -3 6 C-3.99 6 -4.98 6 -6 6 C-6 5.34 -6 4.68 -6 4 C-4.03852126 2.61061923 -2.03833424 1.2739589 0 0 Z " fill="#669DBA" transform="translate(96,76)"/>
<path d="M0 0 C0.33 0.99 0.66 1.98 1 3 C-2.3 2.34 -5.6 1.68 -9 1 C-4.82091936 -1.08954032 -4.19589427 -1.16552619 0 0 Z " fill="#16698D" transform="translate(80,61)"/>
<path d="M0 0 C-6.4 4.06153846 -6.4 4.06153846 -9.4375 3.75 C-9.953125 3.5025 -10.46875 3.255 -11 3 C-4.33333333 -1.44444444 -4.33333333 -1.44444444 0 0 Z " fill="#639AB7" transform="translate(147,38)"/>
<path d="M0 0 C4.8 2.46153846 4.8 2.46153846 5.8125 5.1875 C5.874375 5.785625 5.93625 6.38375 6 7 C4.125 6.875 4.125 6.875 2 6 C0.75 2.9375 0.75 2.9375 0 0 Z " fill="#35758F" transform="translate(142,19)"/>
<path d="M0 0 C-1.28965176 1.37562854 -2.62689293 2.70766393 -4 4 C-4.66 4 -5.32 4 -6 4 C-6 2.68 -6 1.36 -6 0 C-3.50907189 -1.24546405 -2.58919267 -0.7767578 0 0 Z " fill="#125D79" transform="translate(53,123)"/>
<path d="M0 0 C0 0.99 0 1.98 0 3 C-2.64 3 -5.28 3 -8 3 C-8 2.34 -8 1.68 -8 1 C-2.25 0 -2.25 0 0 0 Z " fill="#0C6084" transform="translate(160,80)"/>
<path d="M0 0 C2.97 0.495 2.97 0.495 6 1 C6.33 2.65 6.66 4.3 7 6 C3.63279613 4.60667426 2.0140476 3.0210714 0 0 Z " fill="#0E5C7B" transform="translate(65,65)"/>
<path d="M0 0 C-0.8125 1.9375 -0.8125 1.9375 -2 4 C-2.99 4.33 -3.98 4.66 -5 5 C-5.66 4.34 -6.32 3.68 -7 3 C-2.25 0 -2.25 0 0 0 Z " fill="#6CA0BD" transform="translate(127,58)"/>
<path d="M0 0 C0 1.65 0 3.3 0 5 C-0.66 4.67 -1.32 4.34 -2 4 C-2 3.34 -2 2.68 -2 2 C-4.31 2.66 -6.62 3.32 -9 4 C-8 2 -8 2 -5.0625 0.875 C-2 0 -2 0 0 0 Z " fill="#A4C5D7" transform="translate(172,55)"/>
<path d="M0 0 C2 3 2 3 3 6 C1.35 6.33 -0.3 6.66 -2 7 C-2 6.01 -2 5.02 -2 4 C-1.34 4 -0.68 4 0 4 C-0.33 3.01 -0.66 2.02 -1 1 C-0.67 0.67 -0.34 0.34 0 0 Z " fill="#0F6487" transform="translate(147,28)"/>
<path d="M0 0 C1 2 1 2 0.22265625 4.3828125 C-0.16019531 5.28773437 -0.54304688 6.19265625 -0.9375 7.125 C-1.31777344 8.03507812 -1.69804688 8.94515625 -2.08984375 9.8828125 C-2.39019531 10.58148438 -2.69054687 11.28015625 -3 12 C-3.33 12 -3.66 12 -4 12 C-4.61528766 6.92387682 -2.61658349 4.17017994 0 0 Z " fill="#176B90" transform="translate(120,23)"/>
<path d="M0 0 C2.875 -0.1875 2.875 -0.1875 6 0 C6.66 0.99 7.32 1.98 8 3 C5.69 3 3.38 3 1 3 C0.67 2.01 0.34 1.02 0 0 Z " fill="#0F5C7A" transform="translate(63,120)"/>
<path d="M0 0 C1.32 0.66 2.64 1.32 4 2 C3.34 2 2.68 2 2 2 C1.731875 2.639375 1.46375 3.27875 1.1875 3.9375 C0 6 0 6 -3 7 C-3 6.01 -3 5.02 -3 4 C-2.01 3.34 -1.02 2.68 0 2 C0 1.34 0 0.68 0 0 Z " fill="#175E79" transform="translate(181,89)"/>
<path d="M0 0 C2.125 0.375 2.125 0.375 4 1 C2.68 2.32 1.36 3.64 0 5 C-0.66 4.01 -1.32 3.02 -2 2 C-1.34 1.34 -0.68 0.68 0 0 Z " fill="#0E6082" transform="translate(92,74)"/>
<path d="M0 0 C0 0.66 0 1.32 0 2 C-2.97 2.66 -5.94 3.32 -9 4 C-7 1 -7 1 -4.5 0.3125 C-2 0 -2 0 0 0 Z " fill="#79A9C0" transform="translate(153,65)"/>
</svg>
