<?xml version="1.0" encoding="UTF-8"?>
<svg version="1.1" xmlns="http://www.w3.org/2000/svg" width="206" height="144">
<path d="M0 0 C2.875 2.125 2.875 2.125 5 5 C5.2165625 6.794375 5.2165625 6.794375 5.4375 8.625 C5.623125 9.73875 5.80875 10.8525 6 12 C8.88349928 13.81680116 8.88349928 13.81680116 12 15 C14.83484878 19.25227317 14.62868576 23.01133771 14 28 C12.5625 30.625 12.5625 30.625 10 32 C5.00470414 32.69659172 1.46811966 32.29469193 -3 30 C-6.59436764 30.36865309 -9.69265585 31.58256679 -13 33 C-11.01804476 37.69410451 -9.51882167 39.6960374 -5 42 C-2.95373533 42.65705746 -0.88905934 43.25858222 1.1875 43.8125 C7.33293165 45.62533234 12.93742156 48.00022019 18 52 C18 52.66 18 53.32 18 54 C22.49182639 51.64713856 24.51870388 49.45057875 27 45 C29.45233323 40.71000104 31.27170319 37.94694575 36 36 C39.91803793 35.81150333 43.5052734 35.89578756 46.734375 38.28125 C48.31129238 40.42274274 48.42460694 41.79973913 48.5625 44.4375 C48.80670376 48.81096737 49.79930603 51.5337963 52.58984375 54.94140625 C54.76257711 58.11323584 54.60173856 60.83064571 54.46875 64.58203125 C54 67 54 67 51.5625 70.125 C48.22757886 72.34039679 45.10880502 72.64334447 41.16796875 72.4453125 C37.94057139 71.78238764 35.68388193 69.84889644 33 68 C29.88720906 68.17958409 27.77427703 68.61286148 25 70 C24.03245822 74.11655974 23.94222927 77.97802442 24.0625 82.1875 C24.11664355 94.08554405 22.07906005 103.77755202 13.8125 112.6875 C-3.98278967 129.01862027 -33.07439901 132.88745355 -56.421875 132.22265625 C-82.4842696 131.098108 -117.11212869 129.03827129 -137.08203125 110.1640625 C-141.93966855 104.68314384 -143.73665159 98.76261323 -143.375 91.484375 C-142.48121372 85.56304089 -140.39906466 80.7629346 -135.75 76.875 C-132.40471025 74.57158285 -128.93078791 73.13213597 -125.17871094 71.65283203 C-117.40178397 68.56467068 -112.9338574 65.61632465 -107.9453125 58.6171875 C-106.08497446 56.11432307 -104.33544457 54.50541581 -101.875 52.625 C-98.31639833 49.71214064 -96.61158076 46.66537205 -94.5625 42.5625 C-88.27444185 30.1571002 -76.55802054 23.12819879 -63.62890625 18.8125 C-62.76136719 18.544375 -61.89382812 18.27625 -61 18 C-60.30777344 17.773125 -59.61554688 17.54625 -58.90234375 17.3125 C-47.57019409 14.16831975 -34.98249779 15.23512953 -24 19 C-22.67006511 19.34664402 -21.3377134 19.68470371 -20 20 C-17.79148928 16.88800762 -16.77559009 14.26585897 -16.125 10.5625 C-15.17493282 5.78022907 -13.47959092 3.39472285 -10 0 C-6.1544104 -1.2818632 -3.93271581 -0.94927623 0 0 Z " fill="#E17F81" transform="translate(150,4)"/>
<path d="M0 0 C0 0.66 0 1.32 0 2 C1.32 2 2.64 2 4 2 C4 2.66 4 3.32 4 4 C4.78375 4.12375 5.5675 4.2475 6.375 4.375 C9 5 9 5 11 7 C11 7.99 11 8.98 11 10 C11.66 10 12.32 10 13 10 C15.2271765 15.28954419 16.07722158 20.35471098 15 26 C13.04005486 29.95747827 10.59371387 33.43627932 8 37 C7.10087891 38.485 7.10087891 38.485 6.18359375 40 C3.61642404 43.52698808 0.82527127 45.72920732 -2.6875 48.25 C-6.94742225 51.07258859 -6.94742225 51.07258859 -10 55 C-20.9502246 60.15304687 -32.81453438 63.65779009 -45 62 C-50.75981513 59.87690535 -56.32023163 57.01909519 -61 53 C-61 52.34 -61 51.68 -61 51 C-61.66 51 -62.32 51 -63 51 C-66.81290628 47.35501964 -68.80810647 43.53677449 -69.4609375 38.30859375 C-69.5798816 26.33092317 -67.23435386 17.52244785 -58.88671875 8.7890625 C-42.46474945 -6.47003851 -20.39804114 -6.39938546 0 0 Z " fill="#F8CEC7" transform="translate(154,54)"/>
<path d="M0 0 C0.92425781 0.03480469 1.84851563 0.06960937 2.80078125 0.10546875 C9.10543871 0.46825619 14.27222967 2.44897624 20 5 C21.66424791 5.67268202 23.33029372 6.34098319 25 7 C25 7.66 25 8.32 25 9 C23.94683594 9.07476562 22.89367187 9.14953125 21.80859375 9.2265625 C12.39320602 10.03688975 4.50920274 11.90174792 -4.12109375 15.7578125 C-7 17 -7 17 -9 17 C-9.226875 17.5775 -9.45375 18.155 -9.6875 18.75 C-11 21 -11 21 -13.3125 22.8125 C-20.90077354 28.98900172 -24.36515321 37.82787848 -25.3515625 47.41796875 C-25.55815042 55.57819176 -24.47575208 60.49268455 -19.75 67.1875 C-18 70 -18 70 -18.25 72.375 C-18.4975 72.91125 -18.745 73.4475 -19 74 C-19.66 74.12375 -20.32 74.2475 -21 74.375 C-23.19540037 74.83237508 -25.3729658 75.37775523 -27.53515625 75.97265625 C-32.45677331 77.21179078 -37.39058374 77.63854429 -42.4375 78.0625 C-44.22821123 78.21606205 -46.01860392 78.37340213 -47.80859375 78.53515625 C-48.98119751 78.63389038 -48.98119751 78.63389038 -50.17749023 78.73461914 C-52.01619255 78.81691316 -52.01619255 78.81691316 -53 80 C-57.00983427 80.17704034 -61.01437909 80.07231977 -65.02612305 79.9777832 C-67.02945226 79.93815374 -69.03339041 79.93459451 -71.03710938 79.93164062 C-78.1600848 79.76281569 -83.11055504 79.37702641 -88.57983398 74.5847168 C-93.3757376 69.23312484 -93.460879 63.74003131 -93.3046875 56.82421875 C-92.91346824 53.19791712 -92.00731928 51.01097892 -90 48 C-92.475 48.495 -92.475 48.495 -95 49 C-94.34 47.68 -93.68 46.36 -93 45 C-92.01 45 -91.02 45 -90 45 C-90.33 45.66 -90.66 46.32 -91 47 C-88.28753105 46.26298171 -85.58074863 45.5109918 -82.875 44.75 C-82.11445312 44.54503906 -81.35390625 44.34007812 -80.5703125 44.12890625 C-69.16270575 40.88363881 -62.34782923 33.15238141 -55.578125 23.8203125 C-54 22 -54 22 -51 21 C-51 20.34 -51 19.68 -51 19 C-49.02 18.67 -47.04 18.34 -45 18 C-45 19.32 -45 20.64 -45 22 C-43.68 22.33 -42.36 22.66 -41 23 C-41 21.35 -41 19.7 -41 18 C-41.99 18 -42.98 18 -44 18 C-43.29273154 13.75638926 -41.87879871 11.49938535 -38.5 9 C-26.57381428 1.75225369 -13.81265662 -1.08493317 0 0 Z " fill="#F8D2CB" transform="translate(106,37)"/>
<path d="M0 0 C-0.33 0.7425 -0.66 1.485 -1 2.25 C-2.67474643 8.53029912 -3.15092982 15.70710494 -0.9375 21.9375 C1.49566496 25.78347041 3.85425996 28.18088686 8 30 C12.94839597 30.77188333 17.87735232 30.83618332 22.875 30.875 C24.23182135 30.90676505 25.58859588 30.94060134 26.9453125 30.9765625 C31.97344471 31.08595659 31.97344471 31.08595659 37 31 C37.495 30.505 37.495 30.505 38 30 C39.36793039 29.80940356 40.74405896 29.67678203 42.12109375 29.5703125 C42.97002197 29.4986084 43.8189502 29.4269043 44.69360352 29.35302734 C45.59908936 29.27777832 46.5045752 29.2025293 47.4375 29.125 C53.94936365 28.54122936 60.04066224 27.84409806 66.22265625 25.5859375 C68 25 68 25 71 25 C71.66 24.34 72.32 23.68 73 23 C73 23.66 73 24.32 73 25 C73.66 25 74.32 25 75 25 C75 25.66 75 26.32 75 27 C78.08849696 28.62437458 81.21917274 29.87725609 84.5 31.0625 C85.4384375 31.40410156 86.376875 31.74570313 87.34375 32.09765625 C98.21266468 35.7898905 110.23153649 34.67633029 121 31 C123.20132851 29.83329589 125.19106068 28.56843986 127.21875 27.125 C129.1139765 25.92801484 130.70061847 25.43653838 132.875 24.9375 C136.06929966 24.36155599 136.06929966 24.36155599 137.125 22.125 C137.41375 21.42375 137.7025 20.7225 138 20 C139.66666667 18.66666667 141.33333333 17.33333333 143 16 C144.86835535 13.94239313 146.66576407 11.83847709 148.44921875 9.70703125 C150 8 150 8 152 7 C152.45264672 13.33705402 151.77753979 17.77993814 148 23 C145.47984971 25.53457863 142.82147068 27.80856647 140 30 C140.33 30.66 140.66 31.32 141 32 C146.01113235 30.5682479 147.94469549 28.01554307 151 24 C151.33 24.99 151.66 25.98 152 27 C135.99027279 44.61964391 111.71047097 49.72189789 88.67382812 51.14355469 C60.71744642 52.36801026 21.60892271 49.65256235 -0.875 31.25 C-6.48201664 25.95062498 -9.13285603 20.60827013 -9.4375 12.875 C-9.24451302 8.29334614 -8.21543212 5.00481959 -6 1 C-4 0 -4 0 0 0 Z " fill="#F6BBB4" transform="translate(16,85)"/>
<path d="M0 0 C2.875 2.125 2.875 2.125 5 5 C5.2165625 6.794375 5.2165625 6.794375 5.4375 8.625 C5.623125 9.73875 5.80875 10.8525 6 12 C8.88349928 13.81680116 8.88349928 13.81680116 12 15 C14.83484878 19.25227317 14.62868576 23.01133771 14 28 C12.5625 30.625 12.5625 30.625 10 32 C5.00470414 32.69659172 1.46811966 32.29469193 -3 30 C-6.59436764 30.36865309 -9.69265585 31.58256679 -13 33 C-11.01804476 37.69410451 -9.51882167 39.6960374 -5 42 C-2.95373533 42.65705746 -0.88905934 43.25858222 1.1875 43.8125 C7.46940544 45.65128098 12.59910681 48.34251025 18 52 C17.505 52.99 17.505 52.99 17 54 C14 53 14 53 12.6875 51.625 C8.13910885 47.24506778 3.30886692 46.62889832 -2.73046875 46.40625 C-5.46533502 45.91670423 -6.20754453 45.05439022 -8 43 C-8.86625 42.505 -9.7325 42.01 -10.625 41.5 C-13 40 -13 40 -14 37 C-14.03954234 34.66700175 -14.04401732 32.33291811 -14 30 C-15.32 30 -16.64 30 -18 30 C-18 31.65 -18 33.3 -18 35 C-21.71792998 34.10546046 -25.38627151 33.05145547 -29.0625 32 C-30.90521484 31.4740625 -30.90521484 31.4740625 -32.78515625 30.9375 C-34.86833763 30.3300109 -36.94140366 29.68619878 -39 29 C-53.06096004 28.30662697 -66.65252282 29.2324077 -78.9375 36.8125 C-79.9584375 37.4003125 -79.9584375 37.4003125 -81 38 C-81.99 37.67 -82.98 37.34 -84 37 C-82.37660195 35.29115995 -80.70680947 33.62553283 -79 32 C-78.34 32 -77.68 32 -77 32 C-77 31.34 -77 30.68 -77 30 C-74.94175571 29.15621025 -72.87820214 28.32536378 -70.8125 27.5 C-69.08966797 26.80390625 -69.08966797 26.80390625 -67.33203125 26.09375 C-64.28009923 25.09194348 -62.16884928 24.76129196 -59 25 C-58.67 24.01 -58.34 23.02 -58 22 C-59.89600369 22.31146472 -61.79179587 22.62421717 -63.6875 22.9375 C-65.27111328 23.19853516 -65.27111328 23.19853516 -66.88671875 23.46484375 C-69.60249604 23.93167121 -72.30124235 24.44422616 -75 25 C-71.33302768 20.73805535 -66.20269193 19.6611856 -61 18 C-60.29875 17.76925781 -59.5975 17.53851562 -58.875 17.30078125 C-47.54120202 14.17955954 -34.98072848 15.23573606 -24 19 C-22.67006511 19.34664402 -21.3377134 19.68470371 -20 20 C-17.79148928 16.88800762 -16.77559009 14.26585897 -16.125 10.5625 C-15.17493282 5.78022907 -13.47959092 3.39472285 -10 0 C-6.1544104 -1.2818632 -3.93271581 -0.94927623 0 0 Z " fill="#E49396" transform="translate(150,4)"/>
<path d="M0 0 C0 0.33 0 0.66 0 1 C-1.65 1 -3.3 1 -5 1 C-5 1.66 -5 2.32 -5 3 C-5.74765625 3.19335938 -6.4953125 3.38671875 -7.265625 3.5859375 C-8.25046875 3.84632812 -9.2353125 4.10671875 -10.25 4.375 C-11.71179688 4.75785156 -11.71179688 4.75785156 -13.203125 5.1484375 C-15.95370542 5.89780598 -15.95370542 5.89780598 -18.171875 7.1015625 C-20 8 -20 8 -23 8 C-23 8.66 -23 9.32 -23 10 C-24.95927063 11.7143618 -26.95880212 13.38405168 -29 15 C-25.38005813 13.88617173 -21.94444011 12.56194577 -18.5 11 C-4.54822094 4.72403249 10.69403784 3.85611723 25.13671875 8.91015625 C26.08160156 9.26980469 27.02648437 9.62945312 28 10 C28.85207031 10.30808594 29.70414062 10.61617187 30.58203125 10.93359375 C32.39714818 11.59797105 34.20053532 12.29432758 36 13 C35.505 10.03 35.505 10.03 35 7 C36.65 7.33 38.3 7.66 40 8 C40.495 12.95 40.495 12.95 41 18 C41.7425 18.268125 42.485 18.53625 43.25 18.8125 C46 20 46 20 47.875 21.5625 C50.79801642 23.53983464 53.53519775 23.66684594 57 24 C57 24.33 57 24.66 57 25 C46.28907291 25.15498126 35.68514555 24.67842194 25 24 C24.505 23.01 24.505 23.01 24 22 C25.299375 22.061875 25.299375 22.061875 26.625 22.125 C30.12358468 21.99542279 32.74551597 21.23980344 36 20 C32.93909807 17.95939871 30.3655313 17.04353582 26.875 15.9375 C21.10369069 14.10369069 21.10369069 14.10369069 20 13 C16.69424735 12.40496452 13.3479869 12.2265555 10 12 C8.88882813 11.90976562 7.77765625 11.81953125 6.6328125 11.7265625 C-6.58347322 11.12969798 -19.50695933 14.90654954 -30.46875 22.41015625 C-32.3918307 24.40682422 -33.12132524 26.39472933 -34 29 C-33.01 29 -32.02 29 -31 29 C-31 30.65 -31 32.3 -31 34 C-32.65 33.67 -34.3 33.34 -36 33 C-36.33 32.01 -36.66 31.02 -37 30 C-38.32 30 -39.64 30 -41 30 C-41 30.66 -41 31.32 -41 32 C-41.680625 32.515625 -42.36125 33.03125 -43.0625 33.5625 C-45.67420302 35.72965783 -47.35502419 37.6313583 -49.375 40.3125 C-57.48120197 50.98595899 -64.78785025 55.31181369 -78 58 C-78.99 58 -79.98 58 -81 58 C-80.53515625 55.7265625 -80.53515625 55.7265625 -79 53 C-76.2902605 51.43630131 -73.36729145 50.45456637 -70.4375 49.375 C-62.96909767 46.36662822 -58.58013738 43.29971762 -53.875 36.58203125 C-52.05034185 34.06932492 -50.32656192 32.49617321 -47.875 30.625 C-44.31639833 27.71214064 -42.61158076 24.66537205 -40.5625 20.5625 C-36.15804428 11.80398279 -29.25403845 5.08467948 -19.8125 1.9375 C-5.76440678 -1.51694915 -5.76440678 -1.51694915 0 0 Z " fill="#DF7C7F" transform="translate(96,26)"/>
<path d="M0 0 C-0.33 0.7425 -0.66 1.485 -1 2.25 C-2.75491553 8.83093322 -2.66141321 15.26615874 -1.0625 21.875 C4.1198617 29.72706318 13.51153324 32.81548015 22 36 C22.92425781 36.3609375 23.84851562 36.721875 24.80078125 37.09375 C30.7134892 39.2527471 36.62521279 40.62527645 42.8125 41.6875 C43.49844238 41.80689941 44.18438477 41.92629883 44.89111328 42.04931641 C57.26311314 44.01055795 69.87332559 44.22021545 82.375 44.25 C83.04577576 44.25167175 83.71655151 44.25334351 84.40765381 44.25506592 C96.73597091 44.25689869 108.44492836 43.6297449 120 39 C122.66572015 38.50686503 125.29815717 38.27476368 128 38 C128 37.34 128 36.68 128 36 C131.87684087 34.80712589 134.91621923 34 139 34 C137.99382318 36.67576692 137.45785454 37.7785108 134.8359375 39.046875 C133.61777344 39.39492187 133.61777344 39.39492187 132.375 39.75 C131.55773437 39.99234375 130.74046875 40.2346875 129.8984375 40.484375 C129.27195313 40.65453125 128.64546875 40.8246875 128 41 C128 41.66 128 42.32 128 43 C90.01253365 54.77966065 45.39080405 54.49429113 8.5625 37.6875 C1.11809322 33.65772837 -5.37319519 28.44975591 -8.4140625 20.359375 C-10.16018221 13.32833297 -9.49066681 7.31005154 -6 1 C-4 0 -4 0 0 0 Z " fill="#EEB4B6" transform="translate(16,85)"/>
<path d="M0 0 C2.16436314 1.5988989 2.89020828 2.47241677 3.44140625 5.12109375 C3.48136719 5.88550781 3.52132812 6.64992188 3.5625 7.4375 C3.80670376 11.81096737 4.79930603 14.5337963 7.58984375 17.94140625 C9.76257711 21.11323584 9.60173856 23.83064571 9.46875 27.58203125 C9 30 9 30 6.5625 33.125 C3.22757886 35.34039679 0.10880502 35.64334447 -3.83203125 35.4453125 C-7.05942861 34.78238764 -9.31611807 32.84889644 -12 31 C-15.11279094 31.17958409 -17.22572297 31.61286148 -20 33 C-20.65772428 36.02934491 -20.65772428 36.02934491 -21 39 C-21.33 39 -21.66 39 -22 39 C-21.97679687 38.35933594 -21.95359375 37.71867187 -21.9296875 37.05859375 C-21.81559137 31.59012904 -22.20208096 27.16901723 -24 22 C-23.071875 21.4225 -22.14375 20.845 -21.1875 20.25 C-18.40184158 18.28365288 -16.81261304 16.81962028 -15 14 C-15.99 13.67 -16.98 13.34 -18 13 C-18.99 13.825 -19.98 14.65 -21 15.5 C-22.485 16.7375 -22.485 16.7375 -24 18 C-24.99 17.67 -25.98 17.34 -27 17 C-26.13375 16.54625 -25.2675 16.0925 -24.375 15.625 C-21.23927441 13.57868143 -19.81106641 11.2484207 -18 8 C-13.64024367 0.37324281 -8.67202161 -2.75852878 0 0 Z " fill="#EDACAD" transform="translate(195,41)"/>
<path d="M0 0 C2.31 0.33 4.62 0.66 7 1 C7.33 3.97 7.66 6.94 8 10 C10.97 10.495 10.97 10.495 14 11 C14 10.34 14 9.68 14 9 C13.01 8.67 12.02 8.34 11 8 C11 5.36 11 2.72 11 0 C11.33 0 11.66 0 12 0 C12.04125 1.093125 12.0825 2.18625 12.125 3.3125 C12.41375 4.529375 12.7025 5.74625 13 7 C15.88349928 8.81680116 15.88349928 8.81680116 19 10 C21.83484878 14.25227317 21.62868576 18.01133771 21 23 C19.5625 25.625 19.5625 25.625 17 27 C12.00470414 27.69659172 8.46811966 27.29469193 4 25 C0.40563236 25.36865309 -2.69265585 26.58256679 -6 28 C-4.625 26 -4.625 26 -3 24 C-2.34 24 -1.68 24 -1 24 C-1 23.34 -1 22.68 -1 22 C-3.64 22.66 -6.28 23.32 -9 24 C-9.33 22.35 -9.66 20.7 -10 19 C-8.824375 18.319375 -8.824375 18.319375 -7.625 17.625 C-3.90441321 13.90441321 -3.65037958 10.08655077 -3 5 C-2.34 5 -1.68 5 -1 5 C-0.67 3.35 -0.34 1.7 0 0 Z " fill="#F2C3C4" transform="translate(143,9)"/>
<path d="M0 0 C0.92039063 -0.020625 1.84078125 -0.04125 2.7890625 -0.0625 C11.04701014 -0.10968827 17.09419919 1.9342319 23.625 7.25 C25 10.5 25 10.5 25.625 13.25 C21.90707002 12.35546046 18.23872849 11.30145547 14.5625 10.25 C13.33402344 9.899375 12.10554688 9.54875 10.83984375 9.1875 C8.75666237 8.5800109 6.68359634 7.93619878 4.625 7.25 C-9.43596004 6.55662697 -23.02752282 7.4824077 -35.3125 15.0625 C-35.993125 15.454375 -36.67375 15.84625 -37.375 16.25 C-38.365 15.92 -39.355 15.59 -40.375 15.25 C-38.75160195 13.54115995 -37.08180947 11.87553283 -35.375 10.25 C-34.715 10.25 -34.055 10.25 -33.375 10.25 C-33.375 9.59 -33.375 8.93 -33.375 8.25 C-31.31675571 7.40621025 -29.25320214 6.57536378 -27.1875 5.75 C-26.03894531 5.2859375 -24.89039062 4.821875 -23.70703125 4.34375 C-20.65509923 3.34194348 -18.54384928 3.01129196 -15.375 3.25 C-15.375 2.59 -15.375 1.93 -15.375 1.25 C-10.2106727 0.10492143 -5.27046585 0.02928037 0 0 Z " fill="#F7B5B0" transform="translate(106.375,25.75)"/>
<path d="M0 0 C-0.01160156 0.74765625 -0.02320313 1.4953125 -0.03515625 2.265625 C-0.04417969 3.25046875 -0.05320313 4.2353125 -0.0625 5.25 C-0.07410156 6.22453125 -0.08570313 7.1990625 -0.09765625 8.203125 C-0.01195577 10.65758678 0.29293934 12.66168914 1 15 C1.9590625 15.2165625 1.9590625 15.2165625 2.9375 15.4375 C5 16 5 16 6 17 C6.29044498 19.7592273 6.3190465 21.43697676 4.9375 23.875 C1.75296172 25.72408674 -0.53479186 24.89617452 -4 24 C-4.825 23.29875 -5.65 22.5975 -6.5 21.875 C-8.94724826 19.62163629 -8.94724826 19.62163629 -12.5 20.1875 C-13.655 20.455625 -14.81 20.72375 -16 21 C-16.969375 21.185625 -17.93875 21.37125 -18.9375 21.5625 C-19.618125 21.706875 -20.29875 21.85125 -21 22 C-21.33 20.35 -21.66 18.7 -22 17 C-21.0925 16.443125 -20.185 15.88625 -19.25 15.3125 C-15.01858202 12.30168336 -12.59037614 9.77112843 -10.9375 4.8125 C-9.05357082 -0.83928754 -5.21392678 -0.19675195 0 0 Z " fill="#FBF9F9" transform="translate(193,46)"/>
<path d="M0 0 C0.66 0.33 1.32 0.66 2 1 C1.18595703 1.67095703 1.18595703 1.67095703 0.35546875 2.35546875 C-6.28161164 7.96410065 -9.11430032 12.89255804 -12 21 C-9.69 20.34 -7.38 19.68 -5 19 C-5.33 20.32 -5.66 21.64 -6 23 C-5.01 23 -4.02 23 -3 23 C-3 24.65 -3 26.3 -3 28 C-4.65 27.67 -6.3 27.34 -8 27 C-8.495 25.515 -8.495 25.515 -9 24 C-10.32 24 -11.64 24 -13 24 C-13 24.66 -13 25.32 -13 26 C-13.680625 26.515625 -14.36125 27.03125 -15.0625 27.5625 C-17.67420302 29.72965783 -19.35502419 31.6313583 -21.375 34.3125 C-29.48120197 44.98595899 -36.78785025 49.31181369 -50 52 C-50.99 52 -51.98 52 -53 52 C-52.53515625 49.7265625 -52.53515625 49.7265625 -51 47 C-48.2902605 45.43630131 -45.36729145 44.45456637 -42.4375 43.375 C-34.96909767 40.36662822 -30.58013738 37.29971762 -25.875 30.58203125 C-24.05034185 28.06932492 -22.32656192 26.49617321 -19.875 24.625 C-15.38096418 20.94644997 -13.43031991 16.3021575 -10.875 11.1796875 C-8.08486496 6.4480835 -4.35568955 3.26923637 0 0 Z " fill="#EFB7B6" transform="translate(68,32)"/>
<path d="M0 0 C-1.00617682 2.67576692 -1.54214546 3.7785108 -4.1640625 5.046875 C-4.97617188 5.27890625 -5.78828125 5.5109375 -6.625 5.75 C-7.44226563 5.99234375 -8.25953125 6.2346875 -9.1015625 6.484375 C-9.72804688 6.65453125 -10.35453125 6.8246875 -11 7 C-11 7.66 -11 8.32 -11 9 C-39.13091628 17.72321004 -64.99146858 18.35716778 -94 14 C-94 13.67 -94 13.34 -94 13 C-90.16073609 12.93264449 -86.64043342 12.8991237 -82.83959961 13.49780273 C-78.91375368 14.01128052 -75.08252699 14.1445258 -71.1328125 14.1328125 C-70.05252274 14.13424759 -70.05252274 14.13424759 -68.95040894 14.13571167 C-67.44284985 14.13638726 -65.93528775 14.13457671 -64.42773438 14.13037109 C-62.110612 14.12496644 -59.79367931 14.13036111 -57.4765625 14.13671875 C-56.00781207 14.13605878 -54.53906176 14.13477931 -53.0703125 14.1328125 C-52.37559845 14.13483673 -51.6808844 14.13686096 -50.96511841 14.13894653 C-47.70192471 14.40213142 -47.70192471 14.40213142 -45 13 C-53.91 12.67 -62.82 12.34 -72 12 C-72 11.67 -72 11.34 -72 11 C-71.14994385 10.98541748 -70.2998877 10.97083496 -69.42407227 10.95581055 C-43.7251887 11.00970923 -43.7251887 11.00970923 -19 5 C-16.33427985 4.50686503 -13.70184283 4.27476368 -11 4 C-11 3.34 -11 2.68 -11 2 C-7.12315913 0.80712589 -4.08378077 0 0 0 Z " fill="#EAA8A8" transform="translate(155,119)"/>
<path d="M0 0 C2.1875 1.234375 2.1875 1.234375 4 3 C4.50390625 5.375 4.50390625 5.375 4.5625 8 C4.5934211 11.74910763 4.5934211 11.74910763 6.52734375 14.8125 C7.01332031 15.204375 7.49929687 15.59625 8 16 C4.37673261 17.2077558 3.35853631 16.54311128 0 15 C0 12.03 0 9.06 0 6 C-2.31 6 -4.62 6 -7 6 C-7.33 7.32 -7.66 8.64 -8 10 C-8.66 10 -9.32 10 -10 10 C-9.95875 11.0725 -9.9175 12.145 -9.875 13.25 C-10.04195804 18.25874126 -10.04195804 18.25874126 -12 21 C-13.33333333 22 -14.66666667 23 -16 24 C-17.2516467 26.08334635 -17.2516467 26.08334635 -18 28 C-18 26.02 -18 24.04 -18 22 C-18.99 22.37125 -18.99 22.37125 -20 22.75 C-23.81600799 23.06800067 -25.6889384 21.88097503 -28.9375 20.0078125 C-32.76807614 18.13605371 -36.65018151 17.87516246 -40.86328125 17.90234375 C-41.74951172 17.90556641 -42.63574219 17.90878906 -43.54882812 17.91210938 C-44.9168457 17.92467773 -44.9168457 17.92467773 -46.3125 17.9375 C-47.70952148 17.94426758 -47.70952148 17.94426758 -49.13476562 17.95117188 C-51.42324373 17.96290766 -53.71158808 17.97932637 -56 18 C-51.9953572 15.77667365 -48.43921746 15.65536959 -43.9375 15.6875 C-42.80501831 15.69052124 -42.80501831 15.69052124 -41.6496582 15.69360352 C-35.40881787 15.80470258 -29.90443362 16.9759224 -24 19 C-22.67006511 19.34664402 -21.3377134 19.68470371 -20 20 C-17.79148928 16.88800762 -16.77559009 14.26585897 -16.125 10.5625 C-15.17493282 5.78022907 -13.47959092 3.39472285 -10 0 C-6.2195649 -1.26014503 -3.87795389 -0.81641135 0 0 Z " fill="#F0B4B6" transform="translate(150,4)"/>
<path d="M0 0 C1.96885194 0.46173076 3.93754248 0.92453207 5.90087891 1.40917969 C17.16629084 4.16255121 28.45082208 5.19991615 40 6 C40 6.66 40 7.32 40 8 C49.24 8 58.48 8 68 8 C67.34 8.99 66.68 9.98 66 11 C63.15625 11.38818359 63.15625 11.38818359 59.5 11.3984375 C58.51040787 11.40457817 58.51040787 11.40457817 57.50082397 11.4108429 C55.33343404 11.41695761 53.16726612 11.3978855 51 11.375 C50.26324036 11.3713443 49.52648071 11.3676886 48.76739502 11.36392212 C38.57612225 11.30460461 28.50786374 10.83453309 18.375 9.6875 C17.323125 9.57003418 16.27125 9.45256836 15.1875 9.33154297 C9.58207725 8.61155511 5.07250942 7.48242658 0 5 C-1.80966424 4.26382366 -3.62184943 3.53378584 -5.4375 2.8125 C-6.30246094 2.46832031 -7.16742188 2.12414062 -8.05859375 1.76953125 C-8.69925781 1.51558594 -9.33992188 1.26164062 -10 1 C-6.0553951 -1.6297366 -4.58284844 -0.89593045 0 0 Z " fill="#DF7D81" transform="translate(43,123)"/>
<path d="M0 0 C2.31 0.33 4.62 0.66 7 1 C7.00257813 1.61488281 7.00515625 2.22976562 7.0078125 2.86328125 C7.12769339 5.36879193 7.31337716 7.58378292 8 10 C9.98320018 11.03291676 11.98347806 12.0337499 14 13 C14.87243977 15.74984179 14.90423849 18.0792738 15 21 C13.35 21 11.7 21 10 21 C9.67 20.34 9.34 19.68 9 19 C7.20866022 18.94608007 5.41686101 18.90724429 3.625 18.875 C2.62726563 18.85179688 1.62953125 18.82859375 0.6015625 18.8046875 C-2.16262173 18.72783152 -2.16262173 18.72783152 -4 21 C-5.32 21 -6.64 21 -8 21 C-6.17708333 16.3125 -6.17708333 16.3125 -4.9375 14.125 C-3.62876356 11.15853073 -3.36953746 8.20265802 -3 5 C-2.34 5 -1.68 5 -1 5 C-0.67 3.35 -0.34 1.7 0 0 Z " fill="#FBF5F4" transform="translate(143,9)"/>
<path d="M0 0 C12.64835904 -0.15178031 23.30137954 -0.21030995 35 5 C36.66424791 5.67268202 38.33029372 6.34098319 40 7 C40 7.66 40 8.32 40 9 C38.26363281 9.18175781 38.26363281 9.18175781 36.4921875 9.3671875 C34.95308708 9.53611316 33.41402663 9.70540332 31.875 9.875 C31.11445312 9.95363281 30.35390625 10.03226563 29.5703125 10.11328125 C25.14040279 10.60973665 21.19788029 11.40400079 17 13 C16 9 15 5 14 1 C9.38 1 4.76 1 0 1 C0 0.67 0 0.34 0 0 Z " fill="#F6BCB5" transform="translate(91,37)"/>
<path d="M0 0 C0.33 0 0.66 0 1 0 C2.11463941 9.47443496 2.64932066 18.3701936 -1.5 27.1875 C-1.995 27.785625 -2.49 28.38375 -3 29 C-3.66 29 -4.32 29 -5 29 C-5.2475 29.5775 -5.495 30.155 -5.75 30.75 C-7.21502278 33.38704101 -8.67502077 35.07358864 -11 37 C-13.75 37.75 -13.75 37.75 -16 38 C-16 34 -16 34 -14.35546875 32.32421875 C-13.64003906 31.78410156 -12.92460937 31.24398437 -12.1875 30.6875 C-8.31776532 27.46157959 -6.37179459 24.97275539 -5 20 C-4.79218366 16.97941371 -4.81505439 14.02077833 -5 11 C-4.01 11 -3.02 11 -2 11 C-1.93941406 10.28972656 -1.87882813 9.57945313 -1.81640625 8.84765625 C-1.73261719 7.92855469 -1.64882812 7.00945312 -1.5625 6.0625 C-1.48128906 5.14597656 -1.40007812 4.22945313 -1.31640625 3.28515625 C-1 1 -1 1 0 0 Z " fill="#E89C9E" transform="translate(172,80)"/>
<path d="M0 0 C0 0.66 0 1.32 0 2 C4.56151698 3.26695124 4.56151698 3.26695124 8.91796875 1.91796875 C10.114685 0.99172568 11.2849827 0.0300152 12.421875 -0.96875 C12.94265625 -1.3090625 13.4634375 -1.649375 14 -2 C14.99 -1.67 15.98 -1.34 17 -1 C15.55536047 2.37082558 13.75336875 4.58037292 11 7 C10.01 7.33 9.02 7.66 8 8 C7.34 8.66 6.68 9.32 6 10 C5.67 9.67 5.34 9.34 5 9 C4.34 9.66 3.68 10.32 3 11 C3 10.34 3 9.68 3 9 C2.34 9 1.68 9 1 9 C0.773125 8.38125 0.54625 7.7625 0.3125 7.125 C-1.37929835 4.38589791 -2.99244161 3.94975528 -6 3 C-6 2.34 -6 1.68 -6 1 C-7.32 1 -8.64 1 -10 1 C-10 0.34 -10 -0.32 -10 -1 C-11.093125 -1.12375 -12.18625 -1.2475 -13.3125 -1.375 C-17 -2 -17 -2 -20 -4 C-12.13745925 -5.29295115 -6.71285868 -4.73848848 0 0 Z " fill="#DA7C7F" transform="translate(164,55)"/>
<path d="M0 0 C9.2839388 -0.07025156 18.53598125 0.13927357 27.8125 0.5 C29.08931641 0.54769531 30.36613281 0.59539062 31.68164062 0.64453125 C34.78784841 0.76086862 37.89395572 0.87938938 41 1 C40.34 1.99 39.68 2.98 39 4 C36.52580178 4.28039505 34.30516615 4.37240777 31.83203125 4.328125 C31.11899338 4.32625183 30.40595551 4.32437866 29.67131042 4.32244873 C28.15900006 4.31571923 26.64670737 4.30178685 25.13452148 4.28125 C22.83886212 4.25035478 20.5438927 4.24030295 18.24804688 4.234375 C16.77603345 4.22519327 15.30402691 4.21481382 13.83203125 4.203125 C13.15259964 4.19887512 12.47316803 4.19462524 11.77314758 4.19024658 C7.42023738 4.12627116 3.28597606 3.69376435 -1 3 C-0.67 2.01 -0.34 1.02 0 0 Z " fill="#E07B80" transform="translate(70,130)"/>
<path d="M0 0 C4.03350194 0.59080227 6.92294774 1.89856117 10.4375 3.9375 C14.22660564 6.07271223 17.7751975 7.85816149 22 9 C21.34 9.66 20.68 10.32 20 11 C21.11375 11.6496875 21.11375 11.6496875 22.25 12.3125 C24.61833926 13.76579909 26.80924065 15.29607606 29 17 C21.06848413 16.14253882 12.86310212 13.52806771 7 8 C5.91808489 7.14403768 4.83469217 6.28994044 3.75 5.4375 C1 3 1 3 0 0 Z " fill="#E7969A" transform="translate(16,112)"/>
<path d="M0 0 C0.70640625 -0.01224609 1.4128125 -0.02449219 2.140625 -0.03710938 C5.89921497 -0.04778719 7.54359134 0.04989423 10.75 2.1875 C7.45 2.5175 4.15 2.8475 0.75 3.1875 C4.05 3.8475 7.35 4.5075 10.75 5.1875 C10.75 5.5175 10.75 5.8475 10.75 6.1875 C6.45838953 6.24533842 2.16687855 6.2810412 -2.125 6.3125 C-3.34832031 6.32925781 -4.57164063 6.34601562 -5.83203125 6.36328125 C-7.58193359 6.37294922 -7.58193359 6.37294922 -9.3671875 6.3828125 C-10.44597168 6.39328613 -11.52475586 6.40375977 -12.63623047 6.41455078 C-15.25 6.1875 -15.25 6.1875 -17.25 4.1875 C-19.31874034 3.5449765 -19.31874034 3.5449765 -21.25 3.1875 C-14.22390364 0.61697694 -7.408021 0.00691047 0 0 Z " fill="#E38788" transform="translate(103.25,31.8125)"/>
<path d="M0 0 C-1.03236114 3.01372505 -1.79211252 3.8891675 -4.65234375 5.4140625 C-14.01978858 8.86698509 -22.95404867 11.44648673 -33 11 C-26.40899152 6.60599435 -18.83574239 4.59137678 -11 4 C-11 3.34 -11 2.68 -11 2 C-7.12315913 0.80712589 -4.08378077 0 0 0 Z " fill="#DC7C7E" transform="translate(155,119)"/>
<path d="M0 0 C0.66 0.33 1.32 0.66 2 1 C1.67 1.66 1.34 2.32 1 3 C2.01320313 2.65775391 2.01320313 2.65775391 3.046875 2.30859375 C4.38492187 1.87740234 4.38492187 1.87740234 5.75 1.4375 C6.63171875 1.14746094 7.5134375 0.85742188 8.421875 0.55859375 C11.07834316 -0.01697435 12.47031106 0.10751629 15 1 C15 1.99 15 2.98 15 4 C15.31421071 6.00309329 15.6451046 8.00371336 16 10 C15.01 10.66 14.02 11.32 13 12 C8.125 8.375 8.125 8.375 7 5 C6.34 5 5.68 5 5 5 C4.7525 5.598125 4.505 6.19625 4.25 6.8125 C2.83629988 9.28647521 1.34944617 10.43370255 -1 12 C0.875 6.25 0.875 6.25 2 4 C0.35 4.33 -1.3 4.66 -3 5 C-1.125 1.125 -1.125 1.125 0 0 Z " fill="#FACAC4" transform="translate(14,81)"/>
<path d="M0 0 C2.475 0.495 2.475 0.495 5 1 C5.31087045 4.96359827 5.32482417 7.38933056 3.4375 10.9375 C1 13 1 13 -2.5 13.5 C-6.2229428 12.96815103 -7.18160519 12.28994579 -10 10 C-12.31347872 9.26739841 -14.645752 8.588562 -17 8 C-16.67 7.34 -16.34 6.68 -16 6 C-9.375 5.875 -9.375 5.875 -6 7 C-6 7.66 -6 8.32 -6 9 C-4.02 8.67 -2.04 8.34 0 8 C0 5.36 0 2.72 0 0 Z " fill="#E18A8F" transform="translate(158,22)"/>
<path d="M0 0 C0.66 0.99 1.32 1.98 2 3 C1.01 3 0.02 3 -1 3 C1.86698342 6.49413605 3.84150148 8.28836874 8.3125 8.8125 C9.529375 8.874375 10.74625 8.93625 12 9 C12 9.33 12 9.66 12 10 C5.45664508 10.52346839 2.49866936 9.78797223 -3 6 C-6.11279094 6.17958409 -8.22572297 6.61286148 -11 8 C-11.65772428 11.02934491 -11.65772428 11.02934491 -12 14 C-12.33 14 -12.66 14 -13 14 C-13 10.04 -13 6.08 -13 2 C-8.24008398 -0.37995801 -5.31092444 -1.72913819 0 0 Z " fill="#EBA9AC" transform="translate(186,66)"/>
<path d="M0 0 C0.99 0.66 1.98 1.32 3 2 C2.88601335 3.62580966 2.75844341 5.25067157 2.625 6.875 C2.55539063 7.77992187 2.48578125 8.68484375 2.4140625 9.6171875 C2 12 2 12 0 14 C-4.89298047 14.74477225 -8.8500855 14.6899487 -13.125 12.125 C-15 10 -15 10 -15 8 C-14.25234375 8.09539062 -13.5046875 8.19078125 -12.734375 8.2890625 C-11.25710937 8.45535156 -11.25710937 8.45535156 -9.75 8.625 C-8.77546875 8.74101563 -7.8009375 8.85703125 -6.796875 8.9765625 C-3.86570607 9.00112537 -2.45471036 8.5312717 0 7 C0 4.69 0 2.38 0 0 Z " fill="#E5999C" transform="translate(200,61)"/>
<path d="M0 0 C-1.85174578 3.70349157 -7.12415086 4.67631662 -10.875 6.0625 C-19.2532634 8.57597902 -27.19359415 9.82941219 -36 9 C-36.99 8.34 -37.98 7.68 -39 7 C-34.05 7.33 -29.1 7.66 -24 8 C-24 7.01 -24 6.02 -24 5 C-18.32010626 2.50881854 -15.05525768 1.61233678 -9 3 C-9 2.34 -9 1.68 -9 1 C-2.25 -1.125 -2.25 -1.125 0 0 Z " fill="#F4B3AF" transform="translate(145,107)"/>
<path d="M0 0 C1.32 0 2.64 0 4 0 C3.67 0.7425 3.34 1.485 3 2.25 C1.49034711 7.91119832 1.01659586 14.53696947 2.63671875 20.2421875 C2.75660156 20.82226562 2.87648438 21.40234375 3 22 C2.34 22.66 1.68 23.32 1 24 C1 23.34 1 22.68 1 22 C0.01 21.67 -0.98 21.34 -2 21 C-4.33780569 16.32438862 -3.83745665 8.731472 -2.328125 3.80859375 C-1.5 2.1875 -1.5 2.1875 0 0 Z " fill="#E78383" transform="translate(12,85)"/>
<path d="M0 0 C1.24546405 2.49092811 0.7767578 3.41080733 0 6 C0.66 6 1.32 6 2 6 C1.79503906 6.60585937 1.59007813 7.21171875 1.37890625 7.8359375 C-0.5720212 13.90341521 -1.6077615 19.64303124 -2 26 C-2.33 26 -2.66 26 -3 26 C-3.33 23.36 -3.66 20.72 -4 18 C-5.66342837 19.66342837 -5.36048097 21.7825709 -5.5625 24.0625 C-5.64628906 24.98160156 -5.73007813 25.90070313 -5.81640625 26.84765625 C-5.87699219 27.55792969 -5.93757813 28.26820312 -6 29 C-6.33 29 -6.66 29 -7 29 C-7.60690122 18.54781232 -6.89197979 8.39281206 0 0 Z " fill="#E48B8E" transform="translate(87,65)"/>
<path d="M0 0 C-0.125 1.8125 -0.125 1.8125 -1 4 C-6.71194927 7.85942518 -15.11507979 10 -22 10 C-21.67 9.01 -21.34 8.02 -21 7 C-19.43591487 6.25195929 -17.85969279 5.52262004 -16.2421875 4.8984375 C-12.559016 3.42260223 -9.02075888 1.62461465 -5.453125 -0.109375 C-3 -1 -3 -1 0 0 Z " fill="#DE8589" transform="translate(37,74)"/>
<path d="M0 0 C10.15176262 -0.32476018 19.21309195 -0.16801648 29 3 C29 4.32 29 5.64 29 7 C19.31351609 5.09446218 9.65827201 3.04271461 0 1 C0 0.67 0 0.34 0 0 Z " fill="#DC797B" transform="translate(99,34)"/>
<path d="M0 0 C1.32 0 2.64 0 4 0 C4 0.66 4 1.32 4 2 C4.639375 2.144375 5.27875 2.28875 5.9375 2.4375 C8 3 8 3 9 4 C9.12375 5.27875 9.2475 6.5575 9.375 7.875 C9.68024154 10.66720951 9.79916406 11.74292999 11.5625 14 C12.036875 14.33 12.51125 14.66 13 15 C9.37673261 16.2077558 8.35853631 15.54311128 5 14 C5 11.03 5 8.06 5 5 C4.34 5 3.68 5 3 5 C3 4.34 3 3.68 3 3 C1.35 3 -0.3 3 -2 3 C-1.34 2.01 -0.68 1.02 0 0 Z " fill="#E38E8F" transform="translate(145,5)"/>
<path d="M0 0 C2.1875 0.3125 2.1875 0.3125 4 1 C2.55536047 4.37082558 0.75336875 6.58037292 -2 9 C-2.99 9.33 -3.98 9.66 -5 10 C-5.66 10.66 -6.32 11.32 -7 12 C-7.33 11.67 -7.66 11.34 -8 11 C-8.66 11.66 -9.32 12.32 -10 13 C-10 12.34 -10 11.68 -10 11 C-10.66 11 -11.32 11 -12 11 C-12.66 9.35 -13.32 7.7 -14 6 C-13.01 6.33 -12.02 6.66 -11 7 C-11 7.99 -11 8.98 -11 10 C-10.34 10 -9.68 10 -9 10 C-9 8.68 -9 7.36 -9 6 C-8.071875 5.566875 -7.14375 5.13375 -6.1875 4.6875 C-3.05725756 3.25425758 -3.05725756 3.25425758 -1.375 1.25 C-0.92125 0.8375 -0.4675 0.425 0 0 Z " fill="#E68F91" transform="translate(177,53)"/>
<path d="M0 0 C0.66 0.33 1.32 0.66 2 1 C1.67 1.99 1.34 2.98 1 4 C1.66 4 2.32 4 3 4 C3 4.66 3 5.32 3 6 C2.34 6 1.68 6 1 6 C0.67 7.98 0.34 9.96 0 12 C-3 13 -3 13 -6 13 C-6.825 13.680625 -7.65 14.36125 -8.5 15.0625 C-9.7375 16.0215625 -9.7375 16.0215625 -11 17 C-11.99 16.67 -12.98 16.34 -14 16 C-12.700625 15.319375 -12.700625 15.319375 -11.375 14.625 C-7.40619404 12.02928805 -5.54606384 8.31733071 -3.296875 4.2421875 C-2 2 -2 2 0 0 Z " fill="#EDB0B2" transform="translate(182,42)"/>
<path d="M0 0 C7.26 0.33 14.52 0.66 22 1 C22 1.33 22 1.66 22 2 C21.07316406 2.06058594 20.14632812 2.12117187 19.19140625 2.18359375 C17.99386719 2.26738281 16.79632813 2.35117188 15.5625 2.4375 C14.36753906 2.51871094 13.17257813 2.59992188 11.94140625 2.68359375 C9.11429756 2.67656114 9.11429756 2.67656114 8 4 C0.10794844 4.51185251 -7.34244332 3.93599627 -15 2 C-15 1.67 -15 1.34 -15 1 C-10.05 1 -5.1 1 0 1 C0 0.67 0 0.34 0 0 Z " fill="#E19594" transform="translate(61,128)"/>
<path d="M0 0 C0.66 0.66 1.32 1.32 2 2 C0.37965717 4.14949538 -1.24595794 6.2946141 -2.875 8.4375 C-3.33519531 9.04916016 -3.79539062 9.66082031 -4.26953125 10.29101562 C-7.7734375 14.88671875 -7.7734375 14.88671875 -10 16 C-10 15.01 -10 14.02 -10 13 C-10.66 12.67 -11.32 12.34 -12 12 C-10.56665422 10.37133456 -9.12817021 8.74719006 -7.6875 7.125 C-6.88699219 6.22007813 -6.08648437 5.31515625 -5.26171875 4.3828125 C-3 2 -3 2 0 0 Z " fill="#DE8085" transform="translate(52,55)"/>
<path d="M0 0 C-0.35049575 3.24208567 -0.56221181 4.61527704 -3.0625 6.8125 C-3.701875 7.204375 -4.34125 7.59625 -5 8 C-5 7.34 -5 6.68 -5 6 C-10.35264888 6.76888879 -14.46941514 9.25312253 -19.16015625 11.8203125 C-22 13 -22 13 -24.37109375 12.6796875 C-25.17740234 12.34324219 -25.17740234 12.34324219 -26 12 C-24.16666667 11.08333333 -22.33333333 10.16666667 -20.5 9.25 C-19.40816406 8.7034375 -18.31632812 8.156875 -17.19140625 7.59375 C-15.30552095 6.6519615 -13.41811354 5.7131934 -11.52734375 4.78125 C-1.83806818 0 -1.83806818 0 0 0 Z " fill="#DF888E" transform="translate(42,68)"/>
<path d="M0 0 C0.33 0.99 0.66 1.98 1 3 C-5.38752192 10.02984256 -12.98982169 17.47314851 -23 18 C-20.67173738 16.11948019 -18.51649229 14.76298641 -15.8125 13.4375 C-12.90358047 12.30124189 -12.90358047 12.30124189 -12 10 C-13.98 10.33 -15.96 10.66 -18 11 C-16.25 8.9375 -16.25 8.9375 -14 7 C-12.0625 7.375 -12.0625 7.375 -10 8 C-5.01024972 6.84851917 -2.97661229 3.91211901 0 0 Z " fill="#EFBDBF" transform="translate(167,109)"/>
<path d="M0 0 C0.66 1.32 1.32 2.64 2 4 C0.95285076 5.32477959 -0.11344669 6.63443746 -1.1875 7.9375 C-1.77917969 8.66839844 -2.37085938 9.39929688 -2.98046875 10.15234375 C-5.32505203 12.29738803 -6.88391498 12.66094412 -10 13 C-10 9 -10 9 -7.8125 6.640625 C-6.884375 5.85171875 -5.95625 5.0628125 -5 4.25 C-4.071875 3.45078125 -3.14375 2.6515625 -2.1875 1.828125 C-1.465625 1.22484375 -0.74375 0.6215625 0 0 Z " fill="#E08084" transform="translate(166,105)"/>
<path d="M0 0 C0 0.66 0 1.32 0 2 C-0.99 2 -1.98 2 -3 2 C-3 2.66 -3 3.32 -3 4 C-8.94 4.33 -14.88 4.66 -21 5 C-18.87419021 1.81128532 -17.88617828 1.26494707 -14.28515625 0.33984375 C-9.55596623 -0.36347169 -4.76686366 -0.14089252 0 0 Z " fill="#F6BEB7" transform="translate(109,27)"/>
<path d="M0 0 C0.33 0 0.66 0 1 0 C1.66 5.61 2.32 11.22 3 17 C1.68 17.33 0.36 17.66 -1 18 C-2.02886361 14.59240374 -2.16568934 11.4257762 -2.1875 7.875 C-2.20167969 6.82054688 -2.21585937 5.76609375 -2.23046875 4.6796875 C-2 2 -2 2 0 0 Z " fill="#DD8182" transform="translate(83,82)"/>
<path d="M0 0 C4.875 3.75 4.875 3.75 6 6 C6.06996014 7.70702735 6.08440154 9.41668003 6.0625 11.125 C6.05347656 12.03507812 6.04445312 12.94515625 6.03515625 13.8828125 C6.02355469 14.58148438 6.01195312 15.28015625 6 16 C5.34 16.33 4.68 16.66 4 17 C4.01160156 16.36191406 4.02320313 15.72382812 4.03515625 15.06640625 C4.04417969 14.24011719 4.05320313 13.41382812 4.0625 12.5625 C4.07410156 11.73878906 4.08570313 10.91507813 4.09765625 10.06640625 C4.23267348 8.00836062 4.23267348 8.00836062 3 7 C2.67 8.98 2.34 10.96 2 13 C1.67 13 1.34 13 1 13 C0.731875 12.030625 0.46375 11.06125 0.1875 10.0625 C-0.204375 9.051875 -0.59625 8.04125 -1 7 C-1.99 6.67 -2.98 6.34 -4 6 C-4.6875 3.9375 -4.6875 3.9375 -5 2 C-4.01 2.33 -3.02 2.66 -2 3 C-2 3.66 -2 4.32 -2 5 C-1.34 5 -0.68 5 0 5 C0 3.35 0 1.7 0 0 Z " fill="#EEB8BA" transform="translate(198,55)"/>
<path d="M0 0 C1.13248169 0.00302124 1.13248169 0.00302124 2.2878418 0.00610352 C8.52868213 0.11720258 14.03306638 1.2884224 19.9375 3.3125 C22.03807627 4.02755963 22.03807627 4.02755963 23.9375 4.3125 C25.70940909 2.95805699 25.70940909 2.95805699 26.9375 1.3125 C26.1875 3.75 26.1875 3.75 24.9375 6.3125 C22.55417632 7.32376101 21.41262859 7.49197203 18.97265625 6.5703125 C18.32167969 6.19648438 17.67070313 5.82265625 17 5.4375 C12.4534529 2.85238574 8.27722556 2.18127596 3.07421875 2.21484375 C2.18798828 2.21806641 1.30175781 2.22128906 0.38867188 2.22460938 C-0.9793457 2.23717773 -0.9793457 2.23717773 -2.375 2.25 C-3.30634766 2.25451172 -4.23769531 2.25902344 -5.19726562 2.26367188 C-7.48574373 2.27540766 -9.77408808 2.29182637 -12.0625 2.3125 C-8.0578572 0.08917365 -4.50171746 -0.03213041 0 0 Z " fill="#FBDFDF" transform="translate(106.0625,19.6875)"/>
<path d="M0 0 C6.27 0 12.54 0 19 0 C14.41487138 3.05675241 11.22893676 3.11219208 5.8125 3.0625 C4.54019531 3.05347656 3.26789063 3.04445313 1.95703125 3.03515625 C0.49330078 3.01775391 0.49330078 3.01775391 -1 3 C-0.67 2.01 -0.34 1.02 0 0 Z " fill="#E07779" transform="translate(112,116)"/>
<path d="M0 0 C1 2 1 2 0.3984375 4.12890625 C-0.61521686 6.53923704 -1.60692219 8.78491976 -3 11 C-5.75 12.0625 -5.75 12.0625 -8 12 C-8.33 10.35 -8.66 8.7 -9 7 C-8.071875 6.401875 -7.14375 5.80375 -6.1875 5.1875 C-3.79745282 3.54727155 -1.91529747 2.1281083 0 0 Z " fill="#F8E6E3" transform="translate(180,56)"/>
<path d="M0 0 C0.99 0 1.98 0 3 0 C2.67515625 0.85658203 2.67515625 0.85658203 2.34375 1.73046875 C-0.42788522 9.80157315 -1.48953115 18.68817827 1 27 C0.34 27 -0.32 27 -1 27 C-2.53815394 22.38553817 -2.18443162 17.77019697 -2.1875 12.9375 C-2.19974609 11.91849609 -2.21199219 10.89949219 -2.22460938 9.84960938 C-2.22654297 8.87701172 -2.22847656 7.90441406 -2.23046875 6.90234375 C-2.23457764 6.01023193 -2.23868652 5.11812012 -2.24291992 4.19897461 C-2 2 -2 2 0 0 Z " fill="#F9C2BE" transform="translate(81,71)"/>
<path d="M0 0 C5.445 1.485 5.445 1.485 11 3 C11.33 2.67 11.66 2.34 12 2 C13.99958364 1.95919217 16.00045254 1.95745644 18 2 C18 2.66 18 3.32 18 4 C17.360625 4.433125 16.72125 4.86625 16.0625 5.3125 C13.50072404 7.40849852 13.34778436 8.78299472 13 12 C12.67 12 12.34 12 12 12 C12 9.69 12 7.38 12 5 C10.02 5.33 8.04 5.66 6 6 C5.67 5.34 5.34 4.68 5 4 C3.34051852 2.98812105 1.67419438 1.9873454 0 1 C0 0.67 0 0.34 0 0 Z " fill="#E28C8E" transform="translate(124,29)"/>
<path d="M0 0 C0.33 0 0.66 0 1 0 C1.04125 1.093125 1.0825 2.18625 1.125 3.3125 C1.60565398 7.24996333 1.60565398 7.24996333 5.0625 8.9375 C6.031875 9.288125 7.00125 9.63875 8 10 C7.67 11.32 7.34 12.64 7 14 C6.01 13.67 5.02 13.34 4 13 C4.33 13.66 4.66 14.32 5 15 C5.039992 16.99960012 5.04346799 19.00047242 5 21 C4.67 21 4.34 21 4 21 C3.67 18.36 3.34 15.72 3 13 C1.68 12.67 0.36 12.34 -1 12 C0.32 11.67 1.64 11.34 3 11 C3 10.34 3 9.68 3 9 C2.01 8.67 1.02 8.34 0 8 C0 5.36 0 2.72 0 0 Z " fill="#EFB7B8" transform="translate(154,9)"/>
<path d="M0 0 C1.50861871 4.52585612 0.40378834 8.50934726 -1 13 C-3.125 15.625 -3.125 15.625 -5 17 C-5 15.35 -5 13.7 -5 12 C-4.34 12 -3.68 12 -3 12 C-3.061875 10.7625 -3.12375 9.525 -3.1875 8.25 C-3.20362826 5.21788698 -3.10651023 4.17751704 -1.5 1.5 C-1.005 1.005 -0.51 0.51 0 0 Z " fill="#E18586" transform="translate(139,10)"/>
<path d="M0 0 C0.33 0.66 0.66 1.32 1 2 C-0.3125 4 -0.3125 4 -2 6 C-2.99 6 -3.98 6 -5 6 C-5 6.99 -5 7.98 -5 9 C-4.34 9 -3.68 9 -3 9 C-3 9.66 -3 10.32 -3 11 C-4.65 11.66 -6.3 12.32 -8 13 C-7.67 12.34 -7.34 11.68 -7 11 C-8.32 10.34 -9.64 9.68 -11 9 C-7.37 6.03 -3.74 3.06 0 0 Z " fill="#E68B8B" transform="translate(155,98)"/>
<path d="M0 0 C0.33 0 0.66 0 1 0 C1.9583019 8.34077581 -0.17259113 13.2473745 -5 20 C-5.33 19.01 -5.66 18.02 -6 17 C-6.66 17 -7.32 17 -8 17 C-8 16.34 -8 15.68 -8 15 C-7.34 15 -6.68 15 -6 15 C-1.45878112 10.7426073 -0.86981012 5.89410806 0 0 Z " fill="#F5B4AE" transform="translate(168,70)"/>
<path d="M0 0 C0.66 0 1.32 0 2 0 C1.3984375 1.890625 1.3984375 1.890625 0 4 C-8.31777762 7.07047438 -17.22813199 7.43377369 -26 7 C-26 6.67 -26 6.34 -26 6 C-24.54980469 5.83564453 -24.54980469 5.83564453 -23.0703125 5.66796875 C-10.694598 4.89309955 -10.694598 4.89309955 0 0 Z " fill="#F2A49F" transform="translate(140,114)"/>
<path d="M0 0 C-5.58924205 5.8997555 -5.58924205 5.8997555 -9 7 C-11.25 6.625 -11.25 6.625 -13 6 C-8.66195191 1.42746282 -6.31941462 -0.17079499 0 0 Z " fill="#DE797E" transform="translate(149,108)"/>
<path d="M0 0 C0.66 0.33 1.32 0.66 2 1 C2.6104394 9.88528458 2.6104394 9.88528458 0.5625 13.625 C-3.25429852 15.67303823 -6.76054576 15.67675691 -11 15 C-13.5625 13.5 -13.5625 13.5 -15 12 C-14.319375 12.165 -13.63875 12.33 -12.9375 12.5 C-9.49125833 13.08659433 -6.48849588 13.32300888 -3 13 C-0.84520133 11.65844217 -0.84520133 11.65844217 0 9 C0.22857365 5.98178886 0.17422347 3.01987345 0 0 Z " fill="#FADADD" transform="translate(162,21)"/>
<path d="M0 0 C1.32 0 2.64 0 4 0 C3.34 1.65 2.68 3.3 2 5 C1.34 5 0.68 5 0 5 C-1.00259507 8.00778521 -1.30314642 10.53820647 -1.5625 13.6875 C-1.64628906 14.68136719 -1.73007813 15.67523438 -1.81640625 16.69921875 C-1.87699219 17.45847656 -1.93757812 18.21773437 -2 19 C-2.33 19 -2.66 19 -3 19 C-3.55353075 5.18223235 -3.55353075 5.18223235 0 0 Z " fill="#D97B7E" transform="translate(12,85)"/>
<path d="M0 0 C-0.33 0.33 -0.66 0.66 -1 1 C-0.34 1.33 0.32 1.66 1 2 C1 2.66 1 3.32 1 4 C2.32 4 3.64 4 5 4 C5 4.99 5 5.98 5 7 C4.34 7 3.68 7 3 7 C3 6.34 3 5.68 3 5 C1.68 5 0.36 5 -1 5 C-1 4.34 -1 3.68 -1 3 C-2.093125 2.87625 -3.18625 2.7525 -4.3125 2.625 C-8 2 -8 2 -11 0 C-9.54263913 -0.19491452 -8.08405407 -0.38069358 -6.625 -0.5625 C-5.81289062 -0.66691406 -5.00078125 -0.77132812 -4.1640625 -0.87890625 C-2 -1 -2 -1 0 0 Z " fill="#E88C8C" transform="translate(155,51)"/>
<path d="M0 0 C0.66 0.66 1.32 1.32 2 2 C-3.48048166 4.1766452 -8.07745154 5.26649924 -13.98046875 5.0390625 C-16.42426456 4.99179372 -18.63832313 5.390535 -21 6 C-20.67 5.34 -20.34 4.68 -20 4 C-13.42860967 2.09899066 -6.79305224 1.77727698 0 2 C0 1.34 0 0.68 0 0 Z " fill="#E78A8C" transform="translate(131,44)"/>
<path d="M0 0 C3.3 0 6.6 0 10 0 C10.33 0.66 10.66 1.32 11 2 C8.04335481 3.4783226 5.25770263 3.06032783 2 3 C1.67 3.66 1.34 4.32 1 5 C0.34 4.67 -0.32 4.34 -1 4 C-0.67 2.68 -0.34 1.36 0 0 Z " fill="#E38688" transform="translate(184,42)"/>
<path d="M0 0 C0.99 1.32 1.98 2.64 3 4 C2.34 5.32 1.68 6.64 1 8 C0.67 7.01 0.34 6.02 0 5 C-1.89353366 6.89353366 -3.4198632 8.84526801 -5 11 C-5.99 10.67 -6.98 10.34 -8 10 C-7.34 10 -6.68 10 -6 10 C-5.7525 9.278125 -5.505 8.55625 -5.25 7.8125 C-3.89016326 4.75286734 -2.17082246 2.5326262 0 0 Z " fill="#E48786" transform="translate(164,87)"/>
<path d="M0 0 C-2.92673137 1.95115425 -5.7129896 3.29645658 -8.9375 4.6875 C-9.97777344 5.14511719 -11.01804687 5.60273438 -12.08984375 6.07421875 C-15.02021689 7.00643141 -16.19723367 7.11435288 -19 6 C-6.76334702 -0.39784394 -6.76334702 -0.39784394 0 0 Z " fill="#F3C7C9" transform="translate(94,22)"/>
<path d="M0 0 C0.66 0.33 1.32 0.66 2 1 C1.67 1.66 1.34 2.32 1 3 C2.98 2.67 4.96 2.34 7 2 C6.401875 2.721875 5.80375 3.44375 5.1875 4.1875 C3.22577804 6.70971395 1.58276017 9.2301697 0 12 C-0.33 11.34 -0.66 10.68 -1 10 C-0.06553465 7.96855359 0.93224776 5.96466413 2 4 C0.35 4.33 -1.3 4.66 -3 5 C-1.125 1.125 -1.125 1.125 0 0 Z " fill="#ECAAA7" transform="translate(14,81)"/>
<path d="M0 0 C2.64 0 5.28 0 8 0 C8 1.98 8 3.96 8 6 C2.25 4.125 2.25 4.125 0 3 C0 2.01 0 1.02 0 0 Z " fill="#DE7A7D" transform="translate(124,26)"/>
<path d="M0 0 C0.66 0.33 1.32 0.66 2 1 C-1.9700218 5.21814817 -6.30840284 8.61227103 -11 12 C-11.33 11.34 -11.66 10.68 -12 10 C-11 8 -11 8 -8.25 6.6875 C-4.79238977 4.89220238 -2.62083128 2.8520811 0 0 Z " fill="#FAB7B1" transform="translate(157,94)"/>
<path d="M0 0 C3.9492568 0.55105909 7.34920174 1.38935371 11 3 C11 3.66 11 4.32 11 5 C3.5340751 5.36717663 3.5340751 5.36717663 1 3.625 C0 2 0 2 0 0 Z " fill="#DE848B" transform="translate(185,69)"/>
<path d="M0 0 C0.66 0 1.32 0 2 0 C2 0.66 2 1.32 2 2 C3.32 2 4.64 2 6 2 C6 2.66 6 3.32 6 4 C6.99 4.33 7.98 4.66 9 5 C7.35 5.66 5.7 6.32 4 7 C4.33 8.32 4.66 9.64 5 11 C4.34 11 3.68 11 3 11 C2.01 7.37 1.02 3.74 0 0 Z " fill="#F5BDB5" transform="translate(152,54)"/>
<path d="M0 0 C0.66 0.33 1.32 0.66 2 1 C1.45730469 1.44730469 0.91460937 1.89460938 0.35546875 2.35546875 C-3.55238272 5.65777927 -6.53402476 8.45741403 -9 13 C-9.99 13.66 -10.98 14.32 -12 15 C-10.71442631 9.90203536 -8.86437268 7.50062303 -4.875 4.125 C-3.96492188 3.34382813 -3.05484375 2.56265625 -2.1171875 1.7578125 C-1.06917969 0.88769531 -1.06917969 0.88769531 0 0 Z " fill="#F5CBCE" transform="translate(68,32)"/>
<path d="M0 0 C-2.57967797 0.86689178 -5.16276127 1.71873789 -7.75 2.5625 C-8.84441406 2.9327832 -8.84441406 2.9327832 -9.9609375 3.31054688 C-10.66992188 3.53935547 -11.37890625 3.76816406 -12.109375 4.00390625 C-12.75874023 4.21861572 -13.40810547 4.4333252 -14.07714844 4.65454102 C-16.33444538 5.06008636 -17.83473482 4.69296911 -20 4 C-18.35 3.67 -16.7 3.34 -15 3 C-15 2.34 -15 1.68 -15 1 C-13.25215171 0.63536268 -11.50159498 0.2836922 -9.75 -0.0625 C-8.28820312 -0.35833984 -8.28820312 -0.35833984 -6.796875 -0.66015625 C-4.131881 -0.98397535 -2.51128277 -0.85503199 0 0 Z " fill="#EBB6B4" transform="translate(144,128)"/>
<path d="M0 0 C-2.40912355 1.36936501 -4.82574185 2.72041993 -7.25 4.0625 C-7.93191406 4.45244141 -8.61382812 4.84238281 -9.31640625 5.24414062 C-9.98027344 5.60830078 -10.64414062 5.97246094 -11.328125 6.34765625 C-11.9355957 6.68804932 -12.54306641 7.02844238 -13.16894531 7.37915039 C-15.46093824 8.15628879 -16.74457325 7.76849965 -19 7 C-17.10545176 6.03912864 -15.20930419 5.08141031 -13.3125 4.125 C-12.25675781 3.59132813 -11.20101563 3.05765625 -10.11328125 2.5078125 C-2.42829828 -1.21414914 -2.42829828 -1.21414914 0 0 Z " fill="#F6D3D6" transform="translate(35,73)"/>
<path d="M0 0 C0.99 0.66 1.98 1.32 3 2 C3.43413997 4.82190981 3.35140315 6.37987679 1.9375 8.875 C-1.17002199 10.67936761 -3.62799333 9.81177938 -7 9 C-7.33 8.34 -7.66 7.68 -8 7 C-5.03 7 -2.06 7 1 7 C0.67 4.69 0.34 2.38 0 0 Z " fill="#FBE6E0" transform="translate(196,61)"/>
<path d="M0 0 C1.65 0.33 3.3 0.66 5 1 C4.67 2.65 4.34 4.3 4 6 C2.35 5.67 0.7 5.34 -1 5 C-0.67 3.35 -0.34 1.7 0 0 Z " fill="#F2BDBB" transform="translate(66,68)"/>
<path d="M0 0 C-0.33 0.66 -0.66 1.32 -1 2 C-2.65 2 -4.3 2 -6 2 C-6 2.66 -6 3.32 -6 4 C-6.66 4 -7.32 4 -8 4 C-8.144375 4.61875 -8.28875 5.2375 -8.4375 5.875 C-9 8 -9 8 -10 10 C-10.66 10 -11.32 10 -12 10 C-10.27763566 1.78564701 -9.02936727 -0.34073084 0 0 Z " fill="#FBE2E0" transform="translate(193,46)"/>
<path d="M0 0 C0.99 0.33 1.98 0.66 3 1 C3 1.99 3 2.98 3 4 C-2.17578125 7.22265625 -2.17578125 7.22265625 -4 8 C-4.99 7.67 -5.98 7.34 -7 7 C-5.37660195 5.29115995 -3.70680947 3.62553283 -2 2 C-1.34 2 -0.68 2 0 2 C0 1.34 0 0.68 0 0 Z " fill="#F4A8A0" transform="translate(73,34)"/>
<path d="M0 0 C1.9375 0.6875 1.9375 0.6875 4 2 C4.75 4.625 4.75 4.625 5 7 C3.53775201 6.57576756 2.08026588 6.13509755 0.625 5.6875 C-0.18710938 5.44386719 -0.99921875 5.20023437 -1.8359375 4.94921875 C-4 4 -4 4 -6 1 C-3.525 1.495 -3.525 1.495 -1 2 C-0.67 1.34 -0.34 0.68 0 0 Z " fill="#E9898E" transform="translate(99,111)"/>
<path d="M0 0 C0 0.66 0 1.32 0 2 C-1.60256108 2.50512244 -3.20711792 3.00391627 -4.8125 3.5 C-6.15248047 3.91765625 -6.15248047 3.91765625 -7.51953125 4.34375 C-10 5 -10 5 -13 5 C-12.67 4.01 -12.34 3.02 -12 2 C-10.0390625 1.26953125 -10.0390625 1.26953125 -7.625 0.8125 C-6.83351563 0.65394531 -6.04203125 0.49539062 -5.2265625 0.33203125 C-3 0 -3 0 0 0 Z " fill="#DE7C7E" transform="translate(28,79)"/>
<path d="M0 0 C0.99 0.33 1.98 0.66 3 1 C3 1.99 3 2.98 3 4 C3.66 4 4.32 4 5 4 C5 2.68 5 1.36 5 0 C6.65 0 8.3 0 10 0 C9.34 1.98 8.68 3.96 8 6 C7.34 5.67 6.68 5.34 6 5 C5.34 5.66 4.68 6.32 4 7 C4 6.34 4 5.68 4 5 C3.34 5 2.68 5 2 5 C1.34 3.35 0.68 1.7 0 0 Z " fill="#E48789" transform="translate(163,59)"/>
<path d="M0 0 C1.32 0.33 2.64 0.66 4 1 C4 1.66 4 2.32 4 3 C-4.415 3.495 -4.415 3.495 -13 4 C-13 3.34 -13 2.68 -13 2 C-8.71 2 -4.42 2 0 2 C0 1.34 0 0.68 0 0 Z " fill="#FAB5AF" transform="translate(127,43)"/>
<path d="M0 0 C0.66 0 1.32 0 2 0 C1.44271087 3.34373475 0.64826111 6.03312999 -1 9 C-1.99 9 -2.98 9 -4 9 C-3.67 6.69 -3.34 4.38 -3 2 C-2.34 2 -1.68 2 -1 2 C-0.67 1.34 -0.34 0.68 0 0 Z " fill="#DE7B7D" transform="translate(91,62)"/>
<path d="M0 0 C1.485 0.99 1.485 0.99 3 2 C2.67 4.97 2.34 7.94 2 11 C1.01 10.34 0.02 9.68 -1 9 C-0.67 6.03 -0.34 3.06 0 0 Z " fill="#E18587" transform="translate(200,61)"/>
<path d="M0 0 C0 0.33 0 0.66 0 1 C-1.65 1 -3.3 1 -5 1 C-5 1.66 -5 2.32 -5 3 C-7.31 3.33 -9.62 3.66 -12 4 C-12 3.34 -12 2.68 -12 2 C-12.66 1.67 -13.32 1.34 -14 1 C-8.83955235 -0.512545 -5.34001821 -1.33500455 0 0 Z " fill="#E78380" transform="translate(96,26)"/>
<path d="M0 0 C0 0.99 0 1.98 0 3 C0.66 3.33 1.32 3.66 2 4 C1.360625 4.12375 0.72125 4.2475 0.0625 4.375 C-0.9584375 4.684375 -0.9584375 4.684375 -2 5 C-2.33 5.66 -2.66 6.32 -3 7 C-3 6.34 -3 5.68 -3 5 C-3.99 4.67 -4.98 4.34 -6 4 C-2.25 0 -2.25 0 0 0 Z " fill="#E38F94" transform="translate(75,29)"/>
<path d="M0 0 C2 1 2 1 2.9375 3.375 C3.98373709 5.95982105 4.92113535 7.2046169 7 9 C6.01 9.33 5.02 9.66 4 10 C1 8 1 8 0 7 C-0.04092937 4.66702567 -0.04241723 2.33294775 0 0 Z " fill="#E07E85" transform="translate(151,11)"/>
<path d="M0 0 C0.33 0 0.66 0 1 0 C1.28571429 8.57142857 1.28571429 8.57142857 -1 12 C-2.17353189 8.47940432 -2.20146402 5.693507 -2 2 C-1.34 1.34 -0.68 0.68 0 0 Z " fill="#DF787C" transform="translate(83,82)"/>
<path d="M0 0 C1.98 0.495 1.98 0.495 4 1 C4 2.65 4 4.3 4 6 C2.35 6 0.7 6 -1 6 C-0.67 4.02 -0.34 2.04 0 0 Z " fill="#ECBDB9" transform="translate(78,44)"/>
<path d="M0 0 C0 0.66 0 1.32 0 2 C0.99 2.66 1.98 3.32 3 4 C0 5 0 5 -2 4.375 C-2.66 4.25125 -3.32 4.1275 -4 4 C-5.77190909 5.35444301 -5.77190909 5.35444301 -7 7 C-7 4 -7 4 -5.625 2.375 C-3.66958144 0.72041507 -2.58724217 0 0 0 Z " fill="#E79092" transform="translate(103,52)"/>
<path d="M0 0 C0.33 0.66 0.66 1.32 1 2 C3.52733235 2.65555119 3.52733235 2.65555119 6 3 C5.67 3.66 5.34 4.32 5 5 C1.54956883 6.15014372 -1.35282355 7 -5 7 C-4.54625 6.5875 -4.0925 6.175 -3.625 5.75 C-1.94049626 3.93591905 -1.00734029 2.24714373 0 0 Z " fill="#E58488" transform="translate(62,39)"/>
<path d="M0 0 C2.31 0.66 4.62 1.32 7 2 C4.57479454 4.42520546 3.37932259 4.68564441 0 5 C-2.8125 4.0625 -2.8125 4.0625 -5 3 C-4.360625 2.87625 -3.72125 2.7525 -3.0625 2.625 C-2.0415625 2.315625 -2.0415625 2.315625 -1 2 C-0.67 1.34 -0.34 0.68 0 0 Z " fill="#E18B8D" transform="translate(31,119)"/>
<path d="M0 0 C1.32 0.33 2.64 0.66 4 1 C4 2.32 4 3.64 4 5 C3.01 5.495 3.01 5.495 2 6 C1.34227572 9.02934491 1.34227572 9.02934491 1 12 C0.67 12 0.34 12 0 12 C0 8.04 0 4.08 0 0 Z " fill="#E8AAA8" transform="translate(173,68)"/>
<path d="M0 0 C0.66 0.33 1.32 0.66 2 1 C0.25440596 3.9093234 -0.81346183 4.92227576 -4 6.25 C-7 7 -7 7 -10 7 C-6.81404865 4.36021174 -3.69029454 1.89501612 0 0 Z " fill="#F7BAB5" transform="translate(73,43)"/>
<path d="M0 0 C-0.33 0.66 -0.66 1.32 -1 2 C-2.99609375 2.44921875 -2.99609375 2.44921875 -5.4375 2.6875 C-6.24058594 2.77386719 -7.04367188 2.86023438 -7.87109375 2.94921875 C-10 3 -10 3 -12 2 C-3.38461538 -1.69230769 -3.38461538 -1.69230769 0 0 Z " fill="#E78385" transform="translate(143,124)"/>
<path d="M0 0 C2.475 0.495 2.475 0.495 5 1 C4.67 2.32 4.34 3.64 4 5 C3.01 5 2.02 5 1 5 C0.67 3.35 0.34 1.7 0 0 Z " fill="#F0B9B6" transform="translate(25,87)"/>
<path d="M0 0 C2.31 0 4.62 0 7 0 C7.33 1.32 7.66 2.64 8 4 C3.545 3.01 3.545 3.01 -1 2 C-0.67 1.34 -0.34 0.68 0 0 Z " fill="#E08388" transform="translate(142,28)"/>
<path d="M0 0 C1.65 0 3.3 0 5 0 C5.66 1.32 6.32 2.64 7 4 C3 4 3 4 1.25 2.5625 C0 1 0 1 0 0 Z " fill="#E07A7F" transform="translate(92,109)"/>
<path d="M0 0 C0.33 1.32 0.66 2.64 1 4 C0.34 4 -0.32 4 -1 4 C-1 5.32 -1 6.64 -1 8 C-1.99 8 -2.98 8 -4 8 C-3.6875 5.125 -3.6875 5.125 -3 2 C-2.01 1.34 -1.02 0.68 0 0 Z " fill="#DD797E" transform="translate(171,96)"/>
<path d="M0 0 C1.32 0 2.64 0 4 0 C3.67 1.65 3.34 3.3 3 5 C2.01 5 1.02 5 0 5 C-0.66 4.01 -1.32 3.02 -2 2 C-1.34 2 -0.68 2 0 2 C0 1.34 0 0.68 0 0 Z " fill="#EEBCB9" transform="translate(114,92)"/>
<path d="M0 0 C0.66 0.99 1.32 1.98 2 3 C1.01 3 0.02 3 -1 3 C-1 3.99 -1 4.98 -1 6 C-1.66 6 -2.32 6 -3 6 C-3.66 7.32 -4.32 8.64 -5 10 C-5.33 9.34 -5.66 8.68 -6 8 C-2.25 2.25 -2.25 2.25 0 0 Z " fill="#FABFBB" transform="translate(95,63)"/>
<path d="M0 0 C0.33 0.66 0.66 1.32 1 2 C1.99 2.33 2.98 2.66 4 3 C2.68 3.99 1.36 4.98 0 6 C0 5.01 0 4.02 0 3 C-0.66 3 -1.32 3 -2 3 C-2.33 4.32 -2.66 5.64 -3 7 C-3.33 5.68 -3.66 4.36 -4 3 C-2.68 2.01 -1.36 1.02 0 0 Z " fill="#E4898A" transform="translate(93,59)"/>
<path d="M0 0 C0.66 0.33 1.32 0.66 2 1 C1.67 1.99 1.34 2.98 1 4 C1.66 4 2.32 4 3 4 C2.67 4.66 2.34 5.32 2 6 C-0.5625 6.625 -0.5625 6.625 -3 7 C-2.25 2.25 -2.25 2.25 0 0 Z " fill="#E8B0B3" transform="translate(182,42)"/>
<path d="M0 0 C-9.92088132 4.38808212 -9.92088132 4.38808212 -15 3 C-13.25531628 2.29911844 -11.50398839 1.61475991 -9.75 0.9375 C-8.77546875 0.55464844 -7.8009375 0.17179687 -6.796875 -0.22265625 C-3.95992605 -1.01113787 -2.70590448 -1.02437812 0 0 Z " fill="#FBC0BB" transform="translate(91,39)"/>
<path d="M0 0 C3.3 0 6.6 0 10 0 C10 0.99 10 1.98 10 3 C3.375 2.25 3.375 2.25 0 0 Z " fill="#F6ABA6" transform="translate(111,32)"/>
<path d="M0 0 C1.65 0 3.3 0 5 0 C5 1.32 5 2.64 5 4 C3.35 4 1.7 4 0 4 C0 2.68 0 1.36 0 0 Z " fill="#EDB6B4" transform="translate(48,88)"/>
<path d="M0 0 C1.32 0 2.64 0 4 0 C4 1.65 4 3.3 4 5 C2.68 5 1.36 5 0 5 C0 3.35 0 1.7 0 0 Z " fill="#EFB7B6" transform="translate(49,69)"/>
<path d="M0 0 C0.33 0 0.66 0 1 0 C1 3.96 1 7.92 1 12 C0.34 12 -0.32 12 -1 12 C-2.36884358 7.48281619 -1.47075246 4.41225737 0 0 Z " fill="#ED9899" transform="translate(197,48)"/>
<path d="M0 0 C1.65 0 3.3 0 5 0 C5.33 0.99 5.66 1.98 6 3 C2.25 4.125 2.25 4.125 0 3 C0 2.01 0 1.02 0 0 Z " fill="#ECB7B2" transform="translate(104,59)"/>
<path d="M0 0 C-0.5 1.9375 -0.5 1.9375 -2 4 C-4.69658452 4.68790422 -7.2017019 4.81946464 -10 5 C-7.30495181 2.30495181 -3.91639523 0 0 0 Z " fill="#F9ADA9" transform="translate(142,114)"/>
<path d="M0 0 C1.65 0 3.3 0 5 0 C4.67 1.32 4.34 2.64 4 4 C2.68 3.67 1.36 3.34 0 3 C0 2.01 0 1.02 0 0 Z " fill="#EDB4B3" transform="translate(124,81)"/>
<path d="M0 0 C2.50037734 2.17424117 3.43628586 3.73045798 4 7 C2.68 6.67 1.36 6.34 0 6 C0 4 0 2 0 0 Z " fill="#F6ABA4" transform="translate(128,32)"/>
<path d="M0 0 C0.33 0.66 0.66 1.32 1 2 C1.99 2 2.98 2 4 2 C3.67 3.65 3.34 5.3 3 7 C1.68 6.01 0.36 5.02 -1 4 C-0.67 2.68 -0.34 1.36 0 0 Z " fill="#E59496" transform="translate(166,102)"/>
<path d="M0 0 C0 3 0 3 -1 5 C-0.34 5.33 0.32 5.66 1 6 C0.01 6.66 -0.98 7.32 -2 8 C-2.6875 5.6875 -2.6875 5.6875 -3 3 C-1.5625 1.1875 -1.5625 1.1875 0 0 Z " fill="#FAD4D2" transform="translate(136,25)"/>
</svg>
