<?xml version="1.0" encoding="UTF-8"?>
<svg version="1.1" xmlns="http://www.w3.org/2000/svg" width="198" height="181">
<path d="M0 0 C8.04287851 4.22454225 15.6039501 10.66459519 18.9375 19.3125 C19.288125 20.529375 19.63875 21.74625 20 23 C20.18046875 23.60328125 20.3609375 24.2065625 20.546875 24.828125 C22.78341483 35.54809177 21.15793013 47.58948674 15.17578125 56.8125 C13.52279006 58.95837092 11.83317232 61.00719751 10 63 C10.74721313 63.39155273 10.74721313 63.39155273 11.50952148 63.79101562 C35.80771903 76.62419477 35.80771903 76.62419477 42 91 C42.598125 92.03125 43.19625 93.0625 43.8125 94.125 C45.46171816 98.11784396 45.49443254 100.69137356 45 105 C43.3125 106.8125 43.3125 106.8125 41 108 C39.88625 108.680625 39.88625 108.680625 38.75 109.375 C37.8425 109.91125 36.935 110.4475 36 111 C35.40058594 111.40605469 34.80117187 111.81210938 34.18359375 112.23046875 C23.67318113 119.2442666 12.10053925 119.27276382 -0.08764648 117.02026367 C-4.92293657 116.05248834 -9.46825215 114.97032515 -14 113 C-13.9175 113.94875 -13.835 114.8975 -13.75 115.875 C-13.79747789 121.72665019 -15.68796967 127.38689446 -19.58984375 131.796875 C-32.86859275 142.68937947 -51.9882423 144.18693343 -68.42578125 142.6875 C-77.69552761 141.51172243 -82.82983616 138.25371977 -89.875 132.125 C-91.32519531 130.89136719 -91.32519531 130.89136719 -92.8046875 129.6328125 C-95 127 -95 127 -95.3828125 123.8046875 C-95 121 -95 121 -94 119 C-94.94359375 118.85304688 -95.8871875 118.70609375 -96.859375 118.5546875 C-111.32383305 116.0277641 -125.23959119 110.41057915 -134 98 C-139.21194828 87.91065417 -140.73380286 77.6287326 -138.19921875 66.4765625 C-134.45721593 55.64918664 -127.35486334 47.06280219 -117 42 C-116.02417969 41.51144531 -115.04835938 41.02289063 -114.04296875 40.51953125 C-108.75022821 38.2842408 -103.06700083 37.59547857 -97.4375 36.625 C-79.19843806 33.27758078 -67.10750922 29.36355015 -55.13378906 14.828125 C-42.17436781 -0.73391294 -19.27876721 -9.05621805 0 0 Z M-38 81 C-39.21899269 82.28330406 -40.4007894 83.60211953 -41.5625 84.9375 C-42.20316406 85.66839844 -42.84382813 86.39929688 -43.50390625 87.15234375 C-45.10488213 88.73329124 -45.10488213 88.73329124 -45 90 C-42.6739143 90.38063221 -40.33944736 90.71269945 -38 91 C-36.76732652 89.99163938 -36.76732652 89.99163938 -36.90234375 87.93359375 C-36.91394531 87.10988281 -36.92554687 86.28617187 -36.9375 85.4375 C-36.94652344 84.61121094 -36.95554687 83.78492187 -36.96484375 82.93359375 C-36.97644531 82.29550781 -36.98804687 81.65742187 -37 81 C-37.33 81 -37.66 81 -38 81 Z " fill="#E8BD54" transform="translate(142,6)"/>
<path d="M0 0 C1.12535156 -0.04447266 1.12535156 -0.04447266 2.2734375 -0.08984375 C10.8847493 0.01302175 17.8910052 4.89422227 25.17041016 9.01904297 C27.11499342 10.10625409 27.11499342 10.10625409 29.76171875 11.09765625 C37.91092205 14.38293716 41.645834 21.36419028 45 29 C45.598125 30.03125 46.19625 31.0625 46.8125 32.125 C48.46171816 36.11784396 48.49443254 38.69137356 48 43 C46.3125 44.8125 46.3125 44.8125 44 46 C42.88625 46.680625 42.88625 46.680625 41.75 47.375 C40.8425 47.91125 39.935 48.4475 39 49 C38.40058594 49.40605469 37.80117187 49.81210938 37.18359375 50.23046875 C26.67318113 57.2442666 15.10053925 57.27276382 2.91235352 55.02026367 C-1.92293657 54.05248834 -6.46825215 52.97032515 -11 51 C-10.9175 51.94875 -10.835 52.8975 -10.75 53.875 C-10.79747789 59.72665019 -12.68796967 65.38689446 -16.58984375 69.796875 C-29.86859275 80.68937947 -48.9882423 82.18693343 -65.42578125 80.6875 C-71.58703511 79.90600461 -76.18588106 79.15764818 -81 75 C-81.77601562 74.43152344 -82.55203125 73.86304688 -83.3515625 73.27734375 C-89.5795816 68.42797284 -89.5795816 68.42797284 -90.6796875 64.69140625 C-90.82862205 59.7848401 -89.50046649 56.23155867 -87 52 C-86.71125 51.20207031 -86.4225 50.40414062 -86.125 49.58203125 C-82.34899885 40.91558417 -73.95135977 36.95494346 -65.67578125 33.6875 C-63.37449453 32.79635267 -61.0687111 31.91669801 -58.7578125 31.05078125 C-56.09168598 30.08727845 -56.09168598 30.08727845 -54 29 C-52.5534758 28.84932786 -51.1012066 28.75138964 -49.6484375 28.68359375 C-48.79765625 28.64169922 -47.946875 28.59980469 -47.0703125 28.55664062 C-46.18085937 28.51732422 -45.29140625 28.47800781 -44.375 28.4375 C-43.4778125 28.39431641 -42.580625 28.35113281 -41.65625 28.30664062 C-39.43768761 28.20043285 -37.21886435 28.09970041 -35 28 C-34.34 23.05 -33.68 18.1 -33 13 C-32.34 13 -31.68 13 -31 13 C-30.8453125 12.0409375 -30.8453125 12.0409375 -30.6875 11.0625 C-30.3471875 10.0415625 -30.3471875 10.0415625 -30 9 C-29.01 8.67 -28.02 8.34 -27 8 C-26.67 7.01 -26.34 6.02 -26 5 C-23.671875 3.8671875 -23.671875 3.8671875 -20.75 2.875 C-19.31914062 2.37613281 -19.31914062 2.37613281 -17.859375 1.8671875 C-11.76729612 0.01958981 -6.31711134 -0.15839365 0 0 Z " fill="#AB3319" transform="translate(139,68)"/>
<path d="M0 0 C5.98985238 4.3330847 11.10738749 8.91501898 14.8359375 15.328125 C15.8259375 16.813125 15.8259375 16.813125 16.8359375 18.328125 C16.62444906 25.55257 13.48187032 28.78647375 8.66015625 33.80078125 C-1.40393471 42.80695947 -15.09055603 44.8311071 -28.21728516 44.23486328 C-39.21434542 43.43120233 -49.21308118 41.46401287 -57.1640625 33.328125 C-61.71996886 27.23939033 -62.13028392 20.71922083 -61.1640625 13.328125 C-59.40766003 7.11316241 -55.52732872 2.80230555 -50.1640625 -0.671875 C-36.94438744 -7.10578529 -12.90168227 -7.549456 0 0 Z " fill="#F2CF97" transform="translate(178.1640625,135.671875)"/>
<path d="M0 0 C8.04287851 4.22454225 15.6039501 10.66459519 18.9375 19.3125 C19.288125 20.529375 19.63875 21.74625 20 23 C20.18046875 23.60328125 20.3609375 24.2065625 20.546875 24.828125 C22.78341483 35.54809177 21.15793013 47.58948674 15.17578125 56.8125 C13.53485472 58.94270888 11.77793364 60.98272914 10 63 C15.28 65.97 20.56 68.94 26 72 C25.01 72.495 25.01 72.495 24 73 C22.37109375 72.30322266 22.37109375 72.30322266 20.4375 71.1640625 C19.72795166 70.75921631 19.01840332 70.35437012 18.28735352 69.93725586 C17.53252686 69.50421143 16.7777002 69.07116699 16 68.625 C9.57345038 65.08499132 4.46576211 62.72781076 -3 63 C-3.804375 62.95488281 -4.60875 62.90976563 -5.4375 62.86328125 C-13.87801876 62.48082024 -24.6831633 64.28272395 -31.25 69.9375 C-33.19842707 71.97419763 -33.19842707 71.97419763 -34 75 C-34.66 75 -35.32 75 -36 75 C-35.9175 75.72574219 -35.835 76.45148438 -35.75 77.19921875 C-36.08049762 80.9018249 -37.46132701 82.15482672 -40 84.8125 C-40.7425 85.60269531 -41.485 86.39289063 -42.25 87.20703125 C-42.8275 87.79871094 -43.405 88.39039062 -44 89 C-42.35 89.33 -40.7 89.66 -39 90 C-39 90.33 -39 90.66 -39 91 C-40.22976562 91.03738281 -41.45953125 91.07476562 -42.7265625 91.11328125 C-44.35940401 91.17897028 -45.99221518 91.24541659 -47.625 91.3125 C-48.43324219 91.33505859 -49.24148437 91.35761719 -50.07421875 91.38085938 C-55.14830343 91.60774934 -58.50018196 92.46561973 -63 95 C-65.5546875 95.73046875 -65.5546875 95.73046875 -67.875 96.1875 C-68.65617187 96.34605469 -69.43734375 96.50460938 -70.2421875 96.66796875 C-71.11230469 96.83232422 -71.11230469 96.83232422 -72 97 C-72 96.01 -72 95.02 -72 94 C-70.68 93.67 -69.36 93.34 -68 93 C-68 92.34 -68 91.68 -68 91 C-66.125 88.875 -66.125 88.875 -64 87 C-63.34 87 -62.68 87 -62 87 C-61.855625 86.278125 -61.71125 85.55625 -61.5625 84.8125 C-61.04166667 82.20833333 -60.52083333 79.60416667 -60 77 C-60.66 76.67 -61.32 76.34 -62 76 C-61.125 71.125 -61.125 71.125 -60 70 C-57.66702567 69.95907063 -55.33294775 69.95758277 -53 70 C-53 69.34 -53 68.68 -53 68 C-52.34 68 -51.68 68 -51 68 C-51 67.34 -51 66.68 -51 66 C-50 64.4375 -50 64.4375 -48 63 C-45.27745356 62.49582473 -42.75018348 62.20371729 -40 62 C-38.8965625 61.896875 -37.793125 61.79375 -36.65625 61.6875 C-27.28383459 60.85808271 -27.28383459 60.85808271 -25 62 C-25 61.01 -25 60.02 -25 59 C-18.53205867 57.48766299 -12.64409958 56.78567421 -6 57 C-5.67 56.01 -5.34 55.02 -5 54 C-3.68 54 -2.36 54 -1 54 C-1 53.34 -1 52.68 -1 52 C1.97 51.505 1.97 51.505 5 51 C5.02578125 50.30132812 5.0515625 49.60265625 5.078125 48.8828125 C5.13484375 47.97273438 5.1915625 47.06265625 5.25 46.125 C5.29640625 45.22007813 5.3428125 44.31515625 5.390625 43.3828125 C5.59171875 42.59648438 5.7928125 41.81015625 6 41 C7.921875 39.8671875 7.921875 39.8671875 10 39 C10.66 38.01 11.32 37.02 12 36 C12.66 36 13.32 36 14 36 C14.50853214 28.44264733 14.03497212 22.54319803 10 16 C7.89719366 13.64340632 7.89719366 13.64340632 6 12 C6 11.34 6 10.68 6 10 C5.236875 9.773125 4.47375 9.54625 3.6875 9.3125 C0.5220879 8.1858279 -2.25613902 6.8740538 -5.25 5.375 C-10.79982893 2.83600944 -14.98587179 2.35595309 -21 3 C-21.94746094 3.06058594 -22.89492187 3.12117187 -23.87109375 3.18359375 C-35.93626004 4.45443701 -45.27690726 11.98619861 -53 21 C-53.33 21.66 -53.66 22.32 -54 23 C-54.66 23 -55.32 23 -56 23 C-56.08507812 24.12535156 -56.08507812 24.12535156 -56.171875 25.2734375 C-57.29734551 28.97899606 -58.95200816 29.69382296 -62.25 31.625 C-63.20390625 32.19476563 -64.1578125 32.76453125 -65.140625 33.3515625 C-66.08421875 33.89554688 -67.0278125 34.43953125 -68 35 C-68.87398438 35.55300781 -69.74796875 36.10601562 -70.6484375 36.67578125 C-73.72743817 38.40963711 -76.50614896 38.57832832 -80 39 C-81.0209375 39.30808594 -82.041875 39.61617187 -83.09375 39.93359375 C-88.54274071 41.53968051 -94.17588927 42.10707309 -99.79296875 42.85546875 C-104.17280125 43.46983439 -107.92138923 44.21464585 -112 46 C-112.99 46 -113.98 46 -115 46 C-115 46.66 -115 47.32 -115 48 C-116.37949132 48.95208482 -117.80557288 49.83715178 -119.25 50.6875 C-123.80967733 53.59564066 -125.75789118 56.12585039 -128 61 C-128.66 61 -129.32 61 -130 61 C-131.75978649 67.04448405 -132.28164304 72.40964594 -132.1875 78.6875 C-132.18685547 79.51572266 -132.18621094 80.34394531 -132.18554688 81.19726562 C-132.15630787 85.25499009 -132.00750944 89.04250292 -131 93 C-130.34 93 -129.68 93 -129 93 C-128.54625 93.763125 -128.0925 94.52625 -127.625 95.3125 C-125.9829082 98.0282672 -124.52210243 99.17364996 -122 101 C-122 101.66 -122 102.32 -122 103 C-120.515 103.495 -120.515 103.495 -119 104 C-119 104.66 -119 105.32 -119 106 C-118.34 106 -117.68 106 -117 106 C-117 106.66 -117 107.32 -117 108 C-115.576875 108.185625 -115.576875 108.185625 -114.125 108.375 C-111 109 -111 109 -109 111 C-106.34794717 111.30892044 -103.78557311 111.51198451 -101.125 111.625 C-100.40441406 111.66367188 -99.68382812 111.70234375 -98.94140625 111.7421875 C-95.62209468 111.91334905 -92.32435599 112 -89 112 C-89.433125 113.175625 -89.433125 113.175625 -89.875 114.375 C-91.26760284 118.8622758 -92.14271981 123.385279 -93 128 C-93.66 127.67 -94.32 127.34 -95 127 C-95.125 121.25 -95.125 121.25 -94 119 C-94.94359375 118.85304688 -95.8871875 118.70609375 -96.859375 118.5546875 C-111.32383305 116.0277641 -125.23959119 110.41057915 -134 98 C-139.21194828 87.91065417 -140.73380286 77.6287326 -138.19921875 66.4765625 C-134.45721593 55.64918664 -127.35486334 47.06280219 -117 42 C-116.02417969 41.51144531 -115.04835938 41.02289063 -114.04296875 40.51953125 C-108.75022821 38.2842408 -103.06700083 37.59547857 -97.4375 36.625 C-79.19843806 33.27758078 -67.10750922 29.36355015 -55.13378906 14.828125 C-42.17436781 -0.73391294 -19.27876721 -9.05621805 0 0 Z " fill="#D29F19" transform="translate(142,6)"/>
<path d="M0 0 C0.71607422 0.00064453 1.43214844 0.00128906 2.16992188 0.00195312 C8.98877831 0.05779453 14.68480563 0.44244618 20.60546875 4.14453125 C23.16361588 5.60087514 25.84597209 6.47902801 28.640625 7.37890625 C30.75582786 8.33074753 31.96654375 9.40328455 33.4375 11.1875 C33.4375 11.8475 33.4375 12.5075 33.4375 13.1875 C34.22125 13.331875 35.005 13.47625 35.8125 13.625 C38.4375 14.1875 38.4375 14.1875 40.4375 15.1875 C41.45279541 17.51421865 42.45238198 19.8478447 43.4375 22.1875 C44.4275 23.1775 44.4275 23.1775 45.4375 24.1875 C45.90126812 31.49184783 45.90126812 31.49184783 43.4375 35.1875 C40.72265625 35.8828125 40.72265625 35.8828125 37.5 36.3125 C34.31003437 36.75436644 31.49670211 37.16776596 28.4375 38.1875 C19.78864199 39.14956398 11.86605516 39.74616853 3.4375 37.1875 C3.4375 36.5275 3.4375 35.8675 3.4375 35.1875 C2.57125 35.5278125 2.57125 35.5278125 1.6875 35.875 C-0.5625 36.1875 -0.5625 36.1875 -2.3671875 34.88671875 C-3.09164062 34.32597656 -3.81609375 33.76523438 -4.5625 33.1875 C-6.34069239 32.20439061 -8.13347394 31.24735945 -9.9375 30.3125 C-11.81792184 29.28065304 -13.69339893 28.23971464 -15.5625 27.1875 C-16.54283203 26.63642578 -16.54283203 26.63642578 -17.54296875 26.07421875 C-21.22952676 23.57100035 -22.15734427 20.91034308 -23.0625 16.75 C-23.63247549 12.38410526 -23.82192459 9.11693407 -21.5625 5.1875 C-15.54637271 0.23304223 -7.46536496 -0.12836374 0 0 Z " fill="#BE3E21" transform="translate(134.5625,71.8125)"/>
<path d="M0 0 C1.05513794 0.00797607 1.05513794 0.00797607 2.1315918 0.01611328 C8.68616835 0.13546595 14.62254718 0.54003146 20.1875 4.25 C20.1875 4.91 20.1875 5.57 20.1875 6.25 C21.5075 6.58 22.8275 6.91 24.1875 7.25 C24.1875 8.24 24.1875 9.23 24.1875 10.25 C25.1775 10.25 26.1675 10.25 27.1875 10.25 C27.1875 10.91 27.1875 11.57 27.1875 12.25 C26.5275 12.25 25.8675 12.25 25.1875 12.25 C25.1875 12.91 25.1875 13.57 25.1875 14.25 C26.1775 14.58 27.1675 14.91 28.1875 15.25 C27.5275 15.58 26.8675 15.91 26.1875 16.25 C26.01734375 17.41982422 26.01734375 17.41982422 25.84375 18.61328125 C25.1875 21.25 25.1875 21.25 23.15625 22.98046875 C22.3415625 23.46128906 21.526875 23.94210938 20.6875 24.4375 C17.33502456 26.27581436 17.33502456 26.27581436 15.1875 29.25 C9.11996488 31.96442361 3.54687621 32.70672324 -3 33.3125 C-3.92103516 33.40337891 -4.84207031 33.49425781 -5.79101562 33.58789062 C-20.61052323 34.98675117 -20.61052323 34.98675117 -27.8125 32.25 C-29.53618754 31.67092758 -31.26589427 31.10958401 -33 30.5625 C-33.83917969 30.29050781 -34.67835937 30.01851562 -35.54296875 29.73828125 C-37.96070056 29.01679271 -37.96070056 29.01679271 -40.8125 30.25 C-41.1425 29.26 -41.4725 28.27 -41.8125 27.25 C-41.1525 27.25 -40.4925 27.25 -39.8125 27.25 C-39.73 26.21875 -39.6475 25.1875 -39.5625 24.125 C-38.33731867 17.79489645 -34.71858744 13.3384062 -29.8125 9.25 C-26.5 8.4375 -26.5 8.4375 -23.8125 8.25 C-23.8125 7.59 -23.8125 6.93 -23.8125 6.25 C-22.27175192 5.62273892 -20.72985077 4.9983099 -19.1875 4.375 C-18.32898438 4.02695313 -17.47046875 3.67890625 -16.5859375 3.3203125 C-15.67070313 2.96710938 -14.75546875 2.61390625 -13.8125 2.25 C-12.87277344 1.88132812 -11.93304688 1.51265625 -10.96484375 1.1328125 C-7.26541942 0.09679032 -3.80840089 -0.05166699 0 0 Z " fill="#C4512E" transform="translate(93.8125,99.75)"/>
<path d="M0 0 C5.98985238 4.3330847 11.10738749 8.91501898 14.8359375 15.328125 C15.8259375 16.813125 15.8259375 16.813125 16.8359375 18.328125 C16.62444906 25.55257 13.48187032 28.78647375 8.66015625 33.80078125 C-1.40393471 42.80695947 -15.09055603 44.8311071 -28.21728516 44.23486328 C-39.21434542 43.43120233 -49.21308118 41.46401287 -57.1640625 33.328125 C-61.71996886 27.23939033 -62.13028392 20.71922083 -61.1640625 13.328125 C-59.40766003 7.11316241 -55.52732872 2.80230555 -50.1640625 -0.671875 C-36.94438744 -7.10578529 -12.90168227 -7.549456 0 0 Z M-53.1640625 6.328125 C-55.26409165 9.38271285 -56.00652812 11.71111534 -56.9140625 15.265625 C-55.65516102 20.40613939 -51.4820422 22.60352119 -47.1640625 25.328125 C-40.04453655 29.25959014 -32.72574779 29.50938547 -24.7890625 29.515625 C-23.57089844 29.53399414 -23.57089844 29.53399414 -22.328125 29.55273438 C-13.90464291 29.57298313 -7.22470742 27.69984425 0.2109375 23.828125 C0.82582031 23.52003906 1.44070312 23.21195313 2.07421875 22.89453125 C4.67429221 21.56889205 6.75951636 20.40454614 8.8359375 18.328125 C9.53018774 14.75769517 8.87593423 13.39345299 6.9609375 10.265625 C3.94155918 6.87208741 0.28010822 5.67636096 -3.95703125 4.28515625 C-6.1640625 3.328125 -6.1640625 3.328125 -8.1640625 0.328125 C-11.57593194 -0.68046291 -14.86073908 -0.80018123 -18.40234375 -0.8046875 C-19.88057617 -0.80662109 -19.88057617 -0.80662109 -21.38867188 -0.80859375 C-22.40767578 -0.80472656 -23.42667969 -0.80085937 -24.4765625 -0.796875 C-25.48396484 -0.80074219 -26.49136719 -0.80460938 -27.52929688 -0.80859375 C-37.60745012 -0.79546261 -45.25668736 -0.5667204 -53.1640625 6.328125 Z " fill="#E8BF7D" transform="translate(178.1640625,135.671875)"/>
<path d="M0 0 C1.32 0.33 2.64 0.66 4 1 C4 1.66 4 2.32 4 3 C4.556875 3.04125 5.11375 3.0825 5.6875 3.125 C9.67030477 4.63200721 12.12992356 8.25984712 14 12 C14.07065617 14.04055005 14.08421976 16.08334257 14.0625 18.125 C14.05347656 19.22070312 14.04445313 20.31640625 14.03515625 21.4453125 C14.02355469 22.28835937 14.01195313 23.13140625 14 24 C14.66 24 15.32 24 16 24 C15.51758688 29.06533778 14.31597054 32.11788814 11 36 C1.7910447 43.24461846 -10.40026293 46.53841877 -22 47 C-23.36511719 47.05994141 -23.36511719 47.05994141 -24.7578125 47.12109375 C-41.22550174 47.48656466 -49.99639861 43.98996394 -62 33 C-60 32 -60 32 -57 32 C-58.32 31.34 -59.64 30.68 -61 30 C-60.67 28.02 -60.34 26.04 -60 24 C-59.01 23.67 -58.02 23.34 -57 23 C-57.33 24.65 -57.66 26.3 -58 28 C-57.14148437 27.46632812 -57.14148437 27.46632812 -56.265625 26.921875 C-53.44250431 25.77315693 -52.53816342 26.14676987 -49.75 27.25 C-48.95980469 27.54003906 -48.16960938 27.83007812 -47.35546875 28.12890625 C-46.18951172 28.56009766 -46.18951172 28.56009766 -45 29 C-35.99646395 31.91959324 -27.40097258 31.14310654 -18.125 30.125 C-17.38709229 30.04668945 -16.64918457 29.96837891 -15.88891602 29.88769531 C-12.16336287 29.44211421 -9.29284709 28.75716952 -6 27 C-4.68 27 -3.36 27 -2 27 C-1.79375 26.4225 -1.5875 25.845 -1.375 25.25 C0.51625222 22.15522364 2.90035937 20.8081237 6 19 C6.66 19 7.32 19 8 19 C8.66 17.02 9.32 15.04 10 13 C9.01 12.505 9.01 12.505 8 12 C8 11.34 8 10.68 8 10 C8.66 10 9.32 10 10 10 C10 9.34 10 8.68 10 8 C8.35 8.33 6.7 8.66 5 9 C5.33 7.68 5.66 6.36 6 5 C5.01 4.67 4.02 4.34 3 4 C3 3.34 3 2.68 3 2 C2.01 1.67 1.02 1.34 0 1 C0 0.67 0 0.34 0 0 Z " fill="#B44625" transform="translate(111,102)"/>
<path d="M0 0 C2.3125 -0.3125 2.3125 -0.3125 5 0 C6.625 2.25 6.625 2.25 8 5 C8.5775 5.598125 9.155 6.19625 9.75 6.8125 C11.74026869 10.2954702 10.71043548 13.12489739 10 17 C9.34 17 8.68 17 8 17 C8 18.65 8 20.3 8 22 C7.01 22 6.02 22 5 22 C4.855625 22.598125 4.71125 23.19625 4.5625 23.8125 C4.1127561 25.56150404 3.57107659 27.28677023 3 29 C2.01 29.309375 1.02 29.61875 0 29.9375 C-0.99 30.288125 -1.98 30.63875 -3 31 C-3.96877057 33.03243548 -3.96877057 33.03243548 -4 35 C-4.66 35 -5.32 35 -6 35 C-6.33 34.01 -6.66 33.02 -7 32 C-9.31 32 -11.62 32 -14 32 C-13.67 33.65 -13.34 35.3 -13 37 C-28.20603015 36.57286432 -28.20603015 36.57286432 -35 32 C-37.95195145 27.50832636 -37.83337502 22.1701615 -37 17 C-34.5 15 -34.5 15 -32 14 C-32 13.01 -32 12.02 -32 11 C-31.195625 10.731875 -30.39125 10.46375 -29.5625 10.1875 C-28.716875 9.795625 -27.87125 9.40375 -27 9 C-26.67 8.01 -26.34 7.02 -26 6 C-23.5625 6.375 -23.5625 6.375 -21 7 C-20.67 7.66 -20.34 8.32 -20 9 C-18.08333333 9.83333333 -18.08333333 9.83333333 -16 10 C-13.71271266 8.16116119 -13.71271266 8.16116119 -13.875 5.375 C-13.91625 4.59125 -13.9575 3.8075 -14 3 C-14.66 2.67 -15.32 2.34 -16 2 C-13.69 2 -11.38 2 -9 2 C-9 2.66 -9 3.32 -9 4 C-6.36 4 -3.72 4 -1 4 C-0.67 2.68 -0.34 1.36 0 0 Z " fill="#EECF85" transform="translate(50,52)"/>
<path d="M0 0 C0.33 0 0.66 0 1 0 C1.47182642 9.75107938 -0.60686474 17.82858294 -6 26 C-7.31442362 27.35197858 -8.6434836 28.69026002 -10 30 C-10.495 31.485 -10.495 31.485 -11 33 C-12.09957031 32.96519531 -13.19914062 32.93039063 -14.33203125 32.89453125 C-23.02646172 32.70346651 -30.73416317 32.93545505 -39 36 C-39.8765625 36.32355469 -40.753125 36.64710937 -41.65625 36.98046875 C-44.47091183 38.20484664 -46.02259275 39.66948431 -48 42 C-48.33 42.99 -48.66 43.98 -49 45 C-49.66 45 -50.32 45 -51 45 C-50.9175 45.72574219 -50.835 46.45148438 -50.75 47.19921875 C-51.08049762 50.9018249 -52.46132701 52.15482672 -55 54.8125 C-55.7425 55.60269531 -56.485 56.39289063 -57.25 57.20703125 C-57.8275 57.79871094 -58.405 58.39039063 -59 59 C-57.35 59.33 -55.7 59.66 -54 60 C-54 60.33 -54 60.66 -54 61 C-55.22976562 61.03738281 -56.45953125 61.07476562 -57.7265625 61.11328125 C-59.35940401 61.17897028 -60.99221518 61.24541659 -62.625 61.3125 C-63.43324219 61.33505859 -64.24148437 61.35761719 -65.07421875 61.38085938 C-70.14830343 61.60774934 -73.50018196 62.46561973 -78 65 C-80.5546875 65.73046875 -80.5546875 65.73046875 -82.875 66.1875 C-83.65617187 66.34605469 -84.43734375 66.50460938 -85.2421875 66.66796875 C-86.11230469 66.83232422 -86.11230469 66.83232422 -87 67 C-87 66.01 -87 65.02 -87 64 C-85.02 63.505 -85.02 63.505 -83 63 C-83 62.34 -83 61.68 -83 61 C-81.125 58.875 -81.125 58.875 -79 57 C-78.34 57 -77.68 57 -77 57 C-76.855625 56.278125 -76.71125 55.55625 -76.5625 54.8125 C-76.04166667 52.20833333 -75.52083333 49.60416667 -75 47 C-75.66 46.67 -76.32 46.34 -77 46 C-76.125 41.125 -76.125 41.125 -75 40 C-72.66702567 39.95907063 -70.33294775 39.95758277 -68 40 C-68 39.34 -68 38.68 -68 38 C-67.34 38 -66.68 38 -66 38 C-66 37.34 -66 36.68 -66 36 C-65 34.4375 -65 34.4375 -63 33 C-60.27745356 32.49582473 -57.75018348 32.20371729 -55 32 C-53.8965625 31.896875 -52.793125 31.79375 -51.65625 31.6875 C-42.28383459 30.85808271 -42.28383459 30.85808271 -40 32 C-40 31.01 -40 30.02 -40 29 C-33.53205867 27.48766299 -27.64409958 26.78567421 -21 27 C-20.505 25.515 -20.505 25.515 -20 24 C-18.68 24 -17.36 24 -16 24 C-16 23.34 -16 22.68 -16 22 C-14.02 21.67 -12.04 21.34 -10 21 C-9.97421875 20.30132812 -9.9484375 19.60265625 -9.921875 18.8828125 C-9.83679688 17.51769531 -9.83679688 17.51769531 -9.75 16.125 C-9.70359375 15.22007813 -9.6571875 14.31515625 -9.609375 13.3828125 C-9.40828125 12.59648438 -9.2071875 11.81015625 -9 11 C-7.078125 9.8671875 -7.078125 9.8671875 -5 9 C-4.34 8.01 -3.68 7.02 -3 6 C-2.34 6 -1.68 6 -1 6 C-0.67 4.02 -0.34 2.04 0 0 Z " fill="#E0AA3E" transform="translate(157,36)"/>
<path d="M0 0 C3.03125 0.0078125 3.03125 0.0078125 5.625 0.375 C7.5 2.875 7.5 2.875 8.625 5.375 C11.25194422 5.79280879 11.25194422 5.79280879 13.625 5.375 C13.625 4.715 13.625 4.055 13.625 3.375 C14.615 3.375 15.605 3.375 16.625 3.375 C17.285 5.355 17.945 7.335 18.625 9.375 C17.965 9.375 17.305 9.375 16.625 9.375 C16.83125 10.591875 17.0375 11.80875 17.25 13.0625 C17.71168356 16.73646072 17.47207245 19.06971246 15.625 22.375 C13.39577045 24.60422955 11.53364722 25.25628953 8.625 26.375 C8.13 26.87 8.13 26.87 7.625 27.375 C-1.38202223 28.94492627 -12.67477581 30.70660206 -20.875 25.8125 C-23.96657734 23.33334941 -24.31569885 22.69846084 -25.0625 18.625 C-24.375 15.375 -24.375 15.375 -22.375 13.375 C-18.75 13.25 -18.75 13.25 -15.375 13.375 C-15.6225 12.3025 -15.87 11.23 -16.125 10.125 C-16.375 6.375 -16.375 6.375 -14.4375 3.9375 C-13.756875 3.421875 -13.07625 2.90625 -12.375 2.375 C-12.1275 3.014375 -11.88 3.65375 -11.625 4.3125 C-10.56091701 6.53140538 -10.56091701 6.53140538 -8.375 7.1875 C-6.30339876 7.55951089 -6.30339876 7.55951089 -4.375 6.375 C-4.375 5.385 -4.375 4.395 -4.375 3.375 C-5.035 2.715 -5.695 2.055 -6.375 1.375 C-4.63750893 -0.36249107 -2.36451518 0.080679 0 0 Z " fill="#EECF85" transform="translate(119.375,12.625)"/>
<path d="M0 0 C1.34384766 0.07250977 1.34384766 0.07250977 2.71484375 0.14648438 C3.65199219 0.20255859 4.58914062 0.25863281 5.5546875 0.31640625 C6.97201172 0.3947168 6.97201172 0.3947168 8.41796875 0.47460938 C10.7555294 0.60447386 13.09268295 0.73944495 15.4296875 0.87890625 C15.4296875 1.86890625 15.4296875 2.85890625 15.4296875 3.87890625 C14.63046875 3.85570312 13.83125 3.8325 13.0078125 3.80859375 C-2.3550286 3.5561527 -12.3518206 5.62698549 -24.06640625 16.11328125 C-27.78234052 19.6454416 -27.78234052 19.6454416 -30.5703125 23.87890625 C-31.2303125 23.87890625 -31.8903125 23.87890625 -32.5703125 23.87890625 C-32.65539062 25.00425781 -32.65539062 25.00425781 -32.7421875 26.15234375 C-33.86765801 29.85790231 -35.52232066 30.57272921 -38.8203125 32.50390625 C-39.77421875 33.07367188 -40.728125 33.6434375 -41.7109375 34.23046875 C-42.65453125 34.77445313 -43.598125 35.3184375 -44.5703125 35.87890625 C-45.44429688 36.43191406 -46.31828125 36.98492187 -47.21875 37.5546875 C-50.29775067 39.28854336 -53.07646146 39.45723457 -56.5703125 39.87890625 C-57.59125 40.18699219 -58.6121875 40.49507812 -59.6640625 40.8125 C-65.11305321 42.41858676 -70.74620177 42.98597934 -76.36328125 43.734375 C-80.74311375 44.34874064 -84.49170173 45.0935521 -88.5703125 46.87890625 C-89.5603125 46.87890625 -90.5503125 46.87890625 -91.5703125 46.87890625 C-91.5703125 47.53890625 -91.5703125 48.19890625 -91.5703125 48.87890625 C-92.94980382 49.83099107 -94.37588538 50.71605803 -95.8203125 51.56640625 C-100.37998983 54.47454691 -102.32820368 57.00475664 -104.5703125 61.87890625 C-105.2303125 61.87890625 -105.8903125 61.87890625 -106.5703125 61.87890625 C-108.33009899 67.9233903 -108.85195554 73.28855219 -108.7578125 79.56640625 C-108.75716797 80.39462891 -108.75652344 81.22285156 -108.75585938 82.07617188 C-108.72662037 86.13389634 -108.57782194 89.92140917 -107.5703125 93.87890625 C-106.9103125 93.87890625 -106.2503125 93.87890625 -105.5703125 93.87890625 C-105.1165625 94.64203125 -104.6628125 95.40515625 -104.1953125 96.19140625 C-102.5532207 98.90717345 -101.09241493 100.05255621 -98.5703125 101.87890625 C-98.5703125 102.53890625 -98.5703125 103.19890625 -98.5703125 103.87890625 C-97.5803125 104.20890625 -96.5903125 104.53890625 -95.5703125 104.87890625 C-95.5703125 105.53890625 -95.5703125 106.19890625 -95.5703125 106.87890625 C-94.9103125 106.87890625 -94.2503125 106.87890625 -93.5703125 106.87890625 C-93.5703125 107.53890625 -93.5703125 108.19890625 -93.5703125 108.87890625 C-92.1471875 109.06453125 -92.1471875 109.06453125 -90.6953125 109.25390625 C-87.5703125 109.87890625 -87.5703125 109.87890625 -85.5703125 111.87890625 C-82.91825967 112.18782669 -80.35588561 112.39089076 -77.6953125 112.50390625 C-76.97472656 112.54257813 -76.25414062 112.58125 -75.51171875 112.62109375 C-72.19240718 112.7922553 -68.89466849 112.87890625 -65.5703125 112.87890625 C-66.0034375 114.05453125 -66.0034375 114.05453125 -66.4453125 115.25390625 C-67.83791534 119.74118205 -68.71303231 124.26418525 -69.5703125 128.87890625 C-70.2303125 128.54890625 -70.8903125 128.21890625 -71.5703125 127.87890625 C-71.6953125 122.12890625 -71.6953125 122.12890625 -70.5703125 119.87890625 C-71.61832031 119.67394531 -72.66632813 119.46898438 -73.74609375 119.2578125 C-75.12502019 118.98577939 -76.50392533 118.71363834 -77.8828125 118.44140625 C-78.91825195 118.2393457 -78.91825195 118.2393457 -79.97460938 118.03320312 C-88.19022321 116.40595594 -88.19022321 116.40595594 -91.5703125 112.87890625 C-92.2303125 112.54890625 -92.8903125 112.21890625 -93.5703125 111.87890625 C-93.5703125 111.21890625 -93.5703125 110.55890625 -93.5703125 109.87890625 C-94.2303125 109.67265625 -94.8903125 109.46640625 -95.5703125 109.25390625 C-104.05048513 105.36716046 -109.14169598 99.75735967 -112.67578125 91.203125 C-115.34293933 81.29154629 -115.04107507 69.17687162 -110.0703125 60.125 C-105.4179508 53.15857298 -105.4179508 53.15857298 -102.5703125 50.87890625 C-101.5803125 50.87890625 -100.5903125 50.87890625 -99.5703125 50.87890625 C-99.33441406 50.28078125 -99.09851563 49.68265625 -98.85546875 49.06640625 C-96.08706405 44.35422803 -90.62257623 42.4201458 -85.5703125 40.87890625 C-80.37404409 39.80033241 -75.12482663 39.09118018 -69.87280273 38.34326172 C-58.5081475 36.68536708 -48.598906 33.99798825 -39.2421875 27.015625 C-37.5703125 25.87890625 -37.5703125 25.87890625 -35.5703125 25.87890625 C-35.4878125 25.34265625 -35.4053125 24.80640625 -35.3203125 24.25390625 C-33.15078499 17.3837358 -28.00248255 13.25539042 -22.5703125 8.87890625 C-21.99023438 8.40066406 -21.41015625 7.92242187 -20.8125 7.4296875 C-16.95146233 4.4396281 -13.16371183 2.84115183 -8.48828125 1.45703125 C-3.07363948 -0.17508073 -3.07363948 -0.17508073 0 0 Z " fill="#D19D15" transform="translate(118.5703125,5.12109375)"/>
<path d="M0 0 C1.12535156 -0.04447266 1.12535156 -0.04447266 2.2734375 -0.08984375 C10.8847493 0.01302175 17.8910052 4.89422227 25.17041016 9.01904297 C27.11499342 10.10625409 27.11499342 10.10625409 29.76171875 11.09765625 C37.87755417 14.36948519 41.6982538 21.35991287 45 29 C45.36609375 29.66515625 45.7321875 30.3303125 46.109375 31.015625 C47.69561176 34.54987182 47.59502725 38.21476639 47 42 C45.1875 44.0625 45.1875 44.0625 43 45 C42.01 45 41.02 45 40 45 C40 44.34 40 43.68 40 43 C40.99 42.67 41.98 42.34 43 42 C43.19846083 38.17449634 42.64549984 35.4705558 41.1875 31.9375 C40.85105469 31.10089844 40.51460937 30.26429687 40.16796875 29.40234375 C39.08541216 26.95427678 39.08541216 26.95427678 37.36328125 24.94140625 C36 23 36 23 36 19 C34.9275 18.773125 33.855 18.54625 32.75 18.3125 C28.56673248 16.84835637 27.55619031 15.46911543 25 12 C24.01 12 23.02 12 22 12 C22 11.34 22 10.68 22 10 C20.948125 9.8453125 20.948125 9.8453125 19.875 9.6875 C17 9 17 9 14.125 7.5 C5.13623411 3.18539237 -9.39231682 3.57453969 -18.875 6.4375 C-20.25814537 6.93629981 -21.6350213 7.45344214 -23 8 C-23.99 8.33 -24.98 8.66 -26 9 C-26 9.99 -26 10.98 -26 12 C-26.66 12 -27.32 12 -28 12 C-28.33 14.64 -28.66 17.28 -29 20 C-29.66 20 -30.32 20 -31 20 C-31 23.63 -31 27.26 -31 31 C-29.35 30.95875 -27.7 30.9175 -26 30.875 C-22.15263711 31.19271771 -20.46386743 31.58437478 -17.55859375 34.1875 C-15.55817177 36.72210465 -13.73495594 39.27798892 -12 42 C-11.34 42.99 -10.68 43.98 -10 45 C-10 45.99 -10 46.98 -10 48 C-9.02160156 48.18175781 -9.02160156 48.18175781 -8.0234375 48.3671875 C-3.21353658 49.28943989 1.39025465 50.30167277 6 52 C6 52.33 6 52.66 6 53 C-0.41481258 53.42765417 -5.88595404 51.85743168 -12 50 C-12 52.64 -12 55.28 -12 58 C-12.66 58 -13.32 58 -14 58 C-14.495 58.99 -14.495 58.99 -15 60 C-14.95359375 59.05898437 -14.9071875 58.11796875 -14.859375 57.1484375 C-14.30011013 49.428097 -14.30011013 49.428097 -16.6875 42.3125 C-18.97788512 40.02211488 -21.18233932 38.56536705 -24 37 C-24 36.34 -24 35.68 -24 35 C-37.52280129 32.40658605 -53.87798725 29.91865817 -66 38 C-66.99 38 -67.98 38 -69 38 C-69 38.66 -69 39.32 -69 40 C-70.03125 40.350625 -71.0625 40.70125 -72.125 41.0625 C-79.48062161 44.24250611 -82.81885798 51.02595788 -86 58 C-86.66 58 -87.32 58 -88 58 C-88 59.98 -88 61.96 -88 64 C-86.68 64.66 -85.36 65.32 -84 66 C-87.75 67.125 -87.75 67.125 -90 66 C-90.29663458 60.26506477 -89.93440741 57.07878206 -87 52 C-86.71125 51.20078125 -86.4225 50.4015625 -86.125 49.578125 C-82.34458749 40.91467966 -73.95117137 36.95486907 -65.67578125 33.6875 C-63.37449453 32.79635267 -61.0687111 31.91669801 -58.7578125 31.05078125 C-56.09168598 30.08727845 -56.09168598 30.08727845 -54 29 C-52.5534758 28.84932786 -51.1012066 28.75138964 -49.6484375 28.68359375 C-48.79765625 28.64169922 -47.946875 28.59980469 -47.0703125 28.55664062 C-46.18085937 28.51732422 -45.29140625 28.47800781 -44.375 28.4375 C-43.4778125 28.39431641 -42.580625 28.35113281 -41.65625 28.30664062 C-39.43768761 28.20043285 -37.21886435 28.09970041 -35 28 C-34.34 23.05 -33.68 18.1 -33 13 C-32.34 13 -31.68 13 -31 13 C-30.8453125 12.0409375 -30.8453125 12.0409375 -30.6875 11.0625 C-30.3471875 10.0415625 -30.3471875 10.0415625 -30 9 C-29.01 8.67 -28.02 8.34 -27 8 C-26.67 7.01 -26.34 6.02 -26 5 C-23.671875 3.8671875 -23.671875 3.8671875 -20.75 2.875 C-19.31914062 2.37613281 -19.31914062 2.37613281 -17.859375 1.8671875 C-11.76729612 0.01958981 -6.31711134 -0.15839365 0 0 Z " fill="#8E310C" transform="translate(139,68)"/>
<path d="M0 0 C5.98985238 4.3330847 11.10738749 8.91501898 14.8359375 15.328125 C15.8259375 16.813125 15.8259375 16.813125 16.8359375 18.328125 C16.62444906 25.55257 13.48187032 28.78647375 8.66015625 33.80078125 C-1.40393471 42.80695947 -15.09055603 44.8311071 -28.21728516 44.23486328 C-39.21434542 43.43120233 -49.21308118 41.46401287 -57.1640625 33.328125 C-61.71996886 27.23939033 -62.13028392 20.71922083 -61.1640625 13.328125 C-59.40766003 7.11316241 -55.52732872 2.80230555 -50.1640625 -0.671875 C-36.94438744 -7.10578529 -12.90168227 -7.549456 0 0 Z M-49.1640625 3.265625 C-50.30875 4.05259766 -50.30875 4.05259766 -51.4765625 4.85546875 C-52.0334375 5.34144531 -52.5903125 5.82742187 -53.1640625 6.328125 C-53.1640625 6.988125 -53.1640625 7.648125 -53.1640625 8.328125 C-53.8240625 8.328125 -54.4840625 8.328125 -55.1640625 8.328125 C-55.1640625 8.988125 -55.1640625 9.648125 -55.1640625 10.328125 C-55.8240625 10.328125 -56.4840625 10.328125 -57.1640625 10.328125 C-58.59189669 15.26169842 -58.73888654 20.23790686 -58.1640625 25.328125 C-56.39408838 28.31600533 -56.39408838 28.31600533 -54.1640625 30.328125 C-53.8340625 31.318125 -53.5040625 32.308125 -53.1640625 33.328125 C-52.1740625 33.328125 -51.1840625 33.328125 -50.1640625 33.328125 C-50.1640625 33.988125 -50.1640625 34.648125 -50.1640625 35.328125 C-49.09285156 35.60527344 -48.02164063 35.88242188 -46.91796875 36.16796875 C-45.52078623 36.53367424 -44.12365335 36.89956946 -42.7265625 37.265625 C-42.01951172 37.44802734 -41.31246094 37.63042969 -40.58398438 37.81835938 C-35.27734375 39.21484375 -35.27734375 39.21484375 -34.1640625 40.328125 C-20.75094516 40.93396959 -7.89624249 40.77132772 3.8359375 33.328125 C5.5312444 30.79664621 5.5312444 30.79664621 6.8359375 28.328125 C7.8259375 27.833125 7.8259375 27.833125 8.8359375 27.328125 C8.8359375 26.668125 8.8359375 26.008125 8.8359375 25.328125 C9.8259375 24.998125 10.8159375 24.668125 11.8359375 24.328125 C12.77864752 21.07172841 12.77864752 21.07172841 12.8359375 17.328125 C10.69078261 14.59923228 10.69078261 14.59923228 7.8359375 12.328125 C7.2790625 11.4825 6.7221875 10.636875 6.1484375 9.765625 C3.16401214 6.61987935 0.13881543 5.68190899 -3.921875 4.3203125 C-6.1640625 3.328125 -6.1640625 3.328125 -8.1640625 0.328125 C-11.57593194 -0.68046291 -14.86073908 -0.80018123 -18.40234375 -0.8046875 C-19.88057617 -0.80662109 -19.88057617 -0.80662109 -21.38867188 -0.80859375 C-22.40767578 -0.80472656 -23.42667969 -0.80085937 -24.4765625 -0.796875 C-25.48396484 -0.80074219 -26.49136719 -0.80460938 -27.52929688 -0.80859375 C-38.92701042 -1.06547642 -38.92701042 -1.06547642 -49.1640625 3.265625 Z " fill="#D5AA66" transform="translate(178.1640625,135.671875)"/>
<path d="M0 0 C1.12535156 -0.04447266 1.12535156 -0.04447266 2.2734375 -0.08984375 C10.8847493 0.01302175 17.8910052 4.89422227 25.17041016 9.01904297 C27.11499342 10.10625409 27.11499342 10.10625409 29.76171875 11.09765625 C37.87755417 14.36948519 41.6982538 21.35991287 45 29 C45.36609375 29.66515625 45.7321875 30.3303125 46.109375 31.015625 C47.69561176 34.54987182 47.59502725 38.21476639 47 42 C45.1875 44.0625 45.1875 44.0625 43 45 C42.01 45 41.02 45 40 45 C40 44.34 40 43.68 40 43 C40.99 42.67 41.98 42.34 43 42 C43.19846083 38.17449634 42.64549984 35.4705558 41.1875 31.9375 C40.85105469 31.10089844 40.51460938 30.26429687 40.16796875 29.40234375 C39.08541216 26.95427678 39.08541216 26.95427678 37.36328125 24.94140625 C36 23 36 23 36 19 C34.9275 18.773125 33.855 18.54625 32.75 18.3125 C28.56673248 16.84835637 27.55619031 15.46911543 25 12 C24.01 12 23.02 12 22 12 C22 11.34 22 10.68 22 10 C20.948125 9.8453125 20.948125 9.8453125 19.875 9.6875 C17 9 17 9 14.125 7.5 C5.13623411 3.18539237 -9.39231682 3.57453969 -18.875 6.4375 C-20.25814537 6.93629981 -21.6350213 7.45344214 -23 8 C-23.99 8.33 -24.98 8.66 -26 9 C-26 9.99 -26 10.98 -26 12 C-26.66 12 -27.32 12 -28 12 C-28.33 14.64 -28.66 17.28 -29 20 C-29.66 20 -30.32 20 -31 20 C-31 19.34 -31 18.68 -31 18 C-31.66 18 -32.32 18 -33 18 C-33 16.35 -33 14.7 -33 13 C-32.34 13 -31.68 13 -31 13 C-30.896875 12.360625 -30.79375 11.72125 -30.6875 11.0625 C-30.460625 10.381875 -30.23375 9.70125 -30 9 C-29.01 8.67 -28.02 8.34 -27 8 C-26.67 7.01 -26.34 6.02 -26 5 C-23.671875 3.8671875 -23.671875 3.8671875 -20.75 2.875 C-19.79609375 2.54242188 -18.8421875 2.20984375 -17.859375 1.8671875 C-11.76729612 0.01958981 -6.31711134 -0.15839365 0 0 Z " fill="#92360F" transform="translate(139,68)"/>
<path d="M0 0 C3.125 1.6875 3.125 1.6875 5 3 C4.34 3.33 3.68 3.66 3 4 C0.828125 3.2578125 0.828125 3.2578125 -1.75 2.125 C-11.05433316 -1.72965231 -20.41254619 -2.3120295 -30 1 C-30.68578125 1.18304687 -31.3715625 1.36609375 -32.078125 1.5546875 C-39.11327891 3.54716116 -46.21262755 7.27696027 -50.6640625 13.22265625 C-51.10492188 13.80917969 -51.54578125 14.39570313 -52 15 C-52.66 15 -53.32 15 -54 15 C-54.268125 15.721875 -54.53625 16.44375 -54.8125 17.1875 C-58.52044157 25.96946688 -64.55150762 29.38731475 -72.95703125 33.41796875 C-81.74338405 36.93901026 -90.60550543 38.07839887 -99.92651367 39.40869141 C-107.71860198 40.59744562 -114.57277438 42.15048369 -121 47 C-121.66 47.99 -122.32 48.98 -123 50 C-123.78375 50.45375 -124.5675 50.9075 -125.375 51.375 C-130.47946954 54.53490972 -133.14938199 59.21622383 -135.234375 64.7265625 C-137.66222402 75.10685574 -137.67632979 87.72678796 -132 97 C-128.56883034 102.24767124 -124.41145184 104.7707152 -119.01171875 107.703125 C-118.34785156 108.13109375 -117.68398437 108.5590625 -117 109 C-117 109.66 -117 110.32 -117 111 C-115.35 111.66 -113.7 112.32 -112 113 C-112.99 113.495 -112.99 113.495 -114 114 C-125.4475612 108.38028814 -133.71247835 101.26323397 -138 89 C-140.98182767 79.55082988 -139.55378871 68.90901899 -135.6796875 60.01171875 C-131.30812834 52.17341151 -125.07558903 45.94839685 -117 42 C-116.02417969 41.51144531 -115.04835938 41.02289063 -114.04296875 40.51953125 C-108.75022821 38.2842408 -103.06700083 37.59547857 -97.4375 36.625 C-79.19843806 33.27758078 -67.10750922 29.36355015 -55.13378906 14.828125 C-41.94129091 -1.01379825 -19.5712955 -8.65503506 0 0 Z " fill="#D9A94B" transform="translate(142,6)"/>
<path d="M0 0 C8.43435936 -0.6422101 14.02409081 0.06753896 21 5 C21 5.66 21 6.32 21 7 C22.65 7.66 24.3 8.32 26 9 C26.042721 10.66611905 26.04063832 12.33382885 26 14 C25 15 25 15 22.1875 15.375 C15.20551848 15.27402093 7.76854961 11.62908106 2.25 7.5 C0 5 0 5 -0.140625 2.34375 C-0.09421875 1.5703125 -0.0478125 0.796875 0 0 Z " fill="#CB5B38" transform="translate(146,79)"/>
<path d="M0 0 C-0.55429687 0.54269531 -1.10859375 1.08539063 -1.6796875 1.64453125 C-2.40414062 2.35996094 -3.12859375 3.07539062 -3.875 3.8125 C-4.59429687 4.52019531 -5.31359375 5.22789063 -6.0546875 5.95703125 C-8.15358937 8.04399194 -8.15358937 8.04399194 -10 11 C-13.65396834 11.5167228 -17.32187731 11.20378788 -21 11 C-21.76828125 10.95746094 -22.5365625 10.91492188 -23.328125 10.87109375 C-27.62107754 10.48603885 -30.46824648 9.42177384 -34 7 C-34.99 6.67 -35.98 6.34 -37 6 C-37 5.34 -37 4.68 -37 4 C-37.66 3.67 -38.32 3.34 -39 3 C-35 3 -31 3 -27 3 C-27 3.99 -27 4.98 -27 6 C-26.34 6 -25.68 6 -25 6 C-24.67 4.68 -24.34 3.36 -24 2 C-22.73542969 1.86722656 -21.47085938 1.73445313 -20.16796875 1.59765625 C-18.50779375 1.41944537 -16.84763852 1.24105037 -15.1875 1.0625 C-14.35412109 0.97548828 -13.52074219 0.88847656 -12.66210938 0.79882812 C-11.85966797 0.71181641 -11.05722656 0.62480469 -10.23046875 0.53515625 C-9.12288208 0.41732788 -9.12288208 0.41732788 -7.99291992 0.29711914 C-1.85424073 -0.61808024 -1.85424073 -0.61808024 0 0 Z " fill="#DFAB3C" transform="translate(62,108)"/>
<path d="M0 0 C0.66 0.99 1.32 1.98 2 3 C1.34 3 0.68 3 0 3 C-0.33 3.99 -0.66 4.98 -1 6 C-1.99 6 -2.98 6 -4 6 C-4 6.99 -4 7.98 -4 9 C-10.54216759 12.94998798 -15.42228293 13.50146657 -23 13 C-24.11575522 9.65273435 -23.93605618 7.85918005 -22.46484375 4.65234375 C-17.65174215 -0.77683486 -6.72158132 -0.65047561 0 0 Z " fill="#D46B49" transform="translate(89,105)"/>
<path d="M0 0 C2.08268593 -0.08126087 4.16628658 -0.13930839 6.25 -0.1875 C7.99023438 -0.23970703 7.99023438 -0.23970703 9.765625 -0.29296875 C13.2926901 0.02651178 14.41872747 0.69529238 17 3 C18.64797236 3.71162443 20.31165408 4.39031953 22 5 C22 5.99 22 6.98 22 8 C19.34789823 10.65210177 18.00674401 10.29859444 14.3125 10.3125 C8.17294642 10.21668464 3.49077368 9.49077368 -1 5 C-0.625 2.375 -0.625 2.375 0 0 Z " fill="#F9E2BD" transform="translate(156,139)"/>
<path d="M0 0 C-0.66 0 -1.32 0 -2 0 C-2.33 1.32 -2.66 2.64 -3 4 C-2.38125 4.12375 -1.7625 4.2475 -1.125 4.375 C1 5 1 5 3 7 C0.6875 7.6875 0.6875 7.6875 -2 8 C-3.8125 6.75 -3.8125 6.75 -5 5 C-5 4.01 -5 3.02 -5 2 C-8.63 2.33 -12.26 2.66 -16 3 C-15.34 3.66 -14.68 4.32 -14 5 C-14.375 7.125 -14.375 7.125 -15 9 C-16.8125 9.625 -16.8125 9.625 -19 10 C-22 8 -22 8 -23 5 C-23.99 5.33 -24.98 5.66 -26 6 C-26.15149298 9.62885324 -26.15149298 9.62885324 -25 13 C-25.33 13.66 -25.66 14.32 -26 15 C-28.32156597 15.40729228 -30.6568787 15.74438677 -33 16 C-33.66 18.31 -34.32 20.62 -35 23 C-36.32 22.67 -37.64 22.34 -39 22 C-38.67 19.69 -38.34 17.38 -38 15 C-37.37351562 14.86464844 -36.74703125 14.72929687 -36.1015625 14.58984375 C-33.55430122 13.91887745 -31.3319804 13.23255686 -29 12 C-27.59884432 8.5546888 -27.59884432 8.5546888 -27 5 C-22.50277997 0.34216497 -15.98708675 -0.28380247 -9.8125 -0.6875 C-8.60207031 -0.77386719 -7.39164063 -0.86023437 -6.14453125 -0.94921875 C-3 -1 -3 -1 0 0 Z " fill="#E8C162" transform="translate(130,11)"/>
<path d="M0 0 C0.69287109 0.00451172 1.38574219 0.00902344 2.09960938 0.01367188 C3.79561068 0.02536844 5.49156703 0.04330076 7.1875 0.0625 C7.1875 0.3925 7.1875 0.7225 7.1875 1.0625 C2.7325 1.5575 2.7325 1.5575 -1.8125 2.0625 C-1.8125 2.3925 -1.8125 2.7225 -1.8125 3.0625 C-2.82957031 3.17464844 -2.82957031 3.17464844 -3.8671875 3.2890625 C-11.21343279 4.32689771 -16.87106603 6.56363642 -22.8125 11.0625 C-23.1425 11.7225 -23.4725 12.3825 -23.8125 13.0625 C-24.4725 13.0625 -25.1325 13.0625 -25.8125 13.0625 C-25.8125 13.7225 -25.8125 14.3825 -25.8125 15.0625 C-26.4725 15.0625 -27.1325 15.0625 -27.8125 15.0625 C-27.8125 21.0025 -27.8125 26.9425 -27.8125 33.0625 C-28.8025 32.7325 -29.7925 32.4025 -30.8125 32.0625 C-33.14746753 27.39256494 -32.51806739 20.62974521 -31.1640625 15.703125 C-28.22446513 9.22093593 -23.27514609 4.83534035 -16.6875 2.25 C-11.11955365 0.34396027 -5.86208817 -0.0729255 0 0 Z " fill="#D2A865" transform="translate(148.8125,130.9375)"/>
<path d="M0 0 C0 0.66 0 1.32 0 2 C0.66 2 1.32 2 2 2 C2 2.66 2 3.32 2 4 C2.94875 4.12375 3.8975 4.2475 4.875 4.375 C8 5 8 5 10 7 C12.65205283 7.30892044 15.21442689 7.51198451 17.875 7.625 C18.95587891 7.68300781 18.95587891 7.68300781 20.05859375 7.7421875 C23.37790532 7.91334905 26.67564401 8 30 8 C29.71125 8.78375 29.4225 9.5675 29.125 10.375 C27.73239716 14.8622758 26.85728019 19.385279 26 24 C25.34 23.67 24.68 23.34 24 23 C23.875 17.25 23.875 17.25 25 15 C23.95199219 14.79503906 22.90398438 14.59007813 21.82421875 14.37890625 C20.44529231 14.10687314 19.06638717 13.83473209 17.6875 13.5625 C16.65206055 13.36043945 16.65206055 13.36043945 15.59570312 13.15429688 C7.38008929 11.52704969 7.38008929 11.52704969 4 8 C3.34 7.67 2.68 7.34 2 7 C2 6.34 2 5.68 2 5 C0.7934375 4.566875 0.7934375 4.566875 -0.4375 4.125 C-3 3 -3 3 -4 1 C-2 0 -2 0 0 0 Z " fill="#D19C24" transform="translate(23,110)"/>
<path d="M0 0 C0 0.33 0 0.66 0 1 C2.97 1.495 2.97 1.495 6 2 C6 2.99 6 3.98 6 5 C3.36 5 0.72 5 -2 5 C-2 4.34 -2 3.68 -2 3 C-3.65 3.33 -5.3 3.66 -7 4 C-6.67 5.98 -6.34 7.96 -6 10 C-7.5625 11.25 -7.5625 11.25 -10 12 C-11.7453336 10.96572824 -13.48898218 9.92726619 -15.19921875 8.8359375 C-17.16633031 7.70838765 -17.16633031 7.70838765 -20.1875 8.625 C-21.115625 9.07875 -22.04375 9.5325 -23 10 C-23.78375 10.37125 -24.5675 10.7425 -25.375 11.125 C-25.91125 11.41375 -26.4475 11.7025 -27 12 C-25.49388349 7.48165048 -22.06776009 5.10332961 -18 3 C-4.72093579 -1.80403005 -4.72093579 -1.80403005 0 0 Z " fill="#E5B948" transform="translate(43,51)"/>
<path d="M0 0 C0.99 0 1.98 0 3 0 C3.495 0.99 3.495 0.99 4 2 C4.99 2.33 5.98 2.66 7 3 C5.35 3.66 3.7 4.32 2 5 C4.3431213 4.74438677 6.67843403 4.40729228 9 4 C9.33 3.34 9.66 2.68 10 2 C11.65 2 13.3 2 15 2 C10.77369654 6.78981058 4.91935429 7.73620293 -1.2421875 8.29296875 C-11.64283169 8.54060314 -22.39545438 7.1758894 -32 3 C-32 5.31 -32 7.62 -32 10 C-32.33 10 -32.66 10 -33 10 C-33 7.36 -33 4.72 -33 2 C-32.01 2.144375 -31.02 2.28875 -30 2.4375 C-26.00590535 3.00925179 -22.00467063 3.50819834 -18 4 C-18 3.67 -18 3.34 -18 3 C-12.06 2.67 -6.12 2.34 0 2 C0 1.34 0 0.68 0 0 Z " fill="#A1411E" transform="translate(160,116)"/>
<path d="M0 0 C2.43570927 3.6535639 2.13189271 4.99553542 1.47265625 9.1328125 C0.84812443 11.59997127 0.14546209 12.62077437 -2 14 C-3.64991582 14.70710678 -5.31562256 15.37943989 -7 16 C-7.33 16.33 -7.66 16.66 -8 17 C-10.33297433 17.04092937 -12.66705225 17.04241723 -15 17 C-13.35 15.02 -11.7 13.04 -10 11 C-10.66 10.34 -11.32 9.68 -12 9 C-12 7.68 -12 6.36 -12 5 C-9.1875 4.375 -9.1875 4.375 -6 4 C-5.01 4.66 -4.02 5.32 -3 6 C-2.01 4.02 -1.02 2.04 0 0 Z " fill="#EECC7C" transform="translate(135,23)"/>
<path d="M0 0 C8.18468437 4.20926625 12.13756242 11.51826896 15 20 C15.54560304 23.13721746 15.7362826 25.88753263 15 29 C13.1875 31.0625 13.1875 31.0625 11 32 C10.01 32 9.02 32 8 32 C8 31.34 8 30.68 8 30 C8.99 29.67 9.98 29.34 11 29 C11.80772075 20.65355229 6.97519353 11.08990309 3 4 C2.01 3.34 1.02 2.68 0 2 C0 1.34 0 0.68 0 0 Z " fill="#903E1B" transform="translate(171,81)"/>
<path d="M0 0 C2.3125 -0.3125 2.3125 -0.3125 5 0 C6.625 2.25 6.625 2.25 8 5 C8.5775 5.598125 9.155 6.19625 9.75 6.8125 C11.74026869 10.2954702 10.71043548 13.12489739 10 17 C9.34 17 8.68 17 8 17 C8 18.65 8 20.3 8 22 C7.01 22 6.02 22 5 22 C4.7834375 22.8971875 4.7834375 22.8971875 4.5625 23.8125 C4.1127561 25.56150404 3.57107659 27.28677023 3 29 C1.515 29.4640625 1.515 29.4640625 0 29.9375 C-0.99 30.288125 -1.98 30.63875 -3 31 C-3.96877057 33.03243548 -3.96877057 33.03243548 -4 35 C-4.66 35 -5.32 35 -6 35 C-5.44024989 30.86570534 -3.18294987 28.45284712 -0.5625 25.3125 C0.24058594 24.33925781 1.04367188 23.36601563 1.87109375 22.36328125 C4 20 4 20 6 19 C6.69227032 16.19019327 6.69227032 16.19019327 7.125 12.9375 C7.37636719 11.28041016 7.37636719 11.28041016 7.6328125 9.58984375 C7.75398438 8.73519531 7.87515625 7.88054688 8 7 C7.38640625 6.72414063 6.7728125 6.44828125 6.140625 6.1640625 C3.3274828 4.63428809 1.88076891 2.55247209 0 0 Z " fill="#EECC76" transform="translate(50,52)"/>
<path d="M0 0 C0.66 0.33 1.32 0.66 2 1 C2 2.98 2 4.96 2 7 C4.31 7 6.62 7 9 7 C9 5.35 9 3.7 9 2 C12 1 12 1 14.1875 1.9375 C15.0846875 2.4634375 15.0846875 2.4634375 16 3 C14.02 3.33 12.04 3.66 10 4 C10.33 5.65 10.66 7.3 11 9 C8.77011716 8.91249445 6.54103995 8.80430939 4.3125 8.6875 C3.07113281 8.62949219 1.82976563 8.57148437 0.55078125 8.51171875 C-3.06321199 7.99089024 -5.05766393 7.09845383 -8 5 C-7.625 2.5625 -7.625 2.5625 -7 0 C-4.30919898 -1.34540051 -2.86443593 -0.71610898 0 0 Z " fill="#EAC87A" transform="translate(26,80)"/>
<path d="M0 0 C0.7425 0.53625 1.485 1.0725 2.25 1.625 C3.1575 1.91375 4.065 2.2025 5 2.5 C7.25 3.625 7.25 3.625 8.125 6.125 C8.25 8.625 8.25 8.625 7.25 10.625 C3.82008462 11.76830513 1.0513584 11.82881651 -2.5625 11.875 C-4.36654297 11.91367188 -4.36654297 11.91367188 -6.20703125 11.953125 C-11.00510883 11.50876059 -14.34089516 10.03410484 -17.75 6.625 C-18.14764263 4.63678687 -18.48775349 2.63555661 -18.75 0.625 C-12.57653448 -1.47660528 -6.07639667 -3.03819833 0 0 Z M-15.75 0.625 C-16.14124687 2.27902986 -16.47098308 3.94838482 -16.75 5.625 C-14.63838724 8.97873791 -11.47807457 9.77473738 -7.75 10.625 C-3.71425415 10.98266531 0.24625421 11.30673449 4.25 10.625 C6.14215433 8.71942291 6.14215433 8.71942291 7.25 6.625 C4.60603236 3.98103236 1.67496181 3.05725676 -1.75 1.625 C-2.08 1.295 -2.41 0.965 -2.75 0.625 C-4.93639453 0.55241054 -7.12500389 0.54126217 -9.3125 0.5625 C-10.51003906 0.57152344 -11.70757812 0.58054688 -12.94140625 0.58984375 C-14.33166016 0.60724609 -14.33166016 0.60724609 -15.75 0.625 Z " fill="#F4D5A4" transform="translate(171.75,138.375)"/>
<path d="M0 0 C-13.98277954 6.08552864 -31.09986979 10.41822917 -46 5 C-42.93910941 4.09903696 -40.27007889 3.90504403 -37.0859375 3.97265625 C-36.16039063 3.98490234 -35.23484375 3.99714844 -34.28125 4.00976562 C-32.33586558 4.04506494 -30.39054646 4.08415798 -28.4453125 4.12695312 C-27.52234375 4.13791016 -26.599375 4.14886719 -25.6484375 4.16015625 C-24.80458496 4.17699463 -23.96073242 4.19383301 -23.09130859 4.21118164 C-20.77869723 4.20035464 -20.77869723 4.20035464 -19 2 C-17.4840625 2.0309375 -17.4840625 2.0309375 -15.9375 2.0625 C-11.73667137 1.99582018 -8.87396955 1.07629921 -5.015625 -0.44140625 C-3 -1 -3 -1 0 0 Z " fill="#AD6534" transform="translate(116,142)"/>
<path d="M0 0 C0 0.33 0 0.66 0 1 C-4.455 1.495 -4.455 1.495 -9 2 C-9 2.33 -9 2.66 -9 3 C-10.75376953 3.27263672 -10.75376953 3.27263672 -12.54296875 3.55078125 C-14.09123648 3.80413415 -15.6394087 4.05807126 -17.1875 4.3125 C-17.95642578 4.43044922 -18.72535156 4.54839844 -19.51757812 4.66992188 C-23.90217577 5.40382449 -27.41710035 6.18237989 -31 9 C-31.33 9.99 -31.66 10.98 -32 12 C-32.99 12 -33.98 12 -35 12 C-35.33 12.99 -35.66 13.98 -36 15 C-36.33 14.34 -36.66 13.68 -37 13 C-31.6639024 6.04157236 -26.4496848 2.02872012 -17.75390625 0.3046875 C-11.86222857 -0.34715769 -5.91693766 -0.14032263 0 0 Z " fill="#CA9254" transform="translate(156,131)"/>
<path d="M0 0 C3.5610073 1.48508376 5.60021023 3.48541171 8.125 6.375 C8.80820313 7.14585938 9.49140625 7.91671875 10.1953125 8.7109375 C13.11857137 12.41879399 14 14.19117144 14 19 C13.01 19 12.02 19 11 19 C10.34 19.66 9.68 20.32 9 21 C7.68 17.7 6.36 14.4 5 11 C6.32 11 7.64 11 9 11 C8.505 10.54625 8.01 10.0925 7.5 9.625 C6 8 6 8 6 6 C5.34 6 4.68 6 4 6 C0 1.41176471 0 1.41176471 0 0 Z " fill="#D6A11D" transform="translate(147,10)"/>
<path d="M0 0 C0.75 1.6875 0.75 1.6875 1 4 C-3.01534102 10.69223503 -9.8658532 13.12535183 -16.88671875 15.58203125 C-19.26351824 16.05211914 -20.72163547 15.75602615 -23 15 C-18.99312643 12.02715832 -15.82380394 11.62581018 -10.98828125 11.50390625 C-10.33214844 11.33761719 -9.67601563 11.17132813 -9 11 C-7.83908429 9.1052986 -7.83908429 9.1052986 -7 7 C-5.35360035 5.64172029 -3.68704193 4.30745749 -2 3 C-1.34 2.01 -0.68 1.02 0 0 Z " fill="#883113" transform="translate(123,129)"/>
<path d="M0 0 C0.33 0.66 0.66 1.32 1 2 C0.01 2.99 -0.98 3.98 -2 5 C-2.66 4.34 -3.32 3.68 -4 3 C-7.15972104 2.90301516 -7.15972104 2.90301516 -10.75 3.25 C-11.96171875 3.33765625 -13.1734375 3.4253125 -14.421875 3.515625 C-18.00849564 3.88813119 -18.00849564 3.88813119 -21.328125 5.109375 C-22.20984375 5.40328125 -23.0915625 5.6971875 -24 6 C-24.66 5.67 -25.32 5.34 -26 5 C-17.6876993 -0.48258132 -9.72261103 -0.18267954 0 0 Z " fill="#E6B741" transform="translate(131,8)"/>
<path d="M0 0 C8.91 0 17.82 0 27 0 C26.67 0.99 26.34 1.98 26 3 C22.4375173 3.02913821 18.87506546 3.04684529 15.3125 3.0625 C13.80139648 3.07506836 13.80139648 3.07506836 12.25976562 3.08789062 C11.28330078 3.09111328 10.30683594 3.09433594 9.30078125 3.09765625 C7.95753784 3.10551147 7.95753784 3.10551147 6.5871582 3.11352539 C3.96358241 2.99840198 1.55706947 2.58234285 -1 2 C-0.67 1.34 -0.34 0.68 0 0 Z " fill="#973413" transform="translate(70,144)"/>
<path d="M0 0 C0.33 1.98 0.66 3.96 1 6 C-0.5625 7.25 -0.5625 7.25 -3 8 C-6.31801857 6.72495356 -9.38184533 5.23630934 -11 2 C-6.97107804 -0.96244261 -4.82799816 -1.2350693 0 0 Z " fill="#E6C16E" transform="translate(36,55)"/>
<path d="M0 0 C2.9375 2.6875 2.9375 2.6875 5 5 C4.67 5.99 4.34 6.98 4 8 C3.01 8 2.02 8 1 8 C0.54882812 7.38382813 0.09765625 6.76765625 -0.3671875 6.1328125 C-2.38611231 3.49565234 -4.01742044 2.95313985 -7.125 1.875 C-11.89982425 0.20035149 -11.89982425 0.20035149 -13 -2 C-7.69844517 -3.42236837 -4.78605938 -2.61057785 0 0 Z " fill="#D9B16E" transform="translate(184,140)"/>
<path d="M0 0 C0.33 0.66 0.66 1.32 1 2 C0.34 2 -0.32 2 -1 2 C-1 2.99 -1 3.98 -1 5 C-2.98260426 6.68732277 -4.9832342 8.35366057 -7 10 C-7.33 10.99 -7.66 11.98 -8 13 C-8.99 13 -9.98 13 -11 13 C-11.66 14.32 -12.32 15.64 -13 17 C-13.99 16.67 -14.98 16.34 -16 16 C-15.38125 15.236875 -14.7625 14.47375 -14.125 13.6875 C-11.94402948 11.00374191 -11.94402948 11.00374191 -10 8 C-9.34 8 -8.68 8 -8 8 C-7.79375 7.236875 -7.5875 6.47375 -7.375 5.6875 C-5.57929296 2.17770897 -3.56863688 1.47400219 0 0 Z " fill="#D19C15" transform="translate(107,79)"/>
<path d="M0 0 C6.625 -0.125 6.625 -0.125 10 1 C8.125 5.875 8.125 5.875 7 7 C5.00041636 7.04080783 2.99954746 7.04254356 1 7 C0.67 4.69 0.34 2.38 0 0 Z " fill="#DDB14D" transform="translate(53,79)"/>
<path d="M0 0 C2.31 0.33 4.62 0.66 7 1 C7.33 1.99 7.66 2.98 8 4 C8.66 4 9.32 4 10 4 C10.33 4.66 10.66 5.32 11 6 C11.804375 6.28875 12.60875 6.5775 13.4375 6.875 C16 8 16 8 17.3125 10.125 C17.6528125 11.053125 17.6528125 11.053125 18 12 C13.10526451 11.90010744 10.79161199 11.21179526 7.3125 7.6875 C6.19806004 6.46764005 5.09300633 5.23910124 4 4 C3.195625 3.195625 2.39125 2.39125 1.5625 1.5625 C1.046875 1.046875 0.53125 0.53125 0 0 Z " fill="#9B4A24" transform="translate(49,134)"/>
<path d="M0 0 C1.65 0 3.3 0 5 0 C0.71418783 4.85725379 -5.26430976 5.82712379 -11.5234375 6.22265625 C-17.42831876 6.26672253 -23.19341146 6.10601686 -29 5 C-29 4.67 -29 4.34 -29 4 C-28.29391602 3.97494385 -27.58783203 3.9498877 -26.86035156 3.92407227 C-23.65672491 3.80792631 -20.45337882 3.68528397 -17.25 3.5625 C-16.13882813 3.52318359 -15.02765625 3.48386719 -13.8828125 3.44335938 C-12.27792969 3.38051758 -12.27792969 3.38051758 -10.640625 3.31640625 C-9.65610352 3.27974854 -8.67158203 3.24309082 -7.65722656 3.20532227 C-5.28626032 3.02211916 -3.24001627 2.79283271 -1 2 C-0.67 1.34 -0.34 0.68 0 0 Z " fill="#B36234" transform="translate(170,118)"/>
<path d="M0 0 C3.84552601 6.29128055 2.65608445 14.70184574 1.27734375 21.6328125 C-0.41897827 27.66265354 -1.91043697 32.18282773 -7 36 C-7 35.01 -7 34.02 -7 33 C-6.34 33 -5.68 33 -5 33 C-4.896875 32.319375 -4.79375 31.63875 -4.6875 30.9375 C-3.86288548 27.41414706 -2.42388576 24.3224001 -1 21 C0.18334323 16.5879322 0.11516619 12.22084349 0.0625 7.6875 C0.05798828 6.94693359 0.05347656 6.20636719 0.04882812 5.44335938 C0.03712175 3.62887101 0.01918898 1.81442466 0 0 Z " fill="#D1973F" transform="translate(161,29)"/>
<path d="M0 0 C0 0.66 0 1.32 0 2 C-7.59 2.33 -15.18 2.66 -23 3 C-23.33 3.99 -23.66 4.98 -24 6 C-24.66 6 -25.32 6 -26 6 C-26 6.66 -26 7.32 -26 8 C-26.66 8 -27.32 8 -28 8 C-28 8.66 -28 9.32 -28 10 C-29.65 10 -31.3 10 -33 10 C-29.41915295 4.96443384 -26.1832479 2.28857732 -20 1 C-13.33902488 0.22352062 -6.70303688 -0.05093493 0 0 Z " fill="#E2B247" transform="translate(117,66)"/>
<path d="M0 0 C0.33 0 0.66 0 1 0 C1.2358396 5.77807024 0.86783046 10.51324804 -1 16 C-1.33 15.01 -1.66 14.02 -2 13 C-4.31 13 -6.62 13 -9 13 C-9 12.34 -9 11.68 -9 11 C-8.38125 10.731875 -7.7625 10.46375 -7.125 10.1875 C-4.7004767 9.04443152 -4.7004767 9.04443152 -3 6 C-2.34 6 -1.68 6 -1 6 C-0.67 4.02 -0.34 2.04 0 0 Z " fill="#E1B143" transform="translate(157,36)"/>
<path d="M0 0 C0.33 1.65 0.66 3.3 1 5 C-0.98 5 -2.96 5 -5 5 C-5.33 4.34 -5.66 3.68 -6 3 C-6.66386719 3.13277344 -7.32773437 3.26554687 -8.01171875 3.40234375 C-12.34114583 4.26822917 -16.67057292 5.13411458 -21 6 C-21 5.34 -21 4.68 -21 4 C-13.94103986 1.10078423 -7.70609492 -0.24081547 0 0 Z " fill="#E5B43C" transform="translate(48,48)"/>
<path d="M0 0 C2.3125 -0.3125 2.3125 -0.3125 5 0 C6.625 2.25 6.625 2.25 8 5 C8.5775 5.598125 9.155 6.19625 9.75 6.8125 C11.74026869 10.2954702 10.71043548 13.12489739 10 17 C9.34 17 8.68 17 8 17 C8 18.65 8 20.3 8 22 C7.34 21.67 6.68 21.34 6 21 C6.66 16.38 7.32 11.76 8 7 C6.68 6.34 5.36 5.68 4 5 C1.75 2.375 1.75 2.375 0 0 Z " fill="#E9C466" transform="translate(50,52)"/>
<path d="M0 0 C2.64 0 5.28 0 8 0 C8.33 0.66 8.66 1.32 9 2 C6.525 1.505 6.525 1.505 4 1 C4 1.66 4 2.32 4 3 C4.66 3.33 5.32 3.66 6 4 C5.08504761 3.99214478 5.08504761 3.99214478 4.15161133 3.98413086 C1.37191815 3.96326665 -1.40775851 3.95030987 -4.1875 3.9375 C-5.14720703 3.92912109 -6.10691406 3.92074219 -7.09570312 3.91210938 C-8.02705078 3.90888672 -8.95839844 3.90566406 -9.91796875 3.90234375 C-10.77156982 3.89710693 -11.6251709 3.89187012 -12.50463867 3.88647461 C-15.09246747 4.00420677 -17.47661953 4.42892956 -20 5 C-19 3 -19 3 -17.28515625 2.3671875 C-11.45178501 1.07543921 -5.96482204 0.7758522 0 1 C0 0.67 0 0.34 0 0 Z " fill="#9F3A14" transform="translate(141,69)"/>
<path d="M0 0 C0.33 0 0.66 0 1 0 C1.02696365 1.79158489 1.04637917 3.58328473 1.0625 5.375 C1.07410156 6.37273437 1.08570312 7.37046875 1.09765625 8.3984375 C1 11 1 11 0 13 C2.64 13.66 5.28 14.32 8 15 C3.60221349 16.09944663 0.14493778 15.68757507 -4.25 15.0625 C-4.99507813 14.96259766 -5.74015625 14.86269531 -6.5078125 14.75976562 C-8.33945442 14.51319844 -10.16986251 14.25749609 -12 14 C-8.7260295 10.14766248 -5.86754429 10.39897904 -1 10 C-0.67 6.7 -0.34 3.4 0 0 Z " fill="#963B1C" transform="translate(105,86)"/>
<path d="M0 0 C1.134375 0.020625 2.26875 0.04125 3.4375 0.0625 C3.1075 2.0425 2.7775 4.0225 2.4375 6.0625 C-0.2025 6.0625 -2.8425 6.0625 -5.5625 6.0625 C-4.48849278 0.07874549 -4.48849278 0.07874549 0 0 Z " fill="#D6A442" transform="translate(85.5625,75.9375)"/>
<path d="M0 0 C-0.875 4.875 -0.875 4.875 -2 6 C-3.99958364 6.04080783 -6.00045254 6.04254356 -8 6 C-8 4.02 -8 2.04 -8 0 C-5.13822943 -1.43088528 -3.06624227 -0.59991697 0 0 Z " fill="#D5A846" transform="translate(111,43)"/>
<path d="M0 0 C0.66 0 1.32 0 2 0 C0.63629701 2.99220268 -0.94908083 5.29026529 -3.125 7.75 C-3.93324219 8.67039062 -3.93324219 8.67039062 -4.7578125 9.609375 C-5.37269531 10.29773438 -5.37269531 10.29773438 -6 11 C-4.35 11.33 -2.7 11.66 -1 12 C-1 12.33 -1 12.66 -1 13 C-4.96 13 -8.92 13 -13 13 C-10.6875 10.5 -10.6875 10.5 -8 8 C-7.01 8 -6.02 8 -5 8 C-4.896875 7.360625 -4.79375 6.72125 -4.6875 6.0625 C-4.460625 5.381875 -4.23375 4.70125 -4 4 C-3.01 3.67 -2.02 3.34 -1 3 C-0.67 2.01 -0.34 1.02 0 0 Z " fill="#CA8A38" transform="translate(104,84)"/>
<path d="M0 0 C2.64 0 5.28 0 8 0 C8.33 0.66 8.66 1.32 9 2 C8.67 2.66 8.34 3.32 8 4 C8.99 4.33 9.98 4.66 11 5 C8.69 5.66 6.38 6.32 4 7 C1.49962266 4.82575883 0.56371414 3.26954202 0 0 Z " fill="#CF613E" transform="translate(146,79)"/>
<path d="M0 0 C2.64 0 5.28 0 8 0 C7.67 1.98 7.34 3.96 7 6 C5.00045254 6.04254356 2.99958364 6.04080783 1 6 C0 5 0 5 -0.0625 2.4375 C-0.041875 1.633125 -0.02125 0.82875 0 0 Z " fill="#D4A745" transform="translate(19,97)"/>
<path d="M0 0 C2.33944736 0.28730055 4.6739143 0.61936779 7 1 C7 2.32 7 3.64 7 5 C6 6 6 6 2.9375 6.0625 C1.968125 6.041875 0.99875 6.02125 0 6 C-0.38218767 4.34385343 -0.71395102 2.67542976 -1 1 C-0.67 0.67 -0.34 0.34 0 0 Z " fill="#CA9C3E" transform="translate(62,63)"/>
<path d="M0 0 C2.31 0.33 4.62 0.66 7 1 C7.33 1.99 7.66 2.98 8 4 C6.75 5.5625 6.75 5.5625 5 7 C2.86254078 6.74853421 1.54074221 6.54074221 0 5 C-0.04063832 3.33382885 -0.042721 1.66611905 0 0 Z " fill="#D2A544" transform="translate(57,50)"/>
<path d="M0 0 C0 1.65 0 3.3 0 5 C-2.70879335 6.35439668 -5.00933268 6.06501451 -8 6 C-8 4.35 -8 2.7 -8 1 C-5.29120665 -0.35439668 -2.99066732 -0.06501451 0 0 Z " fill="#CA9C3C" transform="translate(144,45)"/>
<path d="M0 0 C2.31 0.33 4.62 0.66 7 1 C7.33 2.32 7.66 3.64 8 5 C5.6875 6.125 5.6875 6.125 3 7 C2.01 6.34 1.02 5.68 0 5 C-0.1875 2.375 -0.1875 2.375 0 0 Z " fill="#D9B36E" transform="translate(108,14)"/>
<path d="M0 0 C2.15059309 3.53186832 2.3797728 6.66287993 2.625 10.75 C2.69976562 11.92046875 2.77453125 13.0909375 2.8515625 14.296875 C2.90054688 15.18890625 2.94953125 16.0809375 3 17 C2.01 16.67 1.02 16.34 0 16 C-1.36538938 13.26922124 -1.13231826 11.04439633 -1.125 8 C-1.12757812 6.9275 -1.13015625 5.855 -1.1328125 4.75 C-1 2 -1 2 0 0 Z " fill="#CD9958" transform="translate(118,147)"/>
<path d="M0 0 C0.66 0.99 1.32 1.98 2 3 C1.34 3 0.68 3 0 3 C-0.33 3.99 -0.66 4.98 -1 6 C-1.33 5.34 -1.66 4.68 -2 4 C-1.67 3.01 -1.34 2.02 -1 1 C-7.91663627 2.09890483 -14.42736799 3.56569185 -21 6 C-21 5.01 -21 4.02 -21 3 C-13.90032195 0.98181741 -7.40588962 -0.716699 0 0 Z " fill="#CC5F3B" transform="translate(89,105)"/>
<path d="M0 0 C2.31 0 4.62 0 7 0 C7 1.98 7 3.96 7 6 C4.69 6 2.38 6 0 6 C0 4.02 0 2.04 0 0 Z " fill="#CB9C3C" transform="translate(40,96)"/>
<path d="M0 0 C0 1.32 0 2.64 0 4 C-0.66 4 -1.32 4 -2 4 C-2 4.66 -2 5.32 -2 6 C-3.65 5.67 -5.3 5.34 -7 5 C-7.33 3.35 -7.66 1.7 -8 0 C-5.13822943 -1.43088528 -3.06624227 -0.59991697 0 0 Z " fill="#DAB671" transform="translate(114,31)"/>
<path d="M0 0 C0 1.65 0 3.3 0 5 C-2.64 4.67 -5.28 4.34 -8 4 C-8 2.68 -8 1.36 -8 0 C-5.13822943 -1.43088528 -3.06624227 -0.59991697 0 0 Z " fill="#D7B370" transform="translate(131,28)"/>
<path d="M0 0 C4.82800923 2.48297617 8.73772341 5.75972299 10.7578125 10.9453125 C11.23713564 12.61281694 11.62720882 14.30549463 12 16 C11.34 16 10.68 16 10 16 C10 15.01 10 14.02 10 13 C9.01 12.67 8.02 12.34 7 12 C5.9375 10.22265625 5.9375 10.22265625 5 8.0625 C3.57626295 4.79383702 3.12562542 4.08375028 0 2 C0 1.34 0 0.68 0 0 Z " fill="#A2552C" transform="translate(171,81)"/>
<path d="M0 0 C2.64 0 5.28 0 8 0 C8 1.65 8 3.3 8 5 C5.69 5 3.38 5 1 5 C0.67 3.35 0.34 1.7 0 0 Z " fill="#CA9C3C" transform="translate(68,54)"/>
<path d="M0 0 C2.375 -0.125 2.375 -0.125 5 0 C7 2 7 2 7 6 C4.69 6 2.38 6 0 6 C0 4.02 0 2.04 0 0 Z " fill="#CA9C3D" transform="translate(125,52)"/>
<path d="M0 0 C1.4540625 0.0309375 1.4540625 0.0309375 2.9375 0.0625 C2.980221 1.72861905 2.97813832 3.39632885 2.9375 5.0625 C1.9375 6.0625 1.9375 6.0625 -0.625 6.125 C-1.8315625 6.0940625 -1.8315625 6.0940625 -3.0625 6.0625 C-3.44468767 4.40635343 -3.77645102 2.73792976 -4.0625 1.0625 C-3.0625 0.0625 -3.0625 0.0625 0 0 Z " fill="#C99B3D" transform="translate(148.0625,33.9375)"/>
<path d="M0 0 C4 0 8 0 12 0 C11.67 1.65 11.34 3.3 11 5 C6.545 4.01 6.545 4.01 2 3 C2 2.34 2 1.68 2 1 C1.34 0.67 0.68 0.34 0 0 Z " fill="#E2AE3B" transform="translate(23,111)"/>
<path d="M0 0 C2.97 0.495 2.97 0.495 6 1 C6 2.65 6 4.3 6 6 C3.69 6 1.38 6 -1 6 C-0.67 4.02 -0.34 2.04 0 0 Z " fill="#D9B46F" transform="translate(47,63)"/>
<path d="M0 0 C0 1.65 0 3.3 0 5 C-2.31 5 -4.62 5 -7 5 C-7 3.35 -7 1.7 -7 0 C-3.86650268 -1.04449911 -3.01031744 -0.93423645 0 0 Z " fill="#CB9D3D" transform="translate(100,55)"/>
<path d="M0 0 C4.12751449 0.60698743 7.3321148 2.03810791 11 4 C10.67 5.32 10.34 6.64 10 8 C9.34 7.01 8.68 6.02 8 5 C7.05125 5 6.1025 5 5.125 5 C1.58757236 5 0.54127011 4.34578779 -2 2 C-1.34 2 -0.68 2 0 2 C0 1.34 0 0.68 0 0 Z " fill="#D2A25D" transform="translate(169,133)"/>
<path d="M0 0 C1 2 1 2 0.1875 4.5 C-1.75079645 8.5806241 -3.93880107 9.43800041 -8 11 C-8.33 11.33 -8.66 11.66 -9 12 C-11.33297433 12.04092937 -13.66705225 12.04241723 -16 12 C-16 11.67 -16 11.34 -16 11 C-14.02 11 -12.04 11 -10 11 C-9.67 10.01 -9.34 9.02 -9 8 C-7.68 8 -6.36 8 -5 8 C-5 7.34 -5 6.68 -5 6 C-4.34 6 -3.68 6 -3 6 C-2.690625 5.195625 -2.38125 4.39125 -2.0625 3.5625 C-1 1 -1 1 0 0 Z " fill="#E9C469" transform="translate(136,28)"/>
<path d="M0 0 C3.5610073 1.48508376 5.60021023 3.48541171 8.125 6.375 C8.80820313 7.14585938 9.49140625 7.91671875 10.1953125 8.7109375 C11.84755902 10.80664412 13.10980201 12.48944163 14 15 C13.625 17.25 13.625 17.25 13 19 C12.74605469 18.45730469 12.49210938 17.91460938 12.23046875 17.35546875 C11.88628906 16.64003906 11.54210937 15.92460937 11.1875 15.1875 C10.85105469 14.47980469 10.51460937 13.77210937 10.16796875 13.04296875 C9.08586675 10.94242539 9.08586675 10.94242539 7.36328125 9.36328125 C6.91339844 8.91339844 6.46351563 8.46351562 6 8 C6 7.34 6 6.68 6 6 C5.34 6 4.68 6 4 6 C0 1.41176471 0 1.41176471 0 0 Z " fill="#D9A948" transform="translate(147,10)"/>
<path d="M0 0 C1.67542976 0.28604898 3.34385343 0.61781233 5 1 C5.33 2.65 5.66 4.3 6 6 C4.02 6 2.04 6 0 6 C-0.38218767 4.34385343 -0.71395102 2.67542976 -1 1 C-0.67 0.67 -0.34 0.34 0 0 Z " fill="#D8B46F" transform="translate(21,79)"/>
<path d="M0 0 C1.98 0 3.96 0 6 0 C6 1.65 6 3.3 6 5 C2.98968256 5.93423645 2.13349732 6.04449911 -1 5 C-0.67 3.35 -0.34 1.7 0 0 Z " fill="#D7B16D" transform="translate(34,70)"/>
<path d="M0 0 C0.33 0 0.66 0 1 0 C1.66 3.3 2.32 6.6 3 10 C4.65 10 6.3 10 8 10 C7.01 10.495 7.01 10.495 6 11 C6 12.32 6 13.64 6 15 C7.32 14.67 8.64 14.34 10 14 C10 15.32 10 16.64 10 18 C9.34 18 8.68 18 8 18 C8 17.34 8 16.68 8 16 C7.01 16 6.02 16 5 16 C3.99088542 14.20963542 2.98177083 12.41927083 1.97265625 10.62890625 C1.1027487 9.02121854 1.1027487 9.02121854 0 8 C-0.14115161 5.32941149 -0.04247107 2.67567762 0 0 Z " fill="#E4B972" transform="translate(120,153)"/>
<path d="M0 0 C0.33 0.66 0.66 1.32 1 2 C0.54625 2.86625 0.0925 3.7325 -0.375 4.625 C-2.29348672 8.60954934 -2.62261923 11.6223831 -3 16 C-3.66 15.67 -4.32 15.34 -5 15 C-5.17942163 11.05272412 -5.09350689 8.4019487 -3 5 C-5.31 5 -7.62 5 -10 5 C-10 4.67 -10 4.34 -10 4 C-6.97265625 3.75585938 -6.97265625 3.75585938 -3.9453125 3.51171875 C-1.60480784 3.12606964 -1.60480784 3.12606964 0 0 Z " fill="#B86E2E" transform="translate(52,118)"/>
<path d="M0 0 C0.33 0 0.66 0 1 0 C1.34408602 5.24731183 1.34408602 5.24731183 1 8 C-0.6875 9.8125 -0.6875 9.8125 -3 11 C-4.2684375 11.8353125 -4.2684375 11.8353125 -5.5625 12.6875 C-8 14 -8 14 -11 14 C-10.34 12.02 -9.68 10.04 -9 8 C-8.34 8 -7.68 8 -7 8 C-7 8.66 -7 9.32 -7 10 C-3.93449408 9.01041003 -3.93449408 9.01041003 -1 7 C-0.02126462 3.40614946 -0.02126462 3.40614946 0 0 Z " fill="#B46433" transform="translate(186,103)"/>
<path d="M0 0 C3.2578125 0.2421875 3.2578125 0.2421875 7.125 0.875 C8.40632813 1.07867187 9.68765625 1.28234375 11.0078125 1.4921875 C11.99523438 1.65976563 12.98265625 1.82734375 14 2 C13.67 3.32 13.34 4.64 13 6 C12.34 6 11.68 6 11 6 C11 5.01 11 4.02 11 3 C10.01 3 9.02 3 8 3 C7.67 3.66 7.34 4.32 7 5 C4.03 4.01 1.06 3.02 -2 2 C-1.34 1.34 -0.68 0.68 0 0 Z " fill="#E4B549" transform="translate(24,108)"/>
<path d="M0 0 C0 1.32 0 2.64 0 4 C-4.75 5.125 -4.75 5.125 -7 4 C-7 2.68 -7 1.36 -7 0 C-4.3333581 -1.33332095 -2.83319697 -0.67102033 0 0 Z " fill="#C99B3C" transform="translate(63,93)"/>
<path d="M0 0 C0.99 0.33 1.98 0.66 3 1 C2.34 1.66 1.68 2.32 1 3 C6.28 5.97 11.56 8.94 17 12 C16.01 12.495 16.01 12.495 15 13 C13.30419922 12.37915039 13.30419922 12.37915039 11.3046875 11.34765625 C10.58925781 10.98349609 9.87382812 10.61933594 9.13671875 10.24414062 C8.39035156 9.85419922 7.64398438 9.46425781 6.875 9.0625 C5.74384766 8.48338867 5.74384766 8.48338867 4.58984375 7.89257812 C2.72290903 6.93547868 0.86097372 5.96863894 -1 5 C-0.67 3.35 -0.34 1.7 0 0 Z " fill="#BF7339" transform="translate(151,66)"/>
<path d="M0 0 C1.49080078 0.16628906 1.49080078 0.16628906 3.01171875 0.3359375 C3.77097656 0.43132813 4.53023437 0.52671875 5.3125 0.625 C5.3125 1.615 5.3125 2.605 5.3125 3.625 C2.6725 3.625 0.0325 3.625 -2.6875 3.625 C-2.6875 2.965 -2.6875 2.305 -2.6875 1.625 C-4.6675 1.625 -6.6475 1.625 -8.6875 1.625 C-5.1388865 -0.74074234 -4.1110475 -0.48365265 0 0 Z " fill="#DFB96D" transform="translate(43.6875,52.375)"/>
<path d="M0 0 C0 0.99 0 1.98 0 3 C-6.6 3 -13.2 3 -20 3 C-20 2.67 -20 2.34 -20 2 C-13.1834265 0.2120463 -7.03482474 -0.23668569 0 0 Z " fill="#D8A015" transform="translate(134,6)"/>
<path d="M0 0 C2.33944736 0.28730055 4.6739143 0.61936779 7 1 C5.25 4.875 5.25 4.875 3 6 C1.0546875 5.22265625 1.0546875 5.22265625 -1.125 4.0625 C-1.84945312 3.68222656 -2.57390625 3.30195313 -3.3203125 2.91015625 C-3.87460937 2.60980469 -4.42890625 2.30945313 -5 2 C-4.360625 1.855625 -3.72125 1.71125 -3.0625 1.5625 C-1.02454854 1.18992819 -1.02454854 1.18992819 0 0 Z " fill="#AD401F" transform="translate(64,138)"/>
<path d="M0 0 C-0.33 1.32 -0.66 2.64 -1 4 C-3.31 4 -5.62 4 -8 4 C-8 2.68 -8 1.36 -8 0 C-4.71023192 -1.09658936 -3.28696233 -0.79953138 0 0 Z " fill="#D1A85A" transform="translate(44,84)"/>
<path d="M0 0 C1.66611905 -0.042721 3.33382885 -0.04063832 5 0 C6 1 6 1 6.0625 3.5625 C6.041875 4.366875 6.02125 5.17125 6 6 C4.33388095 6.042721 2.66617115 6.04063832 1 6 C0 5 0 5 -0.0625 2.4375 C-0.041875 1.633125 -0.02125 0.82875 0 0 Z " fill="#D1A445" transform="translate(112,56)"/>
<path d="M0 0 C-0.33 0.99 -0.66 1.98 -1 3 C-4.3 3 -7.6 3 -11 3 C-11 2.01 -11 1.02 -11 0 C-9.54263913 -0.19491452 -8.08405407 -0.38069358 -6.625 -0.5625 C-5.81289063 -0.66691406 -5.00078125 -0.77132812 -4.1640625 -0.87890625 C-2 -1 -2 -1 0 0 Z " fill="#D29D12" transform="translate(51,119)"/>
<path d="M0 0 C-0.33 0.99 -0.66 1.98 -1 3 C-3.76366247 4.05086948 -6.39503741 4.11860688 -9.328125 4.09765625 C-10.12734375 4.09443359 -10.9265625 4.09121094 -11.75 4.08789062 C-12.575 4.07951172 -13.4 4.07113281 -14.25 4.0625 C-15.09046875 4.05798828 -15.9309375 4.05347656 -16.796875 4.04882812 C-18.86461401 4.03707961 -20.93231624 4.01914522 -23 4 C-23 3.67 -23 3.34 -23 3 C-21.46279297 2.92652344 -21.46279297 2.92652344 -19.89453125 2.8515625 C-18.5338294 2.77648929 -17.17315356 2.70094345 -15.8125 2.625 C-15.13896484 2.5940625 -14.46542969 2.563125 -13.77148438 2.53125 C-8.9008328 2.24613869 -4.71642016 0 0 0 Z " fill="#872C0B" transform="translate(170,118)"/>
<path d="M0 0 C2.31 0 4.62 0 7 0 C6.67 1.65 6.34 3.3 6 5 C4.35 5 2.7 5 1 5 C0.67 3.35 0.34 1.7 0 0 Z " fill="#C69334" transform="translate(141,59)"/>
<path d="M0 0 C1.32 0 2.64 0 4 0 C3.34 2.97 2.68 5.94 2 9 C0.68 8.67 -0.64 8.34 -2 8 C-1.125 1.125 -1.125 1.125 0 0 Z " fill="#E9C161" transform="translate(93,25)"/>
<path d="M0 0 C0.66 0 1.32 0 2 0 C2.309375 0.804375 2.61875 1.60875 2.9375 2.4375 C3.76335345 4.89080405 3.76335345 4.89080405 5 6 C5.25 8.9375 5.25 8.9375 5 12 C2 14 2 14 -1 14 C-1 13.34 -1 12.68 -1 12 C-0.01 11.67 0.98 11.34 2 11 C2.24042276 6.91281305 1.42258812 3.82320557 0 0 Z " fill="#8E3012" transform="translate(180,99)"/>
<path d="M0 0 C1.98 0 3.96 0 6 0 C6 1.32 6 2.64 6 4 C1.25 5.125 1.25 5.125 -1 4 C-0.67 2.68 -0.34 1.36 0 0 Z " fill="#C79537" transform="translate(40,110)"/>
<path d="M0 0 C0.33 0.99 0.66 1.98 1 3 C-1.64 3.33 -4.28 3.66 -7 4 C-6.67 3.34 -6.34 2.68 -6 2 C-7.65 1.67 -9.3 1.34 -11 1 C-11 0.67 -11 0.34 -11 0 C-6.98195309 -0.84098656 -3.98196457 -1.05404945 0 0 Z " fill="#E3AD45" transform="translate(128,65)"/>
<path d="M0 0 C2.97 0 5.94 0 9 0 C9 1.32 9 2.64 9 4 C6.69 4 4.38 4 2 4 C1.34 2.68 0.68 1.36 0 0 Z " fill="#CC9138" transform="translate(127,64)"/>
<path d="M0 0 C1.98 0 3.96 0 6 0 C6 1.32 6 2.64 6 4 C3.69 4.33 1.38 4.66 -1 5 C-0.67 3.35 -0.34 1.7 0 0 Z " fill="#C39435" transform="translate(79,63)"/>
<path d="M0 0 C1.65 0.33 3.3 0.66 5 1 C5.33 1.99 5.66 2.98 6 4 C4.1875 5.0625 4.1875 5.0625 2 6 C1.01 5.67 0.02 5.34 -1 5 C-0.67 3.35 -0.34 1.7 0 0 Z " fill="#D9B470" transform="translate(31,57)"/>
<path d="M0 0 C-0.56589844 0.32613281 -1.13179687 0.65226563 -1.71484375 0.98828125 C-2.44832031 1.42527344 -3.18179688 1.86226562 -3.9375 2.3125 C-5.03384766 2.95638672 -5.03384766 2.95638672 -6.15234375 3.61328125 C-8.29977412 4.95110254 -8.29977412 4.95110254 -9 8 C-9.99 8 -10.98 8 -12 8 C-12.33 8.99 -12.66 9.98 -13 11 C-13.33 10.34 -13.66 9.68 -14 9 C-5.39177489 -1.7972583 -5.39177489 -1.7972583 0 0 Z " fill="#CB864A" transform="translate(133,135)"/>
<path d="M0 0 C0.81210937 0.46019531 0.81210937 0.46019531 1.640625 0.9296875 C4.34450508 2.15628211 6.82462658 2.63743776 9.75 3.125 C10.73484375 3.29257813 11.7196875 3.46015625 12.734375 3.6328125 C13.85585938 3.81457031 13.85585938 3.81457031 15 4 C11.64672361 6.23551759 11.09256343 6.17283528 7.3125 5.625 C6.10013672 5.45871094 6.10013672 5.45871094 4.86328125 5.2890625 C3.94095703 5.14597656 3.94095703 5.14597656 3 5 C3 4.34 3 3.68 3 3 C2.01 2.67 1.02 2.34 0 2 C0 1.34 0 0.68 0 0 Z " fill="#E7C264" transform="translate(16,84)"/>
<path d="M0 0 C1.65 0 3.3 0 5 0 C5.33 0.99 5.66 1.98 6 3 C5.67 3.66 5.34 4.32 5 5 C2.03 4.505 2.03 4.505 -1 4 C-0.67 2.68 -0.34 1.36 0 0 Z " fill="#C69838" transform="translate(54,80)"/>
<path d="M0 0 C1.65 0 3.3 0 5 0 C5 1.65 5 3.3 5 5 C3.02 5 1.04 5 -1 5 C-0.67 3.35 -0.34 1.7 0 0 Z " fill="#C6983D" transform="translate(120,40)"/>
<path d="M0 0 C0.99 0.33 1.98 0.66 3 1 C0.525 2.485 0.525 2.485 -2 4 C-1.67 4.66 -1.34 5.32 -1 6 C-3.1385485 8.1385485 -4.13275314 8.42655063 -7 9 C-5.66087415 4.61740632 -3.87774964 2.45906075 0 0 Z " fill="#EAC468" transform="translate(20,60)"/>
<path d="M0 0 C-5.45126259 2.23891142 -10.13190493 3.47606294 -16 4 C-15 2 -15 2 -12.63671875 1.11328125 C-11.66347656 0.84902344 -10.69023438 0.58476563 -9.6875 0.3125 C-8.72199219 0.04050781 -7.75648437 -0.23148438 -6.76171875 -0.51171875 C-4.04794289 -0.99152353 -2.56334995 -0.90721887 0 0 Z " fill="#E8BF57" transform="translate(43,51)"/>
<path d="M0 0 C2.31 0 4.62 0 7 0 C7 1.32 7 2.64 7 4 C4.69 4 2.38 4 0 4 C0 2.68 0 1.36 0 0 Z " fill="#C79536" transform="translate(148,49)"/>
<path d="M0 0 C3.19806665 0.4603764 3.19806665 0.4603764 6.6875 0.625 C8.45673828 0.73714844 8.45673828 0.73714844 10.26171875 0.8515625 C11.61716797 0.92503906 11.61716797 0.92503906 13 1 C13 1.33 13 1.66 13 2 C10.41603321 2.08112454 7.83462432 2.14054748 5.25 2.1875 C4.15558594 2.22520508 4.15558594 2.22520508 3.0390625 2.26367188 C-0.34486604 2.30981636 -2.57858557 2.25324128 -5.515625 0.48828125 C-6.00546875 -0.00285156 -6.4953125 -0.49398437 -7 -1 C-3.51418144 -2.2020064 -3.32007656 -2.21338437 0 0 Z " fill="#EFCC78" transform="translate(107,39)"/>
<path d="M0 0 C0 0.66 0 1.32 0 2 C-2.64738916 3.4606285 -3.89448334 4 -7 4 C-7 2.68 -7 1.36 -7 0 C-4.3333581 -1.33332095 -2.83319697 -0.67102033 0 0 Z " fill="#C39436" transform="translate(75,84)"/>
<path d="M0 0 C1.65 0 3.3 0 5 0 C5.33 1.32 5.66 2.64 6 4 C4.35 4.33 2.7 4.66 1 5 C0.67 3.35 0.34 1.7 0 0 Z " fill="#C5973A" transform="translate(91,35)"/>
<path d="M0 0 C1.19882813 0.15275391 1.19882813 0.15275391 2.421875 0.30859375 C3.02515625 0.39238281 3.6284375 0.47617188 4.25 0.5625 C4.25 0.8925 4.25 1.2225 4.25 1.5625 C-0.37 1.8925 -4.99 2.2225 -9.75 2.5625 C-8.75 0.5625 -8.75 0.5625 -6.984375 -0.08984375 C-4.5100683 -0.47483203 -2.47863829 -0.32805507 0 0 Z " fill="#8B2B09" transform="translate(95.75,97.4375)"/>
<path d="M0 0 C0.66 0.66 1.32 1.32 2 2 C1.625 5.625 1.625 5.625 1 9 C0.67 8.01 0.34 7.02 0 6 C-1.98 6 -3.96 6 -6 6 C-5.38125 5.938125 -4.7625 5.87625 -4.125 5.8125 C-1.72238859 5.171081 -1.72238859 5.171081 -0.75 2.4375 C-0.5025 1.633125 -0.255 0.82875 0 0 Z " fill="#DDAA3C" transform="translate(155,43)"/>
<path d="M0 0 C-0.33 1.32 -0.66 2.64 -1 4 C-3.16874252 3.49396008 -4.99967627 3.00016187 -7 2 C-7 1.34 -7 0.68 -7 0 C-4.3333581 -1.33332095 -2.83319697 -0.67102033 0 0 Z " fill="#D0A655" transform="translate(134,13)"/>
<path d="M0 0 C0.66 0.33 1.32 0.66 2 1 C1.67 3.31 1.34 5.62 1 8 C0.01 8.33 -0.98 8.66 -2 9 C-2.33 9.66 -2.66 10.32 -3 11 C-2.11223998 7.30099992 -1.05418136 3.65449539 0 0 Z " fill="#E5BA74" transform="translate(189,152)"/>
<path d="M0 0 C2.3125 -0.3125 2.3125 -0.3125 5 0 C6.8125 2.5 6.8125 2.5 8 5 C6.1875 5.625 6.1875 5.625 4 6 C3.01 5.34 2.02 4.68 1 4 C1.66 3.67 2.32 3.34 3 3 C2.01 2.01 1.02 1.02 0 0 Z " fill="#9D3112" transform="translate(114,100)"/>
<path d="M0 0 C1.98 0 3.96 0 6 0 C5.67 1.32 5.34 2.64 5 4 C3.02 4 1.04 4 -1 4 C-0.67 2.68 -0.34 1.36 0 0 Z " fill="#C69435" transform="translate(82,77)"/>
<path d="M0 0 C-0.33 1.32 -0.66 2.64 -1 4 C-2.65 3.67 -4.3 3.34 -6 3 C-6 2.01 -6 1.02 -6 0 C-3.50907189 -1.24546405 -2.58919267 -0.7767578 0 0 Z " fill="#CB9237" transform="translate(109,69)"/>
<path d="M0 0 C2.475 0.495 2.475 0.495 5 1 C5 2.32 5 3.64 5 5 C3.35 5 1.7 5 0 5 C0 3.35 0 1.7 0 0 Z " fill="#C79A3C" transform="translate(138,22)"/>
<path d="M0 0 C0.66 0.33 1.32 0.66 2 1 C1.34 2.65 0.68 4.3 0 6 C1.65 6.33 3.3 6.66 5 7 C5 7.33 5 7.66 5 8 C-0.75 8.125 -0.75 8.125 -3 7 C-3.1875 4.625 -3.1875 4.625 -3 2 C-2.01 1.34 -1.02 0.68 0 0 Z " fill="#CC5D3A" transform="translate(66,111)"/>
<path d="M0 0 C1.65 0 3.3 0 5 0 C5.33 1.32 5.66 2.64 6 4 C4.02 4 2.04 4 0 4 C0 2.68 0 1.36 0 0 Z " fill="#C49538" transform="translate(104,44)"/>
<path d="M0 0 C1.65 0.33 3.3 0.66 5 1 C5 1.66 5 2.32 5 3 C5.99 3.66 6.98 4.32 8 5 C6.54077307 4.88590407 5.08259402 4.75834456 3.625 4.625 C2.40683594 4.52058594 2.40683594 4.52058594 1.1640625 4.4140625 C-1 4 -1 4 -3 2 C-1.68 2 -0.36 2 1 2 C0.67 1.34 0.34 0.68 0 0 Z " fill="#AF5D2F" transform="translate(65,143)"/>
<path d="M0 0 C-0.33 0.66 -0.66 1.32 -1 2 C-3.06640625 2.6328125 -3.06640625 2.6328125 -5.5625 3.125 C-6.80193359 3.37636719 -6.80193359 3.37636719 -8.06640625 3.6328125 C-8.70449219 3.75398438 -9.34257813 3.87515625 -10 4 C-10 3.01 -10 2.02 -10 1 C-6.78548731 -0.60725635 -3.56387464 -0.05748185 0 0 Z " fill="#C4802F" transform="translate(80,99)"/>
<path d="M0 0 C0.66 0 1.32 0 2 0 C2.33 0.99 2.66 1.98 3 3 C1.3125 5.0625 1.3125 5.0625 -1 7 C-3.75 6.75 -3.75 6.75 -6 6 C-3.38058783 4.25372522 -1.96175123 3.61277612 1 3 C0.67 2.01 0.34 1.02 0 0 Z " fill="#D8AC4B" transform="translate(74,83)"/>
<path d="M0 0 C0.33 0.66 0.66 1.32 1 2 C0.67 2.99 0.34 3.98 0 5 C3.465 4.505 3.465 4.505 7 4 C5 6 5 6 3.0546875 6.1953125 C1.03645833 6.13020833 -0.98177083 6.06510417 -3 6 C-2.42655063 3.13275314 -2.1385485 2.1385485 0 0 Z " fill="#DBAF4C" transform="translate(78,63)"/>
<path d="M0 0 C0.66 0 1.32 0 2 0 C2 0.66 2 1.32 2 2 C2.66 2 3.32 2 4 2 C5.38938077 3.96147874 6.7260411 5.96166576 8 8 C5.125 7.375 5.125 7.375 2 6 C0.625 2.875 0.625 2.875 0 0 Z " fill="#CB9913" transform="translate(149,14)"/>
<path d="M0 0 C0.66 0.33 1.32 0.66 2 1 C0.8125 3.5 0.8125 3.5 -1 6 C-3.6875 6.3125 -3.6875 6.3125 -6 6 C-5 3 -5 3 -2.5625 1.25 C-1.716875 0.8375 -0.87125 0.425 0 0 Z " fill="#E8BC4D" transform="translate(103,14)"/>
<path d="M0 0 C2.625 0.375 2.625 0.375 5 1 C3.68 1.33 2.36 1.66 1 2 C1 2.66 1 3.32 1 4 C-1.97 4 -4.94 4 -8 4 C-8 3.67 -8 3.34 -8 3 C-6.576875 2.814375 -6.576875 2.814375 -5.125 2.625 C-1.91332809 2.28312823 -1.91332809 2.28312823 0 0 Z " fill="#974824" transform="translate(97,144)"/>
<path d="M0 0 C2.97 0.495 2.97 0.495 6 1 C5.67 1.99 5.34 2.98 5 4 C2.03 3.505 2.03 3.505 -1 3 C-0.67 2.01 -0.34 1.02 0 0 Z " fill="#C19234" transform="translate(20,98)"/>
<path d="M0 0 C0 0.66 0 1.32 0 2 C-0.969375 2.2475 -1.93875 2.495 -2.9375 2.75 C-3.948125 3.1625 -4.95875 3.575 -6 4 C-6.96877057 6.03243548 -6.96877057 6.03243548 -7 8 C-7.66 8 -8.32 8 -9 8 C-8.875 6.25 -8.875 6.25 -8 4 C-2.77777778 0 -2.77777778 0 0 0 Z " fill="#E9C468" transform="translate(53,79)"/>
<path d="M0 0 C0.66 0.33 1.32 0.66 2 1 C1.01 2.485 1.01 2.485 0 4 C-0.66 4 -1.32 4 -2 4 C-2.66 6.64 -3.32 9.28 -4 12 C-5.12737713 8.61786861 -5.06292002 7.35228621 -4 4 C-1.9375 1.6875 -1.9375 1.6875 0 0 Z " fill="#DCA620" transform="translate(14,63)"/>
<path d="M0 0 C-2.97 2.475 -2.97 2.475 -6 5 C-6.33 3.68 -6.66 2.36 -7 1 C-3.375 -1.125 -3.375 -1.125 0 0 Z " fill="#C79036" transform="translate(62,108)"/>
<path d="M0 0 C1.32 0 2.64 0 4 0 C3.67 1.32 3.34 2.64 3 4 C1.68 4.33 0.36 4.66 -1 5 C-0.67 3.35 -0.34 1.7 0 0 Z " fill="#CFA553" transform="translate(98,20)"/>
<path d="M0 0 C0.33 0.66 0.66 1.32 1 2 C2.33076989 2.34342449 3.66431979 2.67619874 5 3 C5.66 3.66 6.32 4.32 7 5 C4.625 5.625 4.625 5.625 2 6 C1.34 5.34 0.68 4.68 0 4 C0 2.68 0 1.36 0 0 Z " fill="#DDB974" transform="translate(126,13)"/>
<path d="M0 0 C-0.99 0.33 -1.98 0.66 -3 1 C-3 1.66 -3 2.32 -3 3 C-3.99 3.33 -4.98 3.66 -6 4 C-6.33 3.34 -6.66 2.68 -7 2 C-7.66 1.67 -8.32 1.34 -9 1 C-5.64919071 -1.10976881 -3.77897651 -1.0497157 0 0 Z " fill="#9D4013" transform="translate(73,105)"/>
<path d="M0 0 C1.32 0.33 2.64 0.66 4 1 C4 1.99 4 2.98 4 4 C1.29120665 5.35439668 -1.00933268 5.06501451 -4 5 C-2.68 4.67 -1.36 4.34 0 4 C0 2.68 0 1.36 0 0 Z " fill="#DEB34E" transform="translate(100,56)"/>
<path d="M0 0 C1.65 0 3.3 0 5 0 C5.33 0.99 5.66 1.98 6 3 C4.02 3 2.04 3 0 3 C0 2.01 0 1.02 0 0 Z " fill="#CDA144" transform="translate(43,50)"/>
<path d="M0 0 C0.99 0.33 1.98 0.66 3 1 C2.67 1.99 2.34 2.98 2 4 C-0.31 4 -2.62 4 -5 4 C-2.6875 1.9375 -2.6875 1.9375 0 0 Z " fill="#DEB974" transform="translate(102,22)"/>
<path d="M0 0 C1.98 0 3.96 0 6 0 C6 1.32 6 2.64 6 4 C4.68 3.67 3.36 3.34 2 3 C2 2.34 2 1.68 2 1 C1.34 0.67 0.68 0.34 0 0 Z " fill="#DFAA31" transform="translate(23,111)"/>
<path d="M0 0 C0 0.66 0 1.32 0 2 C-3 4 -3 4 -5.1875 3.625 C-5.785625 3.41875 -6.38375 3.2125 -7 3 C-4.49955934 -0.00052879 -4.2621484 0 0 0 Z " fill="#B34625" transform="translate(68,109)"/>
<path d="M0 0 C2.31 0 4.62 0 7 0 C6.34 1.32 5.68 2.64 5 4 C2 3 2 3 0 2 C0 1.34 0 0.68 0 0 Z " fill="#DEA733" transform="translate(86,93)"/>
<path d="M0 0 C1.9375 0.3125 1.9375 0.3125 4 1 C4.33 1.99 4.66 2.98 5 4 C3.35 4 1.7 4 0 4 C0 2.68 0 1.36 0 0 Z " fill="#C39335" transform="translate(112,57)"/>
<path d="M0 0 C2.475 0.495 2.475 0.495 5 1 C4.67 1.99 4.34 2.98 4 4 C2.68 4 1.36 4 0 4 C0 2.68 0 1.36 0 0 Z " fill="#C29234" transform="translate(58,51)"/>
</svg>
