<?xml version="1.0" encoding="UTF-8"?>
<svg version="1.1" xmlns="http://www.w3.org/2000/svg" width="173" height="164">
<path d="M0 0 C3.27169407 2.18112938 3.42740695 2.46936837 4.31640625 6.02734375 C4.52330078 6.81947266 4.73019531 7.61160156 4.94335938 8.42773438 C5.14767578 9.25595703 5.35199219 10.08417969 5.5625 10.9375 C5.97549993 12.57287745 6.39328719 14.20705515 6.81640625 15.83984375 C6.99631104 16.56550537 7.17621582 17.29116699 7.36157227 18.03881836 C7.9953363 20.28539639 7.9953363 20.28539639 10 23 C10.75023437 22.33613281 11.50046875 21.67226563 12.2734375 20.98828125 C23.65947093 11.09193925 34.17301661 5.41593126 49.5546875 5.68359375 C64.85980064 7.08916536 75.71709013 15.25643954 86 26 C88.12600518 28.86230514 89.59940783 31.73015597 91 35 C91.43828125 35.93714844 91.8765625 36.87429687 92.328125 37.83984375 C100.16636341 55.34073813 100.6466716 76.00885496 94 94 C90.73447478 102.11794894 86.69076564 109.62879686 82 117 C81.28888911 118.13791249 80.57796363 119.27594087 79.8671875 120.4140625 C67.89118683 139.45467315 67.89118683 139.45467315 62 143 C57.39349023 143.87966878 52.68126352 143.87024431 48 144 C47.17016602 144.02723145 46.34033203 144.05446289 45.48535156 144.08251953 C27.61765443 144.60303324 12.1259548 142.50467405 -4.9375 137.1875 C-5.96786377 136.86845703 -6.99822754 136.54941406 -8.05981445 136.22070312 C-18.05513088 132.9541651 -27.17369108 128.58105835 -34.8125 121.25 C-35.63512329 120.46749878 -35.63512329 120.46749878 -36.47436523 119.66918945 C-46.8327217 109.51499949 -51.16237195 96.15240982 -52.03515625 81.8046875 C-51.85189846 67.18478859 -48.33664232 53.95994268 -38.328125 43.203125 C-28.75432942 33.95663867 -17.09260763 29.77426539 -4 30 C-4.56589844 28.87722656 -5.13179687 27.75445312 -5.71484375 26.59765625 C-6.45644624 25.08628915 -7.19729131 23.57455022 -7.9375 22.0625 C-8.31068359 21.32708984 -8.68386719 20.59167969 -9.06835938 19.83398438 C-11.55961516 14.69436658 -13.17745959 9.77968797 -13 4 C-10.26662007 -1.09402623 -5.20155782 -0.82381947 0 0 Z " fill="#F7C8C3" transform="translate(65,12)"/>
<path d="M0 0 C3.27169407 2.18112938 3.42740695 2.46936837 4.31640625 6.02734375 C4.52330078 6.81947266 4.73019531 7.61160156 4.94335938 8.42773438 C5.14767578 9.25595703 5.35199219 10.08417969 5.5625 10.9375 C5.97549993 12.57287745 6.39328719 14.20705515 6.81640625 15.83984375 C6.99631104 16.56550537 7.17621582 17.29116699 7.36157227 18.03881836 C7.9953363 20.28539639 7.9953363 20.28539639 10 23 C10.75023437 22.33613281 11.50046875 21.67226563 12.2734375 20.98828125 C23.65947093 11.09193925 34.17301661 5.41593126 49.5546875 5.68359375 C64.85980064 7.08916536 75.71709013 15.25643954 86 26 C88.12600518 28.86230514 89.59940783 31.73015597 91 35 C91.43828125 35.93714844 91.8765625 36.87429687 92.328125 37.83984375 C100.16636341 55.34073813 100.6466716 76.00885496 94 94 C90.73447478 102.11794894 86.69076564 109.62879686 82 117 C81.28888911 118.13791249 80.57796363 119.27594087 79.8671875 120.4140625 C67.89118683 139.45467315 67.89118683 139.45467315 62 143 C57.39349023 143.87966878 52.68126352 143.87024431 48 144 C47.17016602 144.02723145 46.34033203 144.05446289 45.48535156 144.08251953 C27.61765443 144.60303324 12.1259548 142.50467405 -4.9375 137.1875 C-5.96786377 136.86845703 -6.99822754 136.54941406 -8.05981445 136.22070312 C-18.05513088 132.9541651 -27.17369108 128.58105835 -34.8125 121.25 C-35.63512329 120.46749878 -35.63512329 120.46749878 -36.47436523 119.66918945 C-46.8327217 109.51499949 -51.16237195 96.15240982 -52.03515625 81.8046875 C-51.85189846 67.18478859 -48.33664232 53.95994268 -38.328125 43.203125 C-28.75432942 33.95663867 -17.09260763 29.77426539 -4 30 C-4.56589844 28.87722656 -5.13179687 27.75445312 -5.71484375 26.59765625 C-6.45644624 25.08628915 -7.19729131 23.57455022 -7.9375 22.0625 C-8.31068359 21.32708984 -8.68386719 20.59167969 -9.06835938 19.83398438 C-11.55961516 14.69436658 -13.17745959 9.77968797 -13 4 C-10.26662007 -1.09402623 -5.20155782 -0.82381947 0 0 Z M27 16 C26.29101562 16.3815625 25.58203125 16.763125 24.8515625 17.15625 C23.21140677 18.06384606 21.60121596 19.0253468 20 20 C20 20.66 20 21.32 20 22 C19.34 22 18.68 22 18 22 C14.36366461 25.47998507 14.36366461 25.47998507 13 30 C12.34 30 11.68 30 11 30 C11 31.32 11 32.64 11 34 C12.02609375 34.38671875 13.0521875 34.7734375 14.109375 35.171875 C18.14082161 36.90543764 21.06680434 39.27190715 24.25 42.25 C24.765625 42.70246094 25.28125 43.15492187 25.8125 43.62109375 C29.5421177 47.05272653 31.2715294 50.24078644 33 55 C29.53465077 53.84488359 29.11047875 53.0549227 27.125 50.125 C24.74019038 46.79459255 22.68683535 44.89608675 19 43 C18.505 42.01 18.505 42.01 18 41 C14.97065509 40.34227572 14.97065509 40.34227572 12 40 C12 39.34 12 38.68 12 38 C9.69 37.67 7.38 37.34 5 37 C5 36.34 5 35.68 5 35 C-4.80706267 34.68957715 -13.63181742 34.60074585 -23 38 C-23 38.66 -23 39.32 -23 40 C-23.804375 40.12375 -23.804375 40.12375 -24.625 40.25 C-28.99284656 41.62931997 -33.08833257 44.44129536 -36 48 C-36 48.66 -36 49.32 -36 50 C-36.66 50 -37.32 50 -38 50 C-45.66051508 63.58657391 -48.87017379 79.28994301 -44.75390625 94.71875 C-42.16406637 102.55536394 -39.49384377 110.51749256 -33 116 C-32.01 116.33 -31.02 116.66 -30 117 C-29.505 117.99 -29.505 117.99 -29 119 C-28.34 119 -27.68 119 -27 119 C-27 119.66 -27 120.32 -27 121 C-25.989375 121.5775 -24.97875 122.155 -23.9375 122.75 C-21.58757927 124.09281185 -19.27232817 125.45256493 -16.97265625 126.8828125 C2.16222624 137.78361974 24.06238179 139.53361757 45.53173828 139.05322266 C47.66533195 139.00721638 49.79953044 138.99106489 51.93359375 138.98046875 C57.14543007 138.96528717 57.14543007 138.96528717 61.6015625 136.66796875 C63.14364553 134.51219961 64 132.67246915 64 130 C64.99 129.67 65.98 129.34 67 129 C67 128.34 67 127.68 67 127 C67.99 126.67 68.98 126.34 70 126 C71.03101947 123.68020619 72.02936517 121.34570085 73 119 C73.98244829 117.98275109 74.98366139 116.98338997 76 116 C78.91079705 111.87133238 81.1873944 107.71277456 83 103 C84.70806299 99.79923848 86.53133217 96.69362838 88.5625 93.6875 C92.50911222 86.30905107 93.53084605 78.70232976 93.4375 70.4375 C93.42992676 69.48584961 93.42235352 68.53419922 93.41455078 67.55371094 C93.13770345 55.48155086 91.24166432 44.01446916 84.26953125 33.8828125 C83 32 83 32 82 29 C80.37550757 27.29220027 78.70779973 25.62449243 77 24 C76.01 23.01 76.01 23.01 75 22 C74.01 22 73.02 22 72 22 C71.505 20.515 71.505 20.515 71 19 C69.68352881 18.30062468 68.34977849 17.63270867 67 17 C66.505 16.01 66.505 16.01 66 15 C55.03378987 9.2255222 37.5724827 9.95858131 27 16 Z " fill="#E58A91" transform="translate(65,12)"/>
<path d="M0 0 C0.86515028 2.95090016 1.05497546 5.43542288 0.9375 8.5 C0.88143178 18.04561373 2.59963204 26.12414085 6.9765625 34.625 C8 37 8 37 8 41 C9.32 41.33 10.64 41.66 12 42 C12 42.66 12 43.32 12 44 C12.66 44 13.32 44 14 44 C14 44.99 14 45.98 14 47 C14.763125 47.268125 15.52625 47.53625 16.3125 47.8125 C19 49 19 49 20.328125 50.39453125 C30.37452128 60.04188843 50.36352266 65.89121365 64.06640625 66.7890625 C66 67 66 67 67 68 C69.77646734 68.24312849 72.53023436 68.42765811 75.3125 68.5625 C76.12831543 68.60205811 76.94413086 68.64161621 77.78466797 68.68237305 C79.42839855 68.75835468 81.07228412 68.83105838 82.71630859 68.90039062 C84.67229206 68.98570613 86.62732833 69.09228034 88.58203125 69.203125 C95.18025565 69.44028839 99.41399334 68.47855869 105 65 C105.72058594 64.66871094 106.44117188 64.33742188 107.18359375 63.99609375 C108.08271484 63.50302734 108.08271484 63.50302734 109 63 C109.36162029 61.67405895 109.69728039 60.34061543 110 59 C110.99 58.67 111.98 58.34 113 58 C113.68735419 56.34175803 114.35065649 54.67349192 115 53 C116.875 50.54296875 116.875 50.54296875 119 48.1875 C119.70125 47.39730469 120.4025 46.60710937 121.125 45.79296875 C123 44 123 44 125 44 C125.33 42.68 125.66 41.36 126 40 C126.66 40.33 127.32 40.66 128 41 C127.443125 41.94875 126.88625 42.8975 126.3125 43.875 C124.5743377 46.90753848 122.98556259 49.99134603 121.4375 53.125 C116.79261364 62.47159091 116.79261364 62.47159091 113 65 C111.92863949 67.30144109 110.92010283 69.6340213 110 72 C109.34 72 108.68 72 108 72 C107.505 73.485 107.505 73.485 107 75 C106.34 75 105.68 75 105 75 C104.71125 75.94875 104.4225 76.8975 104.125 77.875 C103 81 103 81 101 83 C78.79081838 87.49269704 54.88355129 83.68982128 34 76 C33.00613281 75.64679688 32.01226562 75.29359375 30.98828125 74.9296875 C24.98898526 72.6881923 19.15151722 69.83623623 14 66 C14 65.34 14 64.68 14 64 C13.34 64 12.68 64 12 64 C11.67 63.34 11.34 62.68 11 62 C10.236875 61.566875 9.47375 61.13375 8.6875 60.6875 C3.44737457 57.39718868 1.18461474 52.69855494 -1.1875 47.125 C-1.69667969 45.95195313 -2.20585937 44.77890625 -2.73046875 43.5703125 C-7.08343773 31.32842434 -6.45025994 14.75262897 -1.375 2.75 C-0.694375 1.38875 -0.694375 1.38875 0 0 Z " fill="#F4ADB1" transform="translate(24,67)"/>
<path d="M0 0 C3.94345411 2.62896941 3.93235281 4.46110925 5.0625 9 C5.31410889 10.00897339 5.31410889 10.00897339 5.57080078 11.03833008 C6.05962451 13.02278373 6.53027224 15.0109565 7 17 C7.25394531 18.01449219 7.50789063 19.02898438 7.76953125 20.07421875 C9.25568182 26.48863636 9.25568182 26.48863636 7 31 C-1.415 31.495 -1.415 31.495 -10 32 C-10.66 33.32 -11.32 34.64 -12 36 C-14.6015625 36.828125 -14.6015625 36.828125 -17.625 37.25 C-18.62789062 37.39953125 -19.63078125 37.5490625 -20.6640625 37.703125 C-21.82035156 37.85007812 -21.82035156 37.85007812 -23 38 C-23 38.66 -23 39.32 -23 40 C-23.60328125 40.30292969 -24.2065625 40.60585938 -24.828125 40.91796875 C-29.61275396 43.42604038 -32.80525214 45.527353 -36 50 C-36.66 50 -37.32 50 -38 50 C-38.268125 50.680625 -38.53625 51.36125 -38.8125 52.0625 C-39.63383723 54.09422895 -40.53604603 56.09442731 -41.5 58.0625 C-47.56427038 72.34585764 -46.19369105 89.07572104 -40.6875 103.1875 C-38.30081481 108.69793492 -35.99687008 113.21807725 -30.6875 116.375 C-30.130625 116.58125 -29.57375 116.7875 -29 117 C-29 117.66 -29 118.32 -29 119 C-28.34 119 -27.68 119 -27 119 C-27 119.66 -27 120.32 -27 121 C-26.401875 121.28875 -25.80375 121.5775 -25.1875 121.875 C-23 123 -23 123 -20 125 C-21.32 125 -22.64 125 -24 125 C-20.9264024 128.49136815 -18.06168076 130.06282057 -13.75 131.75 C-12.67234375 132.17796875 -11.5946875 132.6059375 -10.484375 133.046875 C-9.66453125 133.36140625 -8.8446875 133.6759375 -8 134 C-12.33577327 135.49072654 -14.60595678 134.19860155 -18.58203125 132.28515625 C-31.58962392 125.37158922 -43.38609554 115.67850479 -48.2109375 101.421875 C-53.09270417 85.01225793 -53.03398444 68.8958793 -46 53 C-39.69048466 42.05223975 -29.43425753 35.69573917 -18 31 C-13.29698601 29.88381801 -8.80548826 29.91714675 -4 30 C-4.56589844 28.87722656 -5.13179687 27.75445312 -5.71484375 26.59765625 C-6.45644624 25.08628915 -7.19729131 23.57455022 -7.9375 22.0625 C-8.31068359 21.32708984 -8.68386719 20.59167969 -9.06835938 19.83398438 C-11.55961516 14.69436658 -13.17745959 9.77968797 -13 4 C-10.26662007 -1.09402623 -5.20155782 -0.82381947 0 0 Z " fill="#E68C93" transform="translate(65,12)"/>
<path d="M0 0 C1.12148437 -0.01417969 2.24296875 -0.02835938 3.3984375 -0.04296875 C6.57384842 0.18384632 8.76734718 0.83359332 11.625 2.1875 C11.625 2.8475 11.625 3.5075 11.625 4.1875 C12.73294922 4.29578125 12.73294922 4.29578125 13.86328125 4.40625 C17.37638182 5.40005497 18.52127383 6.88662004 20.8125 9.6875 C23.33557316 12.9167241 23.33557316 12.9167241 26.625 15.1875 C26.295 17.4975 25.965 19.8075 25.625 22.1875 C24.965 22.1875 24.305 22.1875 23.625 22.1875 C23.58375 22.785625 23.5425 23.38375 23.5 24 C22.625 26.1875 22.625 26.1875 20.3125 27.9375 C12.46325577 30.59826076 4.42343208 29.58701756 -3.375 27.1875 C-3.375 26.5275 -3.375 25.8675 -3.375 25.1875 C-4.365 25.1875 -5.355 25.1875 -6.375 25.1875 C-6.375 24.5275 -6.375 23.8675 -6.375 23.1875 C-6.9525 22.94 -7.53 22.6925 -8.125 22.4375 C-10.82302385 20.93859786 -12.46248093 19.62761054 -14.375 17.1875 C-15.65282114 12.25876133 -15.57634981 8.79985198 -13.375 4.1875 C-9.27924902 0.35599102 -5.44966195 0.03117656 0 0 Z " fill="#FBDED9" transform="translate(112.375,29.8125)"/>
<path d="M0 0 C0.7734375 -0.00515625 1.546875 -0.0103125 2.34375 -0.015625 C4.5 0.25 4.5 0.25 7.5 2.25 C8.59765625 5.375 8.59765625 5.375 9.5625 9.25 C9.81410889 10.25897339 9.81410889 10.25897339 10.07080078 11.28833008 C10.55962451 13.27278373 11.03027224 15.2609565 11.5 17.25 C11.75394531 18.26449219 12.00789063 19.27898438 12.26953125 20.32421875 C13.75568182 26.73863636 13.75568182 26.73863636 11.5 31.25 C8.53 31.25 5.56 31.25 2.5 31.25 C-8.36913417 9.8983807 -8.36913417 9.8983807 -7.5 2.25 C-4.377998 0.16866533 -3.56733011 -0.0237822 0 0 Z " fill="#3E9248" transform="translate(60.5,11.75)"/>
<path d="M0 0 C1.36676632 0.13929356 2.7374567 0.24365301 4.109375 0.31640625 C5.24052734 0.37924805 5.24052734 0.37924805 6.39453125 0.44335938 C7.56048828 0.50233398 7.56048828 0.50233398 8.75 0.5625 C9.93916016 0.62727539 9.93916016 0.62727539 11.15234375 0.69335938 C13.10137815 0.79902991 15.05066748 0.89997966 17 1 C17 1.33 17 1.66 17 2 C15.88882813 2.02578125 14.77765625 2.0515625 13.6328125 2.078125 C2.62777594 2.4518903 -5.52687554 4.07929721 -15 10 C-15.66 10 -16.32 10 -17 10 C-17 10.66 -17 11.32 -17 12 C-17.66 12 -18.32 12 -19 12 C-19.33 12.99 -19.66 13.98 -20 15 C-20.66 15 -21.32 15 -22 15 C-22.99 17.475 -22.99 17.475 -24 20 C-24.66 20 -25.32 20 -26 20 C-26 21.32 -26 22.64 -26 24 C-24.72189453 24.06767578 -24.72189453 24.06767578 -23.41796875 24.13671875 C-18.86667527 25.28624545 -16.60198195 27.58400497 -13.3125 30.8125 C-12.46075195 31.61397461 -12.46075195 31.61397461 -11.59179688 32.43164062 C-5.81943842 37.93331404 -5.81943842 37.93331404 -4 41 C-4 42.32 -4 43.64 -4 45 C-6.43477945 44.61908313 -7.67428513 44.37919045 -9.30859375 42.4765625 C-9.68113281 41.86554687 -10.05367187 41.25453125 -10.4375 40.625 C-12.57059023 37.38904268 -14.5897232 35.89459822 -18 34 C-18.33 33.01 -18.66 32.02 -19 31 C-20.98 30.67 -22.96 30.34 -25 30 C-25 29.34 -25 28.68 -25 28 C-27.31 27.67 -29.62 27.34 -32 27 C-32 26.34 -32 25.68 -32 25 C-38.27 25 -44.54 25 -51 25 C-46.5 20.5 -46.5 20.5 -42.890625 20.390625 C-42.13652344 20.35839844 -41.38242187 20.32617188 -40.60546875 20.29296875 C-39.82816406 20.27878906 -39.05085938 20.26460937 -38.25 20.25 C-37.45722656 20.22035156 -36.66445312 20.19070312 -35.84765625 20.16015625 C-33.89897906 20.08972213 -31.94948505 20.04256518 -30 20 C-29.34 18.68 -28.68 17.36 -28 16 C-27.34 16 -26.68 16 -26 16 C-25.67 15.01 -25.34 14.02 -25 13 C-9.09662672 -2.41270659 -9.09662672 -2.41270659 0 0 Z " fill="#E77F8A" transform="translate(102,22)"/>
<path d="M0 0 C1.27419545 2.46740389 2.29552506 4.81269392 3.25 7.4375 C5.10469103 12.5210832 7.46575919 17.36127597 9.79296875 22.2421875 C11 25 11 25 11 27 C9.72125 27.0825 8.4425 27.165 7.125 27.25 C4.95365445 27.30367785 4.95365445 27.30367785 3 28 C2.7009375 28.6496875 2.401875 29.299375 2.09375 29.96875 C1 32 1 32 -1.6015625 32.828125 C-2.59929688 32.96734375 -3.59703125 33.1065625 -4.625 33.25 C-5.62789062 33.39953125 -6.63078125 33.5490625 -7.6640625 33.703125 C-8.82035156 33.85007812 -8.82035156 33.85007812 -10 34 C-10 34.66 -10 35.32 -10 36 C-10.60328125 36.30292969 -11.2065625 36.60585938 -11.828125 36.91796875 C-16.61275396 39.42604038 -19.80525214 41.527353 -23 46 C-23.66 46 -24.32 46 -25 46 C-25.99 48.475 -25.99 48.475 -27 51 C-27.33 50.34 -27.66 49.68 -28 49 C-29.485 49.495 -29.485 49.495 -31 50 C-32.22385081 52.57888094 -32.22385081 52.57888094 -33.125 55.6875 C-33.62386719 57.24017578 -33.62386719 57.24017578 -34.1328125 58.82421875 C-35.8157443 64.98738791 -36.25364514 71.02575419 -36.5625 77.375 C-36.60568359 78.20644531 -36.64886719 79.03789063 -36.69335938 79.89453125 C-36.79861805 81.92953228 -36.89973072 83.96474703 -37 86 C-37.33 86 -37.66 86 -38 86 C-40.06530262 72.32434754 -38.42888418 56.26684417 -30.25 44.6875 C-22.48098535 35.38006661 -11.38426956 27.22897332 1 26 C3.67303222 25.93270434 6.32509927 25.95388102 9 26 C8.43410156 24.87722656 7.86820313 23.75445312 7.28515625 22.59765625 C6.54355376 21.08628915 5.80270869 19.57455022 5.0625 18.0625 C4.68931641 17.32708984 4.31613281 16.59167969 3.93164062 15.83398438 C1.33220273 10.47118007 0.37233587 5.95146381 0 0 Z " fill="#E69B9E" transform="translate(52,16)"/>
<path d="M0 0 C0.66 0 1.32 0 2 0 C3.03321725 3.28750944 3.20141923 4.57797876 1.6875 7.75 C0 10 0 10 -2 11 C-3.13350534 13.01669827 -3.13350534 13.01669827 -4 15 C-4.66 15 -5.32 15 -6 15 C-6.226875 15.9075 -6.45375 16.815 -6.6875 17.75 C-8.21702123 21.5373859 -9.56937211 22.84588481 -13 25 C-17.1397871 26.12009117 -21.24397339 26.16099999 -25.50390625 26.16796875 C-26.58260231 26.17296135 -26.58260231 26.17296135 -27.68309021 26.17805481 C-29.20351527 26.18310325 -30.72395134 26.18546378 -32.24438477 26.18530273 C-34.53095662 26.1874701 -36.8170302 26.20559443 -39.10351562 26.22460938 C-47.60187075 26.25615795 -55.64844406 25.7886781 -64 24 C-64 23.34 -64 22.68 -64 22 C-62.94200195 22.00523682 -61.88400391 22.01047363 -60.79394531 22.01586914 C-56.81299712 22.03417202 -52.83205253 22.04552301 -48.85107422 22.05493164 C-47.13850272 22.05991472 -45.42593537 22.0667036 -43.71337891 22.07543945 C-29.23072197 22.67024933 -29.23072197 22.67024933 -15 21 C-13.40829631 19.30062456 -12.65373633 17.91466924 -11.7890625 15.76171875 C-11 14 -11 14 -8.4375 12 C-5.9732765 9.97807303 -5.47651972 9.15568964 -4.375 6.3125 C-3.92125 5.219375 -3.4675 4.12625 -3 3 C-2.01 2.67 -1.02 2.34 0 2 C0 1.34 0 0.68 0 0 Z " fill="#E57C87" transform="translate(140,128)"/>
<path d="M0 0 C0.66 0 1.32 0 2 0 C0.67640068 3.70869909 -0.94246466 6.53387431 -3.375 9.625 C-3.96023437 10.38039062 -4.54546875 11.13578125 -5.1484375 11.9140625 C-7.81186754 14.91463559 -9.66481679 16.74503061 -13.6796875 17.51171875 C-17.45299601 17.71929685 -21.22262301 17.89529832 -25 18 C-25.82983398 18.02723145 -26.65966797 18.05446289 -27.51464844 18.08251953 C-59.00037852 18.99974765 -59.00037852 18.99974765 -68 13 C-66.31229485 13.14343968 -64.62484514 13.28988569 -62.9375 13.4375 C-61.99777344 13.51871094 -61.05804688 13.59992188 -60.08984375 13.68359375 C-57.9866594 13.89896408 -55.88915545 14.17686015 -53.80126953 14.50927734 C-49.87842868 15.01569418 -46.03687032 15.16159155 -42.08984375 15.16796875 C-41.3593129 15.17129715 -40.62878204 15.17462555 -39.87611389 15.17805481 C-38.34246443 15.18308485 -36.80880418 15.18546436 -35.27514648 15.18530273 C-32.94040912 15.18749727 -30.60613893 15.20571622 -28.27148438 15.22460938 C-26.7734391 15.22754262 -25.2753916 15.22952788 -23.77734375 15.23046875 C-22.74117165 15.24124702 -22.74117165 15.24124702 -21.68406677 15.25224304 C-17.40605269 15.23222982 -13.97902084 14.54762063 -10 13 C-9.2575 12.7525 -8.515 12.505 -7.75 12.25 C-5.14239428 10.38742448 -4.89147401 7.99280562 -4 5 C-3.34 4.67 -2.68 4.34 -2 4 C-0.86649466 1.98330173 -0.86649466 1.98330173 0 0 Z " fill="#E8A6A6" transform="translate(138,138)"/>
<path d="M0 0 C2.52786743 1.71341205 2.83929937 2.89167678 3.6472168 5.80639648 C3.90051758 6.68875977 4.15381836 7.57112305 4.41479492 8.48022461 C4.66293945 9.40383789 4.91108398 10.32745117 5.16674805 11.27905273 C5.55636719 12.65867187 5.55636719 12.65867187 5.95385742 14.06616211 C6.43602849 15.77431852 6.91158267 17.48436616 7.37841797 19.19677734 C7.86289927 20.926224 8.41129489 22.63769327 8.97924805 24.34155273 C7.65924805 24.34155273 6.33924805 24.34155273 4.97924805 24.34155273 C0.07925163 18.69430686 -3.27782034 10.56570379 -5.02075195 3.34155273 C-4.69075195 2.35155273 -4.36075195 1.36155273 -4.02075195 0.34155273 C-2.02075195 -0.65844727 -2.02075195 -0.65844727 0 0 Z " fill="#51AD37" transform="translate(62.020751953125,16.658447265625)"/>
<path d="M0 0 C1.27419545 2.46740389 2.29552506 4.81269392 3.25 7.4375 C5.10469103 12.5210832 7.46575919 17.36127597 9.79296875 22.2421875 C11 25 11 25 11 27 C9.72125 27.0825 8.4425 27.165 7.125 27.25 C4.95365445 27.30367785 4.95365445 27.30367785 3 28 C2.71511719 28.63808594 2.43023437 29.27617188 2.13671875 29.93359375 C1 32 1 32 -1.86328125 33.08203125 C-3.00152344 33.32308594 -4.13976562 33.56414063 -5.3125 33.8125 C-6.44300781 34.06644531 -7.57351562 34.32039063 -8.73828125 34.58203125 C-11.86182224 34.98229339 -13.99003342 34.83014088 -17 34 C-12.49654951 28.99616613 -5.6060354 26.56221578 1 26 C2.39444081 25.9832861 3.78906446 25.97866557 5.18359375 25.984375 C6.44300781 25.98953125 7.70242187 25.9946875 9 26 C8.43410156 24.87722656 7.86820313 23.75445312 7.28515625 22.59765625 C6.54355376 21.08628915 5.80270869 19.57455022 5.0625 18.0625 C4.68931641 17.32708984 4.31613281 16.59167969 3.93164062 15.83398438 C1.33220273 10.47118007 0.37233587 5.95146381 0 0 Z " fill="#E58A91" transform="translate(52,16)"/>
<path d="M0 0 C0.4125 0.45375 0.825 0.9075 1.25 1.375 C3.06408095 3.05950374 4.75285627 3.99265971 7 5 C7 5.66 7 6.32 7 7 C7.66 7 8.32 7 9 7 C9 7.66 9 8.32 9 9 C9.8971875 9.433125 9.8971875 9.433125 10.8125 9.875 C13 11 13 11 16 13 C14.68 13 13.36 13 12 13 C15.0735976 16.49136815 17.93831924 18.06282057 22.25 19.75 C23.32765625 20.17796875 24.4053125 20.6059375 25.515625 21.046875 C26.33546875 21.36140625 27.1553125 21.6759375 28 22 C23.66422673 23.49072654 21.39404322 22.19860155 17.41796875 20.28515625 C8.86164933 15.73745174 2.0009068 9.62141839 -5 3 C-4.67 2.34 -4.34 1.68 -4 1 C-2.515 1.99 -2.515 1.99 -1 3 C-0.67 2.01 -0.34 1.02 0 0 Z " fill="#E9999D" transform="translate(29,124)"/>
<path d="M0 0 C0.99 0.33 1.98 0.66 3 1 C5.56537841 6.27612826 5.29820053 11.70565333 5.25 17.4375 C5.25773438 18.35337891 5.26546875 19.26925781 5.2734375 20.21289062 C5.25816195 25.53260151 4.74395224 29.96883621 3 35 C2.34 35 1.68 35 1 35 C0.505 17.675 0.505 17.675 0 0 Z " fill="#E6848D" transform="translate(157,61)"/>
<path d="M0 0 C0.99 0 1.98 0 3 0 C2.46792908 5.21429501 1.08613955 9.21926354 -1 14 C-1.98966849 18.76840274 -2.29501901 23.52526273 -2.5625 28.375 C-2.60568359 29.11105469 -2.64886719 29.84710938 -2.69335938 30.60546875 C-2.79843799 32.40348068 -2.89962093 34.20171958 -3 36 C-3.66 36 -4.32 36 -5 36 C-6.56420659 17.58886573 -6.56420659 17.58886573 -4 10 C-3.61908203 8.7625 -3.61908203 8.7625 -3.23046875 7.5 C-1.24713959 1.24713959 -1.24713959 1.24713959 0 0 Z " fill="#E77B87" transform="translate(21,65)"/>
<path d="M0 0 C0 0.99 0 1.98 0 3 C-3.99852696 6.99852696 -18.34699875 5.15437009 -23.8125 5.1875 C-46.07351233 5.18561107 -46.07351233 5.18561107 -54 1 C-53.43724365 1.07001221 -52.8744873 1.14002441 -52.29467773 1.2121582 C-43.44590813 2.17086674 -34.6167656 2.18612545 -25.72729492 2.18530273 C-23.04395266 2.18751529 -20.36100564 2.20580425 -17.67773438 2.22460938 C-15.96354306 2.22753941 -14.24934981 2.22952681 -12.53515625 2.23046875 C-11.7372316 2.23765427 -10.93930695 2.24483978 -10.11720276 2.25224304 C-6.27273784 2.23636659 -3.25466644 2.18729622 0 0 Z " fill="#F29BA1" transform="translate(126,146)"/>
<path d="M0 0 C0.99 0 1.98 0 3 0 C2.67 0.99 2.34 1.98 2 3 C2.43183594 3.35191406 2.86367188 3.70382813 3.30859375 4.06640625 C5.62148964 6.71047892 6.76367703 9.71867785 8.0625 12.9375 C10.36251593 18.54518262 10.36251593 18.54518262 13 24 C12.01 24.33 11.02 24.66 10 25 C10 24.34 10 23.68 10 23 C9.01 22.67 8.02 22.34 7 22 C4.98301515 18.50102323 3.53976399 14.73020244 2 11 C1.66226563 10.20722656 1.32453125 9.41445313 0.9765625 8.59765625 C-1.13339631 3.40018892 -1.13339631 3.40018892 0 0 Z " fill="#248B3A" transform="translate(54,17)"/>
<path d="M0 0 C0.33 0 0.66 0 1 0 C1.56954429 15.16083099 1.21678183 28.29018236 -6 42 C-6.33 41.34 -6.66 40.68 -7 40 C-6.67 39.34 -6.34 38.68 -6 38 C-5.6947378 33.34724024 -5.6947378 33.34724024 -7 29 C-6.39421747 26.98072489 -5.73080266 24.97746603 -5 23 C-4.67 23.99 -4.34 24.98 -4 26 C-3.34 26 -2.68 26 -2 26 C-1.08877472 20.35652914 -0.70225954 14.77002113 -0.4375 9.0625 C-0.37272461 7.75055664 -0.37272461 7.75055664 -0.30664062 6.41210938 C-0.20153099 4.27488005 -0.10036015 2.13745762 0 0 Z " fill="#E79B9E" transform="translate(162,70)"/>
<path d="M0 0 C0 0.99 0 1.98 0 3 C-6.36486558 7.63398847 -11.85479291 7.55267068 -19.5625 7.375 C-21.29608765 7.35348877 -21.29608765 7.35348877 -23.06469727 7.33154297 C-44.10136812 6.93242125 -44.10136812 6.93242125 -50 3 C-48.35425434 2.97311849 -46.70838587 2.95365877 -45.0625 2.9375 C-44.14597656 2.92589844 -43.22945313 2.91429687 -42.28515625 2.90234375 C-40 3 -40 3 -39 4 C-36.22353266 4.24312849 -33.46976564 4.42765811 -30.6875 4.5625 C-29.87168457 4.60205811 -29.05586914 4.64161621 -28.21533203 4.68237305 C-26.57160145 4.75835468 -24.92771588 4.83105838 -23.28369141 4.90039062 C-21.32770794 4.98570613 -19.37267167 5.09228034 -17.41796875 5.203125 C-10.74858761 5.44284602 -6.6920549 4.54410966 -1 1 C-0.67 0.67 -0.34 0.34 0 0 Z " fill="#F5B8B9" transform="translate(130,131)"/>
<path d="M0 0 C0.33 0 0.66 0 1 0 C1.91144418 7.89918285 -1.19500511 13.20536627 -5 20 C-5.99 20 -6.98 20 -8 20 C-5.16556291 5.16556291 -5.16556291 5.16556291 0 0 Z " fill="#E57C87" transform="translate(156,100)"/>
<path d="M0 0 C4.24639108 0.49137859 6.0535809 1.57272355 8.8125 4.8125 C9.71935547 5.84310547 9.71935547 5.84310547 10.64453125 6.89453125 C12 9 12 9 12 13 C9.17601801 12.63843056 8.12008847 12.12481245 6.11328125 10.0390625 C5.51902344 9.24242187 4.92476563 8.44578125 4.3125 7.625 C3.71050781 6.83351563 3.10851562 6.04203125 2.48828125 5.2265625 C1 3 1 3 0 0 Z " fill="#E67D88" transform="translate(86,54)"/>
<path d="M0 0 C2.00625611 3.51974757 2.86537874 7.06093177 3.75 11 C4.17539063 12.8253125 4.17539063 12.8253125 4.609375 14.6875 C5 18 5 18 3 22 C0.03 22 -2.94 22 -6 22 C-6.33 21.01 -6.66 20.02 -7 19 C-6.34 19 -5.68 19 -5 19 C-5 19.66 -5 20.32 -5 21 C-3.02 20.34 -1.04 19.68 1 19 C0.814375 18.401875 0.62875 17.80375 0.4375 17.1875 C0 15 0 15 1 12 C0.59688393 9.95502576 -0.01124666 8.02601863 -0.625 6.03515625 C-1.05297186 3.71251729 -0.7176407 2.22767634 0 0 Z " fill="#66905A" transform="translate(69,21)"/>
<path d="M0 0 C5.97748431 2.66687761 11.33325626 7.99982658 14 14 C13.67 14.99 13.34 15.98 13 17 C12.05598958 15.20963542 11.11197917 13.41927083 10.16796875 11.62890625 C9.00980201 9.67732013 9.00980201 9.67732013 6 9 C5.34 9.66 4.68 10.32 4 11 C1.01170087 6.89108869 0 5.14537703 0 0 Z " fill="#E8969B" transform="translate(141,30)"/>
<path d="M0 0 C-3.20072058 2.65202562 -6.40465877 4.91848666 -10 7 C-10.99 7.66 -11.98 8.32 -13 9 C-13.66 8.34 -14.32 7.68 -15 7 C-8.13497151 -1.53490028 -8.13497151 -1.53490028 0 0 Z " fill="#E67F8A" transform="translate(42,51)"/>
<path d="M0 0 C0 3 0 3 -1 6 C-3.0625 6.6875 -3.0625 6.6875 -5 7 C-5 7.99 -5 8.98 -5 10 C-5.99 9.67 -6.98 9.34 -8 9 C-7.67 8.34 -7.34 7.68 -7 7 C-7.55171875 7.17402344 -8.1034375 7.34804688 -8.671875 7.52734375 C-11.36475653 8.07405292 -13.52647404 7.88502281 -16.25 7.5625 C-17.14203125 7.46066406 -18.0340625 7.35882813 -18.953125 7.25390625 C-19.62859375 7.17011719 -20.3040625 7.08632813 -21 7 C-21 6.67 -21 6.34 -21 6 C-12.585 5.505 -12.585 5.505 -4 5 C-3.34 3.68 -2.68 2.36 -2 1 C-1.34 0.67 -0.68 0.34 0 0 Z " fill="#D97E85" transform="translate(76,37)"/>
<path d="M0 0 C1.84187025 2.76280538 2.72248277 4.80707826 3.6875 7.9375 C3.95949219 8.79214844 4.23148438 9.64679687 4.51171875 10.52734375 C5.02075548 13.10510574 4.84888744 14.54449337 4 17 C3.71125 16.030625 3.4225 15.06125 3.125 14.0625 C2.35785318 10.89335797 2.35785318 10.89335797 0 10 C0.33 13.3 0.66 16.6 1 20 C0.67 20 0.34 20 0 20 C-0.33 16.37 -0.66 12.74 -1 9 C-0.34 9 0.32 9 1 9 C0.67 6.03 0.34 3.06 0 0 Z " fill="#E89B9E" transform="translate(157,51)"/>
<path d="M0 0 C1.60552042 3.11539281 2.86129887 6.27198867 4.0703125 9.5625 C5.92455653 14.42404738 7.97857435 19.20610518 10 24 C9.34 24 8.68 24 8 24 C0.14806378 8.43963554 0.14806378 8.43963554 0 0 Z " fill="#B4A892" transform="translate(52,16)"/>
<path d="M0 0 C0.86286621 0.23771118 0.86286621 0.23771118 1.74316406 0.48022461 C3.90939777 0.97913326 5.89322683 1.19888324 8.109375 1.31640625 C9.24052734 1.37924805 9.24052734 1.37924805 10.39453125 1.44335938 C11.56048828 1.50233398 11.56048828 1.50233398 12.75 1.5625 C13.93916016 1.62727539 13.93916016 1.62727539 15.15234375 1.69335938 C17.10137815 1.79902991 19.05066748 1.89997966 21 2 C21 2.33 21 2.66 21 3 C19.83082031 3.06058594 18.66164063 3.12117188 17.45703125 3.18359375 C15.90884386 3.26804034 14.36066732 3.35268625 12.8125 3.4375 C12.04357422 3.47681641 11.27464844 3.51613281 10.48242188 3.55664062 C6.56748925 3.77507034 2.82879312 4.08692108 -1 5 C-0.67 3.35 -0.34 1.7 0 0 Z " fill="#EB8891" transform="translate(98,21)"/>
<path d="M0 0 C3.44216672 2.6598561 3.99504674 5.90288286 5 10 C3.68 10.33 2.36 10.66 1 11 C1 9.68 1 8.36 1 7 C0.34 7 -0.32 7 -1 7 C-0.67 4.69 -0.34 2.38 0 0 Z " fill="#E87C88" transform="translate(18,104)"/>
<path d="M0 0 C1 3 1 3 -0.07421875 5.55859375 C-0.60660156 6.50863281 -1.13898438 7.45867187 -1.6875 8.4375 C-2.20699219 9.38496094 -2.72648438 10.33242187 -3.26171875 11.30859375 C-4.94818131 13.91976836 -6.72123664 15.89996318 -9 18 C-9 17.01 -9 16.02 -9 15 C-8.34 15 -7.68 15 -7 15 C-6.72414062 14.28457031 -6.44828125 13.56914063 -6.1640625 12.83203125 C-5.01751478 10.04261145 -3.73772885 7.37709642 -2.375 4.6875 C-1.70597656 3.36298828 -1.70597656 3.36298828 -1.0234375 2.01171875 C-0.68570313 1.34785156 -0.34796875 0.68398437 0 0 Z " fill="#EAA9A9" transform="translate(154,112)"/>
<path d="M0 0 C0 0.33 0 0.66 0 1 C-1.65 1.33 -3.3 1.66 -5 2 C-5 2.66 -5 3.32 -5 4 C-5.58007812 3.97679687 -6.16015625 3.95359375 -6.7578125 3.9296875 C-11.61411166 3.81749577 -15.42932395 4.12485085 -20 6 C-15.61799326 -0.57301012 -7.2507754 -0.34527502 0 0 Z " fill="#F6B6B7" transform="translate(111,24)"/>
<path d="M0 0 C0.66 0 1.32 0 2 0 C3.60670684 3.21341369 2.82510855 6.62958968 2.5625 10.125 C2.51029297 10.87910156 2.45808594 11.63320312 2.40429688 12.41015625 C2.27454996 14.2737937 2.13792512 16.13694996 2 18 C1.67 18 1.34 18 1 18 C0.67 12.06 0.34 6.12 0 0 Z " fill="#E47682" transform="translate(158,67)"/>
<path d="M0 0 C0.66 0 1.32 0 2 0 C3.02214896 3.25229215 3.18671298 4.58923143 1.75 7.75 C0 10 0 10 -3 11 C-2.67 8.69 -2.34 6.38 -2 4 C-1.34 4 -0.68 4 0 4 C0 2.68 0 1.36 0 0 Z " fill="#E47B86" transform="translate(140,128)"/>
<path d="M0 0 C0.66 0 1.32 0 2 0 C1.34 1.65 0.68 3.3 0 5 C0.66 5.33 1.32 5.66 2 6 C2 6.66 2 7.32 2 8 C0.68 8 -0.64 8 -2 8 C-2 7.34 -2 6.68 -2 6 C-2.66 6 -3.32 6 -4 6 C-4 6.66 -4 7.32 -4 8 C-4.66 7.67 -5.32 7.34 -6 7 C-4.71937515 5.2925002 -3.38232443 3.62626404 -2 2 C-1.34 2 -0.68 2 0 2 C0 1.34 0 0.68 0 0 Z " fill="#F6B5B6" transform="translate(85,32)"/>
<path d="M0 0 C0 3.95566141 -1.39609149 5.09914371 -3.875 8.125 C-4.59429687 9.01445313 -5.31359375 9.90390625 -6.0546875 10.8203125 C-8 13 -8 13 -10 14 C-9.6875 12.0625 -9.6875 12.0625 -9 10 C-8.01 9.67 -7.02 9.34 -6 9 C-5.32558869 7.3364521 -4.6599679 5.66933058 -4 4 C-1.875 1.6875 -1.875 1.6875 0 0 Z " fill="#F6B8B9" transform="translate(143,116)"/>
<path d="M0 0 C0.99 0.495 0.99 0.495 2 1 C2 1.66 2 2.32 2 3 C2.66 3 3.32 3 4 3 C4 3.99 4 4.98 4 6 C5.175625 6.4640625 5.175625 6.4640625 6.375 6.9375 C9 8 9 8 11 9 C11 9.66 11 10.32 11 11 C6.56090219 9.60485497 4.01975019 7.52304189 1 4 C0.1875 1.6875 0.1875 1.6875 0 0 Z " fill="#F6B8B9" transform="translate(34,108)"/>
<path d="M0 0 C0.33 0.99 0.66 1.98 1 3 C1.66 3 2.32 3 3 3 C2.56802365 7.7517398 1.67230705 9.92000054 -2 13 C-1.38722388 10.03824877 -0.74627478 8.61941217 1 6 C0.34 5.67 -0.32 5.34 -1 5 C-0.67 3.35 -0.34 1.7 0 0 Z " fill="#E8949A" transform="translate(142,125)"/>
<path d="M0 0 C0.66 0 1.32 0 2 0 C2 0.66 2 1.32 2 2 C2.99 2.33 3.98 2.66 5 3 C5 3.66 5 4.32 5 5 C5.66 5 6.32 5 7 5 C6.67 6.32 6.34 7.64 6 9 C0.42857143 3.85714286 0.42857143 3.85714286 0 0 Z " fill="#E27A85" transform="translate(30,127)"/>
<path d="M0 0 C1.18916016 0.01353516 1.18916016 0.01353516 2.40234375 0.02734375 C4.35169281 0.05082988 6.30088575 0.08669863 8.25 0.125 C8.25 0.455 8.25 0.785 8.25 1.125 C3.3 1.125 -1.65 1.125 -6.75 1.125 C-6.75 1.785 -6.75 2.445 -6.75 3.125 C-9.72 2.63 -9.72 2.63 -12.75 2.125 C-8.77389214 -0.58986934 -4.61098023 -0.09940753 0 0 Z " fill="#FABABB" transform="translate(61.75,46.875)"/>
<path d="M0 0 C2.97 1.98 2.97 1.98 6 4 C5.01 4.33 4.02 4.66 3 5 C3.66 6.32 4.32 7.64 5 9 C3.0625 8.25 3.0625 8.25 1 7 C0.03430669 4.50529228 0 2.70254461 0 0 Z " fill="#EB8891" transform="translate(83,49)"/>
<path d="M0 0 C0.33 0.66 0.66 1.32 1 2 C1.66 2 2.32 2 3 2 C4.5078125 3.53125 4.5078125 3.53125 6.125 5.5 C6.66382812 6.1496875 7.20265625 6.799375 7.7578125 7.46875 C8.37269531 8.22671875 8.37269531 8.22671875 9 9 C8.67 9.66 8.34 10.32 8 11 C4.7 8.03 1.4 5.06 -2 2 C-1.34 1.34 -0.68 0.68 0 0 Z " fill="#F7B2B5" transform="translate(85,47)"/>
<path d="M0 0 C0.66 0 1.32 0 2 0 C2 1.98 2 3.96 2 6 C0.68 6.33 -0.64 6.66 -2 7 C-2.125 4.625 -2.125 4.625 -2 2 C-1.34 1.34 -0.68 0.68 0 0 Z " fill="#E57C86" transform="translate(145,121)"/>
<path d="M0 0 C2.7933465 5.39365686 3.11908784 9.92652016 3 16 C-0.13107836 12.61416198 -0.33550778 10.28890538 -0.1875 5.75 C-0.14689453 4.13351563 -0.14689453 4.13351563 -0.10546875 2.484375 C-0.07066406 1.66453125 -0.03585938 0.8446875 0 0 Z " fill="#F9BBBC" transform="translate(154,57)"/>
<path d="M0 0 C-1.23944276 0.86941494 -2.49207059 1.72005457 -3.75 2.5625 C-4.44609375 3.03816406 -5.1421875 3.51382813 -5.859375 4.00390625 C-8 5 -8 5 -10.265625 4.65234375 C-10.83796875 4.43707031 -11.4103125 4.22179688 -12 4 C-10.56988027 3.13353333 -9.13059381 2.28218171 -7.6875 1.4375 C-6.48673828 0.72400391 -6.48673828 0.72400391 -5.26171875 -0.00390625 C-3 -1 -3 -1 0 0 Z " fill="#E59EA0" transform="translate(47,45)"/>
<path d="M0 0 C1.32 0 2.64 0 4 0 C5.75 2 5.75 2 7 4 C6.67 4.33 6.34 4.66 6 5 C6.66 5.66 7.32 6.32 8 7 C6.02 7 4.04 7 2 7 C1.67 6.34 1.34 5.68 1 5 C1.99 5 2.98 5 4 5 C2.68 3.35 1.36 1.7 0 0 Z " fill="#F7B9BA" transform="translate(127,27)"/>
<path d="M0 0 C1.60517097 0.08733576 3.20921662 0.19552224 4.8125 0.3125 C6.15248047 0.39951172 6.15248047 0.39951172 7.51953125 0.48828125 C10.30604 1.06313581 11.24135754 1.8206856 13 4 C8.428721 3.45144652 4.32564205 2.58255197 0 1 C0 0.67 0 0.34 0 0 Z " fill="#E3999C" transform="translate(57,147)"/>
<path d="M0 0 C0.99 0 1.98 0 3 0 C2.67 0.99 2.34 1.98 2 3 C-2.29 3 -6.58 3 -11 3 C-11 2.67 -11 2.34 -11 2 C-10.28972656 1.93941406 -9.57945313 1.87882812 -8.84765625 1.81640625 C-7.46900391 1.69072266 -7.46900391 1.69072266 -6.0625 1.5625 C-5.14597656 1.48128906 -4.22945312 1.40007813 -3.28515625 1.31640625 C-1.03840268 1.23955024 -1.03840268 1.23955024 0 0 Z " fill="#EA8891" transform="translate(66,44)"/>
<path d="M0 0 C0.66 0 1.32 0 2 0 C2 0.66 2 1.32 2 2 C1.34 2 0.68 2 0 2 C0 3.65 0 5.3 0 7 C-0.99 7.33 -1.98 7.66 -3 8 C-1.125 1.125 -1.125 1.125 0 0 Z " fill="#EE8992" transform="translate(138,130)"/>
<path d="M0 0 C0.33 0 0.66 0 1 0 C1.125 6.625 1.125 6.625 0 10 C-0.66 10 -1.32 10 -2 10 C-2.22036864 6.14354879 -1.60355101 3.50776784 0 0 Z " fill="#E17782" transform="translate(160,86)"/>
</svg>
