<?xml version="1.0" encoding="UTF-8"?>
<svg version="1.1" xmlns="http://www.w3.org/2000/svg" width="182" height="141">
<path d="M0 0 C2.95944098 1.38205525 5.82825838 2.39218372 8.94921875 3.33984375 C23.64371795 8.07624772 38.9999397 15.80667891 47.13671875 29.46484375 C51.08009096 38.95125803 50.46470457 51.88890821 47.07421875 61.40234375 C41.94790561 73.0334744 33.28848293 81.43973448 22.51171875 87.96484375 C16.42518851 91.69337556 12.53263494 96.2787311 8.2890625 101.921875 C0.44271826 111.19223815 -9.78063861 116.5478371 -21.75390625 117.90625 C-47.09692055 119.39582917 -88.35243221 112.02551501 -108.703125 96.265625 C-119.1909982 86.25370067 -121.76767154 74.1800901 -122.21923828 60.13867188 C-122.35865998 45.13832683 -117.01902623 35.44534393 -107.0390625 24.58203125 C-103.32751647 20.97043709 -99.23243028 18.2208601 -94.86328125 15.46484375 C-93.77273437 14.75457031 -92.6821875 14.04429688 -91.55859375 13.3125 C-64.0955981 -4.17285122 -30.79349424 -15.1924477 0 0 Z " fill="#E04A44" transform="translate(127.86328125,15.53515625)"/>
<path d="M0 0 C2.95944098 1.38205525 5.82825838 2.39218372 8.94921875 3.33984375 C23.64371795 8.07624772 38.9999397 15.80667891 47.13671875 29.46484375 C51.08009096 38.95125803 50.46470457 51.88890821 47.07421875 61.40234375 C41.94790561 73.0334744 33.28848293 81.43973448 22.51171875 87.96484375 C16.42518851 91.69337556 12.53263494 96.2787311 8.2890625 101.921875 C0.44271826 111.19223815 -9.78063861 116.5478371 -21.75390625 117.90625 C-47.09692055 119.39582917 -88.35243221 112.02551501 -108.703125 96.265625 C-119.1909982 86.25370067 -121.76767154 74.1800901 -122.21923828 60.13867188 C-122.35865998 45.13832683 -117.01902623 35.44534393 -107.0390625 24.58203125 C-103.32751647 20.97043709 -99.23243028 18.2208601 -94.86328125 15.46484375 C-93.77273437 14.75457031 -92.6821875 14.04429688 -91.55859375 13.3125 C-64.0955981 -4.17285122 -30.79349424 -15.1924477 0 0 Z M-64.86328125 5.46484375 C-64.86328125 6.12484375 -64.86328125 6.78484375 -64.86328125 7.46484375 C-65.81203125 7.52671875 -66.76078125 7.58859375 -67.73828125 7.65234375 C-76.70866981 8.91038605 -84.98073989 15.24936323 -92.48828125 19.96484375 C-93.42929688 20.55265625 -94.3703125 21.14046875 -95.33984375 21.74609375 C-97.82620326 23.32341854 -97.82620326 23.32341854 -99.51171875 25.12109375 C-100.86328125 26.46484375 -100.86328125 26.46484375 -103.86328125 27.46484375 C-105.76094145 29.44454651 -105.76094145 29.44454651 -107.55078125 31.83984375 C-108.17339844 32.63132813 -108.79601562 33.4228125 -109.4375 34.23828125 C-111.1329129 36.44525525 -111.1329129 36.44525525 -110.86328125 39.46484375 C-111.52328125 39.46484375 -112.18328125 39.46484375 -112.86328125 39.46484375 C-116.74865644 48.68878212 -116.74865644 48.68878212 -116.86328125 58.46484375 C-114.31614043 63.63528575 -111.34485681 68.18085393 -105.86328125 70.46484375 C-105.20328125 70.46484375 -104.54328125 70.46484375 -103.86328125 70.46484375 C-101.54736103 67.24370218 -101.54736103 67.24370218 -100.86328125 63.46484375 C-96.40828125 62.96984375 -96.40828125 62.96984375 -91.86328125 62.46484375 C-91.51265625 63.74359375 -91.16203125 65.02234375 -90.80078125 66.33984375 C-88.92105485 71.99701076 -85.90221899 77.06790926 -81.86328125 81.46484375 C-80.87328125 81.46484375 -79.88328125 81.46484375 -78.86328125 81.46484375 C-79.52328125 77.50484375 -80.18328125 73.54484375 -80.86328125 69.46484375 C-80.12078125 70.00109375 -79.37828125 70.53734375 -78.61328125 71.08984375 C-75.4871314 73.22878839 -72.1908113 74.67006869 -68.73828125 76.21484375 C-64.58637784 78.20694428 -62.39479257 79.33726043 -60.80078125 83.71484375 C-60.14904 85.70557378 -60.14904 85.70557378 -58.86328125 87.46484375 C-51.47162335 90.19176506 -42.76457011 89.85127443 -34.98828125 89.83984375 C-33.84439941 89.83823242 -32.70051758 89.83662109 -31.52197266 89.83496094 C-23.29561751 89.71531339 -16.4111827 88.9394609 -8.86328125 85.46484375 C-8.02410156 85.08328125 -7.18492188 84.70171875 -6.3203125 84.30859375 C-4.47251709 83.41808994 -2.66130282 82.45199285 -0.86328125 81.46484375 C-0.86328125 80.80484375 -0.86328125 80.14484375 -0.86328125 79.46484375 C-0.20328125 79.46484375 0.45671875 79.46484375 1.13671875 79.46484375 C2.02527289 78.06366222 2.91302525 76.66196625 3.796875 75.2578125 C7.06660069 70.88229036 11.62304187 67.47396167 16.13671875 64.46484375 C16.13671875 66.77484375 16.13671875 69.08484375 16.13671875 71.46484375 C15.14671875 71.95984375 15.14671875 71.95984375 14.13671875 72.46484375 C14.46671875 73.45484375 14.79671875 74.44484375 15.13671875 75.46484375 C15.79671875 75.46484375 16.45671875 75.46484375 17.13671875 75.46484375 C16.80671875 78.43484375 16.47671875 81.40484375 16.13671875 84.46484375 C18.61171875 83.47484375 18.61171875 83.47484375 21.13671875 82.46484375 C21.46671875 76.19484375 21.79671875 69.92484375 22.13671875 63.46484375 C21.47671875 63.46484375 20.81671875 63.46484375 20.13671875 63.46484375 C20.46671875 61.81484375 20.79671875 60.16484375 21.13671875 58.46484375 C23.61171875 57.96984375 23.61171875 57.96984375 26.13671875 57.46484375 C26.13671875 56.80484375 26.13671875 56.14484375 26.13671875 55.46484375 C26.89984375 55.34109375 27.66296875 55.21734375 28.44921875 55.08984375 C31.33939011 54.58381583 31.33939011 54.58381583 34.13671875 52.46484375 C34.13671875 51.80484375 34.13671875 51.14484375 34.13671875 50.46484375 C35.12671875 50.46484375 36.11671875 50.46484375 37.13671875 50.46484375 C37.13671875 49.80484375 37.13671875 49.14484375 37.13671875 48.46484375 C37.79671875 48.46484375 38.45671875 48.46484375 39.13671875 48.46484375 C39.46671875 46.81484375 39.79671875 45.16484375 40.13671875 43.46484375 C40.79671875 43.46484375 41.45671875 43.46484375 42.13671875 43.46484375 C42.16377604 41.69409458 42.1831407 39.92322664 42.19921875 38.15234375 C42.21662109 36.67314453 42.21662109 36.67314453 42.234375 35.1640625 C42.26001737 32.36520526 42.26001737 32.36520526 41.13671875 29.46484375 C40.47671875 29.46484375 39.81671875 29.46484375 39.13671875 29.46484375 C38.88921875 28.84609375 38.64171875 28.22734375 38.38671875 27.58984375 C36.93043236 25.11415688 35.75859369 24.51359373 33.13671875 23.46484375 C33.13671875 22.80484375 33.13671875 22.14484375 33.13671875 21.46484375 C27.97214078 17.11639662 21.89357691 14.27945489 15.74609375 11.61328125 C13.54348798 10.64387093 11.44472555 9.59759311 9.32421875 8.46484375 C4.57940687 6.03840786 -0.45922061 4.42167949 -5.49609375 2.7109375 C-8.86328125 1.46484375 -8.86328125 1.46484375 -12.07421875 -0.14453125 C-28.19496216 -8.18232488 -49.30255105 -0.33622566 -64.86328125 5.46484375 Z " fill="#AB1720" transform="translate(127.86328125,15.53515625)"/>
<path d="M0 0 C0.66 0.33 1.32 0.66 2 1 C1.319375 1.804375 0.63875 2.60875 -0.0625 3.4375 C-2.32555813 6.16095104 -4.55068978 8.91228793 -6.75 11.6875 C-7.63945312 12.80705078 -7.63945312 12.80705078 -8.546875 13.94921875 C-10.17224124 16.0326279 -10.17224124 16.0326279 -11 19 C-11.66 19 -12.32 19 -13 19 C-16.68575692 29.67600661 -16.68575692 29.67600661 -14.86328125 40.38671875 C-11.9501596 45.13487766 -9.40295502 48.07037321 -4 50 C-3.731875 49.236875 -3.46375 48.47375 -3.1875 47.6875 C-1.4083045 43.66089965 -1.4083045 43.66089965 1 42 C4.5625 41.1875 4.5625 41.1875 8 41 C10.32185961 43.32185961 10.5749226 44.67337279 11.375 47.8125 C12.56431842 52.01759013 13.97046168 54.76849246 17 58 C17.33 58.66 17.66 59.32 18 60 C18.99 60.33 19.98 60.66 21 61 C20.67 59.7625 20.34 58.525 20 57.25 C19.20108841 54.25408155 19 52.19892281 19 49 C19.51433594 49.26167969 20.02867188 49.52335937 20.55859375 49.79296875 C22.47467249 50.74027808 24.40818609 51.65233358 26.34765625 52.55078125 C27.58609531 53.13768794 28.82437268 53.72493594 30.0625 54.3125 C30.68705078 54.59544922 31.31160156 54.87839844 31.95507812 55.16992188 C36.0454386 57.13870797 38.10291818 58.87105721 40 63 C40.495 64.485 40.495 64.485 41 66 C50.3815814 68.16331819 59.61418614 68.42631053 69.1875 68.625 C70.72723323 68.66327842 72.26694732 68.70233546 73.80664062 68.7421875 C77.53758283 68.83708824 81.26867242 68.92149948 85 69 C85 69.66 85 70.32 85 71 C78.03914816 73.89464397 71.92129996 74.38066228 64.4375 74.1875 C63.42880859 74.17396484 62.42011719 74.16042969 61.38085938 74.14648438 C58.91999379 74.11149576 56.46029665 74.06241158 54 74 C54.45189439 76.08473947 54.91176825 78.16775036 55.375 80.25 C55.63023438 81.41015625 55.88546875 82.5703125 56.1484375 83.765625 C56.86487584 86.48677611 57.70444288 88.53984461 59 91 C58.4013916 90.87230225 57.8027832 90.74460449 57.18603516 90.61303711 C50.05228383 89.13311174 42.90858888 88.11770038 35.6796875 87.23242188 C30.03815544 86.48160033 25.25572493 85.1927859 20 83 C19.01 82.608125 18.02 82.21625 17 81.8125 C16.01 81.4103125 16.01 81.4103125 15 81 C15.33 82.32 15.66 83.64 16 85 C3.02858998 82.73046453 -6.53542208 79.47650115 -15 69 C-22.58684409 57.22152934 -23.73086078 40.74576068 -21.53125 27.08984375 C-18.30894137 14.68011944 -9.62338037 7.63873664 0 0 Z " fill="#AB101B" transform="translate(28,36)"/>
<path d="M0 0 C9.09013667 1.56496858 17.60604639 5.72120029 25.9375 9.5625 C26.55157715 9.84303223 27.1656543 10.12356445 27.79833984 10.41259766 C31.79033866 12.28728121 35.3830292 14.4840701 39 17 C39.99 17.66 40.98 18.32 42 19 C42 19.66 42 20.32 42 21 C42.61875 21.2475 43.2375 21.495 43.875 21.75 C46.35068687 23.20628639 46.95125002 24.37812506 48 27 C48.66 27 49.32 27 50 27 C51.04976964 30.14930893 51.10131595 32.38814456 51.0625 35.6875 C51.05347656 36.68136719 51.04445312 37.67523438 51.03515625 38.69921875 C51.02355469 39.45847656 51.01195312 40.21773437 51 41 C50.34 41 49.68 41 49 41 C48.67 42.65 48.34 44.3 48 46 C47.34 46 46.68 46 46 46 C46 46.66 46 47.32 46 48 C45.01 48 44.02 48 43 48 C42.67 48.99 42.34 49.98 42 51 C39.39757586 52.64820195 38.13751221 53 35 53 C35 53.66 35 54.32 35 55 C32.525 55.495 32.525 55.495 30 56 C30 56.66 30 57.32 30 58 C29.34 58 28.68 58 28 58 C27.89171875 57.08927734 27.89171875 57.08927734 27.78125 56.16015625 C27.17733675 53.84291119 27.17733675 53.84291119 25.03125 52.62109375 C20.18654066 50.35574355 15.39757924 48.35875521 10.30078125 46.73828125 C-0.4561016 43.286582 -0.4561016 43.286582 -4.625 39.8125 C-7.20040723 34.54462157 -6.74501194 30.18182068 -4.90625 24.796875 C-3.99780246 22.4412494 -3.08893713 20.08578487 -2.1796875 17.73046875 C-0.32711426 11.87216596 -0.10256674 6.13535574 0 0 Z " fill="#E14843" transform="translate(119,18)"/>
<path d="M0 0 C2.47342266 3.71013399 2.38503486 5.61060262 2 10 C0.625 12.1875 0.625 12.1875 -1 14 C-2.43736937 16.36878922 -2.43736937 16.36878922 -3 19 C-3.495 20.485 -3.495 20.485 -4 22 C-4 21.34 -4 20.68 -4 20 C-4.845625 20.598125 -5.69125 21.19625 -6.5625 21.8125 C-9.86256301 24.02034358 -13.32214332 25.50161394 -17 27 C-17.62229492 27.34981934 -18.24458984 27.69963867 -18.88574219 28.06005859 C-21.42837397 29.19044339 -23.42660592 29.31720718 -26.203125 29.4140625 C-27.1828125 29.45273438 -28.1625 29.49140625 -29.171875 29.53125 C-30.69554687 29.57765625 -30.69554687 29.57765625 -32.25 29.625 C-33.28125 29.66367188 -34.3125 29.70234375 -35.375 29.7421875 C-37.9164894 29.83631674 -40.45797433 29.92194979 -43 30 C-43 29.34 -43 28.68 -43 28 C-43.66 28 -44.32 28 -45 28 C-49.68132191 22.73351285 -50.16088963 16.82329222 -51 10 C-50.35039307 10.01047363 -49.70078613 10.02094727 -49.03149414 10.03173828 C-46.04186999 10.07372962 -43.05230821 10.09946167 -40.0625 10.125 C-39.04091797 10.14175781 -38.01933594 10.15851563 -36.96679688 10.17578125 C-30.64311648 10.21618815 -25.11683473 9.62010013 -19 8 C-19 7.34 -19 6.68 -19 6 C-21.31 6 -23.62 6 -26 6 C-22.73454239 4.11608215 -19.71888239 3.50712033 -16 3 C-16.66 3.33 -17.32 3.66 -18 4 C-18 4.66 -18 5.32 -18 6 C-15.69 6.33 -13.38 6.66 -11 7 C-11 6.34 -11 5.68 -11 5 C-9.02 4.67 -7.04 4.34 -5 4 C-5 3.34 -5 2.68 -5 2 C-3.35 1.34 -1.7 0.68 0 0 Z " fill="#C01928" transform="translate(132,99)"/>
<path d="M0 0 C1.24523438 0.18175781 1.24523438 0.18175781 2.515625 0.3671875 C3.40507813 0.49351563 4.29453125 0.61984375 5.2109375 0.75 C8.46239309 1.37642722 11.59209009 2.30188086 14.765625 3.2421875 C16.22060357 3.4541538 17.67937551 3.64146282 19.140625 3.8046875 C22.765625 4.2421875 22.765625 4.2421875 23.765625 5.2421875 C27.09509593 5.52757072 30.42460128 5.69111383 33.76171875 5.86328125 C36.765625 6.2421875 36.765625 6.2421875 38.765625 8.2421875 C39.33376641 10.34999213 39.82364838 12.47936579 40.265625 14.6171875 C41.07208661 18.50047546 41.91904017 21.74334529 43.765625 25.2421875 C42.8677124 25.05064087 42.8677124 25.05064087 41.95166016 24.85522461 C34.81790883 23.37529924 27.67421388 22.35988788 20.4453125 21.47460938 C14.83223409 20.72757467 9.9793574 19.42367439 4.765625 17.2421875 C2.76681005 16.50977859 0.76696338 15.78017266 -1.234375 15.0546875 C-2.6575 14.53841797 -2.6575 14.53841797 -4.109375 14.01171875 C-4.810625 13.75777344 -5.511875 13.50382812 -6.234375 13.2421875 C-6.14652162 11.82441568 -6.03832853 10.40789711 -5.921875 8.9921875 C-5.86386719 8.20328125 -5.80585937 7.414375 -5.74609375 6.6015625 C-4.96534569 3.00177756 -3.90138778 0.4228777 0 0 Z " fill="#C01C29" transform="translate(43.234375,101.7578125)"/>
<path d="M0 0 C0.80424784 6.33345172 1.10875918 12.56094668 1.125 18.9375 C1.12951172 19.68314209 1.13402344 20.42878418 1.13867188 21.19702148 C1.12992824 24.39464013 1.01827905 26.94516284 0 30 C-0.66 30 -1.32 30 -2 30 C-2.22429688 30.68449219 -2.44859375 31.36898437 -2.6796875 32.07421875 C-4.34726301 35.76952662 -6.61155231 38.65484933 -9.125 41.8125 C-9.82689453 42.7087207 -9.82689453 42.7087207 -10.54296875 43.62304688 C-11.69005565 45.08616792 -12.84431234 46.54366297 -14 48 C-18.12768102 44.85118861 -21.1182948 41.91054619 -23 37 C-23.93732164 29.97008767 -21.66142962 24.46347193 -19 18 C-18.34 18 -17.68 18 -17 18 C-16.89171875 17.42378906 -16.7834375 16.84757812 -16.671875 16.25390625 C-15.20117192 11.32021045 -11.5567436 7.07489439 -7.375 4.1875 C-6.59125 3.795625 -5.8075 3.40375 -5 3 C-4.2575 2.443125 -3.515 1.88625 -2.75 1.3125 C-1 0 -1 0 0 0 Z " fill="#DF4843" transform="translate(34,37)"/>
<path d="M0 0 C0.04898438 1.18335938 0.09796875 2.36671875 0.1484375 3.5859375 C0.63801346 15.92112882 0.63801346 15.92112882 3 28 C3.24363281 28.91136719 3.48726562 29.82273437 3.73828125 30.76171875 C6.72283446 40.39906459 11.91847852 45.49510872 20.67456055 50.15551758 C21.98562316 50.82766575 23.30461736 51.48463058 24.63208008 52.1237793 C30.80847424 55.14418767 35.01844907 59.45426835 39 65 C39.3743972 66.32239012 39.71571961 67.65535375 40 69 C36.84457395 69.10787781 34.01564463 68.9856789 31 68 C30.13832984 66.11095388 29.29031208 64.21261103 28.55859375 62.26953125 C24.93910235 56.99904378 17.60326728 54.71557663 12 52 C11.01 51.34 10.02 50.68 9 50 C9.66 53.96 10.32 57.92 11 62 C7 61 7 61 4.9375 58.3125 C2.02039539 53.32519212 -0.28923034 48.52710199 -2 43 C-6.455 43.495 -6.455 43.495 -11 44 C-11.309375 44.78375 -11.61875 45.5675 -11.9375 46.375 C-13 49 -13 49 -14 51 C-15.32 50.67 -16.64 50.34 -18 50 C-16.33683133 46.23742169 -13.93143026 43.11356346 -11.4375 39.875 C-8.46232182 36.10438856 -8.46232182 36.10438856 -6 32 C-5.34 32 -4.68 32 -4 32 C-4 21.77 -4 11.54 -4 1 C-2 0 -2 0 0 0 Z " fill="#F7BAB8" transform="translate(38,35)"/>
<path d="M0 0 C1.2065625 0.0309375 1.2065625 0.0309375 2.4375 0.0625 C2.1075 0.949375 1.7775 1.83625 1.4375 2.75 C-0.37222323 9.0711047 -0.46631179 16.3996838 1.10546875 22.76953125 C2.90457697 25.86652986 4.765813 26.64214798 8 28.125 C9.07636719 28.63417969 10.15273437 29.14335938 11.26171875 29.66796875 C13.16356691 30.50309765 15.07964396 31.30828278 17.01953125 32.05078125 C23.82694827 34.68329175 27.02935142 38.71229611 30.52734375 45.03125 C32.89316517 49.00515644 34.85036434 50.51693547 39.35546875 51.734375 C46.43998098 53.51059376 53.38918619 53.497362 60.65234375 53.50195312 C67.00999989 53.62029204 73.18886618 54.09688283 78.4375 58.0625 C79.17626953 60.20092773 79.17626953 60.20092773 79.4375 62.0625 C73.8761993 61.30414081 73.8761993 61.30414081 71.57324219 60.03564453 C68.91154282 58.82284919 66.93366897 58.83476479 64.015625 58.8671875 C62.47841797 58.87685547 62.47841797 58.87685547 60.91015625 58.88671875 C59.84667969 58.90347656 58.78320312 58.92023438 57.6875 58.9375 C56.06908203 58.95103516 56.06908203 58.95103516 54.41796875 58.96484375 C51.75758722 58.98838695 49.09765664 59.02127201 46.4375 59.0625 C46.4375 59.7225 46.4375 60.3825 46.4375 61.0625 C31.40649187 61.9230539 31.40649187 61.9230539 27.625 58.875 C23.6639841 53.78226527 23.17635136 49.68069987 22.87890625 43.3671875 C22.35113546 40.61157012 21.64545644 39.74697381 19.4375 38.0625 C16.33742799 36.86200593 16.33742799 36.86200593 13.4375 36.0625 C13.4375 35.4025 13.4375 34.7425 13.4375 34.0625 C12.261875 34.041875 11.08625 34.02125 9.875 34 C5.11764435 33.4403111 2.87239 31.15917926 -0.3125 27.75390625 C-1.5625 26.0625 -1.5625 26.0625 -1.5625 24.0625 C-2.2225 24.0625 -2.8825 24.0625 -3.5625 24.0625 C-5.90874728 17.02375816 -4.74707443 8.30156594 -3.5625 1.0625 C-2.5625 0.0625 -2.5625 0.0625 0 0 Z " fill="#F6B4B3" transform="translate(56.5625,24.9375)"/>
<path d="M0 0 C4.30609958 0.96219053 7.94617945 2.78919415 11.875 4.75 C12.56980469 5.08515625 13.26460937 5.4203125 13.98046875 5.765625 C19.41272824 8.46640938 24.45189339 11.17698206 27.4609375 16.6640625 C30.33358099 25.9694632 31.50121558 36.29382129 30 46 C29.34 46.99 28.68 47.98 28 49 C27.34 49 26.68 49 26 49 C26 49.66 26 50.32 26 51 C25.34 51 24.68 51 24 51 C24 49.68 24 48.36 24 47 C24.66 47 25.32 47 26 47 C26.33 45.02 26.66 43.04 27 41 C26.01 41 25.02 41 24 41 C23.7525 41.598125 23.505 42.19625 23.25 42.8125 C21.79509261 45.35858793 20.52050729 46.51734865 18 48 C16.68 48 15.36 48 14 48 C14 48.66 14 49.32 14 50 C13.360625 50.28875 12.72125 50.5775 12.0625 50.875 C9.84793921 51.82823451 9.84793921 51.82823451 9 54 C8.9283265 56.55157655 8.90691558 59.07472971 8.9375 61.625 C8.94201172 62.33140625 8.94652344 63.0378125 8.95117188 63.765625 C8.96296125 65.51045275 8.98089676 67.255237 9 69 C9.99 68.505 9.99 68.505 11 68 C10.67 69.32 10.34 70.64 10 72 C9.01 72 8.02 72 7 72 C6.67 72.99 6.34 73.98 6 75 C5.34 75 4.68 75 4 75 C3.97280444 72.62492145 3.95306753 70.25016036 3.9375 67.875 C3.92912109 67.20984375 3.92074219 66.5446875 3.91210938 65.859375 C3.89217708 61.79318646 4.21109839 57.9879908 5 54 C4.34 54 3.68 54 3 54 C3.33 52.35 3.66 50.7 4 49 C6.475 48.505 6.475 48.505 9 48 C9 47.34 9 46.68 9 46 C10.7015625 45.319375 10.7015625 45.319375 12.4375 44.625 C16.04721692 43.42904194 16.04721692 43.42904194 17 41 C17.99 41 18.98 41 20 41 C20 40.34 20 39.68 20 39 C20.66 39 21.32 39 22 39 C22.33 37.35 22.66 35.7 23 34 C23.66 34 24.32 34 25 34 C24.67 29.38 24.34 24.76 24 20 C23.34 20 22.68 20 22 20 C20.64613064 18.34997172 19.31321858 16.6825613 18 15 C17.34 14.67 16.68 14.34 16 14 C16 13.34 16 12.68 16 12 C15.17242187 11.58621094 15.17242187 11.58621094 14.328125 11.1640625 C10.21875 9.109375 6.109375 7.0546875 2 5 C2 3.68 2 2.36 2 1 C1.34 0.67 0.68 0.34 0 0 Z " fill="#AC101A" transform="translate(145,25)"/>
<path d="M0 0 C2.32185961 2.32185961 2.5749226 3.67337279 3.375 6.8125 C4.56431842 11.01759013 5.97046168 13.76849246 9 17 C9.33 17.66 9.66 18.32 10 19 C10.99 19.33 11.98 19.66 13 20 C12.67 18.7625 12.34 17.525 12 16.25 C11.20108841 13.25408155 11 11.19892281 11 8 C11.51433594 8.26167969 12.02867188 8.52335937 12.55859375 8.79296875 C14.47467249 9.74027808 16.40818609 10.65233358 18.34765625 11.55078125 C19.58609531 12.13768794 20.82437268 12.72493594 22.0625 13.3125 C22.68705078 13.59544922 23.31160156 13.87839844 23.95507812 14.16992188 C28.03835903 16.13530041 30.10462919 17.87556634 32 22 C32.6875 24.3125 32.6875 24.3125 33 26 C17.72977583 24.30330843 3.16264916 20.07708017 -10 12 C-10 11.34 -10 10.68 -10 10 C-11.65 10 -13.3 10 -15 10 C-15.33 9.34 -15.66 8.68 -16 8 C-14.68 8.33 -13.36 8.66 -12 9 C-11.731875 8.236875 -11.46375 7.47375 -11.1875 6.6875 C-8.82273217 1.33565702 -5.8014954 -0.43511215 0 0 Z " fill="#DE4E49" transform="translate(36,77)"/>
<path d="M0 0 C6.75 0.875 6.75 0.875 9 2 C9.61577183 11.77024636 8.77608093 18.63616346 5.12890625 27.83203125 C3.53610425 32.30179743 3.32913939 35.30397573 4 40 C6.78299251 44.3591423 9.35862961 45.92883764 14.1875 47.625 C15.33863281 48.03878906 16.48976563 48.45257813 17.67578125 48.87890625 C20.40199713 49.79832336 23.13369293 50.68962253 25.875 51.5625 C29.95118516 52.87350965 33.36020093 54.75416653 37 57 C37 58.32 37 59.64 37 61 C33.14670658 60.30790361 30.14180179 58.52987447 26.75 56.625 C22.54247474 54.3171935 18.49423122 52.30876628 13.97265625 50.734375 C7.66174878 48.38496786 1.6025346 45.95201368 -2 40 C-3.19754817 36.40735548 -3.33094958 33.77282526 -3 30 C-1.1875 28 -1.1875 28 1 26 C2.07136051 23.69855891 3.07989717 21.3659787 4 19 C4.33 18.34 4.66 17.68 5 17 C5.84514168 10.35404276 5.84514168 10.35404276 3.8828125 4.19921875 C2.37911293 2.70623198 2.37911293 2.70623198 0 1 C0 0.67 0 0.34 0 0 Z " fill="#F9BCBB" transform="translate(110,15)"/>
<path d="M0 0 C3.27469589 0.67153902 5.92140565 1.88709299 8.875 3.4375 C12.5196722 5.30296831 16.05344886 6.8575773 20 8 C19.67 8.99 19.34 9.98 19 11 C19.66 11 20.32 11 21 11 C20.67 17.27 20.34 23.54 20 30 C18.35 30.66 16.7 31.32 15 32 C15.33 29.03 15.66 26.06 16 23 C15.34 23 14.68 23 14 23 C13.67 21.68 13.34 20.36 13 19 C13.66 19 14.32 19 15 19 C15 16.69 15 14.38 15 12 C10.77895001 14.72190685 10.77895001 14.72190685 7 18 C6.46375 17.38125 5.9275 16.7625 5.375 16.125 C2.68896977 13.7217098 0.44585438 12.93977847 -3 12 C-3 11.67 -3 11.34 -3 11 C-1.02 10.67 0.96 10.34 3 10 C1.68 9.34 0.36 8.68 -1 8 C-0.67 7.34 -0.34 6.68 0 6 C0.99 6 1.98 6 3 6 C3 5.34 3 4.68 3 4 C2.01 3.67 1.02 3.34 0 3 C0 2.01 0 1.02 0 0 Z " fill="#DC4A45" transform="translate(129,68)"/>
<path d="M0 0 C0.66 0.33 1.32 0.66 2 1 C2.4140625 3.06640625 2.4140625 3.06640625 2.625 5.5625 C2.69976562 6.38878906 2.77453125 7.21507813 2.8515625 8.06640625 C2.90054688 8.70449219 2.94953125 9.34257813 3 10 C3.66 8.35 4.32 6.7 5 5 C5.33 5 5.66 5 6 5 C6.33 6.98 6.66 8.96 7 11 C7.66 11 8.32 11 9 11 C9.36258051 14.00423848 9.60366781 16.08664664 9 19 C6.99873897 21.48641522 4.6179702 23.20049586 2 25 C1.195625 25.61875 0.39125 26.2375 -0.4375 26.875 C-0.953125 27.24625 -1.46875 27.6175 -2 28 C-3 25 -3 25 -2 21.75 C-0.92047964 17.70179866 -1.1704691 15.06470141 -2 11 C-3.65 11.33 -5.3 11.66 -7 12 C-7 12.66 -7 13.32 -7 14 C-8.98 14.33 -10.96 14.66 -13 15 C-13 15.66 -13 16.32 -13 17 C-15.31 16.67 -17.62 16.34 -20 16 C-20 15.34 -20 14.68 -20 14 C-17.91796875 12.4921875 -17.91796875 12.4921875 -15.1875 10.875 C-14.29417969 10.33617188 -13.40085937 9.79734375 -12.48046875 9.2421875 C-10 8 -10 8 -7 8 C-7 7.34 -7 6.68 -7 6 C-6.34 6 -5.68 6 -5 6 C-4.67 5.01 -4.34 4.02 -4 3 C-1.9375 1.3125 -1.9375 1.3125 0 0 Z " fill="#AE0F1A" transform="translate(134,89)"/>
<path d="M0 0 C2.95944098 1.38205525 5.82825838 2.39218372 8.94921875 3.33984375 C14.07790837 4.96952082 18.82238261 7.08627731 23.63671875 9.46484375 C24.31968018 9.79726074 25.0026416 10.12967773 25.70629883 10.47216797 C29.46093251 12.37214813 32.32289515 14.24904535 35.13671875 17.46484375 C29.4516934 15.81917852 24.36990239 13.17451591 19.13671875 10.46484375 C18.64171875 11.94984375 18.64171875 11.94984375 18.13671875 13.46484375 C16.38671875 12.73567708 14.63671875 12.00651042 12.88671875 11.27734375 C11.79359375 10.82230469 10.70046875 10.36726563 9.57421875 9.8984375 C7.36463866 8.97694217 5.15620461 8.05269136 2.94921875 7.125 C-2.61763347 4.78891023 -8.19262074 2.53681586 -13.86328125 0.46484375 C-12.87328125 -0.19515625 -11.88328125 -0.85515625 -10.86328125 -1.53515625 C-21.87102084 -8.87364931 -39.43019478 -5.18071181 -51.86328125 -3.53515625 C-36.07453467 -12.21349733 -15.13622381 -7.46769064 0 0 Z " fill="#B42028" transform="translate(127.86328125,15.53515625)"/>
<path d="M0 0 C0.99 0 1.98 0 3 0 C2.67 1.98 2.34 3.96 2 6 C1.34 6 0.68 6 0 6 C0.04125 6.9075 0.0825 7.815 0.125 8.75 C0.00468444 11.8782046 -0.3914708 13.38614006 -2 16 C-2.66 16 -3.32 16 -4 16 C-4.33 16.99 -4.66 17.98 -5 19 C-5.66 19.66 -6.32 20.32 -7 21 C-7 21.66 -7 22.32 -7 23 C-8.96875 24.5078125 -8.96875 24.5078125 -11.5 26.125 C-12.3353125 26.66382812 -13.170625 27.20265625 -14.03125 27.7578125 C-14.6809375 28.16773437 -15.330625 28.57765625 -16 29 C-16.1081866 26.41554227 -16.18737237 23.83562648 -16.25 21.25 C-16.28351563 20.52039063 -16.31703125 19.79078125 -16.3515625 19.0390625 C-16.4174248 15.41663613 -16.31755877 13.42253687 -14.109375 10.484375 C-12 9 -12 9 -10 9 C-10 8.34 -10 7.68 -10 7 C-8.9171875 6.6596875 -8.9171875 6.6596875 -7.8125 6.3125 C-4.80509966 5.10412484 -4.80509966 5.10412484 -2.375 2.375 C-1.59125 1.59125 -0.8075 0.8075 0 0 Z " fill="#BF1726" transform="translate(169,66)"/>
<path d="M0 0 C1.23403049 3.70209148 0.58355448 4.44982962 -0.9375 7.9375 C-4.85337665 18.26240659 -3.21821187 29.37449131 -1 40 C-0.33720647 41.33526288 0.32882505 42.66893035 1 44 C1 45.32 1 46.64 1 48 C2.65 48 4.3 48 6 48 C6 44.37 6 40.74 6 37 C7.98 37.66 9.96 38.32 12 39 C12.13504138 40.93559313 12.23201129 42.873872 12.3125 44.8125 C12.37050781 45.89144531 12.42851562 46.97039062 12.48828125 48.08203125 C12 51 12 51 9.48046875 52.88671875 C8.66191406 53.25410156 7.84335937 53.62148437 7 54 C7.99 54.33 8.98 54.66 10 55 C10.6875 57.0625 10.6875 57.0625 11 59 C11.55171875 59.11214844 12.1034375 59.22429687 12.671875 59.33984375 C15.40065211 60.11360773 17.72772943 61.26817694 20.25 62.5625 C21.58804688 63.24505859 21.58804688 63.24505859 22.953125 63.94140625 C23.96632813 64.46541016 23.96632813 64.46541016 25 65 C21.0617307 66.31275643 19.98057675 65.37070685 16.3125 63.5625 C7.97265097 59.20601296 2.0251497 53.59257652 -2 45 C-5.78514177 31.90736409 -7.65893126 15.74557453 -2 3 C-1.34 2.01 -0.68 1.02 0 0 Z " fill="#C03338" transform="translate(11,53)"/>
<path d="M0 0 C-0.66 0.66 -1.32 1.32 -2 2 C-4.328125 1.9765625 -4.328125 1.9765625 -7.25 1.625 C-19.46467124 0.41084705 -30.94212969 0.58263891 -42.75 4.125 C-46.28896897 5.07779934 -49.35166518 5.14891163 -53 5 C-53 4.34 -53 3.68 -53 3 C-37.05021621 -4.767507 -16.6422856 -7.24106759 0 0 Z " fill="#A7121D" transform="translate(119,13)"/>
<path d="M0 0 C1.66666667 0 3.33333333 0 5 0 C4.67 1.98 4.34 3.96 4 6 C2.68 6 1.36 6 0 6 C0 6.66 0 7.32 0 8 C-1.65 8 -3.3 8 -5 8 C-5 8.66 -5 9.32 -5 10 C-17.35258119 14.78164433 -30.49247243 13.99215375 -43 10 C-43.33 9.34 -43.66 8.68 -44 8 C-40.30458414 7.04975021 -37.69541586 7.04975021 -34 8 C-34 8.66 -34 9.32 -34 10 C-33.34 9.67 -32.68 9.34 -32 9 C-30.56119746 8.89544162 -29.11823036 8.84485273 -27.67578125 8.82421875 C-26.81146484 8.80037109 -25.94714844 8.77652344 -25.05664062 8.75195312 C-23.24697412 8.7094485 -21.43701102 8.67794921 -19.62695312 8.65820312 C-13.55313575 8.46488399 -10.06255681 7.35748241 -5 4 C-4.21625 3.814375 -3.4325 3.62875 -2.625 3.4375 C-1.820625 3.2209375 -1.820625 3.2209375 -1 3 C-0.67 2.01 -0.34 1.02 0 0 Z " fill="#AB0E19" transform="translate(123,119)"/>
<path d="M0 0 C0.66 0.33 1.32 0.66 2 1 C2.37890625 2.8203125 2.37890625 2.8203125 2.5625 5.125 C2.91973285 9.11197376 3.41037206 13.04106952 4 17 C-1.05255964 16.36843005 -5.29593201 14.86540627 -10 13 C-9.51058029 5.10177853 -9.51058029 5.10177853 -7.8125 1.4375 C-5.18716183 -0.64466476 -3.25410793 -0.34618169 0 0 Z " fill="#E38F88" transform="translate(47,102)"/>
<path d="M0 0 C1.65312636 2.47968954 2.89803633 4.74272424 4.125 7.4375 C4.47820313 8.19933594 4.83140625 8.96117188 5.1953125 9.74609375 C6 12 6 12 6 16 C6.99 16.33 7.98 16.66 9 17 C8.67 17.66 8.34 18.32 8 19 C7.01 18.67 6.02 18.34 5 18 C5.33 18.66 5.66 19.32 6 20 C6.13415472 22.6723621 6.04318541 25.32250488 6 28 C2 28 2 28 0.375 26.5625 C-1.62198562 22.84084498 -2.74100762 19.23020894 -3 15 C-1.625 11.4375 -1.625 11.4375 0 8 C0.25533531 5.27321158 0.14454368 2.74632995 0 0 Z " fill="#F7BFBF" transform="translate(40,63)"/>
<path d="M0 0 C1.2065625 0.0309375 1.2065625 0.0309375 2.4375 0.0625 C2.1075 0.949375 1.7775 1.83625 1.4375 2.75 C-0.54235391 9.66534689 -1.03904572 18.61406842 2.4375 25.0625 C4.11375949 26.48103185 4.11375949 26.48103185 6.0625 27.375 C7.17625 27.931875 8.29 28.48875 9.4375 29.0625 C8.1175 29.3925 6.7975 29.7225 5.4375 30.0625 C6.4275 31.0525 7.4175 32.0425 8.4375 33.0625 C5.14995489 32.48360619 3.50077505 31.51421589 1.1875 29.125 C0.66671875 28.60035156 0.1459375 28.07570313 -0.390625 27.53515625 C-1.5625 26.0625 -1.5625 26.0625 -1.5625 24.0625 C-2.2225 24.0625 -2.8825 24.0625 -3.5625 24.0625 C-5.90874728 17.02375816 -4.74707443 8.30156594 -3.5625 1.0625 C-2.5625 0.0625 -2.5625 0.0625 0 0 Z " fill="#EF9592" transform="translate(56.5625,24.9375)"/>
<path d="M0 0 C0.66 0.33 1.32 0.66 2 1 C0.37829621 2.00533667 -1.24747237 3.00411907 -2.875 4 C-3.77992187 4.556875 -4.68484375 5.11375 -5.6171875 5.6875 C-8 7 -8 7 -10 7 C-9.89042969 7.75023437 -9.78085937 8.50046875 -9.66796875 9.2734375 C-10 12 -10 12 -12.30078125 13.9140625 C-13.29464844 14.47867188 -14.28851563 15.04328125 -15.3125 15.625 C-18.63677137 17.54569012 -21.31708751 19.27581194 -24 22 C-24.66 22 -25.32 22 -26 22 C-25.67 21.360625 -25.34 20.72125 -25 20.0625 C-23.92728775 18.23205433 -23.92728775 18.23205433 -24 17 C-28.455 20.96 -28.455 20.96 -33 25 C-33 22 -33 22 -31.33984375 20.0546875 C-24.16188276 13.54200094 -16.45139672 8.68594724 -8 4 C-7.11957031 3.50886719 -6.23914063 3.01773437 -5.33203125 2.51171875 C-3.1875 1.375 -3.1875 1.375 0 0 Z " fill="#B11E26" transform="translate(51,21)"/>
<path d="M0 0 C1.90072266 0.06574219 1.90072266 0.06574219 3.83984375 0.1328125 C4.50032715 0.15859375 5.16081055 0.184375 5.84130859 0.2109375 C7.83795803 0.28823339 9.83500191 0.35511099 11.83203125 0.421875 C29.92449021 1.08178232 29.92449021 1.08178232 33.609375 4.9140625 C33.609375 5.9040625 33.609375 6.8940625 33.609375 7.9140625 C31.629375 7.5840625 29.649375 7.2540625 27.609375 6.9140625 C27.114375 5.4290625 27.114375 5.4290625 26.609375 3.9140625 C13.89805476 3.80638156 1.27949675 3.79316705 -11.390625 4.9140625 C-10.578125 2.9765625 -10.578125 2.9765625 -9.390625 0.9140625 C-5.98959103 -0.21961549 -3.57876117 -0.12635035 0 0 Z " fill="#FCBEBB" transform="translate(102.390625,79.0859375)"/>
<path d="M0 0 C0.8353125 1.0828125 0.8353125 1.0828125 1.6875 2.1875 C7.07103128 7.60170667 15.77936616 9.30701502 22.875 11.5625 C26.95118516 12.87350965 30.36020093 14.75416653 34 17 C34 18.32 34 19.64 34 21 C30.14670658 20.30790361 27.14180179 18.52987447 23.75 16.625 C19.54738158 14.31988488 15.50767587 12.30218657 10.984375 10.74609375 C-0.23636364 6.52727273 -0.23636364 6.52727273 -2 3 C-1.34 3 -0.68 3 0 3 C0 2.01 0 1.02 0 0 Z " fill="#E8827E" transform="translate(113,55)"/>
<path d="M0 0 C0.66 0.33 1.32 0.66 2 1 C1.67 1.66 1.34 2.32 1 3 C1.66 3 2.32 3 3 3 C2.67 9.27 2.34 15.54 2 22 C0.35 22.66 -1.3 23.32 -3 24 C-2.505 19.545 -2.505 19.545 -2 15 C-2.66 15 -3.32 15 -4 15 C-4.33 13.68 -4.66 12.36 -5 11 C-4.34 11 -3.68 11 -3 11 C-2.67 8.03 -2.34 5.06 -2 2 C-1.34 2 -0.68 2 0 2 C0 1.34 0 0.68 0 0 Z " fill="#B3272E" transform="translate(147,76)"/>
<path d="M0 0 C1.65 0 3.3 0 5 0 C6.74548865 3.86501058 7.63415697 7.67775511 8.4375 11.81640625 C9.02174499 14.08441284 9.88330306 15.94806938 11 18 C3.125 17.125 3.125 17.125 2 16 C1.78942229 14.06677962 1.63138075 12.12771213 1.5 10.1875 C1.26022715 6.67225879 0.98482106 3.38942581 0 0 Z " fill="#E2827D" transform="translate(76,109)"/>
<path d="M0 0 C0.66 0 1.32 0 2 0 C2.625 1.8125 2.625 1.8125 3 4 C2.01 5.485 2.01 5.485 1 7 C2.32 7 3.64 7 5 7 C4.67 8.32 4.34 9.64 4 11 C-0.455 11.495 -0.455 11.495 -5 12 C-5.309375 12.78375 -5.61875 13.5675 -5.9375 14.375 C-7 17 -7 17 -8 19 C-9.32 18.67 -10.64 18.34 -12 18 C-10.33683133 14.23742169 -7.93143026 11.11356346 -5.4375 7.875 C-2.46232182 4.10438856 -2.46232182 4.10438856 0 0 Z " fill="#F5B0AD" transform="translate(32,67)"/>
<path d="M0 0 C6.75 0.875 6.75 0.875 9 2 C9.55353075 17.74487472 9.55353075 17.74487472 6 25 C5.34 24.34 4.68 23.68 4 23 C3.34 23.33 2.68 23.66 2 24 C3.875 19.25 3.875 19.25 5 17 C5.84514168 10.35404276 5.84514168 10.35404276 3.8828125 4.19921875 C2.37911293 2.70623198 2.37911293 2.70623198 0 1 C0 0.67 0 0.34 0 0 Z " fill="#ED918D" transform="translate(110,15)"/>
<path d="M0 0 C0.06058594 1.19496094 0.12117188 2.38992187 0.18359375 3.62109375 C0.79215577 15.33528961 0.79215577 15.33528961 2 27 C1.34 27 0.68 27 0 27 C0 24.69 0 22.38 0 20 C-0.66 20 -1.32 20 -2 20 C-2 22.31 -2 24.62 -2 27 C-2.33 27 -2.66 27 -3 27 C-3.65655389 18.31238511 -4.16311941 9.71782637 -4 1 C-2 0 -2 0 0 0 Z " fill="#F4A19D" transform="translate(38,35)"/>
<path d="M0 0 C0 0.66 0 1.32 0 2 C2.64551056 2.19386492 5.29117783 2.38038267 7.9375 2.5625 C9.06961914 2.64661133 9.06961914 2.64661133 10.22460938 2.73242188 C12.14745958 2.86176157 14.07389548 2.93516912 16 3 C16.33 2.67 16.66 2.34 17 2 C19.01594582 1.76572222 21.038474 1.58663876 23.0625 1.4375 C24.16722656 1.35371094 25.27195313 1.26992187 26.41015625 1.18359375 C27.26480469 1.12300781 28.11945313 1.06242188 29 1 C24.68149907 5.31850093 18.17126717 5.17573415 12.375 5.3125 C5.06923903 5.20982444 -2.01739907 4.22870718 -9 2 C-9.33 1.34 -9.66 0.68 -10 0 C-6.7169902 -1.6415049 -3.57454967 -0.51888624 0 0 Z " fill="#A0131E" transform="translate(89,127)"/>
<path d="M0 0 C5.37011439 4.93351973 5.85260981 9.9078767 6.1875 16.93359375 C6.21558258 18.35143746 6.23637108 19.7694437 6.25 21.1875 C6.26401855 22.20312012 6.26401855 22.20312012 6.27832031 23.23925781 C6.2509839 27.52686962 5.5620414 31.014315 4 35 C3.34 35 2.68 35 2 35 C1.71125 35.969375 1.4225 36.93875 1.125 37.9375 C0 41 0 41 -2 42 C-2 39.69 -2 37.38 -2 35 C-1.34 35 -0.68 35 0 35 C0 34.34 0 33.68 0 33 C0.66 33 1.32 33 2 33 C5.31511405 23.05465786 3.62236097 9.59494425 0 0 Z " fill="#B3282F" transform="translate(171,41)"/>
<path d="M0 0 C1.98 0.66 3.96 1.32 6 2 C6 5.96 6 9.92 6 14 C4.68 14 3.36 14 2 14 C0.4087311 9.126739 -0.21192221 5.19209404 0 0 Z " fill="#E78F89" transform="translate(17,90)"/>
<path d="M0 0 C0.99 0.33 1.98 0.66 3 1 C-8.32814886 9.64516623 -22.30528645 9.13769457 -35.89453125 7.54296875 C-38.61656355 7.09414017 -41.30810638 6.60178061 -44 6 C-44 5.67 -44 5.34 -44 5 C-42.62511713 4.97250234 -41.25006609 4.9533836 -39.875 4.9375 C-38.72644531 4.92009766 -38.72644531 4.92009766 -37.5546875 4.90234375 C-35 5 -35 5 -32.1171875 5.4921875 C-23.0456192 6.97001191 -13.86590442 6.28797534 -5 4 C-5 3.34 -5 2.68 -5 2 C-3.35 2 -1.7 2 0 2 C0 1.34 0 0.68 0 0 Z " fill="#BF3237" transform="translate(123,125)"/>
<path d="M0 0 C0 4.04392968 -1.48091251 5.00131618 -4.1875 7.9375 C-4.96480469 8.79214844 -5.74210938 9.64679688 -6.54296875 10.52734375 C-8.91274046 12.91218555 -11.27758367 15.02796397 -14 17 C-14.66 17 -15.32 17 -16 17 C-15.814375 16.05125 -15.62875 15.1025 -15.4375 14.125 C-14.71313368 11.10131207 -14.71313368 11.10131207 -16 9 C-15.34 9 -14.68 9 -14 9 C-13.34 7.68 -12.68 6.36 -12 5 C-11.67 6.32 -11.34 7.64 -11 9 C-10.38125 8.505 -9.7625 8.01 -9.125 7.5 C-7 6 -7 6 -5 6 C-4.67 5.01 -4.34 4.02 -4 3 C-1.9375 1.3125 -1.9375 1.3125 0 0 Z " fill="#AE1F28" transform="translate(143,107)"/>
<path d="M0 0 C0.86625 0.33 1.7325 0.66 2.625 1 C7.63630903 2.4848323 11.49740229 2.14468624 16.515625 1 C22.04622111 -0.12626711 27.37078482 -0.29790821 33 -0.25 C33.93972656 -0.25773437 34.87945312 -0.26546875 35.84765625 -0.2734375 C36.74355469 -0.27085938 37.63945313 -0.26828125 38.5625 -0.265625 C39.36816406 -0.26336914 40.17382812 -0.26111328 41.00390625 -0.25878906 C43 0 43 0 45 2 C36.42 2 27.84 2 19 2 C19 2.66 19 3.32 19 4 C16.5821288 4.10826289 14.16912444 4.18739789 11.75 4.25 C10.72712891 4.30027344 10.72712891 4.30027344 9.68359375 4.3515625 C6.07818187 4.4215705 4.35931188 4.29151719 1.515625 1.984375 C1.01546875 1.32953125 0.5153125 0.6746875 0 0 Z " fill="#EF9692" transform="translate(84,82)"/>
<path d="M0 0 C0.33 0 0.66 0 1 0 C1.33461467 1.47887733 1.66765667 2.95811058 2 4.4375 C2.185625 5.26121094 2.37125 6.08492188 2.5625 6.93359375 C3 9 3 9 3 10 C3.68931667 12.55711372 3.68931667 12.55711372 5 15 C6.32226509 15.37483854 7.65885412 15.6996392 9 16 C10.76770592 16.8168944 12.51746766 17.67343735 14.25 18.5625 C15.58804688 19.24505859 15.58804688 19.24505859 16.953125 19.94140625 C17.62859375 20.29074219 18.3040625 20.64007813 19 21 C16 22 16 22 13.22265625 20.92578125 C12.17980469 20.39339844 11.13695312 19.86101562 10.0625 19.3125 C9.02222656 18.79300781 7.98195313 18.27351563 6.91015625 17.73828125 C2.35843481 15.01946777 -0.67244164 11.77761978 -3 7 C-2.67 6.01 -2.34 5.02 -2 4 C-1.34 4 -0.68 4 0 4 C0 2.68 0 1.36 0 0 Z " fill="#A81923" transform="translate(17,97)"/>
<path d="M0 0 C0.99 0.33 1.98 0.66 3 1 C1.7934375 1.4021875 1.7934375 1.4021875 0.5625 1.8125 C-0.283125 2.204375 -1.12875 2.59625 -2 3 C-2.33 3.99 -2.66 4.98 -3 6 C-1.35 5.01 0.3 4.02 2 3 C1.67 5.64 1.34 8.28 1 11 C0.01 11 -0.98 11 -2 11 C-2 10.01 -2 9.02 -2 8 C-2.62648438 8.09539063 -3.25296875 8.19078125 -3.8984375 8.2890625 C-4.71570312 8.39992188 -5.53296875 8.51078125 -6.375 8.625 C-7.18710937 8.74101563 -7.99921875 8.85703125 -8.8359375 8.9765625 C-9.55007812 8.98429687 -10.26421875 8.99203125 -11 9 C-11.66 8.34 -12.32 7.68 -13 7 C-12.22076172 6.61908203 -12.22076172 6.61908203 -11.42578125 6.23046875 C-8.24170682 4.65903091 -5.17652747 3.11376215 -2.1875 1.1875 C-1.465625 0.795625 -0.74375 0.40375 0 0 Z " fill="#DB433E" transform="translate(50,27)"/>
<path d="M0 0 C1.2065625 0.0309375 1.2065625 0.0309375 2.4375 0.0625 C2.23253906 0.75214844 2.02757812 1.44179688 1.81640625 2.15234375 C0.09477143 8.1574719 -1.05217955 13.83659051 -1.5625 20.0625 C-2.2225 20.0625 -2.8825 20.0625 -3.5625 20.0625 C-3.59138514 16.91668577 -3.60925923 13.77090531 -3.625 10.625 C-3.63337891 9.72716797 -3.64175781 8.82933594 -3.65039062 7.90429688 C-3.65361328 7.05029297 -3.65683594 6.19628906 -3.66015625 5.31640625 C-3.66801147 4.13026733 -3.66801147 4.13026733 -3.67602539 2.92016602 C-3.49546255 -0.03446337 -2.96954506 0.07242793 0 0 Z " fill="#F8B2B0" transform="translate(56.5625,24.9375)"/>
<path d="M0 0 C0.33 0 0.66 0 1 0 C0.67 2.97 0.34 5.94 0 9 C-1.32 9.33 -2.64 9.66 -4 10 C-4.33 10.99 -4.66 11.98 -5 13 C-5.99 12.34 -6.98 11.68 -8 11 C-7.70100785 7.41209425 -7.23013399 6.21833224 -4.5625 3.6875 C-2 2 -2 2 0 2 C0 1.34 0 0.68 0 0 Z " fill="#AC0F19" transform="translate(144,78)"/>
<path d="M0 0 C0.33 0.66 0.66 1.32 1 2 C1.66 2.33 2.32 2.66 3 3 C0.5 4.5 0.5 4.5 -2 6 C-2.825 6.53625 -3.65 7.0725 -4.5 7.625 C-7.04805016 9.02642759 -9.13766876 9.59109554 -12 10 C-11.77734375 8.16796875 -11.77734375 8.16796875 -11 6 C-9.00390625 4.55078125 -9.00390625 4.55078125 -6.5625 3.3125 C-5.75941406 2.89613281 -4.95632812 2.47976562 -4.12890625 2.05078125 C-3.42636719 1.70402344 -2.72382812 1.35726563 -2 1 C-1.34 0.67 -0.68 0.34 0 0 Z " fill="#A8121C" transform="translate(52,22)"/>
<path d="M0 0 C1.43859375 0.11794922 1.43859375 0.11794922 2.90625 0.23828125 C5.5 0.6875 5.5 0.6875 8.5 2.6875 C5.89674384 3.04997871 3.29279598 3.40277655 0.6875 3.75 C-0.05048828 3.85376953 -0.78847656 3.95753906 -1.54882812 4.06445312 C-4.93174779 4.50836566 -7.22055025 4.78064992 -10.5 3.6875 C-7.50880777 -0.79928835 -5.01343843 -0.451479 0 0 Z " fill="#F7C5C5" transform="translate(101.5,79.3125)"/>
<path d="M0 0 C5.70709064 0.46588495 9.15939723 1.93757784 14 5 C14 6.32 14 7.64 14 9 C9.80639551 8.32902328 6.59665648 6.1441606 3 4 C3 3.34 3 2.68 3 2 C2.01 1.67 1.02 1.34 0 1 C0 0.67 0 0.34 0 0 Z " fill="#F7ACA9" transform="translate(133,67)"/>
<path d="M0 0 C2.64 0.66 5.28 1.32 8 2 C8 2.66 8 3.32 8 4 C9.32 4.66 10.64 5.32 12 6 C7.06219968 7.19317667 3.91046117 6.6739308 -0.875 5.0625 C-2.02742188 4.68222656 -3.17984375 4.30195312 -4.3671875 3.91015625 C-5.67042969 3.45962891 -5.67042969 3.45962891 -7 3 C-3.28125 1.8828125 -3.28125 1.8828125 -0.75 2.9375 C-0.1725 3.288125 0.405 3.63875 1 4 C0.67 2.68 0.34 1.36 0 0 Z " fill="#AF2129" transform="translate(43,117)"/>
<path d="M0 0 C3.33333333 1.66666667 6.66666667 3.33333333 10 5 C7 6 7 6 3 6 C3 8.31 3 10.62 3 13 C0.15673536 13.23053497 -1.46145349 13.35903101 -3.875 11.75 C-5 10 -5 10 -4.6875 7.8125 C-4.3471875 6.9153125 -4.3471875 6.9153125 -4 6 C-3.566875 6.804375 -3.13375 7.60875 -2.6875 8.4375 C-1.19525998 11.27846354 -1.19525998 11.27846354 2 12 C1.67 10.7625 1.34 9.525 1 8.25 C0.20108841 5.25408155 0 3.19892281 0 0 Z " fill="#DA5855" transform="translate(47,85)"/>
<path d="M0 0 C1.32 0.33 2.64 0.66 4 1 C4 4.33333333 4 7.66666667 4 11 C4.66 11 5.32 11 6 11 C6 12.32 6 13.64 6 15 C6.66 15 7.32 15 8 15 C8 15.66 8 16.32 8 17 C5.6875 16.5 5.6875 16.5 3 15 C0.13413865 10.21983283 -0.34079186 5.45266978 0 0 Z " fill="#F7C3C2" transform="translate(81,67)"/>
<path d="M0 0 C0.33 0 0.66 0 1 0 C1 5.28 1 10.56 1 16 C-0.98 16.99 -0.98 16.99 -3 18 C-2.57045059 11.74892565 -1.98598493 5.95795479 0 0 Z " fill="#E98C87" transform="translate(147,82)"/>
<path d="M0 0 C0.83815126 3.11501885 1.08081083 5.76756671 1 9 C1 10.32 1 11.64 1 13 C0.01 13 -0.98 13 -2 13 C-2.33 15.31 -2.66 17.62 -3 20 C-3.33 20 -3.66 20 -4 20 C-4.4946164 12.45709983 -2.90617391 6.941085 0 0 Z " fill="#DB5B56" transform="translate(117,35)"/>
<path d="M0 0 C0.99 0 1.98 0 3 0 C3 4.95 3 9.9 3 15 C2.34 15 1.68 15 1 15 C-0.00109515 11.68929162 -0.10356134 8.69915231 -0.0625 5.25 C-0.05347656 4.26515625 -0.04445312 3.2803125 -0.03515625 2.265625 C-0.02355469 1.51796875 -0.01195312 0.7703125 0 0 Z " fill="#F8B3B1" transform="translate(34,36)"/>
<path d="M0 0 C2.31 0.66 4.62 1.32 7 2 C7 2.66 7 3.32 7 4 C7.99 4.33 8.98 4.66 10 5 C10 5.33 10 5.66 10 6 C3.375 6.125 3.375 6.125 0 5 C-0.75 3 -0.75 3 -1 1 C-0.67 0.67 -0.34 0.34 0 0 Z " fill="#F8BDBB" transform="translate(53,84)"/>
<path d="M0 0 C0 3 0 3 -2 6 C-1.34 6 -0.68 6 0 6 C-0.3125 8.375 -0.3125 8.375 -1 11 C-1.99 11.66 -2.98 12.32 -4 13 C-5.19232613 15.05003955 -5.19232613 15.05003955 -6 17 C-7.23516383 13.29450851 -6.58673093 12.10336164 -5.25 8.5 C-4.90453125 7.5409375 -4.5590625 6.581875 -4.203125 5.59375 C-3.05890554 3.12699117 -2.0493435 1.74311976 0 0 Z " fill="#AC1B24" transform="translate(16,46)"/>
<path d="M0 0 C3.01217112 0.64449607 5.51655836 1.65022182 8.25 3.0625 C8.95640625 3.42472656 9.6628125 3.78695313 10.390625 4.16015625 C10.92171875 4.43730469 11.4528125 4.71445312 12 5 C11.67 5.99 11.34 6.98 11 8 C8.03 7.01 5.06 6.02 2 5 C2 3.68 2 2.36 2 1 C1.34 0.67 0.68 0.34 0 0 Z " fill="#A90E19" transform="translate(145,25)"/>
<path d="M0 0 C1.75 0.0625 1.75 0.0625 4 1 C5.59501537 3.24164322 6.74543018 5.53566643 8 8 C6.02 8 4.04 8 2 8 C0.74335022 5.09399739 0 3.20395416 0 0 Z " fill="#F8C3C2" transform="translate(68,94)"/>
<path d="M0 0 C1 3 1 3 -0.109375 5.41015625 C-0.92148438 6.72306641 -0.92148438 6.72306641 -1.75 8.0625 C-2.28109375 8.94035156 -2.8121875 9.81820312 -3.359375 10.72265625 C-5 13 -5 13 -8 15 C-8 14.01 -8 13.02 -8 12 C-8.66 11.67 -9.32 11.34 -10 11 C-9.01 11 -8.02 11 -7 11 C-7 10.34 -7 9.68 -7 9 C-6.34 9 -5.68 9 -5 9 C-5 8.34 -5 7.68 -5 7 C-4.34 6.67 -3.68 6.34 -3 6 C-1.95191959 4.02477154 -0.9479589 2.02518491 0 0 Z " fill="#B1282F" transform="translate(173,76)"/>
<path d="M0 0 C-0.33 5.94 -0.66 11.88 -1 18 C-1.33 18 -1.66 18 -2 18 C-2 13.05 -2 8.1 -2 3 C-3.98 3.99 -3.98 3.99 -6 5 C-5.6875 3.0625 -5.6875 3.0625 -5 1 C-2 0 -2 0 0 0 Z " fill="#DB504C" transform="translate(53,28)"/>
<path d="M0 0 C6.875 0.875 6.875 0.875 8 2 C8.14115161 4.67058851 8.04247107 7.32432238 8 10 C7.4225 9.2575 6.845 8.515 6.25 7.75 C4.08291977 5.00829198 4.08291977 5.00829198 1.75 2.75 C1.1725 2.1725 0.595 1.595 0 1 C0 0.67 0 0.34 0 0 Z " fill="#F7AFAC" transform="translate(110,15)"/>
<path d="M0 0 C2.64 0.66 5.28 1.32 8 2 C7.01 2.66 6.02 3.32 5 4 C5 4.66 5 5.32 5 6 C2.98177083 5.96744792 0.96354167 5.93489583 -1.0546875 5.90234375 C-3.08185404 5.87350758 -3.08185404 5.87350758 -5 7 C-5.33 6.01 -5.66 5.02 -6 4 C-4.35 3.67 -2.7 3.34 -1 3 C-0.67 2.01 -0.34 1.02 0 0 Z " fill="#AD1C26" transform="translate(44,97)"/>
<path d="M0 0 C0.33 0 0.66 0 1 0 C1.33 2.64 1.66 5.28 2 8 C1.34 8 0.68 8 0 8 C0.350625 8.598125 0.70125 9.19625 1.0625 9.8125 C2 12 2 12 1 15 C-1.64964989 10.47351478 -2.50442453 7.24601514 -2 2 C-1.34 1.34 -0.68 0.68 0 0 Z " fill="#F5ACA8" transform="translate(109,43)"/>
<path d="M0 0 C2.4375 1.1875 2.4375 1.1875 5 3 C5.8125 5.6875 5.8125 5.6875 6 8 C5.01 7.67 4.02 7.34 3 7 C3.33 7.99 3.66 8.98 4 10 C3.34 10 2.68 10 2 10 C0.61061923 8.03852126 -0.7260411 6.03833424 -2 4 C-0.35 4 1.3 4 3 4 C2.01 3.34 1.02 2.68 0 2 C0 1.34 0 0.68 0 0 Z " fill="#B21F27" transform="translate(165,35)"/>
<path d="M0 0 C4.55737263 0.43820891 7.57653445 0.85041169 11 4 C9.02 4 7.04 4 5 4 C5 4.66 5 5.32 5 6 C2.69 5.34 0.38 4.68 -2 4 C-1.01 3.34 -0.02 2.68 1 2 C0.67 1.34 0.34 0.68 0 0 Z " fill="#AC242C" transform="translate(116,12)"/>
<path d="M0 0 C-0.66 0 -1.32 0 -2 0 C-2 0.66 -2 1.32 -2 2 C0.31 2.33 2.62 2.66 5 3 C1.36576791 5.32590854 -1.77088331 5.16265833 -6 5 C-5.01 4.67 -4.02 4.34 -3 4 C-3 3.34 -3 2.68 -3 2 C-5.31 2 -7.62 2 -10 2 C-3.72972973 -1.24324324 -3.72972973 -1.24324324 0 0 Z " fill="#B71720" transform="translate(116,103)"/>
<path d="M0 0 C1.8272911 2.74093665 2.93698178 5.13825324 4.125 8.1875 C4.47820313 9.08855469 4.83140625 9.98960938 5.1953125 10.91796875 C5.46085937 11.60503906 5.72640625 12.29210937 6 13 C2.73988358 12.30621489 1.20961747 11.54106009 -1 9 C-0.67 8.67 -0.34 8.34 0 8 C0.07148199 6.64756083 0.08399454 5.29165633 0.0625 3.9375 C0.041875 2.638125 0.02125 1.33875 0 0 Z " fill="#F6B2AF" transform="translate(40,63)"/>
<path d="M0 0 C1.60463449 0.31008884 3.20869231 0.62316287 4.8125 0.9375 C5.70582031 1.11152344 6.59914063 1.28554688 7.51953125 1.46484375 C10 2 10 2 13 3 C13 3.66 13 4.32 13 5 C7.30702655 5.45543788 4.45738181 4.58764877 0 1 C0 0.67 0 0.34 0 0 Z " fill="#FBBFBE" transform="translate(61,54)"/>
<path d="M0 0 C2.64 1.32 5.28 2.64 8 4 C8 4.33 8 4.66 8 5 C1.50149789 4.48446121 -4.66226532 3.53332291 -11 2 C-11 1.67 -11 1.34 -11 1 C-9.741875 0.979375 -8.48375 0.95875 -7.1875 0.9375 C-6.47980469 0.92589844 -5.77210937 0.91429688 -5.04296875 0.90234375 C-3 1 -3 1 0 2 C0 1.34 0 0.68 0 0 Z " fill="#B42A31" transform="translate(71,125)"/>
<path d="M0 0 C1.98 0.66 3.96 1.32 6 2 C6 5.96 6 9.92 6 14 C5.67 14 5.34 14 5 14 C4.67 10.7 4.34 7.4 4 4 C0.88214887 4.64644661 0.88214887 4.64644661 0 7 C0 4.69 0 2.38 0 0 Z " fill="#DB716D" transform="translate(17,90)"/>
<path d="M0 0 C0.66 0.33 1.32 0.66 2 1 C-0.09391089 4.14086633 -1.80279702 5.06487675 -5.046875 6.81640625 C-8.35191292 8.81925923 -11.15229797 11.40331122 -14 14 C-12.51167917 10.41194006 -10.48442067 8.39869503 -7.5625 5.875 C-6.78003906 5.19179688 -5.99757813 4.50859375 -5.19140625 3.8046875 C-3 2 -3 2 0 0 Z " fill="#BD3136" transform="translate(31,32)"/>
<path d="M0 0 C4.34863652 0.56444825 7.17827655 2.15427964 10.8125 4.5625 C12.27623047 5.52349609 12.27623047 5.52349609 13.76953125 6.50390625 C14.50558594 6.99761719 15.24164063 7.49132812 16 8 C15.01 8.495 15.01 8.495 14 9 C11.73086566 7.97018481 9.60824938 6.8955489 7.4375 5.6875 C6.83486328 5.36587891 6.23222656 5.04425781 5.61132812 4.71289062 C1.1324083 2.2648166 1.1324083 2.2648166 0 0 Z " fill="#BB3136" transform="translate(147,24)"/>
<path d="M0 0 C0.99 0 1.98 0 3 0 C3 0.66 3 1.32 3 2 C3.55171875 2.11214844 4.1034375 2.22429687 4.671875 2.33984375 C7.40065211 3.11360773 9.72772943 4.26817694 12.25 5.5625 C13.14203125 6.01753906 14.0340625 6.47257812 14.953125 6.94140625 C15.96632813 7.46541016 15.96632813 7.46541016 17 8 C14 9 14 9 11.15234375 7.890625 C10.09144531 7.34921875 9.03054687 6.8078125 7.9375 6.25 C6.87402344 5.71890625 5.81054688 5.1878125 4.71484375 4.640625 C2 3 2 3 0 0 Z " fill="#BF3338" transform="translate(19,110)"/>
<path d="M0 0 C0.66 0 1.32 0 2 0 C1.125 4.75 1.125 4.75 0 7 C-0.66 7 -1.32 7 -2 7 C-2 7.66 -2 8.32 -2 9 C-3.32 9.33 -4.64 9.66 -6 10 C-6 7 -6 7 -4.625 5.3125 C-3 4 -3 4 -1 4 C-0.67 2.68 -0.34 1.36 0 0 Z " fill="#B10F1B" transform="translate(168,78)"/>
<path d="M0 0 C4.54805635 -0.17835515 7.8794254 0.00214565 12 2 C11.34 2.66 10.68 3.32 10 4 C6.46782421 3.67889311 3.36550494 3.12183498 0 2 C0 1.34 0 0.68 0 0 Z " fill="#9E0E19" transform="translate(107,11)"/>
<path d="M0 0 C0.66 0.33 1.32 0.66 2 1 C-2.455 2.485 -2.455 2.485 -7 4 C-7 4.66 -7 5.32 -7 6 C-8.65 6 -10.3 6 -12 6 C-12.33 6.66 -12.66 7.32 -13 8 C-13.66 7.34 -14.32 6.68 -15 6 C-13.06305322 5.18618205 -11.12542289 4.37399084 -9.1875 3.5625 C-8.10855469 3.11003906 -7.02960938 2.65757813 -5.91796875 2.19140625 C-3.9704874 1.39624987 -1.99561057 0.66520352 0 0 Z " fill="#B62D34" transform="translate(73,12)"/>
<path d="M0 0 C6.93 0.495 6.93 0.495 14 1 C14 1.33 14 1.66 14 2 C11.36 2 8.72 2 6 2 C5.67 2.66 5.34 3.32 5 4 C2.03 3.505 2.03 3.505 -1 3 C-0.67 2.01 -0.34 1.02 0 0 Z " fill="#A50A14" transform="translate(77,105)"/>
<path d="M0 0 C5.22321429 4.82142857 5.22321429 4.82142857 6 9 C4.5199159 8.88637738 3.04089926 8.75877092 1.5625 8.625 C0.73878906 8.55539063 -0.08492188 8.48578125 -0.93359375 8.4140625 C-1.61550781 8.27742188 -2.29742187 8.14078125 -3 8 C-3.33 7.34 -3.66 6.68 -4 6 C-1.69 6 0.62 6 3 6 C2.2575 5.071875 2.2575 5.071875 1.5 4.125 C0 2 0 2 0 0 Z " fill="#F29E9A" transform="translate(72,95)"/>
<path d="M0 0 C2.96175123 0.61277612 4.38058783 1.25372522 7 3 C7 3.99 7 4.98 7 6 C4.03 5.505 4.03 5.505 1 5 C0.67 3.35 0.34 1.7 0 0 Z " fill="#F6AAA7" transform="translate(129,81)"/>
<path d="M0 0 C0.66 0 1.32 0 2 0 C2.33 0.99 2.66 1.98 3 3 C1.68 3.99 0.36 4.98 -1 6 C-5.455 4.02 -5.455 4.02 -10 2 C-5.70600835 0.92650209 -4.80504787 1.20317184 -1 3 C-0.67 2.01 -0.34 1.02 0 0 Z " fill="#E05753" transform="translate(136,78)"/>
<path d="M0 0 C1.70840281 1.63412443 2.93453047 2.86906094 4 5 C4.99 5.33 5.98 5.66 7 6 C6.67 4.02 6.34 2.04 6 0 C8 2 8 2 8.125 4.625 C8.08375 5.40875 8.0425 6.1925 8 7 C3.52599758 7.36275695 3.52599758 7.36275695 1.1875 5.75 C0 4 0 4 0 0 Z " fill="#E5827F" transform="translate(42,91)"/>
<path d="M0 0 C0.625 1.8125 0.625 1.8125 1 4 C0.01 5.485 0.01 5.485 -1 7 C-2.32 6.67 -3.64 6.34 -5 6 C-3.63016497 2.83884224 -3.0109362 2.0072908 0 0 Z " fill="#FBB6B3" transform="translate(25,79)"/>
<path d="M0 0 C4.875 4.75 4.875 4.75 6 7 C3.125 6.6875 3.125 6.6875 0 6 C-0.66 5.01 -1.32 4.02 -2 3 C-1.34 3 -0.68 3 0 3 C0 2.01 0 1.02 0 0 Z " fill="#F29B97" transform="translate(113,55)"/>
<path d="M0 0 C0.66 0.99 1.32 1.98 2 3 C1.01 3.495 1.01 3.495 0 4 C0 4.99 0 5.98 0 7 C-2.62187494 5.95125002 -3.79371361 5.35068687 -5.25 2.875 C-5.4975 2.25625 -5.745 1.6375 -6 1 C-4.68 1 -3.36 1 -2 1 C-1.34 0.67 -0.68 0.34 0 0 Z " fill="#DE514D" transform="translate(120,54)"/>
<path d="M0 0 C1.8871875 0.0309375 1.8871875 0.0309375 3.8125 0.0625 C3.8125 0.7225 3.8125 1.3825 3.8125 2.0625 C-3.8125 3.3125 -3.8125 3.3125 -7.1875 1.0625 C-4.43671116 0.14557039 -2.82801087 -0.04636083 0 0 Z " fill="#DB3F3F" transform="translate(87.1875,13.9375)"/>
<path d="M0 0 C0 1.32 0 2.64 0 4 C1.32 4.33 2.64 4.66 4 5 C-0.37934119 4.48041715 -4.68803391 3.94324258 -9 3 C-9 2.67 -9 2.34 -9 2 C-2.25 0 -2.25 0 0 0 Z " fill="#D43A39" transform="translate(65,98)"/>
<path d="M0 0 C0.99 0.33 1.98 0.66 3 1 C3.125 3.875 3.125 3.875 3 7 C2.34 7.66 1.68 8.32 1 9 C0 8 0 8 -0.09765625 6.15234375 C-0.06510417 4.1015625 -0.03255208 2.05078125 0 0 Z " fill="#CE5656" transform="translate(136,91)"/>
<path d="M0 0 C4.95 0.33 9.9 0.66 15 1 C14.01 1.33 13.02 1.66 12 2 C12 2.66 12 3.32 12 4 C6.06 2.515 6.06 2.515 0 1 C0 0.67 0 0.34 0 0 Z " fill="#D13C3B" transform="translate(98,13)"/>
<path d="M0 0 C2.31 1.98 4.62 3.96 7 6 C6.01 7.485 6.01 7.485 5 9 C2.28404014 5.8459821 1.03153759 4.12615036 0 0 Z " fill="#DC5B57" transform="translate(55,51)"/>
<path d="M0 0 C0.66 0 1.32 0 2 0 C2.125 2.875 2.125 2.875 2 6 C1.34 6.66 0.68 7.32 0 8 C-0.33 7.34 -0.66 6.68 -1 6 C-1.99 6.495 -1.99 6.495 -3 7 C-1.125 2.25 -1.125 2.25 0 0 Z " fill="#F19C98" transform="translate(115,32)"/>
<path d="M0 0 C0.99 0.33 1.98 0.66 3 1 C3 2.32 3 3.64 3 5 C2.01 5.33 1.02 5.66 0 6 C-0.66 5.67 -1.32 5.34 -2 5 C-2 3.68 -2 2.36 -2 1 C-1.34 0.67 -0.68 0.34 0 0 Z " fill="#B12029" transform="translate(55,19)"/>
<path d="M0 0 C3.63 0.33 7.26 0.66 11 1 C10.67 1.99 10.34 2.98 10 4 C6.44219804 3.39009109 3.3171411 2.4216319 0 1 C0 0.67 0 0.34 0 0 Z " fill="#AF222B" transform="translate(69,103)"/>
<path d="M0 0 C3 2 3 2 3.6875 5.125 C3.8421875 6.548125 3.8421875 6.548125 4 8 C3.01 8 2.02 8 1 8 C0.67 5.36 0.34 2.72 0 0 Z " fill="#E16965" transform="translate(64,94)"/>
<path d="M0 0 C3 2 3 2 3.6875 4.125 C3.790625 4.74375 3.89375 5.3625 4 6 C-0.75 5.25 -0.75 5.25 -3 3 C-2.01 2.01 -1.02 1.02 0 0 Z " fill="#D8423E" transform="translate(39,90)"/>
<path d="M0 0 C0 3 0 3 -1.53125 4.60546875 C-2.1809375 5.12753906 -2.830625 5.64960937 -3.5 6.1875 C-4.1496875 6.71730469 -4.799375 7.24710937 -5.46875 7.79296875 C-5.9740625 8.19128906 -6.479375 8.58960937 -7 9 C-7 8.01 -7 7.02 -7 6 C-6.34 6 -5.68 6 -5 6 C-4.67 5.01 -4.34 4.02 -4 3 C-1.9375 1.3125 -1.9375 1.3125 0 0 Z " fill="#BF3338" transform="translate(143,107)"/>
<path d="M0 0 C1.98 0.99 3.96 1.98 6 3 C4.68 3.33 3.36 3.66 2 4 C2 4.99 2 5.98 2 7 C0.68 6.34 -0.64 5.68 -2 5 C-1.34 4.67 -0.68 4.34 0 4 C0 2.68 0 1.36 0 0 Z " fill="#F1A4A1" transform="translate(51,81)"/>
<path d="M0 0 C0.33 0.66 0.66 1.32 1 2 C0.06421005 4.35981813 -0.93347808 6.69631264 -2 9 C-3.32 8.34 -4.64 7.68 -6 7 C-4.02 4.69 -2.04 2.38 0 0 Z " fill="#F29E9B" transform="translate(29,72)"/>
<path d="M0 0 C2.97 0.33 5.94 0.66 9 1 C8.34 1.66 7.68 2.32 7 3 C7.66 3.66 8.32 4.32 9 5 C5.12867972 4.42647107 2.91827204 2.51295648 0 0 Z " fill="#EC8E8A" transform="translate(127,65)"/>
<path d="M0 0 C6.75 -0.125 6.75 -0.125 9 1 C9 1.66 9 2.32 9 3 C2.25 2.25 2.25 2.25 0 0 Z " fill="#DA534E" transform="translate(127,63)"/>
<path d="M0 0 C0.99 0.495 0.99 0.495 2 1 C2 1.66 2 2.32 2 3 C3.32 3.66 4.64 4.32 6 5 C5.67 6.32 5.34 7.64 5 9 C4.16094435 7.87926138 3.32892169 6.75325453 2.5 5.625 C2.0359375 4.99851562 1.571875 4.37203125 1.09375 3.7265625 C0 2 0 2 0 0 Z " fill="#DB6562" transform="translate(110,16)"/>
<path d="M0 0 C2.3431213 0.25561323 4.67843403 0.59270772 7 1 C7.33 1.66 7.66 2.32 8 3 C5.03 3 2.06 3 -1 3 C-0.67 2.01 -0.34 1.02 0 0 Z " fill="#AF0E1A" transform="translate(68,105)"/>
<path d="M0 0 C0.99 0 1.98 0 3 0 C3.99 1.98 4.98 3.96 6 6 C4.68 6 3.36 6 2 6 C1.34 4.02 0.68 2.04 0 0 Z " fill="#A50A13" transform="translate(25,91)"/>
<path d="M0 0 C2.12038635 2.61514317 4.13091744 5.19637616 6 8 C4.68 8 3.36 8 2 8 C2 6.68 2 5.36 2 4 C1.34 4 0.68 4 0 4 C0 2.68 0 1.36 0 0 Z " fill="#F5A6A2" transform="translate(85,68)"/>
<path d="M0 0 C2 3 2 3 1.625 5.6875 C1.41875 6.450625 1.2125 7.21375 1 8 C-0.5 6.625 -0.5 6.625 -2 5 C-2 4.34 -2 3.68 -2 3 C-1.34 3 -0.68 3 0 3 C0 2.01 0 1.02 0 0 Z " fill="#E25855" transform="translate(87,63)"/>
<path d="M0 0 C0.33 0.99 0.66 1.98 1 3 C3.00016466 4.20882096 3.00016466 4.20882096 5 5 C5 5.66 5 6.32 5 7 C1.125 6.125 1.125 6.125 0 5 C-0.04063832 3.33382885 -0.042721 1.66611905 0 0 Z " fill="#FAB9B6" transform="translate(55,46)"/>
<path d="M0 0 C0.33 0 0.66 0 1 0 C1 2.97 1 5.94 1 9 C0.34 7.68 -0.32 6.36 -1 5 C-1.66 4.67 -2.32 4.34 -3 4 C-2.02727325 2.64664105 -1.0260734 1.31337396 0 0 Z " fill="#DA544F" transform="translate(33,37)"/>
</svg>
