<?xml version="1.0" encoding="UTF-8"?>
<svg version="1.1" xmlns="http://www.w3.org/2000/svg" width="120" height="184">
<path d="M0 0 C1.25296875 -0.00193359 1.25296875 -0.00193359 2.53125 -0.00390625 C3.82675781 0.00189453 3.82675781 0.00189453 5.1484375 0.0078125 C6.01984375 0.00394531 6.89125 0.00007812 7.7890625 -0.00390625 C8.62179688 -0.00261719 9.45453125 -0.00132813 10.3125 0 C11.45259521 0.00169189 11.45259521 0.00169189 12.61572266 0.00341797 C14.5234375 0.1328125 14.5234375 0.1328125 16.5234375 1.1328125 C17.43224655 3.85923964 17.63785327 5.36196796 17.60522461 8.15429688 C17.5986937 8.95943726 17.59216278 9.76457764 17.58543396 10.59411621 C17.57399857 11.46282349 17.56256317 12.33153076 17.55078125 13.2265625 C17.53812077 15.0807272 17.52576089 16.93489398 17.51367188 18.7890625 C17.48900208 21.70058719 17.46117829 24.61200269 17.42749023 27.5234375 C16.64849031 42.58159371 16.64849031 42.58159371 19.5234375 57.1328125 C21.19093667 58.73179109 22.7747674 59.81170219 24.7734375 60.9609375 C28.33305807 63.34461199 29.99616367 67.21719419 31.1149292 71.28173828 C31.68748657 75.27774899 31.67928704 79.21786409 31.68457031 83.25 C31.69201767 84.61430145 31.69201767 84.61430145 31.69961548 86.00616455 C31.71418866 89.00672162 31.72102961 92.0072259 31.7265625 95.0078125 C31.73231619 97.09619142 31.7380739 99.18457032 31.74383545 101.27294922 C31.75433042 105.64746344 31.76018351 110.02195935 31.76367188 114.39648438 C31.76916557 120.00208956 31.79321868 125.60745296 31.82164383 131.21298218 C31.84026054 135.52466544 31.84547521 139.8362902 31.84700775 144.14801025 C31.85003497 146.2148776 31.85806583 148.2817439 31.87119293 150.34857178 C31.88823945 153.23777776 31.88637699 156.1263892 31.87988281 159.015625 C31.89370499 160.29533173 31.89370499 160.29533173 31.9078064 161.60089111 C31.87514137 166.23790689 31.63431476 169.4323335 28.5234375 173.1328125 C25.82456342 174.93988841 23.69149451 175.38589973 20.47680664 175.4074707 C19.69241714 175.41700272 18.90802765 175.42653473 18.09986877 175.43635559 C17.26124802 175.43544418 16.42262726 175.43453278 15.55859375 175.43359375 C14.68827011 175.43787888 13.81794647 175.442164 12.92124939 175.44657898 C11.08300648 175.45231451 9.24474087 175.45282826 7.40649414 175.44848633 C4.59937685 175.44532762 1.79331509 175.46879037 -1.01367188 175.49414062 C-2.80208201 175.49641388 -4.59049497 175.49711699 -6.37890625 175.49609375 C-7.21550278 175.5053035 -8.0520993 175.51451324 -8.91404724 175.52400208 C-13.58568856 175.48705333 -16.70137035 175.18909118 -20.4765625 172.1328125 C-26.27458546 163.43577805 -23.58383605 146.7733671 -23.49609375 136.55078125 C-23.48913671 135.6349206 -23.48217968 134.71905994 -23.47501183 133.77544594 C-23.4378996 128.9420991 -23.39403737 124.10886944 -23.34448242 119.27563477 C-23.29487157 114.30515866 -23.26885454 109.33484499 -23.24805164 104.36417675 C-23.2276521 100.51631813 -23.18977333 96.66877139 -23.147192 92.82110023 C-23.12992709 90.98843654 -23.11917424 89.1556988 -23.11524391 87.32295799 C-23.1081288 84.76055501 -23.07614084 82.19956073 -23.03833008 79.63745117 C-23.0417894 78.89182419 -23.04524872 78.1461972 -23.04881287 77.37797546 C-22.93017608 71.91337074 -21.4482209 67.73161881 -18.4765625 63.1328125 C-16.37109375 61.1796875 -16.37109375 61.1796875 -14.2890625 59.8828125 C-11.40903972 58.17898413 -11.40903972 58.17898413 -9.88270569 55.3706665 C-9.4251167 52.8493455 -9.31478385 50.46812605 -9.27124023 47.90527344 C-9.25129501 46.86449646 -9.23134979 45.82371948 -9.21080017 44.75140381 C-9.18573143 43.07621674 -9.18573143 43.07621674 -9.16015625 41.3671875 C-9.1289846 39.64438568 -9.1289846 39.64438568 -9.09718323 37.88677979 C-9.03181257 34.21885139 -8.97286056 30.55085157 -8.9140625 26.8828125 C-8.87086543 24.39582596 -8.82725075 21.90884663 -8.78320312 19.421875 C-8.67614392 13.32559628 -8.57435425 7.22924655 -8.4765625 1.1328125 C-5.56219349 0.36395026 -3.01989613 0.00446825 0 0 Z " fill="#053419" transform="translate(28.4765625,1.8671875)"/>
<path d="M0 0 C2.64883913 2.92172778 1.94633504 5.76438189 1.82348633 9.54345703 C1.42051048 15.34112367 0.71994599 21.0730029 -0.08789062 26.8269043 C-0.23677734 28.02895508 -0.38566406 29.23100586 -0.5390625 30.46948242 C-1.8517482 39.90537611 -3.85932996 48.27275604 -11.58789062 54.3894043 C-15.01917516 56.7644043 -15.01917516 56.7644043 -17.40039062 56.7644043 C-17.54476562 57.4037793 -17.68914062 58.0431543 -17.83789062 58.7019043 C-18.40039062 60.7644043 -18.40039062 60.7644043 -19.40039062 61.7644043 C-19.63566835 64.11427692 -19.81425479 66.46996468 -19.96289062 68.8269043 C-20.04667969 70.11725586 -20.13046875 71.40760742 -20.21679688 72.73706055 C-20.30767578 74.2355957 -20.30767578 74.2355957 -20.40039062 75.7644043 C-19.74039063 75.7644043 -19.08039063 75.7644043 -18.40039062 75.7644043 C-18.19414063 76.8369043 -17.98789063 77.9094043 -17.77539062 79.0144043 C-16.11439264 83.5443988 -14.357061 84.23887001 -10.40039062 86.7644043 C-9.27539062 89.2644043 -9.27539062 89.2644043 -9.40039062 91.7644043 C-13.07103097 96.35270472 -16.62840616 96.80868483 -22.22460938 97.58081055 C-28.1234201 97.92182421 -33.08405524 96.69093845 -38.52539062 94.5144043 C-40.40039062 92.7644043 -40.40039062 92.7644043 -40.96289062 89.7644043 C-40.40039062 86.7644043 -40.40039062 86.7644043 -38.90039062 84.9519043 C-36.47945221 83.80195855 -34.86962513 83.48101666 -32.24414062 83.19018555 C-30.97570312 83.04967773 -29.70726562 82.90916992 -28.40039062 82.7644043 C-28.51110758 79.55541288 -28.64153376 76.3475072 -28.77539062 73.1394043 C-28.82179688 71.78395508 -28.82179688 71.78395508 -28.86914062 70.40112305 C-29.15075895 63.37033816 -29.15075895 63.37033816 -31.40039062 56.7644043 C-33.42203816 55.31356404 -33.42203816 55.31356404 -35.83789062 54.5769043 C-39.05352182 53.41673423 -41.22798762 52.46768392 -43.40039062 49.7644043 C-43.40039062 49.1044043 -43.40039062 48.4444043 -43.40039062 47.7644043 C-44.06039062 47.7644043 -44.72039062 47.7644043 -45.40039062 47.7644043 C-48.35047711 39.95721113 -50.97325902 32.98594005 -50.50585938 24.5222168 C-50.38281437 21.30481775 -50.65996702 18.21882507 -50.96289062 15.0144043 C-51.69124883 5.40918042 -51.69124883 5.40918042 -50.40039062 1.7644043 C-45.60482166 -2.78711536 -39.75465944 -4.22863507 -33.40039062 -5.2355957 C-32.28664063 -5.4624707 -31.17289063 -5.6893457 -30.02539062 -5.9230957 C-20.42606192 -6.75062404 -8.10761586 -5.72638065 0 0 Z " fill="#B3D9E6" transform="translate(114.400390625,80.235595703125)"/>
<path d="M0 0 C0.33 0 0.66 0 1 0 C2.19567468 4.71060372 2.15481025 9.2918793 2.16113281 14.1171875 C2.16858017 15.48148895 2.16858017 15.48148895 2.17617798 16.87335205 C2.19075116 19.87390912 2.19759211 22.8744134 2.203125 25.875 C2.20887869 27.96337892 2.2146364 30.05175782 2.22039795 32.14013672 C2.23089292 36.51465094 2.23674601 40.88914685 2.24023438 45.26367188 C2.24572807 50.86927706 2.26978118 56.47464046 2.29820633 62.08016968 C2.31682304 66.39185294 2.32203771 70.7034777 2.32357025 75.01519775 C2.32659747 77.0820651 2.33462833 79.1489314 2.34775543 81.21575928 C2.36480195 84.10496526 2.36293949 86.9935767 2.35644531 89.8828125 C2.37026749 91.16251923 2.37026749 91.16251923 2.3843689 92.46807861 C2.35170387 97.10509439 2.11087726 100.299521 -1 104 C-3.69887408 105.80707591 -5.83194299 106.25308723 -9.04663086 106.2746582 C-9.83102036 106.28419022 -10.61540985 106.29372223 -11.42356873 106.30354309 C-12.26218948 106.30263168 -13.10081024 106.30172028 -13.96484375 106.30078125 C-14.83516739 106.30506638 -15.70549103 106.3093515 -16.60218811 106.31376648 C-18.44043102 106.31950201 -20.27869663 106.32001576 -22.11694336 106.31567383 C-24.92406065 106.31251512 -27.73012241 106.33597787 -30.53710938 106.36132812 C-32.32551951 106.36360138 -34.11393247 106.36430449 -35.90234375 106.36328125 C-36.73894028 106.372491 -37.5755368 106.38170074 -38.43748474 106.39118958 C-43.10912606 106.35424083 -46.22480785 106.05627868 -50 103 C-55.86880821 94.19678769 -53.03514303 77.44720796 -52.87890625 67.13671875 C-52.85454953 65.24958432 -52.83070896 63.36244316 -52.80735779 61.47529602 C-52.74506832 56.55164826 -52.67585101 51.62812234 -52.60510254 46.70458984 C-52.53391523 41.66314151 -52.4694018 36.62160803 -52.40429688 31.58007812 C-52.27599727 21.71995847 -52.14036563 11.85995476 -52 2 C-51.67 2 -51.34 2 -51 2 C-50.99413376 3.20634094 -50.98826752 4.41268188 -50.98222351 5.65557861 C-50.92505031 17.0153285 -50.85231699 28.37488595 -50.76428509 39.73443985 C-50.71952702 45.57473628 -50.68028281 51.41496207 -50.65356445 57.25537109 C-50.62758584 62.89000568 -50.5872219 68.52436921 -50.53681374 74.15883636 C-50.52010818 76.31021508 -50.50861694 78.46164071 -50.50238609 80.61307526 C-50.4927852 83.62287419 -50.46477371 86.63197387 -50.43237305 89.64160156 C-50.43380814 90.5342421 -50.43524323 91.42688263 -50.4367218 92.34657288 C-50.38231072 95.91233459 -50.33293242 98.35623639 -48.67785645 101.55651855 C-45.99520796 103.86443549 -43.06791564 103.49199572 -39.70703125 103.390625 C-39.00100266 103.38496521 -38.29497406 103.37930542 -37.56755066 103.37347412 C-35.31517374 103.35110411 -33.06439497 103.30091199 -30.8125 103.25 C-29.28452821 103.22993556 -27.75653144 103.21168468 -26.22851562 103.1953125 C-22.48506244 103.15123802 -18.74280205 103.08221074 -15 103 C-15.33 102.34 -15.66 101.68 -16 101 C-16.99 101.495 -16.99 101.495 -18 102 C-19.45066629 102.09539121 -20.90557726 102.1307348 -22.359375 102.1328125 C-23.22820313 102.13410156 -24.09703125 102.13539063 -24.9921875 102.13671875 C-25.90226562 102.13285156 -26.81234375 102.12898438 -27.75 102.125 C-28.64460938 102.12886719 -29.53921875 102.13273437 -30.4609375 102.13671875 C-35.11109098 102.12986012 -39.40866453 101.7940989 -44 101 C-44.99 101.495 -44.99 101.495 -46 102 C-46.495 99.03 -46.495 99.03 -47 96 C-46.34 96 -45.68 96 -45 96 C-45.226875 94.783125 -45.45375 93.56625 -45.6875 92.3125 C-46.20870979 88.33045717 -46.20870979 88.33045717 -44.5 85.625 C-41.88665583 81.05164771 -43.35278948 75.75618745 -44.52026367 70.78442383 C-45.09268682 67.46203907 -45.11200354 64.3208324 -45.09765625 60.94921875 C-45.0962413 60.29041214 -45.09482635 59.63160553 -45.09336853 58.95283508 C-45.087805 56.86434238 -45.07525947 54.77595989 -45.0625 52.6875 C-45.05748028 51.26497551 -45.0529182 49.84244934 -45.04882812 48.41992188 C-45.03784757 44.94657923 -45.02060835 41.47330039 -45 38 C-44.38511719 37.96261719 -43.77023438 37.92523438 -43.13671875 37.88671875 C-41.92435547 37.78810547 -41.92435547 37.78810547 -40.6875 37.6875 C-39.88699219 37.62949219 -39.08648437 37.57148437 -38.26171875 37.51171875 C-35.58973667 36.90717704 -34.87328489 35.91382259 -33 34 C-30.18872957 33.78285759 -27.6116655 33.71715724 -24.8125 33.8125 C-23.68811523 33.83280273 -23.68811523 33.83280273 -22.54101562 33.85351562 C-20.69370233 33.88881461 -18.84675934 33.94262083 -17 34 C-17 34.99 -17 35.98 -17 37 C-13.04 37 -9.08 37 -5 37 C-5.00523682 38.17095215 -5.01047363 39.3419043 -5.01586914 40.54833984 C-5.03393758 44.88313028 -5.04543879 49.21791737 -5.05493164 53.55273438 C-5.05996763 55.43066975 -5.06679671 57.3086012 -5.07543945 59.18652344 C-5.08753713 61.88217132 -5.09323557 64.57776747 -5.09765625 67.2734375 C-5.10281754 68.11619232 -5.10797882 68.95894714 -5.11329651 69.82723999 C-5.23367039 74.04731361 -5.23367039 74.04731361 -4 78 C-3.34 78 -2.68 78 -2 78 C-2 84.27 -2 90.54 -2 97 C-2.99 97.495 -2.99 97.495 -4 98 C-2.68 98.33 -1.36 98.66 0 99 C0 66.33 0 33.66 0 0 Z " fill="#355742" transform="translate(58,71)"/>
<path d="M0 0 C1.33849671 0.99307821 2.67151309 1.99357052 4 3 C6.32569275 3.38302582 8.65958767 3.72066921 11 4 C11.05875981 8.12493872 11.09384938 12.24976768 11.125 16.375 C11.15013672 18.10943359 11.15013672 18.10943359 11.17578125 19.87890625 C11.27439305 37.33319407 11.27439305 37.33319407 6.78125 42.6015625 C3.44620262 44.2784543 1.22092967 44.47063137 -2.5 44.375 C-3.6034375 44.36210937 -4.706875 44.34921875 -5.84375 44.3359375 C-10.09760585 43.88317562 -12.95605893 43.04394107 -16 40 C-16.125 36.875 -16.125 36.875 -16 34 C0.8929385 33.81548975 0.8929385 33.81548975 8 35 C7.67 33.68 7.34 32.36 7 31 C6.34 31 5.68 31 5 31 C5 31.66 5 32.32 5 33 C4.236875 32.814375 3.47375 32.62875 2.6875 32.4375 C-0.08967375 31.77180827 -0.08967375 31.77180827 -3 33 C-3 32.01 -3 31.02 -3 30 C-3.61875 30.350625 -4.2375 30.70125 -4.875 31.0625 C-5.926875 31.5265625 -5.926875 31.5265625 -7 32 C-7.66 31.67 -8.32 31.34 -9 31 C-9.33 31.66 -9.66 32.32 -10 33 C-10.99 32.67 -11.98 32.34 -13 32 C-14.32 32 -15.64 32 -17 32 C-17.92159579 25.78829926 -18.12177385 19.77390894 -18.0625 13.5 C-18.05798828 12.5821875 -18.05347656 11.664375 -18.04882812 10.71875 C-18.03716326 8.47909609 -18.02079614 6.23958455 -18 4 C-15.98583984 3.79044596 -13.97167969 3.58089193 -11.95751953 3.37133789 C-6.97869346 2.42686365 -5.76827131 -0.72103391 0 0 Z " fill="#E8DEA5" transform="translate(36,109)"/>
<path d="M0 0 C0.75990234 -0.00773437 1.51980469 -0.01546875 2.30273438 -0.0234375 C9.53137327 0.00125469 15.97473387 1.06466079 22.0625 5.25 C20.8269489 21.4097078 20.8269489 21.4097078 16.0625 27.25 C11.08915794 31.00327062 6.4702489 33.00336642 0.19921875 32.609375 C-5.2185965 31.69815196 -9.4008091 29.54455324 -12.9375 25.25 C-17.40429043 18.72161399 -18.89639502 12.09037696 -17.9375 4.25 C-13.25735121 -0.43014879 -6.22022455 -0.06298962 0 0 Z " fill="#902146" transform="translate(87.9375,100.75)"/>
<path d="M0 0 C1.25296875 -0.00193359 1.25296875 -0.00193359 2.53125 -0.00390625 C3.82675781 0.00189453 3.82675781 0.00189453 5.1484375 0.0078125 C6.01984375 0.00394531 6.89125 0.00007812 7.7890625 -0.00390625 C9.03816406 -0.00197266 9.03816406 -0.00197266 10.3125 0 C11.45259521 0.00169189 11.45259521 0.00169189 12.61572266 0.00341797 C14.5234375 0.1328125 14.5234375 0.1328125 16.5234375 1.1328125 C17.43224655 3.85923964 17.63785327 5.36196796 17.60522461 8.15429688 C17.5986937 8.95943726 17.59216278 9.76457764 17.58543396 10.59411621 C17.57399857 11.46282349 17.56256317 12.33153076 17.55078125 13.2265625 C17.53812077 15.0807272 17.52576089 16.93489398 17.51367188 18.7890625 C17.48900208 21.70058719 17.46117829 24.61200269 17.42749023 27.5234375 C16.04971657 45.01119646 16.04971657 45.01119646 22.1484375 60.3203125 C22.9321875 60.9184375 23.7159375 61.5165625 24.5234375 62.1328125 C21.42905482 61.21286089 19.81317121 60.49497964 17.7734375 57.9453125 C15.13239744 52.00297237 15.3903796 45.57986578 15.4609375 39.1953125 C15.4815625 36.5346875 15.5021875 33.8740625 15.5234375 31.1328125 C8.2634375 31.1328125 1.0034375 31.1328125 -6.4765625 31.1328125 C-6.4353125 33.3603125 -6.3940625 35.5878125 -6.3515625 37.8828125 C-6.28003004 52.05090423 -6.28003004 52.05090423 -8.4765625 58.1328125 C-10.5546875 59.45703125 -10.5546875 59.45703125 -12.4765625 60.1328125 C-11.9921167 59.226521 -11.5076709 58.32022949 -11.00854492 57.38647461 C-8.7599376 52.10690224 -8.99766537 46.73104736 -8.96484375 41.07421875 C-8.94689255 39.92992905 -8.92894135 38.78563934 -8.91044617 37.60667419 C-8.85647797 33.96959055 -8.82248981 30.33263716 -8.7890625 26.6953125 C-8.75587763 24.22198714 -8.72138689 21.74867893 -8.68554688 19.27539062 C-8.60075911 13.2279814 -8.53235216 7.18055504 -8.4765625 1.1328125 C-5.56219349 0.36395026 -3.01989613 0.00446825 0 0 Z " fill="#A96A76" transform="translate(28.4765625,1.8671875)"/>
<path d="M0 0 C0.763125 0.61875 1.52625 1.2375 2.3125 1.875 C2.125 4.1875 2.125 4.1875 1.3125 6.875 C-6.25703741 13.26179719 -18.45692384 12.65106229 -27.6875 11.875 C-40.03152852 9.53097148 -40.03152852 9.53097148 -42.6875 6.875 C-43.81504076 27.43477927 -43.81504076 27.43477927 -36.6875 45.875 C-32.24209999 50.09243077 -28.59919644 51.90443452 -22.6875 53.875 C-22.6875 63.115 -22.6875 72.355 -22.6875 81.875 C-25.9875 82.865 -29.2875 83.855 -32.6875 84.875 C-34.43074087 87.37994008 -34.43074087 87.37994008 -34.6875 89.875 C-33.90375 90.16375 -33.12 90.4525 -32.3125 90.75 C-29.6875 91.875 -29.6875 91.875 -27.6875 93.875 C-33.4375 93.125 -33.4375 93.125 -35.6875 90.875 C-36.0625 87.9375 -36.0625 87.9375 -35.6875 84.875 C-33.33741542 82.03531447 -31.03564049 81.68897085 -27.53125 81.30078125 C-26.2628125 81.16027344 -24.994375 81.01976562 -23.6875 80.875 C-23.79821695 77.66600859 -23.92864313 74.45810291 -24.0625 71.25 C-24.10890625 69.89455078 -24.10890625 69.89455078 -24.15625 68.51171875 C-24.43786832 61.48093386 -24.43786832 61.48093386 -26.6875 54.875 C-28.70914754 53.42415974 -28.70914754 53.42415974 -31.125 52.6875 C-34.34063119 51.52732993 -36.515097 50.57827962 -38.6875 47.875 C-38.6875 47.215 -38.6875 46.555 -38.6875 45.875 C-39.3475 45.875 -40.0075 45.875 -40.6875 45.875 C-43.63758649 38.06780684 -46.26036839 31.09653576 -45.79296875 22.6328125 C-45.66992374 19.41541345 -45.9470764 16.32942077 -46.25 13.125 C-46.95722609 4.36787694 -46.95722609 4.36787694 -45.6875 -0.125 C-43.625 -2.0625 -43.625 -2.0625 -41.6875 -3.125 C-41.0275 -2.795 -40.3675 -2.465 -39.6875 -2.125 C-40.6775 -1.795 -41.6675 -1.465 -42.6875 -1.125 C-42.3575 -0.465 -42.0275 0.195 -41.6875 0.875 C-41.09582031 0.59785156 -40.50414063 0.32070312 -39.89453125 0.03515625 C-39.10433594 -0.32707031 -38.31414062 -0.68929687 -37.5 -1.0625 C-36.72269531 -1.42214844 -35.94539063 -1.78179687 -35.14453125 -2.15234375 C-25.21945994 -6.08134654 -9.11663025 -6.00675171 0 0 Z " fill="#F7FCFC" transform="translate(109.6875,82.125)"/>
<path d="M0 0 C0.495 0.99 0.495 0.99 1 2 C-1.8718353 5.97638733 -4.76682204 8.51530859 -9 11 C-9.66 11 -10.32 11 -11 11 C-11.144375 11.639375 -11.28875 12.27875 -11.4375 12.9375 C-12 15 -12 15 -13 16 C-13.23527773 18.34987262 -13.41386417 20.70556039 -13.5625 23.0625 C-13.64628906 24.35285156 -13.73007813 25.64320313 -13.81640625 26.97265625 C-13.90728516 28.47119141 -13.90728516 28.47119141 -14 30 C-13.34 30 -12.68 30 -12 30 C-11.79375 31.0725 -11.5875 32.145 -11.375 33.25 C-9.71400201 37.77999451 -7.95667038 38.47446572 -4 41 C-2.875 43.5 -2.875 43.5 -3 46 C-6.69553067 50.66110876 -10.36729303 50.96831542 -16.00390625 51.76171875 C-19.59181694 52.04706758 -22.50346146 51.79466785 -26 51 C-26 50.34 -26 49.68 -26 49 C-26.78375 48.690625 -27.5675 48.38125 -28.375 48.0625 C-31 47 -31 47 -33 46 C-32.875 43.6875 -32.875 43.6875 -32 41 C-27.92909592 38.31690413 -25.99702468 38 -21 38 C-21 28.76 -21 19.52 -21 10 C-23.64 9.34 -26.28 8.68 -29 8 C-31.32429927 5.85970775 -32.36322729 3.76205394 -34 1 C-31.1768974 2.11213133 -28.46781053 3.26609473 -25.75 4.625 C-20.11380212 6.69160589 -15.37476988 7.02441054 -9.8125 4.625 C-8.884375 4.08875 -7.95625 3.5525 -7 3 C-5.00379834 2.32204472 -3.00461299 1.65266469 -1 1 C-0.67 0.67 -0.34 0.34 0 0 Z " fill="#C7E6F2" transform="translate(108,126)"/>
<path d="M0 0 C0.99 0.33 1.98 0.66 3 1 C2.50995483 2.51944214 2.50995483 2.51944214 2.01000977 4.06958008 C0.96636809 7.73570005 0.78397483 11.06170265 0.83984375 14.88671875 C0.8562793 16.7884082 0.8562793 16.7884082 0.87304688 18.72851562 C0.89431641 20.03498047 0.91558594 21.34144531 0.9375 22.6875 C0.97193348 25.29551755 1.00207382 27.90359631 1.02734375 30.51171875 C1.04531006 31.66115967 1.06327637 32.81060059 1.08178711 33.99487305 C1.01238122 36.54507347 0.75593735 38.58107455 0 41 C0.66 41 1.32 41 2 41 C2.03738281 42.31871094 2.07476563 43.63742188 2.11328125 44.99609375 C2.42098109 53.88113458 2.8772562 62.51922531 4.625 71.25 C5.79694642 77.1480668 6.34954118 82.08278098 5 88 C4.01 88.99 4.01 88.99 3 90 C2.75787127 91.98128508 2.75787127 91.98128508 2.875 94.125 C2.936875 96.043125 2.936875 96.043125 3 98 C2.34 98 1.68 98 1 98 C1.33 99.98 1.66 101.96 2 104 C2.495 103.01 2.495 103.01 3 102 C3.94488281 102.16242188 4.88976562 102.32484375 5.86328125 102.4921875 C10.63497607 103.17197086 15.37594788 103.14621184 20.1875 103.125 C21.07630859 103.12886719 21.96511719 103.13273437 22.88085938 103.13671875 C24.16766602 103.13478516 24.16766602 103.13478516 25.48046875 103.1328125 C26.25285889 103.13168457 27.02524902 103.13055664 27.82104492 103.12939453 C29.99769998 103.00013658 31.90802355 102.59889703 34 102 C34 103.32 34 104.64 34 106 C29.3736342 106.1237709 24.74823539 106.21441516 20.12060547 106.2746582 C18.54719249 106.29977448 16.97389588 106.33387472 15.40087891 106.37719727 C13.13675228 106.43798399 10.87416978 106.46623582 8.609375 106.48828125 C7.55759064 106.52699089 7.55759064 106.52699089 6.48455811 106.56648254 C2.90499312 106.5685296 1.28388906 106.24670132 -1.44897461 103.87182617 C-3.28850877 100.46580691 -3.47535072 98.42289384 -3.42578125 94.5625 C-3.42294632 93.91356781 -3.42011139 93.26463562 -3.41719055 92.59603882 C-3.40214175 90.39667505 -3.35756528 88.19893959 -3.3125 86 C-3.29389946 84.42400799 -3.27686238 82.84799691 -3.26123047 81.27197266 C-3.22087206 77.65661879 -3.16583232 74.0417894 -3.10302734 70.42675781 C-3.01202148 65.05284585 -2.95021504 59.67893927 -2.89609814 54.30453873 C-2.83295037 48.05396915 -2.75782032 41.80359469 -2.67758179 35.55322266 C-2.6418219 32.76548847 -2.60940879 29.97774426 -2.57949829 27.18994141 C-2.53619159 23.23840761 -2.47594203 19.28722593 -2.4140625 15.3359375 C-2.40248611 14.13440033 -2.39090973 12.93286316 -2.37898254 11.69491577 C-2.35913803 10.59209259 -2.33929352 9.48926941 -2.31884766 8.35302734 C-2.30552399 7.38763031 -2.29220032 6.42223328 -2.2784729 5.42758179 C-2 3 -2 3 0 0 Z " fill="#062A0F" transform="translate(10,69)"/>
<path d="M0 0 C1.46513058 0.01988865 2.93011492 0.05558907 4.39453125 0.10546875 C5.14412109 0.11900391 5.89371094 0.13253906 6.66601562 0.14648438 C8.51332892 0.18178336 10.36027191 0.23558958 12.20703125 0.29296875 C12.20703125 1.28296875 12.20703125 2.27296875 12.20703125 3.29296875 C17.65203125 3.78796875 17.65203125 3.78796875 23.20703125 4.29296875 C23.20703125 12.87296875 23.20703125 21.45296875 23.20703125 30.29296875 C22.54703125 30.29296875 21.88703125 30.29296875 21.20703125 30.29296875 C21.20703125 22.70296875 21.20703125 15.11296875 21.20703125 7.29296875 C18.89703125 7.29296875 16.58703125 7.29296875 14.20703125 7.29296875 C12.20703125 6.29296875 10.20703125 5.29296875 8.20703125 4.29296875 C5.21758526 3.76194874 2.23554328 3.48813953 -0.79296875 3.29296875 C-0.79296875 3.95296875 -0.79296875 4.61296875 -0.79296875 5.29296875 C-4.65405415 6.72965169 -7.68939575 7.40482083 -11.79296875 7.29296875 C-11.69881482 11.58003447 -11.59259044 15.86658746 -11.47558594 20.15307617 C-11.43750448 21.60872393 -11.40261675 23.06445912 -11.37109375 24.52026367 C-11.3249862 26.62320023 -11.26707328 28.7255455 -11.20703125 30.828125 C-11.17561035 32.09019775 -11.14418945 33.35227051 -11.11181641 34.65258789 C-10.6715232 39.6795496 -10.05406253 43.88337661 -6.63671875 47.703125 C-2.99257561 49.74044129 -0.45090027 49.79283772 3.70703125 49.73046875 C4.99609375 49.72917969 6.28515625 49.72789062 7.61328125 49.7265625 C11.33161312 49.27793768 13.25236538 48.54048825 16.20703125 46.29296875 C18.77610176 41.83089892 19.29087101 36.31235732 20.20703125 31.29296875 C23.05901309 35.57094151 23.19069626 39.27849599 22.20703125 44.29296875 C20.0465581 47.92729893 17.44257938 51.42868556 13.3984375 52.9921875 C5.45511986 54.08244678 -2.77473134 54.5039112 -9.79296875 50.29296875 C-14.60826059 46.46393249 -14.91786631 40.04459622 -15.79296875 34.29296875 C-16.11429012 29.01544811 -16.08227718 23.76362217 -15.98046875 18.48046875 C-15.96536943 17.09441586 -15.95169045 15.70834674 -15.93945312 14.32226562 C-15.90450336 10.97873781 -15.85544177 7.63607605 -15.79296875 4.29296875 C-15.17808594 4.25558594 -14.56320312 4.21820313 -13.9296875 4.1796875 C-13.12144531 4.11394531 -12.31320313 4.04820313 -11.48046875 3.98046875 C-10.67996094 3.92246094 -9.87945312 3.86445312 -9.0546875 3.8046875 C-4.89739929 2.86409207 -4.69203267 0.36241241 0 0 Z " fill="#D0D4A8" transform="translate(28.79296875,104.70703125)"/>
<path d="M0 0 C4.68371709 -0.31934435 6.35088361 0.23551789 10 3 C12.32569275 3.38302582 14.65958767 3.72066921 17 4 C17.05875981 8.12493872 17.09384938 12.24976768 17.125 16.375 C17.15013672 18.10943359 17.15013672 18.10943359 17.17578125 19.87890625 C17.27439305 37.33319407 17.27439305 37.33319407 12.78125 42.6015625 C9.44620262 44.2784543 7.22092967 44.47063137 3.5 44.375 C2.3965625 44.36210937 1.293125 44.34921875 0.15625 44.3359375 C-4.09760585 43.88317562 -6.95605893 43.04394107 -10 40 C-10.125 36.875 -10.125 36.875 -10 34 C6.8929385 33.81548975 6.8929385 33.81548975 14 35 C14 33.02 14 31.04 14 29 C12.68 29.33 11.36 29.66 10 30 C10.33 29.34 10.66 28.68 11 28 C11.66 28 12.32 28 13 28 C12.71872579 26.51882199 12.42466268 25.04006751 12.125 23.5625 C11.96257813 22.73878906 11.80015625 21.91507813 11.6328125 21.06640625 C11.42398438 20.38449219 11.21515625 19.70257813 11 19 C10.34 18.67 9.68 18.34 9 18 C7.35868944 15.58122654 6.96329401 14.3762364 7.25 11.4375 C8 9 8 9 10 6 C7.69 6 5.38 6 3 6 C3 6.66 3 7.32 3 8 C2.34 8 1.68 8 1 8 C0.67 5.36 0.34 2.72 0 0 Z " fill="#E6DDA8" transform="translate(30,109)"/>
<path d="M0 0 C3 2 3 2 3.36914349 3.80783272 C3.36637811 4.54342352 3.36361273 5.27901432 3.36076355 6.03689575 C3.36488754 6.88106049 3.36901154 7.72522522 3.3732605 8.5949707 C3.36247467 9.522854 3.35168884 10.4507373 3.34057617 11.40673828 C3.34101425 12.38238739 3.34145233 13.3580365 3.34190369 14.36325073 C3.33980794 17.59913917 3.31643971 20.8345142 3.29296875 24.0703125 C3.2873756 26.30947588 3.28310418 28.54864292 3.28010559 30.78781128 C3.26863477 36.68982018 3.23914828 42.59160865 3.20599365 48.49353027 C3.17534097 54.51258359 3.16161053 60.53167243 3.14648438 66.55078125 C3.11428078 78.36728451 3.0630574 90.18362395 3 102 C1.35 102 -0.3 102 -2 102 C-1.67128906 101.32324219 -1.34257813 100.64648438 -1.00390625 99.94921875 C0.20239558 96.40541378 0.16087081 93.54665609 0.0625 89.8125 C-0.0969031 83.19380619 -0.0969031 83.19380619 1 81 C-0.485 81.495 -0.485 81.495 -2 82 C-3.32339119 78.02982643 -3.01212931 74.30326443 -2.87890625 70.17578125 C-2.84348976 68.88367989 -2.84348976 68.88367989 -2.80735779 67.56547546 C-2.7307872 64.81431325 -2.6467344 62.0634372 -2.5625 59.3125 C-2.5092727 57.44727963 -2.45653235 55.58204529 -2.40429688 53.71679688 C-2.27518096 49.14435004 -2.13935423 44.57214579 -2 40 C-1.34 40 -0.68 40 0 40 C-0.03552979 38.82381104 -0.07105957 37.64762207 -0.10766602 36.43579102 C-0.23765464 32.08811217 -0.36094794 27.74026516 -0.48217773 23.39233398 C-0.5356766 21.50751524 -0.5910118 19.62274772 -0.64819336 17.73803711 C-0.7298851 15.03510589 -0.8050554 12.33206161 -0.87890625 9.62890625 C-0.90594131 8.78099014 -0.93297638 7.93307404 -0.96083069 7.0594635 C-1.01280526 5.04026894 -1.01188213 3.01982842 -1 1 C-0.67 0.67 -0.34 0.34 0 0 Z " fill="#041F08" transform="translate(55,68)"/>
<path d="M0 0 C5.9889282 -0.35933569 9.63736634 0.08552518 15 3 C17.31 3.33 19.62 3.66 22 4 C22 11.59 22 19.18 22 27 C22.66 27 23.32 27 24 27 C24 18.42 24 9.84 24 1 C21.03 1 18.06 1 15 1 C15 0.67 15 0.34 15 0 C18.3 0 21.6 0 25 0 C25.0292814 4.47915271 25.04689296 8.95828042 25.0625 13.4375 C25.07087891 14.69755859 25.07925781 15.95761719 25.08789062 17.25585938 C25.10531376 23.9289203 24.91378066 30.38768168 24 37 C23.67 37 23.34 37 23 37 C22.505 34.03 22.505 34.03 22 31 C21.82984375 31.74765625 21.6596875 32.4953125 21.484375 33.265625 C21.24203125 34.25046875 20.9996875 35.2353125 20.75 36.25 C20.51796875 37.22453125 20.2859375 38.1990625 20.046875 39.203125 C18.86260593 42.36706775 17.59720714 43.87146182 15 46 C8.94568887 48.01810371 0.42527566 48.54190758 -5.5078125 45.87109375 C-9.59896358 42.59303755 -10.32045105 40.19356 -11 35 C-11.0790131 32.54532644 -11.1078047 30.08873644 -11.09765625 27.6328125 C-11.0962413 26.95322479 -11.09482635 26.27363708 -11.09336853 25.57345581 C-11.08781518 23.42392388 -11.07527169 21.27449992 -11.0625 19.125 C-11.05747896 17.65885568 -11.05291711 16.19270971 -11.04882812 14.7265625 C-11.03786111 11.15100717 -11.02062919 7.57551414 -11 4 C-5.555 3.01 -5.555 3.01 0 2 C0 1.34 0 0.68 0 0 Z M0.125 2.4375 C-3.05700312 4.77720818 -6.09493632 4.5937156 -10 5 C-10.02940458 8.16664666 -10.04693315 11.33325747 -10.0625 14.5 C-10.07087891 15.386875 -10.07925781 16.27375 -10.08789062 17.1875 C-10.10763596 22.55823086 -9.78835893 27.68633663 -9 33 C-8.05125 32.979375 -7.1025 32.95875 -6.125 32.9375 C-3 33 -3 33 -1 34 C-1 33.34 -1 32.68 -1 32 C-0.38125 32.185625 0.2375 32.37125 0.875 32.5625 C3.04160178 33.23686176 3.04160178 33.23686176 5 32 C5 32.66 5 33.32 5 34 C5.763125 33.814375 6.52625 33.62875 7.3125 33.4375 C10 33 10 33 13 34 C13 33.34 13 32.68 13 32 C13.66 32 14.32 32 15 32 C15.33 33.32 15.66 34.64 16 36 C15.44054687 35.9278125 14.88109375 35.855625 14.3046875 35.78125 C6.85917345 34.91938985 -0.51172488 34.9028898 -8 35 C-8.30538801 39.14868265 -8.30538801 39.14868265 -6.75 42.8125 C-3.05090855 45.32259777 1.07444257 45.21666406 5.4375 45.3125 C7.10619141 45.36857422 7.10619141 45.36857422 8.80859375 45.42578125 C12.89961611 44.87997778 14.31614661 44.15719614 17 41 C19.78008041 33.51530785 19.23880615 25.22762415 19.125 17.375 C19.11597656 16.18003906 19.10695313 14.98507813 19.09765625 13.75390625 C19.07431077 10.83572166 19.04156656 7.91797224 19 5 C18.37351562 4.87882812 17.74703125 4.75765625 17.1015625 4.6328125 C16.28429687 4.46523437 15.46703125 4.29765625 14.625 4.125 C13.81289063 3.96257812 13.00078125 3.80015625 12.1640625 3.6328125 C10 3 10 3 8 1 C3.76275499 0.51941582 3.76275499 0.51941582 0.125 2.4375 Z " fill="#5F6D40" transform="translate(28,108)"/>
<path d="M0 0 C6 2 6 2 7 3 C19.45348073 4.92225722 33.43306223 5.78346888 45 0 C44.67 4.95 44.34 9.9 44 15 C42.02 14.34 40.04 13.68 38 13 C32.19795673 11.31764524 27.02913735 10.66177842 21 10.6875 C20.24460937 10.67138672 19.48921875 10.65527344 18.7109375 10.63867188 C13.15773108 10.63390108 9.10635138 11.82649914 4 14 C3.01 14.33 2.02 14.66 1 15 C0.67 10.05 0.34 5.1 0 0 Z " fill="#F2FAFB" transform="translate(67,91)"/>
<path d="M0 0 C1.32 0 2.64 0 4 0 C4 9.57 4 19.14 4 29 C5.65 29 7.3 29 9 29 C9.33 29.99 9.66 30.98 10 32 C10.99 32 11.98 32 13 32 C12.67 33.65 12.34 35.3 12 37 C11.01 37 10.02 37 9 37 C9 37.66 9 38.32 9 39 C6.64551325 39.05454409 4.29232125 39.0939279 1.9375 39.125 C0.62652344 39.14820313 -0.68445313 39.17140625 -2.03515625 39.1953125 C-6.11824299 38.99417522 -9.14999053 38.27165462 -13 37 C-12.875 34.6875 -12.875 34.6875 -12 32 C-7.57208838 29.01373403 -5.57323918 29 0 29 C0 19.43 0 9.86 0 0 Z " fill="#95D3F1" transform="translate(88,135)"/>
<path d="M0 0 C3.58875 -0.0928125 3.58875 -0.0928125 7.25 -0.1875 C8.37003418 -0.22846802 8.37003418 -0.22846802 9.51269531 -0.27026367 C12.72890947 -0.31048797 14.71220619 -0.17511982 17.484375 1.51171875 C17.98453125 2.00285156 18.4846875 2.49398438 19 3 C18.01 3.33 17.02 3.66 16 4 C16.01160156 4.78246094 16.02320312 5.56492187 16.03515625 6.37109375 C16.04417969 7.38300781 16.05320312 8.39492187 16.0625 9.4375 C16.07410156 10.44683594 16.08570312 11.45617187 16.09765625 12.49609375 C16 15 16 15 15 16 C12.4672235 16.07320163 9.96896082 16.09227569 7.4375 16.0625 C4.983125 16.041875 2.52875 16.02125 0 16 C0 10.72 0 5.44 0 0 Z " fill="#8D0226" transform="translate(22,6)"/>
<path d="M0 0 C0.66 0.33 1.32 0.66 2 1 C1.01 1.33 0.02 1.66 -1 2 C-0.67 2.66 -0.34 3.32 0 4 C0.66 3.67 1.32 3.34 2 3 C1.67 5.64 1.34 8.28 1 11 C0.34 10.67 -0.32 10.34 -1 10 C-2.12754076 30.55977927 -2.12754076 30.55977927 5 49 C9.44540001 53.21743077 13.08830356 55.02943452 19 57 C19 66.24 19 75.48 19 85 C15.7 85.99 12.4 86.98 9 88 C7.25675913 90.50494008 7.25675913 90.50494008 7 93 C7.78375 93.28875 8.5675 93.5775 9.375 93.875 C12 95 12 95 14 97 C8.25 96.25 8.25 96.25 6 94 C5.625 91.0625 5.625 91.0625 6 88 C8.35008458 85.16031447 10.65185951 84.81397085 14.15625 84.42578125 C15.4246875 84.28527344 16.693125 84.14476562 18 84 C17.88928305 80.79100859 17.75885687 77.58310291 17.625 74.375 C17.57859375 73.01955078 17.57859375 73.01955078 17.53125 71.63671875 C17.24963168 64.60593386 17.24963168 64.60593386 15 58 C12.97835246 56.54915974 12.97835246 56.54915974 10.5625 55.8125 C7.34686881 54.65232993 5.172403 53.70327962 3 51 C3 50.34 3 49.68 3 49 C2.34 49 1.68 49 1 49 C-1.95008649 41.19280684 -4.57286839 34.22153576 -4.10546875 25.7578125 C-3.98242374 22.54041345 -4.2595764 19.45442077 -4.5625 16.25 C-5.26972609 7.49287694 -5.26972609 7.49287694 -4 3 C-1.9375 1.0625 -1.9375 1.0625 0 0 Z " fill="#ECFBFD" transform="translate(68,79)"/>
<path d="M0 0 C1.24040039 0.01353516 1.24040039 0.01353516 2.50585938 0.02734375 C4.52486708 0.05068488 6.54372356 0.08654712 8.5625 0.125 C8.5625 0.455 8.5625 0.785 8.5625 1.125 C2.9525 1.125 -2.6575 1.125 -8.4375 1.125 C-8.4375 10.365 -8.4375 19.605 -8.4375 29.125 C-13.86410564 26.41169718 -15.33511749 22.60536065 -17.6875 17.3125 C-18.71389047 12.95034052 -18.98287666 8.58425625 -18.4375 4.125 C-13.59796058 -0.71453942 -6.39481777 -0.13397684 0 0 Z " fill="#B97A89" transform="translate(88.4375,100.875)"/>
<path d="M0 0 C5.28 0 10.56 0 16 0 C16 0.99 16 1.98 16 3 C21.445 3.495 21.445 3.495 27 4 C27 12.58 27 21.16 27 30 C26.34 30 25.68 30 25 30 C25 22.41 25 14.82 25 7 C22.69 7 20.38 7 18 7 C16 6 14 5 12 4 C9.01055401 3.46897999 6.02851203 3.19517078 3 3 C3 3.66 3 4.32 3 5 C-1.20786142 6.60299483 -4.51815878 7.10043342 -9 7 C-8.98952637 7.65073486 -8.97905273 8.30146973 -8.96826172 8.97192383 C-8.92670165 11.9187433 -8.90067392 14.86550111 -8.875 17.8125 C-8.85824219 18.83666016 -8.84148438 19.86082031 -8.82421875 20.91601562 C-8.81777344 21.89892578 -8.81132812 22.88183594 -8.8046875 23.89453125 C-8.79421387 24.80050049 -8.78374023 25.70646973 -8.77294922 26.63989258 C-9 29 -9 29 -11 32 C-11 22.76 -11 13.52 -11 4 C-7.7 3.34 -4.4 2.68 -1 2 C-0.67 1.34 -0.34 0.68 0 0 Z " fill="#C6CC9D" transform="translate(25,105)"/>
<path d="M0 0 C7.26 0 14.52 0 22 0 C22 9.57 22 19.14 22 29 C14.74 29 7.48 29 0 29 C0 28.67 0 28.34 0 28 C3.63 27.67 7.26 27.34 11 27 C11.33 26.01 11.66 25.02 12 24 C12.99 23.34 13.98 22.68 15 22 C17.91177774 18.10610245 18.444693 14.99507866 18.6875 10.1875 C18.75324219 9.02605469 18.81898437 7.86460938 18.88671875 6.66796875 C18.92410156 5.78753906 18.96148437 4.90710938 19 4 C15.15158652 2.81968762 11.241721 2.66764649 7.25 2.4375 C6.55261719 2.39431641 5.85523438 2.35113281 5.13671875 2.30664062 C3.42468078 2.20110404 1.71236439 2.1001009 0 2 C0 1.34 0 0.68 0 0 Z " fill="#670718" transform="translate(22,4)"/>
<path d="M0 0 C0.88816406 0.3609375 1.77632813 0.721875 2.69140625 1.09375 C14.77103502 5.60912296 26.22842733 5.54557849 39 5 C34.25513952 8.16324032 30.3321431 8.15347623 24.8125 8.125 C24.08224609 8.12886719 23.35199219 8.13273437 22.59960938 8.13671875 C14.39050655 8.1221765 8.00885848 7.52655443 1 3 C1.66 7.62 2.32 12.24 3 17 C3.33 17 3.66 17 4 17 C4.02578125 17.61746094 4.0515625 18.23492187 4.078125 18.87109375 C4.45872679 24.55417048 5.54004407 28.98001575 8.0625 34.08984375 C9.20168425 36.41093167 10 38.392145 10 41 C10.66 41.99 11.32 42.98 12 44 C7.52649241 42.5088308 5.09799421 39.03231512 3 35 C1.98751305 31.70125219 1.45613526 28.41571056 1 25 C0.83371094 23.97132812 0.83371094 23.97132812 0.6640625 22.921875 C-0.40627238 15.34274692 -0.08430955 7.63469844 0 0 Z " fill="#ACD4E1" transform="translate(66,88)"/>
<path d="M0 0 C3.40312738 1.05875074 6.01353231 2.00902154 9 4 C7.81331953 19.5205314 7.81331953 19.5205314 3 26 C1.68880388 26.70921574 0.35699858 27.38292863 -1 28 C-1.15190099 20.03363674 -0.76002096 12.15343761 -0.21875 4.2109375 C-0.0616085 2.10709395 -0.0616085 2.10709395 0 0 Z " fill="#A36F7F" transform="translate(101,102)"/>
<path d="M0 0 C0 0.66 0 1.32 0 2 C1.65 2 3.3 2 5 2 C5 1.34 5 0.68 5 0 C6.32 0 7.64 0 9 0 C9 0.99 9 1.98 9 3 C9.99 3.33 10.98 3.66 12 4 C11.67 6.31 11.34 8.62 11 11 C7.7 11.33 4.4 11.66 1 12 C0.67 11.01 0.34 10.02 0 9 C-0.5775 9.309375 -1.155 9.61875 -1.75 9.9375 C-3.84294184 10.92583364 -5.74535275 11.5168613 -8 12 C-7.67 10.35 -7.34 8.7 -7 7 C-6.34 7 -5.68 7 -5 7 C-4.67 6.34 -4.34 5.68 -4 5 C-3.01 4.67 -2.02 4.34 -1 4 C-2.65 4 -4.3 4 -6 4 C-6 3.34 -6 2.68 -6 2 C-3 0 -3 0 0 0 Z " fill="#0D2B0E" transform="translate(30,124)"/>
<path d="M0 0 C1.18722656 0.17015625 1.18722656 0.17015625 2.3984375 0.34375 C7.84670454 1.31067794 13.18878818 2.80098066 17 7 C18.4861173 15.14067053 16.32733008 24.29977599 15.125 32.375 C14.95097656 33.61894531 14.77695313 34.86289063 14.59765625 36.14453125 C13.14355071 46.1509316 13.14355071 46.1509316 11 51 C9.67342975 47.02028925 10.58976139 43.81790569 11.375 39.8125 C12.95987972 31.49921889 14.13828633 23.48806849 14.0625 15 C14.05798828 14.32066406 14.05347656 13.64132813 14.04882812 12.94140625 C14.0372283 11.29423126 14.01930199 9.64710274 14 8 C12.948125 7.360625 11.89625 6.72125 10.8125 6.0625 C10.22082031 5.70285156 9.62914062 5.34320313 9.01953125 4.97265625 C5.08652147 3.07842137 1.07254751 2.87267251 -3.23828125 2.8671875 C-4.71651367 2.86525391 -4.71651367 2.86525391 -6.22460938 2.86328125 C-7.24361328 2.86714844 -8.26261719 2.87101562 -9.3125 2.875 C-10.31990234 2.87113281 -11.32730469 2.86726563 -12.36523438 2.86328125 C-18.0050934 2.8706296 -23.42216818 3.16032639 -29 4 C-21.66424612 -2.56072337 -9.14485924 -1.4722374 0 0 Z " fill="#E7F8FC" transform="translate(99,75)"/>
<path d="M0 0 C0.33 1.32 0.66 2.64 1 4 C2.98 4 4.96 4 7 4 C7.875 6 7.875 6 8 9 C6.05481217 12.27480989 3.6965019 15.3034981 1 18 C-1.33297433 18.04092937 -3.66705225 18.04241723 -6 18 C-5.125 12.25 -5.125 12.25 -4 10 C-3.34 10 -2.68 10 -2 10 C-2.66 9.01 -3.32 8.02 -4 7 C-5.175625 7.7115625 -5.175625 7.7115625 -6.375 8.4375 C-7.88948678 9.33898023 -9.4235897 10.21179485 -11 11 C-10.01378258 8.5267113 -9.39934441 7.24254661 -7.08984375 5.83984375 C-6.37957031 5.54207031 -5.66929688 5.24429688 -4.9375 4.9375 C-2.80027767 4.09000323 -2.80027767 4.09000323 -1 3 C-0.67 2.01 -0.34 1.02 0 0 Z " fill="#12492E" transform="translate(20,57)"/>
<path d="M0 0 C1.4606285 2.64738916 2 3.89448334 2 7 C2.66 7 3.32 7 4 7 C4 6.34 4 5.68 4 5 C6.31 5 8.62 5 11 5 C10.67 5.7425 10.34 6.485 10 7.25 C8.77217129 10.13883312 8.77217129 10.13883312 9 14 C6.03 13.505 6.03 13.505 3 13 C2.67 11.68 2.34 10.36 2 9 C1.236875 9.350625 0.47375 9.70125 -0.3125 10.0625 C-3 11 -3 11 -6 10 C-5.67 8.68 -5.34 7.36 -5 6 C-7.475 5.01 -7.475 5.01 -10 4 C-10 10.27 -10 16.54 -10 23 C-10.33 23 -10.66 23 -11 23 C-11 16.4 -11 9.8 -11 3 C-8.36 2.67 -5.72 2.34 -3 2 C-2.01 1.34 -1.02 0.68 0 0 Z " fill="#BFC391" transform="translate(29,110)"/>
<path d="M0 0 C0.94644447 3.7857779 0.9693628 5.95261384 0.5625 9.75 C0.46066406 10.73484375 0.35882813 11.7196875 0.25390625 12.734375 C0.17011719 13.48203125 0.08632812 14.2296875 0 15 C-0.825 14.71125 -1.65 14.4225 -2.5 14.125 C-9.49146184 11.87774441 -15.61521795 10.63750789 -22.9375 10.6875 C-23.72366699 10.68878906 -24.50983398 10.69007812 -25.31982422 10.69140625 C-31.06409696 10.78664808 -35.707952 11.64797866 -41 14 C-41 13.01 -41 12.02 -41 11 C-37.43887601 8.79447501 -34.47649427 8.73461353 -30.3359375 8.69140625 C-28.40621094 8.65370117 -28.40621094 8.65370117 -26.4375 8.61523438 C-24.39877397 8.58639843 -22.36013398 8.56236392 -20.32128906 8.54370117 C-18.34682875 8.52211589 -16.37259768 8.48203906 -14.3984375 8.44140625 C-13.21942871 8.42795166 -12.04041992 8.41449707 -10.82568359 8.40063477 C-9.89320801 8.26842529 -8.96073242 8.13621582 -8 8 C-7.34 7.01 -6.68 6.02 -6 5 C-6.99 4.34 -7.98 3.68 -9 3 C-6.03 2.01 -3.06 1.02 0 0 Z " fill="#E2F7F5" transform="translate(111,91)"/>
<path d="M0 0 C1.32 0 2.64 0 4 0 C4.50505263 2.89503383 5.0042022 5.79087953 5.5 8.6875 C5.64308594 9.50412109 5.78617187 10.32074219 5.93359375 11.16210938 C6.61165962 15.14978248 7.19858392 18.93730404 7 23 C3.1735215 21.72450717 2.80418485 20.52992688 1 17 C-1.3101463 11.77177417 -1.45623252 6.63394112 -1 1 C-0.67 0.67 -0.34 0.34 0 0 Z " fill="#9B3250" transform="translate(71,104)"/>
<path d="M0 0 C2 3.75 2 3.75 2 6 C1.67 6.33 1.34 6.66 1 7 C1.66 7 2.32 7 3 7 C2.67 8.32 2.34 9.64 2 11 C2 10.34 2 9.68 2 9 C1.34 9 0.68 9 0 9 C0 9.66 0 10.32 0 11 C-0.763125 10.814375 -1.52625 10.62875 -2.3125 10.4375 C-5.08967375 9.77180827 -5.08967375 9.77180827 -8 11 C-8 10.01 -8 9.02 -8 8 C-8.61875 8.350625 -9.2375 8.70125 -9.875 9.0625 C-10.57625 9.371875 -11.2775 9.68125 -12 10 C-12.66 9.67 -13.32 9.34 -14 9 C-14.33 9.66 -14.66 10.32 -15 11 C-16.32 10.67 -17.64 10.34 -19 10 C-19 8.68 -19 7.36 -19 6 C-14.25 6.875 -14.25 6.875 -12 8 C-11.67 6.02 -11.34 4.04 -11 2 C-10.67 2.99 -10.34 3.98 -10 5 C-9.34 4.67 -8.68 4.34 -8 4 C-5.3276379 3.86584528 -2.67749512 3.95681459 0 4 C0 2.68 0 1.36 0 0 Z " fill="#D3CF9F" transform="translate(41,131)"/>
<path d="M0 0 C2.475 0.495 2.475 0.495 5 1 C5.75 3.25 5.75 3.25 6 6 C2.36257388 10.68921198 -1.39903739 10.97278372 -7.00390625 11.76171875 C-10.59181694 12.04706758 -13.50346146 11.79466785 -17 11 C-17 10.34 -17 9.68 -17 9 C-18.32 8.34 -19.64 7.68 -21 7 C-14.73 7.33 -8.46 7.66 -2 8 C-2 7.34 -2 6.68 -2 6 C-1.01 5.67 -0.02 5.34 1 5 C1.73323796 2.98491642 1.73323796 2.98491642 2 1 C1.34 0.67 0.68 0.34 0 0 Z " fill="#ABD9EE" transform="translate(99,166)"/>
<path d="M0 0 C2.85198184 4.27797276 2.98366501 7.98552724 2 13 C-0.15920113 16.6321904 -2.76103581 20.10637833 -6.78125 21.7109375 C-9.94959103 22.12371432 -13.05654908 22.09206899 -16.25 22.0625 C-17.51328125 22.05347656 -18.7765625 22.04445312 -20.078125 22.03515625 C-21.04234375 22.02355469 -22.0065625 22.01195312 -23 22 C-22.01 20.515 -22.01 20.515 -21 19 C-18.35546875 18.59375 -18.35546875 18.59375 -15.1875 18.5 C-10.55601207 18.36191837 -7.77660241 17.75826855 -4 15 C-1.43092949 10.53793017 -0.91616024 5.01938857 0 0 Z " fill="#C8CEA0" transform="translate(49,136)"/>
<path d="M0 0 C1.32 0.33 2.64 0.66 4 1 C4.33 1.99 4.66 2.98 5 4 C4.67 4.66 4.34 5.32 4 6 C3.01 6 2.02 6 1 6 C1.14166357 7.91697937 1.28849584 9.83357723 1.4375 11.75 C1.51871094 12.81734375 1.59992187 13.8846875 1.68359375 14.984375 C1.94090773 17.43679962 2.31812218 19.63921291 3 22 C3.763125 21.525625 4.52625 21.05125 5.3125 20.5625 C8 19 8 19 11 18 C10.67 20.31 10.34 22.62 10 25 C7.69 24.34 5.38 23.68 3 23 C3 24.32 3 25.64 3 27 C2.01 27 1.02 27 0 27 C0 18.09 0 9.18 0 0 Z " fill="#E1D9A7" transform="translate(19,114)"/>
<path d="M0 0 C-0.33 0.99 -0.66 1.98 -1 3 C-4.3 3.33 -7.6 3.66 -11 4 C-10.97679687 5.55332031 -10.95359375 7.10664062 -10.9296875 8.70703125 C-10.91093034 10.7421827 -10.89273009 12.77733934 -10.875 14.8125 C-10.85824219 15.83666016 -10.84148438 16.86082031 -10.82421875 17.91601562 C-10.81777344 18.89892578 -10.81132812 19.88183594 -10.8046875 20.89453125 C-10.79421387 21.80050049 -10.78374023 22.70646973 -10.77294922 23.63989258 C-11 26 -11 26 -13 29 C-13 19.76 -13 10.52 -13 1 C-2 0 -2 0 0 0 Z " fill="#E5E6B4" transform="translate(27,108)"/>
<path d="M0 0 C0.94488281 0.16242188 1.88976562 0.32484375 2.86328125 0.4921875 C7.63497607 1.17197086 12.37594788 1.14621184 17.1875 1.125 C18.07630859 1.12886719 18.96511719 1.13273438 19.88085938 1.13671875 C21.16766602 1.13478516 21.16766602 1.13478516 22.48046875 1.1328125 C23.25285889 1.13168457 24.02524902 1.13055664 24.82104492 1.12939453 C26.99769998 1.00013658 28.90802355 0.59889703 31 0 C31 1.32 31 2.64 31 4 C20.77 4 10.54 4 0 4 C0 2.66666667 0 1.33333333 0 0 Z " fill="#001F0B" transform="translate(13,171)"/>
<path d="M0 0 C0.66 0.33 1.32 0.66 2 1 C-1.75 4 -1.75 4 -4 4 C-4.2165625 4.9590625 -4.2165625 4.9590625 -4.4375 5.9375 C-5 8 -5 8 -6 9 C-6.23527773 11.34987262 -6.41386417 13.70556039 -6.5625 16.0625 C-6.64628906 17.35285156 -6.73007813 18.64320313 -6.81640625 19.97265625 C-6.87699219 20.97167969 -6.93757813 21.97070312 -7 23 C-6.34 23 -5.68 23 -5 23 C-4.67 24.98 -4.34 26.96 -4 29 C-5.32 29.33 -6.64 29.66 -8 30 C-8 21.09 -8 12.18 -8 3 C-5.36 2.01 -2.72 1.02 0 0 Z " fill="#F8FEFD" transform="translate(101,133)"/>
<path d="M0 0 C0.33 0 0.66 0 1 0 C1.33 8.25 1.66 16.5 2 25 C2.33 17.74 2.66 10.48 3 3 C3.33 3 3.66 3 4 3 C4 11.91 4 20.82 4 30 C3.34 30 2.68 30 2 30 C2 31.65 2 33.3 2 35 C1.67 35 1.34 35 1 35 C0.02314635 30.9269597 -0.11545444 27.131793 -0.09765625 22.94921875 C-0.0962413 22.29041214 -0.09482635 21.63160553 -0.09336853 20.95283508 C-0.087805 18.86434238 -0.07525947 16.77595989 -0.0625 14.6875 C-0.05748028 13.26497551 -0.0529182 11.84244934 -0.04882812 10.41992188 C-0.03784757 6.94657923 -0.02060835 3.47330039 0 0 Z " fill="#A3AA7C" transform="translate(13,109)"/>
<path d="M0 0 C0.66 0 1.32 0 2 0 C2 0.66 2 1.32 2 2 C2.66 2 3.32 2 4 2 C4 1.34 4 0.68 4 0 C6.31 0 8.62 0 11 0 C10.67 0.7425 10.34 1.485 10 2.25 C8.77217129 5.13883312 8.77217129 5.13883312 9 9 C6.03 8.505 6.03 8.505 3 8 C2.67 6.68 2.34 5.36 2 4 C0.02 4.99 0.02 4.99 -2 6 C-1.34 4.02 -0.68 2.04 0 0 Z " fill="#A9AE7B" transform="translate(29,115)"/>
<path d="M0 0 C4.68371709 -0.31934435 6.35088361 0.23551789 10 3 C13.65274469 3.72481084 13.65274469 3.72481084 17 4 C17 4.33 17 4.66 17 5 C15.02 5 13.04 5 11 5 C11 6.32 11 7.64 11 9 C10.34 8.67 9.68 8.34 9 8 C9.33 7.34 9.66 6.68 10 6 C7.69 6 5.38 6 3 6 C3 6.66 3 7.32 3 8 C2.34 8 1.68 8 1 8 C0.67 5.36 0.34 2.72 0 0 Z " fill="#CACB9D" transform="translate(30,109)"/>
<path d="M0 0 C0.66 0 1.32 0 2 0 C2.26554687 0.81984375 2.53109375 1.6396875 2.8046875 2.484375 C3.15789062 3.56203125 3.51109375 4.6396875 3.875 5.75 C4.22304687 6.81734375 4.57109375 7.8846875 4.9296875 8.984375 C5.90269994 11.92084063 5.90269994 11.92084063 7.1328125 14.265625 C8 16 8 16 8 18 C8.66 18.99 9.32 19.98 10 21 C5.50942081 19.50314027 3.3347533 15.89704176 1 12 C0.03929566 9.11788698 -0.10581883 7.30149956 -0.0625 4.3125 C-0.05347656 3.50425781 -0.04445313 2.69601563 -0.03515625 1.86328125 C-0.02355469 1.24839844 -0.01195313 0.63351563 0 0 Z " fill="#BCD2DF" transform="translate(68,111)"/>
<path d="M0 0 C0.66 0 1.32 0 2 0 C1.85980308 2.81288705 1.71312045 5.62516885 1.5625 8.4375 C1.50352539 9.64116211 1.50352539 9.64116211 1.44335938 10.86914062 C1.11328125 16.88671875 1.11328125 16.88671875 0 18 C-1.66617115 18.04063832 -3.33388095 18.042721 -5 18 C-5 17.34 -5 16.68 -5 16 C-4.34 15.67 -3.68 15.34 -3 15 C-3 14.01 -3 13.02 -3 12 C-2.53434012 9.92947661 -2.03030134 7.8674177 -1.5 5.8125 C-1.2215625 4.72582031 -0.943125 3.63914062 -0.65625 2.51953125 C-0.4396875 1.68808594 -0.223125 0.85664062 0 0 Z " fill="#772242" transform="translate(99,113)"/>
<path d="M0 0 C0 0.33 0 0.66 0 1 C-10.56 1 -21.12 1 -32 1 C-23.11922411 -4.92051726 -9.81964298 -2.20400804 0 0 Z " fill="#DEF5FB" transform="translate(106,80)"/>
<path d="M0 0 C0.99 0 1.98 0 3 0 C3 8.25 3 16.5 3 25 C2.34 25 1.68 25 1 25 C0.67 16.75 0.34 8.5 0 0 Z " fill="#E9E6B8" transform="translate(49,110)"/>
<path d="M0 0 C1.29550781 0.00644531 2.59101562 0.01289062 3.92578125 0.01953125 C5.28906519 0.03624057 6.65234644 0.05317044 8.015625 0.0703125 C9.39452485 0.0803491 10.77343165 0.08947377 12.15234375 0.09765625 C15.52361382 0.12123157 18.89453136 0.1541398 22.265625 0.1953125 C22.265625 0.8553125 22.265625 1.5153125 22.265625 2.1953125 C21.24577515 2.17174683 21.24577515 2.17174683 20.20532227 2.14770508 C17.07967685 2.08476193 13.95416542 2.04613524 10.828125 2.0078125 C9.75884766 1.98267578 8.68957031 1.95753906 7.58789062 1.93164062 C0.90020174 1.87028568 -4.56019097 2.5686932 -10.734375 5.1953125 C-10.734375 4.2053125 -10.734375 3.2153125 -10.734375 2.1953125 C-7.14172667 -0.05203678 -4.18295427 -0.03669258 0 0 Z " fill="#F3DBE6" transform="translate(80.734375,99.8046875)"/>
<path d="M0 0 C1.98 0.99 3.96 1.98 6 3 C5.01 3.33 4.02 3.66 3 4 C2.34 3.67 1.68 3.34 1 3 C1.66 7.62 2.32 12.24 3 17 C3.33 17 3.66 17 4 17 C4 18.98 4 20.96 4 23 C3.34 23 2.68 23 2 23 C1.67 23.66 1.34 24.32 1 25 C-0.19190363 16.65667456 -0.09283549 8.40676978 0 0 Z " fill="#A9D2E0" transform="translate(66,88)"/>
<path d="M0 0 C7.26 0 14.52 0 22 0 C20.73293765 2.53412471 19.59334288 2.97838008 17 4 C16.34 3.67 15.68 3.34 15 3 C12.45384991 2.76827173 9.92603775 2.58105471 7.375 2.4375 C6.66859375 2.39431641 5.9621875 2.35113281 5.234375 2.30664062 C3.48981463 2.20055249 1.74493303 2.09977111 0 2 C0 1.34 0 0.68 0 0 Z " fill="#720B21" transform="translate(22,4)"/>
<path d="M0 0 C0.99 0.66 1.98 1.32 3 2 C2.49683111 5.72344981 1.99615083 7.67395602 -1 10 C-7.348813 11.81925051 -13.55431906 12.46492749 -20 11 C-20 10.67 -20 10.34 -20 10 C-18.33710937 9.81824219 -18.33710937 9.81824219 -16.640625 9.6328125 C-15.17703766 9.46393704 -13.71349843 9.29464428 -12.25 9.125 C-11.15558594 9.00705078 -11.15558594 9.00705078 -10.0390625 8.88671875 C-6.33222743 8.44863824 -3.19547828 8.0013785 0 6 C0 4.02 0 2.04 0 0 Z " fill="#E0F5FC" transform="translate(102,166)"/>
<path d="M0 0 C1 3 1 3 0 7 C-3.3 7.33 -6.6 7.66 -10 8 C-10.33 6.68 -10.66 5.36 -11 4 C-9.35 3.67 -7.7 3.34 -6 3 C-6 3.99 -6 4.98 -6 6 C-5.34 6 -4.68 6 -4 6 C-4.33 4.68 -4.66 3.36 -5 2 C-3.35 2 -1.7 2 0 2 C0 1.34 0 0.68 0 0 Z " fill="#485831" transform="translate(41,128)"/>
<path d="M0 0 C0.99 0.66 1.98 1.32 3 2 C-0.0103245 5.0103245 -2.22903621 4.97819673 -6.453125 5.09765625 C-8.33257812 5.08025391 -8.33257812 5.08025391 -10.25 5.0625 C-11.51328125 5.05347656 -12.7765625 5.04445312 -14.078125 5.03515625 C-15.04234375 5.02355469 -16.0065625 5.01195312 -17 5 C-16.34 4.01 -15.68 3.02 -15 2 C-12.28515625 1.5234375 -12.28515625 1.5234375 -9.0625 1.375 C-5.74073351 1.20548093 -3.16448749 1.05482916 0 0 Z " fill="#B9BF95" transform="translate(43,153)"/>
<path d="M0 0 C2.64590014 -0.02684679 5.29153096 -0.04676357 7.9375 -0.0625 C8.69224609 -0.07087891 9.44699219 -0.07925781 10.22460938 -0.08789062 C12.14994313 -0.09652441 14.07535581 -0.05224333 16 0 C17.89488952 1.89488952 17.18019112 4.57139146 17.23046875 7.08984375 C17 9 17 9 15 11 C15 8.36 15 5.72 15 3 C10.05738183 1.84672243 5.04338661 1.46027023 0 1 C0 0.67 0 0.34 0 0 Z " fill="#832442" transform="translate(85,102)"/>
<path d="M0 0 C2.31 0.33 4.62 0.66 7 1 C5.515 2.485 5.515 2.485 4 4 C4.99 4.33 5.98 4.66 7 5 C7 5.99 7 6.98 7 8 C5.1875 8.6875 5.1875 8.6875 3 9 C1.25 7.9375 1.25 7.9375 0 6 C-0.1875 2.8125 -0.1875 2.8125 0 0 Z " fill="#D8D4A0" transform="translate(20,143)"/>
<path d="M0 0 C0.33 0 0.66 0 1 0 C1.4625789 9.78268711 1.4625789 9.78268711 -0.1875 14.125 C-2.39548758 16.40912508 -3.87525593 16.74664237 -7 17 C-6.34 16.67 -5.68 16.34 -5 16 C-3.37444945 12.50692764 -2.36025669 8.90460477 -1.375 5.1875 C-1.11460938 4.21167969 -0.85421875 3.23585938 -0.5859375 2.23046875 C-0.39257812 1.49441406 -0.19921875 0.75835937 0 0 Z " fill="#B4C9D6" transform="translate(109,112)"/>
<path d="M0 0 C1.32 0.33 2.64 0.66 4 1 C4.33 1.99 4.66 2.98 5 4 C4.67 4.66 4.34 5.32 4 6 C3.01 6 2.02 6 1 6 C1 11.28 1 16.56 1 22 C0.67 22 0.34 22 0 22 C0 14.74 0 7.48 0 0 Z " fill="#EBE4B5" transform="translate(19,114)"/>
<path d="M0 0 C0.33 0 0.66 0 1 0 C1.21755666 5.4389165 1.10428384 9.87080814 -1 15 C-1.33 15 -1.66 15 -2 15 C-2.33 13.35 -2.66 11.7 -3 10 C-3.66 11.32 -4.32 12.64 -5 14 C-5.125 11.625 -5.125 11.625 -5 9 C-4.34 8.34 -3.68 7.68 -3 7 C-2.3574765 4.93125966 -2.3574765 4.93125966 -2 3 C-1.34 3 -0.68 3 0 3 C0 2.01 0 1.02 0 0 Z " fill="#926679" transform="translate(108,107)"/>
<path d="M0 0 C1.98 0.99 3.96 1.98 6 3 C6 4.98 6 6.96 6 9 C5.34 8.34 4.68 7.68 4 7 C0.9254644 7.7763932 0.9254644 7.7763932 -1 10 C-1.125 2.25 -1.125 2.25 0 0 Z " fill="#9C7F8F" transform="translate(104,103)"/>
<path d="M0 0 C0.66 0.33 1.32 0.66 2 1 C1.01 1.33 0.02 1.66 -1 2 C-0.67 2.66 -0.34 3.32 0 4 C0.66 3.67 1.32 3.34 2 3 C1.67 5.64 1.34 8.28 1 11 C0.34 10.67 -0.32 10.34 -1 10 C-1.33 12.64 -1.66 15.28 -2 18 C-2.33 18 -2.66 18 -3 18 C-3.08074203 15.37438891 -3.1403623 12.75124324 -3.1875 10.125 C-3.21263672 9.37863281 -3.23777344 8.63226563 -3.26367188 7.86328125 C-3.29296875 5.6953125 -3.29296875 5.6953125 -3 2 C-2.01 1.34 -1.02 0.68 0 0 Z " fill="#CCEAF5" transform="translate(68,79)"/>
<path d="M0 0 C1.65 0 3.3 0 5 0 C4.01 0.495 4.01 0.495 3 1 C3 1.66 3 2.32 3 3 C4.65 3 6.3 3 8 3 C7.67 3.66 7.34 4.32 7 5 C6.34 4.67 5.68 4.34 5 4 C4.67 4.99 4.34 5.98 4 7 C3.34 6.67 2.68 6.34 2 6 C1.67 7.32 1.34 8.64 1 10 C-1.56687367 6.1496895 -0.83288724 4.41430237 0 0 Z " fill="#D3D19E" transform="translate(21,125)"/>
<path d="M0 0 C1.26328125 0.03609375 2.5265625 0.0721875 3.828125 0.109375 C5.27445313 0.17898437 5.27445313 0.17898437 6.75 0.25 C7.08 0.91 7.41 1.57 7.75 2.25 C2.8 2.25 -2.15 2.25 -7.25 2.25 C-7.58 3.24 -7.91 4.23 -8.25 5.25 C-9.24 4.92 -10.23 4.59 -11.25 4.25 C-7.85110743 -0.11019552 -5.38491164 -0.19944117 0 0 Z " fill="#33532C" transform="translate(32.25,102.75)"/>
<path d="M0 0 C0.33 0 0.66 0 1 0 C1.66 4.29 2.32 8.58 3 13 C2.34 13 1.68 13 1 13 C-1.81720317 9.31596509 -2.51124478 6.601203 -2 2 C-1.34 1.34 -0.68 0.68 0 0 Z " fill="#952544" transform="translate(74,113)"/>
<path d="M0 0 C0.33 1.32 0.66 2.64 1 4 C1.99 4 2.98 4 4 4 C4 4.99 4 5.98 4 7 C2.35 7 0.7 7 -1 7 C-1 6.34 -1 5.68 -1 5 C-2.32 5.33 -3.64 5.66 -5 6 C-5 3 -5 3 -3.625 1.3125 C-2 0 -2 0 0 0 Z " fill="#D4D2A2" transform="translate(31,119)"/>
<path d="M0 0 C0.33 0 0.66 0 1 0 C1.36923077 6.52307692 1.36923077 6.52307692 -0.5 8.9375 C-0.995 9.288125 -1.49 9.63875 -2 10 C-2.66 9.01 -3.32 8.02 -4 7 C-5.175625 7.7115625 -5.175625 7.7115625 -6.375 8.4375 C-7.88948678 9.33898023 -9.4235897 10.21179485 -11 11 C-10.01378258 8.5267113 -9.39934441 7.24254661 -7.08984375 5.83984375 C-6.37957031 5.54207031 -5.66929688 5.24429688 -4.9375 4.9375 C-2.80027767 4.09000323 -2.80027767 4.09000323 -1 3 C-0.67 2.01 -0.34 1.02 0 0 Z " fill="#496453" transform="translate(20,57)"/>
<path d="M0 0 C3.96 0 7.92 0 12 0 C11.67 0.99 11.34 1.98 11 3 C7.37 3 3.74 3 0 3 C0 2.01 0 1.02 0 0 Z " fill="#8B0524" transform="translate(22,28)"/>
<path d="M0 0 C0 0.33 0 0.66 0 1 C-1.04800781 1.23783203 -1.04800781 1.23783203 -2.1171875 1.48046875 C-7.82287052 2.68783279 -7.82287052 2.68783279 -11.625 6.6875 C-11.74875 7.450625 -11.8725 8.21375 -12 9 C-10.824375 9.433125 -10.824375 9.433125 -9.625 9.875 C-7 11 -7 11 -5 13 C-10.75 12.25 -10.75 12.25 -13 10 C-13.375 7.0625 -13.375 7.0625 -13 4 C-9.13706431 0.13706431 -5.26255833 -0.11694574 0 0 Z " fill="#E5F7FC" transform="translate(87,163)"/>
<path d="M0 0 C0.66 0 1.32 0 2 0 C2.66 4.29 3.32 8.58 4 13 C3.01 13 2.02 13 1 13 C0.1276588 10.00519083 -0.10829766 7.36424089 -0.0625 4.25 C-0.05347656 3.45078125 -0.04445313 2.6515625 -0.03515625 1.828125 C-0.02355469 1.22484375 -0.01195312 0.6215625 0 0 Z " fill="#DDDEAB" transform="translate(15,139)"/>
<path d="M0 0 C0.33 0 0.66 0 1 0 C1.05386629 2.12472576 1.09273071 4.24983652 1.125 6.375 C1.14820313 7.55835938 1.17140625 8.74171875 1.1953125 9.9609375 C1 13 1 13 -1 15 C-3.01124138 10.97751725 -2.21604913 6.74266888 -1 2.5625 C-0.67 1.716875 -0.34 0.87125 0 0 Z " fill="#041A07" transform="translate(43,37)"/>
<path d="M0 0 C0 0.66 0 1.32 0 2 C1.32 2.33 2.64 2.66 4 3 C1.11788698 3.96070434 -0.69850044 4.10581883 -3.6875 4.0625 C-4.89986328 4.04896484 -4.89986328 4.04896484 -6.13671875 4.03515625 C-7.05904297 4.01775391 -7.05904297 4.01775391 -8 4 C-7.01 3.67 -6.02 3.34 -5 3 C-5.33 2.01 -5.66 1.02 -6 0 C-3 -1 -3 -1 0 0 Z " fill="#88395D" transform="translate(94,129)"/>
<path d="M0 0 C1.32 0 2.64 0 4 0 C4 0.99 4 1.98 4 3 C4.66 3 5.32 3 6 3 C6 3.99 6 4.98 6 6 C2.31245243 5.50168276 0.39509338 4.89932357 -2 2 C-1.34 2 -0.68 2 0 2 C0 1.34 0 0.68 0 0 Z " fill="#2C4522" transform="translate(35,124)"/>
<path d="M0 0 C0.99 0.33 1.98 0.66 3 1 C3 2.98 3 4.96 3 7 C-1.75 6.125 -1.75 6.125 -4 5 C-4 4.34 -4 3.68 -4 3 C-3.01 2.67 -2.02 2.34 -1 2 C-0.67 1.34 -0.34 0.68 0 0 Z " fill="#ECEDF3" transform="translate(107,98)"/>
<path d="M0 0 C0.66 0 1.32 0 2 0 C3.17571451 3.67410785 3.07366746 7.16929183 3 11 C2.01 11 1.02 11 0 11 C0 7.37 0 3.74 0 0 Z " fill="#092C09" transform="translate(52,136)"/>
<path d="M0 0 C0.33 1.32 0.66 2.64 1 4 C-1.3125 6.0625 -1.3125 6.0625 -4 8 C-4.99 7.67 -5.98 7.34 -7 7 C-6.67 5.68 -6.34 4.36 -6 3 C-5.34 3 -4.68 3 -4 3 C-3.67 2.34 -3.34 1.68 -3 1 C-2.01 0.67 -1.02 0.34 0 0 Z " fill="#607145" transform="translate(29,128)"/>
<path d="M0 0 C0.66 0 1.32 0 2 0 C1.8858134 1.93816735 1.75826577 3.87555099 1.625 5.8125 C1.55539063 6.89144531 1.48578125 7.97039062 1.4140625 9.08203125 C1 12 1 12 -1 15 C-1.18451025 4.44191344 -1.18451025 4.44191344 0 0 Z " fill="#711D3B" transform="translate(99,113)"/>
<path d="M0 0 C0.66 0 1.32 0 2 0 C2 0.66 2 1.32 2 2 C2.66 2 3.32 2 4 2 C4 1.34 4 0.68 4 0 C4.66 0 5.32 0 6 0 C5.67 1.65 5.34 3.3 5 5 C3.824375 4.9690625 3.824375 4.9690625 2.625 4.9375 C0.01885039 4.81315937 0.01885039 4.81315937 -2 6 C-1.34 4.02 -0.68 2.04 0 0 Z " fill="#6D7A4C" transform="translate(29,115)"/>
<path d="M0 0 C0.80566406 0.00322266 1.61132812 0.00644531 2.44140625 0.00976562 C3.70404297 0.02233398 3.70404297 0.02233398 4.9921875 0.03515625 C5.84167969 0.03966797 6.69117187 0.04417969 7.56640625 0.04882812 C9.66669659 0.06062751 11.7669508 0.07856319 13.8671875 0.09765625 C13.8671875 0.42765625 13.8671875 0.75765625 13.8671875 1.09765625 C8.2571875 1.09765625 2.6471875 1.09765625 -3.1328125 1.09765625 C-3.4628125 2.41765625 -3.7928125 3.73765625 -4.1328125 5.09765625 C-4.7928125 4.76765625 -5.4528125 4.43765625 -6.1328125 4.09765625 C-6.1328125 3.10765625 -6.1328125 2.11765625 -6.1328125 1.09765625 C-3.8362755 -0.05061225 -2.54968083 -0.0179555 0 0 Z " fill="#B47487" transform="translate(83.1328125,100.90234375)"/>
<path d="M0 0 C1.98 0.66 3.96 1.32 6 2 C5.01 2.66 4.02 3.32 3 4 C2.41651248 6.6556728 2.41651248 6.6556728 2.3125 9.625 C2.21388672 11.12933594 2.21388672 11.12933594 2.11328125 12.6640625 C2.05720703 13.82035156 2.05720703 13.82035156 2 15 C1.67 15 1.34 15 1 15 C0.67 10.05 0.34 5.1 0 0 Z " fill="#DFF8FE" transform="translate(67,91)"/>
<path d="M0 0 C1.36511719 0.29197266 1.36511719 0.29197266 2.7578125 0.58984375 C3.45648438 0.74582031 4.15515625 0.90179688 4.875 1.0625 C2.875 3.0625 2.875 3.0625 0 3.375 C-3.38879801 3.0361202 -4.66384629 2.33433419 -7.125 0.0625 C-4.4030754 -1.2984623 -2.9418043 -0.64116248 0 0 Z " fill="#B8DDEC" transform="translate(77.125,91.9375)"/>
<path d="M0 0 C0.66 0.33 1.32 0.66 2 1 C1.01 3.31 0.02 5.62 -1 8 C-1.99 7.67 -2.98 7.34 -4 7 C-3.6875 4.625 -3.6875 4.625 -3 2 C-2.01 1.34 -1.02 0.68 0 0 Z " fill="#A7D8F0" transform="translate(79,165)"/>
<path d="M0 0 C2.475 0.99 2.475 0.99 5 2 C5 1.34 5 0.68 5 0 C5.66 0 6.32 0 7 0 C7.33 1.32 7.66 2.64 8 4 C5.36 4 2.72 4 0 4 C0 2.68 0 1.36 0 0 Z " fill="#516034" transform="translate(36,140)"/>
<path d="M0 0 C0.33 0 0.66 0 1 0 C2.03590199 5.05002222 2.10251672 9.87416389 2 15 C0.68 14.01 -0.64 13.02 -2 12 C-1.34 12 -0.68 12 0 12 C0 8.04 0 4.08 0 0 Z " fill="#B78693" transform="translate(78,115)"/>
<path d="M0 0 C2.4294516 3.6441774 2.16179575 5.71241272 2 10 C1.34 10 0.68 10 0 10 C-0.33 10.66 -0.66 11.32 -1 12 C-1.08159574 7.83861737 -0.98248524 4.0527516 0 0 Z " fill="#E0DEB1" transform="translate(49,136)"/>
<path d="M0 0 C0.99 0 1.98 0 3 0 C3.33 1.98 3.66 3.96 4 6 C1.6875 7.5625 1.6875 7.5625 -1 9 C-1.99 8.67 -2.98 8.34 -4 8 C-3.34 8 -2.68 8 -2 8 C-2 7.34 -2 6.68 -2 6 C-1.01 5.67 -0.02 5.34 1 5 C1.73323796 2.98491642 1.73323796 2.98491642 2 1 C1.34 0.67 0.68 0.34 0 0 Z " fill="#A1CFE6" transform="translate(99,166)"/>
<path d="M0 0 C3 3 3 3 3.1875 6.1875 C3.0946875 7.5796875 3.0946875 7.5796875 3 9 C2.34 9 1.68 9 1 9 C0.67 9.66 0.34 10.32 0 11 C0 7.37 0 3.74 0 0 Z " fill="#B3B8CB" transform="translate(67,102)"/>
<path d="M0 0 C-0.33 0.99 -0.66 1.98 -1 3 C-5.455 3.495 -5.455 3.495 -10 4 C-10 3.01 -10 2.02 -10 1 C-2.25 0 -2.25 0 0 0 Z " fill="#D6D1A6" transform="translate(27,108)"/>
<path d="M0 0 C2.64 0.99 5.28 1.98 8 3 C8 3.66 8 4.32 8 5 C5.6875 5.6875 5.6875 5.6875 3 6 C1.1875 4.75 1.1875 4.75 0 3 C0 2.01 0 1.02 0 0 Z " fill="#28412E" transform="translate(47,61)"/>
<path d="M0 0 C4.03520597 1.58962659 8.01811282 3.28232318 12 5 C12 5.33 12 5.66 12 6 C4.61538462 5.63076923 4.61538462 5.63076923 1.5 2.4375 C1.005 1.633125 0.51 0.82875 0 0 Z " fill="#D7DCEC" transform="translate(74,127)"/>
<path d="M0 0 C0.33 0 0.66 0 1 0 C1 3.63 1 7.26 1 11 C0.01 11 -0.98 11 -2 11 C-1.34 7.37 -0.68 3.74 0 0 Z " fill="#AFBCCD" transform="translate(109,112)"/>
<path d="M0 0 C1.65 0 3.3 0 5 0 C5 1.32 5 2.64 5 4 C3.35 4 1.7 4 0 4 C0 2.68 0 1.36 0 0 Z " fill="#EAE0AA" transform="translate(30,110)"/>
<path d="M0 0 C0.33 1.32 0.66 2.64 1 4 C-2.69541586 4.95024979 -5.30458414 4.95024979 -9 4 C-9 3.67 -9 3.34 -9 3 C-6.03 2.01 -3.06 1.02 0 0 Z " fill="#D8F6FD" transform="translate(111,91)"/>
<path d="M0 0 C0.33 0.99 0.66 1.98 1 3 C-1.31 3.33 -3.62 3.66 -6 4 C-6 3.34 -6 2.68 -6 2 C-3 0 -3 0 0 0 Z " fill="#4E5933" transform="translate(30,124)"/>
<path d="M0 0 C0.99 0.33 1.98 0.66 3 1 C2.34 2.65 1.68 4.3 1 6 C-0.32 5.67 -1.64 5.34 -3 5 C-1.125 1.125 -1.125 1.125 0 0 Z " fill="#ABAB76" transform="translate(26,115)"/>
<path d="M0 0 C1.36118461 2.24195113 2.06138028 3.47826762 1.75 6.125 C1 8 1 8 -1 10 C-1.125 2.25 -1.125 2.25 0 0 Z " fill="#B3838E" transform="translate(104,103)"/>
<path d="M0 0 C1.31223496 3.93670488 0.24296256 6.12488144 -1 10 C-1.33 10 -1.66 10 -2 10 C-2.1953125 3.9453125 -2.1953125 3.9453125 -2 2 C-1.34 1.34 -0.68 0.68 0 0 Z " fill="#052914" transform="translate(23,50)"/>
<path d="M0 0 C2.99324263 1.0975223 3.84610901 1.67682892 5.25 4.625 C5.4975 5.40875 5.745 6.1925 6 7 C3.00675737 5.9024777 2.15389099 5.32317108 0.75 2.375 C0.5025 1.59125 0.255 0.8075 0 0 Z " fill="#182E1D" transform="translate(7,168)"/>
<path d="M0 0 C0.66 0.33 1.32 0.66 2 1 C2 3.31 2 5.62 2 8 C0.35 6.68 -1.3 5.36 -3 4 C-2 2 -2 2 0 0 Z " fill="#03280E" transform="translate(10,164)"/>
<path d="M0 0 C2.475 0.495 2.475 0.495 5 1 C4.67 2.32 4.34 3.64 4 5 C2.68 4.67 1.36 4.34 0 4 C0 2.68 0 1.36 0 0 Z " fill="#CACA9B" transform="translate(22,137)"/>
<path d="M0 0 C0.33 0.99 0.66 1.98 1 3 C0.67 3.66 0.34 4.32 0 5 C-1.65 4.67 -3.3 4.34 -5 4 C-5 3.34 -5 2.68 -5 2 C-3.35 2 -1.7 2 0 2 C0 1.34 0 0.68 0 0 Z " fill="#5F7751" transform="translate(41,128)"/>
<path d="M0 0 C0.66 0 1.32 0 2 0 C4.42857143 6.28571429 4.42857143 6.28571429 3 10 C0.70366176 6.55549263 0.45983515 4.06187717 0 0 Z " fill="#DCCEE4" transform="translate(68,111)"/>
</svg>
