<?xml version="1.0" encoding="UTF-8"?>
<svg version="1.1" xmlns="http://www.w3.org/2000/svg" width="205" height="186">
<path d="M0 0 C6.65008211 4.55938134 11.32761687 10.50914757 15.19921875 17.5078125 C15.85277344 16.51201172 15.85277344 16.51201172 16.51953125 15.49609375 C20.02680147 10.29592038 23.22052814 6.29594666 28.19921875 2.5078125 C28.94171875 1.6621875 29.68421875 0.8165625 30.44921875 -0.0546875 C37.00940908 -5.86940165 44.43916284 -7.19544493 53.03515625 -6.86328125 C64.98662501 -5.46156578 74.26814307 2.53854382 81.78466797 11.53735352 C84.29217148 15.03028773 85.84290585 18.82683236 87.38671875 22.8203125 C87.72695068 23.69115479 88.06718262 24.56199707 88.41772461 25.45922852 C94.65230191 42.13962944 96.57079601 58.84526617 89.19921875 75.5078125 C88.54436102 76.84698522 87.88175353 78.18253196 87.19921875 79.5078125 C87.9984375 79.65476562 88.79765625 79.80171875 89.62109375 79.953125 C107.38082874 83.58011313 123.56279935 93.93163324 133.9375 109.0390625 C135.14056046 111.16837305 136.22246996 113.26678715 137.19921875 115.5078125 C137.55886719 116.25933594 137.91851562 117.01085937 138.2890625 117.78515625 C140.54632399 124.53756508 140.51123207 133.13923842 137.92578125 139.77734375 C136.48914157 142.22663921 135.13071423 144.4262008 133.19921875 146.5078125 C132.53921875 146.5078125 131.87921875 146.5078125 131.19921875 146.5078125 C131.19921875 147.1678125 131.19921875 147.8278125 131.19921875 148.5078125 C125.03091456 154.35899095 117.36109132 156.14423299 109.2979126 157.98016357 C105.83652785 158.77088367 102.39032358 159.62155717 98.9453125 160.48046875 C98.27040771 160.64848999 97.59550293 160.81651123 96.90014648 160.98962402 C90.65407674 162.58044505 84.72733395 164.69730088 78.81665039 167.24975586 C64.96626213 173.20300861 47.32962715 174.05373413 33.125 168.83984375 C17.70300739 161.81861614 6.36648205 151.99355116 -0.36328125 136.1953125 C-3.48121899 126.29297321 -3.22747438 114.95421134 1.234375 105.5390625 C5.86159839 98.40044351 12.09301225 91.2452835 19.19921875 86.5078125 C18.53921875 85.5178125 17.87921875 84.5278125 17.19921875 83.5078125 C16.53921875 83.5078125 15.87921875 83.5078125 15.19921875 83.5078125 C14.70421875 84.1678125 14.20921875 84.8278125 13.69921875 85.5078125 C13.20421875 86.1678125 12.70921875 86.8278125 12.19921875 87.5078125 C11.53921875 87.5078125 10.87921875 87.5078125 10.19921875 87.5078125 C10.19921875 88.1678125 10.19921875 88.8278125 10.19921875 89.5078125 C7.19921875 91.5078125 7.19921875 91.5078125 4.19921875 91.5078125 C4.19921875 92.1678125 4.19921875 92.8278125 4.19921875 93.5078125 C2.80643858 94.16020408 1.40982663 94.80441802 0.01171875 95.4453125 C-1.15423828 95.98478516 -1.15423828 95.98478516 -2.34375 96.53515625 C-11.33618924 100.09496129 -23.83022404 99.97915568 -32.92578125 96.7578125 C-34.56692918 96.04383878 -36.19455574 95.29722026 -37.80078125 94.5078125 C-38.45304687 94.2190625 -39.1053125 93.9303125 -39.77734375 93.6328125 C-44.97565158 91.06800863 -48.25947786 86.94063282 -51.80078125 82.5078125 C-52.47238281 81.70730469 -53.14398438 80.90679687 -53.8359375 80.08203125 C-62.78971026 68.35134289 -62.04198398 53.55441581 -60.80078125 39.5078125 C-60.10633383 34.91369762 -58.64064562 30.76697904 -56.80078125 26.5078125 C-56.20523438 24.92806641 -56.20523438 24.92806641 -55.59765625 23.31640625 C-53.31779325 17.43637985 -50.87062185 12.34762295 -46.80078125 7.5078125 C-46.14078125 7.5078125 -45.48078125 7.5078125 -44.80078125 7.5078125 C-44.53136719 6.9096875 -44.26195313 6.3115625 -43.984375 5.6953125 C-40.52904509 -0.69077578 -34.22293616 -3.62740605 -27.56640625 -5.80078125 C-17.53200912 -8.30938053 -8.70394914 -5.07350613 0 0 Z " fill="#F8C08E" transform="translate(63.80078125,11.4921875)"/>
<path d="M0 0 C14.66211521 -0.43637248 27.97114675 -0.55853625 42 4 C42.88945312 4.21527344 43.77890625 4.43054688 44.6953125 4.65234375 C52.53236303 6.58010698 59.16299518 10.85247979 66 15 C66 15.66 66 16.32 66 17 C66.59039062 17.103125 67.18078125 17.20625 67.7890625 17.3125 C75.84221535 19.8166606 81.05111021 30.49199837 84.875 37.375 C86.81574392 43.6285082 87.10156759 50.08001037 84.5 56.1875 C84.005 57.115625 83.51 58.04375 83 59 C82.34 59 81.68 59 81 59 C81 59.66 81 60.32 81 61 C80.34 61 79.68 61 79 61 C78.67 61.99 78.34 62.98 78 64 C75.8125 65.03125 75.8125 65.03125 73 66 C70.99874252 66.83030895 68.99879105 67.66377109 67 68.5 C65.00120895 69.33622891 63.00125748 70.16969105 61 71 C60.19820313 71.34804687 59.39640625 71.69609375 58.5703125 72.0546875 C55.38226053 73.22719293 52.19832512 73.9264667 48.875 74.625 C47.65554687 74.88539063 46.43609375 75.14578125 45.1796875 75.4140625 C42 76 42 76 39 76 C39 76.66 39 77.32 39 78 C20.43422561 84.17061728 1.99420436 89.67721809 -16.734375 80.6875 C-18.87080155 79.51976375 -20.94880625 78.3104849 -23 77 C-23 76.34 -23 75.68 -23 75 C-23.639375 74.71125 -24.27875 74.4225 -24.9375 74.125 C-27 73 -27 73 -28 71 C-29.0725 70.443125 -30.145 69.88625 -31.25 69.3125 C-37.95396165 65.55608795 -40.86876287 59.19241634 -43.2734375 52.10546875 C-45.22710392 43.75512035 -45.10171292 35.57239308 -41 28 C-40.690625 26.96875 -40.38125 25.9375 -40.0625 24.875 C-37.21402147 17.1673522 -29.91861426 11.95349387 -23 8 C-22.34 7.34 -21.68 6.68 -21 6 C-18.6171875 5.5859375 -18.6171875 5.5859375 -15.875 5.375 C-14.96492188 5.30023438 -14.05484375 5.22546875 -13.1171875 5.1484375 C-12.41851562 5.09945312 -11.71984375 5.05046875 -11 5 C-11 4.34 -11 3.68 -11 3 C-7.32589215 1.82428549 -3.83070817 1.92633254 0 2 C0 1.34 0 0.68 0 0 Z " fill="#FDFDFA" transform="translate(112,93)"/>
<path d="M0 0 C0.495 1.485 0.495 1.485 1 3 C2.65438613 3.69658363 4.32254318 4.36096883 6 5 C7.6875 6.5625 7.6875 6.5625 9 8 C9.99 8.495 9.99 8.495 11 9 C11 10.32 11 11.64 11 13 C11.66 13 12.32 13 13 13 C14.33827901 15.67655801 14.20578556 17.82434052 14.25 20.8125 C14.27578125 21.85019531 14.3015625 22.88789062 14.328125 23.95703125 C13.67357035 30.02724641 9.84679847 33.57508211 5.3828125 37.35546875 C-2.69429542 42.92999733 -12.34966895 44.17743363 -21.9375 44.25 C-22.61490234 44.270625 -23.29230469 44.29125 -23.99023438 44.3125 C-29.17249834 44.35224891 -32.44395859 43.22003472 -37 41 C-38.19625 40.54625 -39.3925 40.0925 -40.625 39.625 C-44.27457624 37.86779663 -46.30221318 35.98943944 -49 33 C-49.7425 32.360625 -50.485 31.72125 -51.25 31.0625 C-53.55906941 28.34109677 -53.72739368 26.5438822 -54 23 C-54.103125 21.741875 -54.20625 20.48375 -54.3125 19.1875 C-54.12738581 14.07250261 -53.41656573 9.95964157 -50 6 C-35.27264369 -3.98350887 -16.81875925 -6.23011966 0 0 Z " fill="#FDDC02" transform="translate(151,102)"/>
<path d="M0 0 C0.495 0.99 0.495 0.99 1 2 C0.67 2.66 0.34 3.32 0 4 C0.79921875 4.14695312 1.5984375 4.29390625 2.421875 4.4453125 C20.18160999 8.07230063 36.3635806 18.42382074 46.73828125 33.53125 C47.94134171 35.66056055 49.02325121 37.75897465 50 40 C50.35964844 40.75152344 50.71929687 41.50304687 51.08984375 42.27734375 C53.34710524 49.02975258 53.31201332 57.63142592 50.7265625 64.26953125 C49.28992282 66.71882671 47.93149548 68.9183883 46 71 C45.34 71 44.68 71 44 71 C44 71.66 44 72.32 44 73 C37.83169581 78.85117845 30.16187257 80.63642049 22.09869385 82.47235107 C18.6373091 83.26307117 15.19110483 84.11374467 11.74609375 84.97265625 C11.07118896 85.14067749 10.39628418 85.30869873 9.70092773 85.48181152 C3.45485799 87.07263255 -2.4718848 89.18948838 -8.38256836 91.74194336 C-22.23295662 97.69519611 -39.8695916 98.54592163 -54.07421875 93.33203125 C-69.49621136 86.31080364 -80.8327367 76.48573866 -87.5625 60.6875 C-90.68043774 50.78516071 -90.42669313 39.44639884 -85.96484375 30.03125 C-81.33762036 22.89263101 -75.1062065 15.737471 -68 11 C-68.33 10.01 -68.66 9.02 -69 8 C-68.01 8.33 -67.02 8.66 -66 9 C-66 9.66 -66 10.32 -66 11 C-61.90340898 10.67227272 -59.42607639 10.29292752 -56 7.9375 C-52.39396433 5.60860196 -50.21035669 5.66317146 -46 6 C-46 5.34 -46 4.68 -46 4 C-43.36 3.67 -40.72 3.34 -38 3 C-38 2.34 -38 1.68 -38 1 C-27.61562308 0.90223913 -17.33807949 0.8444462 -7 2 C-7 2.66 -7 3.32 -7 4 C-5.35 4 -3.7 4 -2 4 C-1.34 2.68 -0.68 1.36 0 0 Z M-39 6 C-39 6.66 -39 7.32 -39 8 C-40.0725 7.979375 -41.145 7.95875 -42.25 7.9375 C-45.14790424 7.9857984 -47.28612141 8.13155885 -50 9 C-50 9.66 -50 10.32 -50 11 C-50.67546875 11.02578125 -51.3509375 11.0515625 -52.046875 11.078125 C-57.59837692 11.29228754 -57.59837692 11.29228754 -62.3125 13.875 C-62.869375 14.57625 -63.42625 15.2775 -64 16 C-64.763125 16.45375 -65.52625 16.9075 -66.3125 17.375 C-72.03636301 20.83594042 -77.75578385 25.24076574 -79.9140625 31.76171875 C-80.14867188 32.72722656 -80.38328125 33.69273438 -80.625 34.6875 C-81.91212654 39.91212654 -81.91212654 39.91212654 -83 41 C-84.14973471 52.51377192 -81.47812992 60.50749082 -76.125 70.5 C-73.40353046 73.70172887 -70.68605696 74.98942348 -67 77 C-65.1875 79.25 -65.1875 79.25 -64 81 C-63.34 81 -62.68 81 -62 81 C-61.67 81.99 -61.34 82.98 -61 84 C-49.06671437 91.18128082 -34.43311071 93.32590469 -20.87890625 90.30419922 C-13.8410838 88.45666721 -6.90383831 86.29459558 0 84 C0 83.34 0 82.68 0 82 C0.68964844 81.87882812 1.37929687 81.75765625 2.08984375 81.6328125 C5.06264359 81.10268359 8.03146043 80.55345653 11 80 C11.75152344 79.86722656 12.50304687 79.73445313 13.27734375 79.59765625 C20.38143473 78.20858818 29.81236453 76.18763547 35 71 C36.64991582 70.29289322 38.31562256 69.62056011 40 69 C40 68.34 40 67.68 40 67 C40.66 67 41.32 67 42 67 C42 66.34 42 65.68 42 65 C42.66 65 43.32 65 44 65 C47.18666658 59.02500016 48.05056373 53.73073031 47 47 C43.89938459 37.47127948 37.42813306 29.57687134 30 23 C29.01 23 28.02 23 27 23 C27 22.34 27 21.68 27 21 C12.87110776 12.16463006 -2.32451308 5.81843818 -19.2734375 5.90234375 C-20.42714844 5.90556641 -21.58085937 5.90878906 -22.76953125 5.91210938 C-24.55423828 5.92467773 -24.55423828 5.92467773 -26.375 5.9375 C-28.19451172 5.94426758 -28.19451172 5.94426758 -30.05078125 5.95117188 C-33.03390507 5.96291646 -36.01692679 5.9793416 -39 6 Z " fill="#F0E1AD" transform="translate(151,87)"/>
<path d="M0 0 C2.875 0.75 2.875 0.75 6 2 C7.1875 4.0625 7.1875 4.0625 8 6 C8.99 6.33 9.98 6.66 11 7 C13.6875 9.3125 13.6875 9.3125 16 12 C16 13.32 16 14.64 16 16 C19.01425856 15.34304975 19.01425856 15.34304975 20.02734375 13.40625 C20.32769531 12.7771875 20.62804687 12.148125 20.9375 11.5 C22.732178 8.1115925 22.732178 8.1115925 25.25 7.0625 C25.8275 7.041875 26.405 7.02125 27 7 C26.52550039 10.91462175 25.11671675 13.62979483 23.11328125 16.98828125 C17.36965997 27.36710567 15.64917818 37.84368826 15.6875 49.5625 C15.67138672 50.55185547 15.65527344 51.54121094 15.63867188 52.56054688 C15.63452898 58.80389441 16.58687724 63.26155526 19 69 C18.625 71.875 18.625 71.875 18 74 C18.33 74.66 18.66 75.32 19 76 C18.01 76 17.02 76 16 76 C15.938125 76.556875 15.87625 77.11375 15.8125 77.6875 C14.29128805 82.01710324 10.71531598 84.52312268 7 87 C6.505 88.485 6.505 88.485 6 90 C4.109375 91.1328125 4.109375 91.1328125 1.75 92.125 C0.59757812 92.62386719 0.59757812 92.62386719 -0.578125 93.1328125 C-10.78383195 96.78711402 -23.79441365 96.42658742 -33.703125 92.1328125 C-34.84007812 91.57207031 -34.84007812 91.57207031 -36 91 C-37.01320313 90.53207031 -37.01320313 90.53207031 -38.046875 90.0546875 C-47.44734223 85.27410801 -52.46262994 74.52711853 -56 65 C-60.84822606 48.15328643 -58.24743487 29.41687986 -49.984375 13.94921875 C-48 11 -48 11 -45 10 C-44.75 15.625 -44.75 15.625 -47 19 C-47.75277373 21.39467264 -48.43378318 23.76108337 -49.0625 26.1875 C-49.40410156 27.45980469 -49.74570312 28.73210938 -50.09765625 30.04296875 C-51.74767109 36.85465494 -52.18118482 43.58422867 -52.1875 50.5625 C-52.19974609 51.27857422 -52.21199219 51.99464844 -52.22460938 52.73242188 C-52.24203643 59.11653332 -50.93460866 64.65788992 -47.875 70.3125 C-46 73.79562044 -46 73.79562044 -46 76 C-45.01 76.33 -44.02 76.66 -43 77 C-41.33333333 78.66666667 -39.66666667 80.33333333 -38 82 C-33.59498891 83.46833703 -29.30221062 83.22493708 -24.6875 83.25 C-23.74970703 83.270625 -22.81191406 83.29125 -21.84570312 83.3125 C-16.45702776 83.34288013 -12.65414374 83.03791376 -8 80 C-7.484375 79.46375 -6.96875 78.9275 -6.4375 78.375 C-4.47055547 76.4935748 -2.64409683 76.35731038 0 76 C0 75.34 0 74.68 0 74 C0.66 74 1.32 74 2 74 C2.495 72.515 2.495 72.515 3 71 C3.66 71 4.32 71 5 71 C5 70.34 5 69.68 5 69 C5.64815674 68.41814941 6.29631348 67.83629883 6.96411133 67.23681641 C9.53572964 64.41139765 9.51996192 62.98253661 9.57421875 59.2109375 C9.60193359 58.10492188 9.62964844 56.99890625 9.65820312 55.859375 C9.66787109 54.70953125 9.67753906 53.5596875 9.6875 52.375 C9.72946518 50.09107669 9.77486145 47.80721301 9.82421875 45.5234375 C9.83541748 44.51200684 9.84661621 43.50057617 9.8581543 42.45849609 C10 40 10 40 11 38 C11.62254769 30.32590256 10.79033385 24.1126157 8 17 C6.92301979 13.35023373 5.88810609 9.70044205 5 6 C4.34 6 3.68 6 3 6 C3 5.34 3 4.68 3 4 C2.01 3.67 1.02 3.34 0 3 C0 2.01 0 1.02 0 0 Z " fill="#F2B680" transform="translate(62,15)"/>
<path d="M0 0 C3.74497454 0.21399855 4.92156923 0.92156923 7.625 3.625 C10.0823462 6.82490876 11.46915557 10.27272661 13 14 C13.64453125 14.9075 14.2890625 15.815 14.953125 16.75 C17.15334474 20.24347867 18.26547729 23.52708823 19.1875 27.5 C19.35258057 28.19851074 19.51766113 28.89702148 19.68774414 29.61669922 C22.51543156 42.21366877 23.7483683 56.33421605 17 68 C15.1875 70.25 15.1875 70.25 13 72 C10.25 72.25 10.25 72.25 8 72 C8 71.34 8 70.68 8 70 C4.37 70 0.74 70 -3 70 C-3 69.34 -3 68.68 -3 68 C-2.34 68 -1.68 68 -1 68 C-0.67 66.68 -0.34 65.36 0 64 C0.66 64 1.32 64 2 64 C2.12375 63.443125 2.2475 62.88625 2.375 62.3125 C3.41740774 58.45559136 4.77952498 55.33071252 7 52 C8.03343161 46.69372617 8.21363818 41.44859434 8.25 36.0625 C8.270625 35.30259766 8.29125 34.54269531 8.3125 33.75976562 C8.35080711 28.15256178 7.10519805 24.18329442 5 19 C4.76593127 16.59699013 4.84875021 14.41999657 5 12 C4.34 12 3.68 12 3 12 C2.49440092 10.56445975 1.9957251 9.1264798 1.5 7.6875 C1.2215625 6.88699219 0.943125 6.08648437 0.65625 5.26171875 C0 3 0 3 0 0 Z " fill="#EDA767" transform="translate(136,19)"/>
<path d="M0 0 C2.875 0.75 2.875 0.75 6 2 C7.1875 4.0625 7.1875 4.0625 8 6 C8.99 6.33 9.98 6.66 11 7 C13.6875 9.3125 13.6875 9.3125 16 12 C16 13.32 16 14.64 16 16 C19.01425856 15.34304975 19.01425856 15.34304975 20.02734375 13.40625 C20.32769531 12.7771875 20.62804687 12.148125 20.9375 11.5 C22.732178 8.1115925 22.732178 8.1115925 25.25 7.0625 C25.8275 7.041875 26.405 7.02125 27 7 C26.52550039 10.91462175 25.11671675 13.62979483 23.11328125 16.98828125 C17.36965997 27.36710567 15.64917818 37.84368826 15.6875 49.5625 C15.67138672 50.55185547 15.65527344 51.54121094 15.63867188 52.56054688 C15.63452898 58.80389441 16.58687724 63.26155526 19 69 C18.625 71.875 18.625 71.875 18 74 C18.33 74.66 18.66 75.32 19 76 C18.01 76 17.02 76 16 76 C15.938125 76.556875 15.87625 77.11375 15.8125 77.6875 C14.64647898 81.00617521 12.58378237 82.65110694 10 85 C9.278125 85.680625 8.55625 86.36125 7.8125 87.0625 C0.58923693 92.03852567 -7.43068035 94.14679027 -16.125 94.125 C-17.67574219 94.12886719 -17.67574219 94.12886719 -19.2578125 94.1328125 C-22 94 -22 94 -25 93 C-25 92.34 -25 91.68 -25 91 C-26.32 90.67 -27.64 90.34 -29 90 C-28.505 89.505 -28.505 89.505 -28 89 C-26.51990373 89.03398968 -25.04064435 89.10425595 -23.5625 89.1875 C-18.04701531 89.24548144 -12.98395662 88.36721966 -7.625 87.1875 C-6.4659314 86.93939575 -6.4659314 86.93939575 -5.28344727 86.6862793 C-1.05110651 85.70887699 2.44197825 84.61700055 6 82 C6.33 81.34 6.66 80.68 7 80 C7.99 80 8.98 80 10 80 C10.495 78.515 10.495 78.515 11 77 C11.66 77 12.32 77 13 77 C13.18276122 72.33958879 12.76719039 69.26204741 11 65 C10.12330594 59.34133834 9.84489772 53.84443353 9.875 48.125 C9.86919922 46.98804687 9.86919922 46.98804687 9.86328125 45.828125 C9.87320033 40.25359933 9.87320033 40.25359933 11 38 C11.62254769 30.32590256 10.79033385 24.1126157 8 17 C6.92301979 13.35023373 5.88810609 9.70044205 5 6 C4.34 6 3.68 6 3 6 C3 5.34 3 4.68 3 4 C2.01 3.67 1.02 3.34 0 3 C0 2.01 0 1.02 0 0 Z " fill="#E49452" transform="translate(62,15)"/>
<path d="M0 0 C0.495 1.485 0.495 1.485 1 3 C2.65438613 3.69658363 4.32254318 4.36096883 6 5 C7.6875 6.5625 7.6875 6.5625 9 8 C9.99 8.495 9.99 8.495 11 9 C11 10.32 11 11.64 11 13 C11.66 13 12.32 13 13 13 C14.33827901 15.67655801 14.20578556 17.82434052 14.25 20.8125 C14.27578125 21.85019531 14.3015625 22.88789062 14.328125 23.95703125 C13.65476682 30.20162679 9.63626256 33.6633465 5.07421875 37.55078125 C2.43760427 39.39293562 0.19927692 39.92001808 -3 40 C-1.75 37.5625 -1.75 37.5625 0 35 C0.66 34.87625 1.32 34.7525 2 34.625 C4.38770689 34.13204204 4.38770689 34.13204204 5.6875 30.9375 C7.57976215 25.91214807 8.94641084 20.19042889 7 15 C6.34 15 5.68 15 5 15 C4.443125 13.88625 3.88625 12.7725 3.3125 11.625 C1.74673198 8.84702448 1.18104516 8.09463724 -1.75 6.5625 C-2.4925 6.376875 -3.235 6.19125 -4 6 C-4 5.34 -4 4.68 -4 4 C-10.71031562 3.17229587 -17.43181973 2.82130345 -24.1875 2.6875 C-24.93499512 2.65785156 -25.68249023 2.62820312 -26.45263672 2.59765625 C-31.52176529 2.5440265 -34.88948358 3.56863004 -39.2668457 6.13598633 C-41 7 -41 7 -44 7 C-44.28875 7.5775 -44.5775 8.155 -44.875 8.75 C-45.56582608 10.13165215 -46.28415304 11.50044864 -47.046875 12.84375 C-49.03174435 17.33411017 -48.85293025 22.67858134 -47.171875 27.25390625 C-46.17628834 29.21164569 -45.10298459 31.10135095 -44 33 C-43.30959426 34.65697379 -42.63028587 36.31923769 -42 38 C-45.82675111 36.44095325 -48.18007783 33.96833913 -51 31 C-51.66 30.34 -52.32 29.68 -53 29 C-54.65765229 22.03786038 -55.03582008 14.82705671 -51.94140625 8.25 C-40.11347595 -5.45802385 -15.83141695 -5.86438158 0 0 Z " fill="#F8C206" transform="translate(151,102)"/>
<path d="M0 0 C0.92397402 14.61932221 0.92397402 14.61932221 -3.50390625 20.52734375 C-5.7138803 22.70269679 -8.16827235 23.79500951 -11 25 C-11.598125 25.721875 -12.19625 26.44375 -12.8125 27.1875 C-15.83283397 29.69006244 -18.1615783 29.39930933 -21.9765625 29.3359375 C-24 29 -24 29 -26 27 C-26 26.01 -26 25.02 -26 24 C-26.66 24 -27.32 24 -28 24 C-23.76409815 9.45673698 -23.76409815 9.45673698 -19 5 C-18.67 4.34 -18.34 3.68 -18 3 C-16.35965807 2.27095914 -14.68698082 1.61344757 -13 1 C-12.236875 0.608125 -11.47375 0.21625 -10.6875 -0.1875 C-6.84963659 -1.34778429 -3.93763813 -0.66739629 0 0 Z " fill="#F9DBC0" transform="translate(113,16)"/>
<path d="M0 0 C2.875 -0.125 2.875 -0.125 6 0 C8 2 8 2 8.1953125 4.3828125 C8.17210938 5.28773437 8.14890625 6.19265625 8.125 7.125 C8.10695313 8.03507812 8.08890625 8.94515625 8.0703125 9.8828125 C8.04710938 10.58148438 8.02390625 11.28015625 8 12 C7.34 12 6.68 12 6 12 C5.731875 12.680625 5.46375 13.36125 5.1875 14.0625 C4.795625 15.031875 4.40375 16.00125 4 17 C3.62875 18.11375 3.2575 19.2275 2.875 20.375 C0.8193749 25.08537711 -2.69997815 28.28379403 -7 31 C-9.9318741 31.97555241 -11.83465141 32.05364998 -15 32 C-15.99 31.34 -16.98 30.68 -18 30 C-18.36328125 27.7578125 -18.36328125 27.7578125 -18.3125 25.125 C-18.30863281 24.26132812 -18.30476563 23.39765625 -18.30078125 22.5078125 C-17.9897786 19.9147774 -17.30753633 18.24000247 -16 16 C-15.34 16 -14.68 16 -14 16 C-14.061875 15.05125 -14.12375 14.1025 -14.1875 13.125 C-14.125625 12.09375 -14.06375 11.0625 -14 10 C-13.01 9.34 -12.02 8.68 -11 8 C-10.67 7.01 -10.34 6.02 -10 5 C-6.625 3.875 -6.625 3.875 -3 3 C-2.01 2.67 -1.02 2.34 0 2 C0 1.34 0 0.68 0 0 Z " fill="#F9DBBF" transform="translate(36,14)"/>
<path d="M0 0 C0.495 0.99 0.495 0.99 1 2 C0.67 2.66 0.34 3.32 0 4 C0.66 4 1.32 4 2 4 C2.99 6.475 2.99 6.475 4 9 C-0.03009619 9.17522157 -3.47764373 8.95739803 -7.40625 8.03125 C-13.78523281 6.70947879 -20.12904205 6.5488049 -26.625 6.375 C-28.41744141 6.31699219 -28.41744141 6.31699219 -30.24609375 6.2578125 C-33.16391736 6.16444214 -36.08174921 6.07866422 -39 6 C-39 6.66 -39 7.32 -39 8 C-42.63 8.33 -46.26 8.66 -50 9 C-50 9.66 -50 10.32 -50 11 C-51.01320313 11.14695312 -51.01320313 11.14695312 -52.046875 11.296875 C-57.31931765 12.18069487 -60.49778183 12.71951113 -64 17 C-65.66279327 18.0064275 -67.32983484 19.00585407 -69 20 C-74.75637362 24.04170914 -77.6982833 28.84591266 -81 35 C-81.598125 36.0725 -82.19625 37.145 -82.8125 38.25 C-84.64942326 44.05081029 -84.75654737 49.94726402 -85 56 C-88.94862715 50.07705928 -87.32510574 41.13929276 -86.78125 34.21484375 C-84.93049731 24.97650326 -75.6368815 16.09125434 -68 11 C-68.33 10.01 -68.66 9.02 -69 8 C-68.01 8.33 -67.02 8.66 -66 9 C-66 9.66 -66 10.32 -66 11 C-61.90340898 10.67227272 -59.42607639 10.29292752 -56 7.9375 C-52.39396433 5.60860196 -50.21035669 5.66317146 -46 6 C-46 5.34 -46 4.68 -46 4 C-43.36 3.67 -40.72 3.34 -38 3 C-38 2.34 -38 1.68 -38 1 C-27.61562308 0.90223913 -17.33807949 0.8444462 -7 2 C-7 2.66 -7 3.32 -7 4 C-5.35 4 -3.7 4 -2 4 C-1.34 2.68 -0.68 1.36 0 0 Z " fill="#F1D996" transform="translate(151,87)"/>
<path d="M0 0 C0 0.99 0 1.98 0 3 C1.32 3.33 2.64 3.66 4 4 C4 4.66 4 5.32 4 6 C2.783125 5.67 1.56625 5.34 0.3125 5 C-9.2264812 2.91193955 -17.96903466 3.32638698 -27 7 C-27 7.66 -27 8.32 -27 9 C-27.66 9 -28.32 9 -29 9 C-29 9.66 -29 10.32 -29 11 C-29.66 11 -30.32 11 -31 11 C-31.0928125 11.86625 -31.0928125 11.86625 -31.1875 12.75 C-32.31626214 15.87580285 -34.41383298 16.98152818 -37 19 C-38.31165257 21.11660427 -38.31165257 21.11660427 -39 23 C-39.33 23 -39.66 23 -40 23 C-40.33 21.35 -40.66 19.7 -41 18 C-45.94823209 20.47411604 -47.50203477 29.56534777 -49.21484375 34.5 C-53.89792821 49.96584476 -53.57693273 65.13267048 -47 80 C-44.96280777 82.86224272 -44.96280777 82.86224272 -43 85 C-43.495 85.99 -43.495 85.99 -44 87 C-52.93915696 78.06084304 -54.49809573 67.64378317 -54.5625 55.5 C-54.45967701 46.28381268 -53.67966976 38.51819656 -50 30 C-49.40445313 28.42025391 -49.40445313 28.42025391 -48.796875 26.80859375 C-46.517012 20.92856735 -44.0698406 15.83981045 -40 11 C-39.34 11 -38.68 11 -38 11 C-37.73058594 10.401875 -37.46117188 9.80375 -37.18359375 9.1875 C-33.72826384 2.80141172 -27.42215491 -0.13521855 -20.765625 -2.30859375 C-13.19033796 -4.20241551 -7.15411992 -2.84135259 0 0 Z " fill="#F0BE94" transform="translate(57,8)"/>
<path d="M0 0 C1 3 1 3 0 6 C-0.07051114 8.73865287 -0.09357765 11.45027588 -0.0625 14.1875 C-0.05798828 14.93708984 -0.05347656 15.68667969 -0.04882812 16.45898438 C-0.03706354 18.30602383 -0.01912865 20.15302213 0 22 C0.01417969 21.33355469 0.02835937 20.66710937 0.04296875 19.98046875 C0.43482304 12.40814927 2.49484646 6.68695344 6 0 C6.33 0.99 6.66 1.98 7 3 C6.2884375 4.3921875 6.2884375 4.3921875 5.5625 5.8125 C2.53288104 12.49175296 2.96233116 20.45463147 4.984375 27.36328125 C8.04418864 34.94670827 10.75839214 41.11231804 18.28125 44.9375 C20 46 20 46 22.4375 49 C25.54321017 52.63595337 28.66084242 54.16958613 33 56 C31.02 56.495 31.02 56.495 29 57 C29 56.34 29 55.68 29 55 C28.01 55 27.02 55 26 55 C30.20335299 60.19237722 37.70786005 61.81095064 44 63 C46.98561926 63.28353554 49.93977216 63.33295358 52.9375 63.3125 C53.72801758 63.31121094 54.51853516 63.30992187 55.33300781 63.30859375 C60.35424335 63.22570088 64.56272061 62.62897536 69.23046875 60.66796875 C71.83041696 59.68653134 74.26242986 59.78941768 77 60 C71.13117475 65.86882525 60.3876398 65.36303451 52.5625 65.4375 C37.27434146 65.33369152 23.1567631 60.42303594 11.71875 49.91015625 C1.55448269 38.61395917 -3.92029182 27.05274287 -3.33984375 11.70703125 C-2.92981656 7.2344358 -1.9981019 3.99620379 0 0 Z " fill="#F3E5BA" transform="translate(65,118)"/>
<path d="M0 0 C-0.33 0.99 -0.66 1.98 -1 3 C-2.98 3.33 -4.96 3.66 -7 4 C-7 4.66 -7 5.32 -7 6 C-7.75095947 6.19634033 -8.50191895 6.39268066 -9.27563477 6.5949707 C-12.70608015 7.49524105 -16.13428019 8.4037932 -19.5625 9.3125 C-20.74392578 9.62123047 -21.92535156 9.92996094 -23.14257812 10.24804688 C-30.16660805 12.06980585 -30.16660805 12.06980585 -36.92578125 14.6640625 C-40.21971291 16.0954788 -43.07020838 16.62557454 -46.625 17.0625 C-51.11367998 17.60760326 -51.11367998 17.60760326 -55.36328125 19.0390625 C-59.10747295 20.40361236 -62.60676351 20.3406724 -66.5625 20.3125 C-67.75697754 20.30621582 -67.75697754 20.30621582 -68.97558594 20.29980469 C-77.945717 20.12960034 -86.98919716 19.03708022 -94 13 C-94 12.34 -94 11.68 -94 11 C-93.01 11 -92.02 11 -91 11 C-91 11.66 -91 12.32 -91 13 C-90.030625 12.95875 -89.06125 12.9175 -88.0625 12.875 C-85.22175858 12.86374954 -82.8564095 13.24393733 -80.125 14 C-65.91755602 17.25836827 -53.47011384 14.3209907 -40.02026367 9.55078125 C-38 9 -38 9 -34 9 C-34 8.34 -34 7.68 -34 7 C-27.99907229 5.3174969 -22.01312699 3.7549684 -15.9140625 2.47265625 C-13.85606483 2.02530431 -13.85606483 2.02530431 -11.5 0.875 C-7.71215605 -0.45074538 -3.97445342 -0.15586092 0 0 Z " fill="#EFDFA6" transform="translate(185,162)"/>
<path d="M0 0 C0.25 5.625 0.25 5.625 -2 9 C-2.75277373 11.39467264 -3.43378318 13.76108337 -4.0625 16.1875 C-4.40410156 17.45980469 -4.74570313 18.73210938 -5.09765625 20.04296875 C-6.74767109 26.85465494 -7.18118482 33.58422867 -7.1875 40.5625 C-7.19974609 41.27857422 -7.21199219 41.99464844 -7.22460938 42.73242188 C-7.24203643 49.11653332 -5.93460866 54.65788992 -2.875 60.3125 C-1 63.79562044 -1 63.79562044 -1 66 C-0.01 66.33 0.98 66.66 2 67 C3.66666667 68.66666667 5.33333333 70.33333333 7 72 C8.485 72.495 8.485 72.495 10 73 C10 73.66 10 74.32 10 75 C11.485 75.495 11.485 75.495 13 76 C13 76.66 13 77.32 13 78 C7.63239961 77.57901173 4.99676742 76.56468445 1 73 C-0.0209375 72.5978125 -0.0209375 72.5978125 -1.0625 72.1875 C-4.18402293 70.27430853 -5.43539059 67.1898626 -7 64 C-7.35320313 63.28070313 -7.70640625 62.56140625 -8.0703125 61.8203125 C-16.10968466 44.61010099 -13.88059187 27.77842754 -7.88476562 10.25244141 C-3.85757641 0 -3.85757641 0 0 0 Z " fill="#E4995B" transform="translate(17,25)"/>
<path d="M0 0 C2.875 0.75 2.875 0.75 6 2 C7.1875 4.0625 7.1875 4.0625 8 6 C8.99 6.33 9.98 6.66 11 7 C13.6875 9.3125 13.6875 9.3125 16 12 C16 13.32 16 14.64 16 16 C19.01425856 15.34304975 19.01425856 15.34304975 20.02734375 13.40625 C20.32769531 12.7771875 20.62804687 12.148125 20.9375 11.5 C22.732178 8.1115925 22.732178 8.1115925 25.25 7.0625 C25.8275 7.041875 26.405 7.02125 27 7 C26.52550039 10.91462175 25.11671675 13.62979483 23.11328125 16.98828125 C17.5902884 26.96842623 15.77157932 37.30129978 15.375 48.5625 C15.31699219 49.93245117 15.31699219 49.93245117 15.2578125 51.33007812 C15.16469748 53.55319924 15.07887834 55.77633613 15 58 C14.67 58 14.34 58 14 58 C13.97494385 57.37432129 13.9498877 56.74864258 13.92407227 56.10400391 C13.80824727 53.27745381 13.68546015 50.45124831 13.5625 47.625 C13.52318359 46.64015625 13.48386719 45.6553125 13.44335938 44.640625 C13.40146484 43.69960938 13.35957031 42.75859375 13.31640625 41.7890625 C13.27974854 40.91975098 13.24309082 40.05043945 13.20532227 39.15478516 C13.12598456 36.9516738 13.12598456 36.9516738 12 35 C11.84574643 33.64885301 11.72545985 32.29370801 11.625 30.9375 C11.20101242 26.74473397 10.1772456 23.09328892 8.76171875 19.13671875 C7.2311933 14.84339865 6.06327674 10.43031973 5 6 C4.34 6 3.68 6 3 6 C3 5.34 3 4.68 3 4 C2.01 3.67 1.02 3.34 0 3 C0 2.01 0 1.02 0 0 Z " fill="#EBA66B" transform="translate(62,15)"/>
<path d="M0 0 C14.56267622 -0.43341298 28.07498076 -0.71178899 42 4 C38.90279155 4.87840996 37.09354597 4.99435406 34 4 C34.495 6.475 34.495 6.475 35 9 C34.47535156 8.855625 33.95070312 8.71125 33.41015625 8.5625 C22.96365139 6.05951048 10.17568013 4.6376184 0.56640625 10.22265625 C0.04949219 10.47917969 -0.46742187 10.73570313 -1 11 C-1.66 10.67 -2.32 10.34 -3 10 C-1 7 -1 7 1.5625 6.4375 C2.7690625 6.2209375 2.7690625 6.2209375 4 6 C4.33 5.34 4.66 4.68 5 4 C0.83861737 3.91840426 -2.9472484 4.01751476 -7 5 C-7 5.66 -7 6.32 -7 7 C-7.58007812 6.94199219 -8.16015625 6.88398437 -8.7578125 6.82421875 C-13.33198982 6.56003359 -15.31717312 6.47046079 -19.0625 9.375 C-20.031875 10.24125 -21.00125 11.1075 -22 12 C-24.66722858 12.96680963 -27.19872667 13.46872402 -30 14 C-27.86447403 10.79671105 -26.26767874 9.87891527 -23 8 C-22.34 7.34 -21.68 6.68 -21 6 C-18.6171875 5.5859375 -18.6171875 5.5859375 -15.875 5.375 C-14.96492188 5.30023438 -14.05484375 5.22546875 -13.1171875 5.1484375 C-12.41851562 5.09945312 -11.71984375 5.05046875 -11 5 C-11 4.34 -11 3.68 -11 3 C-7.32589215 1.82428549 -3.83070817 1.92633254 0 2 C0 1.34 0 0.68 0 0 Z " fill="#FBF7E4" transform="translate(112,93)"/>
<path d="M0 0 C3.74497454 0.21399855 4.92156923 0.92156923 7.625 3.625 C10.11170379 6.85225821 11.48062175 10.23773005 13 14 C13.66 14.66 14.32 15.32 15 16 C15.1953125 18.3828125 15.1953125 18.3828125 15.125 21.125 C15.09792969 22.49011719 15.09792969 22.49011719 15.0703125 23.8828125 C15.03550781 24.93082031 15.03550781 24.93082031 15 26 C15.66 26 16.32 26 17 26 C18.27041977 35.04039783 19.34915606 43.84435229 19 53 C17.515 53.495 17.515 53.495 16 54 C15.67 46.08 15.34 38.16 15 30 C14.34 30 13.68 30 13 30 C13 29.34 13 28.68 13 28 C12.01 28 11.02 28 10 28 C8.74335022 25.09399739 8 23.20395416 8 20 C7.01 19.67 6.02 19.34 5 19 C5 16.69 5 14.38 5 12 C4.34 12 3.68 12 3 12 C2.49440092 10.56445975 1.9957251 9.1264798 1.5 7.6875 C1.2215625 6.88699219 0.943125 6.08648437 0.65625 5.26171875 C0 3 0 3 0 0 Z " fill="#ECA566" transform="translate(136,19)"/>
<path d="M0 0 C0.74958984 0.00346436 1.49917969 0.00692871 2.27148438 0.01049805 C9.34437652 0.14576786 16.51264874 0.83995601 23.1875 3.3125 C23.6825 4.7975 23.6825 4.7975 24.1875 6.3125 C25.84188613 7.00908363 27.51004318 7.67346883 29.1875 8.3125 C30.875 9.875 30.875 9.875 32.1875 11.3125 C32.8475 11.6425 33.5075 11.9725 34.1875 12.3125 C34.1875 13.6325 34.1875 14.9525 34.1875 16.3125 C34.8475 16.3125 35.5075 16.3125 36.1875 16.3125 C37.52577901 18.98905801 37.39328556 21.13684052 37.4375 24.125 C37.46328125 25.16269531 37.4890625 26.20039062 37.515625 27.26953125 C36.84226682 33.51412679 32.82376256 36.9758465 28.26171875 40.86328125 C25.62510427 42.70543562 23.38677692 43.23251808 20.1875 43.3125 C21.4375 40.875 21.4375 40.875 23.1875 38.3125 C23.8475 38.18875 24.5075 38.065 25.1875 37.9375 C27.57520689 37.44454204 27.57520689 37.44454204 28.875 34.25 C31.73668518 26.48708605 31.54373388 20.80858183 28.1875 13.3125 C27.5275 12.3225 26.8675 11.3325 26.1875 10.3125 C26.1875 9.6525 26.1875 8.9925 26.1875 8.3125 C25.1975 8.3125 24.2075 8.3125 23.1875 8.3125 C22.795625 7.85875 22.40375 7.405 22 6.9375 C16.58519455 2.08284684 7.01960528 2.89271968 0.1875 2.6875 C-1.40384766 2.62949219 -1.40384766 2.62949219 -3.02734375 2.5703125 C-5.62223067 2.47680306 -8.21712449 2.39105098 -10.8125 2.3125 C-7.12330963 -0.14696024 -4.2726204 -0.0315827 0 0 Z " fill="#F8BF07" transform="translate(127.8125,98.6875)"/>
<path d="M0 0 C0 0.99 0 1.98 0 3 C0.66 3 1.32 3 2 3 C2 4.32 2 5.64 2 7 C-2.58918919 6.23513514 -2.58918919 6.23513514 -4.78125 4.98046875 C-10.55756739 2.42790596 -18.70552744 3.21678477 -24.5625 5.3125 C-27.91019924 6.82362872 -27.91019924 6.82362872 -30.25 8.6875 C-32 10 -32 10 -36 10 C-34.45409333 5.71902769 -32.93732684 2.21176428 -28.9765625 -0.265625 C-19.23249661 -4.3445363 -9.59289963 -4.51430571 0 0 Z " fill="#E59C5E" transform="translate(128,8)"/>
<path d="M0 0 C0.99 0.33 1.98 0.66 3 1 C3.12375 1.969375 3.2475 2.93875 3.375 3.9375 C3.58125 4.948125 3.7875 5.95875 4 7 C4.66 7.33 5.32 7.66 6 8 C4.700625 8.8353125 4.700625 8.8353125 3.375 9.6875 C-3.92090627 14.63707022 -7.81761976 19.2044392 -12 27 C-12.598125 28.0725 -13.19625 29.145 -13.8125 30.25 C-15.64942326 36.05081029 -15.75654737 41.94726402 -16 48 C-19.94862715 42.07705928 -18.32510574 33.13929276 -17.78125 26.21484375 C-15.93049731 16.97650326 -6.6368815 8.09125434 1 3 C0.67 2.01 0.34 1.02 0 0 Z " fill="#F1E3B6" transform="translate(82,95)"/>
<path d="M0 0 C-0.61875 0.598125 -1.2375 1.19625 -1.875 1.8125 C-4.13676954 4.00811144 -4.13676954 4.00811144 -6 7 C-13.45108383 9.9900272 -26.32050618 10.89554445 -33.94213867 8.35180664 C-35.65147531 7.62025806 -37.32809601 6.81346918 -39 6 C-40.6642135 5.32723284 -42.32986582 4.65793165 -44 4 C-41.32236099 3.03604996 -39.73597211 3.03927415 -36.875 3.46484375 C-32.72091392 4.03854314 -28.74609154 4.14759365 -24.5625 4.125 C-23.49418945 4.13080078 -23.49418945 4.13080078 -22.40429688 4.13671875 C-17.52317515 4.12785204 -12.8327382 3.68649945 -8 3 C-8 2.34 -8 1.68 -8 1 C-3.375 -1.125 -3.375 -1.125 0 0 Z " fill="#F8C108" transform="translate(153,137)"/>
<path d="M0 0 C-0.47384827 3.90924824 -1.87400744 6.62220402 -3.8828125 9.97265625 C-6.82977562 15.32046694 -8.94153715 20.99135229 -10 27 C-10.66 27 -11.32 27 -12 27 C-13.3355712 22.9932864 -13.32557904 19.11204508 -13.5234375 14.91015625 C-14.04538743 11.72283904 -15.06903896 10.49730436 -17 8 C-16.67 7.01 -16.34 6.02 -16 5 C-13.525 5.99 -13.525 5.99 -11 7 C-11 7.66 -11 8.32 -11 9 C-7.59402245 7.86467415 -7.46547428 7.51883178 -5.9375 4.5 C-3.64139344 0 -3.64139344 0 0 0 Z " fill="#E5914F" transform="translate(89,22)"/>
<path d="M0 0 C0.33 0 0.66 0 1 0 C1.12375 1.216875 1.2475 2.43375 1.375 3.6875 C1.68832006 6.31385929 2.05037612 8.11474561 3.125 10.5625 C4.36557904 14.01839875 3.84932967 16.47201523 3 20 C1.75 21.9375 1.75 21.9375 0 23 C-3.13340215 23.42343272 -4.97030546 23.01137238 -7.9375 21.875 C-11.6812267 20.8053638 -13.48280203 21.49262944 -17 23 C-15 20 -15 20 -12.375 19.3125 C-11.59125 19.209375 -10.8075 19.10625 -10 19 C-10 18.34 -10 17.68 -10 17 C-9.34 17 -8.68 17 -8 17 C-7.67 16.01 -7.34 15.02 -7 14 C-6.34 14 -5.68 14 -5 14 C-5 13.34 -5 12.68 -5 12 C-4.360625 11.46375 -3.72125 10.9275 -3.0625 10.375 C-0.12796581 6.99583942 -0.29430229 4.41453428 0 0 Z " fill="#EFAA6E" transform="translate(72,72)"/>
<path d="M0 0 C5.93069457 5.93069457 6.7148525 20.60991576 7.10546875 28.53125 C6.86666608 36.38520454 5.75074048 43.66567936 1 50 C1 45.38 1 40.76 1 36 C2.485 35.505 2.485 35.505 4 35 C3.855625 33.80503906 3.71125 32.61007813 3.5625 31.37890625 C3.37472957 29.77346911 3.1872449 28.16799852 3 26.5625 C2.85691406 25.3878418 2.85691406 25.3878418 2.7109375 24.18945312 C2.08488869 18.75624381 1.91240429 13.46925737 2 8 C1.34 8 0.68 8 0 8 C0 5.36 0 2.72 0 0 Z " fill="#E8B387" transform="translate(151,37)"/>
<path d="M0 0 C1 3 1 3 0 6 C-0.07051114 8.73865287 -0.09357765 11.45027588 -0.0625 14.1875 C-0.05798828 14.93708984 -0.05347656 15.68667969 -0.04882812 16.45898438 C-0.03706354 18.30602383 -0.01912865 20.15302213 0 22 C0.01417969 21.33355469 0.02835937 20.66710937 0.04296875 19.98046875 C0.43482304 12.40814927 2.49484646 6.68695344 6 0 C6.33 0.99 6.66 1.98 7 3 C6.2884375 4.3921875 6.2884375 4.3921875 5.5625 5.8125 C2.18453757 13.03115944 3.56594049 22.40179762 5 30 C4.67 29.34 4.34 28.68 4 28 C3.34 28 2.68 28 2 28 C2.66 31.3 3.32 34.6 4 38 C-2.09334457 31.90665543 -3.39572757 24.16990093 -3.4375 15.8125 C-3.3740232 9.98969833 -2.61525781 5.23051562 0 0 Z " fill="#F7ECC7" transform="translate(65,118)"/>
<path d="M0 0 C3.46365398 1.15455133 4.19137152 1.90559139 6 5 C6.29296875 7.578125 6.29296875 7.578125 6.1875 10.25 C6.16042969 11.14203125 6.13335937 12.0340625 6.10546875 12.953125 C6.07066406 13.62859375 6.03585938 14.3040625 6 15 C6.66 15 7.32 15 8 15 C9.27041977 24.04039783 10.34915606 32.84435229 10 42 C8.515 42.495 8.515 42.495 7 43 C6.67 35.08 6.34 27.16 6 19 C5.34 19 4.68 19 4 19 C3.79503906 18.22914062 3.59007812 17.45828125 3.37890625 16.6640625 C3.10949219 15.66117188 2.84007812 14.65828125 2.5625 13.625 C2.16224609 12.12839844 2.16224609 12.12839844 1.75390625 10.6015625 C1.09815644 8.04582299 1.09815644 8.04582299 0 6 C-0.039992 4.00039988 -0.04346799 1.99952758 0 0 Z " fill="#E68C44" transform="translate(145,30)"/>
<path d="M0 0 C0.99 0.66 1.98 1.32 3 2 C3 3.32 3 4.64 3 6 C-2.54165256 9.77304004 -6.34454208 10.54330269 -13 10 C-13.33 8.35 -13.66 6.7 -14 5 C-13.34 5 -12.68 5 -12 5 C-12 4.34 -12 3.68 -12 3 C-7.80058648 0.60033513 -4.85515649 -0.53946183 0 0 Z " fill="#FAFCD1" transform="translate(125,107)"/>
<path d="M0 0 C0.33 0.66 0.66 1.32 1 2 C0.07421875 3.9453125 0.07421875 3.9453125 -1.3125 6.125 C-1.76238281 6.84945312 -2.21226562 7.57390625 -2.67578125 8.3203125 C-3.11277344 8.87460938 -3.54976562 9.42890625 -4 10 C-4.66 10 -5.32 10 -6 10 C-6 10.66 -6 11.32 -6 12 C-11.2808951 16.60855892 -16.04242456 18.74699726 -23 19 C-20 17 -20 17 -17 16 C-16.67 15.34 -16.34 14.68 -16 14 C-18.31 14 -20.62 14 -23 14 C-19.00714201 11.33809468 -15.65872122 9.1646803 -11 8 C-10.67 7.34 -10.34 6.68 -10 6 C-9.34 6 -8.68 6 -8 6 C-7.67 5.34 -7.34 4.68 -7 4 C-7 4.99 -7 5.98 -7 7 C-6.01 7 -5.02 7 -4 7 C-3.71125 6.21625 -3.4225 5.4325 -3.125 4.625 C-2 2 -2 2 0 0 Z " fill="#F2E4B3" transform="translate(201,148)"/>
<path d="M0 0 C0 3.42640772 -0.84086316 5.14310792 -2.25 8.25 C-9.6833382 25.91211984 -11.83682067 42.39773658 -5.484375 60.64453125 C-4.02384145 63.94610579 -2.3923254 66.31630164 0 69 C-0.495 69.99 -0.495 69.99 -1 71 C-9.93915696 62.06084304 -11.49809573 51.64378317 -11.5625 39.5 C-11.45973203 30.28874415 -10.68672759 22.51148043 -7 14 C-6.56816406 12.88882813 -6.13632813 11.77765625 -5.69140625 10.6328125 C-2.44529727 2.44529727 -2.44529727 2.44529727 0 0 Z " fill="#F9DEC1" transform="translate(14,24)"/>
<path d="M0 0 C0.99 0.33 1.98 0.66 3 1 C3 2.32 3 3.64 3 5 C3.66 5 4.32 5 5 5 C6.33827901 7.67655801 6.20578556 9.82434052 6.25 12.8125 C6.27578125 13.85019531 6.3015625 14.88789062 6.328125 15.95703125 C5.65476682 22.20162679 1.63626256 25.6633465 -2.92578125 29.55078125 C-5.56239573 31.39293562 -7.80072308 31.92001808 -11 32 C-9.75 29.5625 -9.75 29.5625 -8 27 C-7.360625 26.87625 -6.72125 26.7525 -6.0625 26.625 C-3.38362717 25.81322035 -3.10179811 24.83061255 -1.75 22.4375 C-1.1725 21.303125 -0.595 20.16875 0 19 C1.32 19.33 2.64 19.66 4 20 C3.52233101 17.41638159 3.04292208 14.83310662 2.5625 12.25 C2.42779297 11.52039063 2.29308594 10.79078125 2.15429688 10.0390625 C1.52540733 6.66453325 0.85677827 3.32365306 0 0 Z " fill="#F3C11A" transform="translate(159,110)"/>
<path d="M0 0 C-0.33 1.32 -0.66 2.64 -1 4 C-0.34 4 0.32 4 1 4 C1.3125 6.8125 1.3125 6.8125 1 10 C-1.375 11.8125 -1.375 11.8125 -4 13 C-4.99 13.495 -4.99 13.495 -6 14 C-8.04055005 14.07065617 -10.08334257 14.08421976 -12.125 14.0625 C-13.22070312 14.05347656 -14.31640625 14.04445313 -15.4453125 14.03515625 C-16.70988281 14.01775391 -16.70988281 14.01775391 -18 14 C-18.33 11.69 -18.66 9.38 -19 7 C-18.34 7 -17.68 7 -17 7 C-17 5.68 -17 4.36 -17 3 C-11.42531458 -0.61601216 -6.39432346 -0.30720059 0 0 Z M-16 6 C-16 6.66 -16 7.32 -16 8 C-16.66 8 -17.32 8 -18 8 C-17.67 9.65 -17.34 11.3 -17 13 C-10.34454208 13.54330269 -6.54165256 12.77304004 -1 9 C-1.34444881 6.52733235 -1.34444881 6.52733235 -2 4 C-7.09199843 1.45400079 -11.36924672 3.35385527 -16 6 Z " fill="#FBE231" transform="translate(129,104)"/>
<path d="M0 0 C1.56234375 0.06380859 1.56234375 0.06380859 3.15625 0.12890625 C7.32780268 0.5450081 11.20031201 1.3575832 15.25 2.4375 C15.25 3.0975 15.25 3.7575 15.25 4.4375 C16.57 4.7675 17.89 5.0975 19.25 5.4375 C19.25 6.0975 19.25 6.7575 19.25 7.4375 C17.99316406 7.11007813 16.73632812 6.78265625 15.44140625 6.4453125 C9.98997719 5.23388382 4.74890111 5.21187618 -0.8125 5.3125 C-1.77349609 5.32152344 -2.73449219 5.33054687 -3.72460938 5.33984375 C-6.06667805 5.36314792 -8.40819792 5.39585942 -10.75 5.4375 C-7.25232775 1.39730559 -5.40302716 -0.2215527 0 0 Z " fill="#E29353" transform="translate(41.75,6.5625)"/>
<path d="M0 0 C0.66 0.33 1.32 0.66 2 1 C0.02 3.97 0.02 3.97 -2 7 C-1.01 7 -0.02 7 1 7 C0.38722388 9.96175123 -0.25372522 11.38058783 -2 14 C-2.66 14 -3.32 14 -4 14 C-4.0825 14.78375 -4.165 15.5675 -4.25 16.375 C-5 19 -5 19 -7.0625 20.3125 C-7.701875 20.539375 -8.34125 20.76625 -9 21 C-7.66666667 17.66666667 -6.33333333 14.33333333 -5 11 C-9.66154042 12.49835228 -10.86610751 15.88463591 -13 20 C-13.99 20 -14.98 20 -16 20 C-12.59000958 13.18001916 -8.00787509 7.61069483 -2 3 C-1.34 2.01 -0.68 1.02 0 0 Z " fill="#ECBB92" transform="translate(94,11)"/>
<path d="M0 0 C0.99 0.33 1.98 0.66 3 1 C3.12375 1.969375 3.2475 2.93875 3.375 3.9375 C3.58125 4.948125 3.7875 5.95875 4 7 C4.66 7.33 5.32 7.66 6 8 C5.071875 8.598125 4.14375 9.19625 3.1875 9.8125 C0.11550825 11.77779546 0.11550825 11.77779546 -1.75 13.75 C-2.1625 14.1625 -2.575 14.575 -3 15 C-3.66 15 -4.32 15 -5 15 C-5.33 14.34 -5.66 13.68 -6 13 C-6.99 13.99 -7.98 14.98 -9 16 C-9.66 15.67 -10.32 15.34 -11 15 C-9.56665422 13.37133456 -8.12817021 11.74719006 -6.6875 10.125 C-5.88699219 9.22007813 -5.08648437 8.31515625 -4.26171875 7.3828125 C-2 5 -2 5 1 3 C0.67 2.01 0.34 1.02 0 0 Z " fill="#EFE1AA" transform="translate(82,95)"/>
<path d="M0 0 C0.33 0.66 0.66 1.32 1 2 C0.67 2.66 0.34 3.32 0 4 C0.66 4 1.32 4 2 4 C2.66 5.65 3.32 7.3 4 9 C0.010799 9.17344352 -3.42278382 8.97257224 -7.3125 8.0625 C-15.07669271 6.35993208 -23.08335335 6.32770433 -31 6 C-31 5.67 -31 5.34 -31 5 C-21.43 4.67 -11.86 4.34 -2 4 C-1.34 2.68 -0.68 1.36 0 0 Z " fill="#EDDDA1" transform="translate(151,87)"/>
<path d="M0 0 C0 0.66 0 1.32 0 2 C0.66 2 1.32 2 2 2 C2 3.32 2 4.64 2 6 C-0.88236987 5.58823288 -2.73780567 5.18893415 -5.125 3.46875 C-9.09036651 1.44296493 -12.43424797 1.6693719 -16.8125 1.8125 C-17.99489258 1.83280273 -17.99489258 1.83280273 -19.20117188 1.85351562 C-21.13441169 1.88866544 -23.06729682 1.94246639 -25 2 C-24 0 -24 0 -22 -1.125 C-14.60426625 -3.28208901 -7.34991925 -1.7185615 0 0 Z " fill="#E28A48" transform="translate(128,9)"/>
<path d="M0 0 C0.66 0.33 1.32 0.66 2 1 C0.625 3 0.625 3 -1 5 C-1.66 5 -2.32 5 -3 5 C-2.979375 6.299375 -2.95875 7.59875 -2.9375 8.9375 C-2.91600546 10.29165633 -2.92851801 11.64756083 -3 13 C-3.33 13.33 -3.66 13.66 -4 14 C-3.90997602 16.02408755 -3.75358962 18.04544287 -3.5625 20.0625 C-3.46066406 21.16722656 -3.35882813 22.27195313 -3.25390625 23.41015625 C-3.17011719 24.26480469 -3.08632812 25.11945313 -3 26 C-2.21238281 26.09152344 -1.42476563 26.18304688 -0.61328125 26.27734375 C0.68029297 26.63505859 0.68029297 26.63505859 2 27 C3.8125 30.5625 3.8125 30.5625 5 34 C1.17324889 32.44095325 -1.18007783 29.96833913 -4 27 C-4.66 26.34 -5.32 25.68 -6 25 C-7.88127213 17.09865704 -7.48169954 11.17048098 -4.16796875 3.8828125 C-3 2 -3 2 0 0 Z " fill="#F2C93B" transform="translate(104,106)"/>
<path d="M0 0 C0.8971875 1.175625 0.8971875 1.175625 1.8125 2.375 C3.91085249 5.14574323 3.91085249 5.14574323 7 7 C7 7.66 7 8.32 7 9 C7.66 9 8.32 9 9 9 C9 9.66 9 10.32 9 11 C4.91281305 11.24042276 1.82320557 10.42258812 -2 9 C-2.45375 9.66 -2.9075 10.32 -3.375 11 C-3.91125 11.66 -4.4475 12.32 -5 13 C-5.66 13 -6.32 13 -7 13 C-7 13.66 -7 14.32 -7 15 C-7.99 15.66 -8.98 16.32 -10 17 C-10.99 16.67 -11.98 16.34 -13 16 C-8.25 12 -8.25 12 -6 12 C-5.71382813 11.42765625 -5.42765625 10.8553125 -5.1328125 10.265625 C-3.421875 6.84375 -1.7109375 3.421875 0 0 Z " fill="#E19657" transform="translate(81,86)"/>
<path d="M0 0 C1.25425781 0.02707031 2.50851563 0.05414063 3.80078125 0.08203125 C4.75339844 0.11683594 5.70601562 0.15164062 6.6875 0.1875 C6.6875 0.8475 6.6875 1.5075 6.6875 2.1875 C3.0575 2.5175 -0.5725 2.8475 -4.3125 3.1875 C-4.3125 3.8475 -4.3125 4.5075 -4.3125 5.1875 C-5.01117188 5.30867188 -5.70984375 5.42984375 -6.4296875 5.5546875 C-7.33976562 5.72226563 -8.24984375 5.88984375 -9.1875 6.0625 C-10.54488281 6.30613281 -10.54488281 6.30613281 -11.9296875 6.5546875 C-14.47755988 7.01794703 -14.47755988 7.01794703 -16.3125 9.1875 C-17.3025 9.1875 -18.2925 9.1875 -19.3125 9.1875 C-19.3125 7.8675 -19.3125 6.5475 -19.3125 5.1875 C-18.260625 4.919375 -17.20875 4.65125 -16.125 4.375 C-12.42158671 3.4265348 -12.42158671 3.4265348 -10.03125 1.625 C-6.51350595 -0.23495662 -3.95312149 -0.11083518 0 0 Z " fill="#F0DEA6" transform="translate(105.3125,92.8125)"/>
<path d="M0 0 C-3.97311336 1.73729291 -7.88545493 2.73388543 -12.125 3.625 C-13.34445313 3.88539063 -14.56390625 4.14578125 -15.8203125 4.4140625 C-19 5 -19 5 -22 5 C-22 5.66 -22 6.32 -22 7 C-24.9550405 7.86585625 -27.91445682 8.71566785 -30.875 9.5625 C-31.71675781 9.80935547 -32.55851563 10.05621094 -33.42578125 10.31054688 C-34.23144531 10.53935547 -35.03710938 10.76816406 -35.8671875 11.00390625 C-36.61081543 11.21861572 -37.35444336 11.4333252 -38.12060547 11.65454102 C-40 12 -40 12 -42 11 C-36.83982722 8.01253155 -31.80165739 6.97458672 -26 6 C-26 5.01 -26 4.02 -26 3 C-22.23129437 2.30047331 -18.4597821 1.61745329 -14.6875 0.9375 C-13.61564453 0.73833984 -12.54378906 0.53917969 -11.43945312 0.33398438 C-9.89741211 0.05844727 -9.89741211 0.05844727 -8.32421875 -0.22265625 C-7.37635498 -0.39547119 -6.42849121 -0.56828613 -5.4519043 -0.74633789 C-3 -1 -3 -1 0 0 Z " fill="#FBF6E0" transform="translate(173,164)"/>
<path d="M0 0 C0 0.66 0 1.32 0 2 C-0.99 2 -1.98 2 -3 2 C-3 2.66 -3 3.32 -3 4 C-8.02022009 7.08664253 -13.65140153 6.37200314 -19.36230469 6.37060547 C-21.3614951 6.37497051 -23.36052657 6.4119853 -25.359375 6.44921875 C-26.63039063 6.45308594 -27.90140625 6.45695313 -29.2109375 6.4609375 C-30.36899902 6.46915527 -31.52706055 6.47737305 -32.72021484 6.48583984 C-36.66191755 5.90194909 -38.86601166 4.39846653 -42 2 C-41.34 1.67 -40.68 1.34 -40 1 C-38.3246105 1.75736785 -36.64936331 2.51505331 -34.97509766 3.27490234 C-22.5925796 7.82077115 -11.61505488 0 0 0 Z " fill="#FCE495" transform="translate(154,141)"/>
<path d="M0 0 C0.66 0 1.32 0 2 0 C2 0.66 2 1.32 2 2 C2.66 2 3.32 2 4 2 C4.61875 3.299375 4.61875 3.299375 5.25 4.625 C6.93806156 8.04956847 6.93806156 8.04956847 9.1875 11.1875 C11 14 11 14 11 17 C8.3292356 16.62342801 7.20604073 16.21955159 5.33203125 14.22265625 C4.83058594 13.50980469 4.32914062 12.79695312 3.8125 12.0625 C3.30332031 11.35222656 2.79414062 10.64195312 2.26953125 9.91015625 C-0.04728932 6.42423238 -0.09071025 4.17267168 0 0 Z " fill="#EBDFA0" transform="translate(67,146)"/>
<path d="M0 0 C0.74958984 0.00346436 1.49917969 0.00692871 2.27148438 0.01049805 C9.34437652 0.14576786 16.51264874 0.83995601 23.1875 3.3125 C23.6825 4.7975 23.6825 4.7975 24.1875 6.3125 C26.69197516 7.53119929 26.69197516 7.53119929 29.1875 8.3125 C27.1875 9.3125 27.1875 9.3125 25.25 9.0625 C23.1875 8.3125 23.1875 8.3125 21.9375 6.875 C16.55960966 2.0733122 6.95620407 2.89081527 0.1875 2.6875 C-1.40384766 2.62949219 -1.40384766 2.62949219 -3.02734375 2.5703125 C-5.62223067 2.47680306 -8.21712449 2.39105098 -10.8125 2.3125 C-7.12330963 -0.14696024 -4.2726204 -0.0315827 0 0 Z " fill="#F2CB4A" transform="translate(127.8125,98.6875)"/>
<path d="M0 0 C4.30495156 0.53811894 7.98729511 1.65124544 11.97265625 3.28125 C21.53636891 6.67185333 34.90567784 6.58548446 44.23046875 2.66796875 C46.83041696 1.68653134 49.26242986 1.78941768 52 2 C46.12975247 7.87024753 35.38873259 7.36018496 27.5625 7.4375 C17.67606224 7.40152698 7.93023746 6.51212441 0 0 Z " fill="#F9F4D6" transform="translate(90,176)"/>
<path d="M0 0 C0.66 0 1.32 0 2 0 C1.52294348 2.42374626 1.03626605 4.84102979 0.48681641 7.24951172 C-0.98077614 13.87965947 -1.41810671 20.34924464 -1.625 27.125 C-1.66367188 28.176875 -1.70234375 29.22875 -1.7421875 30.3125 C-1.83536341 32.87483756 -1.92117382 35.43718779 -2 38 C-2.33 38 -2.66 38 -3 38 C-4.27414816 33.1056531 -4.14757083 28.26824755 -4.125 23.25 C-4.12886719 22.37472656 -4.13273438 21.49945313 -4.13671875 20.59765625 C-4.13542969 19.76621094 -4.13414062 18.93476562 -4.1328125 18.078125 C-4.13168457 17.31918945 -4.13055664 16.56025391 -4.12939453 15.77832031 C-4 14 -4 14 -3 13 C-2.71612221 10.77854367 -2.55234827 8.55682352 -2.37890625 6.32421875 C-1.98034823 3.87945563 -1.21258013 2.14533408 0 0 Z " fill="#E58D47" transform="translate(10,37)"/>
<path d="M0 0 C0.72445312 0.0721875 1.44890625 0.144375 2.1953125 0.21875 C6.33426534 0.61608947 10.40172371 1 14.5625 1 C17 1 17 1 19 2 C19 2.99 19 3.98 19 5 C21.97 5 24.94 5 28 5 C28 5.33 28 5.66 28 6 C25.4784979 6.08172936 22.95970083 6.14083373 20.4375 6.1875 C19.73302734 6.21263672 19.02855469 6.23777344 18.30273438 6.26367188 C13.09092266 6.33572457 9.67085567 5.31230479 5 3 C3.3357865 2.32723284 1.67013418 1.65793165 0 1 C0 0.67 0 0.34 0 0 Z " fill="#F5C228" transform="translate(109,140)"/>
<path d="M0 0 C0.99 0 1.98 0 3 0 C3.86052851 14.85845886 3.86052851 14.85845886 0.6875 19.4375 C-2 22 -2 22 -5 22 C-4.59418154 19.15927077 -4.2254563 18.18730216 -1.96875 16.3125 C0.77503246 13.08964442 0.40419617 10.91329672 0.25 6.75 C0.19585937 4.85507813 0.19585937 4.85507813 0.140625 2.921875 C0.09421875 1.95765625 0.0478125 0.9934375 0 0 Z " fill="#E9DC9D" transform="translate(199,133)"/>
<path d="M0 0 C0 0.33 0 0.66 0 1 C-0.53625 0.9278125 -1.0725 0.855625 -1.625 0.78125 C-9.75389824 -0.18138269 -17.82966291 -0.09123205 -26 0 C-26 0.99 -26 1.98 -26 3 C-27.98 3 -29.96 3 -32 3 C-30.35912757 -0.28174486 -27.33949992 -0.89950361 -24.0234375 -2.16796875 C-15.70161741 -4.45808203 -7.73463865 -3.63982995 0 0 Z " fill="#F7DFC8" transform="translate(128,8)"/>
<path d="M0 0 C0.7425 0.804375 1.485 1.60875 2.25 2.4375 C5.75581517 5.70428232 7.35970377 6 12 6 C14.71612936 6.98768341 15.76749514 7.60474173 17.25 10.125 C17.4975 10.74375 17.745 11.3625 18 12 C12.25 10.125 12.25 10.125 10 9 C12.475 12.465 12.475 12.465 15 16 C8.31557415 13.02914407 3.84683169 8.10734103 0 2 C0 1.34 0 0.68 0 0 Z " fill="#F6EBC6" transform="translate(69,156)"/>
<path d="M0 0 C0.02694851 1.95825873 0.04637218 3.91662226 0.0625 5.875 C0.07410156 6.96554688 0.08570312 8.05609375 0.09765625 9.1796875 C0 12 0 12 -1 14 C-1.23274209 16.87910588 -1.41972757 19.74146495 -1.5625 22.625 C-1.60568359 23.42679688 -1.64886719 24.22859375 -1.69335938 25.0546875 C-1.79951457 27.0362511 -1.90026855 29.01810271 -2 31 C-2.33 31 -2.66 31 -3 31 C-2.99476318 30.36908447 -2.98952637 29.73816895 -2.98413086 29.08813477 C-2.96342174 26.24626653 -2.95035934 23.40441412 -2.9375 20.5625 C-2.92912109 19.56927734 -2.92074219 18.57605469 -2.91210938 17.55273438 C-2.90888672 16.60849609 -2.90566406 15.66425781 -2.90234375 14.69140625 C-2.89710693 13.81685791 -2.89187012 12.94230957 -2.88647461 12.04125977 C-2.77215191 10.00559794 -2.77215191 10.00559794 -4 9 C-4.14115161 6.32941149 -4.04247107 3.67567762 -4 1 C-1 0 -1 0 0 0 Z " fill="#F7B980" transform="translate(74,41)"/>
<path d="M0 0 C2.23695664 1.0770532 4.18655616 2.13858457 6.1875 3.625 C9.60118018 5.29391031 11.97256098 5.17668117 15.70703125 5.0390625 C18.89689226 4.98472075 21.85979942 5.46549777 25 6 C24.67 6.66 24.34 7.32 24 8 C22.02 8 20.04 8 18 8 C18.99 8.33 19.98 8.66 21 9 C21 9.66 21 10.32 21 11 C5.82803374 8.07397794 5.82803374 8.07397794 1 2 C0.67 1.34 0.34 0.68 0 0 Z " fill="#E49C62" transform="translate(16,97)"/>
<path d="M0 0 C1.77131561 0.30975468 3.54203778 0.62290425 5.3125 0.9375 C6.79169922 1.19853516 6.79169922 1.19853516 8.30078125 1.46484375 C11 2 11 2 14 3 C14 3.66 14 4.32 14 5 C15.65 5 17.3 5 19 5 C19 5.33 19 5.66 19 6 C12.41668549 7.09942677 7.82840757 7.52132958 2 4 C0.8125 1.88671875 0.8125 1.88671875 0 0 Z " fill="#F8C304" transform="translate(106,135)"/>
<path d="M0 0 C-0.33 0.99 -0.66 1.98 -1 3 C-2.98 3.33 -4.96 3.66 -7 4 C-7 4.66 -7 5.32 -7 6 C-14.42857143 8.42857143 -14.42857143 8.42857143 -18 7 C-15.69 6.34 -13.38 5.68 -11 5 C-11.99 4.01 -12.98 3.02 -14 2 C-9.35150485 -0.3992233 -5.08913926 -0.19957409 0 0 Z " fill="#EEE1AB" transform="translate(185,162)"/>
<path d="M0 0 C6.94695253 1.29965259 12.30480046 7.01135049 17 12 C16.67 12.66 16.34 13.32 16 14 C15.01 13.67 14.02 13.34 13 13 C12.67 13.66 12.34 14.32 12 15 C12.103125 14.236875 12.20625 13.47375 12.3125 12.6875 C12.209375 11.800625 12.10625 10.91375 12 10 C9.67881567 8.17394457 9.67881567 8.17394457 7 7 C6.34 6.67 5.68 6.34 5 6 C5 6.66 5 7.32 5 8 C0.125 6.25 0.125 6.25 -1 4 C1.475 4.495 1.475 4.495 4 5 C3.67 4.34 3.34 3.68 3 3 C2.01 2.67 1.02 2.34 0 2 C0 1.34 0 0.68 0 0 Z " fill="#E7AC79" transform="translate(57,9)"/>
<path d="M0 0 C3.50364749 1.1678825 4.26533157 1.79269764 6 5 C6.07421875 8.453125 6.07421875 8.453125 5.6875 12.25 C5.56761719 13.51328125 5.44773438 14.7765625 5.32421875 16.078125 C5.21722656 17.04234375 5.11023438 18.0065625 5 19 C1.85380132 12.95382689 -0.53165598 6.91152768 0 0 Z " fill="#E39252" transform="translate(145,30)"/>
<path d="M0 0 C-0.875 7.75 -0.875 7.75 -2 10 C-2.23029956 12.37123246 -2.41119942 14.74741943 -2.5625 17.125 C-2.64628906 18.40632813 -2.73007813 19.68765625 -2.81640625 21.0078125 C-2.90728516 22.48894531 -2.90728516 22.48894531 -3 24 C-5.46300136 20.30549796 -5.36729083 17.40358812 -5.375 13.125 C-5.39949219 12.41730469 -5.42398438 11.70960938 -5.44921875 10.98046875 C-5.47028297 7.20997277 -5.11642233 5.17857608 -3.0390625 1.9921875 C-1 0 -1 0 0 0 Z " fill="#EADB9A" transform="translate(69,119)"/>
<path d="M0 0 C6.2049038 0.2757735 10.10160999 1.10640794 15 5 C14.67 5.99 14.34 6.98 14 8 C12.03616311 7.43547197 10.07899835 6.84769361 8.125 6.25 C6.48917969 5.76273437 6.48917969 5.76273437 4.8203125 5.265625 C2 4 2 4 0.6171875 1.859375 C0.31167969 0.93898438 0.31167969 0.93898438 0 0 Z " fill="#EDDC9D" transform="translate(156,95)"/>
<path d="M0 0 C0.66 0.33 1.32 0.66 2 1 C-0.96223719 6.51814981 -3.07528211 9.47884345 -9 12 C-9.598125 12.721875 -10.19625 13.44375 -10.8125 14.1875 C-14.2095171 17.00217131 -17.75638958 16.32643157 -22 16 C-22.33 15.34 -22.66 14.68 -23 14 C-21.700625 13.95875 -20.40125 13.9175 -19.0625 13.875 C-12.10579451 13.10690949 -7.11754451 9.32929897 -2.5 4.25 C-0.99483189 2.09302605 -0.99483189 2.09302605 0 0 Z " fill="#F7D0AB" transform="translate(111,29)"/>
<path d="M0 0 C10.38437692 -0.09776087 20.66192051 -0.1555538 31 1 C30.67 1.66 30.34 2.32 30 3 C23.4 3 16.8 3 10 3 C10 2.34 10 1.68 10 1 C6.7 1 3.4 1 0 1 C0 0.67 0 0.34 0 0 Z " fill="#F4CF90" transform="translate(113,88)"/>
<path d="M0 0 C4.75 0.75 4.75 0.75 7 3 C7.71927295 5.31765729 8.3909893 7.65095874 9 10 C6 10 6 10 3.375 8.375 C0.56306771 5.56306771 0.2657454 3.89759919 0 0 Z " fill="#E4934E" transform="translate(136,19)"/>
<path d="M0 0 C0.99 0.33 1.98 0.66 3 1 C3 2.32 3 3.64 3 5 C3.66 5 4.32 5 5 5 C6.35281371 7.70562743 6.20609362 9.91893655 6.25 12.9375 C6.27578125 13.99839844 6.3015625 15.05929688 6.328125 16.15234375 C6 19 6 19 4.484375 20.87890625 C3.99453125 21.24886719 3.5046875 21.61882812 3 22 C3.03480469 21.41734375 3.06960937 20.8346875 3.10546875 20.234375 C3.3414184 13.08847143 1.97570894 6.84442026 0 0 Z " fill="#F6D468" transform="translate(159,110)"/>
<path d="M0 0 C0.763125 0.309375 1.52625 0.61875 2.3125 0.9375 C4.18789677 1.67893593 6.08684652 2.36228217 8 3 C8 3.66 8 4.32 8 5 C8.99 5.33 9.98 5.66 11 6 C11 6.66 11 7.32 11 8 C4.85310727 7.63118644 2.30972626 6.09949571 -2 2 C-1.34 1.34 -0.68 0.68 0 0 Z " fill="#E48F4A" transform="translate(19,95)"/>
<path d="M0 0 C0.66 0 1.32 0 2 0 C2 1.65 2 3.3 2 5 C4.31 3.35 6.62 1.7 9 0 C7.8259221 4.69631159 6.6667346 5.13815836 3 8 C1.68834743 10.11660427 1.68834743 10.11660427 1 12 C0.67 12 0.34 12 0 12 C-0.144375 11.2575 -0.28875 10.515 -0.4375 9.75 C-0.93059024 7.08041771 -0.93059024 7.08041771 -1.6875 4.875 C-2 3 -2 3 0 0 Z " fill="#ECAF7A" transform="translate(17,19)"/>
<path d="M0 0 C1.9451 2.91765 2.45276317 4.62537285 3 8 C3.99 8 4.98 8 6 8 C5.6803125 8.85078125 5.360625 9.7015625 5.03125 10.578125 C3.6626683 15.1193279 3.55902787 19.45728964 3.34375 24.171875 C3 27 3 27 1 29 C1.00523682 28.3702124 1.01047363 27.7404248 1.01586914 27.09155273 C1.03680138 24.20687885 1.0497115 21.32222102 1.0625 18.4375 C1.07087891 17.44685547 1.07925781 16.45621094 1.08789062 15.43554688 C1.10536914 10.17451301 0.92308398 5.18235335 0 0 Z " fill="#EFAF76" transform="translate(143,39)"/>
<path d="M0 0 C3.93409251 6.55682086 3.02076633 14.121041 2.5625 21.4375 C2.51029297 22.35982422 2.45808594 23.28214844 2.40429688 24.23242188 C2.27569984 26.48871536 2.1407929 28.74444029 2 31 C1.67 31 1.34 31 1 31 C0.97494385 30.40050537 0.9498877 29.80101074 0.92407227 29.18334961 C0.80714227 26.43456676 0.68486053 23.68604625 0.5625 20.9375 C0.50352539 19.52307617 0.50352539 19.52307617 0.44335938 18.08007812 C0.25924292 14.01535339 0.06097715 10.02231003 -0.59765625 6.00390625 C-1 3 -1 3 0 0 Z " fill="#E89857" transform="translate(75,42)"/>
<path d="M0 0 C2.70108504 0.090916 5.36930311 0.23740766 8.0625 0.4375 C9.20041992 0.51581055 9.20041992 0.51581055 10.36132812 0.59570312 C12.24121722 0.72575835 14.12065685 0.86228038 16 1 C16 1.66 16 2.32 16 3 C13.00519083 3.8723412 10.36424089 4.10829766 7.25 4.0625 C6.45078125 4.05347656 5.6515625 4.04445313 4.828125 4.03515625 C4.22484375 4.02355469 3.6215625 4.01195313 3 4 C3 3.34 3 2.68 3 2 C1.68 1.67 0.36 1.34 -1 1 C-0.67 0.67 -0.34 0.34 0 0 Z " fill="#E18D48" transform="translate(34,104)"/>
<path d="M0 0 C0.33 0 0.66 0 1 0 C1.08114106 1.77007714 1.13925505 3.54122098 1.1875 5.3125 C1.22230469 6.29863281 1.25710937 7.28476563 1.29296875 8.30078125 C1 11 1 11 -0.375 12.875 C-2 14 -2 14 -4.1875 13.6875 C-4.785625 13.460625 -5.38375 13.23375 -6 13 C-6 12.34 -6 11.68 -6 11 C-5.34 11 -4.68 11 -4 11 C-3.34 8.69 -2.68 6.38 -2 4 C-1.34 4 -0.68 4 0 4 C0 2.68 0 1.36 0 0 Z " fill="#E18E4E" transform="translate(151,76)"/>
<path d="M0 0 C5.68701095 1.48356808 5.68701095 1.48356808 7.25 4.0625 C7.4975 4.701875 7.745 5.34125 8 6 C8.66 6.33 9.32 6.66 10 7 C9.67 8.32 9.34 9.64 9 11 C8.01 10.67 7.02 10.34 6 10 C5.3125 7.9375 5.3125 7.9375 5 6 C4.34 6 3.68 6 3 6 C3 5.34 3 4.68 3 4 C2.01 3.67 1.02 3.34 0 3 C0 2.01 0 1.02 0 0 Z " fill="#E38F4A" transform="translate(62,15)"/>
<path d="M0 0 C7.09029841 0.99055639 12.75426838 2.46468022 19 6 C14.81854874 7.39381709 12.96461861 5.70888733 9 4 C6.20659843 3.74609778 6.20659843 3.74609778 4 4 C4.33 4.66 4.66 5.32 5 6 C2.03 5.505 2.03 5.505 -1 5 C-0.01 4.67 0.98 4.34 2 4 C1.34 2.68 0.68 1.36 0 0 Z " fill="#F7EDC7" transform="translate(153,92)"/>
<path d="M0 0 C1.32709834 3.01613258 0.92457017 4.23048003 -0.125 7.4375 C-2.50171239 12.50564925 -6.48485323 15.82267449 -11 19 C-11.66 18.67 -12.32 18.34 -13 18 C-8.375 13.125 -8.375 13.125 -5 12 C-4.2863409 9.68060793 -3.6252708 7.34476551 -3 5 C-1.375 2.0625 -1.375 2.0625 0 0 Z " fill="#F6CEA6" transform="translate(42,26)"/>
<path d="M0 0 C3.99859799 3.30918454 6.01740577 6.96329474 7 12 C7.34348344 17.32870785 7.1747287 22.66753894 7 28 C6.67 28 6.34 28 6 28 C5.98582031 27.02160156 5.97164062 26.04320312 5.95703125 25.03515625 C5.69255232 17.76555975 5.33982901 11.98100087 1.05859375 5.83203125 C0 4 0 4 0 0 Z " fill="#FBF5D9" transform="translate(196,120)"/>
<path d="M0 0 C0.33 0 0.66 0 1 0 C1 1.65 1 3.3 1 5 C0.01 5.495 0.01 5.495 -1 6 C-2.04976964 9.14930893 -2.10131595 11.38814456 -2.0625 14.6875 C-2.05347656 15.68136719 -2.04445313 16.67523438 -2.03515625 17.69921875 C-2.02355469 18.45847656 -2.01195312 19.21773437 -2 20 C-2.66 20 -3.32 20 -4 20 C-5.96415632 14.10753105 -5.03645916 9.31594804 -2.8515625 3.69921875 C-2 2 -2 2 0 0 Z " fill="#F8CDA3" transform="translate(21,25)"/>
<path d="M0 0 C2 2 2 2 2.1953125 5.4765625 C2.18201493 6.85950968 2.15816232 8.24238654 2.125 9.625 C2.11597656 10.33140625 2.10695313 11.0378125 2.09765625 11.765625 C2.07407603 13.51056098 2.03820461 15.25532295 2 17 C-0.39515501 13.40726749 -1.13890296 11.79595079 -1.125 7.5625 C-1.12757812 6.78003906 -1.13015625 5.99757813 -1.1328125 5.19140625 C-1 3 -1 3 0 0 Z " fill="#E58D47" transform="translate(74,50)"/>
<path d="M0 0 C-0.47645208 4.28806873 -1.65902484 6.26647487 -5 9 C-5.66 9 -6.32 9 -7 9 C-7.37254569 5.64708882 -7.31050198 4.3961577 -5.1875 1.6875 C-3 0 -3 0 0 0 Z " fill="#E28F4D" transform="translate(26,15)"/>
<path d="M0 0 C1 3 1 3 -0.14453125 5.8125 C-0.69496094 6.864375 -1.24539062 7.91625 -1.8125 9 C-2.35519531 10.051875 -2.89789063 11.10375 -3.45703125 12.1875 C-5 15 -5 15 -7 18 C-7.99 18 -8.98 18 -10 18 C-10 17.34 -10 16.68 -10 16 C-9.34 16 -8.68 16 -8 16 C-7.67 14.68 -7.34 13.36 -7 12 C-6.34 12 -5.68 12 -5 12 C-4.814375 11.1646875 -4.814375 11.1646875 -4.625 10.3125 C-3.58259226 6.45559136 -2.22047502 3.33071252 0 0 Z " fill="#EFB57A" transform="translate(143,71)"/>
<path d="M0 0 C4.43090471 1.20842856 6.98112756 2.51668565 10 6 C9.67 6.66 9.34 7.32 9 8 C5.08158173 6.69386058 2.67359191 5.16870152 0 2 C0 1.34 0 0.68 0 0 Z " fill="#ECDD9D" transform="translate(79,165)"/>
<path d="M0 0 C0.99 0.66 1.98 1.32 3 2 C3 3.32 3 4.64 3 6 C2.01 6.33 1.02 6.66 0 7 C0 5.35 0 3.7 0 2 C-2.64 2 -5.28 2 -8 2 C-8 2.66 -8 3.32 -8 4 C-9.32 3.67 -10.64 3.34 -12 3 C-7.80058648 0.60033513 -4.85515649 -0.53946183 0 0 Z " fill="#FEF8AB" transform="translate(125,107)"/>
<path d="M0 0 C0 1.65 0 3.3 0 5 C-1.65 5.33 -3.3 5.66 -5 6 C-5 6.66 -5 7.32 -5 8 C-6.32 7.34 -7.64 6.68 -9 6 C-3.30769231 0 -3.30769231 0 0 0 Z " fill="#F1C019" transform="translate(112,103)"/>
<path d="M0 0 C5.5872691 2.44366275 9.65920265 6.9667976 12.1171875 12.52734375 C12.82908192 14.67319692 13.46616353 16.80364425 14 19 C11.75699494 16.98129545 10.18973819 15.50907434 9.125 12.65234375 C7.8198211 9.57520321 6.1528791 7.68300349 3.875 5.25 C0 1.08540925 0 1.08540925 0 0 Z " fill="#FBE1C6" transform="translate(136,15)"/>
<path d="M0 0 C1.32 0 2.64 0 4 0 C4 0.66 4 1.32 4 2 C4.66 2 5.32 2 6 2 C6 3.32 6 4.64 6 6 C2.17902761 5.46930939 -0.06171403 4.50298434 -3 2 C-2.01 2 -1.02 2 0 2 C0 1.34 0 0.68 0 0 Z " fill="#E39558" transform="translate(124,9)"/>
<path d="M0 0 C1.1055189 0.93590504 2.20935453 1.87379858 3.3125 2.8125 C3.92738281 3.33457031 4.54226562 3.85664062 5.17578125 4.39453125 C6.85424679 5.87172469 8.43882034 7.40039131 10 9 C9.67 9.66 9.34 10.32 9 11 C8.60167969 10.57847656 8.20335937 10.15695313 7.79296875 9.72265625 C7.26316406 9.17480469 6.73335937 8.62695312 6.1875 8.0625 C5.66542969 7.51722656 5.14335937 6.97195312 4.60546875 6.41015625 C2.94187802 4.76480908 2.94187802 4.76480908 0 4 C-0.33 4.66 -0.66 5.32 -1 6 C-1.66 4.68 -2.32 3.36 -3 2 C-2.01 2 -1.02 2 0 2 C0 1.34 0 0.68 0 0 Z " fill="#F4E9BE" transform="translate(186,109)"/>
<path d="M0 0 C0.99 0.33 1.98 0.66 3 1 C0.19840003 5.20239996 -3.21553735 5.93678608 -8 7 C-8 5.68 -8 4.36 -8 3 C-6.865625 2.690625 -5.73125 2.38125 -4.5625 2.0625 C-1.21224901 1.37075469 -1.21224901 1.37075469 0 0 Z " fill="#F0D895" transform="translate(94,95)"/>
<path d="M0 0 C0 0.66 0 1.32 0 2 C-1.546875 2.12375 -1.546875 2.12375 -3.125 2.25 C-7.05363955 2.74262533 -7.05363955 2.74262533 -10 5.0625 C-13.60603567 7.39139804 -15.78964331 7.33682854 -20 7 C-20 6.67 -20 6.34 -20 6 C-18.35 6 -16.7 6 -15 6 C-15 5.34 -15 4.68 -15 4 C-13.25307205 3.32532438 -11.50231475 2.66055844 -9.75 2 C-8.77546875 1.62875 -7.8009375 1.2575 -6.796875 0.875 C-4 0 -4 0 0 0 Z " fill="#F2CB88" transform="translate(105,91)"/>
<path d="M0 0 C0 3 0 3 -2 6 C-2.66 6 -3.32 6 -4 6 C-4.0825 6.78375 -4.165 7.5675 -4.25 8.375 C-5 11 -5 11 -7.0625 12.3125 C-8.0215625 12.6528125 -8.0215625 12.6528125 -9 13 C-8.33333333 11.33333333 -7.66666667 9.66666667 -7 8 C-6.731875 7.13375 -6.46375 6.2675 -6.1875 5.375 C-4.68259296 2.36518592 -2.96182579 1.4809129 0 0 Z " fill="#F2B37C" transform="translate(94,19)"/>
<path d="M0 0 C-0.99 0.66 -1.98 1.32 -3 2 C-2.34 2.66 -1.68 3.32 -1 4 C-2.65 4.33 -4.3 4.66 -6 5 C-6 4.34 -6 3.68 -6 3 C-8.64 3.33 -11.28 3.66 -14 4 C-11.68516093 1.68516093 -10.10977477 1.2391044 -7 0.3125 C-6.113125 0.04050781 -5.22625 -0.23148438 -4.3125 -0.51171875 C-2 -1 -2 -1 0 0 Z " fill="#F0E0AC" transform="translate(145,173)"/>
<path d="M0 0 C0 0.66 0 1.32 0 2 C-5.2808951 6.60855892 -10.04242456 8.74699726 -17 9 C-14.05894634 7.03929756 -11.12787352 5.59012265 -7.9375 4.09765625 C-5.92960324 3.0824025 -5.92960324 3.0824025 -4.4375 1.37109375 C-3 0 -3 0 0 0 Z " fill="#FBF3D8" transform="translate(195,158)"/>
<path d="M0 0 C0.66 0 1.32 0 2 0 C2 0.99 2 1.98 2 3 C7.94 2.505 7.94 2.505 14 2 C9.5 5.375 9.5 5.375 5.25 5.1875 C4.05117187 5.14689453 4.05117187 5.14689453 2.828125 5.10546875 C2.22484375 5.07066406 1.6215625 5.03585938 1 5 C0.67 3.35 0.34 1.7 0 0 Z " fill="#FEF8B4" transform="translate(111,112)"/>
<path d="M0 0 C1.32 0.33 2.64 0.66 4 1 C3.54625 1.4125 3.0925 1.825 2.625 2.25 C0.94049626 4.06408095 0.00734029 5.75285627 -1 8 C-1.99 8 -2.98 8 -4 8 C-4 8.99 -4 9.98 -4 11 C-4.66 10.67 -5.32 10.34 -6 10 C-5.45388137 6.17716957 -3.76181385 4.58920048 -1 2 C-0.67 1.34 -0.34 0.68 0 0 Z " fill="#FCD4B0" transform="translate(95,19)"/>
<path d="M0 0 C0.33 0.66 0.66 1.32 1 2 C-0.09655288 3.31886772 -1.20253423 4.62990057 -2.3125 5.9375 C-2.92738281 6.66839844 -3.54226562 7.39929688 -4.17578125 8.15234375 C-6 10 -6 10 -9 11 C-7.44095325 7.17324889 -4.96833913 4.81992217 -2 2 C-1.34 1.34 -0.68 0.68 0 0 Z " fill="#FCF5E1" transform="translate(81,107)"/>
<path d="M0 0 C0 0.33 0 0.66 0 1 C-0.61488281 1.13277344 -1.22976562 1.26554687 -1.86328125 1.40234375 C-3.07564453 1.66724609 -3.07564453 1.66724609 -4.3125 1.9375 C-5.11300781 2.11152344 -5.91351563 2.28554687 -6.73828125 2.46484375 C-9.145401 2.99886159 -9.145401 2.99886159 -12 4 C-12 4.66 -12 5.32 -12 6 C-12.66 6 -13.32 6 -14 6 C-14.33 7.32 -14.66 8.64 -15 10 C-15 8.35 -15 6.7 -15 5 C-14.34 5 -13.68 5 -13 5 C-13 3.68 -13 2.36 -13 1 C-8.59085217 -0.10228696 -4.51617599 -0.07654536 0 0 Z " fill="#FBE63F" transform="translate(125,106)"/>
<path d="M0 0 C0.99 0.33 1.98 0.66 3 1 C2.67 1.66 2.34 2.32 2 3 C1.34 3 0.68 3 0 3 C-0.495 3.66 -0.99 4.32 -1.5 5 C-1.995 5.66 -2.49 6.32 -3 7 C-3.66 7 -4.32 7 -5 7 C-5 7.66 -5 8.32 -5 9 C-5.99 9.66 -6.98 10.32 -8 11 C-8.99 10.67 -9.98 10.34 -11 10 C-6.25 6 -6.25 6 -4 6 C-3.71125 5.38125 -3.4225 4.7625 -3.125 4.125 C-2 2 -2 2 0 0 Z " fill="#F8D7B2" transform="translate(79,92)"/>
<path d="M0 0 C0.66 0 1.32 0 2 0 C2 1.32 2 2.64 2 4 C1.01 4.33 0.02 4.66 -1 5 C-1.144375 5.639375 -1.28875 6.27875 -1.4375 6.9375 C-2 9 -2 9 -4.0625 10.25 C-4.701875 10.4975 -5.34125 10.745 -6 11 C-6 9.68 -6 8.36 -6 7 C-5.34 7 -4.68 7 -4 7 C-3.34 5.35 -2.68 3.7 -2 2 C-1.34 2 -0.68 2 0 2 C0 1.34 0 0.68 0 0 Z " fill="#DF8845" transform="translate(79,86)"/>
<path d="M0 0 C0.33 0.66 0.66 1.32 1 2 C0.67 2.66 0.34 3.32 0 4 C0.66 4 1.32 4 2 4 C2.66 5.65 3.32 7.3 4 9 C1.69 9 -0.62 9 -3 9 C-2.34 8.01 -1.68 7.02 -1 6 C-1.32380126 4.66431979 -1.65657551 3.33076989 -2 2 C-1.34 1.34 -0.68 0.68 0 0 Z " fill="#F3DFB0" transform="translate(151,87)"/>
<path d="M0 0 C0 0.66 0 1.32 0 2 C-0.99 2 -1.98 2 -3 2 C-3 2.66 -3 3.32 -3 4 C-6.06246747 5.78409802 -8.22079273 6.22880021 -11.75 6.125 C-12.54921875 6.10695312 -13.3484375 6.08890625 -14.171875 6.0703125 C-14.77515625 6.04710937 -15.3784375 6.02390625 -16 6 C-16 5.67 -16 5.34 -16 5 C-11.545 4.505 -11.545 4.505 -7 4 C-6.67 3.01 -6.34 2.02 -6 1 C-3.90006779 0.25486277 -2.22568901 0 0 0 Z " fill="#FCF0C0" transform="translate(154,141)"/>
<path d="M0 0 C2.39614126 -0.05425226 4.79103853 -0.09379027 7.1875 -0.125 C8.19780273 -0.15013672 8.19780273 -0.15013672 9.22851562 -0.17578125 C13.28807807 -0.21538674 16.34998815 0.19979998 20 2 C20 2.33 20 2.66 20 3 C14.79166667 2.47916667 9.58333333 1.95833333 4.375 1.4375 C3.53710938 1.35371094 2.69921875 1.26992187 1.8359375 1.18359375 C1.23007813 1.12300781 0.62421875 1.06242188 0 1 C0 0.67 0 0.34 0 0 Z " fill="#F2CAA6" transform="translate(108,6)"/>
<path d="M0 0 C0 0.99 0 1.98 0 3 C-3.63 3 -7.26 3 -11 3 C-10 1 -10 1 -8.3125 0.375 C-5.51555886 -0.07855802 -2.82858003 -0.06428591 0 0 Z " fill="#E9DC97" transform="translate(174,165)"/>
<path d="M0 0 C1.65 0 3.3 0 5 0 C1.82679218 3.53586014 -0.16743695 5.58578031 -5 6 C-5 5.34 -5 4.68 -5 4 C-4.01 4 -3.02 4 -2 4 C-1.34 2.68 -0.68 1.36 0 0 Z " fill="#E28F49" transform="translate(97,12)"/>
<path d="M0 0 C0.33 0.99 0.66 1.98 1 3 C0.01 4.485 0.01 4.485 -1 6 C-1.66 6 -2.32 6 -3 6 C-3 6.66 -3 7.32 -3 8 C-3.66 8 -4.32 8 -5 8 C-5.33 8.99 -5.66 9.98 -6 11 C-6.66 10.67 -7.32 10.34 -8 10 C-6.95125002 7.37812506 -6.35068687 6.20628639 -3.875 4.75 C-3.25625 4.5025 -2.6375 4.255 -2 4 C-2 3.34 -2 2.68 -2 2 C-1.34 2 -0.68 2 0 2 C0 1.34 0 0.68 0 0 Z " fill="#FBF6DD" transform="translate(196,146)"/>
<path d="M0 0 C4.74117647 2.30980392 4.74117647 2.30980392 5.9375 5.5 C6 8 6 8 4 11 C3.566875 9.6078125 3.566875 9.6078125 3.125 8.1875 C2.1125 4.90208333 2.1125 4.90208333 0 2 C0 1.34 0 0.68 0 0 Z " fill="#F4C017" transform="translate(154,107)"/>
<path d="M0 0 C0.66 0.33 1.32 0.66 2 1 C1.38722388 3.96175123 0.74627478 5.38058783 -1 8 C-1.99 8 -2.98 8 -4 8 C-4 4 -4 4 -2 1.75 C-1.01 0.88375 -1.01 0.88375 0 0 Z " fill="#ECDA9D" transform="translate(75,107)"/>
<path d="M0 0 C2 1.4375 2 1.4375 4 4 C4.35442445 7.02824418 4.23347235 9.96485939 4 13 C0 5.06722689 0 5.06722689 0 0 Z " fill="#F3B176" transform="translate(71,32)"/>
<path d="M0 0 C4.29238623 1.65091778 6.8793915 4.73754566 10 8 C9.67 8.66 9.34 9.32 9 10 C8.01 9.67 7.02 9.34 6 9 C5.67 9.66 5.34 10.32 5 11 C5.103125 10.29875 5.20625 9.5975 5.3125 8.875 C4.85789966 4.69267689 2.83533849 3.04798887 0 0 Z " fill="#F4C69E" transform="translate(64,13)"/>
<path d="M0 0 C0.99 0 1.98 0 3 0 C3 0.66 3 1.32 3 2 C4.423125 2.185625 4.423125 2.185625 5.875 2.375 C9 3 9 3 11 5 C6.37390802 5.3227506 3.71973879 4.84450614 0 2 C0 1.34 0 0.68 0 0 Z " fill="#EFDA9B" transform="translate(91,173)"/>
<path d="M0 0 C0.99 0.33 1.98 0.66 3 1 C3 2.32 3 3.64 3 5 C-0.13593666 7.42322378 -3.40486061 9.3407049 -7 11 C-2.375 5.25 -2.375 5.25 1 3 C0.67 2.01 0.34 1.02 0 0 Z " fill="#FBEDD3" transform="translate(82,95)"/>
<path d="M0 0 C0.88751953 0.30744141 0.88751953 0.30744141 1.79296875 0.62109375 C5.83660816 1.9997571 9.76855249 3.31750847 14 4 C14 4.33 14 4.66 14 5 C7.77551932 5.42927453 4.84121441 4.99400188 0 1 C0 0.67 0 0.34 0 0 Z " fill="#FDEBB6" transform="translate(112,142)"/>
<path d="M0 0 C2.51699845 2.51699845 3.10964078 4.57554146 4 8 C3.625 10.375 3.625 10.375 3 12 C2.67 11.01 2.34 10.02 2 9 C1.34 8.67 0.68 8.34 0 8 C0 5.36 0 2.72 0 0 Z " fill="#EAC49C" transform="translate(151,37)"/>
<path d="M0 0 C-1.24420647 0.5345256 -2.49570936 1.05208611 -3.75 1.5625 C-4.44609375 1.85253906 -5.1421875 2.14257812 -5.859375 2.44140625 C-8.30012784 3.07831803 -9.6403655 2.80248831 -12 2 C-7.75950782 -0.82699479 -4.85416215 -1.37070821 0 0 Z " fill="#E28942" transform="translate(43,9)"/>
<path d="M0 0 C0.66 0 1.32 0 2 0 C1.8125 1.8125 1.8125 1.8125 1 4 C-1.4375 5.8125 -1.4375 5.8125 -4 7 C-4.66 6.67 -5.32 6.34 -6 6 C-5.38125 5.7525 -4.7625 5.505 -4.125 5.25 C-1.64931313 3.79371361 -1.04874998 2.62187494 0 0 Z " fill="#FCE7AE" transform="translate(160,134)"/>
<path d="M0 0 C2.25245881 2.68841859 3.88213958 4.64641875 5 8 C4.01 8 3.02 8 2 8 C2 7.01 2 6.02 2 5 C0.68 4.34 -0.64 3.68 -2 3 C-1.34 2.01 -0.68 1.02 0 0 Z " fill="#E88F4F" transform="translate(81,86)"/>
<path d="M0 0 C2.475 0.495 2.475 0.495 5 1 C5 1.66 5 2.32 5 3 C7.475 3.99 7.475 3.99 10 5 C8 6 8 6 6.125 5.875 C3.13170878 4.64246832 1.85618632 2.58540237 0 0 Z " fill="#F8DB7C" transform="translate(147,102)"/>
<path d="M0 0 C1.9375 0.6875 1.9375 0.6875 4 2 C4.75 4.625 4.75 4.625 5 7 C3.68 6.67 2.36 6.34 1 6 C0.67 4.02 0.34 2.04 0 0 Z " fill="#E88F4B" transform="translate(9,81)"/>
<path d="M0 0 C0.95465783 2.16967689 1.14401212 3.56328793 0.3984375 5.82421875 C-0.35870385 7.5684743 -1.17609198 9.28627131 -2 11 C-3.26426661 7.20720018 -2.40145184 5.65934648 -1 2 C-0.67 1.34 -0.34 0.68 0 0 Z " fill="#F5B985" transform="translate(16,31)"/>
<path d="M0 0 C1.98 0 3.96 0 6 0 C4.25 2 4.25 2 2 4 C0.68 4 -0.64 4 -2 4 C-2 3.34 -2 2.68 -2 2 C-1.34 2 -0.68 2 0 2 C0 1.34 0 0.68 0 0 Z " fill="#FACFA5" transform="translate(30,15)"/>
<path d="M0 0 C0.99 0.33 1.98 0.66 3 1 C3 2.98 3 4.96 3 7 C2.01 6.67 1.02 6.34 0 6 C0 4.02 0 2.04 0 0 Z " fill="#E9DD9C" transform="translate(196,126)"/>
<path d="M0 0 C0.33 0 0.66 0 1 0 C1 3.63 1 7.26 1 11 C0.67 10.01 0.34 9.02 0 8 C-0.66 8 -1.32 8 -2 8 C-1.34 5.36 -0.68 2.72 0 0 Z " fill="#F8D2AA" transform="translate(87,32)"/>
<path d="M0 0 C3.36591866 1.44253657 5.51047079 3.33264727 8 6 C5 6 5 6 2.3125 3.5625 C0 1 0 1 0 0 Z " fill="#F2D0B3" transform="translate(16,97)"/>
<path d="M0 0 C0.33 0 0.66 0 1 0 C1.36923077 7.50769231 1.36923077 7.50769231 -0.5 10 C-0.995 10.33 -1.49 10.66 -2 11 C-1 3.57142857 -1 3.57142857 0 0 Z " fill="#D8965B" transform="translate(7,42)"/>
</svg>
