<?xml version="1.0" encoding="UTF-8"?>
<svg version="1.1" xmlns="http://www.w3.org/2000/svg" width="132" height="189">
<path d="M0 0 C1.08216293 -0.00262848 1.08216293 -0.00262848 2.18618774 -0.00531006 C4.54399095 -0.00967058 6.90171766 -0.00681152 9.25952148 -0.00341797 C10.91283686 -0.0040926 12.56615213 -0.00506396 14.21946716 -0.00631714 C17.67317658 -0.00778619 21.12686002 -0.00566483 24.58056641 -0.00097656 C28.9941772 0.00472472 33.40772722 0.00143415 37.82133579 -0.00454903 C41.23150587 -0.00817224 44.64166168 -0.00700804 48.0518322 -0.00442123 C49.67883245 -0.00375707 51.30583402 -0.00456244 52.93283272 -0.00690079 C55.21046481 -0.00945679 57.48800007 -0.00554562 59.765625 0 C61.70466454 0.00119339 61.70466454 0.00119339 63.68287659 0.00241089 C67.32440812 0.12961435 70.72731193 0.54604574 74.31811523 1.12939453 C74.28588867 2.17095703 74.25366211 3.21251953 74.22045898 4.28564453 C74.19111537 15.6216161 77.10118858 22.73698968 83.12817383 32.17871094 C85.05924664 35.34433913 86.65284149 38.66376232 88.25561523 42.00439453 C90.3097171 46.40948175 90.3097171 46.40948175 93.31811523 50.12939453 C93.57703495 52.17923355 93.57703495 52.17923355 93.58985901 54.75543213 C93.59957733 55.7308194 93.60929565 56.70620667 93.61930847 57.71115112 C93.61989761 58.78535309 93.62048676 59.85955505 93.62109375 60.96630859 C93.62953308 62.09503387 93.63797241 63.22375916 93.64666748 64.38668823 C93.67257055 68.1394694 93.68462266 71.89217149 93.69702148 75.64501953 C93.71319558 78.25421776 93.73037548 80.86340994 93.7485199 83.47259521 C93.79022955 89.66070028 93.82259841 95.8488136 93.85099405 102.03699279 C93.9047867 113.73190725 93.97366714 125.42671934 94.04893303 137.12151337 C94.07160005 140.94886004 94.08798831 144.77619576 94.10365295 148.60357666 C94.18370585 165.38875158 94.18370585 165.38875158 95.31811523 182.12939453 C94.65811523 182.12939453 93.99811523 182.12939453 93.31811523 182.12939453 C93.31811523 183.44939453 93.31811523 184.76939453 93.31811523 186.12939453 C51.07811523 186.12939453 8.83811523 186.12939453 -34.68188477 186.12939453 C-34.68188477 169.29939453 -34.68188477 152.46939453 -34.68188477 135.12939453 C-35.34188477 134.79939453 -36.00188477 134.46939453 -36.68188477 134.12939453 C-36.71113979 130.44191144 -36.72876895 126.75445862 -36.74438477 123.06689453 C-36.75276367 122.02855469 -36.76114258 120.99021484 -36.76977539 119.92041016 C-36.78681263 114.55368103 -36.72786793 109.40319777 -35.68188477 104.12939453 C-35.18688477 103.63439453 -35.18688477 103.63439453 -34.68188477 103.12939453 C-34.63553749 101.61631945 -34.65925085 100.10102851 -34.71118164 98.58813477 C-34.7403064 97.61879501 -34.76943115 96.64945526 -34.79943848 95.65074158 C-34.83283325 94.59053299 -34.86622803 93.5303244 -34.90063477 92.43798828 C-34.94746131 90.18999319 -34.99164141 87.94194172 -35.03344727 85.69384766 C-35.10067719 82.15136637 -35.18028566 78.61196848 -35.3059082 75.07104492 C-35.83978142 59.45966536 -34.97811078 48.87948823 -25.68188477 36.12939453 C-24.71310485 34.56844977 -23.75980998 32.99758562 -22.83422852 31.41064453 C-22.4565332 30.77650635 -22.07883789 30.14236816 -21.68969727 29.48901367 C-17.07936196 21.47876641 -15.80966484 15.43916152 -16.46313477 6.22705078 C-16.68188477 3.12939453 -16.68188477 3.12939453 -15.68188477 1.12939453 C-10.42903165 0.22481418 -5.33417283 0.00328092 0 0 Z " fill="#01B1EB" transform="translate(36.681884765625,0.87060546875)"/>
<path d="M0 0 C38.61 0 77.22 0 117 0 C117 31.35 117 62.7 117 95 C78.39 95 39.78 95 0 95 C0 63.65 0 32.3 0 0 Z " fill="#F7FCFC" transform="translate(8,57)"/>
<path d="M0 0 C1.08216293 -0.00262848 1.08216293 -0.00262848 2.18618774 -0.00531006 C4.54399095 -0.00967058 6.90171766 -0.00681152 9.25952148 -0.00341797 C10.91283686 -0.0040926 12.56615213 -0.00506396 14.21946716 -0.00631714 C17.67317658 -0.00778619 21.12686002 -0.00566483 24.58056641 -0.00097656 C28.9941772 0.00472472 33.40772722 0.00143415 37.82133579 -0.00454903 C41.23150587 -0.00817224 44.64166168 -0.00700804 48.0518322 -0.00442123 C49.67883245 -0.00375707 51.30583402 -0.00456244 52.93283272 -0.00690079 C55.21046481 -0.00945679 57.48800007 -0.00554562 59.765625 0 C61.70466454 0.00119339 61.70466454 0.00119339 63.68287659 0.00241089 C67.32440812 0.12961435 70.72731193 0.54604574 74.31811523 1.12939453 C74.28588867 2.17095703 74.25366211 3.21251953 74.22045898 4.28564453 C74.19111537 15.6216161 77.10118858 22.73698968 83.12817383 32.17871094 C85.05924664 35.34433913 86.65284149 38.66376232 88.25561523 42.00439453 C90.3097171 46.40948175 90.3097171 46.40948175 93.31811523 50.12939453 C93.57703495 52.17923355 93.57703495 52.17923355 93.58985901 54.75543213 C93.59957733 55.7308194 93.60929565 56.70620667 93.61930847 57.71115112 C93.61989761 58.78535309 93.62048676 59.85955505 93.62109375 60.96630859 C93.62953308 62.09503387 93.63797241 63.22375916 93.64666748 64.38668823 C93.67257055 68.1394694 93.68462266 71.89217149 93.69702148 75.64501953 C93.71319558 78.25421776 93.73037548 80.86340994 93.7485199 83.47259521 C93.79022955 89.66070028 93.82259841 95.8488136 93.85099405 102.03699279 C93.9047867 113.73190725 93.97366714 125.42671934 94.04893303 137.12151337 C94.07160005 140.94886004 94.08798831 144.77619576 94.10365295 148.60357666 C94.18370585 165.38875158 94.18370585 165.38875158 95.31811523 182.12939453 C94.65811523 182.12939453 93.99811523 182.12939453 93.31811523 182.12939453 C93.31811523 183.44939453 93.31811523 184.76939453 93.31811523 186.12939453 C51.07811523 186.12939453 8.83811523 186.12939453 -34.68188477 186.12939453 C-34.68188477 169.29939453 -34.68188477 152.46939453 -34.68188477 135.12939453 C-35.34188477 134.79939453 -36.00188477 134.46939453 -36.68188477 134.12939453 C-36.71113979 130.44191144 -36.72876895 126.75445862 -36.74438477 123.06689453 C-36.75276367 122.02855469 -36.76114258 120.99021484 -36.76977539 119.92041016 C-36.78681263 114.55368103 -36.72786793 109.40319777 -35.68188477 104.12939453 C-35.18688477 103.63439453 -35.18688477 103.63439453 -34.68188477 103.12939453 C-34.63553749 101.61631945 -34.65925085 100.10102851 -34.71118164 98.58813477 C-34.7403064 97.61879501 -34.76943115 96.64945526 -34.79943848 95.65074158 C-34.83283325 94.59053299 -34.86622803 93.5303244 -34.90063477 92.43798828 C-34.94746131 90.18999319 -34.99164141 87.94194172 -35.03344727 85.69384766 C-35.10067719 82.15136637 -35.18028566 78.61196848 -35.3059082 75.07104492 C-35.83978142 59.45966536 -34.97811078 48.87948823 -25.68188477 36.12939453 C-24.71310485 34.56844977 -23.75980998 32.99758562 -22.83422852 31.41064453 C-22.4565332 30.77650635 -22.07883789 30.14236816 -21.68969727 29.48901367 C-17.07936196 21.47876641 -15.80966484 15.43916152 -16.46313477 6.22705078 C-16.68188477 3.12939453 -16.68188477 3.12939453 -15.68188477 1.12939453 C-10.42903165 0.22481418 -5.33417283 0.00328092 0 0 Z M73.31811523 21.12939453 C72.98811523 21.78939453 72.65811523 22.44939453 72.31811523 23.12939453 C71.98811523 23.78939453 71.65811523 24.44939453 71.31811523 25.12939453 C72.39040806 28.26378894 73.79468544 31.19135136 75.31811523 34.12939453 C75.97811523 34.12939453 76.63811523 34.12939453 77.31811523 34.12939453 C77.56561523 34.78939453 77.81311523 35.44939453 78.06811523 36.12939453 C79.63674179 39.89409827 81.46915597 43.49647848 83.31811523 47.12939453 C84.30811523 49.10939453 84.30811523 49.10939453 85.31811523 51.12939453 C49.01811523 51.12939453 12.71811523 51.12939453 -24.68188477 51.12939453 C-24.68188477 49.14939453 -24.68188477 47.16939453 -24.68188477 45.12939453 C-24.02188477 45.12939453 -23.36188477 45.12939453 -22.68188477 45.12939453 C-22.68188477 44.46939453 -22.68188477 43.80939453 -22.68188477 43.12939453 C-23.67188477 43.45939453 -24.66188477 43.78939453 -25.68188477 44.12939453 C-25.68188477 44.78939453 -25.68188477 45.44939453 -25.68188477 46.12939453 C-26.67188477 46.12939453 -27.66188477 46.12939453 -28.68188477 46.12939453 C-28.68188477 47.11939453 -28.68188477 48.10939453 -28.68188477 49.12939453 C-29.67188477 49.12939453 -30.66188477 49.12939453 -31.68188477 49.12939453 C-32.96954434 51.70471369 -32.80485541 53.53456602 -32.80213928 56.4190979 C-32.80351395 57.54092972 -32.80488861 58.66276154 -32.80630493 59.81858826 C-32.80270966 61.05504593 -32.79911438 62.2915036 -32.79541016 63.56542969 C-32.79555618 64.86294662 -32.79570221 66.16046356 -32.79585266 67.49729919 C-32.79614026 71.06113045 -32.79024951 74.62492824 -32.7832787 78.1887517 C-32.77703901 81.91101952 -32.77644088 85.63328806 -32.7752533 89.3555603 C-32.7721418 96.40682021 -32.76393085 103.45806466 -32.75390381 110.50931776 C-32.74065015 120.03583562 -32.73524129 129.56235769 -32.72940159 139.08888245 C-32.71999085 154.10239806 -32.70007072 169.11588105 -32.68188477 184.12939453 C8.56811523 184.12939453 49.81811523 184.12939453 92.31811523 184.12939453 C92.31811523 140.23939453 92.31811523 96.34939453 92.31811523 51.12939453 C90.66811523 50.79939453 89.01811523 50.46939453 87.31811523 50.12939453 C87.41092773 49.10845703 87.41092773 49.10845703 87.50561523 48.06689453 C87.26621331 44.31626433 85.93348287 41.45552553 84.31811523 38.12939453 C83.90819336 37.25927734 83.49827148 36.38916016 83.07592773 35.49267578 C81.07499854 30.51502482 81.07499854 30.51502482 77.31811523 27.12939453 C76.27003483 25.15416607 75.26607413 23.15457944 74.31811523 21.12939453 C73.98811523 21.12939453 73.65811523 21.12939453 73.31811523 21.12939453 Z " fill="#02B0EB" transform="translate(36.681884765625,0.87060546875)"/>
<path d="M0 0 C3.72421098 0.23879661 6.2236119 0.76038264 9.1875 3.0625 C11.5 5.75 11.5 5.75 11.5 8.75 C12.4590625 8.5025 12.4590625 8.5025 13.4375 8.25 C19.27564731 7.29683309 23.67171397 6.81981939 29.0625 9.5625 C31.16045141 11.55064128 31.48332248 12.62231835 31.86328125 15.53125 C31.8739765 18.29775529 31.76038213 20.99670002 31.5 23.75 C32.5725 23.95625 33.645 24.1625 34.75 24.375 C38.5 25.75 38.5 25.75 40.9375 28.375 C42.9802539 32.78734842 43.18980724 34.92134935 42.5 39.75 C40.125 42.75 40.125 42.75 37.5 44.75 C36.84 44.75 36.18 44.75 35.5 44.75 C35.5 45.74 35.5 46.73 35.5 47.75 C36.16 47.75 36.82 47.75 37.5 47.75 C38.66297973 50.07595946 38.66600691 51.53723231 38.6875 54.125 C38.70167969 54.89585938 38.71585937 55.66671875 38.73046875 56.4609375 C38.47217701 59.02634363 37.87516466 60.57770599 36.5 62.75 C31.69670476 65.95219683 28.06987857 66.03809717 22.5 65.75 C22.603125 66.78125 22.70625 67.8125 22.8125 68.875 C22.50834748 72.64649119 21.98765371 74.82716341 19.41015625 77.66015625 C15.25669261 80.02992385 10.11140651 79.14715463 5.5 78.75 C5.5 78.09 5.5 77.43 5.5 76.75 C2.69235272 75.97573891 2.69235272 75.97573891 -0.5 75.75 C-1.12519531 76.23082031 -1.75039063 76.71164063 -2.39453125 77.20703125 C-6.05520135 79.88971157 -10.14493773 79.26610316 -14.5 78.75 C-18.71654311 77.04544002 -20.59617816 74.85824713 -22.5 70.75 C-22.5 69.43 -22.5 68.11 -22.5 66.75 C-23.716875 66.8325 -24.93375 66.915 -26.1875 67 C-29.47607044 67 -30.44125938 66.78575516 -33.375 65 C-36.20455547 62.00400009 -37.51171735 60.14827081 -37.4765625 55.953125 C-37.36054687 54.97859375 -37.24453125 54.0040625 -37.125 53 C-37.01414062 52.01515625 -36.90328125 51.0303125 -36.7890625 50.015625 C-36.64597656 48.89414063 -36.64597656 48.89414063 -36.5 47.75 C-35.84 47.75 -35.18 47.75 -34.5 47.75 C-34.5 47.09 -34.5 46.43 -34.5 45.75 C-35.098125 45.6675 -35.69625 45.585 -36.3125 45.5 C-39.33344673 44.46424684 -40.06379299 43.62241402 -41.5 40.75 C-42.29139928 36.69897597 -42.39507644 33.26712642 -40.2578125 29.64453125 C-37.78457328 26.66064811 -36.23304218 24.99434739 -32.5 23.75 C-32.50902344 23.09773438 -32.51804687 22.44546875 -32.52734375 21.7734375 C-32.36998869 17.13488394 -32.08727541 13.55291746 -28.75 10.125 C-24.30671109 6.7856338 -19.80493099 7.70839975 -14.50390625 8.00390625 C-11.48993215 8.04454787 -11.48993215 8.04454787 -9.71484375 6.21484375 C-8.83364788 4.92259441 -7.9571973 3.62709416 -7.0859375 2.328125 C-4.82648064 0.07979847 -3.14053947 0.11787548 0 0 Z " fill="#F7FBFB" transform="translate(65.5,63.25)"/>
<path d="M0 0 C1.33550042 -0.0032238 2.67100051 -0.00658866 4.00650024 -0.01008606 C6.80203059 -0.01605076 9.59753016 -0.01792903 12.39306641 -0.01733398 C15.22255915 -0.01725317 18.05188846 -0.02412649 20.88134766 -0.0378418 C36.14992738 -0.11092016 51.14159504 0.03653979 66.2890625 2.16796875 C66.2890625 8.43796875 66.2890625 14.70796875 66.2890625 21.16796875 C38.2390625 21.16796875 10.1890625 21.16796875 -18.7109375 21.16796875 C-18.7109375 22.81796875 -18.7109375 24.46796875 -18.7109375 26.16796875 C-19.3709375 26.16796875 -20.0309375 26.16796875 -20.7109375 26.16796875 C-20.8140625 26.88984375 -20.9171875 27.61171875 -21.0234375 28.35546875 C-21.77445748 31.42782323 -23.06228599 33.48891004 -24.7109375 36.16796875 C-24.8346875 36.84859375 -24.9584375 37.52921875 -25.0859375 38.23046875 C-26.04151505 41.19275916 -28.27913109 42.34411394 -30.7109375 44.16796875 C-31.0409375 44.82796875 -31.3709375 45.48796875 -31.7109375 46.16796875 C-32.7009375 46.16796875 -33.6909375 46.16796875 -34.7109375 46.16796875 C-34.7109375 47.15796875 -34.7109375 48.14796875 -34.7109375 49.16796875 C-35.7009375 49.16796875 -36.6909375 49.16796875 -37.7109375 49.16796875 C-38.0409375 93.71796875 -38.3709375 138.26796875 -38.7109375 184.16796875 C2.5390625 184.16796875 43.7890625 184.16796875 86.2890625 184.16796875 C85.9590625 140.27796875 85.6290625 96.38796875 85.2890625 51.16796875 C83.3090625 50.67296875 83.3090625 50.67296875 81.2890625 50.16796875 C81.09570312 49.39710937 80.90234375 48.62625 80.703125 47.83203125 C80.44273438 46.82914063 80.18234375 45.82625 79.9140625 44.79296875 C79.65882812 43.79523437 79.40359375 42.7975 79.140625 41.76953125 C78.46501931 39.0425586 78.46501931 39.0425586 76.2890625 37.16796875 C76.6640625 35.04296875 76.6640625 35.04296875 77.2890625 33.16796875 C77.92714844 34.31136719 78.56523438 35.45476563 79.22265625 36.6328125 C80.05720437 38.12374678 80.89184454 39.61462954 81.7265625 41.10546875 C82.14744141 41.86021484 82.56832031 42.61496094 83.00195312 43.39257812 C83.60620117 44.47055664 83.60620117 44.47055664 84.22265625 45.5703125 C84.59447021 46.23538818 84.96628418 46.90046387 85.34936523 47.58569336 C86.19253964 49.15374707 86.19253964 49.15374707 87.2890625 50.16796875 C87.39477155 51.66702255 87.4314517 53.17100306 87.44055176 54.67375183 C87.44889542 55.64776443 87.45723907 56.62177704 87.46583557 57.62530518 C87.47001999 58.70310242 87.47420441 59.78089966 87.47851562 60.89135742 C87.49095558 62.5842263 87.49095558 62.5842263 87.50364685 64.31129456 C87.52109993 66.77381648 87.53625214 69.23635549 87.54942322 71.69890404 C87.57041627 75.6052473 87.59744962 79.51150679 87.62609863 83.4178009 C87.68117412 91.02503237 87.72922278 98.6322997 87.77603912 106.23958588 C87.83939861 116.53347937 87.9059153 126.82733342 87.98094177 137.12114906 C88.00732693 140.95292012 88.02826727 144.7846954 88.0489502 148.61650085 C88.15197207 165.41440034 88.15197207 165.41440034 89.2890625 182.16796875 C88.6290625 182.16796875 87.9690625 182.16796875 87.2890625 182.16796875 C87.2890625 183.48796875 87.2890625 184.80796875 87.2890625 186.16796875 C45.0490625 186.16796875 2.8090625 186.16796875 -40.7109375 186.16796875 C-40.7109375 169.33796875 -40.7109375 152.50796875 -40.7109375 135.16796875 C-41.3709375 134.83796875 -42.0309375 134.50796875 -42.7109375 134.16796875 C-42.74019252 130.48048566 -42.75782168 126.79303283 -42.7734375 123.10546875 C-42.78181641 122.06712891 -42.79019531 121.02878906 -42.79882812 119.95898438 C-42.81586536 114.59225524 -42.75692067 109.44177199 -41.7109375 104.16796875 C-41.2159375 103.67296875 -41.2159375 103.67296875 -40.7109375 103.16796875 C-40.66459022 101.65489366 -40.68830359 100.13960273 -40.74023438 98.62670898 C-40.76935913 97.65736923 -40.79848389 96.68802948 -40.82849121 95.6893158 C-40.86188599 94.62910721 -40.89528076 93.56889862 -40.9296875 92.4765625 C-40.97651404 90.22856741 -41.02069414 87.98051594 -41.0625 85.73242188 C-41.12972993 82.18994059 -41.2093384 78.6505427 -41.33496094 75.10961914 C-41.86883416 59.49823958 -41.00716352 48.91806245 -31.7109375 36.16796875 C-30.74215759 34.60702398 -29.78886272 33.03615984 -28.86328125 31.44921875 C-28.48558594 30.81508057 -28.10789062 30.18094238 -27.71875 29.52758789 C-23.1084147 21.51734063 -21.83871758 15.47773574 -22.4921875 6.265625 C-22.7109375 3.16796875 -22.7109375 3.16796875 -21.7109375 1.16796875 C-14.54640448 -0.20546077 -7.27062701 0.00642945 0 0 Z " fill="#1985C5" transform="translate(42.7109375,0.83203125)"/>
<path d="M0 0 C2.0245738 1.93254772 3.42105792 3.63158688 5 6 C5.99 7.423125 5.99 7.423125 7 8.875 C8.75348487 11.61482011 9.8910199 13.96878773 11 17 C11.53625 18.155 12.0725 19.31 12.625 20.5 C13.88705482 23.71250319 14.30733715 25.61929139 14 29 C15.65 29.33 17.3 29.66 19 30 C19 73.89 19 117.78 19 163 C-22.25 163 -63.5 163 -106 163 C-106.04030303 129.7276062 -106.04030303 129.7276062 -106.04882812 115.8203125 C-106.05476941 106.20507272 -106.06176637 96.58984168 -106.07543945 86.97460938 C-106.08539128 79.97292619 -106.09185462 72.97125008 -106.09408849 65.96956003 C-106.09539475 62.26053707 -106.09847525 58.55153434 -106.10573006 54.84251785 C-106.11375382 50.7070144 -106.11399081 46.57154636 -106.11352539 42.43603516 C-106.11712067 41.19957748 -106.12071594 39.96311981 -106.12442017 38.68919373 C-106.12235817 37.006446 -106.12235817 37.006446 -106.12025452 35.28970337 C-106.12117631 34.31075922 -106.1220981 33.33181507 -106.12304783 32.32320595 C-106 30 -106 30 -105 28 C-104.01 28 -103.02 28 -102 28 C-102 27.01 -102 26.02 -102 25 C-101.01 25 -100.02 25 -99 25 C-98.67 24.01 -98.34 23.02 -98 22 C-97.34 22 -96.68 22 -96 22 C-96 22.66 -96 23.32 -96 24 C-96.66 24 -97.32 24 -98 24 C-98 25.98 -98 27.96 -98 30 C-61.7 30 -25.4 30 12 30 C11.01 28.35 10.02 26.7 9 25 C7.23179861 21.03922888 5.58970436 17.03540338 4 13 C3.34 13 2.68 13 2 13 C-0.61588503 9.44239635 -1.49357808 6.35522853 -2 2 C-1.34 2 -0.68 2 0 2 C0 1.34 0 0.68 0 0 Z M-103 35 C-103 75.92 -103 116.84 -103 159 C-64.06 159 -25.12 159 15 159 C15 118.08 15 77.16 15 35 C-23.94 35 -62.88 35 -103 35 Z " fill="#0783CA" transform="translate(110,22)"/>
<path d="M0 0 C3.72421098 0.23879661 6.2236119 0.76038264 9.1875 3.0625 C11.5 5.75 11.5 5.75 11.5 8.75 C12.4590625 8.5025 12.4590625 8.5025 13.4375 8.25 C19.27564731 7.29683309 23.67171397 6.81981939 29.0625 9.5625 C31.16045141 11.55064128 31.48332248 12.62231835 31.86328125 15.53125 C31.8739765 18.29775529 31.76038213 20.99670002 31.5 23.75 C32.5725 23.95625 33.645 24.1625 34.75 24.375 C38.5 25.75 38.5 25.75 40.9375 28.375 C42.9802539 32.78734842 43.18980724 34.92134935 42.5 39.75 C40.125 42.75 40.125 42.75 37.5 44.75 C36.84 44.75 36.18 44.75 35.5 44.75 C35.5 45.74 35.5 46.73 35.5 47.75 C36.16 47.75 36.82 47.75 37.5 47.75 C38.66297973 50.07595946 38.66600691 51.53723231 38.6875 54.125 C38.70167969 54.89585938 38.71585937 55.66671875 38.73046875 56.4609375 C38.47217701 59.02634363 37.87516466 60.57770599 36.5 62.75 C31.69670476 65.95219683 28.06987857 66.03809717 22.5 65.75 C22.603125 66.78125 22.70625 67.8125 22.8125 68.875 C22.50834748 72.64649119 21.98765371 74.82716341 19.41015625 77.66015625 C15.25669261 80.02992385 10.11140651 79.14715463 5.5 78.75 C5.5 78.09 5.5 77.43 5.5 76.75 C2.69235272 75.97573891 2.69235272 75.97573891 -0.5 75.75 C-1.12519531 76.23082031 -1.75039063 76.71164063 -2.39453125 77.20703125 C-6.05520135 79.88971157 -10.14493773 79.26610316 -14.5 78.75 C-18.71654311 77.04544002 -20.59617816 74.85824713 -22.5 70.75 C-22.5 69.43 -22.5 68.11 -22.5 66.75 C-23.716875 66.8325 -24.93375 66.915 -26.1875 67 C-29.47607044 67 -30.44125938 66.78575516 -33.375 65 C-36.20455547 62.00400009 -37.51171735 60.14827081 -37.4765625 55.953125 C-37.36054687 54.97859375 -37.24453125 54.0040625 -37.125 53 C-37.01414062 52.01515625 -36.90328125 51.0303125 -36.7890625 50.015625 C-36.64597656 48.89414063 -36.64597656 48.89414063 -36.5 47.75 C-35.84 47.75 -35.18 47.75 -34.5 47.75 C-34.5 47.09 -34.5 46.43 -34.5 45.75 C-35.098125 45.6675 -35.69625 45.585 -36.3125 45.5 C-39.33344673 44.46424684 -40.06379299 43.62241402 -41.5 40.75 C-42.29139928 36.69897597 -42.39507644 33.26712642 -40.2578125 29.64453125 C-37.78457328 26.66064811 -36.23304218 24.99434739 -32.5 23.75 C-32.50902344 23.09773438 -32.51804687 22.44546875 -32.52734375 21.7734375 C-32.36998869 17.13488394 -32.08727541 13.55291746 -28.75 10.125 C-24.30671109 6.7856338 -19.80493099 7.70839975 -14.50390625 8.00390625 C-11.48993215 8.04454787 -11.48993215 8.04454787 -9.71484375 6.21484375 C-8.83364788 4.92259441 -7.9571973 3.62709416 -7.0859375 2.328125 C-4.82648064 0.07979847 -3.14053947 0.11787548 0 0 Z M-16.5 14.75 C-17.551875 15.3275 -18.60375 15.905 -19.6875 16.5 C-25.17542002 20.89033601 -28.68427676 25.94103785 -30.5 32.75 C-31.63852169 43.1171158 -31.14255274 51.30225246 -24.5 59.75 C-19.22200813 65.53979714 -13.26951865 69.65234242 -5.30078125 70.21875 C-3.80501645 70.25180558 -2.3085855 70.26154041 -0.8125 70.25 C-0.02955566 70.24935547 0.75338867 70.24871094 1.56005859 70.24804688 C8.69577222 70.06661803 14.21541921 68.20035808 20.5 64.75 C20.5 64.09 20.5 63.43 20.5 62.75 C21.16 62.75 21.82 62.75 22.5 62.75 C23.9239869 61.03480923 25.2663216 59.2512088 26.5625 57.4375 C27.27535156 56.45136719 27.98820312 55.46523437 28.72265625 54.44921875 C33.08840198 47.81904227 32.33229456 37.80485319 31.07421875 30.1640625 C29.37606821 24.89250315 25.75789017 21.11345373 21.5 17.75 C18.76831665 16.29930036 18.76831665 16.29930036 16.5 15.75 C16.5 15.09 16.5 14.43 16.5 13.75 C5.4867255 9.48679697 -6.11204037 8.55593712 -16.5 14.75 Z " fill="#0C99D9" transform="translate(65.5,63.25)"/>
<path d="M0 0 C1.1240625 -0.00773437 2.248125 -0.01546875 3.40625 -0.0234375 C6.74915766 0.40708849 8.16238706 0.98092298 10.5 3.375 C11.04829905 7.57862607 10.28971369 10.57185841 8.5 14.375 C12.16305234 15.12426071 14.92355152 15.6130014 18.5 14.375 C18.5 13.715 18.5 13.055 18.5 12.375 C17.84 12.375 17.18 12.375 16.5 12.375 C15.25 4.75 15.25 4.75 17.5 1.375 C22.12699503 -0.16733168 26.66823688 -0.12581048 31.5 0.375 C34.6875 2 34.6875 2 36.5 4.375 C37.07805215 8.33878615 36.59412209 10.9720516 34.5 14.375 C36.15 14.375 37.8 14.375 39.5 14.375 C39.5 16.025 39.5 17.675 39.5 19.375 C37.52 19.375 35.54 19.375 33.5 19.375 C33.5 21.685 33.5 23.995 33.5 26.375 C31.85 26.045 30.2 25.715 28.5 25.375 C28.5 23.725 28.5 22.075 28.5 20.375 C27.51 20.375 26.52 20.375 25.5 20.375 C25.5 22.685 25.5 24.995 25.5 27.375 C23.50045254 27.41754356 21.49958364 27.41580783 19.5 27.375 C19.17 27.045 18.84 26.715 18.5 26.375 C18.5 24.725 18.5 23.075 18.5 21.375 C13.55 21.045 8.6 20.715 3.5 20.375 C3.83 22.355 4.16 24.335 4.5 26.375 C3.5 27.375 3.5 27.375 0.9375 27.4375 C0.133125 27.416875 -0.67125 27.39625 -1.5 27.375 C-1.5 24.735 -1.5 22.095 -1.5 19.375 C-4.8 19.375 -8.1 19.375 -11.5 19.375 C-11.5 18.055 -11.5 16.735 -11.5 15.375 C-10.18 15.375 -8.86 15.375 -7.5 15.375 C-7.995 14.50875 -8.49 13.6425 -9 12.75 C-10.57804502 9.19939871 -11.0948906 7.19929669 -10.5 3.375 C-7.26106599 0.07362871 -4.50278036 -0.03098243 0 0 Z " fill="#67BDE2" transform="translate(52.5,91.625)"/>
<path d="M0 0 C26.4 0 52.8 0 80 0 C80 3.63 80 7.26 80 11 C53.6 11 27.2 11 0 11 C0 7.37 0 3.74 0 0 Z " fill="#FAFCFA" transform="translate(26,6)"/>
<path d="M0 0 C1.93742341 -0.02703381 3.87495479 -0.04641125 5.8125 -0.0625 C6.89144531 -0.07410156 7.97039063 -0.08570312 9.08203125 -0.09765625 C12 0 12 0 15 1 C15.495 3.475 15.495 3.475 16 6 C17.98 6.33 19.96 6.66 22 7 C22 4.69 22 2.38 22 0 C22.99 0 23.98 0 25 0 C25.495 2.475 25.495 2.475 26 5 C28.31 5 30.62 5 33 5 C32.67 6.98 32.34 8.96 32 11 C31.34 11 30.68 11 30 11 C30 11.66 30 12.32 30 13 C29.34 13 28.68 13 28 13 C28 13.66 28 14.32 28 15 C27.01 15 26.02 15 25 15 C25 15.99 25 16.98 25 18 C19.50862143 20.74933562 15.17037475 21.49419757 9.0625 21.4375 C8.30259766 21.45748047 7.54269531 21.47746094 6.75976562 21.49804688 C0.96200921 21.49309576 -3.05621005 19.95057025 -8 17 C-8.825 16.525625 -9.65 16.05125 -10.5 15.5625 C-12 14 -12 14 -12.25 11.3125 C-12.1675 10.549375 -12.085 9.78625 -12 9 C-12.66 8.67 -13.32 8.34 -14 8 C-13.67 7.34 -13.34 6.68 -13 6 C-13.99 6.33 -14.98 6.66 -16 7 C-16.33 5.68 -16.66 4.36 -17 3 C-16.34 3 -15.68 3 -15 3 C-15 2.34 -15 1.68 -15 1 C-11.6875 0.6875 -11.6875 0.6875 -8 1 C-6.375 3.5 -6.375 3.5 -5 6 C-2.37305578 6.41780879 -2.37305578 6.41780879 0 6 C0 4.02 0 2.04 0 0 Z " fill="#F6FCFB" transform="translate(56,112)"/>
<path d="M0 0 C0.66 0 1.32 0 2 0 C2 39.93 2 79.86 2 121 C40.94 121 79.88 121 120 121 C120 112.09 120 103.18 120 94 C120.66 94 121.32 94 122 94 C122 103.9 122 113.8 122 124 C81.74 124 41.48 124 0 124 C0 83.08 0 42.16 0 0 Z " fill="#0286CF" transform="translate(5,60)"/>
<path d="M0 0 C3.17761736 1.58880868 4.03504758 4.8451632 5.5 7.9375 C7.72443492 12.81185121 7.72443492 12.81185121 11 17 C11.25891972 19.04983902 11.25891972 19.04983902 11.27174377 21.6260376 C11.2814621 22.60142487 11.29118042 23.57681213 11.30119324 24.58175659 C11.30178238 25.65595856 11.30237152 26.73016052 11.30297852 27.83691406 C11.31141785 28.96563934 11.31985718 30.09436462 11.32855225 31.2572937 C11.35445532 35.01007487 11.36650743 38.76277696 11.37890625 42.515625 C11.39508034 45.12482323 11.41226024 47.73401541 11.43040466 50.34320068 C11.47211431 56.53130575 11.50448317 62.71941906 11.53287882 68.90759826 C11.58667147 80.60251272 11.65555191 92.29732481 11.73081779 103.99211884 C11.75348482 107.81946551 11.76987307 111.64680122 11.78553772 115.47418213 C11.86559062 132.25935705 11.86559062 132.25935705 13 149 C12.34 149 11.68 149 11 149 C11 150.32 11 151.64 11 153 C-31.24 153 -73.48 153 -117 153 C-117 136.17 -117 119.34 -117 102 C-117.66 101.67 -118.32 101.34 -119 101 C-119.02925502 97.31251691 -119.04688418 93.62506408 -119.0625 89.9375 C-119.07087891 88.89916016 -119.07925781 87.86082031 -119.08789062 86.79101562 C-119.10492786 81.42428649 -119.04598317 76.27380324 -118 71 C-117.505 70.505 -117.505 70.505 -117 70 C-116.94842995 68.47653333 -116.96682871 66.95062877 -117.01342773 65.42700195 C-117.0393248 64.45120682 -117.06522186 63.47541168 -117.09190369 62.470047 C-117.12216141 61.4035643 -117.15241913 60.3370816 -117.18359375 59.23828125 C-117.22552904 56.98115998 -117.26516488 54.72399504 -117.30273438 52.46679688 C-117.36396423 48.90692747 -117.43633539 45.34942208 -117.54858398 41.79077148 C-117.98093281 27.5572092 -118.29860478 16.45802742 -109 5 C-108.67 5.66 -108.34 6.32 -108 7 C-108.90773423 8.62676199 -109.88414504 10.21538116 -110.88919067 11.78388977 C-114.60759761 18.40980945 -114.84886 23.97844049 -114.77294922 31.45776367 C-114.78357895 32.75659485 -114.79420868 34.05542603 -114.80516052 35.39361572 C-114.8333575 38.92001074 -114.82532516 42.4454626 -114.81029272 45.97190261 C-114.80085324 49.67019253 -114.82541772 53.36826138 -114.84622192 57.06648254 C-114.88044061 64.05377349 -114.88451787 71.04073661 -114.87749684 78.02809459 C-114.86976461 87.48120529 -114.90913942 96.93411576 -114.94573593 106.38713932 C-115.00207784 121.25821974 -114.99595281 136.12860037 -115 151 C-73.75 151 -32.5 151 10 151 C9.67 107.11 9.34 63.22 9 18 C7.68 17.67 6.36 17.34 5 17 C4.70996094 15.84371094 4.70996094 15.84371094 4.4140625 14.6640625 C4.15367188 13.66117188 3.89328125 12.65828125 3.625 11.625 C3.36976562 10.62726562 3.11453125 9.62953125 2.8515625 8.6015625 C2.17595681 5.87458985 2.17595681 5.87458985 0 4 C0 2.68 0 1.36 0 0 Z " fill="#A5DAF3" transform="translate(119,34)"/>
<path d="M0 0 C0.33 1.32 0.66 2.64 1 4 C1.99 4 2.98 4 4 4 C4.99 4.33 5.98 4.66 7 5 C8.53519072 5.10049504 10.07428749 5.14615903 11.61271667 5.15821838 C12.55922592 5.1680072 13.50573517 5.17779602 14.48092651 5.18788147 C15.5174234 5.19363693 16.55392029 5.1993924 17.62182617 5.20532227 C18.71466415 5.21522186 19.80750214 5.22512146 20.93345642 5.23532104 C24.55327167 5.26696168 28.17310005 5.2917037 31.79296875 5.31640625 C34.29975225 5.33697356 36.80653226 5.35796997 39.31330872 5.37937927 C45.24181758 5.42897351 51.17034955 5.47423289 57.09890777 5.51740164 C64.51063633 5.57163492 71.92230709 5.63258164 79.33398438 5.69335938 C92.55595027 5.80096909 105.77795519 5.90259442 119 6 C119 6.33 119 6.66 119 7 C80.39 7 41.78 7 2 7 C2 7.99 2 8.98 2 10 C1.34 10 0.68 10 0 10 C0 50.92 0 91.84 0 134 C40.59 134 81.18 134 123 134 C122.67 90.11 122.34 46.22 122 1 C122.99 1.495 122.99 1.495 124 2 C124 45.89 124 89.78 124 135 C82.75 135 41.5 135 -1 135 C-1.04030303 101.7276062 -1.04030303 101.7276062 -1.04882812 87.8203125 C-1.05476941 78.20507272 -1.06176637 68.58984168 -1.07543945 58.97460938 C-1.08539128 51.97292619 -1.09185462 44.97125008 -1.09408849 37.96956003 C-1.09539475 34.26053707 -1.09847525 30.55153434 -1.10573006 26.84251785 C-1.11375382 22.7070144 -1.11399081 18.57154636 -1.11352539 14.43603516 C-1.11712067 13.19957748 -1.12071594 11.96311981 -1.12442017 10.68919373 C-1.12235817 9.006446 -1.12235817 9.006446 -1.12025452 7.28970337 C-1.12117631 6.31075922 -1.1220981 5.33181507 -1.12304783 4.32320595 C-1 2 -1 2 0 0 Z " fill="#2084BD" transform="translate(5,50)"/>
<path d="M0 0 C3.57077454 1.97008251 5.17181803 4.45295409 6.453125 8.296875 C8.01421583 16.01312397 8.59584799 25.11303889 4.75 32.1875 C3.87223059 33.48550462 2.95841123 34.76034559 2 36 C1.278125 37.010625 0.55625 38.02125 -0.1875 39.0625 C-0.785625 39.701875 -1.38375 40.34125 -2 41 C-2.66 41 -3.32 41 -4 41 C-4 41.66 -4 42.32 -4 43 C-6.475 43.495 -6.475 43.495 -9 44 C-9 43.34 -9 42.68 -9 42 C-8.01 42 -7.02 42 -6 42 C-6 41.34 -6 40.68 -6 40 C-5.34 40 -4.68 40 -4 40 C-4 39.34 -4 38.68 -4 38 C-3.34 38 -2.68 38 -2 38 C-1.67 36.02 -1.34 34.04 -1 32 C-2.485 32.495 -2.485 32.495 -4 33 C-4 30.69 -4 28.38 -4 26 C-2.02 26 -0.04 26 2 26 C2 24.35 2 22.7 2 21 C0.35 21 -1.3 21 -3 21 C-2.88140625 20.31292969 -2.7628125 19.62585938 -2.640625 18.91796875 C-2.51171875 18.01691406 -2.3828125 17.11585937 -2.25 16.1875 C-2.11078125 15.29417969 -1.9715625 14.40085937 -1.828125 13.48046875 C-1.75003918 10.90169655 -1.75003918 10.90169655 -3.63671875 9.19140625 C-6.48678231 7.75459735 -8.3840888 7.66351262 -11.5625 7.75 C-12.51253906 7.76546875 -13.46257812 7.7809375 -14.44140625 7.796875 C-17.11957113 7.90643658 -17.11957113 7.90643658 -20 9 C-20.75427297 13.97906259 -20.75427297 13.97906259 -21 19 C-20.34 19 -19.68 19 -19 19 C-19 19.66 -19 20.32 -19 21 C-23.07369424 23.03684712 -25.58937864 23.0257259 -30 22 C-29.67 21.13375 -29.34 20.2675 -29 19.375 C-27.82434465 15.40716321 -27.09522181 11.80955639 -29 8 C-28.01 7.34 -27.02 6.68 -26 6 C-24.65737935 6.29369827 -23.32303717 6.6278958 -22 7 C-21.01 6.67 -20.02 6.34 -19 6 C-17.44578271 5.91893314 -15.88832973 5.89243102 -14.33203125 5.90234375 C-13.43935547 5.90556641 -12.54667969 5.90878906 -11.62695312 5.91210938 C-10.23379883 5.92467773 -10.23379883 5.92467773 -8.8125 5.9375 C-7.87212891 5.94201172 -6.93175781 5.94652344 -5.96289062 5.95117188 C-3.64186288 5.96295374 -1.32096356 5.97940442 1 6 C0.67 4.02 0.34 2.04 0 0 Z " fill="#E2F6FB" transform="translate(90,85)"/>
<path d="M0 0 C0.33 0 0.66 0 1 0 C1 31.35 1 62.7 1 95 C39.61 95 78.22 95 118 95 C118 104.57 118 114.14 118 124 C79.06 124 40.12 124 0 124 C0 83.08 0 42.16 0 0 Z M1 96 C1 104.91 1 113.82 1 123 C39.28 123 77.56 123 117 123 C117.8713335 109.77746321 117.8713335 109.77746321 116 97 C113.6062866 95.8031433 112.14178739 95.87678294 109.46957397 95.87974548 C108.51602524 95.87837082 107.5624765 95.87699615 106.58003235 95.87557983 C105.53058945 95.87917511 104.48114655 95.88277039 103.39990234 95.88647461 C102.29745682 95.88632858 101.19501129 95.88618256 100.05915833 95.8860321 C96.40139829 95.88673088 92.74368868 95.89452167 89.0859375 95.90234375 C86.55530831 95.90420805 84.02467875 95.9056319 81.49404907 95.90663147 C75.50526544 95.91006443 69.51650358 95.91795245 63.52772868 95.92798096 C56.7104022 95.93914967 49.89307487 95.94465446 43.07574153 95.94967639 C29.05048241 95.96013525 15.02524628 95.97847771 1 96 Z " fill="#29A9DD" transform="translate(7,57)"/>
<path d="M0 0 C10.23 0 20.46 0 31 0 C27.89499721 3.10500279 25.5038168 4.3376735 21.5625 6.1875 C15.54294395 9.07764003 10.12260892 12.4820629 4.62109375 16.28125 C1.49667158 18.33005142 -1.54105622 19.61642249 -5 21 C-7.07274012 22.25103023 -9.02143407 23.60052654 -11 25 C-11.66 24.67 -12.32 24.34 -13 24 C-12.4225 22.989375 -11.845 21.97875 -11.25 20.9375 C-10.88261719 20.29296875 -10.51523437 19.6484375 -10.13671875 18.984375 C-9.12199828 17.21297295 -8.09319463 15.44965534 -7.0625 13.6875 C-4.55629701 9.20671284 -2.2960186 4.59203719 0 0 Z " fill="#B6E1F8" transform="translate(28,25)"/>
<path d="M0 0 C26.4 0 52.8 0 80 0 C80 3.63 80 7.26 80 11 C53.6 11 27.2 11 0 11 C0 7.37 0 3.74 0 0 Z M2 2 C2 4.64 2 7.28 2 10 C27.41 10 52.82 10 79 10 C79 7.36 79 4.72 79 2 C53.59 2 28.18 2 2 2 Z " fill="#C5EAF5" transform="translate(26,6)"/>
<path d="M0 0 C3.45831586 -0.02894547 6.91660072 -0.04678 10.375 -0.0625 C11.35984375 -0.07087891 12.3446875 -0.07925781 13.359375 -0.08789062 C14.77089844 -0.09272461 14.77089844 -0.09272461 16.2109375 -0.09765625 C17.51490479 -0.10551147 17.51490479 -0.10551147 18.84521484 -0.11352539 C21 0 21 0 23 1 C25.204364 1.22950319 27.41392173 1.41075933 29.625 1.5625 C30.81351563 1.64628906 32.00203125 1.73007812 33.2265625 1.81640625 C34.14179687 1.87699219 35.05703125 1.93757813 36 2 C36 3.32 36 4.64 36 6 C32.66954606 8.66436316 30.2225435 9.3619323 26 9 C26 9.66 26 10.32 26 11 C24.68 10.67 23.36 10.34 22 10 C25.96 8.02 29.92 6.04 34 4 C19.15 3.505 19.15 3.505 4 3 C3.67 4.65 3.34 6.3 3 8 C1.6953125 10.2109375 1.6953125 10.2109375 0.125 12.375 C-3.13758262 17.06936348 -5.19006088 21.57018264 -7 27 C-6.38125 26.505 -5.7625 26.01 -5.125 25.5 C-3 24 -3 24 -1 24 C-1 25.65 -1 27.3 -1 29 C0.65 29 2.3 29 4 29 C4 29.33 4 29.66 4 30 C-1.28 30 -6.56 30 -12 30 C-12 28.02 -12 26.04 -12 24 C-11.34 24 -10.68 24 -10 24 C-9.67 22.35 -9.34 20.7 -9 19 C-8.34 19 -7.68 19 -7 19 C-6.8453125 17.63875 -6.8453125 17.63875 -6.6875 16.25 C-5.97939434 12.90259142 -5.0844864 11.605608 -3 9 C-2.29485154 6.85266073 -2.29485154 6.85266073 -2 5 C-1.34 5 -0.68 5 0 5 C0 3.35 0 1.7 0 0 Z " fill="#0EAEE8" transform="translate(24,22)"/>
<path d="M0 0 C2.0245738 1.93254772 3.42105792 3.63158688 5 6 C5.99 7.423125 5.99 7.423125 7 8.875 C8.75348487 11.61482011 9.8910199 13.96878773 11 17 C11.53625 18.134375 12.0725 19.26875 12.625 20.4375 C13.98747971 23.96756106 14.35573247 26.26480904 14 30 C13 31 13 31 11.12780666 31.12304783 C10.30280194 31.12212604 9.47779722 31.12120424 8.62779236 31.12025452 C7.68403244 31.12162918 6.74027252 31.12300385 5.76791382 31.12442017 C4.72422638 31.12082489 3.68053894 31.11722961 2.60522461 31.11352539 C1.51267868 31.11367142 0.42013275 31.11381744 -0.70552063 31.1139679 C-4.33625233 31.11326822 -7.96693346 31.10547329 -11.59765625 31.09765625 C-14.10729443 31.09579226 -16.61693298 31.09436827 -19.12657166 31.09336853 C-25.06934593 31.08993348 -31.01210384 31.08204273 -36.95486969 31.07201904 C-44.38201925 31.05976253 -51.80917105 31.05437792 -59.23632812 31.04882812 C-72.49089473 31.03808811 -85.74544621 31.02120082 -99 31 C-100.25541557 27.23375329 -99.37061958 25.62811066 -98 22 C-97.34 22 -96.68 22 -96 22 C-96 22.66 -96 23.32 -96 24 C-96.66 24 -97.32 24 -98 24 C-98 25.98 -98 27.96 -98 30 C-61.7 30 -25.4 30 12 30 C11.01 28.35 10.02 26.7 9 25 C7.23179861 21.03922888 5.58970436 17.03540338 4 13 C3.34 13 2.68 13 2 13 C-0.61588503 9.44239635 -1.49357808 6.35522853 -2 2 C-1.34 2 -0.68 2 0 2 C0 1.34 0 0.68 0 0 Z " fill="#0197DD" transform="translate(110,22)"/>
<path d="M0 0 C0.33 0.66 0.66 1.32 1 2 C0.09226577 3.62676199 -0.88414504 5.21538116 -1.88919067 6.78388977 C-5.60759761 13.40980945 -5.84886 18.97844049 -5.77294922 26.45776367 C-5.78357895 27.75659485 -5.79420868 29.05542603 -5.80516052 30.39361572 C-5.8333575 33.92001074 -5.82532516 37.4454626 -5.81029272 40.97190261 C-5.80085324 44.67019253 -5.82541772 48.36826138 -5.84622192 52.06648254 C-5.88044061 59.05377349 -5.88451787 66.04073661 -5.87749684 73.02809459 C-5.87098468 80.98960275 -5.89848402 88.95088309 -5.92869925 96.91232336 C-5.99004392 113.27492313 -6.00913535 129.63728445 -6 146 C-6.33 146 -6.66 146 -7 146 C-7.67055824 129.65870981 -8.1593085 113.35567221 -8 97 C-8.66 96.67 -9.32 96.34 -10 96 C-10.02925502 92.31251691 -10.04688418 88.62506408 -10.0625 84.9375 C-10.07087891 83.89916016 -10.07925781 82.86082031 -10.08789062 81.79101562 C-10.10492786 76.42428649 -10.04598317 71.27380324 -9 66 C-8.505 65.505 -8.505 65.505 -8 65 C-7.94842995 63.47653333 -7.96682871 61.95062877 -8.01342773 60.42700195 C-8.0393248 59.45120682 -8.06522186 58.47541168 -8.09190369 57.470047 C-8.12216141 56.4035643 -8.15241913 55.3370816 -8.18359375 54.23828125 C-8.22552904 51.98115998 -8.26516488 49.72399504 -8.30273438 47.46679688 C-8.36396423 43.90692747 -8.43633539 40.34942208 -8.54858398 36.79077148 C-8.98093281 22.5572092 -9.29860478 11.45802742 0 0 Z " fill="#81BDDE" transform="translate(10,39)"/>
<path d="M0 0 C0.33 0 0.66 0 1 0 C1 3.96 1 7.92 1 12 C-26.06 12 -53.12 12 -81 12 C-80.67 11.01 -80.34 10.02 -80 9 C-70.71599429 8.97680182 -61.4319986 8.95904682 -52.1479702 8.94818783 C-47.83675485 8.94297535 -43.52555938 8.93590743 -39.21435547 8.92456055 C-35.05169098 8.91367351 -30.88904558 8.90771084 -26.72636795 8.90512276 C-25.14040451 8.90327899 -23.55444208 8.89967859 -21.96848679 8.89426994 C-19.74247757 8.88698229 -17.51654662 8.88601231 -15.29052734 8.88647461 C-14.02477875 8.884254 -12.75903015 8.88203339 -11.45492554 8.87974548 C-8 9 -8 9 -4.60684204 9.56959534 C-3.74658417 9.71162888 -2.88632629 9.85366241 -2 10 C-0.41727399 8.41727399 -0.65264253 6.61965997 -0.4375 4.4375 C-0.31181641 3.19806641 -0.31181641 3.19806641 -0.18359375 1.93359375 C-0.12300781 1.29550781 -0.06242187 0.65742188 0 0 Z " fill="#018AD3" transform="translate(108,10)"/>
<path d="M0 0 C3.17761736 1.58880868 4.03504758 4.8451632 5.5 7.9375 C7.72443492 12.81185121 7.72443492 12.81185121 11 17 C11.25891972 19.04983902 11.25891972 19.04983902 11.27174377 21.6260376 C11.2814621 22.60142487 11.29118042 23.57681213 11.30119324 24.58175659 C11.30178238 25.65595856 11.30237152 26.73016052 11.30297852 27.83691406 C11.31141785 28.96563934 11.31985718 30.09436462 11.32855225 31.2572937 C11.35445532 35.01007487 11.36650743 38.76277696 11.37890625 42.515625 C11.39508034 45.12482323 11.41226024 47.73401541 11.43040466 50.34320068 C11.47211431 56.53130575 11.50448317 62.71941906 11.53287882 68.90759826 C11.58667147 80.60251272 11.65555191 92.29732481 11.73081779 103.99211884 C11.75348482 107.81946551 11.76987307 111.64680122 11.78553772 115.47418213 C11.86559062 132.25935705 11.86559062 132.25935705 13 149 C12.34 149 11.68 149 11 149 C11 150.32 11 151.64 11 153 C10.01 152.67 9.02 152.34 8 152 C8.66 152 9.32 152 10 152 C9.67 107.78 9.34 63.56 9 18 C7.68 17.67 6.36 17.34 5 17 C4.70996094 15.84371094 4.70996094 15.84371094 4.4140625 14.6640625 C4.15367188 13.66117188 3.89328125 12.65828125 3.625 11.625 C3.36976562 10.62726562 3.11453125 9.62953125 2.8515625 8.6015625 C2.17595681 5.87458985 2.17595681 5.87458985 0 4 C0 2.68 0 1.36 0 0 Z " fill="#CBF7FE" transform="translate(119,34)"/>
<path d="M0 0 C4.75 3.5625 4.75 3.5625 6 7 C6 8.32 6 9.64 6 11 C4.68 10.67 3.36 10.34 2 10 C1.34 6.7 0.68 3.4 0 0 Z M-26 6 C-24.65737935 6.29369827 -23.32303717 6.6278958 -22 7 C-21.01 6.67 -20.02 6.34 -19 6 C-17.44578271 5.91893314 -15.88832973 5.89243102 -14.33203125 5.90234375 C-13.43935547 5.90556641 -12.54667969 5.90878906 -11.62695312 5.91210938 C-10.23379883 5.92467773 -10.23379883 5.92467773 -8.8125 5.9375 C-7.87212891 5.94201172 -6.93175781 5.94652344 -5.96289062 5.95117188 C-3.64189992 5.96295355 -1.32094193 5.98088886 1 6 C1 9.96 1 13.92 1 18 C-0.32 18.33 -1.64 18.66 -3 19 C-2.67 18.34 -2.34 17.68 -2 17 C-1.5832448 14.04211431 -1.5832448 14.04211431 -2 11 C-4.2160687 8.77875357 -5.55931107 8.05372695 -8.69140625 7.671875 C-9.63886719 7.69765625 -10.58632812 7.7234375 -11.5625 7.75 C-12.98755859 7.77320312 -12.98755859 7.77320312 -14.44140625 7.796875 C-17.11957113 7.90643658 -17.11957113 7.90643658 -20 9 C-20.75427297 13.97906259 -20.75427297 13.97906259 -21 19 C-20.34 19 -19.68 19 -19 19 C-19 19.66 -19 20.32 -19 21 C-23.07369424 23.03684712 -25.58937864 23.0257259 -30 22 C-29.67 21.13375 -29.34 20.2675 -29 19.375 C-27.82434465 15.40716321 -27.09522181 11.80955639 -29 8 C-28.01 7.34 -27.02 6.68 -26 6 Z " fill="#D1F2FB" transform="translate(90,85)"/>
<path d="M0 0 C1.40144005 -0.0062162 1.40144005 -0.0062162 2.83119202 -0.01255798 C5.7210342 0.05234385 8.47136873 0.41575664 11.29272461 1.04272461 C7.52789505 3.49133535 3.74005162 3.3489635 -0.59692383 3.36157227 C-1.38754715 3.37161789 -2.17817047 3.38166351 -2.99275208 3.39201355 C-5.60071093 3.42285386 -8.20856707 3.43988297 -10.81665039 3.45678711 C-12.62698246 3.47549808 -14.43730581 3.49507144 -16.24761963 3.51547241 C-21.00851294 3.5668071 -25.76943453 3.60642569 -30.53045654 3.64361572 C-35.39024865 3.68364696 -40.24992298 3.73474333 -45.10961914 3.78491211 C-54.6420885 3.88168724 -64.17462435 3.96608699 -73.70727539 4.04272461 C-73.70727539 3.38272461 -73.70727539 2.72272461 -73.70727539 2.04272461 C-70.4817119 0.96753678 -68.07590533 0.88561911 -64.68212891 0.83740234 C-62.81857506 0.80748451 -62.81857506 0.80748451 -60.91737366 0.77696228 C-59.55697786 0.75995693 -58.19658047 0.74307893 -56.83618164 0.72631836 C-55.43431529 0.7057177 -54.03245473 0.68472048 -52.63059998 0.66334534 C-48.93137638 0.60812221 -45.23209572 0.55877563 -41.53277588 0.51049805 C-38.54550922 0.47053569 -35.55831098 0.42642694 -32.57110691 0.38206387 C-28.97198558 0.32870658 -25.37283793 0.27725697 -21.77368164 0.22631836 C-20.76546451 0.21198163 -20.76546451 0.21198163 -19.73687935 0.19735527 C-13.15812823 0.10536422 -6.57935919 0.02836385 0 0 Z " fill="#0A81C5" transform="translate(97.707275390625,1.957275390625)"/>
<path d="M0 0 C1.37862089 0.00186837 2.75724246 0.00329029 4.13586426 0.00428772 C7.739399 0.0080799 11.34289252 0.01788147 14.94641113 0.0289917 C18.63353925 0.03927729 22.32067412 0.04380056 26.0078125 0.04882812 C33.22397699 0.05950716 40.44010769 0.07654326 47.65625 0.09765625 C47.65625 0.75765625 47.65625 1.41765625 47.65625 2.09765625 C25.21625 2.09765625 2.77625 2.09765625 -20.34375 2.09765625 C-20.34375 7.70765625 -20.34375 13.31765625 -20.34375 19.09765625 C-23.15625 25.91796875 -23.15625 25.91796875 -25.34375 29.09765625 C-26.00375 29.09765625 -26.66375 29.09765625 -27.34375 29.09765625 C-25.52771226 23.39010908 -25.52771226 23.39010908 -24.27734375 21.40234375 C-22.89155734 17.98136474 -23.17422148 14.59865266 -23.28125 10.97265625 C-23.46368243 3.33752111 -23.46368243 3.33752111 -22.34375 1.09765625 C-14.97982941 -0.34185167 -7.47418573 -0.02933826 0 0 Z " fill="#6FB3D7" transform="translate(43.34375,0.90234375)"/>
<path d="M0 0 C1.98 0.66 3.96 1.32 6 2 C6.05447047 3.41623216 6.09300508 4.83308191 6.125 6.25 C6.14820312 7.03890625 6.17140625 7.8278125 6.1953125 8.640625 C5.97436892 11.30962345 5.54942153 12.81258137 4 15 C2.01171875 15.828125 2.01171875 15.828125 -0.3125 16.25 C-1.11171875 16.39695312 -1.9109375 16.54390625 -2.734375 16.6953125 C-5.18300268 17.0246107 -7.53246834 17.15919559 -10 17 C-9.505 15.515 -9.505 15.515 -9 14 C-6.9375 13.3125 -6.9375 13.3125 -5 13 C-4.5978125 11.3603125 -4.5978125 11.3603125 -4.1875 9.6875 C-3.06861896 6.21307994 -2.53602446 5.30547678 0 3 C0 2.01 0 1.02 0 0 Z " fill="#0797DB" transform="translate(98,111)"/>
<path d="M0 0 C7.59 0 15.18 0 23 0 C23 0.99 23 1.98 23 3 C21.35 3 19.7 3 18 3 C18 5.31 18 7.62 18 10 C16.68 10 15.36 10 14 10 C14 7.69 14 5.38 14 3 C12.35 3 10.7 3 9 3 C9 5.31 9 7.62 9 10 C7.68 10 6.36 10 5 10 C5 7.69 5 5.38 5 3 C3.35 3 1.7 3 0 3 C0 2.01 0 1.02 0 0 Z " fill="#1F98D3" transform="translate(68,108)"/>
<path d="M0 0 C2.0245738 1.93254772 3.42105792 3.63158688 5 6 C5.66 6.94875 6.32 7.8975 7 8.875 C8.75348487 11.61482011 9.8910199 13.96878773 11 17 C11.53625 18.155 12.0725 19.31 12.625 20.5 C13.88705482 23.71250319 14.30733715 25.61929139 14 29 C9.45371757 25.92818755 7.88114147 23.10595542 6 18 C5.4121875 16.5459375 5.4121875 16.5459375 4.8125 15.0625 C4.544375 14.381875 4.27625 13.70125 4 13 C3.34 13 2.68 13 2 13 C-0.61588503 9.44239635 -1.49357808 6.35522853 -2 2 C-1.34 2 -0.68 2 0 2 C0 1.34 0 0.68 0 0 Z " fill="#0C88C6" transform="translate(110,22)"/>
<path d="M0 0 C0.33 0 0.66 0 1 0 C1 4.95 1 9.9 1 15 C1.66 15 2.32 15 3 15 C4.76615118 10.29026351 5.48594831 5.96916636 6 1 C6.28875 1.598125 6.5775 2.19625 6.875 2.8125 C8.04742026 5.19327792 8.04742026 5.19327792 10 8 C10 8.99 10 9.98 10 11 C8.68 11 7.36 11 6 11 C6 12.32 6 13.64 6 15 C9.3 15 12.6 15 16 15 C16 17.31 16 19.62 16 22 C15.649375 21.360625 15.29875 20.72125 14.9375 20.0625 C12.22815794 17.17836168 9.84141089 17.2899178 6 17 C6 17.66 6 18.32 6 19 C5.34 19 4.68 19 4 19 C4.66 19.99 5.32 20.98 6 22 C6.66 22 7.32 22 8 22 C8.33 24.31 8.66 26.62 9 29 C4.33927214 24.85713079 0.39537997 20.54975141 -0.16748047 14.07275391 C-0.33950427 9.37468763 -0.20511987 4.69496597 0 0 Z " fill="#D0F1FC" transform="translate(35,96)"/>
<path d="M0 0 C0.6875 1.8125 0.6875 1.8125 1 4 C-0.3125 5.75 -0.3125 5.75 -2 7 C-2.66 7 -3.32 7 -4 7 C-3.67 7.66 -3.34 8.32 -3 9 C-0.03 9 2.94 9 6 9 C2.91111478 11.05925681 2.29064073 11.2390374 -1.1875 11.125 C-3.0746875 11.063125 -3.0746875 11.063125 -5 11 C-5 13.31 -5 15.62 -5 18 C-5.66 18.33 -6.32 18.66 -7 19 C-7 16.69 -7 14.38 -7 12 C-8.65 12.33 -10.3 12.66 -12 13 C-12.33 14.98 -12.66 16.96 -13 19 C-13.99 18.67 -14.98 18.34 -16 18 C-16 17.34 -16 16.68 -16 16 C-17.05767578 16.26103516 -17.05767578 16.26103516 -18.13671875 16.52734375 C-21.20093804 17.03316985 -23.73160701 16.89657273 -26.8125 16.5625 C-27.78832031 16.46066406 -28.76414062 16.35882813 -29.76953125 16.25390625 C-30.50558594 16.17011719 -31.24164063 16.08632812 -32 16 C-32 15.67 -32 15.34 -32 15 C-31.17757812 14.97421875 -30.35515625 14.9484375 -29.5078125 14.921875 C-22.68830622 14.57538738 -17.14552821 13.70031658 -10.92578125 10.83984375 C-9 10 -9 10 -7 10 C-7 9.34 -7 8.68 -7 8 C-6.34 8 -5.68 8 -5 8 C-4.731875 7.4225 -4.46375 6.845 -4.1875 6.25 C-2.98280141 3.9674132 -1.59201885 2.0262058 0 0 Z " fill="#1D9ACB" transform="translate(93,118)"/>
<path d="M0 0 C4.98287932 0.39081406 8.65022018 1.55987961 13 4 C12.34 6.31 11.68 8.62 11 11 C7.05272412 11.17942163 4.4019487 11.09350689 1 9 C1 8.34 1 7.68 1 7 C0.34 7 -0.32 7 -1 7 C-1.04254356 5.00045254 -1.04080783 2.99958364 -1 1 C-0.67 0.67 -0.34 0.34 0 0 Z " fill="#189CDA" transform="translate(46,129)"/>
<path d="M0 0 C0 0.66 0 1.32 0 2 C0.8971875 1.6596875 0.8971875 1.6596875 1.8125 1.3125 C2.8953125 1.1578125 2.8953125 1.1578125 4 1 C5.75 2.4375 5.75 2.4375 7 4 C6.67 4.66 6.34 5.32 6 6 C5.34 5.67 4.68 5.34 4 5 C4 5.66 4 6.32 4 7 C-1.76926889 8.40333568 -7.18143105 7.67296616 -13 7 C-11.2109375 2.1640625 -11.2109375 2.1640625 -9.3125 0.6875 C-6.16643337 -0.2478171 -3.26075491 -0.12541365 0 0 Z " fill="#0899DC" transform="translate(70,65)"/>
<path d="M0 0 C0.33 0 0.66 0 1 0 C1.33 2.97 1.66 5.94 2 9 C2.99 9 3.98 9 5 9 C4.566875 10.051875 4.566875 10.051875 4.125 11.125 C3.75375 12.07375 3.3825 13.0225 3 14 C2.65066406 14.88171875 2.30132812 15.7634375 1.94140625 16.671875 C0.84543134 20.5464419 0.74222799 24.13798787 0.8125 28.125 C0.81314453 28.82753906 0.81378906 29.53007813 0.81445312 30.25390625 C0.84321821 33.63540136 0.95328252 36.76773641 2 40 C1.34 40 0.68 40 0 40 C-1.6498007 36.70039859 -1.38258361 33.00872116 -1.5625 29.375 C-1.60568359 28.57320312 -1.64886719 27.77140625 -1.69335938 26.9453125 C-1.79951457 24.9637489 -1.90026855 22.98189729 -2 21 C-2.99 22.32 -3.98 23.64 -5 25 C-5.25 22.6875 -5.25 22.6875 -5 20 C-3.0625 18.375 -3.0625 18.375 -1 17 C-0.67 16.01 -0.34 15.02 0 14 C-0.99 14 -1.98 14 -3 14 C-3 14.66 -3 15.32 -3 16 C-4.65 16 -6.3 16 -8 16 C-5.375 12.125 -5.375 12.125 -2 11 C-1.93941406 10.28972656 -1.87882812 9.57945313 -1.81640625 8.84765625 C-1.73261719 7.92855469 -1.64882813 7.00945312 -1.5625 6.0625 C-1.48128906 5.14597656 -1.40007813 4.22945313 -1.31640625 3.28515625 C-1 1 -1 1 0 0 Z " fill="#33A3D3" transform="translate(35,76)"/>
<path d="M0 0 C0 1.98 0 3.96 0 6 C-0.33 6 -0.66 6 -1 6 C-1.33 8.31 -1.66 10.62 -2 13 C-2.33 13 -2.66 13 -3 13 C-3 9.37 -3 5.74 -3 2 C-29.4 2 -55.8 2 -83 2 C-83 1.67 -83 1.34 -83 1 C-72.76876574 0.86931787 -62.53752804 0.73890868 -52.30628586 0.60884857 C-47.55558859 0.54844886 -42.80489255 0.4879549 -38.05419922 0.42724609 C-33.47009812 0.36866962 -28.88599394 0.31034 -24.30188751 0.25218201 C-22.55238991 0.22994287 -20.80289344 0.20761457 -19.05339813 0.18519592 C-16.60428658 0.15382734 -14.15517121 0.12277487 -11.70605469 0.09179688 C-10.98172745 0.08244614 -10.25740021 0.0730954 -9.51112366 0.0634613 C-6.34027655 0.0236533 -3.17119053 0 0 0 Z " fill="#2688BC" transform="translate(109,4)"/>
<path d="M0 0 C7.92 0 15.84 0 24 0 C24 0.99 24 1.98 24 3 C20.7 3 17.4 3 14 3 C14 5.31 14 7.62 14 10 C12.68 10 11.36 10 10 10 C10 7.69 10 5.38 10 3 C6.7 3 3.4 3 0 3 C0 2.01 0 1.02 0 0 Z " fill="#1D99D5" transform="translate(41,108)"/>
<path d="M0 0 C3 1.625 3 1.625 5 4 C5.4375 7.125 5.4375 7.125 5 10 C3 12 3 12 -0.4765625 12.1953125 C-1.85950968 12.18201493 -3.24238654 12.15816232 -4.625 12.125 C-5.33140625 12.11597656 -6.0378125 12.10695313 -6.765625 12.09765625 C-8.51056098 12.07407603 -10.25532295 12.03820461 -12 12 C-12 11.34 -12 10.68 -12 10 C-6.06 9.505 -6.06 9.505 0 9 C0 7.68 0 6.36 0 5 C-0.63808594 4.87882812 -1.27617188 4.75765625 -1.93359375 4.6328125 C-2.75988281 4.46523437 -3.58617188 4.29765625 -4.4375 4.125 C-5.26121094 3.96257812 -6.08492188 3.80015625 -6.93359375 3.6328125 C-7.61550781 3.42398438 -8.29742187 3.21515625 -9 3 C-9.33 2.34 -9.66 1.68 -10 1 C-6.78797474 -0.60601263 -3.48398802 -0.47296969 0 0 Z " fill="#229ED6" transform="translate(84,92)"/>
<path d="M0 0 C-1.98 0.99 -1.98 0.99 -4 2 C-4 1.34 -4 0.68 -4 0 C-12.25 0 -20.5 0 -29 0 C-29 0.66 -29 1.32 -29 2 C-30.71484375 3.21875 -30.71484375 3.21875 -32.9375 4.5 C-36.05432026 6.18454879 -36.05432026 6.18454879 -38 9 C-38.99 8.67 -39.98 8.34 -41 8 C-30.13878743 -4.26265935 -14.88678801 -5.76262762 0 0 Z " fill="#C0EBFA" transform="translate(82,77)"/>
<path d="M0 0 C2.97 0.33 5.94 0.66 9 1 C8.99097656 2.07636719 8.98195313 3.15273437 8.97265625 4.26171875 C9.09865803 13.88095954 10.43303497 20.39722321 15.6015625 28.55859375 C16.06304687 29.36425781 16.52453125 30.16992188 17 31 C16.67 31.66 16.34 32.32 16 33 C13.59927045 30.11912454 11.52708963 27.43595166 10 24 C9.67 24 9.34 24 9 24 C8.01 23.67 7.02 23.34 6 23 C6.33 16.07 6.66 9.14 7 2 C5.02 2 3.04 2 1 2 C0.67 1.34 0.34 0.68 0 0 Z " fill="#69B4DC" transform="translate(102,1)"/>
<path d="M0 0 C1.41377341 2.63904371 2.37240135 5.07120629 3 8 C4.32 8 5.64 8 7 8 C7.33 8.66 7.66 9.32 8 10 C10.32156597 10.40729228 12.6568787 10.74438677 15 11 C15 10.34 15 9.68 15 9 C14.34 9 13.68 9 13 9 C13 8.34 13 7.68 13 7 C12.34 7 11.68 7 11 7 C11.33 5.68 11.66 4.36 12 3 C12.5775 3.7425 13.155 4.485 13.75 5.25 C15.72253526 7.66087643 17.76044282 9.84042701 20 12 C19.01 12.495 19.01 12.495 18 13 C17.34227572 16.02934491 17.34227572 16.02934491 17 19 C16.34 18.34 15.68 17.68 15 17 C15 15.68 15 14.36 15 13 C13.1746875 13.12375 13.1746875 13.12375 11.3125 13.25 C8.02392956 13.25 7.05874062 13.03575516 4.125 11.25 C1.26395325 8.22065638 0.06552667 6.44158684 -0.125 2.25 C-0.063125 1.13625 -0.063125 1.13625 0 0 Z " fill="#3BA4D7" transform="translate(28,117)"/>
<path d="M0 0 C1.32 0.99 2.64 1.98 4 3 C2.64250735 10.40450539 2.64250735 10.40450539 -0.5625 13.375 C-1.366875 13.91125 -2.17125 14.4475 -3 15 C-3.33 15.66 -3.66 16.32 -4 17 C-4.99 17 -5.98 17 -7 17 C-7 17.99 -7 18.98 -7 20 C-7.66 20 -8.32 20 -9 20 C-6.35762769 13.17387154 -3.33965281 6.51232298 0 0 Z " fill="#208FCC" transform="translate(15,30)"/>
<path d="M0 0 C0.99 0 1.98 0 3 0 C2.75 1.875 2.75 1.875 2 4 C-0.0625 5.25 -0.0625 5.25 -2 6 C-2 7.65 -2 9.3 -2 11 C-1.34 11 -0.68 11 0 11 C0 13.31 0 15.62 0 18 C-0.33 17.34 -0.66 16.68 -1 16 C-1.66 16 -2.32 16 -3 16 C-3.66 14.68 -4.32 13.36 -5 12 C-5.66 12 -6.32 12 -7 12 C-7.22036864 8.14354879 -6.60355101 5.50776784 -5 2 C-3.35 2 -1.7 2 0 2 C0 1.34 0 0.68 0 0 Z " fill="#0599DF" transform="translate(32,90)"/>
<path d="M0 0 C0 2.64 0 5.28 0 8 C-5.60563042 8.82622671 -10.42289352 9.06795656 -16 8 C-16 7.01 -16 6.02 -16 5 C-12.6875 4.3125 -12.6875 4.3125 -9 4 C-7.0625 5.4375 -7.0625 5.4375 -6 7 C-5.67 5.02 -5.34 3.04 -5 1 C-2 0 -2 0 0 0 Z " fill="#049AE0" transform="translate(86,130)"/>
<path d="M0 0 C0.268125 0.639375 0.53625 1.27875 0.8125 1.9375 C1.88667752 4.33131686 1.88667752 4.33131686 5 5 C5.05437607 6.58294782 5.09296271 8.16644256 5.125 9.75 C5.14820312 10.63171875 5.17140625 11.5134375 5.1953125 12.421875 C4.99139502 15.1135858 4.36551721 16.69904974 3 19 C2.34 17.68 1.68 16.36 1 15 C-0.65 15 -2.3 15 -4 15 C-4 14.34 -4 13.68 -4 13 C-2.68 12.67 -1.36 12.34 0 12 C-0.08378906 11.21753906 -0.16757813 10.43507813 -0.25390625 9.62890625 C-0.35574219 8.61699219 -0.45757812 7.60507813 -0.5625 6.5625 C-0.66691406 5.55316406 -0.77132812 4.54382813 -0.87890625 3.50390625 C-0.91886719 2.67761719 -0.95882812 1.85132812 -1 1 C-0.67 0.67 -0.34 0.34 0 0 Z " fill="#F9FBF9" transform="translate(91,91)"/>
<path d="M0 0 C10.23 0 20.46 0 31 0 C30.01 0.99 29.02 1.98 28 3 C25.98722395 2.7553703 23.9882994 2.39721105 22 2 C18.54142566 1.86180024 15.08572804 1.90541051 11.625 1.9375 C10.23474609 1.94426758 10.23474609 1.94426758 8.81640625 1.95117188 C6.54420291 1.96288426 4.27213612 1.97928628 2 2 C1.87625 2.639375 1.7525 3.27875 1.625 3.9375 C1.41875 4.618125 1.2125 5.29875 1 6 C0.01 6.495 0.01 6.495 -1 7 C-1.33 7.99 -1.66 8.98 -2 10 C-2.66 9.67 -3.32 9.34 -4 9 C-2.68 6.03 -1.36 3.06 0 0 Z " fill="#98DEFC" transform="translate(28,25)"/>
<path d="M0 0 C3.63 0 7.26 0 11 0 C11.33 1.65 11.66 3.3 12 5 C10.33438601 6.66561399 8.34037295 6.17115945 6.0625 6.1875 C5.16660156 6.20167969 4.27070312 6.21585937 3.34765625 6.23046875 C1 6 1 6 -1 4 C-0.67 2.68 -0.34 1.36 0 0 Z " fill="#C4F1FA" transform="translate(73,96)"/>
<path d="M0 0 C4.89479315 0.20729315 4.89479315 0.20729315 7.25 2.5625 C6.26 2.8925 5.27 3.2225 4.25 3.5625 C4.25 2.9025 4.25 2.2425 4.25 1.5625 C1.91404762 1.87695513 -0.41905466 2.2128582 -2.75 2.5625 C-3.513125 2.645 -4.27625 2.7275 -5.0625 2.8125 C-7.03947211 3.47183695 -7.03947211 3.47183695 -7.9375 6.0625 C-8.205625 6.8875 -8.47375 7.7125 -8.75 8.5625 C-10.64649302 10.45899302 -13.96109631 9.91501182 -16.5 10.0625 C-20.67885432 10.30728645 -24.66596027 10.62722373 -28.75 11.5625 C-27.1484375 9.55078125 -27.1484375 9.55078125 -24.75 7.5625 C-21.7265625 7.41796875 -21.7265625 7.41796875 -18.375 7.75 C-13.77159618 8.11584762 -13.77159618 8.11584762 -9.953125 6.01953125 C-9.07706598 4.72863252 -8.20964526 3.43182332 -7.3515625 2.12890625 C-5.01990973 -0.1515639 -3.20106123 0.02895017 0 0 Z " fill="#33A2D1" transform="translate(65.75,63.4375)"/>
<path d="M0 0 C0.33 0 0.66 0 1 0 C1 10.56 1 21.12 1 32 C0.01 31.67 -0.98 31.34 -2 31 C-2.02925502 27.31251691 -2.04688418 23.62506408 -2.0625 19.9375 C-2.07087891 18.89916016 -2.07925781 17.86082031 -2.08789062 16.79101562 C-2.10492786 11.42428649 -2.04598317 6.27380324 -1 1 C-0.67 0.67 -0.34 0.34 0 0 Z " fill="#ECFAFF" transform="translate(2,104)"/>
<path d="M0 0 C3.63 0 7.26 0 11 0 C11.33 1.65 11.66 3.3 12 5 C8.07703567 6.30765478 5.13997567 6.1971417 1 6 C0.34 5.34 -0.32 4.68 -1 4 C-0.67 2.68 -0.34 1.36 0 0 Z " fill="#D5F4FA" transform="translate(47,96)"/>
<path d="M0 0 C0.66 0.33 1.32 0.66 2 1 C2 4.63 2 8.26 2 12 C3.11375 12.2475 4.2275 12.495 5.375 12.75 C9 14 9 14 10.4375 16.125 C10.623125 16.74375 10.80875 17.3625 11 18 C9.02 17.34 7.04 16.68 5 16 C5 15.34 5 14.68 5 14 C2.525 13.505 2.525 13.505 0 13 C-0.33 13.99 -0.66 14.98 -1 16 C-1.350625 15.29875 -1.70125 14.5975 -2.0625 13.875 C-4.83291395 9.76406317 -8.5312737 6.23436315 -13 4 C-13 3.34 -13 2.68 -13 2 C-9.6496302 2.57764997 -8.31766228 3.58576846 -6 6 C-5.319375 6.33 -4.63875 6.66 -3.9375 7 C-2 8 -2 8 0 11 C0 7.37 0 3.74 0 0 Z " fill="#309ED1" transform="translate(95,75)"/>
<path d="M0 0 C0.99 0.33 1.98 0.66 3 1 C3 1.66 3 2.32 3 3 C4.29233607 4.37310707 5.62437146 5.71034824 7 7 C5.80375 6.67 4.6075 6.34 3.375 6 C-5.23701661 4.0922748 -14.68517538 3.83244776 -23 7 C-23 6.34 -23 5.68 -23 5 C-22.01 5 -21.02 5 -20 5 C-20 4.34 -20 3.68 -20 3 C-17.703463 1.8517315 -16.41686833 1.88438825 -13.8671875 1.90234375 C-13.06152344 1.90556641 -12.25585938 1.90878906 -11.42578125 1.91210938 C-10.58402344 1.92048828 -9.74226563 1.92886719 -8.875 1.9375 C-8.02550781 1.94201172 -7.17601563 1.94652344 -6.30078125 1.95117188 C-4.20049091 1.96297126 -2.1002367 1.98090694 0 2 C0 1.34 0 0.68 0 0 Z " fill="#1A98D0" transform="translate(74,70)"/>
<path d="M0 0 C0.66 0 1.32 0 2 0 C2 1.32 2 2.64 2 4 C2.66 4 3.32 4 4 4 C4.06058594 4.81984375 4.12117188 5.6396875 4.18359375 6.484375 C4.26738281 7.56203125 4.35117188 8.6396875 4.4375 9.75 C4.51871094 10.81734375 4.59992188 11.8846875 4.68359375 12.984375 C4.94090773 15.43679962 5.31812218 17.63921291 6 20 C6.66 20 7.32 20 8 20 C8 20.66 8 21.32 8 22 C5.525 21.01 5.525 21.01 3 20 C3.33 21.32 3.66 22.64 4 24 C2.35 24.99 0.7 25.98 -1 27 C-0.51080078 25.76443359 -0.51080078 25.76443359 -0.01171875 24.50390625 C1.12348947 20.57231638 1.25932844 16.98635565 1.1875 12.9375 C1.1865332 11.89625977 1.1865332 11.89625977 1.18554688 10.83398438 C1.15367563 7.10504911 0.88337649 3.62537712 0 0 Z " fill="#2FA0D2" transform="translate(95,91)"/>
<path d="M0 0 C1.04449911 3.13349732 0.93423645 3.98968256 0 7 C2.64 6.67 5.28 6.34 8 6 C6.61903214 8.76193573 4.67115134 9.02905576 1.921875 10.13671875 C-0.96984851 11.43564333 -3.4155406 13.17196774 -6 15 C-6.66 14.67 -7.32 14.34 -8 14 C-5.33333333 9.33333333 -2.66666667 4.66666667 0 0 Z " fill="#A0E0FB" transform="translate(23,35)"/>
<path d="M0 0 C0.66 0 1.32 0 2 0 C1.67 2.31 1.34 4.62 1 7 C1.66 7 2.32 7 3 7 C3 8.32 3 9.64 3 11 C-0.63 11.33 -4.26 11.66 -8 12 C-7.67 11.01 -7.34 10.02 -7 9 C-4.9375 8.3125 -4.9375 8.3125 -3 8 C-2.690625 6.865625 -2.38125 5.73125 -2.0625 4.5625 C-1 1 -1 1 0 0 Z " fill="#0A94DE" transform="translate(96,116)"/>
<path d="M0 0 C10.23 0 20.46 0 31 0 C31 1.32 31 2.64 31 4 C27.66954606 6.66436316 25.2225435 7.3619323 21 7 C21 7.66 21 8.32 21 9 C19.68 8.67 18.36 8.34 17 8 C20.96 6.02 24.92 4.04 29 2 C19.43 1.67 9.86 1.34 0 1 C0 0.67 0 0.34 0 0 Z " fill="#30B7E8" transform="translate(29,24)"/>
<path d="M0 0 C1.46726798 3.81489674 0.43336419 6.29011622 -1 10 C0.32 10 1.64 10 3 10 C3 11.32 3 12.64 3 14 C3.66 14 4.32 14 5 14 C5 14.66 5 15.32 5 16 C5.66 16 6.32 16 7 16 C6.6875 17.9375 6.6875 17.9375 6 20 C5.01 20.33 4.02 20.66 3 21 C3 20.34 3 19.68 3 19 C3.66 19 4.32 19 5 19 C5 18.34 5 17.68 5 17 C4.401875 16.9175 3.80375 16.835 3.1875 16.75 C0.16655327 15.71424684 -0.56379299 14.87241402 -2 12 C-2.5562956 7.26720821 -2.68789583 4.03184374 0 0 Z " fill="#249FD8" transform="translate(26,92)"/>
<path d="M0 0 C0.33 0.66 0.66 1.32 1 2 C2.98 2 4.96 2 7 2 C4.31158141 4.25245881 2.35358125 5.88213958 -1 7 C-2.20882096 9.00016466 -2.20882096 9.00016466 -3 11 C-3.66 10.67 -4.32 10.34 -5 10 C-3.375 2.25 -3.375 2.25 0 0 Z " fill="#139CD8" transform="translate(44,75)"/>
<path d="M0 0 C1.98 0 3.96 0 6 0 C3.71724454 2.28275546 1.4579822 3.51689175 -1.375 5.0625 C-2.80972656 5.85333984 -2.80972656 5.85333984 -4.2734375 6.66015625 C-6.56899312 7.78820149 -8.5053624 8.52117146 -11 9 C-11 8.34 -11 7.68 -11 7 C-10.34 6.67 -9.68 6.34 -9 6 C-8.34786708 3.97536745 -8.34786708 3.97536745 -8 2 C-4.94736336 1.01879536 -3.05263664 1.01879536 0 2 C0 1.34 0 0.68 0 0 Z " fill="#A5E2FC" transform="translate(48,28)"/>
<path d="M0 0 C0 0.66 0 1.32 0 2 C-0.99 2 -1.98 2 -3 2 C-3.33 3.98 -3.66 5.96 -4 8 C-4.99 7.67 -5.98 7.34 -7 7 C-7 6.34 -7 5.68 -7 5 C-8.05767578 5.26103516 -8.05767578 5.26103516 -9.13671875 5.52734375 C-12.20093804 6.03316985 -14.73160701 5.89657273 -17.8125 5.5625 C-18.78832031 5.46066406 -19.76414062 5.35882813 -20.76953125 5.25390625 C-21.50558594 5.17011719 -22.24164063 5.08632812 -23 5 C-23 4.67 -23 4.34 -23 4 C-22.14277344 3.96261719 -21.28554688 3.92523438 -20.40234375 3.88671875 C-13.4208155 3.48530055 -6.4753854 0 0 0 Z " fill="#39A7DA" transform="translate(84,129)"/>
<path d="M0 0 C0 0.66 0 1.32 0 2 C0.99 2.66 1.98 3.32 3 4 C-4.59 4 -12.18 4 -20 4 C-18.68 3.67 -17.36 3.34 -16 3 C-16 2.34 -16 1.68 -16 1 C-15.15695313 1.01160156 -14.31390625 1.02320312 -13.4453125 1.03515625 C-12.34960938 1.04417969 -11.25390625 1.05320312 -10.125 1.0625 C-9.03445312 1.07410156 -7.94390625 1.08570312 -6.8203125 1.09765625 C-4.16663968 1.00577007 -2.56044142 0 0 0 Z " fill="#9EDAEF" transform="translate(61,104)"/>
<path d="M0 0 C7.92 0 15.84 0 24 0 C24 0.99 24 1.98 24 3 C22.41676312 3.027193 20.83338938 3.04648306 19.25 3.0625 C17.92742188 3.07990234 17.92742188 3.07990234 16.578125 3.09765625 C14.2181162 3.00826198 12.25501476 2.66912821 10 2 C10 2.33 10 2.66 10 3 C6.7 3 3.4 3 0 3 C0 2.01 0 1.02 0 0 Z " fill="#3198C7" transform="translate(41,108)"/>
<path d="M0 0 C0.33 0 0.66 0 1 0 C1 2.31 1 4.62 1 7 C2.32 7.33 3.64 7.66 5 8 C5 8.66 5 9.32 5 10 C0.92630576 12.03684712 -1.58937864 12.0257259 -6 11 C-5 8 -5 8 -3 6.0625 C-0.94497246 3.94325285 -0.40893155 2.86252086 0 0 Z " fill="#F0FAFC" transform="translate(66,96)"/>
<path d="M0 0 C5.445 0.495 5.445 0.495 11 1 C11 1.33 11 1.66 11 2 C10.41992188 1.99097656 9.83984375 1.98195312 9.2421875 1.97265625 C4.3305774 2.04766266 4.3305774 2.04766266 0.41796875 4.66015625 C-0.02933594 5.30855469 -0.47664063 5.95695312 -0.9375 6.625 C-2.31640625 8.54296875 -2.31640625 8.54296875 -4 10 C-7.48227067 10.32038991 -10.60998867 9.79725563 -14 9 C-14 8.67 -14 8.34 -14 8 C-10.7 8 -7.4 8 -4 8 C-4 6.35 -4 4.7 -4 3 C-2.68 3 -1.36 3 0 3 C0 2.01 0 1.02 0 0 Z " fill="#C9EBF9" transform="translate(58,62)"/>
<path d="M0 0 C2.47859908 2.2008849 3.61210366 4.06372969 4.6875 7.1875 C4.93886719 7.90292969 5.19023438 8.61835938 5.44921875 9.35546875 C5.63097656 9.89816406 5.81273438 10.44085938 6 11 C4.02 11.99 4.02 11.99 2 13 C-0.47785723 9.33708062 -1.48964169 6.3890815 -2 2 C-1.34 2 -0.68 2 0 2 C0 1.34 0 0.68 0 0 Z " fill="#058DD1" transform="translate(110,22)"/>
<path d="M0 0 C0.66 0 1.32 0 2 0 C2 0.99 2 1.98 2 3 C0.329375 3.433125 0.329375 3.433125 -1.375 3.875 C-5.00291092 4.69241329 -5.00291092 4.69241329 -7 7 C-9.4375 6.25 -9.4375 6.25 -12 5 C-12.66015625 2.921875 -12.66015625 2.921875 -13 1 C-11.71802734 1.01740234 -11.71802734 1.01740234 -10.41015625 1.03515625 C-8.75306641 1.04869141 -8.75306641 1.04869141 -7.0625 1.0625 C-5.40927734 1.07990234 -5.40927734 1.07990234 -3.72265625 1.09765625 C-1.08552366 1.31262571 -1.08552366 1.31262571 0 0 Z " fill="#EEF9FD" transform="translate(62,140)"/>
<path d="M0 0 C-0.59453303 9.59453303 -0.59453303 9.59453303 -4 13 C-4.66 12.67 -5.32 12.34 -6 12 C-5.67 11.34 -5.34 10.68 -5 10 C-4.75212983 5.85496339 -4.75212983 5.85496339 -6 2 C-3 0 -3 0 0 0 Z " fill="#F1F7F9" transform="translate(67,91)"/>
<path d="M0 0 C4.29 0 8.58 0 13 0 C13 0.99 13 1.98 13 3 C8.38 3 3.76 3 -1 3 C-0.67 2.01 -0.34 1.02 0 0 Z " fill="#2698CF" transform="translate(46,92)"/>
<path d="M0 0 C0.99 0.66 1.98 1.32 3 2 C2.67 2.99 2.34 3.98 2 5 C0.1858073 4.71905418 -1.62635001 4.42493567 -3.4375 4.125 C-4.95150391 3.88136719 -4.95150391 3.88136719 -6.49609375 3.6328125 C-7.32238281 3.42398438 -8.14867188 3.21515625 -9 3 C-9.33 2.34 -9.66 1.68 -10 1 C-6.87293041 -0.5635348 -3.42017557 -0.39958487 0 0 Z " fill="#1B96C9" transform="translate(84,92)"/>
<path d="M0 0 C0 2.64 0 5.28 0 8 C-0.99 8 -1.98 8 -3 8 C-3.33 7.01 -3.66 6.02 -4 5 C-4.99 4.67 -5.98 4.34 -7 4 C-7 3.01 -7 2.02 -7 1 C-3.375 -1.125 -3.375 -1.125 0 0 Z " fill="#049AE0" transform="translate(96,78)"/>
<path d="M0 0 C0.99 0 1.98 0 3 0 C2.125 6.875 2.125 6.875 1 8 C-1.35313555 8.07271741 -3.70833668 8.08370868 -6.0625 8.0625 C-7.35285156 8.05347656 -8.64320312 8.04445313 -9.97265625 8.03515625 C-10.97167969 8.02355469 -11.97070312 8.01195313 -13 8 C-13 7.67 -13 7.34 -13 7 C-11.95199219 6.92652344 -11.95199219 6.92652344 -10.8828125 6.8515625 C-9.97273438 6.77679688 -9.06265625 6.70203125 -8.125 6.625 C-6.76761719 6.52058594 -6.76761719 6.52058594 -5.3828125 6.4140625 C-2.82058097 6.20431868 -2.82058097 6.20431868 -1 4 C-0.3574765 1.93125966 -0.3574765 1.93125966 0 0 Z " fill="#1C98D0" transform="translate(60,96)"/>
<path d="M0 0 C1.32 0.66 2.64 1.32 4 2 C3.01 2.33 2.02 2.66 1 3 C0.26676204 5.01508358 0.26676204 5.01508358 0 7 C-0.33 6.01 -0.66 5.02 -1 4 C-2.37285156 4.01740234 -2.37285156 4.01740234 -3.7734375 4.03515625 C-5.55621094 4.04869141 -5.55621094 4.04869141 -7.375 4.0625 C-8.55835938 4.07410156 -9.74171875 4.08570312 -10.9609375 4.09765625 C-14 4 -14 4 -16 3 C-16 4.65 -16 6.3 -16 8 C-16.33 8 -16.66 8 -17 8 C-17 6.02 -17 4.04 -17 2 C-13.33012779 0.77670926 -10.66032178 1.11978994 -6.8125 1.4375 C-4.90404297 1.59025391 -4.90404297 1.59025391 -2.95703125 1.74609375 C-1.98121094 1.82988281 -1.00539063 1.91367188 0 2 C0 1.34 0 0.68 0 0 Z " fill="#46AAD5" transform="translate(59,93)"/>
<path d="M0 0 C3.00470285 1.50235142 3.63952543 3.84513897 5.125 6.8125 C5.66382812 7.87082031 6.20265625 8.92914063 6.7578125 10.01953125 C8 13 8 13 8 17 C7.01 17 6.02 17 5 17 C4.70996094 15.84371094 4.70996094 15.84371094 4.4140625 14.6640625 C4.15367188 13.66117188 3.89328125 12.65828125 3.625 11.625 C3.36976562 10.62726562 3.11453125 9.62953125 2.8515625 8.6015625 C2.17595681 5.87458985 2.17595681 5.87458985 0 4 C0 2.68 0 1.36 0 0 Z " fill="#7FBDDE" transform="translate(119,34)"/>
<path d="M0 0 C1.65 0 3.3 0 5 0 C5 1.32 5 2.64 5 4 C5.66 4 6.32 4 7 4 C7 4.66 7 5.32 7 6 C4.125 6.125 4.125 6.125 1 6 C0.34 5.34 -0.32 4.68 -1 4 C-0.625 1.875 -0.625 1.875 0 0 Z " fill="#0299E1" transform="translate(50,134)"/>
<path d="M0 0 C0.66 0 1.32 0 2 0 C2 0.66 2 1.32 2 2 C3.65 2 5.3 2 7 2 C7 3.65 7 5.3 7 7 C6.67 5.68 6.34 4.36 6 3 C-1.59 3 -9.18 3 -17 3 C-13.36617478 0.57744985 -11.67648523 0.81827923 -7.375 0.9375 C-5.25058232 0.99143113 -3.12500335 1.02048901 -1 1 C-0.67 0.67 -0.34 0.34 0 0 Z " fill="#BDF0FA" transform="translate(85,104)"/>
<path d="M0 0 C0.99 0.33 1.98 0.66 3 1 C3 1.66 3 2.32 3 3 C9.435 2.505 9.435 2.505 16 2 C16 2.66 16 3.32 16 4 C12.86501708 5.85776765 10.62528568 6.20140476 7 6 C7 5.34 7 4.68 7 4 C5.02 4 3.04 4 1 4 C0.67 2.68 0.34 1.36 0 0 Z " fill="#D4F5FB" transform="translate(68,139)"/>
<path d="M0 0 C0.99 0.495 0.99 0.495 2 1 C2 4.63 2 8.26 2 12 C3.11375 12.2475 4.2275 12.495 5.375 12.75 C9 14 9 14 10.4375 16.125 C10.623125 16.74375 10.80875 17.3625 11 18 C9.02 17.34 7.04 16.68 5 16 C5 15.34 5 14.68 5 14 C3.35 13.67 1.7 13.34 0 13 C0 8.71 0 4.42 0 0 Z " fill="#40A8D4" transform="translate(95,75)"/>
<path d="M0 0 C0.66 0.33 1.32 0.66 2 1 C-0.52055505 5.41097134 -4.3836693 7.27561188 -9 9 C-12 9.25 -12 9.25 -14 9 C-11.30547205 5.67146548 -7.86969252 4.62934422 -4 3 C-1.66121124 1.43671635 -1.66121124 1.43671635 0 0 Z " fill="#2FB5E2" transform="translate(37,37)"/>
<path d="M0 0 C-1 1 -1 1 -2.84765625 1.09765625 C-4.8984375 1.06510417 -6.94921875 1.03255208 -9 1 C-8.97679688 1.62648437 -8.95359375 2.25296875 -8.9296875 2.8984375 C-8.91164063 3.71570313 -8.89359375 4.53296875 -8.875 5.375 C-8.85179688 6.18710938 -8.82859375 6.99921875 -8.8046875 7.8359375 C-9 10 -9 10 -11 12 C-11.99 12 -12.98 12 -14 12 C-12.125 8.125 -12.125 8.125 -11 7 C-10.63239269 4.67182036 -10.29758419 2.3381615 -10 0 C-2.25 -1.125 -2.25 -1.125 0 0 Z " fill="#AADEF2" transform="translate(98,129)"/>
<path d="M0 0 C0.66 0.33 1.32 0.66 2 1 C2 1.66 2 2.32 2 3 C2.928125 2.2575 2.928125 2.2575 3.875 1.5 C6 0 6 0 8 0 C8 1.65 8 3.3 8 5 C4.7 5 1.4 5 -2 5 C-1.34 3.35 -0.68 1.7 0 0 Z " fill="#18B4E2" transform="translate(15,46)"/>
<path d="M0 0 C2 2 2 2 2.4375 5.8125 C2.37730823 9.48419817 2.03190094 9.96171887 -0.5 13 C-1.325 13.66 -2.15 14.32 -3 15 C-3.33 14.34 -3.66 13.68 -4 13 C-3.34 13 -2.68 13 -2 13 C-1.34 8.71 -0.68 4.42 0 0 Z " fill="#30A0D2" transform="translate(106,93)"/>
<path d="M0 0 C0.33 0 0.66 0 1 0 C1 5.28 1 10.56 1 16 C0.34 15.67 -0.32 15.34 -1 15 C-1.484375 12.12890625 -1.484375 12.12890625 -1.75 8.5625 C-1.84796875 7.38816406 -1.9459375 6.21382813 -2.046875 5.00390625 C-2 2 -2 2 0 0 Z " fill="#0B92CE" transform="translate(33,96)"/>
<path d="M0 0 C1.231394 2.46278801 1.07159196 4.2795055 1 7 C0.34 7 -0.32 7 -1 7 C-0.67 8.32 -0.34 9.64 0 11 C-1.32 10.67 -2.64 10.34 -4 10 C-3.5205537 5.78087253 -2.83374881 3.20336822 0 0 Z " fill="#CCEDF6" transform="translate(40,86)"/>
<path d="M0 0 C-0.99 1.485 -0.99 1.485 -2 3 C-4.8203125 3.29296875 -4.8203125 3.29296875 -8.125 3.1875 C-9.76855469 3.14689453 -9.76855469 3.14689453 -11.4453125 3.10546875 C-12.70988281 3.05326172 -12.70988281 3.05326172 -14 3 C-14 2.67 -14 2.34 -14 2 C-12.02 2 -10.04 2 -8 2 C-8 1.34 -8 0.68 -8 0 C-4.71303767 -0.79953138 -3.28976808 -1.09658936 0 0 Z " fill="#45ACD3" transform="translate(85,139)"/>
<path d="M0 0 C3.00770063 2.00513375 4.75308835 3.57099295 6 7 C6 8.32 6 9.64 6 11 C4.68 10.67 3.36 10.34 2 10 C1.855625 8.906875 1.71125 7.81375 1.5625 6.6875 C1.11711896 3.06877013 1.11711896 3.06877013 0 0 Z " fill="#C7EBF7" transform="translate(90,85)"/>
<path d="M0 0 C0.76183594 -0.02835937 1.52367188 -0.05671875 2.30859375 -0.0859375 C4.5625 0.375 4.5625 0.375 8.5625 4.375 C3.2825 3.715 -1.9975 3.055 -7.4375 2.375 C-4.37702368 0.33468245 -3.50254006 0.05906476 0 0 Z " fill="#2398D0" transform="translate(86.4375,70.625)"/>
<path d="M0 0 C0.33 0 0.66 0 1 0 C1.05407567 2.58361518 1.093707 5.16609255 1.125 7.75 C1.14175781 8.47960937 1.15851563 9.20921875 1.17578125 9.9609375 C1.21072239 13.8044624 1.17499684 16.74606772 -1 20 C-2.34460437 17.31079126 -1.73406059 15.27050596 -1.32421875 12.375 C-0.76291058 8.2632486 -0.39779066 4.13025196 0 0 Z " fill="#CAF2FD" transform="translate(96,96)"/>
<path d="M0 0 C1 2 1 2 0.4375 4 C0.293125 4.66 0.14875 5.32 0 6 C0.66 6.66 1.32 7.32 2 8 C0.02 9.32 -1.96 10.64 -4 12 C-4.66 11.67 -5.32 11.34 -6 11 C-5.38125 9.9275 -4.7625 8.855 -4.125 7.75 C-2.6676321 5.20219016 -1.27075509 2.64740645 0 0 Z " fill="#82D8F9" transform="translate(21,38)"/>
<path d="M0 0 C2.64 0 5.28 0 8 0 C8.33 1.98 8.66 3.96 9 6 C8.01 6 7.02 6 6 6 C6 4.68 6 3.36 6 2 C5.34 2 4.68 2 4 2 C3.67 2.66 3.34 3.32 3 4 C2.01 2.68 1.02 1.36 0 0 Z " fill="#E4FAFC" transform="translate(35,130)"/>
<path d="M0 0 C0.66 0 1.32 0 2 0 C1.67 2.31 1.34 4.62 1 7 C1.66 7 2.32 7 3 7 C3 7.66 3 8.32 3 9 C1.35 9 -0.3 9 -2 9 C-1.125 1.125 -1.125 1.125 0 0 Z " fill="#029BE5" transform="translate(96,116)"/>
<path d="M0 0 C0.79560764 2.91499943 1.25322499 5.74561419 1.5625 8.75 C1.64628906 9.54921875 1.73007812 10.3484375 1.81640625 11.171875 C1.87699219 11.77515625 1.93757813 12.3784375 2 13 C1.01 13 0.02 13 -1 13 C-2.0070238 7.96488101 -1.97387813 4.76052962 0 0 Z " fill="#AFE0F1" transform="translate(28,113)"/>
<path d="M0 0 C0.33 0 0.66 0 1 0 C1.05447047 1.41623216 1.09300508 2.83308191 1.125 4.25 C1.14820312 5.03890625 1.17140625 5.8278125 1.1953125 6.640625 C0.97767636 9.26966951 0.46290812 10.81048189 -1 13 C-1.99 13.33 -2.98 13.66 -4 14 C-3.67 12.02 -3.34 10.04 -3 8 C-2.34 8 -1.68 8 -1 8 C-0.67 5.36 -0.34 2.72 0 0 Z " fill="#2899CC" transform="translate(103,113)"/>
<path d="M0 0 C0 2.31 0 4.62 0 7 C-1.32 7 -2.64 7 -4 7 C-4 5.02 -4 3.04 -4 1 C-1 0 -1 0 0 0 Z " fill="#349DCA" transform="translate(86,111)"/>
<path d="M0 0 C1.98 0.495 1.98 0.495 4 1 C3.94008594 2.95918968 3.85132862 4.91751529 3.75 6.875 C3.70359375 7.96554688 3.6571875 9.05609375 3.609375 10.1796875 C3 13 3 13 0.953125 14.3828125 C0.30859375 14.58648437 -0.3359375 14.79015625 -1 15 C-0.505 14.2575 -0.505 14.2575 0 13.5 C1.77429281 9.06426798 1.50913724 4.52741172 0 0 Z " fill="#C7ECFB" transform="translate(106,92)"/>
<path d="M0 0 C0.66 0.33 1.32 0.66 2 1 C2.25 8.625 2.25 8.625 0 12 C-0.66 12 -1.32 12 -2 12 C-1.34 8.04 -0.68 4.08 0 0 Z " fill="#BAE7F3" transform="translate(104,114)"/>
<path d="M0 0 C1.32 0 2.64 0 4 0 C4 1.98 4 3.96 4 6 C3.67 6 3.34 6 3 6 C2.67 8.31 2.34 10.62 2 13 C1.67 13 1.34 13 1 13 C0.67 8.71 0.34 4.42 0 0 Z " fill="#1F8CCD" transform="translate(105,4)"/>
<path d="M0 0 C2.19050021 0.09017996 4.378466 0.24666208 6.5625 0.4375 C7.76003906 0.53933594 8.95757812 0.64117187 10.19140625 0.74609375 C11.11824219 0.82988281 12.04507813 0.91367188 13 1 C13 1.33 13 1.66 13 2 C10.69 2 8.38 2 6 2 C6 2.66 6 3.32 6 4 C3.03824877 3.38722388 1.61941217 2.74627478 -1 1 C-0.67 0.67 -0.34 0.34 0 0 Z " fill="#0E9CE0" transform="translate(77,72)"/>
<path d="M0 0 C0.6875 1.8125 0.6875 1.8125 1 4 C-0.3125 5.75 -0.3125 5.75 -2 7 C-2.66 7 -3.32 7 -4 7 C-4 7.66 -4 8.32 -4 9 C-4.99 8.67 -5.98 8.34 -7 8 C-6.34 8 -5.68 8 -5 8 C-4.731875 7.4225 -4.46375 6.845 -4.1875 6.25 C-2.98280141 3.9674132 -1.59201885 2.0262058 0 0 Z " fill="#47ADD6" transform="translate(93,118)"/>
<path d="M0 0 C0.99 0 1.98 0 3 0 C3.0825 0.78375 3.165 1.5675 3.25 2.375 C3.72806339 5.14749104 3.72806339 5.14749104 6.0625 6.3125 C6.701875 6.539375 7.34125 6.76625 8 7 C4.28400809 7.20086443 3.22791555 7.1519437 0 5 C-0.1875 2.375 -0.1875 2.375 0 0 Z " fill="#E0F8FD" transform="translate(78,112)"/>
<path d="M0 0 C0 0.99 0 1.98 0 3 C-2.64 3 -5.28 3 -8 3 C-8 2.34 -8 1.68 -8 1 C-5.07175348 0.02391783 -3.04386724 -0.08226668 0 0 Z " fill="#FAFAF9" transform="translate(83,97)"/>
<path d="M0 0 C2.31 0.33 4.62 0.66 7 1 C6.67 2.65 6.34 4.3 6 6 C5.01 6 4.02 6 3 6 C3 4.35 3 2.7 3 1 C2.01 0.67 1.02 0.34 0 0 Z " fill="#0A95CC" transform="translate(52,132)"/>
<path d="M0 0 C0.5625 1.9375 0.5625 1.9375 1 4 C0.67 4.33 0.34 4.66 0 5 C-0.07148199 6.35243917 -0.08399454 7.70834367 -0.0625 9.0625 C-0.041875 10.361875 -0.02125 11.66125 0 13 C-0.66 12.67 -1.32 12.34 -2 12 C-2.05422947 10.5629191 -2.09289723 9.12524538 -2.125 7.6875 C-2.14820312 6.88699219 -2.17140625 6.08648437 -2.1953125 5.26171875 C-2 3 -2 3 0 0 Z " fill="#3EA2C9" transform="translate(26,92)"/>
<path d="M0 0 C0 0.33 0 0.66 0 1 C-3.63 1.66 -7.26 2.32 -11 3 C-11 2.34 -11 1.68 -11 1 C-7.2297564 -1.56376565 -4.32597804 -0.83191885 0 0 Z " fill="#E7F6FE" transform="translate(50,69)"/>
<path d="M0 0 C1.32 0 2.64 0 4 0 C4 0.66 4 1.32 4 2 C4.99 2 5.98 2 7 2 C7.33 2.99 7.66 3.98 8 5 C8.66 5.66 9.32 6.32 10 7 C5.61308455 6.49381745 3.15608721 3.86917019 0 1 C0 0.67 0 0.34 0 0 Z " fill="#CFF2FC" transform="translate(71,64)"/>
<path d="M0 0 C0.66 0 1.32 0 2 0 C2 2.31 2 4.62 2 7 C0.02 7.99 0.02 7.99 -2 9 C-1.34 6.03 -0.68 3.06 0 0 Z " fill="#B7E7F7" transform="translate(63,95)"/>
<path d="M0 0 C3.96 0 7.92 0 12 0 C12.33 1.32 12.66 2.64 13 4 C12.43796875 3.68289062 11.8759375 3.36578125 11.296875 3.0390625 C8.84803683 1.93125475 6.91612145 1.61024601 4.25 1.375 C3.45078125 1.30023438 2.6515625 1.22546875 1.828125 1.1484375 C1.22484375 1.09945312 0.6215625 1.05046875 0 1 C0 0.67 0 0.34 0 0 Z " fill="#ADE5F8" transform="translate(75,91)"/>
<path d="M0 0 C0.66 0 1.32 0 2 0 C2 0.99 2 1.98 2 3 C-2.29 3 -6.58 3 -11 3 C-11 2.67 -11 2.34 -11 2 C-10.28972656 1.93941406 -9.57945313 1.87882812 -8.84765625 1.81640625 C-7.46900391 1.69072266 -7.46900391 1.69072266 -6.0625 1.5625 C-5.14597656 1.48128906 -4.22945312 1.40007812 -3.28515625 1.31640625 C-1.03840268 1.23955024 -1.03840268 1.23955024 0 0 Z " fill="#0E97D7" transform="translate(58,101)"/>
<path d="M0 0 C0.66 0 1.32 0 2 0 C2 0.99 2 1.98 2 3 C-1.96 3 -5.92 3 -10 3 C-10 2.67 -10 2.34 -10 2 C-9.04287109 1.90912109 -9.04287109 1.90912109 -8.06640625 1.81640625 C-6.82697266 1.69072266 -6.82697266 1.69072266 -5.5625 1.5625 C-4.73878906 1.48128906 -3.91507813 1.40007812 -3.06640625 1.31640625 C-1.01337975 1.21069185 -1.01337975 1.21069185 0 0 Z " fill="#BDE9FA" transform="translate(62,140)"/>
<path d="M0 0 C0.66 0 1.32 0 2 0 C1.67 2.31 1.34 4.62 1 7 C0.34 7 -0.32 7 -1 7 C-1.04254356 5.00045254 -1.04080783 2.99958364 -1 1 C-0.67 0.67 -0.34 0.34 0 0 Z " fill="#0A99D1" transform="translate(46,129)"/>
<path d="M0 0 C2.1875 0.3125 2.1875 0.3125 4 1 C2.75 2.5625 2.75 2.5625 1 4 C-1.1875 3.6875 -1.1875 3.6875 -3 3 C-1.75 1.4375 -1.75 1.4375 0 0 Z " fill="#D9F4FC" transform="translate(100,126)"/>
<path d="M0 0 C1.32 0.33 2.64 0.66 4 1 C4 1.66 4 2.32 4 3 C5.32 3.33 6.64 3.66 8 4 C5.36 4 2.72 4 0 4 C0 2.68 0 1.36 0 0 Z " fill="#E9F9FC" transform="translate(81,66)"/>
<path d="M0 0 C0.66 0.33 1.32 0.66 2 1 C0.8125 3 0.8125 3 -1 5 C-3.6875 5.25 -3.6875 5.25 -6 5 C-5.195625 4.360625 -4.39125 3.72125 -3.5625 3.0625 C-1.7249496 1.59396498 -1.7249496 1.59396498 0 0 Z " fill="#22B0E2" transform="translate(37,37)"/>
<path d="M0 0 C0.33 0 0.66 0 1 0 C1 1.65 1 3.3 1 5 C0.67 5 0.34 5 0 5 C0 3.35 0 1.7 0 0 Z " fill="#FFFFFF" transform="translate(0,145)"/>
<path d="M0 0 C0.99 0.495 0.99 0.495 2 1 C1.67 1.66 1.34 2.32 1 3 C0.67 2.01 0.34 1.02 0 0 Z " fill="#FFFFFF" transform="translate(120,25)"/>
<path d="" fill="#FFFFFF" transform="translate(0,0)"/>
<path d="" fill="#FFFFFF" transform="translate(0,0)"/>
</svg>
