<?xml version="1.0" encoding="UTF-8"?>
<svg version="1.1" xmlns="http://www.w3.org/2000/svg" width="198" height="155">
<path d="M0 0 C4.20675977 0.36059362 8.10124866 0.65722846 12.25 -0.3125 C17.0519505 -0.56087675 18.83044712 1.26088733 22.5625 4.06640625 C25.70243561 6.01295417 28.3914056 6.25986687 32.02734375 6.39453125 C33.875 6.5 33.875 6.5 35.875 7.5 C35.875 8.16 35.875 8.82 35.875 9.5 C36.535 9.5 37.195 9.5 37.875 9.5 C38.57625 10.5725 39.2775 11.645 40 12.75 C42.49890444 16.44241104 45.04735939 17.96097787 49.10546875 19.67578125 C51.60705134 20.84097756 52.6932219 22.0128347 53.65625 24.59375 C54.13541667 26.19791667 54.61458333 27.80208333 55.09375 29.40625 C55.77642987 31.67829143 55.77642987 31.67829143 57.875 33.5 C60.49677983 33.22402318 62.45313625 32.73993501 64.75 31.43359375 C67.29828226 30.31403592 68.7644864 30.43282169 71.5 30.8125 C72.27601563 30.91175781 73.05203125 31.01101562 73.8515625 31.11328125 C75.875 31.5 75.875 31.5 77.875 32.5 C79.941141 32.30638958 82.00344201 32.0707708 84.0625 31.8125 C90.18961242 31.27027766 93.04640847 31.74442881 97.875 35.5 C98.535 36.16 99.195 36.82 99.875 37.5 C101.82069055 37.99067706 103.78208187 38.42035983 105.75 38.8125 C111.54617274 40.19583478 111.54617274 40.19583478 114.375 42.8125 C115.1175 44.1428125 115.1175 44.1428125 115.875 45.5 C118.07901686 49.22402848 119.67211696 51.59704452 123.5 53.5625 C126.875 55.5 126.875 55.5 128.25 57.75 C128.875 60.5 128.875 60.5 129.125 64.375 C129.55342748 68.75814271 131.56835054 70.73688079 134.50390625 73.85546875 C136.57904449 76.34445222 136.80966152 78.29841446 136.875 81.5 C136.70345469 82.85628014 136.51504651 84.21050203 136.3125 85.5625 C135.85593772 89.67156056 136.32483028 90.85254183 137.875 94.5 C138.42927252 101.48383372 138.42927252 101.48383372 136.375 105.25 C134.68671957 108.90794093 134.98997916 110.11119824 135.4375 114 C135.63334382 120.26700212 133.31007709 123.4466819 129.375 128 C128.8704126 128.58716797 128.3658252 129.17433594 127.84594727 129.77929688 C123.20646527 134.78869232 117.65165048 138.24065781 110.875 139.5 C109.2098391 139.49059907 107.54448217 139.42458706 105.8828125 139.31640625 C104.93019531 139.27708984 103.97757813 139.23777344 102.99609375 139.19726562 C101.00507534 139.10770873 99.01509604 138.99067061 97.02734375 138.84570312 C91.5179776 138.57271577 91.5179776 138.57271577 86.94384766 141.24169922 C85.33849265 143.35648642 85.33849265 143.35648642 84.07714844 145.57006836 C82.21307855 148.56265009 80.17553788 149.44382788 76.875 150.5 C69.07534796 151.38060588 64.2496879 148.74979193 57.875 144.5 C55.63181508 144.22801878 55.63181508 144.22801878 53.1875 144.1875 C46.57940011 143.64727578 42.64066323 140.66768199 37.5625 136.6875 C35.875 134.5 35.875 134.5 34.75 130.75 C33.07576092 125.68025357 29.36111733 123.53150766 25.1953125 120.46484375 C21.99122289 117.75161635 21.03447171 115.47533158 19.875 111.5 C18.740625 112.015625 17.60625 112.53125 16.4375 113.0625 C11.77618305 114.82086156 7.67744299 114.75981246 2.875 113.5 C1.885 112.84 0.895 112.18 -0.125 111.5 C-3.48790296 111.41647217 -6.78746175 111.50397129 -10.14453125 111.66601562 C-14.73927184 111.79008218 -17.46179752 111.30957548 -21.125 108.5 C-25.13568781 104.48931219 -26.07456794 100.92723232 -27.125 95.5 C-27.125 94.51 -27.125 93.52 -27.125 92.5 C-28.98125 91.943125 -28.98125 91.943125 -30.875 91.375 C-40.14846356 88.23021346 -50.2305111 84.5326865 -55.125 75.5 C-57.50497959 68.32689078 -58.64375365 61.96795433 -57.125 54.5 C-56.609375 53.55125 -56.09375 52.6025 -55.5625 51.625 C-53.89275585 47.99512142 -53.94684782 45.56530116 -54.21484375 41.6484375 C-54.10736595 39.07831612 -53.50340683 37.66086879 -52.125 35.5 C-51.17625 34.819375 -50.2275 34.13875 -49.25 33.4375 C-46.10856303 31.02101003 -45.36875171 28.69330933 -44.25 24.9375 C-42.66011523 19.93879449 -42.66011523 19.93879449 -40.171875 17.8984375 C-37.45277843 16.53888922 -35.18778379 15.5 -32.125 15.5 C-31.856875 14.7575 -31.58875 14.015 -31.3125 13.25 C-30.11655 10.48043158 -29.21690261 8.66805324 -27.125 6.5 C-24.1640625 5.8125 -24.1640625 5.8125 -20.75 5.5 C-15.53319802 5.02029407 -13.01733836 4.02098453 -9.125 0.5 C-6.06854805 -1.02822597 -3.37386514 -0.29512936 0 0 Z M76.75 138.9375 C74.831875 139.2159375 74.831875 139.2159375 72.875 139.5 C72.875 139.83 72.875 140.16 72.875 140.5 C75.185 141.16 77.495 141.82 79.875 142.5 C79.875 141.84 79.875 141.18 79.875 140.5 C80.865 140.17 81.855 139.84 82.875 139.5 C80.45369669 138.28934835 79.39206341 138.55397467 76.75 138.9375 Z M67.875 140.5 C67.215 141.16 66.555 141.82 65.875 142.5 C69.05990007 142.7773501 69.05990007 142.7773501 71.875 140.5 C70.555 140.5 69.235 140.5 67.875 140.5 Z " fill="#B6B0B0" transform="translate(58.125,2.5)"/>
<path d="M0 0 C1 1 1 1 1.08984375 2.87109375 C0.56503647 11.71207796 -2.31825646 19.5202428 -5.23779297 27.79492188 C-6.97328858 32.8157407 -8.47208849 37.91295345 -10 43 C-9.01 43 -8.02 43 -7 43 C-6.82984375 42.41734375 -6.6596875 41.8346875 -6.484375 41.234375 C-4.74718905 35.3575119 -2.85786656 29.54581503 -0.90234375 23.73828125 C-0.22194913 21.67353394 0.40276623 19.59031819 1 17.5 C1.94635098 14.18777158 2.95014761 10.9057887 4 7.625 C4.33 6.58601563 4.66 5.54703125 5 4.4765625 C6 2 6 2 8 1 C9.49756871 0.90500497 10.99942932 0.87012802 12.5 0.875 C13.69109375 0.87113281 13.69109375 0.87113281 14.90625 0.8671875 C17 1 17 1 19 2 C19 2.99 19 3.98 19 5 C19.99 5 20.98 5 22 5 C19.83871686 10.65258668 17.10988129 15.82178912 14 21 C12.70437551 23.26869811 11.41252229 25.53922327 10.125 27.8125 C7.86838622 31.796501 5.57096598 35.73032457 3.0625 39.5625 C1.2875855 42.33208136 0.31260806 44.66551403 0 48 C4.24503646 44.17724465 6.6693243 40.3452561 9.1875 35.25 C12.75 28.125 12.75 28.125 15 27 C15.495 25.515 15.495 25.515 16 24 C16.66 24 17.32 24 18 24 C18.11214844 23.14728516 18.11214844 23.14728516 18.2265625 22.27734375 C19.24523056 16.2951656 21.03760646 11.75405658 26 8 C30.19103161 7.26040619 31.43961959 7.62641306 35 10 C35 10.66 35 11.32 35 12 C35.66 12 36.32 12 37 12 C37.875 14.5625 37.875 14.5625 38 18 C36.35221084 20.68906308 34.39647067 22.94934915 32 25 C31.34 25 30.68 25 30 25 C29.690625 25.61875 29.38125 26.2375 29.0625 26.875 C28.375 28.25 27.6875 29.625 27 31 C26.34 31 25.68 31 25 31 C24.773125 31.515625 24.54625 32.03125 24.3125 32.5625 C21.6313009 37.54186976 18.30006052 42.29305128 14 46 C13.34 46 12.68 46 12 46 C10.58622659 48.63904371 9.62759865 51.07120629 9 54 C9.99 54 10.98 54 12 54 C12.37511719 53.14921875 12.37511719 53.14921875 12.7578125 52.28125 C14.18221025 49.66537489 15.8743243 47.70451813 17.875 45.5 C18.55304688 44.7471875 19.23109375 43.994375 19.9296875 43.21875 C21.22244854 41.83330043 22.54536586 40.47470896 23.91015625 39.16015625 C26.70770878 36.26848045 29.11099001 33.12347047 31.5625 29.9375 C32.52023002 28.69514339 33.47980748 27.45420833 34.44140625 26.21484375 C34.86107666 25.66948975 35.28074707 25.12413574 35.71313477 24.56225586 C37.08422395 22.89775203 38.33563304 21.37867453 40 20 C45.98002724 20.2135724 45.98002724 20.2135724 48.671875 22.2890625 C50.78050062 25.00546844 50.77228441 27.27744489 50.6953125 30.63671875 C49.32977993 35.27799519 45.05581238 37.72318114 41 40 C40.34 40 39.68 40 39 40 C38.67 40.99 38.34 41.98 38 43 C36.60644019 43.98405798 35.20476282 44.95907978 33.76025391 45.86669922 C30.59307851 47.90581547 27.6567803 50.24889674 24.6875 52.5625 C24.05521484 53.04396484 23.42292969 53.52542969 22.77148438 54.02148438 C19.03761786 56.86599893 19.03761786 56.86599893 17 61 C24.05277572 57.31035344 30.72558231 53.36291546 36.3125 47.625 C38.92862054 45.06971947 41.60230456 42.8534013 44.5 40.625 C45.4178125 39.91601562 46.335625 39.20703125 47.28125 38.4765625 C50 37 50 37 52.71875 37.1484375 C55 38 55 38 57 40 C57.30666984 44.7533825 57.49611452 47.86499189 55 52 C53.3359375 53.18847656 53.3359375 53.18847656 51.375 54.140625 C50.66859375 54.48867187 49.9621875 54.83671875 49.234375 55.1953125 C48.49703125 55.54335937 47.7596875 55.89140625 47 56.25 C46.26265625 56.61351562 45.5253125 56.97703125 44.765625 57.3515625 C39.30944549 60 39.30944549 60 37 60 C37 60.66 37 61.32 37 62 C35.06305322 62.81381795 33.12542289 63.62600916 31.1875 64.4375 C30.10855469 64.88996094 29.02960938 65.34242187 27.91796875 65.80859375 C25.9704874 66.60375013 23.99561057 67.33479648 22 68 C22 68.99 22 69.98 22 71 C25.465 70.505 25.465 70.505 29 70 C29 69.34 29 68.68 29 68 C29.89460938 67.55269531 30.78921875 67.10539062 31.7109375 66.64453125 C32.29182129 66.35392822 32.87270508 66.0633252 33.47119141 65.76391602 C34.74638797 65.12664479 36.02210981 64.49042364 37.29833984 63.85522461 C40.21751579 62.40079029 43.12578382 60.93417531 46.015625 59.421875 C46.87671875 58.97328125 47.7378125 58.5246875 48.625 58.0625 C49.38039063 57.66160156 50.13578125 57.26070312 50.9140625 56.84765625 C53 56 53 56 57 56 C59.42218623 59.41955703 58.99895628 62.15505555 58.484375 66.09765625 C58 68 58 68 56 71 C52.15497963 72.72014069 48.25614497 73.30113676 44.125 73.9375 C40.38598334 74.51737231 37.0154967 75.22275132 33.5 76.625 C30 78 30 78 26 78 C26.33 78.66 26.66 79.32 27 80 C32.74569725 79.38183325 38.21000032 78.33688871 43.8125 76.9375 C51.60942907 75 51.60942907 75 55 75 C55.13657216 76.39303605 55.23271149 77.79006121 55.3125 79.1875 C55.37050781 79.96480469 55.42851562 80.74210937 55.48828125 81.54296875 C54.70623205 85.47824032 53.2829531 86.71480715 50 89 C46.20855977 89.60353233 42.51415402 89.47163788 38.6875 89.3125 C37.66076172 89.28994141 36.63402344 89.26738281 35.57617188 89.24414062 C33.0492821 89.18537575 30.52539745 89.10327849 28 89 C28.33 89.99 28.66 90.98 29 92 C34.61 92.33 40.22 92.66 46 93 C44.86751625 96.39745126 44.51101819 96.62003123 41.48217773 98.171875 C36.96994189 100.27755582 33.19444355 100.4648516 28.28515625 100.25 C27.47114853 100.23485352 26.65714081 100.21970703 25.81846619 100.20410156 C22.37977595 100.13969454 18.94309471 100.02825168 15.50561523 99.91796875 C4.63339296 99.60013477 -4.96159281 100.18593802 -15.46777344 103.125 C-20.21620943 104.30127831 -23.29267099 104.2765638 -28 103 C-30.375 101.0625 -30.375 101.0625 -32 99 C-33.485 98.01 -33.485 98.01 -35 97 C-35.60069969 94.36359583 -36.02812747 91.85904192 -36.375 89.1875 C-37.45061734 81.94119673 -38.82528272 74.81974441 -40.5 67.6875 C-40.70157715 66.79893311 -40.9031543 65.91036621 -41.11083984 64.99487305 C-42.18909089 60.47964266 -43.35610468 56.88344516 -46 53 C-47.01965427 50.67518826 -48.02059602 48.34205301 -49 46 C-49.35707031 45.41863281 -49.71414062 44.83726563 -50.08203125 44.23828125 C-51.39598184 41.03447832 -51.18877803 38.19401373 -51.125 34.75 C-51.10695313 33.48671875 -51.08890625 32.2234375 -51.0703125 30.921875 C-51.03550781 29.47554687 -51.03550781 29.47554687 -51 28 C-50.01 28 -49.02 28 -48 28 C-47.1605118 30.10171867 -46.32860344 32.20646625 -45.5 34.3125 C-45.0359375 35.48425781 -44.571875 36.65601563 -44.09375 37.86328125 C-43 41 -43 41 -43 44 C-42.01 44 -41.02 44 -40 44 C-40.6216524 41.76989746 -41.2474603 39.54095304 -41.875 37.3125 C-42.22304687 36.07113281 -42.57109375 34.82976562 -42.9296875 33.55078125 C-43.90721235 30.10076755 -43.90721235 30.10076755 -45.12109375 27.26953125 C-46.728377 23.11916873 -46.38570212 19.15710637 -45 15 C-44.34 15 -43.68 15 -43 15 C-43 14.34 -43 13.68 -43 13 C-40.03 13 -37.06 13 -34 13 C-33.662295 16.18709098 -33.329708 19.37458007 -33 22.5625 C-32.85691406 23.90538086 -32.85691406 23.90538086 -32.7109375 25.27539062 C-32.20432035 30.21490788 -31.89102618 35.03488014 -32 40 C-31.01 40 -30.02 40 -29 40 C-29.06058594 39.30962646 -29.12117188 38.61925293 -29.18359375 37.90795898 C-29.45883646 34.75140145 -29.72945535 31.59446353 -30 28.4375 C-30.09539062 27.35146484 -30.19078125 26.26542969 -30.2890625 25.14648438 C-30.74886969 19.7437499 -31.12447531 14.42245588 -31 9 C-30.34 8.67 -29.68 8.34 -29 8 C-28.34 6.68 -27.68 5.36 -27 4 C-23.7 4 -20.4 4 -17 4 C-17.87600626 16.01050691 -18.94385939 28.00427196 -20 40 C-19.01 40 -18.02 40 -17 40 C-16.96261719 39.00484375 -16.92523438 38.0096875 -16.88671875 36.984375 C-16.52171616 28.68584512 -15.85741399 20.42877676 -14.8125 12.1875 C-14.72379639 11.33446289 -14.63509277 10.48142578 -14.54370117 9.60253906 C-13.93038697 5.16746345 -13.56527735 3.5084424 -10.125 0.4140625 C-6.25617011 -1.33658302 -4.06613656 -1.03646618 0 0 Z " fill="#F9F5F0" transform="translate(133,38)"/>
<path d="M0 0 C0.42815022 5.94475958 0.85537697 11.88958451 1.28173828 17.83447266 C1.42699037 19.85792853 1.57249729 21.88136613 1.71826172 23.90478516 C1.92742426 26.80887185 2.13567802 29.71302249 2.34375 32.6171875 C2.40937134 33.52556366 2.47499268 34.43393982 2.54260254 35.36984253 C2.60266479 36.21056305 2.66272705 37.05128357 2.72460938 37.91748047 C2.77790405 38.65916473 2.83119873 39.400849 2.8861084 40.16500854 C2.9653325 41.44144641 3 42.72110591 3 44 C3.99 44 4.98 44 6 44 C5.93941406 43.21052979 5.87882812 42.42105957 5.81640625 41.60766602 C3.61983878 12.5939667 3.61983878 12.5939667 4 -2 C7.63 -2 11.26 -2 15 -2 C15.495 -0.515 15.495 -0.515 16 1 C16.66 1 17.32 1 18 1 C18.3001416 10.76606578 17.39315953 20.16907777 16 29.8125 C15.80648257 31.19845498 15.61377003 32.58452258 15.421875 33.97070312 C14.95577233 37.31498979 14.48169369 40.65792975 14 44 C14.66 43.67 15.32 43.34 16 43 C16.607902 40.11332413 17.0919789 37.28700261 17.5078125 34.37109375 C17.63815887 33.50686295 17.76850525 32.64263214 17.90280151 31.75221252 C18.3186511 28.98182615 18.72194319 26.2097736 19.125 23.4375 C19.40412502 21.56302832 19.68406231 19.6886774 19.96484375 17.81445312 C20.65267488 13.21098565 21.32924685 8.60598553 22 4 C23.45766469 4.12140754 24.91438568 4.25418643 26.37060547 4.3918457 C27.18189911 4.46458206 27.99319275 4.53731842 28.82907104 4.61225891 C31 5 31 5 33.0703125 6.73046875 C35.25098843 12.05388352 33.67026365 18.24454759 31.6875 23.4375 C31.130625 24.613125 30.57375 25.78875 30 27 C28.59611822 30.97673284 27.30556038 34.99006454 26 39 C25.41814616 40.75049247 24.8349887 42.50055266 24.25 44.25 C23.8375 45.4875 23.425 46.725 23 48 C22.34 48 21.68 48 21 48 C20.71125 48.721875 20.4225 49.44375 20.125 50.1875 C19.44227319 51.89431703 18.72246492 53.58772134 17.9375 55.25 C16.62438129 59.10181488 16.33447835 62.95985361 16 67 C16.66 67 17.32 67 18 67 C18.39832031 68.32064453 18.39832031 68.32064453 18.8046875 69.66796875 C19.15789062 70.82941406 19.51109375 71.99085937 19.875 73.1875 C20.22304687 74.33605469 20.57109375 75.48460938 20.9296875 76.66796875 C21.92961605 79.93935421 21.92961605 79.93935421 23.15625 82.78125 C24.1259669 85.3312463 23.93286138 86.48127427 23 89 C22.34 89 21.68 89 21 89 C20.9175 89.86625 20.835 90.7325 20.75 91.625 C19.87047237 95.58287433 18.56184153 97.86886035 16 101 C11.79901027 103.64062212 6.78446468 104.07668281 2 103 C-9.30716389 97.07850834 -9.30716389 97.07850834 -11 92 C-12.32711192 91.64270064 -13.66262906 91.31674575 -15 91 C-18.80984777 89.13412922 -22.1291589 87.15792521 -25 84 C-28.17165648 81.88556235 -30.79100867 81.05959339 -34.4375 80 C-38.15014906 78.91872792 -41.6057583 77.86808388 -45 76 C-45 75.34 -45 74.68 -45 74 C-45.7425 73.773125 -46.485 73.54625 -47.25 73.3125 C-50.56201872 71.73176379 -51.99479838 70.04493579 -54 67 C-54 66.01 -54 65.02 -54 64 C-49.7736532 65.49967145 -46.04108914 67.62591501 -42.18359375 69.87890625 C-40.10821274 70.94444176 -38.27754277 71.54035985 -36 72 C-37.35587354 67.93237939 -39.9484594 67.13665748 -43.5625 65.3125 C-44.17802734 64.99216797 -44.79355469 64.67183594 -45.42773438 64.34179688 C-46.9473555 63.55253629 -48.47311811 62.77512085 -50 62 C-50 61.34 -50 60.68 -50 60 C-51.175625 59.814375 -51.175625 59.814375 -52.375 59.625 C-55 59 -55 59 -57 57 C-57.20146402 53.306493 -57.17353189 50.52059568 -56 47 C-56.66 47 -57.32 47 -58 47 C-58.33 47.99 -58.66 48.98 -59 50 C-59.33 49.34 -59.66 48.68 -60 48 C-59.2884375 46.7315625 -59.2884375 46.7315625 -58.5625 45.4375 C-56.82172754 41.6078006 -56.80902089 39.25277154 -57.08984375 35.1484375 C-56.98243186 32.57989226 -56.42136015 31.13437033 -55 29 C-54.01 28.67 -53.02 28.34 -52 28 C-52 28.66 -52 29.32 -52 30 C-52.66 30 -53.32 30 -54 30 C-54.33 34.95 -54.66 39.9 -55 45 C-53.68 45.33 -52.36 45.66 -51 46 C-49.4296875 47.3828125 -49.4296875 47.3828125 -47.875 49.125 C-44.28751374 52.91569899 -40.30293423 55.67901303 -35.94140625 58.51953125 C-35.30074219 59.00808594 -34.66007812 59.49664062 -34 60 C-34 60.66 -34 61.32 -34 62 C-33.01 62 -32.02 62 -31 62 C-33.25524792 57.61479572 -36.16972617 54.96409157 -40 52 C-41.73114318 50.62748929 -43.46018222 49.25232191 -45.1875 47.875 C-46.02667969 47.21242187 -46.86585937 46.54984375 -47.73046875 45.8671875 C-52.9083392 41.60725277 -52.9083392 41.60725277 -53.5 37.6875 C-52.84211959 32.83563198 -51.50932516 31.34610074 -48 28 C-47.01 28 -46.02 28 -45 28 C-44.67 28.99 -44.34 29.98 -44 31 C-42.35570171 32.68873879 -40.68615782 34.35305515 -39 36 C-35.31204371 40.3387721 -32.46685381 44.8765344 -30 50 C-29.34 50 -28.68 50 -28 50 C-27.34 51.65 -26.68 53.3 -26 55 C-24.68 55 -23.36 55 -22 55 C-22.66 53.02 -23.32 51.04 -24 49 C-24.66 49 -25.32 49 -26 49 C-26 48.34 -26 47.68 -26 47 C-26.66 47 -27.32 47 -28 47 C-28.268125 46.401875 -28.53625 45.80375 -28.8125 45.1875 C-29.86831322 42.99556112 -29.86831322 42.99556112 -31.4375 41.5625 C-33 40 -33 40 -34.25 37.875 C-35.88512366 35.18872542 -37.66301523 33.02016508 -39.6875 30.625 C-42.21432291 27.43322369 -42.96358054 26.28225082 -43.5 22.125 C-43 19 -43 19 -42 16 C-39.29120665 14.64560332 -36.99066732 14.93498549 -34 15 C-32.49212623 17.59988552 -30.99354539 20.20440197 -29.5 22.8125 C-29.07074219 23.55048828 -28.64148438 24.28847656 -28.19921875 25.04882812 C-27.79316406 25.76103516 -27.38710938 26.47324219 -26.96875 27.20703125 C-26.40317383 28.18893433 -26.40317383 28.18893433 -25.82617188 29.19067383 C-25 31 -25 31 -25 34 C-24.34 34 -23.68 34 -23 34 C-22.51789062 34.99902344 -22.03578125 35.99804688 -21.5390625 37.02734375 C-20.90135911 38.33088451 -20.26332089 39.63426151 -19.625 40.9375 C-19.30789062 41.59685547 -18.99078125 42.25621094 -18.6640625 42.93554688 C-17.04522631 46.61304807 -17.04522631 46.61304807 -14 49 C-14.28875 48.22914062 -14.5775 47.45828125 -14.875 46.6640625 C-15.24625 45.66117188 -15.6175 44.65828125 -16 43.625 C-16.37125 42.62726562 -16.7425 41.62953125 -17.125 40.6015625 C-18 38 -18 38 -18 36 C-18.66 36 -19.32 36 -20 36 C-20.26216309 35.44538086 -20.52432617 34.89076172 -20.79443359 34.31933594 C-21.98750008 31.79600823 -23.18124325 29.27300122 -24.375 26.75 C-24.7875 25.87730469 -25.2 25.00460938 -25.625 24.10546875 C-26.02460937 23.26113281 -26.42421875 22.41679687 -26.8359375 21.546875 C-27.20251465 20.77182617 -27.5690918 19.99677734 -27.94677734 19.19824219 C-28.63303804 17.76590762 -29.36124804 16.35270567 -30.13525391 14.96582031 C-31 13 -31 13 -31 9 C-30.01 8.34 -29.02 7.68 -28 7 C-27.67 6.01 -27.34 5.02 -27 4 C-23.65268016 3.6956982 -21.66774393 3.56119684 -18.8125 5.4375 C-14.39373353 11.68472156 -13.3267111 19.6420753 -11.6875 26.984375 C-10.91475382 30.37392074 -9.99873301 33.67088996 -9 37 C-8.75443359 37.9590625 -8.75443359 37.9590625 -8.50390625 38.9375 C-8.06080476 40.64120804 -7.53652302 42.32336555 -7 44 C-6.01 44.495 -6.01 44.495 -5 45 C-5.42706181 42.47700364 -5.86629386 39.95712176 -6.3125 37.4375 C-6.48942383 36.38079102 -6.48942383 36.38079102 -6.66992188 35.30273438 C-7.53153138 30.50865073 -9.02933829 26.47923364 -11 22 C-11.84131914 19.31731572 -12.52400899 16.60641437 -13.1875 13.875 C-13.36474609 13.18535156 -13.54199219 12.49570312 -13.72460938 11.78515625 C-14.62532851 8.14750291 -15.41884164 4.74897598 -15 1 C-10.48484506 -3.51515494 -5.5237034 -1.70363331 0 0 Z " fill="#F8F4EE" transform="translate(61,9)"/>
<path d="M0 0 C8.85807944 0.34400309 8.85807944 0.34400309 12.9375 2.6875 C15 5 15 5 16.1875 7.9375 C18.60343883 12.01960355 21.413898 12.90160669 25.72265625 14.62890625 C28.64050665 16.38562236 29.11525536 17.75919504 30 21 C30.0825 22.27875 30.165 23.5575 30.25 24.875 C30.67842748 29.25814271 32.69335054 31.23688079 35.62890625 34.35546875 C37.70404449 36.84445222 37.93466152 38.79841446 38 42 C37.82845469 43.35628014 37.64004651 44.71050203 37.4375 46.0625 C36.98093772 50.17156056 37.44983028 51.35254183 39 55 C39.55427252 61.98383372 39.55427252 61.98383372 37.5 65.75 C35.81171957 69.40794093 36.11497916 70.61119824 36.5625 74.5 C36.75834382 80.76700212 34.43507709 83.9466819 30.5 88.5 C29.9954126 89.08716797 29.4908252 89.67433594 28.97094727 90.27929688 C23.68353452 95.98828364 17.1763633 99.67553408 9.3203125 100.16796875 C-1.8558181 100.23628251 -12.89124724 99.13471639 -24 98 C-23.505 97.01 -23.505 97.01 -23 96 C-21.42702148 95.98598145 -21.42702148 95.98598145 -19.82226562 95.97167969 C-15.90062272 95.93155622 -11.97974602 95.86573774 -8.05859375 95.79248047 C-6.36728826 95.76439963 -4.67585468 95.74312146 -2.984375 95.72900391 C-0.54100575 95.70739392 1.90084425 95.66065666 4.34375 95.609375 C5.08991577 95.60814636 5.83608154 95.60691772 6.6048584 95.60565186 C12.06739302 95.45607918 16.44678291 94.09448057 21 91 C21.33 90.34 21.66 89.68 22 89 C16.39 89 10.78 89 5 89 C4.67 87.68 4.34 86.36 4 85 C4.64549805 84.9906543 5.29099609 84.98130859 5.95605469 84.97167969 C8.88813944 84.91790899 11.81864008 84.8342766 14.75 84.75 C16.27367187 84.72873047 16.27367187 84.72873047 17.828125 84.70703125 C23.47767904 84.55458326 23.47767904 84.55458326 28.640625 82.515625 C30.63864426 78.81814107 30.8225372 75.15262954 31 71 C30.3294458 71.18175781 29.6588916 71.36351563 28.96801758 71.55078125 C25.91787853 72.37364626 22.86525809 73.18690786 19.8125 74 C18.75740234 74.28617187 17.70230469 74.57234375 16.61523438 74.8671875 C15.08286133 75.27324219 15.08286133 75.27324219 13.51953125 75.6875 C12.58214111 75.93886719 11.64475098 76.19023438 10.67895508 76.44921875 C8.03746727 76.9922969 5.68782684 77.1023122 3 77 C2.67 76.01 2.34 75.02 2 74 C10.2219529 71.29717483 18.2825212 68.67342708 26.86328125 67.359375 C29.17715623 67.02678049 29.17715623 67.02678049 32 66 C34.83283274 61.46746761 33.80790076 57.01116822 33 52 C25.85007538 54.61247246 19.11073188 57.86470349 12.359375 61.35742188 C7.20409972 64 7.20409972 64 5 64 C5 64.66 5 65.32 5 66 C1.535 66.495 1.535 66.495 -2 67 C-2 66.01 -2 65.02 -2 64 C-0.06629769 62.99267601 1.87210306 61.99436712 3.8125 61 C4.89144531 60.443125 5.97039062 59.88625 7.08203125 59.3125 C10 58 10 58 13 58 C13 57.34 13 56.68 13 56 C27 49 27 49 29.390625 47.9609375 C31.35372774 47.02618013 31.35372774 47.02618013 32 44 C32.23188622 41.27668512 32.13093368 38.74960731 32 36 C31.34 35.34 30.68 34.68 30 34 C24.73965158 34.17088702 22.11698319 36.14951345 18.25 39.5625 C13.1825273 44 13.1825273 44 11 44 C10.67 44.99 10.34 45.98 10 47 C7.6015625 48.97265625 7.6015625 48.97265625 4.625 51.0625 C3.64789063 51.75472656 2.67078125 52.44695312 1.6640625 53.16015625 C-3.89596603 57 -3.89596603 57 -7 57 C-6.17017618 52.17893542 -3.04718875 50.29435428 0.6875 47.5 C1.30044922 47.02691406 1.91339844 46.55382812 2.54492188 46.06640625 C5.3968221 43.88287288 8.26901884 41.82258256 11.26953125 39.84375 C13.51273492 38.32902592 15.17755959 36.95978374 17 35 C18.17537388 33.92410097 19.36315103 32.86160655 20.5625 31.8125 C21.16191406 31.28269531 21.76132813 30.75289062 22.37890625 30.20703125 C24 29 24 29 26 29 C25.505 23.555 25.505 23.555 25 18 C21.62719181 17.16977029 19.38678538 16.63577107 16 17 C12.98092145 19.1216879 11.10075873 22.00020689 9 25 C7.48469599 27.06656576 5.96361298 29.12890352 4.4375 31.1875 C3.67695313 32.21746094 2.91640625 33.24742188 2.1328125 34.30859375 C0.42979171 36.4576438 -1.04102614 38.09238276 -3.1875 39.75 C-6.37600038 42.3008003 -8.34497669 45.05683854 -10.60546875 48.42578125 C-11.29576172 49.20501953 -11.29576172 49.20501953 -12 50 C-12.99 50 -13.98 50 -15 50 C-14.68563548 44.81298543 -11.69966733 41.4052641 -8 38 C-7.34 38 -6.68 38 -6 38 C-5.773125 37.29875 -5.54625 36.5975 -5.3125 35.875 C-3.66158712 32.25871465 -1.7091165 29.91230024 1 27 C1.66 27 2.32 27 3 27 C3.4640625 26.071875 3.4640625 26.071875 3.9375 25.125 C4.625 23.75 5.3125 22.375 6 21 C6.66 21 7.32 21 8 21 C8.66 19.68 9.32 18.36 10 17 C10.66 17 11.32 17 12 17 C12.33 14.03 12.66 11.06 13 8 C12.34 8 11.68 8 11 8 C10.401875 7.360625 9.80375 6.72125 9.1875 6.0625 C6.71355996 3.72992796 5.34661233 3.26420624 2 3 C1.01 3.495 1.01 3.495 0 4 C0 2.68 0 1.36 0 0 Z " fill="#BAB4B4" transform="translate(157,42)"/>
<path d="M0 0 C0.33 0.66 0.66 1.32 1 2 C0.67 2.66 0.34 3.32 0 4 C-0.25 7.5 -0.25 7.5 0 11 C2.1385485 13.1385485 3.13275314 13.42655063 6 14 C6 14.66 6 15.32 6 16 C6.639375 16.226875 7.27875 16.45375 7.9375 16.6875 C12.13320261 18.48565826 16.03900556 20.73904021 20 23 C20 23.99 20 24.98 20 26 C15.09690194 25.47729735 11.81611493 23.9987369 7.625 21.4375 C6.56539062 20.79683594 5.50578125 20.15617187 4.4140625 19.49609375 C3.61742187 19.00238281 2.82078125 18.50867188 2 18 C4.30208266 23.06043396 6.27701262 25.0612523 11 28 C11 28.66 11 29.32 11 30 C11.52851563 30.12761719 12.05703125 30.25523438 12.6015625 30.38671875 C28.22800718 34.38240575 28.22800718 34.38240575 34 39 C33.01 39.495 33.01 39.495 32 40 C32.03122943 41.96756452 32.03122943 41.96756452 33 44 C35.99615946 45.3045656 35.99615946 45.3045656 39 46 C39 46.66 39 47.32 39 48 C39.598125 48.28875 40.19625 48.5775 40.8125 48.875 C43 50 43 50 46 52 C46 52.66 46 53.32 46 54 C44.20841511 54.02696365 42.41671527 54.04637917 40.625 54.0625 C39.62726562 54.07410156 38.62953125 54.08570313 37.6015625 54.09765625 C35 54 35 54 33 53 C34.93326762 55.7790722 36.17187836 56.03316951 39.5625 56.6875 C43.64883801 57.08099922 47.70246367 57.00068824 51.80078125 56.83984375 C54 57 54 57 57 59 C59.60713564 59.3174994 59.60713564 59.3174994 62.4375 59.25 C63.38496094 59.25515625 64.33242187 59.2603125 65.30859375 59.265625 C68.0576574 58.99430957 69.59900654 58.28460796 72 57 C72.99 57 73.98 57 75 57 C75.495 60.465 75.495 60.465 76 64 C74 61 74 61 73 59 C71.865625 59.515625 70.73125 60.03125 69.5625 60.5625 C64.90118305 62.32086156 60.80244299 62.25981246 56 61 C55.01 60.34 54.02 59.68 53 59 C49.63709704 58.91647217 46.33753825 59.00397129 42.98046875 59.16601562 C38.38572816 59.29008218 35.66320248 58.80957548 32 56 C27.98931219 51.98931219 27.05043206 48.42723232 26 43 C26 42.01 26 41.02 26 40 C24.7625 39.62875 23.525 39.2575 22.25 38.875 C12.98520996 35.7331548 2.879982 32.03436901 -2 23 C-4.00769839 16.82300461 -5.99058492 10.38786573 -4 4 C-1.9375 1.6875 -1.9375 1.6875 0 0 Z " fill="#CBC5C3" transform="translate(5,55)"/>
<path d="M0 0 C3.50134524 0.87533631 4.38634801 1.1521189 6.5 3.875 C7.45534105 7.03497423 7.43095475 9.71079988 6.5 12.875 C3.85639656 15.78933391 0.9268136 17.95128334 -2.5 19.875 C-3.16 19.875 -3.82 19.875 -4.5 19.875 C-4.83 20.865 -5.16 21.855 -5.5 22.875 C-7.45597184 24.27212274 -9.4659094 25.59427629 -11.5 26.875 C-13.84958303 28.51970812 -16.172415 30.1991388 -18.5 31.875 C-18.5 31.215 -18.5 30.555 -18.5 29.875 C-19.758125 29.875 -21.01625 29.875 -22.3125 29.875 C-24.70833333 29.875 -27.10416667 29.875 -29.5 29.875 C-28.25160427 28.45691941 -27.00120779 27.04060005 -25.75 25.625 C-25.05390625 24.83609375 -24.3578125 24.0471875 -23.640625 23.234375 C-22.33006252 21.78988643 -20.98383422 20.37565428 -19.58203125 19.01953125 C-16.78304479 16.13652268 -14.38576243 12.99424996 -11.9375 9.8125 C-10.97976998 8.57014339 -10.02019252 7.32920833 -9.05859375 6.08984375 C-8.63892334 5.54448975 -8.21925293 4.99913574 -7.78686523 4.43725586 C-4.01371969 -0.14334713 -4.01371969 -0.14334713 0 0 Z " fill="#F4EEE6" transform="translate(176.5,58.125)"/>
<path d="M0 0 C3.63 0 7.26 0 11 0 C11.33 0.99 11.66 1.98 12 3 C12.66 3 13.32 3 14 3 C14.55463501 14.2570365 12.85410932 24.93052592 11 36 C10.67 35.34 10.34 34.68 10 34 C9.34 34 8.68 34 8 34 C8 31.03 8 28.06 8 25 C7.34 25 6.68 25 6 25 C6 27.31 6 29.62 6 32 C4.02 32.495 4.02 32.495 2 33 C0.33059057 21.9252571 -0.24939926 11.1952557 0 0 Z " fill="#F2EBE2" transform="translate(65,7)"/>
<path d="M0 0 C1.19109375 -0.00386719 1.19109375 -0.00386719 2.40625 -0.0078125 C4.5 0.125 4.5 0.125 6.5 1.125 C6.5 2.115 6.5 3.105 6.5 4.125 C7.49 4.125 8.48 4.125 9.5 4.125 C7.33994469 9.77437543 4.62451912 14.95752607 1.5 20.125 C-0.18257037 23.11623621 -1.84330184 26.11936973 -3.5 29.125 C-4.49 28.465 -5.48 27.805 -6.5 27.125 C-7.49 27.125 -8.48 27.125 -9.5 27.125 C-9.83 27.785 -10.16 28.445 -10.5 29.125 C-13.0625 29.75 -13.0625 29.75 -15.5 30.125 C-15.30664062 29.48433594 -15.11328125 28.84367187 -14.9140625 28.18359375 C-13.76879093 24.37925106 -12.62588937 20.57820172 -11.5625 16.75 C-10.58116264 13.40190783 -9.56204484 10.07329897 -8.5 6.75 C-8.17 5.71101563 -7.84 4.67203125 -7.5 3.6015625 C-5.91335741 -0.32785704 -3.89194281 -0.01263618 0 0 Z " fill="#F3ECE4" transform="translate(145.5,38.875)"/>
<path d="M0 0 C3.3 0 6.6 0 10 0 C9.12399374 12.01050691 8.05614061 24.00427196 7 36 C7.99 36 8.98 36 10 36 C10 33.36 10 30.72 10 28 C10.33 28 10.66 28 11 28 C11.08096803 29.45742463 11.13917774 30.91612807 11.1875 32.375 C11.23970703 33.59316406 11.23970703 33.59316406 11.29296875 34.8359375 C11.19628906 35.55007812 11.09960938 36.26421875 11 37 C10.01 37.66 9.02 38.32 8 39 C5.60236815 36.60236815 5.65719414 35.66726502 5.375 32.375 C5.30023438 31.55773437 5.22546875 30.74046875 5.1484375 29.8984375 C5.07496094 28.95871094 5.07496094 28.95871094 5 28 C2.91738855 29.03712176 2.91738855 29.03712176 1 31 C0.18685089 34.60465748 0.18685089 34.60465748 0 38 C-1.66611905 38.042721 -3.33382885 38.04063832 -5 38 C-6 37 -6 37 -6.09765625 35.15234375 C-6.06510417 33.1015625 -6.03255208 31.05078125 -6 29 C-5.67 29 -5.34 29 -5 29 C-5 31.31 -5 33.62 -5 36 C-4.01 36 -3.02 36 -2 36 C-2.06058594 35.30962646 -2.12117188 34.61925293 -2.18359375 33.90795898 C-2.45883646 30.75140145 -2.72945535 27.59446353 -3 24.4375 C-3.14308594 22.80844727 -3.14308594 22.80844727 -3.2890625 21.14648438 C-3.74886969 15.7437499 -4.12447531 10.42245588 -4 5 C-3.34 4.67 -2.68 4.34 -2 4 C-1.34 2.68 -0.68 1.36 0 0 Z " fill="#F2EBE3" transform="translate(106,42)"/>
<path d="M0 0 C2.296875 0.83984375 2.296875 0.83984375 4.296875 2.83984375 C4.60354484 7.59322625 4.79298952 10.70483564 2.296875 14.83984375 C0.6328125 16.02832031 0.6328125 16.02832031 -1.328125 16.98046875 C-2.03453125 17.32851562 -2.7409375 17.6765625 -3.46875 18.03515625 C-4.20609375 18.38320312 -4.9434375 18.73125 -5.703125 19.08984375 C-6.44046875 19.45335938 -7.1778125 19.816875 -7.9375 20.19140625 C-13.39367951 22.83984375 -13.39367951 22.83984375 -15.703125 22.83984375 C-15.703125 23.49984375 -15.703125 24.15984375 -15.703125 24.83984375 C-18.013125 25.49984375 -20.323125 26.15984375 -22.703125 26.83984375 C-21.713125 25.35484375 -21.713125 25.35484375 -20.703125 23.83984375 C-19.713125 23.83984375 -18.723125 23.83984375 -17.703125 23.83984375 C-17.703125 23.17984375 -17.703125 22.51984375 -17.703125 21.83984375 C-19.353125 21.83984375 -21.003125 21.83984375 -22.703125 21.83984375 C-22.703125 21.17984375 -22.703125 20.51984375 -22.703125 19.83984375 C-21.713125 19.83984375 -20.723125 19.83984375 -19.703125 19.83984375 C-20.693125 18.51984375 -21.683125 17.19984375 -22.703125 15.83984375 C-17.95864492 11.43509187 -13.0855138 7.22587082 -7.953125 3.27734375 C-7.07140625 2.59542969 -6.1896875 1.91351563 -5.28125 1.2109375 C-2.703125 -0.16015625 -2.703125 -0.16015625 0 0 Z " fill="#F1EAE1" transform="translate(185.703125,75.16015625)"/>
<path d="M0 0 C2.8125 0.5625 2.8125 0.5625 5.8125 2.5625 C5.8125 3.2225 5.8125 3.8825 5.8125 4.5625 C6.4725 4.5625 7.1325 4.5625 7.8125 4.5625 C8.6875 7.125 8.6875 7.125 8.8125 10.5625 C7.16471084 13.25156308 5.20897067 15.51184915 2.8125 17.5625 C2.1525 17.5625 1.4925 17.5625 0.8125 17.5625 C0.3484375 18.490625 0.3484375 18.490625 -0.125 19.4375 C-0.8125 20.8125 -1.5 22.1875 -2.1875 23.5625 C-2.8475 23.5625 -3.5075 23.5625 -4.1875 23.5625 C-4.1875 22.9025 -4.1875 22.2425 -4.1875 21.5625 C-4.765 22.036875 -5.3425 22.51125 -5.9375 23 C-8.11332084 24.5109867 -9.61352448 25.10286151 -12.1875 25.5625 C-12.5175 24.2425 -12.8475 22.9225 -13.1875 21.5625 C-13.8475 21.5625 -14.5075 21.5625 -15.1875 21.5625 C-15.5175 22.8825 -15.8475 24.2025 -16.1875 25.5625 C-16.8475 25.2325 -17.5075 24.9025 -18.1875 24.5625 C-16.4375 20.6875 -16.4375 20.6875 -14.1875 19.5625 C-13.8575 18.5725 -13.5275 17.5825 -13.1875 16.5625 C-12.5275 16.5625 -11.8675 16.5625 -11.1875 16.5625 C-11.07535156 15.70978516 -11.07535156 15.70978516 -10.9609375 14.83984375 C-9.81033333 8.08286434 -7.42845617 1.31090403 0 0 Z " fill="#F5EEE5" transform="translate(162.1875,45.4375)"/>
<path d="M0 0 C1.4386494 0.06032073 2.87611902 0.14920133 4.3125 0.25 C5.51326172 0.31960938 5.51326172 0.31960938 6.73828125 0.390625 C9 1 9 1 10.80078125 2.71484375 C13.03145188 6.96547019 11.86029302 11.43333179 11 16 C10.19827797 18.53029035 9.2162792 20.61609278 8 23 C7.608125 23.804375 7.21625 24.60875 6.8125 25.4375 C6.544375 25.953125 6.27625 26.46875 6 27 C5.67 26.67 5.34 26.34 5 26 C4.01 27.98 3.02 29.96 2 32 C1.34 31.67 0.68 31.34 0 31 C-0.59355614 28.35139573 -0.74209269 25.70802678 -1 23 C-1.66 23 -2.32 23 -3 23 C-2.6902353 20.1038504 -2.37728812 17.20810424 -2.0625 14.3125 C-1.97548828 13.49587891 -1.88847656 12.67925781 -1.79882812 11.83789062 C-1.36241272 7.84549781 -0.88697624 3.92347148 0 0 Z " fill="#F5EDE3" transform="translate(83,13)"/>
<path d="M0 0 C1 1 1 1 1.0546875 2.94140625 C0.45007825 11.76081515 -2.1737825 19.68820906 -5 28 C-5.33 26.68 -5.66 25.36 -6 24 C-7.65 23.67 -9.3 23.34 -11 23 C-11.66 21.02 -12.32 19.04 -13 17 C-13.33 17 -13.66 17 -14 17 C-13.96545559 4.08039078 -13.96545559 4.08039078 -10.375 0.0625 C-6.43432311 -1.17808347 -3.98073891 -1.01469815 0 0 Z " fill="#F3EBE1" transform="translate(133,38)"/>
<path d="M0 0 C0.33 0.66 0.66 1.32 1 2 C0.67 2.66 0.34 3.32 0 4 C-0.25 7.5 -0.25 7.5 0 11 C2.1385485 13.1385485 3.13275314 13.42655063 6 14 C6 14.66 6 15.32 6 16 C6.639375 16.226875 7.27875 16.45375 7.9375 16.6875 C12.13320261 18.48565826 16.03900556 20.73904021 20 23 C20 23.99 20 24.98 20 26 C15.09690194 25.47729735 11.81611493 23.9987369 7.625 21.4375 C6.56539062 20.79683594 5.50578125 20.15617187 4.4140625 19.49609375 C3.61742187 19.00238281 2.82078125 18.50867188 2 18 C4.30208266 23.06043396 6.27701262 25.0612523 11 28 C11 28.66 11 29.32 11 30 C11.56460937 30.12375 12.12921875 30.2475 12.7109375 30.375 C15.15181049 31.04144996 17.32295759 31.95291716 19.625 33 C20.78902344 33.5259375 20.78902344 33.5259375 21.9765625 34.0625 C23.3271857 34.68827137 24.66860289 35.33430144 26 36 C26 36.66 26 37.32 26 38 C23.49010501 37.58168417 21.35502751 37.18586307 19.08984375 36 C16.90528395 34.95467793 15.20044045 34.67947328 12.8125 34.375 C6.73782194 33.01170591 2.60473143 30.07252627 -1 25 C-3.67813176 18.73787362 -6.19816271 10.63052358 -4 4 C-1.9375 1.6875 -1.9375 1.6875 0 0 Z " fill="#B9B3B3" transform="translate(5,55)"/>
<path d="M0 0 C0.53625 0.28875 1.0725 0.5775 1.625 0.875 C5.50311605 2.71200234 9.44174765 3.87487447 13.625 4.8125 C18.77260529 6.62369445 20.27292677 9.62375425 22.75 14.3125 C23.1625 15.199375 23.575 16.08625 24 17 C21 16 21 16 20.03515625 14.2578125 C19.71417969 13.55398437 19.39320313 12.85015625 19.0625 12.125 C17.29910472 9.06917836 16.33738571 8.1347781 13.0078125 6.8046875 C10.01223342 6.0787001 7.04619707 5.46640338 4 5 C6.35953094 7.35953094 7.77895617 7.49141413 11 8 C11 8.33 11 8.66 11 9 C9.6696875 9.2784375 9.6696875 9.2784375 8.3125 9.5625 C3.96180513 11.4505374 2.18852766 13.87070252 0 18 C-0.87443063 20.33785597 -1.45112422 22.55500789 -2 25 C-2.66 25 -3.32 25 -4 25 C-4.33 26.32 -4.66 27.64 -5 29 C-5.66 29 -6.32 29 -7 29 C-7.26039063 29.86109375 -7.52078125 30.7221875 -7.7890625 31.609375 C-9.02754203 35.07711769 -10.54006368 38.06089671 -12.375 41.25 C-13.25285156 42.80460937 -13.25285156 42.80460937 -14.1484375 44.390625 C-15.98859605 46.98392862 -17.05867474 47.93749484 -20 49 C-20.28918215 44.94293129 -19.62569997 42.77866823 -17.48046875 39.34765625 C-16.68866211 38.05891602 -16.68866211 38.05891602 -15.88085938 36.74414062 C-15.04264648 35.41672852 -15.04264648 35.41672852 -14.1875 34.0625 C-13.09571719 32.30458822 -12.00582284 30.54550196 -10.91796875 28.78515625 C-10.40613037 27.95846436 -9.89429199 27.13177246 -9.36694336 26.2800293 C-7.75443865 23.59040946 -6.34922434 20.82986664 -5 18 C-4.0126546 16.32580562 -3.01187895 14.65948148 -2 13 C-0.65612428 10.67256307 0.67152241 8.33628817 2 6 C1.01 6 0.02 6 -1 6 C-1 5.34 -1 4.68 -1 4 C-0.01 3.67 0.98 3.34 2 3 C1.34 2.01 0.68 1.02 0 0 Z " fill="#C3BDBC" transform="translate(153,37)"/>
<path d="M0 0 C2.49361571 1.20381448 4.68143083 2.45428722 7 4 C9.21242849 4.41782387 9.21242849 4.41782387 11.5625 4.5625 C15.80821918 4.90410959 15.80821918 4.90410959 18 6 C18 6.66 18 7.32 18 8 C18.66 8 19.32 8 20 8 C21.2890625 9.75 21.2890625 9.75 22.625 12 C23.07101563 12.7425 23.51703125 13.485 23.9765625 14.25 C24.31429687 14.8275 24.65203125 15.405 25 16 C19.34285714 14.36571429 19.34285714 14.36571429 17.59375 12.5 C15.57243237 10.59758341 14.0179222 10.32221723 11.3125 9.8125 C10.50425781 9.65394531 9.69601563 9.49539063 8.86328125 9.33203125 C7.94095703 9.16767578 7.94095703 9.16767578 7 9 C6.97421875 9.72058594 6.9484375 10.44117188 6.921875 11.18359375 C6.26639465 23.59302863 4.0740882 35.76302375 2 48 C0.515 48.495 0.515 48.495 -1 49 C-1.18586389 42.22360004 -0.69636342 35.86316198 0.4375 29.1875 C1.68012247 21.4553052 2.58582243 13.8265278 3 6 C2.34 6 1.68 6 1 6 C0.67 4.02 0.34 2.04 0 0 Z " fill="#BBB5B5" transform="translate(76,4)"/>
<path d="M0 0 C0.33 0.99 0.66 1.98 1 3 C1.763125 3.763125 2.52625 4.52625 3.3125 5.3125 C6.07970598 8.07970598 7.93076646 10.70455399 10 14 C9.01 14.495 9.01 14.495 8 15 C8.33 16.32 8.66 17.64 9 19 C8.34 19.33 7.68 19.66 7 20 C5.86649466 22.01669827 5.86649466 22.01669827 5 24 C3.39400651 22.73147606 1.79027425 21.460089 0.1875 20.1875 C-0.70582031 19.47980469 -1.59914063 18.77210937 -2.51953125 18.04296875 C-7.90879169 13.60425503 -7.90879169 13.60425503 -8.5 9.6875 C-7.81909526 4.66582753 -5.69943682 0 0 0 Z " fill="#F2EAE0" transform="translate(16,37)"/>
<path d="M0 0 C0.9796875 0.00322266 1.959375 0.00644531 2.96875 0.00976562 C3.98453125 0.01814453 5.0003125 0.02652344 6.046875 0.03515625 C7.59375 0.04192383 7.59375 0.04192383 9.171875 0.04882812 C11.71360073 0.06059537 14.25520819 0.07703614 16.796875 0.09765625 C16.796875 0.42765625 16.796875 0.75765625 16.796875 1.09765625 C10.526875 1.42765625 4.256875 1.75765625 -2.203125 2.09765625 C0.59635417 2.29296875 3.39583333 2.48828125 6.1953125 2.68359375 C8.796875 3.09765625 8.796875 3.09765625 10.796875 5.09765625 C4.69238836 14.21109197 4.69238836 14.21109197 -1.203125 16.09765625 C-6.68071481 16.86759859 -10.39304665 15.98370326 -15.203125 13.09765625 C-12.5364831 11.7643353 -11.03632197 12.42663592 -8.203125 13.09765625 C-10.513125 11.44765625 -12.823125 9.79765625 -15.203125 8.09765625 C-10.453125 4.22265625 -10.453125 4.22265625 -8.203125 3.09765625 C-8.533125 2.43765625 -8.863125 1.77765625 -9.203125 1.09765625 C-6.06462436 0.17211882 -3.26631722 -0.01899022 0 0 Z M-1.328125 4.53515625 C-3.24625 4.81359375 -3.24625 4.81359375 -5.203125 5.09765625 C-5.203125 5.42765625 -5.203125 5.75765625 -5.203125 6.09765625 C-2.893125 6.75765625 -0.583125 7.41765625 1.796875 8.09765625 C1.796875 7.43765625 1.796875 6.77765625 1.796875 6.09765625 C2.786875 5.76765625 3.776875 5.43765625 4.796875 5.09765625 C2.37557169 3.8870046 1.31393841 4.15163092 -1.328125 4.53515625 Z M-10.203125 6.09765625 C-10.863125 6.75765625 -11.523125 7.41765625 -12.203125 8.09765625 C-9.01822493 8.37500635 -9.01822493 8.37500635 -6.203125 6.09765625 C-7.523125 6.09765625 -8.843125 6.09765625 -10.203125 6.09765625 Z " fill="#CAC4C1" transform="translate(136.203125,136.90234375)"/>
<path d="M0 0 C1.27424413 3.82273239 0.44830198 5.30706026 -0.875 9.0625 C-1.24367188 10.12597656 -1.61234375 11.18945312 -1.9921875 12.28515625 C-3 15 -3 15 -4 17 C2.02913988 15.41541837 5.22871105 14.16806264 9 9 C10.32 9 11.64 9 13 9 C12.1875 11.9375 12.1875 11.9375 11 15 C10.01 15.33 9.02 15.66 8 16 C8.144375 16.98097656 8.28875 17.96195313 8.4375 18.97265625 C9.75612442 28.3934168 10.24604531 37.48624795 10 47 C9.01 47 8.02 47 7 47 C6.66027199 44.18814406 6.32809788 41.37571764 6 38.5625 C5.90460938 37.77939453 5.80921875 36.99628906 5.7109375 36.18945312 C5.08488869 30.75624381 4.91240429 25.46925737 5 20 C2.03 20 -0.94 20 -4 20 C-4 20.66 -4 21.32 -4 22 C-4.99 22 -5.98 22 -7 22 C-7.33 22.66 -7.66 23.32 -8 24 C-8 22.68 -8 21.36 -8 20 C-7.01 19.34 -6.02 18.68 -5 18 C-5.19464844 17.45859375 -5.38929687 16.9171875 -5.58984375 16.359375 C-6.12313188 13.29169854 -5.44683579 11.22136826 -4.5625 8.25 C-4.27503906 7.26515625 -3.98757812 6.2803125 -3.69140625 5.265625 C-3.46324219 4.51796875 -3.23507813 3.7703125 -3 3 C-2.34 3 -1.68 3 -1 3 C-0.67 2.01 -0.34 1.02 0 0 Z " fill="#B0AAAB" transform="translate(94,31)"/>
<path d="M0 0 C2.91175861 0.32352873 4.85769937 0.91387067 7.375 2.4375 C9.63947742 6.0084067 9.26764631 8.63066246 8.6796875 12.734375 C8 15 8 15 5.6875 16.8125 C4.800625 17.204375 3.91375 17.59625 3 18 C2.401875 18.86625 1.80375 19.7325 1.1875 20.625 C-1.98426977 24.06863575 -4.41131404 23.7705657 -9 24 C-8.01 20.7 -7.02 17.4 -6 14 C-5.34 14 -4.68 14 -4 14 C-3.81824219 13.11248047 -3.81824219 13.11248047 -3.6328125 12.20703125 C-2.73255357 7.96196415 -1.79543379 3.97560339 0 0 Z " fill="#F2EAE2" transform="translate(99,24)"/>
<path d="M0 0 C0.33 0.66 0.66 1.32 1 2 C0.34 2 -0.32 2 -1 2 C-1.33 6.95 -1.66 11.9 -2 17 C-0.68 17.33 0.64 17.66 2 18 C3.67578125 19.453125 3.67578125 19.453125 5.3125 21.25 C8.60894384 24.71055251 12.04007243 27.33311001 16 30 C14.33333333 30 12.66666667 30 11 30 C10.67 32.31 10.34 34.62 10 37 C5.25 35.125 5.25 35.125 3 34 C3 33.34 3 32.68 3 32 C2.21625 31.87625 1.4325 31.7525 0.625 31.625 C-2 31 -2 31 -4 29 C-4.20146402 25.306493 -4.17353189 22.52059568 -3 19 C-3.66 19 -4.32 19 -5 19 C-5.33 19.99 -5.66 20.98 -6 22 C-6.33 21.34 -6.66 20.68 -7 20 C-6.525625 19.154375 -6.05125 18.30875 -5.5625 17.4375 C-3.82172754 13.6078006 -3.80902089 11.25277154 -4.08984375 7.1484375 C-3.98351142 4.60570782 -3.35131655 3.1415328 -2 1 C-1.34 0.67 -0.68 0.34 0 0 Z " fill="#F2EAE1" transform="translate(8,37)"/>
<path d="M0 0 C0.99 0 1.98 0 3 0 C2 3 2 3 -1 5 C-0.21633876 14.59985017 2.42920064 24.08040989 6 33 C7.36544765 38.31850289 8.29005104 43.48903025 8 49 C6.515 48.505 6.515 48.505 5 48 C3.9375 44.875 3.9375 44.875 3 41 C2.690625 39.96875 2.38125 38.9375 2.0625 37.875 C0.75116056 33.33177675 -0.2096352 28.7037346 -1.21875 24.0859375 C-1.9150902 21.03859994 -1.9150902 21.03859994 -3.0546875 18.40234375 C-4.5288061 14.65613325 -4.64203766 10.99724613 -5 7 C-8.3 7 -11.6 7 -15 7 C-15.33 7.99 -15.66 8.98 -16 10 C-16.66 10 -17.32 10 -18 10 C-17.75 8.125 -17.75 8.125 -17 6 C-13.25432508 3.60716478 -9.66797801 3.6431689 -5.33984375 3.44140625 C-2.57372843 2.91958483 -1.8808156 1.99803357 0 0 Z " fill="#AEA8A9" transform="translate(48,5)"/>
<path d="M0 0 C0.45772706 4.66881599 0.62494858 7.9440524 -1.8125 12.0625 C-6.46311532 14.88934461 -10.69163725 14.41834733 -16 14 C-16 13.34 -16 12.68 -16 12 C-15.34 11.67 -14.68 11.34 -14 11 C-14.99 10.34 -15.98 9.68 -17 9 C-16.01 8.67 -15.02 8.34 -14 8 C-14.33 7.01 -14.66 6.02 -15 5 C-16.65 5 -18.3 5 -20 5 C-16.59916921 3.07815459 -13.23685016 2.23082631 -9.4375 1.375 C-8.30183594 1.11460938 -7.16617188 0.85421875 -5.99609375 0.5859375 C-3 0 -3 0 0 0 Z " fill="#F1E8DF" transform="translate(188,113)"/>
<path d="M0 0 C0.66 0 1.32 0 2 0 C1.34 3.63 0.68 7.26 0 11 C0.66 11 1.32 11 2 11 C2 11.66 2 12.32 2 13 C0.88625 12.8453125 0.88625 12.8453125 -0.25 12.6875 C-3.16888381 12.75127416 -3.16888381 12.75127416 -5.3125 15.0625 C-7.57314064 18.99768926 -8.04450273 20.52355974 -7 25 C-2.63635807 29.94931032 2.35275502 33.65313528 8 37 C13.54621849 41.91596639 13.54621849 41.91596639 14 46 C13.01 46 12.02 46 11 46 C11 45.34 11 44.68 11 44 C10.14728516 43.60748047 10.14728516 43.60748047 9.27734375 43.20703125 C4.02830134 40.42494874 -0.76928206 36.40542935 -4.875 32.125 C-6.89751355 29.78571015 -6.89751355 29.78571015 -10 29 C-10.02693575 26.87506859 -10.04636628 24.75004088 -10.0625 22.625 C-10.07410156 21.44164063 -10.08570313 20.25828125 -10.09765625 19.0390625 C-10 16 -10 16 -9 14 C-8.34 14 -7.68 14 -7 14 C-6.9175 13.38125 -6.835 12.7625 -6.75 12.125 C-6.5025 11.42375 -6.255 10.7225 -6 10 C-5.360625 9.7525 -4.72125 9.505 -4.0625 9.25 C-1.85153911 8.2016807 -1.85153911 8.2016807 -1.29296875 6.1015625 C-0.80041422 4.08173458 -0.39505892 2.04113773 0 0 Z " fill="#AEA8A9" transform="translate(16,25)"/>
<path d="M0 0 C0.59425781 0.30035156 1.18851562 0.60070312 1.80078125 0.91015625 C8.71292453 4.08135729 13.59103785 4.1527381 21 3 C22.8947813 2.80215135 24.79061827 2.61407855 26.6875 2.4375 C28.12505197 2.29217982 29.56257278 2.14654898 31 2 C28.74259377 4.33524782 26.7194239 6.18705073 24 8 C27.65333143 10.63379708 30.48521602 12.46884894 35 13 C35 13.33 35 13.66 35 14 C29.06783227 14.43143038 25.65966111 13.56142273 20.37109375 10.94921875 C17.02756742 9.61070656 13.8351424 9.42304944 10.26171875 9.2734375 C6.31646561 8.79646389 4.39150477 7.43500529 1.75 4.5 C0 2 0 2 0 0 Z " fill="#ADA7A8" transform="translate(98,137)"/>
<path d="M0 0 C7.58468694 2.21990837 12.55936589 5.41986245 18 11 C19.95053097 12.4350335 21.94691528 13.71085378 24 15 C20.47446652 17.35035565 18.37978559 17.47765291 14.1875 17.8125 C12.98480469 17.92207031 11.78210938 18.03164062 10.54296875 18.14453125 C6.61107287 17.98413417 4.35512299 16.98841133 1 15 C1 14.34 1 13.68 1 13 C5.29 13.33 9.58 13.66 14 14 C14 13.34 14 12.68 14 12 C13.1028125 11.566875 13.1028125 11.566875 12.1875 11.125 C10 10 10 10 7 8 C7 7.34 7 6.68 7 6 C6.030625 5.7525 5.06125 5.505 4.0625 5.25 C3.051875 4.8375 2.04125 4.425 1 4 C0.125 1.875 0.125 1.875 0 0 Z " fill="#B2ACAC" transform="translate(37,95)"/>
<path d="M0 0 C4.2960574 0.35258887 8.40848363 0.62562278 12.6875 -0.0625 C13.739375 -0.206875 14.79125 -0.35125 15.875 -0.5 C16.535 0.16 17.195 0.82 17.875 1.5 C16.2926994 1.83820166 14.70910625 2.17035939 13.125 2.5 C12.24328125 2.685625 11.3615625 2.87125 10.453125 3.0625 C7.875 3.5 7.875 3.5 3.875 3.5 C3.875 8.12 3.875 12.74 3.875 17.5 C3.545 17.5 3.215 17.5 2.875 17.5 C2.875 13.87 2.875 10.24 2.875 6.5 C-2.57 6.005 -2.57 6.005 -8.125 5.5 C-7.795 4.51 -7.465 3.52 -7.125 2.5 C-10.30734105 4.25454385 -10.30734105 4.25454385 -13.125 6.5 C-14.72410799 6.70971908 -16.33009246 6.8682067 -17.9375 7 C-21.10841183 7.26229108 -24.05807212 7.64211808 -27.125 8.5 C-27.125 7.84 -27.125 7.18 -27.125 6.5 C-26.24457031 6.40203125 -25.36414062 6.3040625 -24.45703125 6.203125 C-23.29558594 6.05359375 -22.13414063 5.9040625 -20.9375 5.75 C-19.78894531 5.61078125 -18.64039063 5.4715625 -17.45703125 5.328125 C-13.74627583 4.40587395 -11.9337143 3.03432836 -9.125 0.5 C-6.06854805 -1.02822597 -3.37386514 -0.29512936 0 0 Z " fill="#CCC6C4" transform="translate(58.125,2.5)"/>
<path d="M0 0 C0.66 0.33 1.32 0.66 2 1 C2.64583243 3.42927796 3.16999412 5.78461099 3.625 8.25 C3.7590625 8.91902344 3.893125 9.58804688 4.03125 10.27734375 C4.72801653 13.8962638 5.15710263 17.31522916 5 21 C3.68 20.67 2.36 20.34 1 20 C1 19.34 1 18.68 1 18 C0.34 18 -0.32 18 -1 18 C-1 17.34 -1 16.68 -1 16 C-1.66 16 -2.32 16 -3 16 C-4.6033559 12.7932882 -4.49604443 9.47875318 -4 6 C-2.88843696 3.68950216 -1.61720298 2.02150372 0 0 Z " fill="#ECE4DE" transform="translate(87,102)"/>
<path d="M0 0 C3 1 3 1 4.82421875 4.30859375 C5.45604983 5.67999973 6.07673453 7.05658349 6.6875 8.4375 C7.00783203 9.13166016 7.32816406 9.82582031 7.65820312 10.54101562 C10 15.69896055 10 15.69896055 10 18 C10.66 18 11.32 18 12 18 C12.67595315 19.41225926 13.34040059 20.83002905 14 22.25 C14.37125 23.03890625 14.7425 23.8278125 15.125 24.640625 C16 27 16 27 16 31 C13.08295585 29.95285594 12.11030225 29.18809437 10.515625 26.46875 C10.09796875 25.4890625 9.6803125 24.509375 9.25 23.5 C8.82203125 22.5203125 8.3940625 21.540625 7.953125 20.53125 C7 18 7 18 7 16 C6.34 16 5.68 16 5 16 C-0.74031891 5.62642369 -0.74031891 5.62642369 0 0 Z " fill="#B3ADAE" transform="translate(31,27)"/>
<path d="M0 0 C0.99 0 1.98 0 3 0 C3.8394882 2.10171867 4.67139656 4.20646625 5.5 6.3125 C6.19609375 8.07013672 6.19609375 8.07013672 6.90625 9.86328125 C8 13 8 13 8 16 C8.99 16.33 9.98 16.66 11 17 C10.01 17 9.02 17 8 17 C7.67 17.99 7.34 18.98 7 20 C6.67 19.34 6.34 18.68 6 18 C5.01 18.33 4.02 18.66 3 19 C-0.05654046 14.80427648 -0.33143207 11.82107724 -0.1875 6.6875 C-0.14689453 4.80611328 -0.14689453 4.80611328 -0.10546875 2.88671875 C-0.07066406 1.93410156 -0.03585938 0.98148437 0 0 Z " fill="#F1EAE1" transform="translate(82,66)"/>
<path d="M0 0 C0 0.99 0 1.98 0 3 C-0.66 3 -1.32 3 -2 3 C-1.855625 3.98097656 -1.71125 4.96195313 -1.5625 5.97265625 C-0.24387558 15.3934168 0.24604531 24.48624795 0 34 C-0.99 34 -1.98 34 -3 34 C-3.33972801 31.18814406 -3.67190212 28.37571764 -4 25.5625 C-4.09539062 24.77939453 -4.19078125 23.99628906 -4.2890625 23.18945312 C-6.10853467 7.39903391 -6.10853467 7.39903391 -3 2 C-2.01 1.34 -1.02 0.68 0 0 Z " fill="#B5AFAF" transform="translate(104,44)"/>
<path d="M0 0 C0.66 0 1.32 0 2 0 C4.40994015 3.61491023 4.75176686 6.59570656 5.4375 10.8203125 C5.623125 11.53960937 5.80875 12.25890625 6 13 C6.66 13.33 7.32 13.66 8 14 C8.45787788 17.01660723 8.80009672 19.96524907 9.0625 23 C9.21980846 24.66668968 9.3773598 26.33335645 9.53515625 28 C9.61008301 28.82242188 9.68500977 29.64484375 9.76220703 30.4921875 C10.12647495 34.33383031 10.56326142 38.16597633 11 42 C10.34 42 9.68 42 9 42 C8.4654744 40.75579353 7.94791389 39.50429064 7.4375 38.25 C7.14746094 37.55390625 6.85742188 36.8578125 6.55859375 36.140625 C6 34 6 34 6.4921875 32.078125 C7.19117982 29.21763335 6.48687342 27.3186437 5.6875 24.5 C4.23336474 19.12630926 3.27814666 13.81381973 2.52734375 8.30078125 C2.35332031 7.54152344 2.17929688 6.78226562 2 6 C1.34 5.67 0.68 5.34 0 5 C0 3.35 0 1.7 0 0 Z " fill="#ADA7A7" transform="translate(86,94)"/>
<path d="M0 0 C2.97 0 5.94 0 9 0 C9.77040851 6.06696699 10.09706112 11.88514973 10 18 C9.67 18 9.34 18 9 18 C8 13 7 8 6 3 C5.01 3 4.02 3 3 3 C2.20497132 6.06551599 1.55067798 9.14323156 0.9375 12.25 C0.67259766 13.58804688 0.67259766 13.58804688 0.40234375 14.953125 C0.26957031 15.62859375 0.13679688 16.3040625 0 17 C-2.78517171 14.21482829 -2.98534581 12.41031718 -3.125 8.5 C-3 5 -3 5 -2 2 C-1.34 2 -0.68 2 0 2 C0 1.34 0 0.68 0 0 Z " fill="#EDE5DE" transform="translate(90,51)"/>
<path d="M0 0 C0.33 0 0.66 0 1 0 C1.55463501 11.2570365 -0.14589068 21.93052592 -2 33 C-3.485 33.495 -3.485 33.495 -5 34 C-5.18390539 27.06546658 -4.70243347 20.4729185 -3.625 13.625 C-3.49867187 12.74972656 -3.37234375 11.87445313 -3.2421875 10.97265625 C-2.62149298 6.90710717 -1.99750502 3.63754009 0 0 Z " fill="#B0AAAB" transform="translate(80,19)"/>
<path d="M0 0 C1.66666667 1.66666667 3.33333333 3.33333333 5 5 C5.928125 5.886875 6.85625 6.77375 7.8125 7.6875 C10 10 10 10 10 12 C11.32 12.66 12.64 13.32 14 14 C14 14.99 14 15.98 14 17 C14.66 17 15.32 17 16 17 C16 17.66 16 18.32 16 19 C16.66 19 17.32 19 18 19 C20 22 20 22 20 25 C18.68 25 17.36 25 16 25 C15.34 23.35 14.68 21.7 14 20 C13.34 20 12.68 20 12 20 C9.16676638 16.94309004 6.89056873 13.95602809 4.875 10.3125 C3.25707187 7.08774267 3.25707187 7.08774267 1.25 5.3125 C0 4 0 4 0 0 Z " fill="#BBB5B5" transform="translate(19,39)"/>
<path d="M0 0 C0.66 0.66 1.32 1.32 2 2 C4.89967757 2.30675232 7.71783178 2.51173371 10.625 2.625 C11.42679688 2.66367188 12.22859375 2.70234375 13.0546875 2.7421875 C15.03607556 2.83653931 17.01800645 2.91936215 19 3 C18 6 18 6 15 8.1875 C8.30526482 11.4241091 0.23523317 10.29598681 -7 10 C-7 9.67 -7 9.34 -7 9 C-4.03 9 -1.06 9 2 9 C2 8.34 2 7.68 2 7 C2.804375 6.87625 3.60875 6.7525 4.4375 6.625 C5.283125 6.41875 6.12875 6.2125 7 6 C7.33 5.34 7.66 4.68 8 4 C7.01 4.33 6.02 4.66 5 5 C2.3125 4.0625 2.3125 4.0625 0 3 C0 2.01 0 1.02 0 0 Z " fill="#EBE3DD" transform="translate(160,128)"/>
<path d="M0 0 C8.85807944 0.34400309 8.85807944 0.34400309 12.9375 2.6875 C15.24412336 5.27371407 16.54029955 7.87207047 18 11 C18.66 11.33 19.32 11.66 20 12 C20 12.99 20 13.98 20 15 C15.77777778 18 15.77777778 18 13 18 C13 14.7 13 11.4 13 8 C12.34 8 11.68 8 11 8 C10.1028125 7.0409375 10.1028125 7.0409375 9.1875 6.0625 C6.71355996 3.72992796 5.34661233 3.26420624 2 3 C1.01 3.495 1.01 3.495 0 4 C0 2.68 0 1.36 0 0 Z " fill="#AEA8A9" transform="translate(157,42)"/>
<path d="M0 0 C0.33 0 0.66 0 1 0 C1.31860272 10.17758697 0.35067975 19.93020011 -1 30 C-1.99 30 -2.98 30 -4 30 C-3.91851657 26.31163664 -3.80572732 22.62485403 -3.6875 18.9375 C-3.66494141 17.89916016 -3.64238281 16.86082031 -3.61914062 15.79101562 C-3.40998898 9.8016731 -2.8137342 5.31818394 0 0 Z " fill="#B1ABAD" transform="translate(117,48)"/>
<path d="M0 0 C5.75 1.875 5.75 1.875 8 3 C8 3.66 8 4.32 8 5 C8.598125 5.28875 9.19625 5.5775 9.8125 5.875 C12 7 12 7 15 9 C15 9.66 15 10.32 15 11 C13.39667209 11.08121924 11.79215974 11.13929134 10.1875 11.1875 C9.29417969 11.22230469 8.40085937 11.25710937 7.48046875 11.29296875 C5 11 5 11 3.17578125 9.61328125 C2 8 2 8 2 6 C1.34 6 0.68 6 0 6 C0 4.02 0 2.04 0 0 Z " fill="#F0E9E2" transform="translate(36,98)"/>
<path d="M0 0 C0.99 0.33 1.98 0.66 3 1 C2.34 1.66 1.68 2.32 1 3 C4.465 2.505 4.465 2.505 8 2 C8 2.99 8 3.98 8 5 C5.36 5 2.72 5 0 5 C-0.7435485 9.85371935 -0.93061542 13.54489299 1.78125 17.78515625 C3.22924652 19.51612392 4.71796285 21.21404663 6.25 22.87109375 C8 25 8 25 8 28 C7.54109375 27.4225 7.0821875 26.845 6.609375 26.25 C5.99578125 25.5075 5.3821875 24.765 4.75 24 C4.14671875 23.2575 3.5434375 22.515 2.921875 21.75 C0.94027788 19.55115267 0.94027788 19.55115267 -3 20 C-3 19.34 -3 18.68 -3 18 C-2.34 18 -1.68 18 -1 18 C-1 17.34 -1 16.68 -1 16 C-1.66 16 -2.32 16 -3 16 C-2.85892253 14.54119891 -2.71197585 13.08296449 -2.5625 11.625 C-2.48128906 10.81289063 -2.40007813 10.00078125 -2.31640625 9.1640625 C-2 7 -2 7 -1 5 C-1.66 5 -2.32 5 -3 5 C-3.12375 5.94875 -3.2475 6.8975 -3.375 7.875 C-4 11 -4 11 -6 13 C-4.44191344 3.40546697 -4.44191344 3.40546697 0 0 Z " fill="#CAC4C2" transform="translate(19,20)"/>
<path d="M0 0 C0.33 0 0.66 0 1 0 C2.1922117 9.66543055 2.09622024 19.28175551 2 29 C1.01 29 0.02 29 -1 29 C-2.1482685 26.703463 -2.11561175 25.41686833 -2.09765625 22.8671875 C-2.09443359 22.06152344 -2.09121094 21.25585938 -2.08789062 20.42578125 C-2.07951172 19.58402344 -2.07113281 18.74226563 -2.0625 17.875 C-2.05798828 17.02550781 -2.05347656 16.17601563 -2.04882812 15.30078125 C-2.03702874 13.20049091 -2.01909306 11.1002367 -2 9 C-1.34 9 -0.68 9 0 9 C0 6.03 0 3.06 0 0 Z " fill="#C0BABA" transform="translate(65,24)"/>
<path d="M0 0 C0.96164063 0.11085937 1.92328125 0.22171875 2.9140625 0.3359375 C3.72617188 0.43132812 4.53828125 0.52671875 5.375 0.625 C7.58581851 0.73040926 7.58581851 0.73040926 10.375 -0.375 C10.375 0.285 10.375 0.945 10.375 1.625 C9.715 1.625 9.055 1.625 8.375 1.625 C8.045 2.945 7.715 4.265 7.375 5.625 C1.04494194 6.81637147 -2.94624164 6.81930158 -8.625 3.625 C-8.955 2.965 -9.285 2.305 -9.625 1.625 C-6.21158984 -0.49422622 -3.94205124 -0.47814638 0 0 Z M-4.625 0.625 C-5.285 1.285 -5.945 1.945 -6.625 2.625 C-3.44009993 2.9023501 -3.44009993 2.9023501 -0.625 0.625 C-1.945 0.625 -3.265 0.625 -4.625 0.625 Z " fill="#DBD4D0" transform="translate(130.625,142.375)"/>
<path d="M0 0 C0.33 0.66 0.66 1.32 1 2 C0.67 2.66 0.34 3.32 0 4 C-0.25 7.5 -0.25 7.5 0 11 C2.1385485 13.1385485 3.13275314 13.42655063 6 14 C6 14.99 6 15.98 6 17 C4.35 17 2.7 17 1 17 C1 18.65 1 20.3 1 22 C0.34 21.67 -0.32 21.34 -1 21 C-1.59355614 18.35139573 -1.74209269 15.70802678 -2 13 C-2.66 13 -3.32 13 -4 13 C-5.14507772 7.80310881 -5.14507772 7.80310881 -5 5 C-2.5625 2 -2.5625 2 0 0 Z " fill="#B4AEAE" transform="translate(5,55)"/>
<path d="M0 0 C12.54 0 25.08 0 38 0 C38 0.66 38 1.32 38 2 C33.75049279 2.19996081 29.50040099 2.3826241 25.25 2.5625 C24.06277344 2.61857422 22.87554687 2.67464844 21.65234375 2.73242188 C14.00943089 3.04565601 6.60416095 2.83820579 -1 2 C-0.67 1.34 -0.34 0.68 0 0 Z " fill="#A9A3A4" transform="translate(134,138)"/>
<path d="M0 0 C14.85370741 8.73747495 14.85370741 8.73747495 16.8125 14.3125 C16.874375 14.869375 16.93625 15.42625 17 16 C16.01 16 15.02 16 14 16 C14 15.34 14 14.68 14 14 C13.43539063 13.74089844 12.87078125 13.48179688 12.2890625 13.21484375 C9.76432512 11.8749234 7.6307161 10.31652673 5.375 8.5625 C4.59898438 7.96566406 3.82296875 7.36882813 3.0234375 6.75390625 C1 5 1 5 -1 2 C-0.67 1.34 -0.34 0.68 0 0 Z " fill="#B6B0B0" transform="translate(13,55)"/>
<path d="M0 0 C1.93138724 2.89708085 2.28740564 3.82034782 2.640625 7.08984375 C2.74246094 7.87423828 2.84429687 8.65863281 2.94921875 9.46679688 C3.14905106 11.10827658 3.33406437 12.7516311 3.50390625 14.39648438 C4.02524286 18.85025842 4.02524286 18.85025842 6.44726562 22.45751953 C8.25838669 23.7168984 8.25838669 23.7168984 11 25 C8.50907189 26.24546405 7.58919267 25.7767578 5 25 C5.99 26.32 6.98 27.64 8 29 C3.94541245 27.26231962 0.96502477 25.15209064 -0.8828125 21.03125 C-1.40565114 19.6302455 -1.90822686 18.22145119 -2.38671875 16.8046875 C-2.97784302 14.93127656 -2.97784302 14.93127656 -4 13 C-2.0625 13.5625 -2.0625 13.5625 0 15 C0.75 18.625 0.75 18.625 1 22 C1.66 22 2.32 22 3 22 C2.7834375 20.91460937 2.566875 19.82921875 2.34375 18.7109375 C2.06220674 17.2656821 1.78097314 15.82036635 1.5 14.375 C1.35691406 13.66214844 1.21382813 12.94929688 1.06640625 12.21484375 C0.26950574 8.07855065 -0.16034056 4.23566321 0 0 Z " fill="#CFC8C6" transform="translate(94,114)"/>
<path d="M0 0 C0.66386719 0.27714844 1.32773438 0.55429688 2.01171875 0.83984375 C3.33623047 1.38318359 3.33623047 1.38318359 4.6875 1.9375 C5.55761719 2.29714844 6.42773438 2.65679687 7.32421875 3.02734375 C9.88464393 3.95806765 12.32955633 4.49478093 15 5 C17.3125 6.0625 17.3125 6.0625 19 7 C19 7.66 19 8.32 19 9 C20.32 9.66 21.64 10.32 23 11 C20 11 20 11 18 10 C15.50542871 9.72620559 13.01107933 9.55450855 10.5078125 9.37890625 C6.44844396 8.76557487 4.49304673 7.54782969 1.75 4.5 C0 2 0 2 0 0 Z " fill="#BCB6B5" transform="translate(98,137)"/>
<path d="M0 0 C0.33 0 0.66 0 1 0 C1.12117188 0.96421875 1.24234375 1.9284375 1.3671875 2.921875 C1.53476563 4.18515625 1.70234375 5.4484375 1.875 6.75 C2.03742188 8.00296875 2.19984375 9.2559375 2.3671875 10.546875 C2.91389255 13.5301297 3.57810095 15.39318507 5 18 C5.125 20.75 5.125 20.75 5 23 C4.01 23 3.02 23 2 23 C-2.78947368 8.97368421 -2.78947368 8.97368421 -2 2 C-1.34 1.34 -0.68 0.68 0 0 Z " fill="#AFA9AA" transform="translate(80,66)"/>
<path d="M0 0 C4.97209562 1.76429199 9.43438061 4.3939166 14 7 C13.01 8.32 12.02 9.64 11 11 C12.32 11.66 13.64 12.32 15 13 C12 13 12 13 9 12 C9 11.34 9 10.68 9 10 C8.2575 9.773125 7.515 9.54625 6.75 9.3125 C3.43798128 7.73176379 2.00520162 6.04493579 0 3 C0 2.01 0 1.02 0 0 Z " fill="#EFE8E2" transform="translate(7,73)"/>
<path d="M0 0 C2.83918057 2.83918057 3.70275972 6.2854632 5 10 C5.29519531 10.78761719 5.59039062 11.57523438 5.89453125 12.38671875 C6.31798828 13.55654297 6.31798828 13.55654297 6.75 14.75 C7.01296875 15.46671875 7.2759375 16.1834375 7.546875 16.921875 C8.06407873 19.29387831 7.76009213 20.71972362 7 23 C4.95698846 18.47618873 3.99043705 13.83628305 3 9 C2.34 9 1.68 9 1 9 C0.938125 9.66 0.87625 10.32 0.8125 11 C-0.32136497 15.18657836 -2.59631064 18.42550992 -5 22 C-5 18.58238295 -4.24061454 16.17045938 -3 13 C-2.34 12.67 -1.68 12.34 -1 12 C-1.33 9.36 -1.66 6.72 -2 4 C-1.34 4 -0.68 4 0 4 C0 2.68 0 1.36 0 0 Z " fill="#C4BEBD" transform="translate(85,85)"/>
<path d="M0 0 C3.97063219 1.40626557 5.00305335 3.45263491 7 7.0625 C6.16210938 6.89878906 5.32421875 6.73507813 4.4609375 6.56640625 C0.79482693 6.03262717 -2.67239385 5.96506975 -6.375 6 C-7.62023437 6.00902344 -8.86546875 6.01804687 -10.1484375 6.02734375 C-11.08945313 6.03894531 -12.03046875 6.05054688 -13 6.0625 C-13 5.0725 -13 4.0825 -13 3.0625 C-12.0925 3.124375 -11.185 3.18625 -10.25 3.25 C-7.00525975 3.3721651 -7.00525975 3.3721651 -5 1.5 C-3 0.0625 -3 0.0625 0 0 Z " fill="#B4AEAE" transform="translate(149,33.9375)"/>
<path d="M0 0 C0.66 0 1.32 0 2 0 C3.38442 1.96498322 4.71203834 3.97048465 6 6 C6.5775 6.61875 7.155 7.2375 7.75 7.875 C9.6698757 11.13878869 9.4619844 14.30412482 9 18 C8 20.5 8 20.5 7 22 C6.34 21.67 5.68 21.34 5 21 C5.05800781 20.18015625 5.11601562 19.3603125 5.17578125 18.515625 C5.31126858 15.27941324 5.36641644 12.2201539 5 9 C2.64167228 6.52791204 2.64167228 6.52791204 0 5 C-0.3125 2.25 -0.3125 2.25 0 0 Z M4 22 C4.33 22.66 4.66 23.32 5 24 C3.35 24.33 1.7 24.66 0 25 C1 23 1 23 4 22 Z " fill="#ABA5A5" transform="translate(184,69)"/>
<path d="M0 0 C0.99 0 1.98 0 3 0 C2.67 0.99 2.34 1.98 2 3 C0.33333333 3.66666667 -1.33333333 4.33333333 -3 5 C-3.33 5.99 -3.66 6.98 -4 8 C-7.63 7.67 -11.26 7.34 -15 7 C-15.33 7.99 -15.66 8.98 -16 10 C-16.66 10 -17.32 10 -18 10 C-17.75 8.125 -17.75 8.125 -17 6 C-13.25432508 3.60716478 -9.66797801 3.6431689 -5.33984375 3.44140625 C-2.57372843 2.91958483 -1.8808156 1.99803357 0 0 Z " fill="#ADA7A8" transform="translate(48,5)"/>
<path d="M0 0 C0.33 1.32 0.66 2.64 1 4 C-2.96 4 -6.92 4 -11 4 C-11.33 7.63 -11.66 11.26 -12 15 C-12.33 15 -12.66 15 -13 15 C-13.33 10.71 -13.66 6.42 -14 2 C-8.3117328 0.10391093 -5.68620859 -0.19607616 0 0 Z " fill="#A7A1A2" transform="translate(76,4)"/>
<path d="M0 0 C0.99 0.495 0.99 0.495 2 1 C2.33 1.99 2.66 2.98 3 4 C3.66 3.01 4.32 2.02 5 1 C6.19088986 6.38027025 7.2919519 11.45291384 7 17 C6.01 16.67 5.02 16.34 4 16 C2.9375 12.875 2.9375 12.875 2 9 C1.62875 7.741875 1.2575 6.48375 0.875 5.1875 C0 2 0 2 0 0 Z " fill="#BFB9B9" transform="translate(49,37)"/>
<path d="M0 0 C0.33 0 0.66 0 1 0 C1.33 1.98 1.66 3.96 2 6 C3.65 5.67 5.3 5.34 7 5 C6.01 5.66 5.02 6.32 4 7 C2.75752778 10.09710423 2.75752778 10.09710423 1.8125 13.625 C1.46832031 14.81351563 1.12414062 16.00203125 0.76953125 17.2265625 C0.51558594 18.14179687 0.26164062 19.05703125 0 20 C-0.5534764 17.92446352 -1 16.15634036 -1 14 C-1.66 14.66 -2.32 15.32 -3 16 C-2.85691406 15.29488281 -2.71382813 14.58976562 -2.56640625 13.86328125 C-1.99522944 10.97588399 -1.46094689 8.08390614 -0.9375 5.1875 C-0.67259766 3.72376953 -0.67259766 3.72376953 -0.40234375 2.23046875 C-0.26957031 1.49441406 -0.13679688 0.75835938 0 0 Z " fill="#BBB4B4" transform="translate(95,18)"/>
<path d="M0 0 C2.89888552 1.43620584 5.77447839 2.9073705 8.625 4.4375 C9.40101562 4.84871094 10.17703125 5.25992187 10.9765625 5.68359375 C13 7 13 7 15 10 C9.25 9.125 9.25 9.125 7 8 C7 7.34 7 6.68 7 6 C5.02 6.66 3.04 7.32 1 8 C0.67 5.36 0.34 2.72 0 0 Z " fill="#A9A3A4" transform="translate(95,17)"/>
<path d="M0 0 C0.33 0.66 0.66 1.32 1 2 C0.34 2 -0.32 2 -1 2 C-1.33 6.95 -1.66 11.9 -2 17 C-0.68 17.33 0.64 17.66 2 18 C1.01 18.33 0.02 18.66 -1 19 C-1.33 19.99 -1.66 20.98 -2 22 C-2.33 21.01 -2.66 20.02 -3 19 C-3.66 19 -4.32 19 -5 19 C-5.33 19.99 -5.66 20.98 -6 22 C-6.33 21.34 -6.66 20.68 -7 20 C-6.525625 19.154375 -6.05125 18.30875 -5.5625 17.4375 C-3.82172754 13.6078006 -3.80902089 11.25277154 -4.08984375 7.1484375 C-3.98351142 4.60570782 -3.35131655 3.1415328 -2 1 C-1.34 0.67 -0.68 0.34 0 0 Z " fill="#D1CBC8" transform="translate(8,37)"/>
<path d="M0 0 C0.9796875 0.00322266 1.959375 0.00644531 2.96875 0.00976562 C3.98453125 0.01814453 5.0003125 0.02652344 6.046875 0.03515625 C7.59375 0.04192383 7.59375 0.04192383 9.171875 0.04882812 C11.71360073 0.06059537 14.25520819 0.07703614 16.796875 0.09765625 C16.796875 0.42765625 16.796875 0.75765625 16.796875 1.09765625 C7.391875 1.59265625 7.391875 1.59265625 -2.203125 2.09765625 C-0.883125 2.75765625 0.436875 3.41765625 1.796875 4.09765625 C-4.143125 4.59265625 -4.143125 4.59265625 -10.203125 5.09765625 C-9.543125 4.43765625 -8.883125 3.77765625 -8.203125 3.09765625 C-8.533125 2.43765625 -8.863125 1.77765625 -9.203125 1.09765625 C-6.06462436 0.17211882 -3.26631722 -0.01899022 0 0 Z " fill="#BAB5B5" transform="translate(136.203125,136.90234375)"/>
<path d="M0 0 C0.75929472 2.98613386 1.4118332 5.97514219 2 9 C0.68 9.33 -0.64 9.66 -2 10 C-1.34 10.66 -0.68 11.32 0 12 C-0.03287583 14.72869407 -0.56397771 17.2966618 -1 20 C-1.66 19.01 -2.32 18.02 -3 17 C-4.65 18.32 -6.3 19.64 -8 21 C-7.34 19.35 -6.68 17.7 -6 16 C-5.34 16 -4.68 16 -4 16 C-3.8453125 14.2675 -3.8453125 14.2675 -3.6875 12.5 C-3.13964887 7.98828481 -1.7225121 4.19394251 0 0 Z " fill="#C0B9BA" transform="translate(88,41)"/>
<path d="M0 0 C-0.33 1.32 -0.66 2.64 -1 4 C-3.97 4.66 -6.94 5.32 -10 6 C-10 6.66 -10 7.32 -10 8 C-10.66 8 -11.32 8 -12 8 C-12 8.66 -12 9.32 -12 10 C-12.66 10 -13.32 10 -14 10 C-14.33 9.67 -14.66 9.34 -15 9 C-16.32594105 8.63837971 -17.65938457 8.30271961 -19 8 C-3.28458498 0 -3.28458498 0 0 0 Z " fill="#E6E0DC" transform="translate(185,96)"/>
<path d="M0 0 C0.33 0.66 0.66 1.32 1 2 C1.99 2 2.98 2 4 2 C2.55575365 5.23861303 0.74227753 7.61969163 -1.625 10.25 C-2.25664062 10.95640625 -2.88828125 11.6628125 -3.5390625 12.390625 C-4.02117187 12.92171875 -4.50328125 13.4528125 -5 14 C-5.33 13.34 -5.66 12.68 -6 12 C-5.67 11.01 -5.34 10.02 -5 9 C-4.34 9 -3.68 9 -3 9 C-3.2475 8.2575 -3.495 7.515 -3.75 6.75 C-3.8325 5.8425 -3.915 4.935 -4 4 C-2.0625 1.6875 -2.0625 1.6875 0 0 Z " fill="#C2BCBB" transform="translate(187,122)"/>
<path d="M0 0 C0.86625 0.4640625 0.86625 0.4640625 1.75 0.9375 C3.85732874 1.93262746 5.73738455 2.48908683 8 3 C8.99 3.33 9.98 3.66 11 4 C11.33 3.34 11.66 2.68 12 2 C12.33 3.65 12.66 5.3 13 7 C10.4375 7.875 10.4375 7.875 7 8 C4.31093692 6.35221084 2.05065085 4.39647067 0 2 C0 1.34 0 0.68 0 0 Z " fill="#BBB6B5" transform="translate(81,119)"/>
<path d="M0 0 C4.43087221 0.5063854 6.95723584 1.71052523 10 5 C10.99007329 7.96001294 11.55821176 10.91407615 12 14 C11.01 13.01 10.02 12.02 9 11 C8.34 12.32 7.68 13.64 7 15 C6.34 12.03 5.68 9.06 5 6 C5.99 6 6.98 6 8 6 C7.4225 5.65066406 6.845 5.30132812 6.25 4.94140625 C5.13625 4.25884766 5.13625 4.25884766 4 3.5625 C3.2575 3.11003906 2.515 2.65757813 1.75 2.19140625 C1.1725 1.79824219 0.595 1.40507812 0 1 C0 0.67 0 0.34 0 0 Z " fill="#C9C3C1" transform="translate(101,20)"/>
<path d="M0 0 C0.99 0.33 1.98 0.66 3 1 C5.22574335 1.22451458 7.45581519 1.40782878 9.6875 1.5625 C10.86699219 1.64628906 12.04648437 1.73007813 13.26171875 1.81640625 C14.61716797 1.90728516 14.61716797 1.90728516 16 2 C16 2.66 16 3.32 16 4 C9.78630501 5.01924246 5.51648654 5.62926746 0 2 C0 1.34 0 0.68 0 0 Z " fill="#ABA5A6" transform="translate(38,108)"/>
<path d="M0 0 C1.72526042 1.07421875 3.45052083 2.1484375 5.17578125 3.22265625 C2.17578125 5.22265625 2.17578125 5.22265625 -1.82421875 5.22265625 C-1.82421875 4.56265625 -1.82421875 3.90265625 -1.82421875 3.22265625 C-6.11421875 3.22265625 -10.40421875 3.22265625 -14.82421875 3.22265625 C-14.82421875 2.89265625 -14.82421875 2.56265625 -14.82421875 2.22265625 C-11.52421875 2.22265625 -8.22421875 2.22265625 -4.82421875 2.22265625 C-4.82421875 1.56265625 -4.82421875 0.90265625 -4.82421875 0.22265625 C-1.82421875 -0.77734375 -1.82421875 -0.77734375 0 0 Z " fill="#BDB7B7" transform="translate(55.82421875,106.77734375)"/>
<path d="M0 0 C0.99 0 1.98 0 3 0 C2.41892368 3.7602985 1.34800504 6.53035032 -0.5625 9.8125 C-1.01753906 10.60269531 -1.47257813 11.39289063 -1.94140625 12.20703125 C-2.29074219 12.79871094 -2.64007813 13.39039062 -3 14 C-3.99 13.67 -4.98 13.34 -6 13 C-5.34 13 -4.68 13 -4 13 C-4 11.68 -4 10.36 -4 9 C-3.34 9 -2.68 9 -2 9 C-1.855625 7.88625 -1.71125 6.7725 -1.5625 5.625 C-1 2 -1 2 0 0 Z " fill="#AFA9AB" transform="translate(145,61)"/>
<path d="M0 0 C2.12046792 3.53411321 2.53199289 6.94393835 3 11 C1.5 9.625 1.5 9.625 0 8 C0 7.34 0 6.68 0 6 C-0.66 6 -1.32 6 -2 6 C-2 6.66 -2 7.32 -2 8 C-2.99 8 -3.98 8 -5 8 C-4.45773019 4.20411134 -2.79872437 2.52788007 0 0 Z " fill="#A9A3A4" transform="translate(85,57)"/>
<path d="M0 0 C0.66 0.33 1.32 0.66 2 1 C1.6596875 2.5778125 1.6596875 2.5778125 1.3125 4.1875 C0.60562226 9.44667041 2.03120113 14.08885589 3.40625 19.14453125 C4 22 4 22 3 25 C2.15862957 22.1062867 1.3266964 19.21040603 0.5 16.3125 C0.26152344 15.49587891 0.02304687 14.67925781 -0.22265625 13.83789062 C-2.51576805 5.74648183 -2.51576805 5.74648183 -2 2 C-1.34 1.34 -0.68 0.68 0 0 Z " fill="#D9D2CF" transform="translate(48,8)"/>
<path d="M0 0 C0.33 0.99 0.66 1.98 1 3 C1.99 3 2.98 3 4 3 C4 2.34 4 1.68 4 1 C4.66 1 5.32 1 6 1 C6.33 2.65 6.66 4.3 7 6 C6.67 5.34 6.34 4.68 6 4 C5.01 4 4.02 4 3 4 C3 6.64 3 9.28 3 12 C2.67 12 2.34 12 2 12 C1.67 9.69 1.34 7.38 1 5 C-0.49743119 6.49743119 -0.33202693 7.98824239 -0.5625 10.0625 C-0.706875 11.361875 -0.85125 12.66125 -1 14 C-1.33 14 -1.66 14 -2 14 C-2.3690205 4.58997722 -2.3690205 4.58997722 0 0 Z " fill="#D0C9C7" transform="translate(79,62)"/>
<path d="M0 0 C0.66 0.66 1.32 1.32 2 2 C1.04956626 3.33897583 0.08940853 4.67105427 -0.875 6 C-1.40867188 6.7425 -1.94234375 7.485 -2.4921875 8.25 C-2.98976562 8.8275 -3.48734375 9.405 -4 10 C-4.66 10 -5.32 10 -6 10 C-6 8 -6 8 -4.0625 6 C-3.381875 5.34 -2.70125 4.68 -2 4 C-1.67 3.34 -1.34 2.68 -1 2 C-4.96 2 -8.92 2 -13 2 C-13 1.67 -13 1.34 -13 1 C-8.60854301 0.14313034 -4.47525292 -0.25818767 0 0 Z " fill="#CCC6C4" transform="translate(145,140)"/>
<path d="M0 0 C4.60853797 0.72008406 8.67237409 2.31295939 13 4 C13 3.34 13 2.68 13 2 C12.34 1.67 11.68 1.34 11 1 C15.75 1.75 15.75 1.75 18 4 C16.68 4 15.36 4 14 4 C14 5.65 14 7.3 14 9 C13.67 8.01 13.34 7.02 13 6 C11.03422541 5.08359427 11.03422541 5.08359427 8.6875 4.5 C5.25229318 3.46615591 2.69592709 2.46149865 0 0 Z " fill="#CEC8C6" transform="translate(18,89)"/>
<path d="M0 0 C3.3 0 6.6 0 10 0 C9.01 1.485 9.01 1.485 8 3 C5.03 2.505 5.03 2.505 2 2 C2 2.99 2 3.98 2 5 C2.99 5 3.98 5 5 5 C4 7 4 7 2 8 C1.27840576 9.64363134 0.60648579 11.31050386 0 13 C-1.1577506 9.52674819 -1.06866652 6.63932552 -1 3 C-0.34 3 0.32 3 1 3 C0.67 2.01 0.34 1.02 0 0 Z " fill="#C1BBBA" transform="translate(134,35)"/>
<path d="M0 0 C-4.455 1.485 -4.455 1.485 -9 3 C-8.34 3.66 -7.68 4.32 -7 5 C-9.64 5.33 -12.28 5.66 -15 6 C-15.33 5.01 -15.66 4.02 -16 3 C-14.08802961 2.29954544 -12.17019565 1.615081 -10.25 0.9375 C-9.18265625 0.55464844 -8.1153125 0.17179687 -7.015625 -0.22265625 C-4 -1 -4 -1 0 0 Z " fill="#BBB5B6" transform="translate(175,113)"/>
<path d="M0 0 C0.33 0.99 0.66 1.98 1 3 C1.99 3.33 2.98 3.66 4 4 C5.82421875 5.9609375 5.82421875 5.9609375 7.6875 8.375 C8.62142578 9.56222656 8.62142578 9.56222656 9.57421875 10.7734375 C11 13 11 13 11 16 C10.31164062 15.13375 10.31164062 15.13375 9.609375 14.25 C8.99578125 13.5075 8.3821875 12.765 7.75 12 C7.14671875 11.2575 6.5434375 10.515 5.921875 9.75 C3.94027788 7.55115267 3.94027788 7.55115267 0 8 C0 7.34 0 6.68 0 6 C0.66 6 1.32 6 2 6 C2 5.34 2 4.68 2 4 C1.34 4 0.68 4 0 4 C0 2.68 0 1.36 0 0 Z " fill="#C3BCBB" transform="translate(16,32)"/>
<path d="M0 0 C1.98 0 3.96 0 6 0 C5.36320312 0.16886719 4.72640625 0.33773438 4.0703125 0.51171875 C1.60224217 1.93480239 1.60224217 1.93480239 1.2421875 5.51953125 C1.10125356 6.94881413 0.97959205 8.38009907 0.875 9.8125 C0.47655141 14.49639033 0.0458623 18.69692599 -2 23 C-2.96804074 19.89484695 -2.98121797 17.6488104 -2.44140625 14.453125 C-2.30283203 13.60878906 -2.16425781 12.76445312 -2.02148438 11.89453125 C-1.87001953 11.02183594 -1.71855469 10.14914063 -1.5625 9.25 C-1.34110352 7.91775391 -1.34110352 7.91775391 -1.11523438 6.55859375 C-0.75064986 4.37108664 -0.37867934 2.18510358 0 0 Z " fill="#E6DFDC" transform="translate(83,13)"/>
<path d="M0 0 C0.33 0 0.66 0 1 0 C0.67 4.62 0.34 9.24 0 14 C0.99 14 1.98 14 3 14 C3 11.36 3 8.72 3 6 C3.33 6 3.66 6 4 6 C4.08096803 7.45742463 4.13917774 8.91612807 4.1875 10.375 C4.22230469 11.18710938 4.25710937 11.99921875 4.29296875 12.8359375 C4.19628906 13.55007812 4.09960938 14.26421875 4 15 C3.01 15.66 2.02 16.32 1 17 C-1 15 -1 15 -1.23046875 12.28515625 C-1.21628906 11.22167969 -1.20210938 10.15820312 -1.1875 9.0625 C-1.18105469 8.00160156 -1.17460938 6.94070312 -1.16796875 5.84765625 C-1 3 -1 3 0 0 Z " fill="#DFD8D6" transform="translate(113,64)"/>
<path d="M0 0 C2.64 0.33 5.28 0.66 8 1 C8 1.99 8 2.98 8 4 C6.35 4 4.7 4 3 4 C3 5.65 3 7.3 3 9 C2.34 8.67 1.68 8.34 1 8 C0.40644386 5.35139573 0.25790731 2.70802678 0 0 Z " fill="#ADA7A7" transform="translate(3,68)"/>
<path d="M0 0 C1.04220703 0.47566406 1.04220703 0.47566406 2.10546875 0.9609375 C5.26188644 2.09401052 7.97280167 2.40480011 11.3125 2.625 C12.91544922 2.73714844 12.91544922 2.73714844 14.55078125 2.8515625 C15.35902344 2.90054688 16.16726562 2.94953125 17 3 C16.67 3.66 16.34 4.32 16 5 C6.26995516 5.76681614 6.26995516 5.76681614 3.15625 3.88671875 C1.8125 2.5 1.8125 2.5 0 0 Z " fill="#A8A2A3" transform="translate(57,110)"/>
<path d="M0 0 C3.68548192 3.68548192 5 7.86850209 5 13 C2.00675737 11.9024777 1.15389099 11.32317108 -0.25 8.375 C-0.4975 7.59125 -0.745 6.8075 -1 6 C-0.34 6 0.32 6 1 6 C0.67 4.02 0.34 2.04 0 0 Z " fill="#BCB6B6" transform="translate(42,45)"/>
<path d="M0 0 C5.09448798 0.43173627 8.84512277 0.75400216 13 4 C13 4.66 13 5.32 13 6 C8.39146203 5.27991594 4.32762591 3.68704061 0 2 C0 1.34 0 0.68 0 0 Z " fill="#ADA7A7" transform="translate(18,87)"/>
<path d="M0 0 C0 0.99 0 1.98 0 3 C-1.42578125 4.421875 -1.42578125 4.421875 -3.3125 5.75 C-3.92738281 6.19859375 -4.54226562 6.6471875 -5.17578125 7.109375 C-7 8 -7 8 -10 7 C-4.4893617 0 -4.4893617 0 0 0 Z " fill="#AFA9A9" transform="translate(183,73)"/>
<path d="M0 0 C4.95 0 9.9 0 15 0 C15 0.66 15 1.32 15 2 C10.38 2.33 5.76 2.66 1 3 C0.67 2.01 0.34 1.02 0 0 Z " fill="#AAA4A5" transform="translate(161,128)"/>
<path d="M0 0 C3.32310483 1.16757737 5.83361132 2.14948857 8 5 C8 5.99 8 6.98 8 8 C7.01 8 6.02 8 5 8 C5 7.34 5 6.68 5 6 C4.360625 5.7525 3.72125 5.505 3.0625 5.25 C1 4 1 4 0.25 1.875 C0.1675 1.25625 0.085 0.6375 0 0 Z " fill="#B0AAAB" transform="translate(22,63)"/>
<path d="M0 0 C3.625 0.375 3.625 0.375 7 1 C6.13375 1.1546875 6.13375 1.1546875 5.25 1.3125 C2.68043567 2.09764466 1.11633305 3.377478 -1 5 C-1.66 5 -2.32 5 -3 5 C-3 5.99 -3 6.98 -3 8 C-4.65 8.66 -6.3 9.32 -8 10 C-7.04367001 8.70684939 -6.08486149 7.41553147 -5.125 6.125 C-4.59132812 5.40570313 -4.05765625 4.68640625 -3.5078125 3.9453125 C-2 2 -2 2 0 0 Z " fill="#E0D9D5" transform="translate(173,58)"/>
<path d="M0 0 C1.66666667 1.66666667 3.33333333 3.33333333 5 5 C5.61875 5.515625 6.2375 6.03125 6.875 6.5625 C7.431875 7.2740625 7.431875 7.2740625 8 8 C7.5703125 10.08984375 7.5703125 10.08984375 7 12 C5.821389 10.76125579 4.65747085 9.5085199 3.5 8.25 C2.8503125 7.55390625 2.200625 6.8578125 1.53125 6.140625 C0 4 0 4 0 0 Z " fill="#ACA6A6" transform="translate(19,39)"/>
<path d="M0 0 C0.66 1.98 1.32 3.96 2 6 C1.34 6 0.68 6 0 6 C-0.33 5.34 -0.66 4.68 -1 4 C-3.64 4.33 -6.28 4.66 -9 5 C-8.67 4.01 -8.34 3.02 -8 2 C-5.10441559 0.5522078 -3.25811062 0 0 0 Z " fill="#AAA4A4" transform="translate(28,19)"/>
<path d="M0 0 C0.33 0 0.66 0 1 0 C1.84888195 5.37625234 2.0024305 9.65370398 1 15 C-0.6140712 12.1026099 -1.3756433 9.66713689 -1.75 6.375 C-1.84796875 5.59898438 -1.9459375 4.82296875 -2.046875 4.0234375 C-2 2 -2 2 0 0 Z " fill="#BAB3B3" transform="translate(45,10)"/>
<path d="M0 0 C0.99 0 1.98 0 3 0 C2.1875 2.4375 2.1875 2.4375 1 5 C0.01 5.33 -0.98 5.66 -2 6 C-2 6.66 -2 7.32 -2 8 C-3.32 8 -4.64 8 -6 8 C-6 7.34 -6 6.68 -6 6 C-5.01 5.67 -4.02 5.34 -3 5 C-2.67 4.01 -2.34 3.02 -2 2 C-1.34 2 -0.68 2 0 2 C0 1.34 0 0.68 0 0 Z " fill="#ACA6A7" transform="translate(141,142)"/>
<path d="M0 0 C0.66 0.33 1.32 0.66 2 1 C2 2.32 2 3.64 2 5 C-0.31 5.33 -2.62 5.66 -5 6 C-5 5.01 -5 4.02 -5 3 C-2.625 1.25 -2.625 1.25 0 0 Z " fill="#BCB6B6" transform="translate(160,103)"/>
<path d="M0 0 C3.3 0 6.6 0 10 0 C10.33 1.65 10.66 3.3 11 5 C10.67 4.34 10.34 3.68 10 3 C7.88153715 2.31270746 7.88153715 2.31270746 5.4375 1.875 C4.61121094 1.70742187 3.78492188 1.53984375 2.93359375 1.3671875 C2.29550781 1.24601563 1.65742187 1.12484375 1 1 C0.87625 1.639375 0.7525 2.27875 0.625 2.9375 C0.41875 3.618125 0.2125 4.29875 0 5 C-0.99 5.495 -0.99 5.495 -2 6 C-1.49396008 3.83125748 -1.00016187 2.00032373 0 0 Z " fill="#DCD4D2" transform="translate(33,12)"/>
<path d="M0 0 C-0.3125 1.875 -0.3125 1.875 -1 4 C-4 6 -4 6 -7 6 C-6.6875 4.125 -6.6875 4.125 -6 2 C-3 0 -3 0 0 0 Z " fill="#B2ACAD" transform="translate(157,93)"/>
<path d="M0 0 C0.33 0.66 0.66 1.32 1 2 C0.67 2.99 0.34 3.98 0 5 C0.66 5 1.32 5 2 5 C1.1875 6.9375 1.1875 6.9375 0 9 C-0.99 9.33 -1.98 9.66 -3 10 C-3.36629408 5.72656908 -2.40814077 3.51187196 0 0 Z " fill="#C1BABA" transform="translate(136,76)"/>
<path d="M0 0 C1.37579827 2.66211372 2.37063561 5.06296616 3 8 C3.99 8 4.98 8 6 8 C6 8.66 6 9.32 6 10 C5.34 10 4.68 10 4 10 C4.33 11.32 4.66 12.64 5 14 C2.37200898 12.13497412 1.13634249 10.69589209 0.51171875 7.5078125 C0.27406427 5.0035728 0.0959336 2.51346021 0 0 Z " fill="#CEC8C6" transform="translate(2,68)"/>
<path d="M0 0 C2.4294516 3.6441774 2.16179575 5.71241272 2 10 C1.01 10 0.02 10 -1 10 C-1.02689216 8.52093108 -1.04634621 7.04172517 -1.0625 5.5625 C-1.07410156 4.73878906 -1.08570313 3.91507813 -1.09765625 3.06640625 C-1 1 -1 1 0 0 Z " fill="#B1ABAD" transform="translate(65,43)"/>
<path d="M0 0 C1.60080151 4.00200378 0.29279692 7.04556236 -1 11 C-1.66 11 -2.32 11 -3 11 C-3 7.7 -3 4.4 -3 1 C-2.34 1.66 -1.68 2.32 -1 3 C-0.67 2.01 -0.34 1.02 0 0 Z " fill="#B7B1B2" transform="translate(78,42)"/>
<path d="M0 0 C0.99 0 1.98 0 3 0 C3.33 0.99 3.66 1.98 4 3 C4.66 3.33 5.32 3.66 6 4 C6 4.66 6 5.32 6 6 C4.68 6 3.36 6 2 6 C2 4.68 2 3.36 2 2 C1.071875 2.99 1.071875 2.99 0.125 4 C-2 6 -2 6 -4 6 C-2.84826645 3.53199953 -1.95216435 1.95216435 0 0 Z " fill="#E4DDD9" transform="translate(13,37)"/>
<path d="M0 0 C0.66 0.33 1.32 0.66 2 1 C2 3.97 2 6.94 2 10 C0.68 10.33 -0.64 10.66 -2 11 C-1.34 7.37 -0.68 3.74 0 0 Z " fill="#A9A3A3" transform="translate(189,114)"/>
<path d="M0 0 C2.97 0 5.94 0 9 0 C9 2.31 9 4.62 9 7 C8.67 7 8.34 7 8 7 C8 5.02 8 3.04 8 1 C5.06556598 1.26656572 5.06556598 1.26656572 2 2 C1.01 3.485 1.01 3.485 0 5 C-0.66 5 -1.32 5 -2 5 C-2 4.01 -2 3.02 -2 2 C-1.34 2 -0.68 2 0 2 C0 1.34 0 0.68 0 0 Z " fill="#D9D2D0" transform="translate(90,51)"/>
<path d="M0 0 C0.66 0 1.32 0 2 0 C1.34 3.63 0.68 7.26 0 11 C-0.99 11 -1.98 11 -3 11 C-2.32829194 7.1936543 -1.27253436 3.64793184 0 0 Z " fill="#A7A1A2" transform="translate(16,25)"/>
<path d="M0 0 C2.64 0 5.28 0 8 0 C8.33 1.32 8.66 2.64 9 4 C6.36 3.67 3.72 3.34 1 3 C0.67 2.01 0.34 1.02 0 0 Z " fill="#B0AAAB" transform="translate(68,4)"/>
<path d="M0 0 C2.31 0 4.62 0 7 0 C6.67 1.32 6.34 2.64 6 4 C4.02 4.33 2.04 4.66 0 5 C0 3.35 0 1.7 0 0 Z " fill="#F3EDE8" transform="translate(125,134)"/>
<path d="M0 0 C0.66 0 1.32 0 2 0 C3.2890625 1.75 3.2890625 1.75 4.625 4 C5.07101563 4.7425 5.51703125 5.485 5.9765625 6.25 C6.31429687 6.8275 6.65203125 7.405 7 8 C2.64464931 6.83857315 0.35380297 5.92300495 -2 2 C-1.34 1.34 -0.68 0.68 0 0 Z " fill="#C4BEBD" transform="translate(94,12)"/>
<path d="M0 0 C1 2 1 2 0.44140625 4.1640625 C0.15136719 4.97617187 -0.13867188 5.78828125 -0.4375 6.625 C-0.72496094 7.44226562 -1.01242188 8.25953125 -1.30859375 9.1015625 C-1.53675781 9.72804688 -1.76492187 10.35453125 -2 11 C-2.5534764 8.92446352 -3 7.15634036 -3 5 C-3.66 5.66 -4.32 6.32 -5 7 C-4.67 5.35 -4.34 3.7 -4 2 C-3.01 2.33 -2.02 2.66 -1 3 C-0.67 2.01 -0.34 1.02 0 0 Z " fill="#C4BDBC" transform="translate(97,27)"/>
<path d="M0 0 C0.66 0 1.32 0 2 0 C1.45276317 3.37462715 0.9451 5.08235 -1 8 C-1.66 8 -2.32 8 -3 8 C-2.25 2.25 -2.25 2.25 0 0 Z " fill="#ABA5A5" transform="translate(151,52)"/>
<path d="M0 0 C0.66 0 1.32 0 2 0 C3.35439668 2.70879335 3.06501451 5.00933268 3 8 C2.01 7.67 1.02 7.34 0 7 C0 4.69 0 2.38 0 0 Z " fill="#ADA7A9" transform="translate(53,46)"/>
<path d="M0 0 C0.99 0.33 1.98 0.66 3 1 C3.33 3.31 3.66 5.62 4 8 C3.67 7.34 3.34 6.68 3 6 C2.01 6 1.02 6 0 6 C0 4.02 0 2.04 0 0 Z " fill="#B1AAAA" transform="translate(31,27)"/>
<path d="M0 0 C0.33 0.66 0.66 1.32 1 2 C0.34 2 -0.32 2 -1 2 C-1.33 3.32 -1.66 4.64 -2 6 C-2.99 6 -3.98 6 -5 6 C-5.33 4.68 -5.66 3.36 -6 2 C-5.38125 1.855625 -4.7625 1.71125 -4.125 1.5625 C-1.96741678 1.06847775 -1.96741678 1.06847775 0 0 Z " fill="#D1CBC8" transform="translate(140,142)"/>
<path d="M0 0 C1.32 0 2.64 0 4 0 C3.38722388 2.96175123 2.74627478 4.38058783 1 7 C0.67 4.69 0.34 2.38 0 0 Z " fill="#ABA5A6" transform="translate(32,93)"/>
<path d="M0 0 C0.99 0 1.98 0 3 0 C3 1.32 3 2.64 3 4 C1.68 4.33 0.36 4.66 -1 5 C-1 1 -1 1 0 0 Z " fill="#B1ABAC" transform="translate(164,85)"/>
<path d="M0 0 C0.99 0.33 1.98 0.66 3 1 C2.67 2.65 2.34 4.3 2 6 C1.01 6.33 0.02 6.66 -1 7 C-0.67 4.69 -0.34 2.38 0 0 Z " fill="#AEA8A9" transform="translate(128,63)"/>
<path d="M0 0 C0 0.66 0 1.32 0 2 C-1.32 2 -2.64 2 -4 2 C-4 2.66 -4 3.32 -4 4 C-4.99 4 -5.98 4 -7 4 C-7.33 4.66 -7.66 5.32 -8 6 C-8 4.68 -8 3.36 -8 2 C-4.91190305 0.23537317 -3.76687864 0 0 0 Z " fill="#A7A1A1" transform="translate(94,49)"/>
<path d="M0 0 C-0.33 1.32 -0.66 2.64 -1 4 C-2.98 4 -4.96 4 -7 4 C-4.83989616 0.75984424 -3.8842653 0 0 0 Z " fill="#EFE8E3" transform="translate(185,96)"/>
<path d="M0 0 C0.66 0 1.32 0 2 0 C4.29013653 3.4352048 4.17842973 4.985331 4 9 C3.34 8.01 2.68 7.02 2 6 C1.34 5.67 0.68 5.34 0 5 C0 3.35 0 1.7 0 0 Z " fill="#A9A3A5" transform="translate(86,94)"/>
<path d="M0 0 C2.35953094 2.35953094 2.49141413 3.77895617 3 7 C1.68 7 0.36 7 -1 7 C-0.67 4.69 -0.34 2.38 0 0 Z " fill="#F0E9E3" transform="translate(82,89)"/>
<path d="M0 0 C0.33 0.66 0.66 1.32 1 2 C0.67 2.66 0.34 3.32 0 4 C1.32 3.34 2.64 2.68 4 2 C3 5 3 5 0.9375 6.1875 C0.298125 6.455625 -0.34125 6.72375 -1 7 C-1 6.34 -1 5.68 -1 5 C-1.66 4.67 -2.32 4.34 -3 4 C-2.01 2.68 -1.02 1.36 0 0 Z " fill="#C3BCBD" transform="translate(154,74)"/>
<path d="M0 0 C1.231394 2.46278801 1.07159196 4.2795055 1 7 C0.01 6.67 -0.98 6.34 -2 6 C-2 6.66 -2 7.32 -2 8 C-2.66 8 -3.32 8 -4 8 C-2.87548273 5.0280615 -1.77706209 2.66559313 0 0 Z " fill="#E4DCD8" transform="translate(156,49)"/>
<path d="M0 0 C0.66666667 1.33333333 1.33333333 2.66666667 2 4 C2.391875 4.70125 2.78375 5.4025 3.1875 6.125 C3.5896875 7.053125 3.5896875 7.053125 4 8 C3.67 8.66 3.34 9.32 3 10 C1.5 8.9375 1.5 8.9375 0 7 C-0.1875 3.3125 -0.1875 3.3125 0 0 Z " fill="#DBD4D2" transform="translate(8,43)"/>
<path d="M0 0 C0.33 0 0.66 0 1 0 C1.33 2.31 1.66 4.62 2 7 C1.01 7 0.02 7 -1 7 C-2 4 -2 4 -1.0625 1.8125 C-0.5365625 0.9153125 -0.5365625 0.9153125 0 0 Z " fill="#F7F1E9" transform="translate(97,31)"/>
<path d="M0 0 C4.875 2.75 4.875 2.75 6 5 C0.25 4.25 0.25 4.25 -2 2 C-1.34 2 -0.68 2 0 2 C0 1.34 0 0.68 0 0 Z " fill="#B0AAAA" transform="translate(104,22)"/>
<path d="M0 0 C1.5 1.1875 1.5 1.1875 3 3 C3.1875 5.6875 3.1875 5.6875 3 8 C2.34 8 1.68 8 1 8 C0.67 5.36 0.34 2.72 0 0 Z " fill="#A9A3A4" transform="translate(192,96)"/>
<path d="M0 0 C1.0625 1.875 1.0625 1.875 2 4 C1.67 4.66 1.34 5.32 1 6 C1.66 6.33 2.32 6.66 3 7 C2.01 7 1.02 7 0 7 C0 6.34 0 5.68 0 5 C-1.32 5.33 -2.64 5.66 -4 6 C-3.34 5.01 -2.68 4.02 -2 3 C-1.34 3 -0.68 3 0 3 C0 2.01 0 1.02 0 0 Z " fill="#BDB7B7" transform="translate(183,68)"/>
<path d="M0 0 C0.66 0 1.32 0 2 0 C2.99 1.98 3.98 3.96 5 6 C2 6 2 6 0 5 C0 3.35 0 1.7 0 0 Z " fill="#A7A1A2" transform="translate(184,69)"/>
<path d="M0 0 C0.928125 1.175625 0.928125 1.175625 1.875 2.375 C3.89858661 4.96837647 3.89858661 4.96837647 6 7 C4.35 7 2.7 7 1 7 C1 5.68 1 4.36 1 3 C0.34 3 -0.32 3 -1 3 C-0.67 2.01 -0.34 1.02 0 0 Z " fill="#E9E3E0" transform="translate(41,52)"/>
<path d="M0 0 C-0.33 2.31 -0.66 4.62 -1 7 C-1.66 7 -2.32 7 -3 7 C-3 5.02 -3 3.04 -3 1 C-1 0 -1 0 0 0 Z " fill="#ABA5A6" transform="translate(134,52)"/>
<path d="M0 0 C0.99 0.66 1.98 1.32 3 2 C2.34 3.65 1.68 5.3 1 7 C-2 3.25 -2 3.25 -2 1 C-1.34 0.67 -0.68 0.34 0 0 Z " fill="#BBB5B5" transform="translate(30,24)"/>
</svg>
